%TF.GenerationSoftware,KiCad,Pcbnew,(6.0.1)*%
%TF.CreationDate,2024-01-17T07:50:46-08:00*%
%TF.ProjectId,main,6d61696e-2e6b-4696-9361-645f70636258,rev?*%
%TF.SameCoordinates,Original*%
%TF.FileFunction,Copper,L1,Top*%
%TF.FilePolarity,Positive*%
%FSLAX46Y46*%
G04 Gerber Fmt 4.6, Leading zero omitted, Abs format (unit mm)*
G04 Created by KiCad (PCBNEW (6.0.1)) date 2024-01-17 07:50:46*
%MOMM*%
%LPD*%
G01*
G04 APERTURE LIST*
G04 Aperture macros list*
%AMRoundRect*
0 Rectangle with rounded corners*
0 $1 Rounding radius*
0 $2 $3 $4 $5 $6 $7 $8 $9 X,Y pos of 4 corners*
0 Add a 4 corners polygon primitive as box body*
4,1,4,$2,$3,$4,$5,$6,$7,$8,$9,$2,$3,0*
0 Add four circle primitives for the rounded corners*
1,1,$1+$1,$2,$3*
1,1,$1+$1,$4,$5*
1,1,$1+$1,$6,$7*
1,1,$1+$1,$8,$9*
0 Add four rect primitives between the rounded corners*
20,1,$1+$1,$2,$3,$4,$5,0*
20,1,$1+$1,$4,$5,$6,$7,0*
20,1,$1+$1,$6,$7,$8,$9,0*
20,1,$1+$1,$8,$9,$2,$3,0*%
%AMHorizOval*
0 Thick line with rounded ends*
0 $1 width*
0 $2 $3 position (X,Y) of the first rounded end (center of the circle)*
0 $4 $5 position (X,Y) of the second rounded end (center of the circle)*
0 Add line between two ends*
20,1,$1,$2,$3,$4,$5,0*
0 Add two circle primitives to create the rounded ends*
1,1,$1,$2,$3*
1,1,$1,$4,$5*%
G04 Aperture macros list end*
%TA.AperFunction,ComponentPad*%
%ADD10R,2.850000X2.850000*%
%TD*%
%TA.AperFunction,ComponentPad*%
%ADD11C,2.850000*%
%TD*%
%TA.AperFunction,ComponentPad*%
%ADD12RoundRect,0.287500X-0.287500X-0.287500X0.287500X-0.287500X0.287500X0.287500X-0.287500X0.287500X0*%
%TD*%
%TA.AperFunction,ComponentPad*%
%ADD13C,1.150000*%
%TD*%
%TA.AperFunction,WasherPad*%
%ADD14C,4.000000*%
%TD*%
%TA.AperFunction,ComponentPad*%
%ADD15C,1.800000*%
%TD*%
%TA.AperFunction,ComponentPad*%
%ADD16R,1.900000X1.900000*%
%TD*%
%TA.AperFunction,ComponentPad*%
%ADD17HorizOval,1.900000X0.000000X0.000000X0.000000X0.000000X0*%
%TD*%
%TA.AperFunction,ComponentPad*%
%ADD18R,1.800000X1.800000*%
%TD*%
%TA.AperFunction,ComponentPad*%
%ADD19C,2.250000*%
%TD*%
%TA.AperFunction,ComponentPad*%
%ADD20O,1.600000X2.600000*%
%TD*%
%TA.AperFunction,ComponentPad*%
%ADD21C,1.600000*%
%TD*%
%TA.AperFunction,ComponentPad*%
%ADD22RoundRect,0.287500X-0.287500X0.287500X-0.287500X-0.287500X0.287500X-0.287500X0.287500X0.287500X0*%
%TD*%
%TA.AperFunction,ComponentPad*%
%ADD23C,2.800000*%
%TD*%
%TA.AperFunction,ViaPad*%
%ADD24C,0.450000*%
%TD*%
%TA.AperFunction,ViaPad*%
%ADD25C,0.600000*%
%TD*%
%TA.AperFunction,ViaPad*%
%ADD26C,0.400000*%
%TD*%
%TA.AperFunction,ViaPad*%
%ADD27C,0.800000*%
%TD*%
%TA.AperFunction,Conductor*%
%ADD28C,0.600000*%
%TD*%
%TA.AperFunction,Conductor*%
%ADD29C,0.200000*%
%TD*%
%TA.AperFunction,Conductor*%
%ADD30C,0.400000*%
%TD*%
%TA.AperFunction,Conductor*%
%ADD31C,0.120000*%
%TD*%
G04 APERTURE END LIST*
D10*
%TO.P,SW7,1,A*%
%TO.N,F4{slash}1*%
X73300000Y-140700000D03*
D11*
%TO.P,SW7,2,B*%
%TO.N,F4*%
X73300000Y-136000000D03*
%TO.P,SW7,3,C*%
%TO.N,Net-(SW7-Pad3)*%
X73300000Y-131300000D03*
%TD*%
D12*
%TO.P,U35,1,-*%
%TO.N,Net-(R126-Pad1)*%
X109600000Y-101750000D03*
D13*
%TO.P,U35,2,+*%
%TO.N,Net-(D28-Pad1)*%
X109600000Y-105550000D03*
%TO.P,U35,3*%
%TO.N,Net-(R129-Pad2)*%
X124600000Y-101750000D03*
%TO.P,U35,4*%
%TO.N,Net-(C79-Pad2)*%
X124600000Y-105550000D03*
%TD*%
D14*
%TO.P,RV10,*%
%TO.N,*%
X119400000Y-70000000D03*
X110600000Y-70000000D03*
D15*
%TO.P,RV10,1,1*%
%TO.N,+9V*%
X117500000Y-77000000D03*
%TO.P,RV10,2,2*%
%TO.N,Net-(R117-Pad2)*%
X115000000Y-77000000D03*
%TO.P,RV10,3,3*%
%TO.N,GND*%
X112500000Y-77000000D03*
%TD*%
D10*
%TO.P,SW4,1,A*%
%TO.N,F1{slash}1*%
X73300000Y-74700000D03*
D11*
%TO.P,SW4,2,B*%
%TO.N,F1*%
X73300000Y-70000000D03*
%TO.P,SW4,3,C*%
%TO.N,Net-(SW4-Pad3)*%
X73300000Y-65300000D03*
%TD*%
D16*
%TO.P,SW2,1,1*%
%TO.N,Net-(SW2-Pad1)*%
X56638533Y-77391036D03*
D17*
%TO.P,SW2,2,2*%
%TO.N,Net-(SW2-Pad2)*%
X52308964Y-73061467D03*
%TO.P,SW2,3,3*%
%TO.N,Net-(SW2-Pad3)*%
X52308964Y-66938533D03*
%TO.P,SW2,4,4*%
%TO.N,Net-(SW2-Pad4)*%
X56638533Y-62608964D03*
%TO.P,SW2,5,5*%
%TO.N,Net-(SW2-Pad5)*%
X62761467Y-62608964D03*
%TO.P,SW2,6,6*%
%TO.N,Net-(SW2-Pad6)*%
X67091036Y-66938533D03*
%TO.P,SW2,7,7*%
%TO.N,Net-(SW2-Pad7)*%
X67091036Y-73061467D03*
%TO.P,SW2,8,8*%
%TO.N,Net-(SW2-Pad8)*%
X62761467Y-77391036D03*
%TO.P,SW2,9,9*%
%TO.N,R1*%
X57050000Y-70000000D03*
%TD*%
D14*
%TO.P,RV11,*%
%TO.N,*%
X110600000Y-114000000D03*
X119400000Y-114000000D03*
D15*
%TO.P,RV11,1,1*%
%TO.N,+9V*%
X117500000Y-121000000D03*
%TO.P,RV11,2,2*%
%TO.N,Net-(R114-Pad2)*%
X115000000Y-121000000D03*
%TO.P,RV11,3,3*%
%TO.N,GND*%
X112500000Y-121000000D03*
%TD*%
D18*
%TO.P,D16,1,K*%
%TO.N,Net-(D16-Pad1)*%
X51000000Y-50000000D03*
D15*
%TO.P,D16,2,A*%
%TO.N,+9V*%
X53540000Y-50000000D03*
%TD*%
D19*
%TO.P,J2,1,G*%
%TO.N,GND*%
X45500000Y-75200000D03*
%TO.P,J2,2,T*%
%TO.N,Net-(J2-Pad2)*%
X45500000Y-66300000D03*
%TO.P,J2,3,S*%
%TO.N,GND*%
X44000000Y-73050000D03*
%TO.P,J2,4,SW*%
X44000000Y-68600000D03*
D20*
%TO.P,J2,5*%
%TO.N,N/C*%
X48050000Y-67460000D03*
D21*
%TO.P,J2,6*%
X48050000Y-74140000D03*
%TD*%
D18*
%TO.P,D26,1,K*%
%TO.N,Net-(D26-Pad1)*%
X104450000Y-71270000D03*
D15*
%TO.P,D26,2,A*%
%TO.N,Net-(D26-Pad2)*%
X104450000Y-68730000D03*
%TD*%
D14*
%TO.P,RV14,*%
%TO.N,*%
X119400000Y-92000000D03*
X110600000Y-92000000D03*
D15*
%TO.P,RV14,1,1*%
%TO.N,+9V*%
X117500000Y-99000000D03*
%TO.P,RV14,2,2*%
%TO.N,Net-(R127-Pad2)*%
X115000000Y-99000000D03*
%TO.P,RV14,3,3*%
%TO.N,GND*%
X112500000Y-99000000D03*
%TD*%
D18*
%TO.P,D28,1,K*%
%TO.N,Net-(D28-Pad1)*%
X104450000Y-93270000D03*
D15*
%TO.P,D28,2,A*%
%TO.N,Net-(D28-Pad2)*%
X104450000Y-90730000D03*
%TD*%
D18*
%TO.P,D27,1,K*%
%TO.N,Net-(D27-Pad1)*%
X104450000Y-137270000D03*
D15*
%TO.P,D27,2,A*%
%TO.N,Net-(D27-Pad2)*%
X104450000Y-134730000D03*
%TD*%
D19*
%TO.P,J9,1,G*%
%TO.N,GND*%
X136000000Y-75200000D03*
%TO.P,J9,2,T*%
%TO.N,Net-(J9-Pad2)*%
X136000000Y-66300000D03*
%TO.P,J9,3,S*%
%TO.N,GND*%
X134500000Y-73050000D03*
%TO.P,J9,4,SW*%
%TO.N,unconnected-(J9-Pad4)*%
X134500000Y-68600000D03*
D20*
%TO.P,J9,5*%
%TO.N,N/C*%
X138550000Y-67460000D03*
D21*
%TO.P,J9,6*%
X138550000Y-74140000D03*
%TD*%
D10*
%TO.P,SW6,1,A*%
%TO.N,F2{slash}1*%
X73300000Y-96700000D03*
D11*
%TO.P,SW6,2,B*%
%TO.N,F2*%
X73300000Y-92000000D03*
%TO.P,SW6,3,C*%
%TO.N,Net-(SW6-Pad3)*%
X73300000Y-87300000D03*
%TD*%
D19*
%TO.P,J3,1,G*%
%TO.N,GND*%
X45500000Y-97200000D03*
%TO.P,J3,2,T*%
%TO.N,Net-(J3-Pad2)*%
X45500000Y-88300000D03*
%TO.P,J3,3,S*%
%TO.N,GND*%
X44000000Y-95050000D03*
%TO.P,J3,4,SW*%
X44000000Y-90600000D03*
D20*
%TO.P,J3,5*%
%TO.N,N/C*%
X48050000Y-89460000D03*
D21*
%TO.P,J3,6*%
X48050000Y-96140000D03*
%TD*%
D18*
%TO.P,D25,1,K*%
%TO.N,Net-(D25-Pad1)*%
X104450000Y-115270000D03*
D15*
%TO.P,D25,2,A*%
%TO.N,Net-(D25-Pad2)*%
X104450000Y-112730000D03*
%TD*%
D16*
%TO.P,SW8,1,1*%
%TO.N,Net-(SW8-Pad1)*%
X56638533Y-143391036D03*
D17*
%TO.P,SW8,2,2*%
%TO.N,Net-(SW8-Pad2)*%
X52308964Y-139061467D03*
%TO.P,SW8,3,3*%
%TO.N,Net-(SW8-Pad3)*%
X52308964Y-132938533D03*
%TO.P,SW8,4,4*%
%TO.N,Net-(SW8-Pad4)*%
X56638533Y-128608964D03*
%TO.P,SW8,5,5*%
%TO.N,Net-(SW8-Pad5)*%
X62761467Y-128608964D03*
%TO.P,SW8,6,6*%
%TO.N,Net-(SW8-Pad6)*%
X67091036Y-132938533D03*
%TO.P,SW8,7,7*%
%TO.N,Net-(SW8-Pad7)*%
X67091036Y-139061467D03*
%TO.P,SW8,8,8*%
%TO.N,Net-(SW8-Pad8)*%
X62761467Y-143391036D03*
%TO.P,SW8,9,9*%
%TO.N,R4*%
X57050000Y-136000000D03*
%TD*%
D14*
%TO.P,RV15,*%
%TO.N,*%
X110600000Y-136000000D03*
X119400000Y-136000000D03*
D15*
%TO.P,RV15,1,1*%
%TO.N,+9V*%
X117500000Y-143000000D03*
%TO.P,RV15,2,2*%
%TO.N,Net-(R124-Pad2)*%
X115000000Y-143000000D03*
%TO.P,RV15,3,3*%
%TO.N,GND*%
X112500000Y-143000000D03*
%TD*%
D12*
%TO.P,U30,1,-*%
%TO.N,Net-(R113-Pad1)*%
X109600000Y-123700000D03*
D13*
%TO.P,U30,2,+*%
%TO.N,Net-(D25-Pad1)*%
X109600000Y-127500000D03*
%TO.P,U30,3*%
%TO.N,Net-(R118-Pad2)*%
X124600000Y-123700000D03*
%TO.P,U30,4*%
%TO.N,Net-(C76-Pad2)*%
X124600000Y-127500000D03*
%TD*%
D10*
%TO.P,SW5,1,A*%
%TO.N,F3{slash}1*%
X73300000Y-118700000D03*
D11*
%TO.P,SW5,2,B*%
%TO.N,F3*%
X73300000Y-114000000D03*
%TO.P,SW5,3,C*%
%TO.N,Net-(SW5-Pad3)*%
X73300000Y-109300000D03*
%TD*%
D19*
%TO.P,J7,1,G*%
%TO.N,GND*%
X136000000Y-55200000D03*
%TO.P,J7,2,T*%
%TO.N,Net-(C21-Pad1)*%
X136000000Y-46300000D03*
%TO.P,J7,3,S*%
%TO.N,GND*%
X134500000Y-53050000D03*
%TO.P,J7,4,SW*%
%TO.N,unconnected-(J7-Pad4)*%
X134500000Y-48600000D03*
D20*
%TO.P,J7,5*%
%TO.N,N/C*%
X138550000Y-47460000D03*
D21*
%TO.P,J7,6*%
X138550000Y-54140000D03*
%TD*%
D16*
%TO.P,SW1,1,1*%
%TO.N,Net-(SW1-Pad1)*%
X56638533Y-99391036D03*
D17*
%TO.P,SW1,2,2*%
%TO.N,Net-(SW1-Pad2)*%
X52308964Y-95061467D03*
%TO.P,SW1,3,3*%
%TO.N,Net-(SW1-Pad3)*%
X52308964Y-88938533D03*
%TO.P,SW1,4,4*%
%TO.N,Net-(SW1-Pad4)*%
X56638533Y-84608964D03*
%TO.P,SW1,5,5*%
%TO.N,Net-(SW1-Pad5)*%
X62761467Y-84608964D03*
%TO.P,SW1,6,6*%
%TO.N,Net-(SW1-Pad6)*%
X67091036Y-88938533D03*
%TO.P,SW1,7,7*%
%TO.N,Net-(SW1-Pad7)*%
X67091036Y-95061467D03*
%TO.P,SW1,8,8*%
%TO.N,Net-(SW1-Pad8)*%
X62761467Y-99391036D03*
%TO.P,SW1,9,9*%
%TO.N,R2*%
X57050000Y-92000000D03*
%TD*%
D16*
%TO.P,SW3,1,1*%
%TO.N,Net-(SW3-Pad1)*%
X56638533Y-121391036D03*
D17*
%TO.P,SW3,2,2*%
%TO.N,Net-(SW3-Pad2)*%
X52308964Y-117061467D03*
%TO.P,SW3,3,3*%
%TO.N,Net-(SW3-Pad3)*%
X52308964Y-110938533D03*
%TO.P,SW3,4,4*%
%TO.N,Net-(SW3-Pad4)*%
X56638533Y-106608964D03*
%TO.P,SW3,5,5*%
%TO.N,Net-(SW3-Pad5)*%
X62761467Y-106608964D03*
%TO.P,SW3,6,6*%
%TO.N,Net-(SW3-Pad6)*%
X67091036Y-110938533D03*
%TO.P,SW3,7,7*%
%TO.N,Net-(SW3-Pad7)*%
X67091036Y-117061467D03*
%TO.P,SW3,8,8*%
%TO.N,Net-(SW3-Pad8)*%
X62761467Y-121391036D03*
%TO.P,SW3,9,9*%
%TO.N,R3*%
X57050000Y-114000000D03*
%TD*%
D22*
%TO.P,U34,1,-*%
%TO.N,Net-(R123-Pad1)*%
X130200000Y-128300000D03*
D13*
%TO.P,U34,2,+*%
%TO.N,Net-(D27-Pad1)*%
X126400000Y-128300000D03*
%TO.P,U34,3*%
%TO.N,Net-(R128-Pad2)*%
X130200000Y-143300000D03*
%TO.P,U34,4*%
%TO.N,Net-(C78-Pad2)*%
X126400000Y-143300000D03*
%TD*%
D19*
%TO.P,J5,1,G*%
%TO.N,GND*%
X45500000Y-141200000D03*
%TO.P,J5,2,T*%
%TO.N,Net-(J5-Pad2)*%
X45500000Y-132300000D03*
%TO.P,J5,3,S*%
%TO.N,GND*%
X44000000Y-139050000D03*
%TO.P,J5,4,SW*%
X44000000Y-134600000D03*
D20*
%TO.P,J5,5*%
%TO.N,N/C*%
X48050000Y-133460000D03*
D21*
%TO.P,J5,6*%
X48050000Y-140140000D03*
%TD*%
D19*
%TO.P,J10,1,G*%
%TO.N,GND*%
X136000000Y-141200000D03*
%TO.P,J10,2,T*%
%TO.N,Net-(J10-Pad2)*%
X136000000Y-132300000D03*
%TO.P,J10,3,S*%
%TO.N,GND*%
X134500000Y-139050000D03*
%TO.P,J10,4,SW*%
%TO.N,unconnected-(J10-Pad4)*%
X134500000Y-134600000D03*
D20*
%TO.P,J10,5*%
%TO.N,N/C*%
X138550000Y-133460000D03*
D21*
%TO.P,J10,6*%
X138550000Y-140140000D03*
%TD*%
D19*
%TO.P,J4,1,G*%
%TO.N,GND*%
X45500000Y-119200000D03*
%TO.P,J4,2,T*%
%TO.N,Net-(J4-Pad2)*%
X45500000Y-110300000D03*
%TO.P,J4,3,S*%
%TO.N,GND*%
X44000000Y-117050000D03*
%TO.P,J4,4,SW*%
X44000000Y-112600000D03*
D20*
%TO.P,J4,5*%
%TO.N,N/C*%
X48050000Y-111460000D03*
D21*
%TO.P,J4,6*%
X48050000Y-118140000D03*
%TD*%
D19*
%TO.P,J11,1,G*%
%TO.N,GND*%
X136000000Y-97200000D03*
%TO.P,J11,2,T*%
%TO.N,Net-(J11-Pad2)*%
X136000000Y-88300000D03*
%TO.P,J11,3,S*%
%TO.N,GND*%
X134500000Y-95050000D03*
%TO.P,J11,4,SW*%
%TO.N,unconnected-(J11-Pad4)*%
X134500000Y-90600000D03*
D20*
%TO.P,J11,5*%
%TO.N,N/C*%
X138550000Y-89460000D03*
D21*
%TO.P,J11,6*%
X138550000Y-96140000D03*
%TD*%
D19*
%TO.P,J1,1,G*%
%TO.N,GND*%
X45500000Y-55200000D03*
%TO.P,J1,2,T*%
%TO.N,Net-(J1-Pad2)*%
X45500000Y-46300000D03*
%TO.P,J1,3,S*%
%TO.N,GND*%
X44000000Y-53050000D03*
%TO.P,J1,4,SW*%
X44000000Y-48600000D03*
D20*
%TO.P,J1,5*%
%TO.N,N/C*%
X48050000Y-47460000D03*
D21*
%TO.P,J1,6*%
X48050000Y-54140000D03*
%TD*%
D12*
%TO.P,U31,1,-*%
%TO.N,Net-(R116-Pad1)*%
X109600000Y-79800000D03*
D13*
%TO.P,U31,2,+*%
%TO.N,Net-(D26-Pad1)*%
X109600000Y-83600000D03*
%TO.P,U31,3*%
%TO.N,Net-(R119-Pad2)*%
X124600000Y-79800000D03*
%TO.P,U31,4*%
%TO.N,Net-(C77-Pad2)*%
X124600000Y-83600000D03*
%TD*%
D19*
%TO.P,J8,1,G*%
%TO.N,GND*%
X136000000Y-119200000D03*
%TO.P,J8,2,T*%
%TO.N,Net-(J8-Pad2)*%
X136000000Y-110300000D03*
%TO.P,J8,3,S*%
%TO.N,GND*%
X134500000Y-117050000D03*
%TO.P,J8,4,SW*%
%TO.N,unconnected-(J8-Pad4)*%
X134500000Y-112600000D03*
D20*
%TO.P,J8,5*%
%TO.N,N/C*%
X138550000Y-111460000D03*
D21*
%TO.P,J8,6*%
X138550000Y-118140000D03*
%TD*%
D23*
%TO.P,TP1,1,1*%
%TO.N,GND*%
X135170000Y-146950000D03*
%TD*%
%TO.P,TP2,1,1*%
%TO.N,GND*%
X45280000Y-146950000D03*
%TD*%
D24*
%TO.N,+12V*%
X86050000Y-77075000D03*
X75900000Y-46575000D03*
D25*
X79850000Y-50000000D03*
D24*
X54300000Y-45525000D03*
X79637500Y-57512500D03*
X79637500Y-77037500D03*
X50750000Y-134850000D03*
X124500000Y-50300000D03*
X86255000Y-125095000D03*
D26*
X100770000Y-100080000D03*
D24*
X100770000Y-77095000D03*
D25*
X75850000Y-49925000D03*
D24*
X79637500Y-54362500D03*
X50725000Y-69050000D03*
X50737493Y-91012507D03*
X58500000Y-46575000D03*
X123155000Y-57895000D03*
X50750000Y-113000000D03*
D26*
X100770000Y-144520000D03*
X100770000Y-123080000D03*
D24*
%TO.N,-12V*%
X128145000Y-61705000D03*
X103150000Y-103900000D03*
X128105000Y-54805000D03*
X103150000Y-148325000D03*
X103150000Y-54800000D03*
X103150000Y-126900000D03*
X93795000Y-80905000D03*
D25*
X100850000Y-51925000D03*
D24*
X93795000Y-128905000D03*
X103150000Y-80900000D03*
D25*
X63400000Y-51925000D03*
D24*
%TO.N,Net-(C13-Pad1)*%
X123375000Y-54275000D03*
X121406250Y-50743750D03*
%TO.N,Net-(C17-Pad1)*%
X130000000Y-46200000D03*
X128400000Y-50995000D03*
%TO.N,Net-(C20-Pad1)*%
X129475000Y-49075000D03*
X129575000Y-53025000D03*
%TO.N,Net-(C7-Pad1)*%
X54925000Y-44325000D03*
X61350000Y-44325000D03*
X54925000Y-46775000D03*
%TO.N,F3*%
X88125000Y-106025000D03*
X71575000Y-106025000D03*
X134475000Y-123375000D03*
X132850000Y-107000000D03*
X120000000Y-107000000D03*
%TO.N,F4*%
X120239989Y-125689989D03*
X120239989Y-133000000D03*
X127815000Y-125635000D03*
X88150000Y-133000000D03*
%TO.N,F2*%
X85425000Y-86025000D03*
X75550000Y-92000000D03*
X126650000Y-82150000D03*
X75550000Y-86000000D03*
%TO.N,Net-(J1-Pad2)*%
X51875000Y-46250000D03*
%TO.N,VCA3*%
X49775000Y-116175000D03*
X107200000Y-122800000D03*
%TO.N,VCA1*%
X102250000Y-75450000D03*
X49725000Y-72375000D03*
%TO.N,VCA4*%
X100100000Y-142850000D03*
X49775000Y-138175000D03*
%TO.N,VCA2*%
X102100000Y-98400000D03*
X49725000Y-94175000D03*
%TO.N,Clk*%
X49200000Y-75000000D03*
X55825000Y-58300000D03*
X42125000Y-47175000D03*
X49200000Y-100375000D03*
X49179520Y-122195480D03*
X55825000Y-56250000D03*
X49179520Y-78445480D03*
X48275000Y-58425000D03*
%TO.N,Net-(C11-Pad1)*%
X61925000Y-53875000D03*
X67925000Y-54800000D03*
%TO.N,Net-(C12-Pad1)*%
X126275000Y-47925000D03*
X126250000Y-52250000D03*
%TO.N,Net-(C17-Pad2)*%
X128700000Y-47150000D03*
X131850000Y-48600000D03*
D26*
%TO.N,Net-(R30-Pad1)*%
X45700000Y-80450000D03*
X41050000Y-80200000D03*
D24*
%TO.N,Net-(R39-Pad1)*%
X45700000Y-124150000D03*
X41000000Y-123900000D03*
%TO.N,1f*%
X133215000Y-82035000D03*
X132175000Y-73325000D03*
%TO.N,2f*%
X130845000Y-83305000D03*
X130450000Y-86250000D03*
%TO.N,3f*%
X131550000Y-119750000D03*
X133000000Y-125250000D03*
%TO.N,Net-(U10-Pad3)*%
X53850000Y-57900000D03*
X65834511Y-57815489D03*
X65834511Y-68584511D03*
%TO.N,Net-(U11-Pad3)*%
X53450000Y-100350000D03*
X64475000Y-112100000D03*
X64399453Y-100600547D03*
%TO.N,Net-(C10-Pad1)*%
X66550000Y-53875000D03*
X74700000Y-56425000D03*
X74700000Y-53875000D03*
%TO.N,+9V*%
X123199511Y-72900489D03*
X88300000Y-104725000D03*
X47800000Y-120900000D03*
X61030000Y-66055000D03*
X61000000Y-109900000D03*
X61925000Y-50000000D03*
X88250000Y-56750000D03*
X63125000Y-58925000D03*
X62275000Y-52775000D03*
X60975000Y-131950000D03*
X47750000Y-99050000D03*
X84737500Y-95262500D03*
X88925000Y-139550000D03*
X117500000Y-139550000D03*
X88300000Y-131750000D03*
X84837500Y-115312500D03*
X88925000Y-112550000D03*
X88900000Y-92550000D03*
X47725000Y-57125000D03*
X131650000Y-64700000D03*
X69950000Y-126525000D03*
X63125000Y-55875000D03*
X123199511Y-139549511D03*
X47800000Y-77125000D03*
X123199511Y-99000489D03*
X123199511Y-78600000D03*
X123199511Y-122500489D03*
X88875000Y-64550000D03*
X60950000Y-87875000D03*
X74950000Y-79425000D03*
X76230656Y-82479367D03*
X85337500Y-141912500D03*
X128062500Y-123137500D03*
X88250000Y-84750000D03*
X68700000Y-123450000D03*
%TO.N,+5V*%
X128650000Y-129500000D03*
X127550000Y-87350000D03*
D25*
X110000000Y-45200000D03*
D24*
X73075000Y-45200000D03*
D25*
X110000000Y-66000000D03*
X128250000Y-75900000D03*
X128100000Y-66000000D03*
D24*
X128650000Y-118450000D03*
X134350000Y-129500000D03*
X69575000Y-45200000D03*
%TO.N,Net-(C64-Pad1)*%
X91932926Y-76082926D03*
X83775000Y-76025000D03*
%TO.N,Net-(C65-Pad1)*%
X96325000Y-125875000D03*
X91115000Y-126365000D03*
X83725000Y-122225000D03*
X84950000Y-125500000D03*
%TO.N,OSC3*%
X95900000Y-126850000D03*
X121775000Y-127075000D03*
%TO.N,Net-(J5-Pad2)*%
X45650000Y-137050000D03*
%TO.N,Net-(J11-Pad2)*%
X134350000Y-86250000D03*
%TO.N,Net-(C74-Pad1)*%
X89384511Y-89265489D03*
X96350000Y-91500000D03*
X88785000Y-79635000D03*
X83875000Y-97575000D03*
X89384511Y-97165489D03*
X83875000Y-79225000D03*
%TO.N,OSC2*%
X120712500Y-78487500D03*
X88985000Y-78365000D03*
X120712500Y-104212500D03*
%TO.N,Net-(C75-Pad1)*%
X83300000Y-127000000D03*
X88785000Y-127635000D03*
X82050000Y-128150000D03*
X96175000Y-145025000D03*
X82050000Y-145350000D03*
%TO.N,OSC4*%
X88735000Y-126365000D03*
X89409511Y-149290489D03*
X119050000Y-148400000D03*
%TO.N,Net-(C77-Pad2)*%
X123800000Y-74900000D03*
X96937500Y-75612500D03*
%TO.N,Net-(C78-Pad2)*%
X124600000Y-148400000D03*
D27*
%TO.N,Net-(D1-Pad2)*%
X95800000Y-52950000D03*
X97077500Y-50147500D03*
D24*
%TO.N,Net-(D15-Pad2)*%
X59710000Y-48540000D03*
X49050000Y-48775000D03*
X61350000Y-42325000D03*
%TO.N,Net-(D25-Pad1)*%
X111050000Y-118000000D03*
%TO.N,Net-(D25-Pad2)*%
X104475000Y-122475000D03*
%TO.N,Net-(D26-Pad1)*%
X107300000Y-71250000D03*
%TO.N,Net-(D26-Pad2)*%
X104200000Y-76200000D03*
%TO.N,Net-(D27-Pad1)*%
X107300000Y-137270000D03*
X107324999Y-128874999D03*
%TO.N,Net-(D27-Pad2)*%
X104475000Y-143775000D03*
%TO.N,Net-(D28-Pad1)*%
X107300000Y-93270000D03*
%TO.N,Net-(D28-Pad2)*%
X105795000Y-100095000D03*
%TO.N,Net-(J3-Pad2)*%
X45500000Y-93050000D03*
%TO.N,Net-(J4-Pad2)*%
X45500000Y-115050000D03*
%TO.N,Net-(R14-Pad1)*%
X117600000Y-53800000D03*
X117600000Y-58350000D03*
X123275000Y-59125000D03*
%TO.N,-9V*%
X129550000Y-57050000D03*
X82025489Y-56225489D03*
X82100000Y-122100000D03*
X82100000Y-74000000D03*
X82200000Y-102050000D03*
%TO.N,Net-(R19-Pad1)*%
X64146787Y-41753213D03*
X59705000Y-51080000D03*
X65671787Y-43278213D03*
X65050000Y-51075000D03*
%TO.N,Net-(R37-Pad2)*%
X43600000Y-103600000D03*
X46737500Y-104062500D03*
X43600000Y-101550000D03*
%TO.N,Net-(R56-Pad1)*%
X93925000Y-67075000D03*
X93925000Y-58025000D03*
%TO.N,Net-(R62-Pad1)*%
X91150000Y-115100000D03*
X91850000Y-106050000D03*
%TO.N,Net-(R86-Pad1)*%
X91155000Y-86005000D03*
X91155000Y-95095000D03*
%TO.N,Net-(R91-Pad1)*%
X94200000Y-132500000D03*
X93975000Y-142075000D03*
%TO.N,Net-(R111-Pad2)*%
X105750000Y-79900000D03*
X105750000Y-75450000D03*
%TO.N,Net-(R113-Pad1)*%
X106900000Y-123800000D03*
%TO.N,Net-(R114-Pad2)*%
X107100000Y-125900000D03*
X115000000Y-125150000D03*
%TO.N,Net-(R117-Pad2)*%
X115000000Y-80700000D03*
X108700000Y-80550000D03*
%TO.N,Net-(R118-Pad2)*%
X101400000Y-125635000D03*
X102350000Y-121950000D03*
%TO.N,Net-(R119-Pad2)*%
X101900000Y-82000000D03*
%TO.N,Net-(R123-Pad1)*%
X128450000Y-144500000D03*
X107050000Y-144500000D03*
%TO.N,Net-(R124-Pad2)*%
X115000000Y-147150000D03*
X108750000Y-147600000D03*
%TO.N,Net-(R127-Pad2)*%
X108750000Y-102900000D03*
X115000000Y-102900000D03*
%TO.N,Net-(R128-Pad2)*%
X100840000Y-147060000D03*
X101950000Y-140800000D03*
%TO.N,Net-(R129-Pad2)*%
X102162074Y-104987926D03*
%TO.N,SIG3*%
X118400000Y-62550000D03*
X107250000Y-120950000D03*
X99525000Y-124875000D03*
X99550000Y-120950000D03*
%TO.N,SIG1*%
X118465000Y-59235000D03*
X98185000Y-59235000D03*
X98185000Y-78365000D03*
X98200000Y-82000000D03*
%TO.N,SIG4*%
X100810000Y-145790000D03*
X119150000Y-65350000D03*
X122300000Y-65350000D03*
X107850000Y-142450000D03*
X122300000Y-141400000D03*
%TO.N,SIG2*%
X118350000Y-60950000D03*
X98727926Y-101877926D03*
X99600000Y-60950000D03*
X98400000Y-104800000D03*
%TO.N,Net-(U6-Pad3)*%
X53525000Y-78425000D03*
X64450000Y-79050000D03*
X64450000Y-90050000D03*
%TO.N,F2{slash}1*%
X72400000Y-84900000D03*
X53475000Y-79075000D03*
X61450000Y-80550000D03*
X61750000Y-86000000D03*
X60995000Y-90595000D03*
%TO.N,F1{slash}1*%
X53425000Y-59075000D03*
X58170000Y-68595000D03*
X58125000Y-59075000D03*
X71330978Y-69069022D03*
%TO.N,F3{slash}1*%
X58295000Y-112595000D03*
X58300000Y-101200000D03*
X73770000Y-126620000D03*
X53450000Y-101050000D03*
X71245000Y-112595000D03*
%TO.N,Net-(SW1-Pad5)*%
X63125000Y-88075000D03*
%TO.N,Net-(SW1-Pad1)*%
X62800000Y-89325000D03*
X61050000Y-99350000D03*
%TO.N,Net-(SW1-Pad2)*%
X63115000Y-91865000D03*
%TO.N,Net-(SW1-Pad6)*%
X65800000Y-93135000D03*
%TO.N,Net-(SW1-Pad3)*%
X53800000Y-95700000D03*
X63250000Y-95700000D03*
%TO.N,Net-(SW1-Pad8)*%
X62750000Y-96900000D03*
X60800000Y-96900000D03*
%TO.N,Net-(SW1-Pad4)*%
X58250000Y-95150000D03*
%TO.N,R2*%
X57100000Y-89550000D03*
%TO.N,Net-(SW2-Pad5)*%
X63080000Y-66055000D03*
%TO.N,Net-(SW2-Pad1)*%
X59100000Y-77400000D03*
X62700000Y-67700000D03*
%TO.N,Net-(SW2-Pad2)*%
X62765000Y-69865000D03*
%TO.N,Net-(SW2-Pad6)*%
X66065000Y-71135000D03*
%TO.N,Net-(SW2-Pad3)*%
X62950000Y-66950000D03*
X63275000Y-73675000D03*
%TO.N,Net-(SW2-Pad8)*%
X60750000Y-74950000D03*
%TO.N,Net-(SW2-Pad4)*%
X58325000Y-73675000D03*
%TO.N,Net-(SW3-Pad5)*%
X63205000Y-110055000D03*
%TO.N,Net-(SW3-Pad1)*%
X63250000Y-111350000D03*
X55200000Y-111300000D03*
%TO.N,Net-(SW3-Pad2)*%
X63265000Y-113865000D03*
X63238533Y-117061467D03*
%TO.N,Net-(SW3-Pad6)*%
X65685000Y-115135000D03*
%TO.N,Net-(SW3-Pad3)*%
X62750000Y-110600000D03*
X62750000Y-117700000D03*
%TO.N,Net-(SW3-Pad8)*%
X59525000Y-121375000D03*
X59525000Y-119625000D03*
%TO.N,Net-(SW3-Pad4)*%
X58200000Y-117700000D03*
%TO.N,Net-(SW5-Pad3)*%
X76310000Y-126560000D03*
%TO.N,Net-(U12-Pad12)*%
X74940000Y-82600000D03*
X71130000Y-82620000D03*
%TO.N,Net-(SW6-Pad3)*%
X69860000Y-84840000D03*
%TO.N,Net-(SW4-Pad3)*%
X68600000Y-77100000D03*
X68600000Y-65350000D03*
%TO.N,F4{slash}1*%
X70850000Y-135100000D03*
X59550000Y-134050000D03*
X72484511Y-123934511D03*
X59550000Y-123750000D03*
X53600000Y-122850000D03*
%TO.N,Net-(SW7-Pad3)*%
X75040000Y-124040000D03*
%TO.N,Net-(U14-Pad3)*%
X54050000Y-122200000D03*
X61465489Y-123265489D03*
X63055000Y-134595000D03*
%TO.N,Net-(SW8-Pad5)*%
X63155000Y-132055000D03*
%TO.N,Net-(SW8-Pad1)*%
X63200000Y-133350000D03*
X55334511Y-133784511D03*
%TO.N,Net-(SW8-Pad2)*%
X63215000Y-135865000D03*
X63025000Y-138625000D03*
%TO.N,Net-(SW8-Pad6)*%
X65885000Y-137135000D03*
%TO.N,Net-(SW8-Pad3)*%
X63200000Y-139700000D03*
X54200000Y-140350000D03*
%TO.N,Net-(SW8-Pad8)*%
X59500000Y-141850000D03*
%TO.N,Net-(SW8-Pad4)*%
X58200000Y-139700000D03*
%TO.N,R4*%
X58300000Y-133300000D03*
%TO.N,F1*%
X74050000Y-58300000D03*
X88175000Y-58025000D03*
X134450000Y-78800000D03*
X132930489Y-59719511D03*
%TO.N,Net-(U18-Pad4)*%
X90895000Y-67095000D03*
X90950000Y-58700000D03*
%TO.N,Net-(U19-Pad4)*%
X89409511Y-106659511D03*
X89300000Y-115095000D03*
X91250000Y-106675000D03*
%TO.N,Net-(U24-Pad4)*%
X91875000Y-86675000D03*
X88600000Y-86700000D03*
X88900000Y-95100000D03*
%TO.N,Net-(U25-Pad4)*%
X87550000Y-141550000D03*
X91200000Y-141550000D03*
X91875000Y-133675000D03*
%TO.N,Net-(D16-Pad1)*%
X51000000Y-53250000D03*
%TD*%
D28*
%TO.N,+12V*%
X79850000Y-50000000D02*
X75925000Y-50000000D01*
D29*
X100770000Y-77095000D02*
X100750000Y-77075000D01*
D30*
X100750000Y-77075000D02*
X86050000Y-77075000D01*
D29*
X123155000Y-57895000D02*
X122760489Y-57500489D01*
D30*
X86050000Y-77075000D02*
X79675000Y-77075000D01*
D28*
X75925000Y-50000000D02*
X75850000Y-49925000D01*
D29*
X58500000Y-46575000D02*
X75900000Y-46575000D01*
X79675000Y-77075000D02*
X79637500Y-77037500D01*
X122760489Y-57500489D02*
X79650489Y-57500489D01*
%TO.N,-12V*%
X128105000Y-54805000D02*
X103155000Y-54805000D01*
X93800000Y-80900000D02*
X103150000Y-80900000D01*
D28*
X100850000Y-51925000D02*
X63400000Y-51925000D01*
D29*
X93795000Y-80905000D02*
X93800000Y-80900000D01*
%TO.N,Net-(C7-Pad1)*%
X61350000Y-44325000D02*
X54925000Y-44325000D01*
D31*
%TO.N,F3*%
X109869822Y-107000000D02*
X120000000Y-107000000D01*
X88125000Y-106025000D02*
X71575000Y-106025000D01*
X120000000Y-107000000D02*
X132850000Y-107000000D01*
X88125000Y-106025000D02*
X88584511Y-105565489D01*
X108435311Y-105565489D02*
X109869822Y-107000000D01*
X88584511Y-105565489D02*
X108435311Y-105565489D01*
%TO.N,F4*%
X120239989Y-133000000D02*
X88150000Y-133000000D01*
X76300000Y-133000000D02*
X88150000Y-133000000D01*
X73300000Y-136000000D02*
X76300000Y-133000000D01*
X127760011Y-125689989D02*
X127815000Y-125635000D01*
X120239989Y-125689989D02*
X127760011Y-125689989D01*
%TO.N,F2*%
X75550000Y-86000000D02*
X85400000Y-86000000D01*
X85400000Y-86000000D02*
X85425000Y-86025000D01*
X73300000Y-92000000D02*
X75550000Y-92000000D01*
X126234511Y-82565489D02*
X126650000Y-82150000D01*
X85425000Y-86025000D02*
X85975000Y-86025000D01*
X85975000Y-86025000D02*
X89434511Y-82565489D01*
X89434511Y-82565489D02*
X126234511Y-82565489D01*
D29*
%TO.N,Net-(J1-Pad2)*%
X45500000Y-46300000D02*
X46625000Y-45175000D01*
X50800000Y-45175000D02*
X51875000Y-46250000D01*
X46625000Y-45175000D02*
X50800000Y-45175000D01*
D31*
%TO.N,VCA3*%
X49775000Y-116175000D02*
X49775000Y-116238011D01*
X69580978Y-118350000D02*
X74770489Y-123539511D01*
X51886989Y-118350000D02*
X69580978Y-118350000D01*
X106460489Y-123539511D02*
X107200000Y-122800000D01*
X74770489Y-123539511D02*
X106460489Y-123539511D01*
X49775000Y-116238011D02*
X51886989Y-118350000D01*
%TO.N,VCA1*%
X51620978Y-74270978D02*
X70360000Y-74270978D01*
X70360000Y-74270978D02*
X71615489Y-73015489D01*
X49725000Y-72375000D02*
X51620978Y-74270978D01*
X99815489Y-73015489D02*
X102250000Y-75450000D01*
X71615489Y-73015489D02*
X99815489Y-73015489D01*
%TO.N,VCA4*%
X70430978Y-141200000D02*
X52736989Y-141200000D01*
X52736989Y-141200000D02*
X49775000Y-138238011D01*
X72080978Y-142850000D02*
X70430978Y-141200000D01*
X49775000Y-138238011D02*
X49775000Y-138175000D01*
X100100000Y-142850000D02*
X72080978Y-142850000D01*
%TO.N,VCA2*%
X71700000Y-98400000D02*
X102100000Y-98400000D01*
X70700000Y-97400000D02*
X71700000Y-98400000D01*
X52936989Y-97400000D02*
X70700000Y-97400000D01*
X49725000Y-94188011D02*
X52936989Y-97400000D01*
X49725000Y-94175000D02*
X49725000Y-94188011D01*
%TO.N,Clk*%
X48275000Y-58425000D02*
X55700000Y-58425000D01*
X55700000Y-58425000D02*
X55825000Y-58300000D01*
D29*
%TO.N,Net-(C11-Pad1)*%
X67925000Y-54800000D02*
X62850000Y-54800000D01*
X62850000Y-54800000D02*
X61925000Y-53875000D01*
D31*
%TO.N,Net-(C17-Pad2)*%
X130150000Y-48600000D02*
X131850000Y-48600000D01*
X128700000Y-47150000D02*
X130150000Y-48600000D01*
%TO.N,Net-(R30-Pad1)*%
X41050000Y-80200000D02*
X45450000Y-80200000D01*
X45450000Y-80200000D02*
X45700000Y-80450000D01*
%TO.N,Net-(R39-Pad1)*%
X45700000Y-124150000D02*
X41250000Y-124150000D01*
X41250000Y-124150000D02*
X41000000Y-123900000D01*
%TO.N,Net-(U10-Pad3)*%
X53850000Y-57900000D02*
X53934511Y-57815489D01*
X53934511Y-57815489D02*
X65834511Y-57815489D01*
%TO.N,Net-(U11-Pad3)*%
X53700547Y-100600547D02*
X64399453Y-100600547D01*
X53450000Y-100350000D02*
X53700547Y-100600547D01*
D29*
%TO.N,Net-(C10-Pad1)*%
X66550000Y-53875000D02*
X74700000Y-53875000D01*
%TO.N,+9V*%
X123274511Y-122425489D02*
X127350489Y-122425489D01*
X121599511Y-77000000D02*
X117500000Y-77000000D01*
X61925000Y-50000000D02*
X53540000Y-50000000D01*
X123199022Y-99000000D02*
X117500000Y-99000000D01*
X131650000Y-64700000D02*
X123199511Y-72900489D01*
X123199511Y-122500489D02*
X123274511Y-122425489D01*
X123199511Y-78600000D02*
X121599511Y-77000000D01*
X123199511Y-99000489D02*
X123199022Y-99000000D01*
X127350489Y-122425489D02*
X128062500Y-123137500D01*
X123199511Y-122500489D02*
X119000489Y-122500489D01*
X119000489Y-122500489D02*
X117500000Y-121000000D01*
D31*
X123199022Y-139550000D02*
X123199511Y-139549511D01*
X117500000Y-139550000D02*
X123199022Y-139550000D01*
X88925000Y-139550000D02*
X117500000Y-139550000D01*
%TO.N,+5V*%
X134350000Y-129500000D02*
X128650000Y-129500000D01*
D30*
X110875489Y-66875489D02*
X127224511Y-66875489D01*
X73075000Y-45200000D02*
X110000000Y-45200000D01*
X127224511Y-66875489D02*
X128100000Y-66000000D01*
X110000000Y-66000000D02*
X110875489Y-66875489D01*
X69575000Y-45200000D02*
X73075000Y-45200000D01*
D31*
%TO.N,Net-(C64-Pad1)*%
X83832926Y-76082926D02*
X91932926Y-76082926D01*
X83775000Y-76025000D02*
X83832926Y-76082926D01*
%TO.N,Net-(C65-Pad1)*%
X91115000Y-126365000D02*
X91605000Y-125875000D01*
X84950000Y-125500000D02*
X85330489Y-125880489D01*
X85330489Y-125880489D02*
X90630489Y-125880489D01*
X91605000Y-125875000D02*
X96325000Y-125875000D01*
X90630489Y-125880489D02*
X91115000Y-126365000D01*
%TO.N,OSC3*%
X95900000Y-126850000D02*
X96334511Y-126415489D01*
X121115489Y-126415489D02*
X121775000Y-127075000D01*
X96334511Y-126415489D02*
X121115489Y-126415489D01*
%TO.N,Net-(C74-Pad1)*%
X88375000Y-79225000D02*
X88785000Y-79635000D01*
X83875000Y-97575000D02*
X84284511Y-97165489D01*
X83875000Y-79225000D02*
X88375000Y-79225000D01*
X84284511Y-97165489D02*
X89384511Y-97165489D01*
X89384511Y-89265489D02*
X91619022Y-91500000D01*
X91619022Y-91500000D02*
X96350000Y-91500000D01*
%TO.N,OSC2*%
X98385692Y-78849511D02*
X89469511Y-78849511D01*
X89469511Y-78849511D02*
X88985000Y-78365000D01*
X120712500Y-78487500D02*
X98747703Y-78487500D01*
X98747703Y-78487500D02*
X98385692Y-78849511D01*
%TO.N,Net-(C75-Pad1)*%
X83300000Y-127000000D02*
X83935000Y-127635000D01*
X82050000Y-145350000D02*
X95850000Y-145350000D01*
X83935000Y-127635000D02*
X88785000Y-127635000D01*
X95850000Y-145350000D02*
X96175000Y-145025000D01*
%TO.N,OSC4*%
X89409511Y-149290489D02*
X118159511Y-149290489D01*
X118159511Y-149290489D02*
X119050000Y-148400000D01*
%TO.N,Net-(C77-Pad2)*%
X97259511Y-75934511D02*
X103765489Y-75934511D01*
X103765489Y-75934511D02*
X104800000Y-74900000D01*
X104800000Y-74900000D02*
X123800000Y-74900000D01*
X96937500Y-75612500D02*
X97259511Y-75934511D01*
%TO.N,Net-(D15-Pad2)*%
X59475000Y-48775000D02*
X59710000Y-48540000D01*
X49050000Y-48775000D02*
X59475000Y-48775000D01*
%TO.N,Net-(D25-Pad1)*%
X104450000Y-115270000D02*
X108320000Y-115270000D01*
X108320000Y-115270000D02*
X111050000Y-118000000D01*
%TO.N,Net-(D26-Pad1)*%
X107300000Y-71250000D02*
X104450000Y-71250000D01*
%TO.N,Net-(D27-Pad1)*%
X126400000Y-128300000D02*
X125825001Y-128874999D01*
X125825001Y-128874999D02*
X107324999Y-128874999D01*
X107300000Y-137270000D02*
X104500000Y-137270000D01*
%TO.N,Net-(D28-Pad1)*%
X107300000Y-93270000D02*
X104500000Y-93270000D01*
%TO.N,Net-(R14-Pad1)*%
X122500000Y-58350000D02*
X117600000Y-58350000D01*
X123275000Y-59125000D02*
X122500000Y-58350000D01*
D29*
%TO.N,-9V*%
X129550000Y-57050000D02*
X128725489Y-56225489D01*
X128725489Y-56225489D02*
X82025489Y-56225489D01*
D31*
%TO.N,Net-(R19-Pad1)*%
X65045000Y-51080000D02*
X65050000Y-51075000D01*
X59705000Y-51080000D02*
X65045000Y-51080000D01*
%TO.N,Net-(R37-Pad2)*%
X46275000Y-103600000D02*
X46737500Y-104062500D01*
X43600000Y-103600000D02*
X46275000Y-103600000D01*
%TO.N,Net-(R113-Pad1)*%
X107240480Y-123534520D02*
X109365480Y-123534520D01*
X106900000Y-123800000D02*
X107240480Y-123534520D01*
%TO.N,Net-(R114-Pad2)*%
X107794522Y-125205478D02*
X115000000Y-125150000D01*
X107100000Y-125900000D02*
X107794522Y-125205478D01*
D29*
%TO.N,Net-(R117-Pad2)*%
X114875480Y-80674520D02*
X108824520Y-80674520D01*
X115000000Y-80700000D02*
X114875480Y-80674520D01*
X108824520Y-80674520D02*
X108700000Y-80550000D01*
D31*
%TO.N,Net-(R118-Pad2)*%
X110950000Y-123700000D02*
X124600000Y-123700000D01*
X109779334Y-124870666D02*
X110950000Y-123700000D01*
X101400000Y-125635000D02*
X102164334Y-124870666D01*
X102164334Y-124870666D02*
X109779334Y-124870666D01*
%TO.N,Net-(R119-Pad2)*%
X101900000Y-82000000D02*
X122200000Y-82000000D01*
X122200000Y-82000000D02*
X124600000Y-79600000D01*
%TO.N,Net-(R123-Pad1)*%
X107050000Y-144500000D02*
X128450000Y-144500000D01*
%TO.N,Net-(R124-Pad2)*%
X109200000Y-147150000D02*
X108750000Y-147600000D01*
X115000000Y-147150000D02*
X109200000Y-147150000D01*
%TO.N,Net-(R127-Pad2)*%
X108750000Y-102900000D02*
X115000000Y-102900000D01*
%TO.N,Net-(R128-Pad2)*%
X127700000Y-140800000D02*
X130200000Y-143300000D01*
X101950000Y-140800000D02*
X127700000Y-140800000D01*
%TO.N,Net-(R129-Pad2)*%
X102162074Y-104987926D02*
X102434511Y-104715489D01*
X121634511Y-104715489D02*
X124600000Y-101750000D01*
X102434511Y-104715489D02*
X121634511Y-104715489D01*
D29*
%TO.N,SIG3*%
X107250000Y-120950000D02*
X99550000Y-120950000D01*
D31*
%TO.N,SIG1*%
X98185000Y-59235000D02*
X118465000Y-59235000D01*
D29*
%TO.N,SIG4*%
X104150000Y-142450000D02*
X100810000Y-145790000D01*
X107850000Y-142450000D02*
X104150000Y-142450000D01*
X107850000Y-142450000D02*
X108900000Y-141400000D01*
X108900000Y-141400000D02*
X122300000Y-141400000D01*
X119150000Y-65350000D02*
X122300000Y-65350000D01*
D31*
%TO.N,SIG2*%
X118350000Y-60950000D02*
X99600000Y-60950000D01*
%TO.N,Net-(U6-Pad3)*%
X54150000Y-79050000D02*
X64450000Y-79050000D01*
X53525000Y-78425000D02*
X54150000Y-79050000D01*
%TO.N,F2{slash}1*%
X72400000Y-84900000D02*
X71481525Y-85818475D01*
X71481525Y-85818475D02*
X61931525Y-85818475D01*
X54950000Y-80550000D02*
X61450000Y-80550000D01*
X61931525Y-85818475D02*
X61750000Y-86000000D01*
X53475000Y-79075000D02*
X54950000Y-80550000D01*
%TO.N,F1{slash}1*%
X53425000Y-59075000D02*
X58125000Y-59075000D01*
X58170000Y-68595000D02*
X58644022Y-69069022D01*
X58644022Y-69069022D02*
X71330978Y-69069022D01*
%TO.N,F3{slash}1*%
X58295000Y-112595000D02*
X71245000Y-112595000D01*
X53450000Y-101050000D02*
X53550000Y-101150000D01*
X53550000Y-101150000D02*
X53600000Y-101200000D01*
X53600000Y-101200000D02*
X58300000Y-101200000D01*
%TO.N,Net-(SW1-Pad1)*%
X61008964Y-99391036D02*
X56638533Y-99391036D01*
X61050000Y-99350000D02*
X61008964Y-99391036D01*
%TO.N,Net-(SW1-Pad2)*%
X60485000Y-91865000D02*
X63115000Y-91865000D01*
X52308964Y-95061467D02*
X57288533Y-95061467D01*
X57288533Y-95061467D02*
X60485000Y-91865000D01*
%TO.N,Net-(SW1-Pad3)*%
X63250000Y-95700000D02*
X53800000Y-95700000D01*
%TO.N,Net-(SW1-Pad8)*%
X60800000Y-96900000D02*
X62750000Y-96900000D01*
%TO.N,Net-(SW2-Pad1)*%
X59100000Y-77400000D02*
X59091036Y-77391036D01*
X59091036Y-77391036D02*
X56638533Y-77391036D01*
%TO.N,Net-(SW2-Pad2)*%
X53040489Y-71209511D02*
X52308964Y-71941036D01*
X61420489Y-71209511D02*
X53040489Y-71209511D01*
X52308964Y-71941036D02*
X52308964Y-73061467D01*
X62765000Y-69865000D02*
X61420489Y-71209511D01*
%TO.N,Net-(SW2-Pad3)*%
X62950000Y-66950000D02*
X62938533Y-66938533D01*
X62938533Y-66938533D02*
X52308964Y-66938533D01*
%TO.N,Net-(SW2-Pad8)*%
X60750000Y-75379569D02*
X62761467Y-77391036D01*
X60750000Y-74950000D02*
X60750000Y-75379569D01*
%TO.N,Net-(SW3-Pad1)*%
X63250000Y-111350000D02*
X55250000Y-111350000D01*
X55250000Y-111350000D02*
X55200000Y-111300000D01*
%TO.N,Net-(SW3-Pad2)*%
X52308964Y-117061467D02*
X63238533Y-117061467D01*
%TO.N,Net-(SW3-Pad3)*%
X52308964Y-110938533D02*
X52647497Y-110600000D01*
X52647497Y-110600000D02*
X62750000Y-110600000D01*
%TO.N,Net-(SW3-Pad8)*%
X59525000Y-121375000D02*
X59541036Y-121391036D01*
X59541036Y-121391036D02*
X62761467Y-121391036D01*
%TO.N,Net-(U12-Pad12)*%
X74940000Y-82600000D02*
X71150000Y-82600000D01*
X71150000Y-82600000D02*
X71130000Y-82620000D01*
%TO.N,Net-(SW4-Pad3)*%
X68650000Y-65300000D02*
X73300000Y-65300000D01*
X68600000Y-65350000D02*
X68650000Y-65300000D01*
%TO.N,F4{slash}1*%
X53600000Y-122850000D02*
X54500000Y-123750000D01*
X59550000Y-134050000D02*
X60600000Y-135100000D01*
X60600000Y-135100000D02*
X70850000Y-135100000D01*
X59550000Y-123750000D02*
X59734511Y-123934511D01*
X59734511Y-123934511D02*
X72484511Y-123934511D01*
X54500000Y-123750000D02*
X59550000Y-123750000D01*
%TO.N,Net-(U14-Pad3)*%
X55115489Y-123265489D02*
X61465489Y-123265489D01*
X54050000Y-122200000D02*
X55115489Y-123265489D01*
%TO.N,Net-(SW8-Pad1)*%
X58935203Y-133350000D02*
X58500692Y-133784511D01*
X58500692Y-133784511D02*
X55334511Y-133784511D01*
X63200000Y-133350000D02*
X58935203Y-133350000D01*
%TO.N,Net-(SW8-Pad2)*%
X62588533Y-139061467D02*
X63025000Y-138625000D01*
X52308964Y-139061467D02*
X62588533Y-139061467D01*
%TO.N,Net-(SW8-Pad3)*%
X54200000Y-140350000D02*
X62550000Y-140350000D01*
X62550000Y-140350000D02*
X63200000Y-139700000D01*
%TO.N,F1*%
X74050000Y-58300000D02*
X74325000Y-58025000D01*
X89869511Y-59719511D02*
X132930489Y-59719511D01*
X88175000Y-58025000D02*
X89869511Y-59719511D01*
X74325000Y-58025000D02*
X88175000Y-58025000D01*
%TO.N,Net-(U19-Pad4)*%
X89409511Y-106659511D02*
X89425000Y-106675000D01*
X89425000Y-106675000D02*
X91250000Y-106675000D01*
%TO.N,Net-(U24-Pad4)*%
X88600000Y-86700000D02*
X91850000Y-86700000D01*
X91850000Y-86700000D02*
X91875000Y-86675000D01*
%TO.N,Net-(U25-Pad4)*%
X87550000Y-141550000D02*
X91200000Y-141550000D01*
%TD*%
M02*
