M48
; DRILL file {KiCad (6.0.1)} date Wed Jan 17 07:50:43 2024
; FORMAT={-:-/ absolute / inch / decimal}
; #@! TF.CreationDate,2024-01-17T07:50:43-08:00
; #@! TF.GenerationSoftware,Kicad,Pcbnew,(6.0.1)
; #@! TF.FileFunction,Plated,1,4,PTH
FMAT,2
INCH
; #@! TA.AperFunction,Plated,PTH,ViaDrill
T1C0.0079
; #@! TA.AperFunction,Plated,PTH,ViaDrill
T2C0.0118
; #@! TA.AperFunction,Plated,PTH,ViaDrill
T3C0.0157
; #@! TA.AperFunction,Plated,PTH,ComponentDrill
T4C0.0236
; #@! TA.AperFunction,Plated,PTH,ComponentDrill
T5C0.0354
; #@! TA.AperFunction,Plated,PTH,ComponentDrill
T6C0.0394
; #@! TA.AperFunction,Plated,PTH,ComponentDrill
T7C0.0492
; #@! TA.AperFunction,Plated,PTH,ComponentDrill
T8C0.0591
; #@! TA.AperFunction,Plated,PTH,ComponentDrill
T9C0.0630
; #@! TA.AperFunction,Plated,PTH,ComponentDrill
T10C0.0728
%
G90
G05
T1
X1.6142Y-4.878
X1.6161Y-3.1575
X1.6585Y-1.8573
X1.7165Y-3.998
X1.7165Y-4.0787
X1.7913Y-3.6634
X1.7913Y-4.5295
X1.7972Y-5.3957
X1.7992Y-3.1673
X1.7992Y-4.8878
X1.8401Y-4.0969
X1.8789Y-2.249
X1.8799Y-3.8996
X1.8819Y-3.0364
X1.8819Y-4.7598
X1.9006Y-2.3002
X1.9311Y-1.9203
X1.9362Y-3.0884
X1.9362Y-4.8108
X1.937Y-2.9528
X1.937Y-3.9518
X1.9577Y-2.8494
X1.9577Y-3.7077
X1.9596Y-4.5738
X1.9596Y-5.44
X1.997Y-2.7185
X1.9975Y-3.5832
X1.998Y-4.4488
X1.998Y-5.3091
X2.0079Y-2.0965
X2.0423Y-1.8209
X2.1033Y-2.3258
X2.1043Y-3.9508
X2.1043Y-3.9783
X2.1053Y-3.1132
X2.1073Y-3.0876
X2.1102Y-4.8366
X2.1181Y-3.7677
X2.1201Y-2.2795
X2.128Y-4.811
X2.1339Y-5.5256
X2.1378Y-1.7923
X2.1624Y-1.7451
X2.1624Y-1.8415
X2.1732Y-4.3819
X2.1785Y-5.2671
X2.1978Y-2.2146
X2.1978Y-2.2953
X2.248Y-3.5256
X2.2884Y-2.3258
X2.2902Y-2.7006
X2.2913Y-4.6339
X2.2913Y-5.5
X2.2933Y-3.7461
X2.2951Y-4.4329
X2.2953Y-3.9843
X2.2953Y-5.248
X2.2963Y-2.9006
X2.3031Y-1.8337
X2.3268Y-3.0472
X2.3425Y-5.5846
X2.3435Y-4.7096
X2.3435Y-4.7785
X2.3445Y-4.872
X2.3445Y-5.2776
X2.3506Y-2.011
X2.3508Y-1.911
X2.3917Y-2.9508
X2.3937Y-3.815
X2.3996Y-3.4596
X2.4006Y-5.1949
X2.4014Y-3.5667
X2.4016Y-4.3268
X2.4028Y-2.6006
X2.4035Y-3.9114
X2.4154Y-1.6663
X2.4154Y-1.7451
X2.4193Y-3.1713
X2.4199Y-4.853
X2.4311Y-3.3858
X2.438Y-1.9685
X2.438Y-2.1211
X2.4518Y-2.0778
X2.4685Y-2.6654
X2.4705Y-3.815
X2.4705Y-4.3543
X2.4705Y-4.6339
X2.4711Y-2.7506
X2.4724Y-3.5167
X2.4783Y-2.6358
X2.4813Y-5.4577
X2.4825Y-5.299
X2.4835Y-2.6006
X2.4848Y-3.6167
X2.4852Y-2.1998
X2.4852Y-2.3199
X2.4852Y-3.4675
X2.4864Y-5.199
X2.4882Y-5.25
X2.4882Y-5.5
X2.4884Y-4.3329
X2.4888Y-5.349
X2.4897Y-4.6087
X2.4902Y-3.7677
X2.4902Y-4.3839
X2.4907Y-4.4829
X2.4911Y-2.9006
X2.5255Y-1.6438
X2.5354Y-3.9607
X2.5374Y-3.1122
X2.5374Y-3.5453
X2.5384Y-4.4134
X2.561Y-2.0108
X2.5855Y-1.7039
X2.586Y-4.5329
X2.5906Y-3.6667
X2.5919Y-2.2762
X2.5919Y-2.7002
X2.5939Y-5.399
X2.601Y-2.8006
X2.6201Y-2.1211
X2.6742Y-2.1575
X2.7008Y-2.5728
X2.7008Y-3.0354
X2.7047Y-4.8602
X2.7392Y-1.7795
X2.7504Y-3.3402
X2.7539Y-4.9813
X2.7894Y-5.3189
X2.8004Y-3.2528
X2.8049Y-4.4329
X2.8083Y-2.7193
X2.8179Y-4.1742
X2.8504Y-3.3425
X2.8537Y-4.8793
X2.877Y-1.7795
X2.9043Y-4.985
X2.9154Y-2.2953
X2.9409Y-2.1211
X2.9409Y-2.2215
X2.9504Y-3.252
X2.9508Y-3.127
X2.9543Y-4.8835
X2.9744Y-3.3858
X2.9744Y-3.622
X2.9882Y-1.8337
X3.0012Y-3.2472
X3.0043Y-4.9827
X3.1353Y-2.1403
X3.1353Y-2.2643
X3.1353Y-3.033
X3.2293Y-2.2136
X3.2303Y-5.0453
X3.2303Y-5.7224
X3.2323Y-2.9134
X3.2323Y-4.8071
X3.2362Y-4.0177
X3.2795Y-5.0
X3.2963Y-4.812
X3.2982Y-2.9931
X3.3022Y-3.1191
X3.3022Y-3.8415
X3.3361Y-3.7505
X3.3401Y-4.5399
X3.3445Y-4.9409
X3.3597Y-5.5871
X3.3632Y-3.3868
X3.3878Y-3.0344
X3.3959Y-4.925
X3.4469Y-5.5728
X3.4695Y-4.1742
X3.4705Y-5.2362
X3.4715Y-2.2844
X3.4744Y-2.2343
X3.4744Y-3.3366
X3.4764Y-4.123
X3.4764Y-5.187
X3.4882Y-3.4134
X3.4935Y-4.975
X3.4955Y-3.1352
X3.4955Y-5.025
X3.499Y-2.5413
X3.5Y-3.6437
X3.5Y-3.7441
X3.501Y-4.4311
X3.501Y-5.4941
X3.5033Y-3.0852
X3.5157Y-4.5313
X3.5191Y-3.5144
X3.5191Y-3.8254
X3.5201Y-4.1992
X3.5201Y-5.8776
X3.5785Y-2.6415
X3.5807Y-2.311
X3.5872Y-4.975
X3.5886Y-4.5315
X3.5888Y-3.386
X3.5888Y-3.7439
X3.5906Y-5.5728
X3.5925Y-4.1998
X3.6161Y-4.1752
X3.6171Y-3.4124
X3.6171Y-5.2628
X3.6194Y-2.9954
X3.6927Y-3.1852
X3.6927Y-5.075
X3.6978Y-2.2844
X3.6978Y-2.6407
X3.6998Y-5.5935
X3.7087Y-5.2165
X3.7756Y-4.9941
X3.7864Y-5.7096
X3.7923Y-4.9557
X3.7933Y-3.6024
X3.8164Y-2.9769
X3.8656Y-2.3321
X3.8656Y-3.0852
X3.8661Y-3.2283
X3.874Y-4.126
X3.8869Y-4.0109
X3.9183Y-4.9163
X3.9193Y-4.7618
X3.9213Y-2.3996
X3.9409Y-5.624
X3.9673Y-3.0352
X3.9673Y-3.9402
X3.9673Y-4.8457
X3.9673Y-5.6898
X3.9689Y-5.7398
X3.9701Y-5.7898
X3.9921Y-4.9463
X4.0118Y-3.2283
X4.0138Y-5.5433
X4.0197Y-3.874
X4.0221Y-4.1334
X4.0256Y-2.9705
X4.0295Y-4.8012
X4.061Y-2.1575
X4.061Y-3.185
X4.061Y-4.0906
X4.061Y-4.9961
X4.061Y-5.8396
X4.1024Y-3.0
X4.1132Y-4.8219
X4.1132Y-5.6604
X4.1634Y-2.9705
X4.1634Y-3.1457
X4.1652Y-3.9407
X4.2087Y-4.874
X4.2146Y-5.689
X4.2165Y-4.9567
X4.2205Y-4.8346
X4.2224Y-4.7618
X4.2244Y-2.8051
X4.2244Y-3.672
X4.2244Y-5.4043
X4.2254Y-5.0738
X4.2461Y-5.6083
X4.2795Y-3.1713
X4.2815Y-4.0512
X4.2815Y-5.811
X4.372Y-4.6457
X4.5276Y-3.1772
X4.5276Y-4.0512
X4.5276Y-4.9272
X4.5276Y-5.7933
X4.626Y-5.4941
X4.6299Y-2.1181
X4.6299Y-2.2972
X4.6594Y-2.3996
X4.6614Y-2.4626
X4.664Y-2.3321
X4.687Y-5.8425
X4.6909Y-2.5728
X4.7244Y-4.2126
X4.7339Y-4.9484
X4.7339Y-5.2362
X4.7525Y-3.0901
X4.7525Y-4.1029
X4.7798Y-1.9978
X4.7943Y-5.003
X4.815Y-2.5728
X4.815Y-5.5669
X4.8486Y-2.2793
X4.8504Y-2.8701
X4.8504Y-3.0945
X4.8504Y-3.8977
X4.8504Y-4.8229
X4.8504Y-5.4941
X4.8533Y-2.3278
X4.8573Y-2.1368
X4.874Y-2.9488
X4.9016Y-1.9803
X4.9055Y-5.8425
X4.9705Y-2.0571
X4.9715Y-1.8868
X4.9862Y-3.2343
X5.0217Y-3.439
X5.0321Y-4.9463
X5.0418Y-4.8479
X5.0435Y-2.1577
X5.0451Y-2.4293
X5.0551Y-2.0077
X5.0571Y-5.689
X5.065Y-4.6634
X5.065Y-5.0984
X5.0669Y-1.8563
X5.0974Y-1.9321
X5.1004Y-2.2461
X5.1014Y-2.0876
X5.1181Y-1.8189
X5.1358Y-3.3957
X5.1514Y-3.2797
X5.1791Y-4.7146
X5.1831Y-2.5472
X5.1909Y-1.9134
X5.2037Y-2.8868
X5.2303Y-4.2126
X5.2335Y-2.3512
X5.2362Y-4.9311
X5.2447Y-3.2297
X5.2894Y-3.3957
X5.2894Y-5.0984
X5.2933Y-3.1024
X5.2943Y-4.8573
T2
X2.4961Y-2.0443
X2.9862Y-1.9656
X3.1437Y-1.9685
X3.9705Y-2.0443
X4.3307Y-1.7795
X4.3307Y-2.5984
X5.0433Y-2.5984
X5.0492Y-2.9882
T3
X3.7717Y-2.0846
X3.8219Y-1.9743
T4
X4.315Y-3.1417
X4.315Y-3.2913
X4.315Y-4.0059
X4.315Y-4.1555
X4.315Y-4.8701
X4.315Y-5.0197
X4.9055Y-3.1417
X4.9055Y-3.2913
X4.9055Y-4.0059
X4.9055Y-4.1555
X4.9055Y-4.8701
X4.9055Y-5.0197
X4.9764Y-5.0512
X4.9764Y-5.6417
X5.126Y-5.0512
X5.126Y-5.6417
T5
X2.0079Y-1.9685
X2.1079Y-1.9685
X4.1122Y-2.7059
X4.1122Y-2.8059
X4.1122Y-3.572
X4.1122Y-3.672
X4.1122Y-4.4382
X4.1122Y-4.5382
X4.1122Y-5.3043
X4.1122Y-5.4043
T6
X4.4291Y-3.0315
X4.4291Y-3.8976
X4.4291Y-4.7638
X4.4291Y-5.6299
X4.5276Y-3.0315
X4.5276Y-3.8976
X4.5276Y-4.7638
X4.5276Y-5.6299
X4.626Y-3.0315
X4.626Y-3.8976
X4.626Y-4.7638
X4.626Y-5.6299
T7
X2.0594Y-2.6354
X2.0594Y-2.8764
X2.0594Y-3.5015
X2.0594Y-3.7426
X2.0594Y-4.3677
X2.0594Y-4.6087
X2.0594Y-5.2338
X2.0594Y-5.4749
X2.2299Y-2.4649
X2.2299Y-3.0469
X2.2299Y-3.3311
X2.2299Y-3.913
X2.2299Y-4.1972
X2.2299Y-4.7792
X2.2299Y-5.0633
X2.2299Y-5.6453
X2.2461Y-2.7559
X2.2461Y-3.622
X2.2461Y-4.4882
X2.2461Y-5.3543
X2.4709Y-2.4649
X2.4709Y-3.0469
X2.4709Y-3.3311
X2.4709Y-3.913
X2.4709Y-4.1972
X2.4709Y-4.7792
X2.4709Y-5.0633
X2.4709Y-5.6453
X2.6414Y-2.6354
X2.6414Y-2.8764
X2.6414Y-3.5015
X2.6414Y-3.7426
X2.6414Y-4.3677
X2.6414Y-4.6087
X2.6414Y-5.2338
X2.6414Y-5.4749
T8
X1.7323Y-1.9134
X1.7323Y-2.0886
X1.7323Y-2.7008
X1.7323Y-2.876
X1.7323Y-3.5669
X1.7323Y-3.7421
X1.7323Y-4.4331
X1.7323Y-4.6083
X1.7323Y-5.2992
X1.7323Y-5.4744
X1.7913Y-1.8228
X1.7913Y-2.1732
X1.7913Y-2.6102
X1.7913Y-2.9606
X1.7913Y-3.4764
X1.7913Y-3.8268
X1.7913Y-4.3425
X1.7913Y-4.6929
X1.7913Y-5.2087
X1.7913Y-5.5591
X5.2953Y-1.9134
X5.2953Y-2.0886
X5.2953Y-2.7008
X5.2953Y-2.876
X5.2953Y-3.5669
X5.2953Y-3.7421
X5.2953Y-4.4331
X5.2953Y-4.6083
X5.2953Y-5.2992
X5.2953Y-5.4744
X5.3543Y-1.8228
X5.3543Y-2.1732
X5.3543Y-2.6102
X5.3543Y-2.9606
X5.3543Y-3.4764
X5.3543Y-3.8268
X5.3543Y-4.3425
X5.3543Y-4.6929
X5.3543Y-5.2087
X5.3543Y-5.5591
T9
X1.7827Y-5.7854
X1.8917Y-2.1315
X1.8917Y-2.9189
X1.8917Y-3.785
X1.8917Y-4.6512
X1.8917Y-5.5173
X5.3217Y-5.7854
X5.4547Y-2.1315
X5.4547Y-2.9189
X5.4547Y-3.785
X5.4547Y-4.6512
X5.4547Y-5.5173
T10
X2.8858Y-2.5709
X2.8858Y-2.7559
X2.8858Y-2.9409
X2.8858Y-3.437
X2.8858Y-3.622
X2.8858Y-3.8071
X2.8858Y-4.3031
X2.8858Y-4.4882
X2.8858Y-4.6732
X2.8858Y-5.1693
X2.8858Y-5.3543
X2.8858Y-5.5394
T9
G00X1.8917Y-1.8882
M15
G01X1.8917Y-1.8488
M16
G05
G00X1.8917Y-2.6756
M15
G01X1.8917Y-2.6362
M16
G05
G00X1.8917Y-3.5417
M15
G01X1.8917Y-3.5024
M16
G05
G00X1.8917Y-4.4079
M15
G01X1.8917Y-4.3685
M16
G05
G00X1.8917Y-5.274
M15
G01X1.8917Y-5.2346
M16
G05
G00X5.4547Y-1.8882
M15
G01X5.4547Y-1.8488
M16
G05
G00X5.4547Y-2.6756
M15
G01X5.4547Y-2.6362
M16
G05
G00X5.4547Y-3.5417
M15
G01X5.4547Y-3.5024
M16
G05
G00X5.4547Y-4.4079
M15
G01X5.4547Y-4.3685
M16
G05
G00X5.4547Y-5.274
M15
G01X5.4547Y-5.2346
M16
G05
T0
M30
