%TF.GenerationSoftware,KiCad,Pcbnew,(6.0.1)*%
%TF.CreationDate,2024-03-02T23:19:41-08:00*%
%TF.ProjectId,main,6d61696e-2e6b-4696-9361-645f70636258,1.1*%
%TF.SameCoordinates,Original*%
%TF.FileFunction,Copper,L1,Top*%
%TF.FilePolarity,Positive*%
%FSLAX46Y46*%
G04 Gerber Fmt 4.6, Leading zero omitted, Abs format (unit mm)*
G04 Created by KiCad (PCBNEW (6.0.1)) date 2024-03-02 23:19:41*
%MOMM*%
%LPD*%
G01*
G04 APERTURE LIST*
G04 Aperture macros list*
%AMRoundRect*
0 Rectangle with rounded corners*
0 $1 Rounding radius*
0 $2 $3 $4 $5 $6 $7 $8 $9 X,Y pos of 4 corners*
0 Add a 4 corners polygon primitive as box body*
4,1,4,$2,$3,$4,$5,$6,$7,$8,$9,$2,$3,0*
0 Add four circle primitives for the rounded corners*
1,1,$1+$1,$2,$3*
1,1,$1+$1,$4,$5*
1,1,$1+$1,$6,$7*
1,1,$1+$1,$8,$9*
0 Add four rect primitives between the rounded corners*
20,1,$1+$1,$2,$3,$4,$5,0*
20,1,$1+$1,$4,$5,$6,$7,0*
20,1,$1+$1,$6,$7,$8,$9,0*
20,1,$1+$1,$8,$9,$2,$3,0*%
%AMHorizOval*
0 Thick line with rounded ends*
0 $1 width*
0 $2 $3 position (X,Y) of the first rounded end (center of the circle)*
0 $4 $5 position (X,Y) of the second rounded end (center of the circle)*
0 Add line between two ends*
20,1,$1,$2,$3,$4,$5,0*
0 Add two circle primitives to create the rounded ends*
1,1,$1,$2,$3*
1,1,$1,$4,$5*%
G04 Aperture macros list end*
%TA.AperFunction,ComponentPad*%
%ADD10R,2.850000X2.850000*%
%TD*%
%TA.AperFunction,ComponentPad*%
%ADD11C,2.850000*%
%TD*%
%TA.AperFunction,ComponentPad*%
%ADD12RoundRect,0.287500X-0.287500X-0.287500X0.287500X-0.287500X0.287500X0.287500X-0.287500X0.287500X0*%
%TD*%
%TA.AperFunction,ComponentPad*%
%ADD13C,1.150000*%
%TD*%
%TA.AperFunction,WasherPad*%
%ADD14C,4.000000*%
%TD*%
%TA.AperFunction,ComponentPad*%
%ADD15C,1.800000*%
%TD*%
%TA.AperFunction,ComponentPad*%
%ADD16R,1.900000X1.900000*%
%TD*%
%TA.AperFunction,ComponentPad*%
%ADD17HorizOval,1.900000X0.000000X0.000000X0.000000X0.000000X0*%
%TD*%
%TA.AperFunction,ComponentPad*%
%ADD18R,1.800000X1.800000*%
%TD*%
%TA.AperFunction,ComponentPad*%
%ADD19O,2.200000X1.200000*%
%TD*%
%TA.AperFunction,ComponentPad*%
%ADD20RoundRect,0.300000X-0.700000X-0.300000X0.700000X-0.300000X0.700000X0.300000X-0.700000X0.300000X0*%
%TD*%
%TA.AperFunction,ComponentPad*%
%ADD21RoundRect,0.287500X-0.287500X0.287500X-0.287500X-0.287500X0.287500X-0.287500X0.287500X0.287500X0*%
%TD*%
%TA.AperFunction,ComponentPad*%
%ADD22C,3.000000*%
%TD*%
%TA.AperFunction,ViaPad*%
%ADD23C,0.450000*%
%TD*%
%TA.AperFunction,ViaPad*%
%ADD24C,0.600000*%
%TD*%
%TA.AperFunction,Conductor*%
%ADD25C,0.200000*%
%TD*%
%TA.AperFunction,Conductor*%
%ADD26C,0.600000*%
%TD*%
%TA.AperFunction,Conductor*%
%ADD27C,0.400000*%
%TD*%
%TA.AperFunction,Conductor*%
%ADD28C,0.120000*%
%TD*%
G04 APERTURE END LIST*
D10*
%TO.P,SW7,1,A*%
%TO.N,F4{slash}1*%
X73300000Y-140700000D03*
D11*
%TO.P,SW7,2,B*%
%TO.N,F4*%
X73300000Y-136000000D03*
%TO.P,SW7,3,C*%
%TO.N,Net-(SW7-Pad3)*%
X73300000Y-131300000D03*
%TD*%
D12*
%TO.P,U35,1,-*%
%TO.N,Net-(R126-Pad1)*%
X109600000Y-101750000D03*
D13*
%TO.P,U35,2,+*%
%TO.N,Net-(D28-Pad1)*%
X109600000Y-105550000D03*
%TO.P,U35,3*%
%TO.N,Net-(R129-Pad2)*%
X124600000Y-101750000D03*
%TO.P,U35,4*%
%TO.N,SIG2\u002A*%
X124600000Y-105550000D03*
%TD*%
D14*
%TO.P,RV10,*%
%TO.N,*%
X119400000Y-70000000D03*
X110600000Y-70000000D03*
D15*
%TO.P,RV10,1,1*%
%TO.N,+9V*%
X117500000Y-77000000D03*
%TO.P,RV10,2,2*%
%TO.N,Net-(D34-Pad2)*%
X115000000Y-77000000D03*
%TO.P,RV10,3,3*%
%TO.N,GND*%
X112500000Y-77000000D03*
%TD*%
D10*
%TO.P,SW4,1,A*%
%TO.N,F1{slash}1*%
X73300000Y-74700000D03*
D11*
%TO.P,SW4,2,B*%
%TO.N,F1*%
X73300000Y-70000000D03*
%TO.P,SW4,3,C*%
%TO.N,Net-(SW4-Pad3)*%
X73300000Y-65300000D03*
%TD*%
D16*
%TO.P,SW2,1,1*%
%TO.N,Net-(C78-Pad1)*%
X56838533Y-77391036D03*
D17*
%TO.P,SW2,2,2*%
%TO.N,Net-(SW2-Pad2)*%
X52508964Y-73061467D03*
%TO.P,SW2,3,3*%
%TO.N,Net-(SW2-Pad3)*%
X52508964Y-66938533D03*
%TO.P,SW2,4,4*%
%TO.N,Net-(SW2-Pad4)*%
X56838533Y-62608964D03*
%TO.P,SW2,5,5*%
%TO.N,Net-(SW2-Pad5)*%
X62961467Y-62608964D03*
%TO.P,SW2,6,6*%
%TO.N,Net-(SW2-Pad6)*%
X67291036Y-66938533D03*
%TO.P,SW2,7,7*%
%TO.N,Net-(SW2-Pad7)*%
X67291036Y-73061467D03*
%TO.P,SW2,8,8*%
%TO.N,Net-(SW2-Pad8)*%
X62961467Y-77391036D03*
%TO.P,SW2,9,9*%
%TO.N,R1*%
X57250000Y-70000000D03*
%TD*%
D14*
%TO.P,RV11,*%
%TO.N,*%
X110600000Y-114000000D03*
X119400000Y-114000000D03*
D15*
%TO.P,RV11,1,1*%
%TO.N,+9V*%
X117500000Y-121000000D03*
%TO.P,RV11,2,2*%
%TO.N,Net-(D33-Pad2)*%
X115000000Y-121000000D03*
%TO.P,RV11,3,3*%
%TO.N,GND*%
X112500000Y-121000000D03*
%TD*%
D18*
%TO.P,D16,1,K*%
%TO.N,Net-(D16-Pad1)*%
X52800000Y-51100000D03*
D15*
%TO.P,D16,2,A*%
%TO.N,Net-(D16-Pad2)*%
X52800000Y-48560000D03*
%TD*%
D19*
%TO.P,J2,S*%
%TO.N,GND*%
X45400000Y-76480000D03*
D20*
%TO.P,J2,T*%
%TO.N,Net-(J2-PadT)*%
X45400000Y-65080000D03*
%TO.P,J2,TN*%
%TO.N,GND*%
X45400000Y-73380000D03*
%TD*%
D18*
%TO.P,D26,1,K*%
%TO.N,Net-(D26-Pad1)*%
X104450000Y-71270000D03*
D15*
%TO.P,D26,2,A*%
%TO.N,Net-(D26-Pad2)*%
X104450000Y-68730000D03*
%TD*%
D14*
%TO.P,RV14,*%
%TO.N,*%
X119400000Y-92000000D03*
X110600000Y-92000000D03*
D15*
%TO.P,RV14,1,1*%
%TO.N,+9V*%
X117500000Y-99000000D03*
%TO.P,RV14,2,2*%
%TO.N,Net-(D37-Pad2)*%
X115000000Y-99000000D03*
%TO.P,RV14,3,3*%
%TO.N,GND*%
X112500000Y-99000000D03*
%TD*%
D18*
%TO.P,D28,1,K*%
%TO.N,Net-(D28-Pad1)*%
X104450000Y-93270000D03*
D15*
%TO.P,D28,2,A*%
%TO.N,Net-(D28-Pad2)*%
X104450000Y-90730000D03*
%TD*%
D18*
%TO.P,D27,1,K*%
%TO.N,Net-(D27-Pad1)*%
X104450000Y-137270000D03*
D15*
%TO.P,D27,2,A*%
%TO.N,Net-(D27-Pad2)*%
X104450000Y-134730000D03*
%TD*%
D19*
%TO.P,J9,S*%
%TO.N,GND*%
X136000000Y-76480000D03*
D20*
%TO.P,J9,T*%
%TO.N,Net-(J9-PadT)*%
X136000000Y-65080000D03*
%TO.P,J9,TN*%
%TO.N,unconnected-(J9-PadTN)*%
X136000000Y-73380000D03*
%TD*%
D10*
%TO.P,SW6,1,A*%
%TO.N,F2{slash}1*%
X73300000Y-96700000D03*
D11*
%TO.P,SW6,2,B*%
%TO.N,F2*%
X73300000Y-92000000D03*
%TO.P,SW6,3,C*%
%TO.N,Net-(SW6-Pad3)*%
X73300000Y-87300000D03*
%TD*%
D19*
%TO.P,J3,S*%
%TO.N,GND*%
X45400000Y-98480000D03*
D20*
%TO.P,J3,T*%
%TO.N,Net-(J3-PadT)*%
X45400000Y-87080000D03*
%TO.P,J3,TN*%
%TO.N,GND*%
X45400000Y-95380000D03*
%TD*%
D18*
%TO.P,D25,1,K*%
%TO.N,Net-(D25-Pad1)*%
X104450000Y-115270000D03*
D15*
%TO.P,D25,2,A*%
%TO.N,Net-(D25-Pad2)*%
X104450000Y-112730000D03*
%TD*%
D16*
%TO.P,SW8,1,1*%
%TO.N,Net-(C79-Pad1)*%
X56838533Y-143391036D03*
D17*
%TO.P,SW8,2,2*%
%TO.N,Net-(SW8-Pad2)*%
X52508964Y-139061467D03*
%TO.P,SW8,3,3*%
%TO.N,Net-(SW8-Pad3)*%
X52508964Y-132938533D03*
%TO.P,SW8,4,4*%
%TO.N,Net-(SW8-Pad4)*%
X56838533Y-128608964D03*
%TO.P,SW8,5,5*%
%TO.N,Net-(SW8-Pad5)*%
X62961467Y-128608964D03*
%TO.P,SW8,6,6*%
%TO.N,Net-(SW8-Pad6)*%
X67291036Y-132938533D03*
%TO.P,SW8,7,7*%
%TO.N,Net-(SW8-Pad7)*%
X67291036Y-139061467D03*
%TO.P,SW8,8,8*%
%TO.N,Net-(SW8-Pad8)*%
X62961467Y-143391036D03*
%TO.P,SW8,9,9*%
%TO.N,R4*%
X57250000Y-136000000D03*
%TD*%
D14*
%TO.P,RV15,*%
%TO.N,*%
X110600000Y-136000000D03*
X119400000Y-136000000D03*
D15*
%TO.P,RV15,1,1*%
%TO.N,+9V*%
X117500000Y-143000000D03*
%TO.P,RV15,2,2*%
%TO.N,Net-(D38-Pad2)*%
X115000000Y-143000000D03*
%TO.P,RV15,3,3*%
%TO.N,GND*%
X112500000Y-143000000D03*
%TD*%
D12*
%TO.P,U30,1,-*%
%TO.N,Net-(R113-Pad1)*%
X109600000Y-123700000D03*
D13*
%TO.P,U30,2,+*%
%TO.N,Net-(D25-Pad1)*%
X109600000Y-127500000D03*
%TO.P,U30,3*%
%TO.N,Net-(R118-Pad2)*%
X124600000Y-123700000D03*
%TO.P,U30,4*%
%TO.N,SIG3\u002A*%
X124600000Y-127500000D03*
%TD*%
D10*
%TO.P,SW5,1,A*%
%TO.N,F3{slash}1*%
X73300000Y-118700000D03*
D11*
%TO.P,SW5,2,B*%
%TO.N,F3*%
X73300000Y-114000000D03*
%TO.P,SW5,3,C*%
%TO.N,Net-(SW5-Pad3)*%
X73300000Y-109300000D03*
%TD*%
D19*
%TO.P,J7,S*%
%TO.N,GND*%
X136000000Y-56480000D03*
D20*
%TO.P,J7,T*%
%TO.N,Net-(J7-PadT)*%
X136000000Y-45080000D03*
%TO.P,J7,TN*%
%TO.N,unconnected-(J7-PadTN)*%
X136000000Y-53380000D03*
%TD*%
D16*
%TO.P,SW1,1,1*%
%TO.N,Net-(C76-Pad1)*%
X56838533Y-99391036D03*
D17*
%TO.P,SW1,2,2*%
%TO.N,Net-(SW1-Pad2)*%
X52508964Y-95061467D03*
%TO.P,SW1,3,3*%
%TO.N,Net-(SW1-Pad3)*%
X52508964Y-88938533D03*
%TO.P,SW1,4,4*%
%TO.N,Net-(SW1-Pad4)*%
X56838533Y-84608964D03*
%TO.P,SW1,5,5*%
%TO.N,Net-(SW1-Pad5)*%
X62961467Y-84608964D03*
%TO.P,SW1,6,6*%
%TO.N,Net-(SW1-Pad6)*%
X67291036Y-88938533D03*
%TO.P,SW1,7,7*%
%TO.N,Net-(SW1-Pad7)*%
X67291036Y-95061467D03*
%TO.P,SW1,8,8*%
%TO.N,Net-(SW1-Pad8)*%
X62961467Y-99391036D03*
%TO.P,SW1,9,9*%
%TO.N,R2*%
X57250000Y-92000000D03*
%TD*%
D16*
%TO.P,SW3,1,1*%
%TO.N,Net-(C21-Pad1)*%
X56838533Y-121391036D03*
D17*
%TO.P,SW3,2,2*%
%TO.N,Net-(SW3-Pad2)*%
X52508964Y-117061467D03*
%TO.P,SW3,3,3*%
%TO.N,Net-(SW3-Pad3)*%
X52508964Y-110938533D03*
%TO.P,SW3,4,4*%
%TO.N,Net-(SW3-Pad4)*%
X56838533Y-106608964D03*
%TO.P,SW3,5,5*%
%TO.N,Net-(SW3-Pad5)*%
X62961467Y-106608964D03*
%TO.P,SW3,6,6*%
%TO.N,Net-(SW3-Pad6)*%
X67291036Y-110938533D03*
%TO.P,SW3,7,7*%
%TO.N,Net-(SW3-Pad7)*%
X67291036Y-117061467D03*
%TO.P,SW3,8,8*%
%TO.N,Net-(SW3-Pad8)*%
X62961467Y-121391036D03*
%TO.P,SW3,9,9*%
%TO.N,R3*%
X57250000Y-114000000D03*
%TD*%
D21*
%TO.P,U34,1,-*%
%TO.N,Net-(R123-Pad1)*%
X129100000Y-130300000D03*
D13*
%TO.P,U34,2,+*%
%TO.N,Net-(D27-Pad1)*%
X125300000Y-130300000D03*
%TO.P,U34,3*%
%TO.N,Net-(R128-Pad2)*%
X129100000Y-145300000D03*
%TO.P,U34,4*%
%TO.N,SIG4\u002A*%
X125300000Y-145300000D03*
%TD*%
D19*
%TO.P,J5,S*%
%TO.N,GND*%
X45400000Y-142480000D03*
D20*
%TO.P,J5,T*%
%TO.N,Net-(J5-PadT)*%
X45400000Y-131080000D03*
%TO.P,J5,TN*%
%TO.N,GND*%
X45400000Y-139380000D03*
%TD*%
D19*
%TO.P,J10,S*%
%TO.N,GND*%
X136000000Y-142480000D03*
D20*
%TO.P,J10,T*%
%TO.N,Net-(J10-PadT)*%
X136000000Y-131080000D03*
%TO.P,J10,TN*%
%TO.N,unconnected-(J10-PadTN)*%
X136000000Y-139380000D03*
%TD*%
D19*
%TO.P,J4,S*%
%TO.N,GND*%
X45400000Y-120480000D03*
D20*
%TO.P,J4,T*%
%TO.N,Net-(J4-PadT)*%
X45400000Y-109080000D03*
%TO.P,J4,TN*%
%TO.N,GND*%
X45400000Y-117380000D03*
%TD*%
D19*
%TO.P,J11,S*%
%TO.N,GND*%
X136000000Y-98480000D03*
D20*
%TO.P,J11,T*%
%TO.N,Net-(J11-PadT)*%
X136000000Y-87080000D03*
%TO.P,J11,TN*%
%TO.N,unconnected-(J11-PadTN)*%
X136000000Y-95380000D03*
%TD*%
D19*
%TO.P,J1,S*%
%TO.N,GND*%
X45400000Y-56480000D03*
D20*
%TO.P,J1,T*%
%TO.N,Net-(J1-PadT)*%
X45400000Y-45080000D03*
%TO.P,J1,TN*%
%TO.N,GND*%
X45400000Y-53380000D03*
%TD*%
D12*
%TO.P,U31,1,-*%
%TO.N,Net-(R116-Pad1)*%
X109600000Y-79800000D03*
D13*
%TO.P,U31,2,+*%
%TO.N,Net-(D26-Pad1)*%
X109600000Y-83600000D03*
%TO.P,U31,3*%
%TO.N,Net-(R119-Pad2)*%
X124600000Y-79800000D03*
%TO.P,U31,4*%
%TO.N,SIG1\u002A*%
X124600000Y-83600000D03*
%TD*%
D19*
%TO.P,J8,S*%
%TO.N,GND*%
X136000000Y-120480000D03*
D20*
%TO.P,J8,T*%
%TO.N,Net-(J8-PadT)*%
X136000000Y-109080000D03*
%TO.P,J8,TN*%
%TO.N,unconnected-(J8-PadTN)*%
X136000000Y-117380000D03*
%TD*%
D22*
%TO.P,TP1,1,1*%
%TO.N,GND*%
X135170000Y-146950000D03*
%TD*%
%TO.P,TP5,1,1*%
%TO.N,OSC3*%
X138500000Y-81650000D03*
%TD*%
%TO.P,TP2,1,1*%
%TO.N,GND*%
X45280000Y-146950000D03*
%TD*%
%TO.P,TP6,1,1*%
%TO.N,OSC2*%
X138500000Y-60300000D03*
%TD*%
%TO.P,TP21,1,1*%
%TO.N,-12V*%
X73950000Y-146950000D03*
%TD*%
%TO.P,TP7,1,1*%
%TO.N,OSC4*%
X138500000Y-103350000D03*
%TD*%
%TO.P,TP20,1,1*%
%TO.N,+12V*%
X68000000Y-146950000D03*
%TD*%
%TO.P,TP3,1,1*%
%TO.N,Clk*%
X52550000Y-43050000D03*
%TD*%
%TO.P,TP23,1,1*%
%TO.N,-9V*%
X67150000Y-103000000D03*
%TD*%
%TO.P,TP4,1,1*%
%TO.N,OSC1*%
X139000000Y-42200000D03*
%TD*%
%TO.P,TP24,1,1*%
%TO.N,+9V*%
X126400000Y-93700000D03*
%TD*%
D23*
%TO.N,+12V*%
X128650000Y-121750000D03*
X98262500Y-131712500D03*
X50750000Y-147000000D03*
X86050000Y-77075000D03*
X121387500Y-111362500D03*
X88824511Y-104025489D03*
X76600000Y-78050000D03*
X123600000Y-145450000D03*
D24*
X81100000Y-45200000D03*
D23*
X75900000Y-46575000D03*
D24*
X87800000Y-45200000D03*
D23*
X123600000Y-141850000D03*
D24*
X110000000Y-45200000D03*
D23*
X66550000Y-53875000D03*
D24*
X105350000Y-45200000D03*
X79850000Y-50000000D03*
D23*
X100770000Y-86000000D03*
X105500000Y-57500000D03*
X100800000Y-131350000D03*
X54300000Y-45525000D03*
D24*
X110000000Y-66000000D03*
D23*
X79637500Y-57512500D03*
X88795000Y-107755000D03*
X79637500Y-62800000D03*
X79637500Y-77037500D03*
X50750000Y-134850000D03*
X124500000Y-50300000D03*
X86255000Y-125095000D03*
X128175000Y-80675000D03*
X100770000Y-100080000D03*
X100770000Y-77095000D03*
X113050000Y-57500000D03*
X50475489Y-45500000D03*
X130900000Y-121750000D03*
X111845000Y-86005000D03*
X131162500Y-89887500D03*
X86050000Y-83450000D03*
X133850000Y-119900000D03*
D24*
X75850000Y-49925000D03*
D23*
X124500000Y-43150000D03*
X79637500Y-54362500D03*
X75700000Y-111600000D03*
X118955000Y-86005000D03*
X86050000Y-112350000D03*
D24*
X128100000Y-66050000D03*
D23*
X50725000Y-69050000D03*
X50737493Y-91012507D03*
X75900000Y-81450000D03*
X130700000Y-43150000D03*
X112000000Y-129600000D03*
X54500000Y-49200000D03*
X73862500Y-100837500D03*
X74700000Y-53875000D03*
X86150000Y-100600000D03*
X58500000Y-46575000D03*
X118955000Y-130105000D03*
X76400000Y-85100000D03*
X76050000Y-124800000D03*
X123155000Y-57895000D03*
X128650000Y-89900000D03*
X50750000Y-113000000D03*
X105500000Y-63350000D03*
X111800000Y-60250000D03*
X86050000Y-104000000D03*
X128650000Y-117200000D03*
X118955000Y-107755000D03*
X100770000Y-144520000D03*
X100770000Y-123000000D03*
X76400000Y-89100000D03*
X75900000Y-64100000D03*
X100770000Y-129580000D03*
%TO.N,-12V*%
X106850000Y-64650000D03*
X125450000Y-63600000D03*
X124150000Y-100150000D03*
X129550000Y-118800000D03*
X127050000Y-69250000D03*
X74600000Y-104600000D03*
X129550000Y-122600000D03*
X75100000Y-102100000D03*
X118950000Y-100100000D03*
X93795000Y-122305000D03*
X104500000Y-83550000D03*
X128145000Y-61705000D03*
X103150000Y-103900000D03*
X77400000Y-111800000D03*
X128105000Y-54805000D03*
X103150000Y-148325000D03*
X103150000Y-87950000D03*
X76200000Y-127850000D03*
X99950000Y-141800000D03*
X80175000Y-109225000D03*
X93795000Y-103505000D03*
X115000000Y-64650000D03*
X121025000Y-95475000D03*
X114400000Y-61500000D03*
X79100000Y-79200000D03*
X129550000Y-127550000D03*
X103150000Y-54800000D03*
X118955000Y-125155000D03*
X133562500Y-142587500D03*
X76200000Y-93450000D03*
X103150000Y-95700000D03*
X135485000Y-84215000D03*
X103150000Y-126900000D03*
X130700000Y-45050000D03*
X118955000Y-83695000D03*
X103150000Y-67450000D03*
X77887500Y-69762500D03*
X78250000Y-67900000D03*
X78500000Y-121950000D03*
D24*
X111350000Y-51850000D03*
D23*
X81224511Y-103475489D03*
X93795000Y-80905000D03*
D24*
X103150000Y-51850000D03*
D23*
X93795000Y-128905000D03*
X77400000Y-114750000D03*
X134300000Y-87950000D03*
X103150000Y-141800000D03*
X99950000Y-138100000D03*
X130895000Y-54805000D03*
X103150000Y-117700000D03*
X137325000Y-127275000D03*
X121600000Y-123100000D03*
D24*
X85900000Y-51900000D03*
D23*
X103150000Y-80900000D03*
X106550000Y-66850000D03*
X119375000Y-120375000D03*
D24*
X63400000Y-51925000D03*
D23*
X118950000Y-102850000D03*
X79200000Y-82100000D03*
X124150000Y-95500000D03*
%TO.N,Net-(C13-Pad1)*%
X123375000Y-54275000D03*
X121406250Y-50743750D03*
%TO.N,Net-(C17-Pad1)*%
X129700000Y-46850000D03*
X132900000Y-46850000D03*
X128400000Y-50995000D03*
%TO.N,Net-(C20-Pad1)*%
X129475000Y-49075000D03*
X129575000Y-53025000D03*
%TO.N,F3*%
X88125000Y-106025000D03*
X138200000Y-118500000D03*
X71575000Y-106025000D03*
X132850000Y-118500000D03*
X132850000Y-107000000D03*
X138200000Y-121850000D03*
X120000000Y-107000000D03*
%TO.N,F4*%
X120250000Y-124850000D03*
X120239989Y-133000000D03*
X127815000Y-125635000D03*
X88150000Y-133000000D03*
%TO.N,F2*%
X85425000Y-86025000D03*
X75550000Y-92000000D03*
X125100000Y-82550000D03*
X75550000Y-86000000D03*
%TO.N,VCA3*%
X50050000Y-113950000D03*
X50050000Y-118350000D03*
X49900000Y-110450000D03*
X109500000Y-122300000D03*
%TO.N,VCA1*%
X49950000Y-70000000D03*
X46000000Y-68050000D03*
X49950000Y-74270978D03*
X100625000Y-73825000D03*
%TO.N,VCA4*%
X50150000Y-141200000D03*
X50150000Y-135850000D03*
X100100000Y-142850000D03*
X49550000Y-132350000D03*
%TO.N,VCA2*%
X50000000Y-91950000D03*
X102000000Y-98400000D03*
X49900000Y-88250000D03*
X50000000Y-97400000D03*
%TO.N,Clk*%
X49200000Y-75900000D03*
X55825000Y-59550000D03*
X44500000Y-59550000D03*
X42125000Y-42775000D03*
X42125000Y-47175000D03*
X49200000Y-101375000D03*
X49179520Y-123195480D03*
X55825000Y-56250000D03*
X49179520Y-79445480D03*
X48275000Y-59550000D03*
%TO.N,Net-(C11-Pad1)*%
X61925000Y-53875000D03*
X67925000Y-54800000D03*
%TO.N,Net-(C12-Pad1)*%
X126275000Y-47925000D03*
X126250000Y-52250000D03*
%TO.N,Net-(C17-Pad2)*%
X128700000Y-47150000D03*
X131850000Y-48600000D03*
%TO.N,Net-(R30-Pad1)*%
X45800000Y-81400000D03*
X41050000Y-80200000D03*
%TO.N,Net-(R31-Pad1)*%
X45750000Y-61500000D03*
X42850000Y-61500000D03*
X41975000Y-57975000D03*
%TO.N,Net-(R39-Pad1)*%
X45700000Y-125150000D03*
X41000000Y-123900000D03*
%TO.N,Net-(U10-Pad3)*%
X53950000Y-58300000D03*
X65834511Y-58300000D03*
X65834511Y-68584511D03*
%TO.N,Net-(U11-Pad3)*%
X53450000Y-101350000D03*
X64475000Y-112100000D03*
X64399453Y-101350000D03*
%TO.N,+9V*%
X123199511Y-64700000D03*
X88300000Y-104725000D03*
X47800000Y-121900000D03*
X61030000Y-66055000D03*
X61000000Y-109900000D03*
X72800000Y-124000000D03*
X88250000Y-56750000D03*
X60975000Y-131950000D03*
X47850000Y-100050000D03*
X44225000Y-55425000D03*
X84737500Y-95262500D03*
X88850000Y-139550000D03*
X117500000Y-139550000D03*
X88300000Y-131750000D03*
X47750000Y-55800000D03*
X53762500Y-56037500D03*
X59550000Y-57250000D03*
X84837500Y-115312500D03*
X88925000Y-112550000D03*
X88900000Y-92550000D03*
X65590000Y-82160000D03*
X47725000Y-58250000D03*
X131650000Y-64700000D03*
X72200000Y-62300000D03*
D24*
X63125000Y-57225000D03*
D23*
X123199511Y-139549511D03*
X47800000Y-78125000D03*
X123199511Y-99000489D03*
X123199511Y-78250000D03*
X64350000Y-124700000D03*
X123199511Y-122500489D03*
X71225000Y-57625000D03*
X88875000Y-64550000D03*
X60950000Y-87875000D03*
X85337500Y-141912500D03*
X88250000Y-84750000D03*
%TO.N,Net-(C64-Pad1)*%
X91932926Y-76082926D03*
X83775000Y-76025000D03*
%TO.N,OSC1*%
X104425000Y-42225000D03*
X97400000Y-65300000D03*
X95906250Y-77993750D03*
X109850000Y-95000000D03*
X97400000Y-74350000D03*
X101400000Y-65300000D03*
X95650000Y-90800000D03*
%TO.N,Net-(C65-Pad1)*%
X96325000Y-125875000D03*
X91115000Y-126365000D03*
X90350000Y-120750000D03*
X83725000Y-120650000D03*
%TO.N,OSC3*%
X111700000Y-139000000D03*
X79500000Y-116850000D03*
X95800000Y-126850000D03*
X91305000Y-125095000D03*
X79500000Y-124550000D03*
X111534511Y-126415489D03*
X140600000Y-126350000D03*
%TO.N,Net-(C74-Pad1)*%
X89384511Y-89265489D03*
X96350000Y-91500000D03*
X88785000Y-79635000D03*
X83875000Y-97575000D03*
X89384511Y-97165489D03*
X83875000Y-79225000D03*
%TO.N,OSC2*%
X85162500Y-82037500D03*
X120712500Y-78487500D03*
X112000000Y-118100000D03*
X125550000Y-117300000D03*
X125575000Y-103525000D03*
X88985000Y-78365000D03*
X140450000Y-78200000D03*
X121750000Y-102700000D03*
X85162500Y-80887500D03*
%TO.N,Net-(C75-Pad1)*%
X83300000Y-127000000D03*
X88785000Y-127635000D03*
X82050000Y-128150000D03*
X96175000Y-145025000D03*
X82050000Y-145350000D03*
%TO.N,OSC4*%
X88735000Y-126365000D03*
X89409511Y-149290489D03*
X119050000Y-148400000D03*
X85525000Y-125650000D03*
X82262500Y-125650000D03*
X139450000Y-148150000D03*
%TO.N,Net-(D15-Pad1)*%
X42800000Y-49650000D03*
X47100000Y-48550000D03*
%TO.N,Net-(D15-Pad2)*%
X59710000Y-48540000D03*
X48150000Y-45950000D03*
X48159511Y-49759511D03*
X61350000Y-42325000D03*
%TO.N,Net-(D25-Pad1)*%
X111050000Y-118000000D03*
%TO.N,Net-(D25-Pad2)*%
X104475000Y-122475000D03*
%TO.N,Net-(D26-Pad1)*%
X107300000Y-71250000D03*
%TO.N,Net-(D26-Pad2)*%
X104200000Y-76200000D03*
%TO.N,Net-(D27-Pad1)*%
X125300000Y-128874999D03*
X107300000Y-137270000D03*
X107324999Y-128874999D03*
%TO.N,Net-(D27-Pad2)*%
X104475000Y-143775000D03*
%TO.N,Net-(D28-Pad1)*%
X107300000Y-93270000D03*
%TO.N,Net-(D28-Pad2)*%
X105795000Y-100095000D03*
%TO.N,Net-(Q2-Pad1)*%
X41550000Y-52600000D03*
X41175000Y-45125000D03*
%TO.N,Net-(D16-Pad2)*%
X54350000Y-54300000D03*
%TO.N,Net-(R14-Pad1)*%
X117600000Y-53800000D03*
X117600000Y-58350000D03*
X123275000Y-59125000D03*
%TO.N,-9V*%
X59450000Y-58850000D03*
X129550000Y-57050000D03*
X82025489Y-56225489D03*
X82200000Y-123000000D03*
X82100000Y-86750000D03*
X79300000Y-86725000D03*
X78975000Y-65925000D03*
X82100000Y-74000000D03*
X96500000Y-130350000D03*
X97250000Y-121950000D03*
X82025489Y-65950000D03*
X79450000Y-102800000D03*
X82200000Y-102050000D03*
X82025489Y-59474511D03*
%TO.N,Net-(R19-Pad1)*%
X64146787Y-41753213D03*
X59705000Y-51080000D03*
X65671787Y-43278213D03*
X65050000Y-51075000D03*
%TO.N,Net-(R33-Pad2)*%
X46737500Y-83212500D03*
X42950000Y-83250000D03*
%TO.N,Net-(R35-Pad1)*%
X45750000Y-60200000D03*
X44200000Y-57400000D03*
%TO.N,Net-(R35-Pad2)*%
X43000000Y-60400000D03*
X44350000Y-63600000D03*
X46799520Y-63550000D03*
%TO.N,Net-(R37-Pad2)*%
X43100000Y-104600000D03*
X46737500Y-105062500D03*
X43600000Y-102550000D03*
%TO.N,Net-(R56-Pad1)*%
X93925000Y-67075000D03*
X93925000Y-58025000D03*
%TO.N,Net-(R62-Pad1)*%
X91150000Y-115100000D03*
X91850000Y-106050000D03*
%TO.N,Net-(R86-Pad1)*%
X91155000Y-86005000D03*
X91155000Y-95095000D03*
%TO.N,Net-(R91-Pad1)*%
X94200000Y-132500000D03*
X93975000Y-142075000D03*
%TO.N,Net-(R111-Pad2)*%
X105750000Y-79900000D03*
X105750000Y-75450000D03*
%TO.N,Net-(R113-Pad1)*%
X106900000Y-123850000D03*
%TO.N,Net-(R118-Pad2)*%
X101400000Y-125635000D03*
X102350000Y-121950000D03*
%TO.N,Net-(R119-Pad2)*%
X101900000Y-82000000D03*
%TO.N,Net-(R123-Pad1)*%
X128450000Y-144500000D03*
X107050000Y-144500000D03*
%TO.N,Net-(D33-Pad1)*%
X116350000Y-119150000D03*
X107100000Y-125900000D03*
X115000000Y-124550000D03*
%TO.N,Net-(R128-Pad2)*%
X127950000Y-140800000D03*
X100840000Y-147060000D03*
X101950000Y-140800000D03*
%TO.N,Net-(R129-Pad2)*%
X102162074Y-104987926D03*
X124600000Y-104550000D03*
%TO.N,SIG3*%
X118400000Y-62550000D03*
X107250000Y-120950000D03*
X99525000Y-124875000D03*
X99550000Y-120950000D03*
%TO.N,SIG1*%
X118465000Y-59235000D03*
X98185000Y-59235000D03*
X98185000Y-78365000D03*
X98200000Y-82000000D03*
%TO.N,SIG4*%
X100810000Y-145790000D03*
X118250000Y-64150000D03*
X122350000Y-64150000D03*
X107850000Y-142450000D03*
X109400000Y-146500000D03*
X109400000Y-141400000D03*
X122300000Y-141400000D03*
%TO.N,SIG2*%
X118350000Y-60950000D03*
X98727926Y-101877926D03*
X99600000Y-60950000D03*
X98400000Y-104800000D03*
%TO.N,Net-(U6-Pad3)*%
X53525000Y-79425000D03*
X64450000Y-79450000D03*
X64450000Y-90050000D03*
%TO.N,F2{slash}1*%
X69400000Y-84700000D03*
X73700000Y-85300000D03*
X53475000Y-80075000D03*
X61450000Y-80150000D03*
X61750000Y-86000000D03*
X60995000Y-90595000D03*
%TO.N,F1{slash}1*%
X53425000Y-60200000D03*
X58170000Y-68595000D03*
X68130000Y-77220000D03*
X58150000Y-60150000D03*
X71330978Y-69069022D03*
%TO.N,F3{slash}1*%
X58295000Y-112595000D03*
X58300000Y-102050000D03*
X70270000Y-126250000D03*
X53450000Y-102050000D03*
X71245000Y-112595000D03*
%TO.N,Net-(SW1-Pad5)*%
X63125000Y-88075000D03*
%TO.N,Net-(SW1-Pad2)*%
X63115000Y-91865000D03*
%TO.N,Net-(SW1-Pad6)*%
X65800000Y-93135000D03*
%TO.N,Net-(SW1-Pad3)*%
X53800000Y-95700000D03*
X63250000Y-95700000D03*
%TO.N,Net-(SW1-Pad8)*%
X62750000Y-96900000D03*
X60800000Y-96900000D03*
%TO.N,Net-(SW1-Pad4)*%
X58250000Y-95150000D03*
%TO.N,R2*%
X57100000Y-89550000D03*
%TO.N,Net-(SW2-Pad5)*%
X63080000Y-66055000D03*
%TO.N,Net-(SW2-Pad2)*%
X62765000Y-69865000D03*
%TO.N,Net-(SW2-Pad6)*%
X66065000Y-71135000D03*
%TO.N,Net-(SW2-Pad3)*%
X62950000Y-66950000D03*
X63275000Y-73675000D03*
%TO.N,Net-(SW2-Pad8)*%
X60750000Y-74950000D03*
%TO.N,Net-(SW2-Pad4)*%
X58325000Y-73675000D03*
%TO.N,Net-(SW3-Pad5)*%
X63205000Y-110055000D03*
%TO.N,Net-(SW3-Pad2)*%
X63265000Y-113865000D03*
X63238533Y-117061467D03*
%TO.N,Net-(SW3-Pad6)*%
X65685000Y-115135000D03*
%TO.N,Net-(SW3-Pad3)*%
X62750000Y-110600000D03*
X62750000Y-117700000D03*
%TO.N,Net-(SW3-Pad8)*%
X59525000Y-121375000D03*
X59525000Y-119625000D03*
%TO.N,Net-(SW3-Pad4)*%
X58200000Y-117700000D03*
%TO.N,Net-(SW5-Pad3)*%
X72810000Y-126250000D03*
%TO.N,Net-(U12-Pad12)*%
X68130000Y-82270000D03*
X71900000Y-82250000D03*
%TO.N,Net-(SW6-Pad3)*%
X66860000Y-86350000D03*
%TO.N,F4{slash}1*%
X70850000Y-135100000D03*
X59550000Y-134050000D03*
X68984511Y-123934511D03*
X59550000Y-123850000D03*
X53600000Y-123850000D03*
%TO.N,Net-(SW7-Pad3)*%
X71540000Y-124040000D03*
%TO.N,Net-(U14-Pad3)*%
X54050000Y-123200000D03*
X61465489Y-123200000D03*
X63055000Y-134595000D03*
%TO.N,Net-(SW8-Pad5)*%
X63155000Y-132055000D03*
%TO.N,Net-(SW8-Pad2)*%
X63215000Y-135865000D03*
X63025000Y-138625000D03*
%TO.N,Net-(SW8-Pad6)*%
X65885000Y-137135000D03*
%TO.N,Net-(SW8-Pad3)*%
X63200000Y-139700000D03*
X54200000Y-140350000D03*
%TO.N,Net-(SW8-Pad8)*%
X59500000Y-141850000D03*
%TO.N,Net-(SW8-Pad4)*%
X58200000Y-139700000D03*
%TO.N,R4*%
X58300000Y-133300000D03*
%TO.N,F1*%
X74050000Y-58300000D03*
X88175000Y-58025000D03*
X132950000Y-78100000D03*
X132930489Y-59719511D03*
%TO.N,Net-(U18-Pad4)*%
X90895000Y-67095000D03*
X90950000Y-58700000D03*
%TO.N,Net-(U19-Pad4)*%
X89409511Y-106659511D03*
X89300000Y-115095000D03*
X91250000Y-106675000D03*
%TO.N,Net-(U24-Pad4)*%
X91875000Y-86675000D03*
X88600000Y-86700000D03*
X88900000Y-95100000D03*
%TO.N,Net-(U25-Pad4)*%
X87550000Y-141550000D03*
X91200000Y-141550000D03*
X91875000Y-133675000D03*
%TO.N,Net-(D16-Pad1)*%
X51000000Y-53250000D03*
%TO.N,Net-(J1-PadT)*%
X51650000Y-46750000D03*
%TO.N,Net-(R134-Pad2)*%
X120950000Y-85950000D03*
X120950000Y-80300000D03*
%TO.N,Net-(R132-Pad1)*%
X121050000Y-88650000D03*
X123750000Y-84500000D03*
X123750000Y-88650000D03*
X115727980Y-90377980D03*
%TO.N,Net-(R133-Pad2)*%
X112605000Y-83595000D03*
X112605000Y-85445000D03*
%TO.N,SIG1\u002A*%
X112500000Y-74900000D03*
X123800000Y-74900000D03*
X111100000Y-62150000D03*
%TO.N,VC1*%
X81150000Y-66550000D03*
X85400000Y-65300000D03*
%TO.N,Net-(R153-Pad2)*%
X120575000Y-102075000D03*
X121495000Y-107905000D03*
%TO.N,Net-(R154-Pad2)*%
X121300000Y-124200000D03*
X127850000Y-131150000D03*
X121495000Y-130005000D03*
%TO.N,Net-(C93-Pad1)*%
X129957926Y-141642074D03*
X130200000Y-145950000D03*
%TO.N,Net-(R155-Pad2)*%
X133050000Y-134650000D03*
X127195000Y-143445000D03*
X129862500Y-147712500D03*
X135350000Y-144100000D03*
%TO.N,Net-(R145-Pad2)*%
X124600000Y-137100000D03*
X118950000Y-143950000D03*
X118950000Y-138450000D03*
%TO.N,Net-(R147-Pad1)*%
X121550000Y-105750000D03*
X116415000Y-105750000D03*
%TO.N,Net-(R148-Pad1)*%
X121725000Y-128075000D03*
X116400000Y-128100000D03*
%TO.N,Net-(R149-Pad1)*%
X127035000Y-138365000D03*
X131300000Y-146050000D03*
X132250000Y-137850000D03*
%TO.N,SIG2\u002A*%
X80300000Y-106750000D03*
X76600000Y-80400000D03*
X108050000Y-106750000D03*
%TO.N,SIG3\u002A*%
X77725000Y-117625000D03*
X77784511Y-126515489D03*
%TO.N,SIG4\u002A*%
X75650000Y-119700000D03*
X77424511Y-146775489D03*
X77150000Y-122600000D03*
X76050000Y-122050000D03*
%TO.N,VC2*%
X87137500Y-89812500D03*
X81450000Y-89100000D03*
%TO.N,VC3*%
X86900000Y-109850000D03*
X86900000Y-102300000D03*
X79450000Y-101450000D03*
%TO.N,VC4*%
X95800000Y-135000000D03*
X87137500Y-136812500D03*
%TO.N,Net-(C111-Pad2)*%
X78400000Y-95550000D03*
X78350000Y-89100000D03*
%TO.N,Net-(C112-Pad2)*%
X77075000Y-102225000D03*
X71750000Y-102200000D03*
%TO.N,Net-(R13-Pad1)*%
X59690000Y-49810000D03*
X57075000Y-56475000D03*
%TO.N,VCF1*%
X124250000Y-80900000D03*
X113750000Y-75800000D03*
X113700000Y-67900000D03*
X125525000Y-76375000D03*
%TO.N,Net-(R192-Pad1)*%
X111200000Y-63750000D03*
X104900000Y-64700000D03*
%TO.N,Net-(C122-Pad2)*%
X78650000Y-110100000D03*
X79500000Y-111750000D03*
%TO.N,Net-(C123-Pad2)*%
X75600000Y-108650000D03*
X78600000Y-111150000D03*
%TO.N,Net-(C124-Pad2)*%
X77125000Y-83525000D03*
X81550000Y-83550000D03*
%TO.N,Net-(C125-Pad2)*%
X75425000Y-126125000D03*
X81200000Y-125750000D03*
%TO.N,Net-(R197-Pad1)*%
X73750000Y-116350000D03*
X76050000Y-112950000D03*
X75700000Y-109550000D03*
%TO.N,Net-(R198-Pad1)*%
X78500000Y-116150000D03*
X76075000Y-116150000D03*
X81100000Y-116650000D03*
%TO.N,VCF2*%
X121100000Y-102850000D03*
X85150000Y-102700000D03*
X82675000Y-78925000D03*
%TO.N,Net-(R204-Pad1)*%
X75337500Y-125212500D03*
X80350000Y-122600000D03*
X78850000Y-131800000D03*
X78600000Y-125650000D03*
%TO.N,VCF3*%
X110500000Y-121550000D03*
X110500000Y-125250000D03*
X121750000Y-125150000D03*
X81100000Y-118500000D03*
%TO.N,VCF4*%
X132950000Y-144200000D03*
X98350489Y-119800489D03*
X130150000Y-120250000D03*
X81025000Y-120325000D03*
%TO.N,Net-(R133-Pad1)*%
X109450000Y-87050000D03*
X81450000Y-68950000D03*
X76750000Y-72429511D03*
X108320489Y-72429511D03*
X76750000Y-68550000D03*
%TO.N,Net-(R150-Pad1)*%
X109425000Y-108375000D03*
X73450000Y-89750000D03*
X77825000Y-108375000D03*
X76350000Y-90400000D03*
%TO.N,Net-(R151-Pad1)*%
X108700000Y-131400000D03*
X76500000Y-105200000D03*
X76900000Y-131350000D03*
%TO.N,Net-(R152-Pad1)*%
X98750000Y-136050000D03*
X102150000Y-136125000D03*
X128250000Y-132950000D03*
%TO.N,Net-(R178-Pad2)*%
X76250000Y-89750000D03*
X78109520Y-90840480D03*
%TO.N,Net-(D34-Pad1)*%
X118850000Y-80650000D03*
X118850000Y-74200000D03*
X108700000Y-80550000D03*
%TO.N,Net-(R18-Pad2)*%
X67925000Y-52825000D03*
X67700000Y-60150000D03*
%TO.N,Net-(D37-Pad2)*%
X111150000Y-100950000D03*
%TO.N,Net-(D38-Pad1)*%
X112850000Y-147150000D03*
X108750000Y-147600000D03*
%TO.N,Net-(R211-Pad2)*%
X62800000Y-89325000D03*
X61550000Y-99350000D03*
%TO.N,Net-(R212-Pad2)*%
X61300000Y-77400000D03*
X62750000Y-67650000D03*
%TO.N,Net-(R213-Pad2)*%
X56025000Y-117775000D03*
X63250000Y-111350000D03*
X55200000Y-111300000D03*
%TO.N,Net-(R214-Pad2)*%
X63200000Y-133350000D03*
X55334511Y-133784511D03*
X55875000Y-139775000D03*
%TO.N,Net-(SW4-Pad3)*%
X68600000Y-65350000D03*
X65590000Y-77160000D03*
%TO.N,Net-(D18-Pad3)*%
X137325000Y-121525000D03*
X137365463Y-115615463D03*
X131800000Y-115300000D03*
%TO.N,Net-(D20-Pad3)*%
X132800000Y-128400000D03*
X133735000Y-123865000D03*
%TO.N,Net-(D19-Pad3)*%
X131200000Y-82250000D03*
X130900000Y-86000000D03*
%TO.N,Net-(D17-Pad3)*%
X132150000Y-79700000D03*
X132150000Y-69250000D03*
%TO.N,Net-(C7-Pad1)*%
X54925000Y-44325000D03*
X61350000Y-44325000D03*
X54925000Y-46775000D03*
D24*
%TO.N,Net-(D1-Pad3)*%
X104400000Y-48750000D03*
X101900000Y-48750000D03*
%TD*%
D25*
%TO.N,+12V*%
X84400000Y-85100000D02*
X86050000Y-83450000D01*
X50800000Y-146950000D02*
X68000000Y-146950000D01*
X118450000Y-129600000D02*
X100750000Y-129600000D01*
X76400000Y-85100000D02*
X84400000Y-85100000D01*
D26*
X79850000Y-50000000D02*
X75925000Y-50000000D01*
D25*
X88799022Y-104000000D02*
X86050000Y-104000000D01*
X100770000Y-77095000D02*
X100750000Y-77075000D01*
X77612500Y-77037500D02*
X79637500Y-77037500D01*
X66550000Y-53875000D02*
X74700000Y-53875000D01*
D26*
X105350000Y-45200000D02*
X110000000Y-45200000D01*
D25*
X75700000Y-111600000D02*
X76424511Y-112324511D01*
X50750000Y-147000000D02*
X50800000Y-146950000D01*
D27*
X100750000Y-77075000D02*
X86050000Y-77075000D01*
D25*
X118955000Y-86005000D02*
X111955000Y-86005000D01*
X123155000Y-57895000D02*
X122760489Y-57500489D01*
X76600000Y-78050000D02*
X77612500Y-77037500D01*
X54275000Y-45500000D02*
X54300000Y-45525000D01*
X111845000Y-86005000D02*
X100755000Y-86005000D01*
D27*
X86050000Y-77075000D02*
X79675000Y-77075000D01*
D25*
X130900000Y-121750000D02*
X132750000Y-119900000D01*
D26*
X75925000Y-50000000D02*
X75850000Y-49925000D01*
D25*
X88824511Y-104025489D02*
X88799022Y-104000000D01*
X131162500Y-89887500D02*
X131150000Y-89900000D01*
X50475489Y-45500000D02*
X54275000Y-45500000D01*
X77200000Y-62800000D02*
X79637500Y-62800000D01*
X123600000Y-145450000D02*
X101700000Y-145450000D01*
X132750000Y-119900000D02*
X133850000Y-119900000D01*
X76424511Y-112324511D02*
X86025489Y-112324511D01*
X76345000Y-125095000D02*
X86255000Y-125095000D01*
X84487500Y-100837500D02*
X73862500Y-100837500D01*
D28*
X98262500Y-131712500D02*
X98625000Y-131350000D01*
D25*
X124500000Y-43150000D02*
X130700000Y-43150000D01*
X58500000Y-46575000D02*
X75900000Y-46575000D01*
X79675000Y-77075000D02*
X79637500Y-77037500D01*
X118955000Y-107755000D02*
X88795000Y-107755000D01*
X128650000Y-121750000D02*
X130900000Y-121750000D01*
X76050000Y-124800000D02*
X76345000Y-125095000D01*
X131150000Y-89900000D02*
X128650000Y-89900000D01*
X122760489Y-57500489D02*
X79650489Y-57500489D01*
D26*
X81100000Y-45200000D02*
X105350000Y-45200000D01*
D25*
X111955000Y-86005000D02*
X111845000Y-86005000D01*
X86150000Y-100600000D02*
X84487500Y-100837500D01*
D27*
X110000000Y-66000000D02*
X128050000Y-66000000D01*
D25*
X75900000Y-64100000D02*
X77200000Y-62800000D01*
X118955000Y-130105000D02*
X118450000Y-129600000D01*
X101700000Y-145450000D02*
X100770000Y-144520000D01*
D28*
X98625000Y-131350000D02*
X100800000Y-131350000D01*
D25*
%TO.N,-12V*%
X129550000Y-122600000D02*
X123841772Y-122600000D01*
X129550000Y-127550000D02*
X137050000Y-127550000D01*
X93187011Y-81512989D02*
X93795000Y-80905000D01*
D26*
X103150000Y-51850000D02*
X86730979Y-51880979D01*
D25*
X105424511Y-84474511D02*
X104500000Y-83550000D01*
X99950000Y-141800000D02*
X103150000Y-141800000D01*
X78650000Y-130300000D02*
X92400000Y-130300000D01*
X103150000Y-87950000D02*
X126650000Y-87950000D01*
X78250000Y-67900000D02*
X102700000Y-67900000D01*
X79374511Y-103475489D02*
X81224511Y-103475489D01*
X137050000Y-127550000D02*
X137325000Y-127275000D01*
X118175489Y-84474511D02*
X105424511Y-84474511D01*
X128105000Y-54805000D02*
X103155000Y-54805000D01*
X118950000Y-100100000D02*
X124100000Y-100100000D01*
X119375000Y-120375000D02*
X117624511Y-118624511D01*
X106850000Y-64650000D02*
X115000000Y-64650000D01*
X117996855Y-141800489D02*
X110750489Y-141800489D01*
X93800000Y-80900000D02*
X103150000Y-80900000D01*
X118955000Y-83695000D02*
X118175489Y-84474511D01*
X127345000Y-61705000D02*
X128145000Y-61705000D01*
X110750489Y-141800489D02*
X109550978Y-143000000D01*
X118783866Y-142587500D02*
X117996855Y-141800489D01*
X104350000Y-143000000D02*
X103150000Y-141800000D01*
X81224511Y-103475489D02*
X93774511Y-103475489D01*
X124150000Y-95500000D02*
X121050000Y-95500000D01*
X109550978Y-143000000D02*
X104350000Y-143000000D01*
X126650000Y-87950000D02*
X134300000Y-87950000D01*
X123841772Y-122600000D02*
X123341772Y-123100000D01*
X74600000Y-104600000D02*
X75724511Y-103475489D01*
X93500000Y-121950000D02*
X93800000Y-122250000D01*
X133562500Y-142587500D02*
X118783866Y-142587500D01*
X125450000Y-63600000D02*
X127345000Y-61705000D01*
X79787011Y-81512989D02*
X93187011Y-81512989D01*
X121025000Y-95475000D02*
X120800000Y-95700000D01*
X121050000Y-95500000D02*
X121025000Y-95475000D01*
D26*
X86730979Y-51880979D02*
X63400000Y-51925000D01*
D25*
X105950000Y-67450000D02*
X106550000Y-66850000D01*
X124100000Y-100100000D02*
X124150000Y-100150000D01*
X120800000Y-95700000D02*
X103150000Y-95700000D01*
X104074511Y-118624511D02*
X103150000Y-117700000D01*
X93795000Y-80905000D02*
X93800000Y-80900000D01*
X79200000Y-82100000D02*
X79787011Y-81512989D01*
X92400000Y-130300000D02*
X93795000Y-128905000D01*
D26*
X103150000Y-51850000D02*
X111350000Y-51850000D01*
D25*
X75724511Y-103475489D02*
X79374511Y-103475489D01*
X78500000Y-121950000D02*
X93500000Y-121950000D01*
X103150000Y-67450000D02*
X105950000Y-67450000D01*
X102700000Y-67900000D02*
X103150000Y-67450000D01*
X123341772Y-123100000D02*
X121600000Y-123100000D01*
X76200000Y-127850000D02*
X78650000Y-130300000D01*
X117624511Y-118624511D02*
X104074511Y-118624511D01*
%TO.N,Net-(C17-Pad1)*%
X129700000Y-46850000D02*
X132900000Y-46850000D01*
D28*
%TO.N,F3*%
X109869822Y-107000000D02*
X120000000Y-107000000D01*
X88125000Y-106025000D02*
X71575000Y-106025000D01*
X120000000Y-107000000D02*
X132850000Y-107000000D01*
X132850000Y-118500000D02*
X138200000Y-118500000D01*
X88125000Y-106025000D02*
X88584511Y-105565489D01*
X108435311Y-105565489D02*
X109869822Y-107000000D01*
X88584511Y-105565489D02*
X108435311Y-105565489D01*
%TO.N,F4*%
X120239989Y-133000000D02*
X88150000Y-133000000D01*
X76300000Y-133000000D02*
X88150000Y-133000000D01*
X121035000Y-125635000D02*
X127815000Y-125635000D01*
X120250000Y-124850000D02*
X121035000Y-125635000D01*
X73300000Y-136000000D02*
X76300000Y-133000000D01*
%TO.N,F2*%
X85975000Y-86025000D02*
X89434511Y-82565489D01*
X75550000Y-86000000D02*
X85400000Y-86000000D01*
X85400000Y-86000000D02*
X85425000Y-86025000D01*
X89434511Y-82565489D02*
X125100000Y-82550000D01*
X73300000Y-92000000D02*
X75550000Y-92000000D01*
X85425000Y-86025000D02*
X85975000Y-86025000D01*
D25*
%TO.N,VCA3*%
X106460489Y-123539511D02*
X74770489Y-123539511D01*
X69580978Y-118350000D02*
X50050000Y-118350000D01*
X74770489Y-123539511D02*
X69580978Y-118350000D01*
X109000000Y-122800000D02*
X107250000Y-122800000D01*
X109500000Y-122300000D02*
X109000000Y-122800000D01*
X107250000Y-122800000D02*
X106460489Y-123539511D01*
%TO.N,VCA1*%
X49950000Y-74270978D02*
X49990000Y-74310978D01*
X71575489Y-72975489D02*
X99775489Y-72975489D01*
X99775489Y-72975489D02*
X100625000Y-73825000D01*
X46000000Y-68050000D02*
X47950000Y-70000000D01*
X47950000Y-70000000D02*
X49950000Y-70000000D01*
X70240000Y-74310978D02*
X71575489Y-72975489D01*
X49990000Y-74310978D02*
X70240000Y-74310978D01*
%TO.N,VCA4*%
X72080978Y-142850000D02*
X100100000Y-142850000D01*
X50150000Y-141200000D02*
X70430978Y-141200000D01*
X70430978Y-141200000D02*
X72080978Y-142850000D01*
%TO.N,VCA2*%
X101975489Y-98424511D02*
X102000000Y-98400000D01*
X70575489Y-97424511D02*
X71575489Y-98424511D01*
X50024511Y-97424511D02*
X70575489Y-97424511D01*
X50000000Y-97400000D02*
X50024511Y-97424511D01*
X71575489Y-98424511D02*
X101975489Y-98424511D01*
D28*
%TO.N,Clk*%
X42150000Y-42750000D02*
X52750000Y-42750000D01*
X44500000Y-59550000D02*
X48275000Y-59550000D01*
X48275000Y-59550000D02*
X55825000Y-59550000D01*
X42125000Y-42775000D02*
X42150000Y-42750000D01*
D25*
%TO.N,Net-(C11-Pad1)*%
X67925000Y-54800000D02*
X62850000Y-54800000D01*
X62850000Y-54800000D02*
X61925000Y-53875000D01*
D28*
%TO.N,Net-(C17-Pad2)*%
X128700000Y-47150000D02*
X128700000Y-47235203D01*
X128700000Y-47235203D02*
X130064797Y-48600000D01*
X130064797Y-48600000D02*
X131850000Y-48600000D01*
%TO.N,Net-(R30-Pad1)*%
X42250000Y-81400000D02*
X45800000Y-81400000D01*
X41050000Y-80200000D02*
X42250000Y-81400000D01*
D25*
%TO.N,Net-(R31-Pad1)*%
X42850000Y-61500000D02*
X45750000Y-61500000D01*
D28*
%TO.N,Net-(R39-Pad1)*%
X44450000Y-123900000D02*
X45700000Y-125150000D01*
X41000000Y-123900000D02*
X44450000Y-123900000D01*
%TO.N,Net-(U10-Pad3)*%
X65834511Y-58300000D02*
X53950000Y-58300000D01*
%TO.N,Net-(U11-Pad3)*%
X53450547Y-101350000D02*
X64400000Y-101350000D01*
D25*
%TO.N,+9V*%
X88850000Y-139550000D02*
X117500000Y-139550000D01*
X44225000Y-55425000D02*
X47375000Y-55425000D01*
X131650000Y-64700000D02*
X123199511Y-64700000D01*
X47375000Y-55425000D02*
X47750000Y-55800000D01*
X123199022Y-99000000D02*
X117500000Y-99000000D01*
X121599511Y-77000000D02*
X117500000Y-77000000D01*
X123199511Y-99000489D02*
X123199022Y-99000000D01*
X123199511Y-78250000D02*
X121599511Y-77000000D01*
X123199511Y-122500489D02*
X119000489Y-122500489D01*
X119000489Y-122500489D02*
X117500000Y-121000000D01*
D28*
X123199022Y-139550000D02*
X123199511Y-139549511D01*
D25*
X117500000Y-139550000D02*
X123199022Y-139550000D01*
D28*
%TO.N,Net-(C64-Pad1)*%
X83832926Y-76082926D02*
X91932926Y-76082926D01*
X83775000Y-76025000D02*
X83832926Y-76082926D01*
%TO.N,OSC1*%
X104450000Y-42200000D02*
X139100000Y-42200000D01*
X97400000Y-65300000D02*
X101400000Y-65300000D01*
X95650000Y-90800000D02*
X99660978Y-90800000D01*
X103860978Y-95000000D02*
X109850000Y-95000000D01*
X99660978Y-90800000D02*
X103860978Y-95000000D01*
%TO.N,Net-(C65-Pad1)*%
X91115000Y-126365000D02*
X91605000Y-125875000D01*
X90250000Y-120650000D02*
X90350000Y-120750000D01*
X83725000Y-120650000D02*
X90250000Y-120650000D01*
X91605000Y-125875000D02*
X96325000Y-125875000D01*
D25*
%TO.N,OSC3*%
X111534511Y-126415489D02*
X140600000Y-126350000D01*
X80029511Y-124570489D02*
X90780489Y-124570489D01*
X79500000Y-124550000D02*
X80029511Y-124570489D01*
D28*
X111534511Y-126415489D02*
X96334511Y-126415489D01*
D25*
X90780489Y-124570489D02*
X91305000Y-125095000D01*
D28*
X96334511Y-126415489D02*
X95800000Y-126850000D01*
%TO.N,Net-(C74-Pad1)*%
X88375000Y-79225000D02*
X88785000Y-79635000D01*
X83875000Y-97575000D02*
X84284511Y-97165489D01*
X83875000Y-79225000D02*
X88375000Y-79225000D01*
X84284511Y-97165489D02*
X89384511Y-97165489D01*
X89384511Y-89265489D02*
X91619022Y-91500000D01*
X91619022Y-91500000D02*
X96350000Y-91500000D01*
D25*
%TO.N,OSC2*%
X89509511Y-78889511D02*
X98402261Y-78889511D01*
D28*
X122575000Y-103525000D02*
X125575000Y-103525000D01*
D25*
X134308228Y-78200000D02*
X140450000Y-78200000D01*
X98402261Y-78889511D02*
X98850000Y-78450000D01*
D28*
X112000000Y-118100000D02*
X124750000Y-118100000D01*
D25*
X120712500Y-78487500D02*
X120999511Y-78774511D01*
D28*
X124750000Y-118100000D02*
X125550000Y-117300000D01*
D25*
X133733717Y-78774511D02*
X134308228Y-78200000D01*
D28*
X121750000Y-102700000D02*
X122575000Y-103525000D01*
D25*
X98850000Y-78450000D02*
X120712500Y-78487500D01*
X120999511Y-78774511D02*
X133733717Y-78774511D01*
X88985000Y-78365000D02*
X89509511Y-78889511D01*
D28*
%TO.N,Net-(C75-Pad1)*%
X83300000Y-127000000D02*
X83935000Y-127635000D01*
X82050000Y-145350000D02*
X95850000Y-145350000D01*
X83935000Y-127635000D02*
X88785000Y-127635000D01*
X95850000Y-145350000D02*
X96175000Y-145025000D01*
D25*
%TO.N,OSC4*%
X138250000Y-149350000D02*
X139450000Y-148150000D01*
X89409511Y-149290489D02*
X118159511Y-149290489D01*
X119050000Y-148550000D02*
X119850000Y-149350000D01*
X118159511Y-149290489D02*
X119050000Y-148400000D01*
X119850000Y-149350000D02*
X138250000Y-149350000D01*
D28*
X82262500Y-125650000D02*
X85525000Y-125650000D01*
D25*
X119050000Y-148400000D02*
X119050000Y-148550000D01*
%TO.N,Net-(D15-Pad1)*%
X42800000Y-49650000D02*
X44065462Y-48384538D01*
X44065462Y-48384538D02*
X46934538Y-48384538D01*
X46934538Y-48384538D02*
X47100000Y-48550000D01*
%TO.N,Net-(D15-Pad2)*%
X59710000Y-48540000D02*
X58490489Y-49759511D01*
X58490489Y-49759511D02*
X48159511Y-49759511D01*
D28*
%TO.N,Net-(D25-Pad1)*%
X104450000Y-115270000D02*
X108320000Y-115270000D01*
X108320000Y-115270000D02*
X111050000Y-118000000D01*
%TO.N,Net-(D26-Pad1)*%
X107300000Y-71250000D02*
X104450000Y-71250000D01*
%TO.N,Net-(D27-Pad1)*%
X125300000Y-128874999D02*
X107324999Y-128874999D01*
X107300000Y-137270000D02*
X104500000Y-137270000D01*
%TO.N,Net-(D28-Pad1)*%
X107300000Y-93270000D02*
X104500000Y-93270000D01*
%TO.N,Net-(R14-Pad1)*%
X122500000Y-58350000D02*
X117600000Y-58350000D01*
X123275000Y-59125000D02*
X122500000Y-58350000D01*
D25*
%TO.N,-9V*%
X78975000Y-65925000D02*
X82000489Y-65925000D01*
D28*
X79250000Y-103000000D02*
X79450000Y-102800000D01*
D25*
X80200000Y-102050000D02*
X82200000Y-102050000D01*
X82075000Y-86725000D02*
X82100000Y-86750000D01*
X79300000Y-86725000D02*
X82075000Y-86725000D01*
D28*
X82000489Y-65925000D02*
X82025489Y-65950000D01*
D25*
X82370489Y-122829511D02*
X82200000Y-123000000D01*
X129550000Y-57050000D02*
X128725489Y-56225489D01*
X96570489Y-122829511D02*
X82370489Y-122829511D01*
X79450000Y-102800000D02*
X80200000Y-102050000D01*
D28*
X60009511Y-59409511D02*
X82040489Y-59409511D01*
X59450000Y-58850000D02*
X60009511Y-59409511D01*
D25*
X97250000Y-121950000D02*
X96570489Y-122829511D01*
D28*
X67150000Y-103000000D02*
X79250000Y-103000000D01*
D25*
X128725489Y-56225489D02*
X82025489Y-56225489D01*
D28*
%TO.N,Net-(R19-Pad1)*%
X65045000Y-51080000D02*
X65050000Y-51075000D01*
X59705000Y-51080000D02*
X65045000Y-51080000D01*
D25*
%TO.N,Net-(R33-Pad2)*%
X42950000Y-83250000D02*
X46700000Y-83250000D01*
X46700000Y-83250000D02*
X46737500Y-83212500D01*
%TO.N,Net-(R35-Pad2)*%
X46749520Y-63600000D02*
X46799520Y-63550000D01*
X44350000Y-63600000D02*
X46749520Y-63600000D01*
D28*
%TO.N,Net-(R37-Pad2)*%
X46275000Y-104600000D02*
X46737500Y-105062500D01*
X43100000Y-104600000D02*
X46275000Y-104600000D01*
%TO.N,Net-(R113-Pad1)*%
X107240480Y-123534520D02*
X109365480Y-123534520D01*
X106900000Y-123850000D02*
X107240480Y-123534520D01*
%TO.N,Net-(R118-Pad2)*%
X110950000Y-123700000D02*
X124600000Y-123700000D01*
X109779334Y-124870666D02*
X110950000Y-123700000D01*
X101400000Y-125635000D02*
X102164334Y-124870666D01*
X102164334Y-124870666D02*
X109779334Y-124870666D01*
%TO.N,Net-(R119-Pad2)*%
X101900000Y-82000000D02*
X122200000Y-82000000D01*
X122200000Y-82000000D02*
X124600000Y-79600000D01*
%TO.N,Net-(R123-Pad1)*%
X128415489Y-144465489D02*
X107084511Y-144465489D01*
X128450000Y-144500000D02*
X128415489Y-144465489D01*
X107084511Y-144465489D02*
X107050000Y-144500000D01*
%TO.N,Net-(D33-Pad1)*%
X113650000Y-125900000D02*
X115000000Y-124550000D01*
X107100000Y-125900000D02*
X113650000Y-125900000D01*
%TO.N,Net-(R128-Pad2)*%
X101950000Y-140800000D02*
X127950000Y-140800000D01*
%TO.N,Net-(R129-Pad2)*%
X124434511Y-104715489D02*
X124600000Y-104550000D01*
X102434511Y-104715489D02*
X124434511Y-104715489D01*
X102162074Y-104987926D02*
X102434511Y-104715489D01*
D25*
%TO.N,SIG3*%
X107250000Y-120950000D02*
X99550000Y-120950000D01*
D28*
%TO.N,SIG1*%
X98185000Y-59235000D02*
X118465000Y-59235000D01*
D25*
%TO.N,SIG4*%
X107850000Y-142450000D02*
X108900000Y-141400000D01*
X101520000Y-146500000D02*
X100810000Y-145790000D01*
X108900000Y-141400000D02*
X109400000Y-141400000D01*
X109400000Y-141400000D02*
X122300000Y-141400000D01*
X118250000Y-64150000D02*
X122350000Y-64150000D01*
X109400000Y-146500000D02*
X101520000Y-146500000D01*
D28*
%TO.N,SIG2*%
X118350000Y-60950000D02*
X99600000Y-60950000D01*
%TO.N,Net-(U6-Pad3)*%
X53525000Y-79425000D02*
X64425000Y-79425000D01*
%TO.N,F2{slash}1*%
X73100000Y-84700000D02*
X73700000Y-85300000D01*
X69400000Y-84700000D02*
X73100000Y-84700000D01*
X61375000Y-80075000D02*
X61450000Y-80150000D01*
X53475000Y-80075000D02*
X61375000Y-80075000D01*
X63280939Y-86000000D02*
X64580939Y-84700000D01*
X64580939Y-84700000D02*
X69400000Y-84700000D01*
X61750000Y-86000000D02*
X63280939Y-86000000D01*
%TO.N,F1{slash}1*%
X58170000Y-68595000D02*
X58644022Y-69069022D01*
X58644022Y-69069022D02*
X71330978Y-69069022D01*
X53425000Y-60200000D02*
X58100000Y-60200000D01*
X58100000Y-60200000D02*
X58150000Y-60150000D01*
%TO.N,F3{slash}1*%
X58295000Y-112595000D02*
X71245000Y-112595000D01*
X53450000Y-102050000D02*
X58300000Y-102050000D01*
%TO.N,Net-(SW1-Pad2)*%
X60485000Y-91865000D02*
X63115000Y-91865000D01*
X52308964Y-95061467D02*
X57288533Y-95061467D01*
X57288533Y-95061467D02*
X60485000Y-91865000D01*
%TO.N,Net-(SW1-Pad3)*%
X63250000Y-95700000D02*
X53800000Y-95700000D01*
%TO.N,Net-(SW1-Pad8)*%
X60800000Y-96900000D02*
X62750000Y-96900000D01*
%TO.N,Net-(SW2-Pad2)*%
X53040489Y-71209511D02*
X52308964Y-71941036D01*
X61420489Y-71209511D02*
X53040489Y-71209511D01*
X52308964Y-71941036D02*
X52308964Y-73061467D01*
X62765000Y-69865000D02*
X61420489Y-71209511D01*
%TO.N,Net-(SW2-Pad3)*%
X62950000Y-66950000D02*
X62938533Y-66938533D01*
X62938533Y-66938533D02*
X52308964Y-66938533D01*
%TO.N,Net-(SW2-Pad8)*%
X60750000Y-75379569D02*
X62761467Y-77391036D01*
X60750000Y-74950000D02*
X60750000Y-75379569D01*
%TO.N,Net-(SW3-Pad2)*%
X52308964Y-117061467D02*
X63238533Y-117061467D01*
%TO.N,Net-(SW3-Pad3)*%
X52308964Y-110938533D02*
X52647497Y-110600000D01*
X52647497Y-110600000D02*
X62750000Y-110600000D01*
%TO.N,Net-(SW3-Pad8)*%
X59525000Y-121375000D02*
X59541036Y-121391036D01*
X59541036Y-121391036D02*
X62761467Y-121391036D01*
%TO.N,Net-(U12-Pad12)*%
X71880000Y-82270000D02*
X71900000Y-82250000D01*
X68130000Y-82270000D02*
X71880000Y-82270000D01*
%TO.N,Net-(SW6-Pad3)*%
X66860000Y-86350000D02*
X67810000Y-87300000D01*
X67810000Y-87300000D02*
X73300000Y-87300000D01*
%TO.N,F4{slash}1*%
X59550000Y-123850000D02*
X59734511Y-123934511D01*
X59734511Y-123934511D02*
X68984511Y-123934511D01*
X59550000Y-134050000D02*
X60600000Y-135100000D01*
X60600000Y-135100000D02*
X70850000Y-135100000D01*
X53600000Y-123850000D02*
X59550000Y-123850000D01*
%TO.N,Net-(U14-Pad3)*%
X54050000Y-123200000D02*
X61465489Y-123200000D01*
%TO.N,Net-(SW8-Pad2)*%
X62588533Y-139061467D02*
X63025000Y-138625000D01*
X52308964Y-139061467D02*
X62588533Y-139061467D01*
%TO.N,Net-(SW8-Pad3)*%
X54200000Y-140350000D02*
X62550000Y-140350000D01*
X62550000Y-140350000D02*
X63200000Y-139700000D01*
%TO.N,F1*%
X74050000Y-58300000D02*
X74325000Y-58025000D01*
X89869511Y-59719511D02*
X132930489Y-59719511D01*
X88175000Y-58025000D02*
X89869511Y-59719511D01*
X74325000Y-58025000D02*
X88175000Y-58025000D01*
%TO.N,Net-(U19-Pad4)*%
X89409511Y-106659511D02*
X89425000Y-106675000D01*
X89425000Y-106675000D02*
X91250000Y-106675000D01*
%TO.N,Net-(U24-Pad4)*%
X88600000Y-86700000D02*
X91850000Y-86700000D01*
X91850000Y-86700000D02*
X91875000Y-86675000D01*
%TO.N,Net-(U25-Pad4)*%
X87550000Y-141550000D02*
X91200000Y-141550000D01*
%TO.N,Net-(D16-Pad1)*%
X51000000Y-53250000D02*
X52800000Y-51450000D01*
X52800000Y-51450000D02*
X52800000Y-51100000D01*
D25*
%TO.N,Net-(J1-PadT)*%
X47170000Y-46750000D02*
X51650000Y-46750000D01*
X45500000Y-45080000D02*
X47170000Y-46750000D01*
D28*
%TO.N,Net-(R132-Pad1)*%
X117455960Y-88650000D02*
X121050000Y-88650000D01*
X115727980Y-90377980D02*
X117455960Y-88650000D01*
X121050000Y-88650000D02*
X123750000Y-88650000D01*
D25*
%TO.N,SIG1\u002A*%
X112500000Y-74900000D02*
X123800000Y-74900000D01*
D28*
%TO.N,VC1*%
X84150000Y-66550000D02*
X85400000Y-65300000D01*
X81150000Y-66550000D02*
X84150000Y-66550000D01*
%TO.N,Net-(R154-Pad2)*%
X124760302Y-130940480D02*
X124969822Y-131150000D01*
X124969822Y-131150000D02*
X127850000Y-131150000D01*
X122430480Y-130940480D02*
X124760302Y-130940480D01*
X121495000Y-130005000D02*
X122430480Y-130940480D01*
%TO.N,Net-(R155-Pad2)*%
X135350000Y-144100000D02*
X134695000Y-143445000D01*
X134695000Y-143445000D02*
X127195000Y-143445000D01*
%TO.N,Net-(R145-Pad2)*%
X124600000Y-137100000D02*
X123250000Y-138450000D01*
X123250000Y-138450000D02*
X118950000Y-138450000D01*
%TO.N,Net-(R147-Pad1)*%
X116415000Y-105750000D02*
X121550000Y-105750000D01*
%TO.N,Net-(R148-Pad1)*%
X116400000Y-128100000D02*
X121700000Y-128100000D01*
X121700000Y-128100000D02*
X121725000Y-128075000D01*
%TO.N,Net-(R149-Pad1)*%
X131735000Y-138365000D02*
X132250000Y-137850000D01*
X127035000Y-138365000D02*
X131735000Y-138365000D01*
%TO.N,SIG2\u002A*%
X80300000Y-106750000D02*
X80709511Y-107159511D01*
X80709511Y-107159511D02*
X107640489Y-107159511D01*
X107640489Y-107159511D02*
X108050000Y-106750000D01*
%TO.N,SIG3\u002A*%
X109889690Y-128390488D02*
X90490488Y-128390488D01*
X89224065Y-127124065D02*
X84109268Y-127124065D01*
X90490488Y-128390488D02*
X89224065Y-127124065D01*
X84109268Y-127124065D02*
X83500692Y-126515489D01*
X124600000Y-127500000D02*
X110780178Y-127500000D01*
X83500692Y-126515489D02*
X77784511Y-126515489D01*
X110780178Y-127500000D02*
X109889690Y-128390488D01*
D25*
%TO.N,SIG4\u002A*%
X107992739Y-147584511D02*
X108558228Y-148150000D01*
X77424511Y-146775489D02*
X78233533Y-147584511D01*
X118558228Y-148150000D02*
X120733717Y-145974511D01*
X124625489Y-145974511D02*
X125300000Y-145300000D01*
X120733717Y-145974511D02*
X124625489Y-145974511D01*
X108558228Y-148150000D02*
X118558228Y-148150000D01*
X78233533Y-147584511D02*
X107992739Y-147584511D01*
D28*
%TO.N,VC2*%
X86425000Y-89100000D02*
X87137500Y-89812500D01*
X81450000Y-89100000D02*
X86425000Y-89100000D01*
%TO.N,VC3*%
X79450000Y-101450000D02*
X86050000Y-101450000D01*
X86050000Y-101450000D02*
X86900000Y-102300000D01*
%TO.N,VC4*%
X88950000Y-135000000D02*
X87137500Y-136812500D01*
X95800000Y-135000000D02*
X88950000Y-135000000D01*
%TO.N,Net-(C112-Pad2)*%
X72134511Y-102584511D02*
X76715489Y-102584511D01*
X76715489Y-102584511D02*
X77075000Y-102225000D01*
X71750000Y-102200000D02*
X72134511Y-102584511D01*
D25*
%TO.N,VCF1*%
X124950489Y-75800489D02*
X125525000Y-76375000D01*
X113750000Y-75800000D02*
X124950489Y-75800489D01*
D28*
%TO.N,Net-(R192-Pad1)*%
X111200000Y-63750000D02*
X105850000Y-63750000D01*
X105850000Y-63750000D02*
X104900000Y-64700000D01*
%TO.N,Net-(C123-Pad2)*%
X75600000Y-108650000D02*
X78100000Y-111150000D01*
X78100000Y-111150000D02*
X78600000Y-111150000D01*
%TO.N,Net-(C124-Pad2)*%
X81550000Y-83550000D02*
X77150000Y-83550000D01*
X77150000Y-83550000D02*
X77125000Y-83525000D01*
%TO.N,Net-(C125-Pad2)*%
X78285009Y-126030978D02*
X78388542Y-126134511D01*
X75519022Y-126030978D02*
X78285009Y-126030978D01*
X78388542Y-126134511D02*
X80815489Y-126134511D01*
X80815489Y-126134511D02*
X81200000Y-125750000D01*
X75425000Y-126125000D02*
X75519022Y-126030978D01*
%TO.N,Net-(R198-Pad1)*%
X80600000Y-116150000D02*
X81100000Y-116650000D01*
X76075000Y-116150000D02*
X78500000Y-116150000D01*
X78500000Y-116150000D02*
X80600000Y-116150000D01*
D25*
%TO.N,VCF2*%
X119000000Y-103450000D02*
X117762342Y-103445886D01*
X117762342Y-103445886D02*
X108554114Y-103445886D01*
X85374511Y-102924511D02*
X85150000Y-102700000D01*
X108554114Y-103445886D02*
X108032739Y-102924511D01*
X108032739Y-102924511D02*
X85374511Y-102924511D01*
X121100000Y-102850000D02*
X119000000Y-103450000D01*
D28*
%TO.N,Net-(R204-Pad1)*%
X75337500Y-125212500D02*
X75775000Y-125650000D01*
X75775000Y-125650000D02*
X78600000Y-125650000D01*
%TO.N,VCF3*%
X120365489Y-124065489D02*
X121450000Y-125150000D01*
D25*
X81100000Y-118500000D02*
X81624031Y-119024031D01*
D28*
X111684511Y-124065489D02*
X120365489Y-124065489D01*
X110500000Y-125250000D02*
X111684511Y-124065489D01*
D25*
X107974031Y-119024031D02*
X110500000Y-121550000D01*
D28*
X121450000Y-125150000D02*
X121750000Y-125150000D01*
D25*
X81624031Y-119024031D02*
X107974031Y-119024031D01*
%TO.N,VCF4*%
X81549511Y-119800489D02*
X81025000Y-120325000D01*
X98350489Y-119800489D02*
X81549511Y-119800489D01*
D28*
%TO.N,Net-(R133-Pad1)*%
X76750000Y-72429511D02*
X108320489Y-72429511D01*
X81050000Y-68550000D02*
X81450000Y-68950000D01*
X76750000Y-68550000D02*
X81050000Y-68550000D01*
%TO.N,Net-(R150-Pad1)*%
X73450000Y-89750000D02*
X74100000Y-90400000D01*
D25*
X109425000Y-108375000D02*
X77825000Y-108375000D01*
D28*
X74100000Y-90400000D02*
X76350000Y-90400000D01*
%TO.N,Net-(R151-Pad1)*%
X77409511Y-130840489D02*
X108140489Y-130840489D01*
X76900000Y-131350000D02*
X77409511Y-130840489D01*
X108140489Y-130840489D02*
X108700000Y-131400000D01*
D25*
%TO.N,Net-(R152-Pad1)*%
X99279511Y-136070489D02*
X105649511Y-136070489D01*
X108170000Y-133550000D02*
X127650000Y-133550000D01*
X98750000Y-136050000D02*
X99279511Y-136070489D01*
X127650000Y-133550000D02*
X128250000Y-132950000D01*
X105649511Y-136070489D02*
X108170000Y-133550000D01*
D28*
%TO.N,Net-(R178-Pad2)*%
X76250000Y-89750000D02*
X77019040Y-89750000D01*
X77019040Y-89750000D02*
X78109520Y-90840480D01*
D25*
%TO.N,Net-(D34-Pad1)*%
X118825480Y-80674520D02*
X118850000Y-80650000D01*
X108824520Y-80674520D02*
X118825480Y-80674520D01*
X108700000Y-80550000D02*
X108824520Y-80674520D01*
D28*
%TO.N,Net-(D37-Pad2)*%
X111150000Y-100950000D02*
X113050000Y-100950000D01*
X113050000Y-100950000D02*
X115000000Y-99000000D01*
%TO.N,Net-(D38-Pad1)*%
X112850000Y-147150000D02*
X109200000Y-147150000D01*
X109200000Y-147150000D02*
X108750000Y-147600000D01*
%TO.N,Net-(R213-Pad2)*%
X63250000Y-111350000D02*
X55250000Y-111350000D01*
X55250000Y-111350000D02*
X55200000Y-111300000D01*
%TO.N,Net-(R214-Pad2)*%
X58935203Y-133350000D02*
X58500692Y-133784511D01*
X58500692Y-133784511D02*
X55334511Y-133784511D01*
X63200000Y-133350000D02*
X58935203Y-133350000D01*
%TO.N,Net-(SW4-Pad3)*%
X68650000Y-65300000D02*
X73300000Y-65300000D01*
X68600000Y-65350000D02*
X68650000Y-65300000D01*
D25*
%TO.N,Net-(D18-Pad3)*%
X131800000Y-115300000D02*
X132115463Y-115615463D01*
X132115463Y-115615463D02*
X137365463Y-115615463D01*
%TO.N,Net-(C7-Pad1)*%
X61350000Y-44325000D02*
X54925000Y-44325000D01*
D26*
%TO.N,Net-(D1-Pad3)*%
X101900000Y-48750000D02*
X104400000Y-48750000D01*
%TD*%
M02*
