%TF.GenerationSoftware,KiCad,Pcbnew,(6.0.1)*%
%TF.CreationDate,2024-01-17T07:50:46-08:00*%
%TF.ProjectId,main,6d61696e-2e6b-4696-9361-645f70636258,rev?*%
%TF.SameCoordinates,Original*%
%TF.FileFunction,Soldermask,Top*%
%TF.FilePolarity,Negative*%
%FSLAX46Y46*%
G04 Gerber Fmt 4.6, Leading zero omitted, Abs format (unit mm)*
G04 Created by KiCad (PCBNEW (6.0.1)) date 2024-01-17 07:50:46*
%MOMM*%
%LPD*%
G01*
G04 APERTURE LIST*
G04 Aperture macros list*
%AMRoundRect*
0 Rectangle with rounded corners*
0 $1 Rounding radius*
0 $2 $3 $4 $5 $6 $7 $8 $9 X,Y pos of 4 corners*
0 Add a 4 corners polygon primitive as box body*
4,1,4,$2,$3,$4,$5,$6,$7,$8,$9,$2,$3,0*
0 Add four circle primitives for the rounded corners*
1,1,$1+$1,$2,$3*
1,1,$1+$1,$4,$5*
1,1,$1+$1,$6,$7*
1,1,$1+$1,$8,$9*
0 Add four rect primitives between the rounded corners*
20,1,$1+$1,$2,$3,$4,$5,0*
20,1,$1+$1,$4,$5,$6,$7,0*
20,1,$1+$1,$6,$7,$8,$9,0*
20,1,$1+$1,$8,$9,$2,$3,0*%
%AMHorizOval*
0 Thick line with rounded ends*
0 $1 width*
0 $2 $3 position (X,Y) of the first rounded end (center of the circle)*
0 $4 $5 position (X,Y) of the second rounded end (center of the circle)*
0 Add line between two ends*
20,1,$1,$2,$3,$4,$5,0*
0 Add two circle primitives to create the rounded ends*
1,1,$1,$2,$3*
1,1,$1,$4,$5*%
G04 Aperture macros list end*
%ADD10R,2.850000X2.850000*%
%ADD11C,2.850000*%
%ADD12C,2.500000*%
%ADD13RoundRect,0.287500X-0.287500X-0.287500X0.287500X-0.287500X0.287500X0.287500X-0.287500X0.287500X0*%
%ADD14C,1.150000*%
%ADD15C,4.000000*%
%ADD16C,1.800000*%
%ADD17R,1.900000X1.900000*%
%ADD18HorizOval,1.900000X0.000000X0.000000X0.000000X0.000000X0*%
%ADD19R,1.800000X1.800000*%
%ADD20C,2.250000*%
%ADD21O,1.600000X2.600000*%
%ADD22C,1.600000*%
%ADD23RoundRect,0.287500X-0.287500X0.287500X-0.287500X-0.287500X0.287500X-0.287500X0.287500X0.287500X0*%
%ADD24C,2.800000*%
G04 APERTURE END LIST*
D10*
%TO.C,SW7*%
X73300000Y-140700000D03*
D11*
X73300000Y-136000000D03*
X73300000Y-131300000D03*
%TD*%
D12*
%TO.C,H2*%
X128480000Y-43000000D03*
%TD*%
D13*
%TO.C,U35*%
X109600000Y-101750000D03*
D14*
X109600000Y-105550000D03*
X124600000Y-101750000D03*
X124600000Y-105550000D03*
%TD*%
D15*
%TO.C,RV10*%
X119400000Y-70000000D03*
X110600000Y-70000000D03*
D16*
X117500000Y-77000000D03*
X115000000Y-77000000D03*
X112500000Y-77000000D03*
%TD*%
D10*
%TO.C,SW4*%
X73300000Y-74700000D03*
D11*
X73300000Y-70000000D03*
X73300000Y-65300000D03*
%TD*%
D17*
%TO.C,SW2*%
X56638533Y-77391036D03*
D18*
X52308964Y-73061467D03*
X52308964Y-66938533D03*
X56638533Y-62608964D03*
X62761467Y-62608964D03*
X67091036Y-66938533D03*
X67091036Y-73061467D03*
X62761467Y-77391036D03*
X57050000Y-70000000D03*
%TD*%
D15*
%TO.C,RV11*%
X110600000Y-114000000D03*
X119400000Y-114000000D03*
D16*
X117500000Y-121000000D03*
X115000000Y-121000000D03*
X112500000Y-121000000D03*
%TD*%
D19*
%TO.C,D16*%
X51000000Y-50000000D03*
D16*
X53540000Y-50000000D03*
%TD*%
D20*
%TO.C,J2*%
X45500000Y-75200000D03*
X45500000Y-66300000D03*
X44000000Y-73050000D03*
X44000000Y-68600000D03*
D21*
X48050000Y-67460000D03*
D22*
X48050000Y-74140000D03*
%TD*%
D19*
%TO.C,D26*%
X104450000Y-71270000D03*
D16*
X104450000Y-68730000D03*
%TD*%
D15*
%TO.C,RV14*%
X119400000Y-92000000D03*
X110600000Y-92000000D03*
D16*
X117500000Y-99000000D03*
X115000000Y-99000000D03*
X112500000Y-99000000D03*
%TD*%
D19*
%TO.C,D28*%
X104450000Y-93270000D03*
D16*
X104450000Y-90730000D03*
%TD*%
D19*
%TO.C,D27*%
X104450000Y-137270000D03*
D16*
X104450000Y-134730000D03*
%TD*%
D20*
%TO.C,J9*%
X136000000Y-75200000D03*
X136000000Y-66300000D03*
X134500000Y-73050000D03*
X134500000Y-68600000D03*
D21*
X138550000Y-67460000D03*
D22*
X138550000Y-74140000D03*
%TD*%
D10*
%TO.C,SW6*%
X73300000Y-96700000D03*
D11*
X73300000Y-92000000D03*
X73300000Y-87300000D03*
%TD*%
D12*
%TO.C,H1*%
X52600000Y-43000000D03*
%TD*%
D20*
%TO.C,J3*%
X45500000Y-97200000D03*
X45500000Y-88300000D03*
X44000000Y-95050000D03*
X44000000Y-90600000D03*
D21*
X48050000Y-89460000D03*
D22*
X48050000Y-96140000D03*
%TD*%
D19*
%TO.C,D25*%
X104450000Y-115270000D03*
D16*
X104450000Y-112730000D03*
%TD*%
D17*
%TO.C,SW8*%
X56638533Y-143391036D03*
D18*
X52308964Y-139061467D03*
X52308964Y-132938533D03*
X56638533Y-128608964D03*
X62761467Y-128608964D03*
X67091036Y-132938533D03*
X67091036Y-139061467D03*
X62761467Y-143391036D03*
X57050000Y-136000000D03*
%TD*%
D12*
%TO.C,H3*%
X128480000Y-147000000D03*
%TD*%
D15*
%TO.C,RV15*%
X110600000Y-136000000D03*
X119400000Y-136000000D03*
D16*
X117500000Y-143000000D03*
X115000000Y-143000000D03*
X112500000Y-143000000D03*
%TD*%
D13*
%TO.C,U30*%
X109600000Y-123700000D03*
D14*
X109600000Y-127500000D03*
X124600000Y-123700000D03*
X124600000Y-127500000D03*
%TD*%
D10*
%TO.C,SW5*%
X73300000Y-118700000D03*
D11*
X73300000Y-114000000D03*
X73300000Y-109300000D03*
%TD*%
D20*
%TO.C,J7*%
X136000000Y-55200000D03*
X136000000Y-46300000D03*
X134500000Y-53050000D03*
X134500000Y-48600000D03*
D21*
X138550000Y-47460000D03*
D22*
X138550000Y-54140000D03*
%TD*%
D12*
%TO.C,H4*%
X52600000Y-147000000D03*
%TD*%
D17*
%TO.C,SW1*%
X56638533Y-99391036D03*
D18*
X52308964Y-95061467D03*
X52308964Y-88938533D03*
X56638533Y-84608964D03*
X62761467Y-84608964D03*
X67091036Y-88938533D03*
X67091036Y-95061467D03*
X62761467Y-99391036D03*
X57050000Y-92000000D03*
%TD*%
D17*
%TO.C,SW3*%
X56638533Y-121391036D03*
D18*
X52308964Y-117061467D03*
X52308964Y-110938533D03*
X56638533Y-106608964D03*
X62761467Y-106608964D03*
X67091036Y-110938533D03*
X67091036Y-117061467D03*
X62761467Y-121391036D03*
X57050000Y-114000000D03*
%TD*%
D23*
%TO.C,U34*%
X130200000Y-128300000D03*
D14*
X126400000Y-128300000D03*
X130200000Y-143300000D03*
X126400000Y-143300000D03*
%TD*%
D20*
%TO.C,J5*%
X45500000Y-141200000D03*
X45500000Y-132300000D03*
X44000000Y-139050000D03*
X44000000Y-134600000D03*
D21*
X48050000Y-133460000D03*
D22*
X48050000Y-140140000D03*
%TD*%
D20*
%TO.C,J10*%
X136000000Y-141200000D03*
X136000000Y-132300000D03*
X134500000Y-139050000D03*
X134500000Y-134600000D03*
D21*
X138550000Y-133460000D03*
D22*
X138550000Y-140140000D03*
%TD*%
D20*
%TO.C,J4*%
X45500000Y-119200000D03*
X45500000Y-110300000D03*
X44000000Y-117050000D03*
X44000000Y-112600000D03*
D21*
X48050000Y-111460000D03*
D22*
X48050000Y-118140000D03*
%TD*%
D20*
%TO.C,J11*%
X136000000Y-97200000D03*
X136000000Y-88300000D03*
X134500000Y-95050000D03*
X134500000Y-90600000D03*
D21*
X138550000Y-89460000D03*
D22*
X138550000Y-96140000D03*
%TD*%
D20*
%TO.C,J1*%
X45500000Y-55200000D03*
X45500000Y-46300000D03*
X44000000Y-53050000D03*
X44000000Y-48600000D03*
D21*
X48050000Y-47460000D03*
D22*
X48050000Y-54140000D03*
%TD*%
D13*
%TO.C,U31*%
X109600000Y-79800000D03*
D14*
X109600000Y-83600000D03*
X124600000Y-79800000D03*
X124600000Y-83600000D03*
%TD*%
D20*
%TO.C,J8*%
X136000000Y-119200000D03*
X136000000Y-110300000D03*
X134500000Y-117050000D03*
X134500000Y-112600000D03*
D21*
X138550000Y-111460000D03*
D22*
X138550000Y-118140000D03*
%TD*%
D24*
%TO.C,TP1*%
X135170000Y-146950000D03*
%TD*%
%TO.C,TP2*%
X45280000Y-146950000D03*
%TD*%
M02*
