%TF.GenerationSoftware,KiCad,Pcbnew,(6.0.1)*%
%TF.CreationDate,2024-02-21T06:32:33-08:00*%
%TF.ProjectId,main,6d61696e-2e6b-4696-9361-645f70636258,1.0*%
%TF.SameCoordinates,Original*%
%TF.FileFunction,Legend,Top*%
%TF.FilePolarity,Positive*%
%FSLAX46Y46*%
G04 Gerber Fmt 4.6, Leading zero omitted, Abs format (unit mm)*
G04 Created by KiCad (PCBNEW (6.0.1)) date 2024-02-21 06:32:33*
%MOMM*%
%LPD*%
G01*
G04 APERTURE LIST*
%ADD10C,0.150000*%
%ADD11C,0.300000*%
%ADD12C,0.100000*%
%ADD13C,0.120000*%
%ADD14C,0.200000*%
G04 APERTURE END LIST*
D10*
X97271428Y-44385714D02*
X97509523Y-45052380D01*
X97747619Y-44385714D01*
X98652380Y-45052380D02*
X98080952Y-45052380D01*
X98366666Y-45052380D02*
X98366666Y-44052380D01*
X98271428Y-44195238D01*
X98176190Y-44290476D01*
X98080952Y-44338095D01*
X99080952Y-44957142D02*
X99128571Y-45004761D01*
X99080952Y-45052380D01*
X99033333Y-45004761D01*
X99080952Y-44957142D01*
X99080952Y-45052380D01*
X99747619Y-44052380D02*
X99842857Y-44052380D01*
X99938095Y-44100000D01*
X99985714Y-44147619D01*
X100033333Y-44242857D01*
X100080952Y-44433333D01*
X100080952Y-44671428D01*
X100033333Y-44861904D01*
X99985714Y-44957142D01*
X99938095Y-45004761D01*
X99842857Y-45052380D01*
X99747619Y-45052380D01*
X99652380Y-45004761D01*
X99604761Y-44957142D01*
X99557142Y-44861904D01*
X99509523Y-44671428D01*
X99509523Y-44433333D01*
X99557142Y-44242857D01*
X99604761Y-44147619D01*
X99652380Y-44100000D01*
X99747619Y-44052380D01*
D11*
X83028571Y-40850000D02*
X82885714Y-40778571D01*
X82671428Y-40778571D01*
X82457142Y-40850000D01*
X82314285Y-40992857D01*
X82242857Y-41135714D01*
X82171428Y-41421428D01*
X82171428Y-41635714D01*
X82242857Y-41921428D01*
X82314285Y-42064285D01*
X82457142Y-42207142D01*
X82671428Y-42278571D01*
X82814285Y-42278571D01*
X83028571Y-42207142D01*
X83100000Y-42135714D01*
X83100000Y-41635714D01*
X82814285Y-41635714D01*
X83742857Y-42278571D02*
X83742857Y-41278571D01*
X83742857Y-41564285D02*
X83814285Y-41421428D01*
X83885714Y-41350000D01*
X84028571Y-41278571D01*
X84171428Y-41278571D01*
X85242857Y-42207142D02*
X85100000Y-42278571D01*
X84814285Y-42278571D01*
X84671428Y-42207142D01*
X84600000Y-42064285D01*
X84600000Y-41492857D01*
X84671428Y-41350000D01*
X84814285Y-41278571D01*
X85100000Y-41278571D01*
X85242857Y-41350000D01*
X85314285Y-41492857D01*
X85314285Y-41635714D01*
X84600000Y-41778571D01*
X86528571Y-42207142D02*
X86385714Y-42278571D01*
X86100000Y-42278571D01*
X85957142Y-42207142D01*
X85885714Y-42064285D01*
X85885714Y-41492857D01*
X85957142Y-41350000D01*
X86100000Y-41278571D01*
X86385714Y-41278571D01*
X86528571Y-41350000D01*
X86600000Y-41492857D01*
X86600000Y-41635714D01*
X85885714Y-41778571D01*
X87242857Y-41278571D02*
X87242857Y-42278571D01*
X87242857Y-41421428D02*
X87314285Y-41350000D01*
X87457142Y-41278571D01*
X87671428Y-41278571D01*
X87814285Y-41350000D01*
X87885714Y-41492857D01*
X87885714Y-42278571D01*
X88385714Y-41278571D02*
X88957142Y-41278571D01*
X88600000Y-42278571D02*
X88600000Y-40992857D01*
X88671428Y-40850000D01*
X88814285Y-40778571D01*
X88957142Y-40778571D01*
X90100000Y-42278571D02*
X90100000Y-41492857D01*
X90028571Y-41350000D01*
X89885714Y-41278571D01*
X89600000Y-41278571D01*
X89457142Y-41350000D01*
X90100000Y-42207142D02*
X89957142Y-42278571D01*
X89600000Y-42278571D01*
X89457142Y-42207142D01*
X89385714Y-42064285D01*
X89385714Y-41921428D01*
X89457142Y-41778571D01*
X89600000Y-41707142D01*
X89957142Y-41707142D01*
X90100000Y-41635714D01*
X91457142Y-42207142D02*
X91314285Y-42278571D01*
X91028571Y-42278571D01*
X90885714Y-42207142D01*
X90814285Y-42135714D01*
X90742857Y-41992857D01*
X90742857Y-41564285D01*
X90814285Y-41421428D01*
X90885714Y-41350000D01*
X91028571Y-41278571D01*
X91314285Y-41278571D01*
X91457142Y-41350000D01*
X92671428Y-42207142D02*
X92528571Y-42278571D01*
X92242857Y-42278571D01*
X92100000Y-42207142D01*
X92028571Y-42064285D01*
X92028571Y-41492857D01*
X92100000Y-41350000D01*
X92242857Y-41278571D01*
X92528571Y-41278571D01*
X92671428Y-41350000D01*
X92742857Y-41492857D01*
X92742857Y-41635714D01*
X92028571Y-41778571D01*
X95242857Y-42278571D02*
X94528571Y-42278571D01*
X94528571Y-40778571D01*
X96385714Y-42278571D02*
X96385714Y-41492857D01*
X96314285Y-41350000D01*
X96171428Y-41278571D01*
X95885714Y-41278571D01*
X95742857Y-41350000D01*
X96385714Y-42207142D02*
X96242857Y-42278571D01*
X95885714Y-42278571D01*
X95742857Y-42207142D01*
X95671428Y-42064285D01*
X95671428Y-41921428D01*
X95742857Y-41778571D01*
X95885714Y-41707142D01*
X96242857Y-41707142D01*
X96385714Y-41635714D01*
X97100000Y-42278571D02*
X97100000Y-40778571D01*
X97100000Y-41350000D02*
X97242857Y-41278571D01*
X97528571Y-41278571D01*
X97671428Y-41350000D01*
X97742857Y-41421428D01*
X97814285Y-41564285D01*
X97814285Y-41992857D01*
X97742857Y-42135714D01*
X97671428Y-42207142D01*
X97528571Y-42278571D01*
X97242857Y-42278571D01*
X97100000Y-42207142D01*
X98385714Y-42207142D02*
X98528571Y-42278571D01*
X98814285Y-42278571D01*
X98957142Y-42207142D01*
X99028571Y-42064285D01*
X99028571Y-41992857D01*
X98957142Y-41850000D01*
X98814285Y-41778571D01*
X98600000Y-41778571D01*
X98457142Y-41707142D01*
X98385714Y-41564285D01*
X98385714Y-41492857D01*
X98457142Y-41350000D01*
X98600000Y-41278571D01*
X98814285Y-41278571D01*
X98957142Y-41350000D01*
X83528571Y-43378571D02*
X83528571Y-43664285D01*
X84100000Y-43378571D02*
X84100000Y-43664285D01*
X84528571Y-43378571D02*
X85385714Y-43378571D01*
X84957142Y-44878571D02*
X84957142Y-43378571D01*
X85742857Y-43878571D02*
X86028571Y-44878571D01*
X86314285Y-44164285D01*
X86600000Y-44878571D01*
X86885714Y-43878571D01*
X88100000Y-44878571D02*
X88100000Y-44092857D01*
X88028571Y-43950000D01*
X87885714Y-43878571D01*
X87600000Y-43878571D01*
X87457142Y-43950000D01*
X88100000Y-44807142D02*
X87957142Y-44878571D01*
X87600000Y-44878571D01*
X87457142Y-44807142D01*
X87385714Y-44664285D01*
X87385714Y-44521428D01*
X87457142Y-44378571D01*
X87600000Y-44307142D01*
X87957142Y-44307142D01*
X88100000Y-44235714D01*
X88814285Y-43878571D02*
X88814285Y-44878571D01*
X88814285Y-44021428D02*
X88885714Y-43950000D01*
X89028571Y-43878571D01*
X89242857Y-43878571D01*
X89385714Y-43950000D01*
X89457142Y-44092857D01*
X89457142Y-44878571D01*
X90814285Y-43878571D02*
X90814285Y-45092857D01*
X90742857Y-45235714D01*
X90671428Y-45307142D01*
X90528571Y-45378571D01*
X90314285Y-45378571D01*
X90171428Y-45307142D01*
X90814285Y-44807142D02*
X90671428Y-44878571D01*
X90385714Y-44878571D01*
X90242857Y-44807142D01*
X90171428Y-44735714D01*
X90100000Y-44592857D01*
X90100000Y-44164285D01*
X90171428Y-44021428D01*
X90242857Y-43950000D01*
X90385714Y-43878571D01*
X90671428Y-43878571D01*
X90814285Y-43950000D01*
X91528571Y-44878571D02*
X91528571Y-43878571D01*
X91528571Y-43378571D02*
X91457142Y-43450000D01*
X91528571Y-43521428D01*
X91600000Y-43450000D01*
X91528571Y-43378571D01*
X91528571Y-43521428D01*
X92457142Y-44878571D02*
X92314285Y-44807142D01*
X92242857Y-44664285D01*
X92242857Y-43378571D01*
X93028571Y-44878571D02*
X93028571Y-43878571D01*
X93028571Y-43378571D02*
X92957142Y-43450000D01*
X93028571Y-43521428D01*
X93100000Y-43450000D01*
X93028571Y-43378571D01*
X93028571Y-43521428D01*
X93600000Y-43878571D02*
X94385714Y-43878571D01*
X93600000Y-44878571D01*
X94385714Y-44878571D01*
X95528571Y-44807142D02*
X95385714Y-44878571D01*
X95100000Y-44878571D01*
X94957142Y-44807142D01*
X94885714Y-44664285D01*
X94885714Y-44092857D01*
X94957142Y-43950000D01*
X95100000Y-43878571D01*
X95385714Y-43878571D01*
X95528571Y-43950000D01*
X95600000Y-44092857D01*
X95600000Y-44235714D01*
X94885714Y-44378571D01*
X96242857Y-44878571D02*
X96242857Y-43878571D01*
X96242857Y-44164285D02*
X96314285Y-44021428D01*
X96385714Y-43950000D01*
X96528571Y-43878571D01*
X96671428Y-43878571D01*
X97100000Y-43378571D02*
X97100000Y-43664285D01*
X97671428Y-43378571D02*
X97671428Y-43664285D01*
D10*
%TO.C,SW7*%
X72166666Y-128754761D02*
X72309523Y-128802380D01*
X72547619Y-128802380D01*
X72642857Y-128754761D01*
X72690476Y-128707142D01*
X72738095Y-128611904D01*
X72738095Y-128516666D01*
X72690476Y-128421428D01*
X72642857Y-128373809D01*
X72547619Y-128326190D01*
X72357142Y-128278571D01*
X72261904Y-128230952D01*
X72214285Y-128183333D01*
X72166666Y-128088095D01*
X72166666Y-127992857D01*
X72214285Y-127897619D01*
X72261904Y-127850000D01*
X72357142Y-127802380D01*
X72595238Y-127802380D01*
X72738095Y-127850000D01*
X73071428Y-127802380D02*
X73309523Y-128802380D01*
X73500000Y-128088095D01*
X73690476Y-128802380D01*
X73928571Y-127802380D01*
X74214285Y-127802380D02*
X74880952Y-127802380D01*
X74452380Y-128802380D01*
%TO.C,U35*%
X109211904Y-103352380D02*
X109211904Y-104161904D01*
X109259523Y-104257142D01*
X109307142Y-104304761D01*
X109402380Y-104352380D01*
X109592857Y-104352380D01*
X109688095Y-104304761D01*
X109735714Y-104257142D01*
X109783333Y-104161904D01*
X109783333Y-103352380D01*
X110164285Y-103352380D02*
X110783333Y-103352380D01*
X110450000Y-103733333D01*
X110592857Y-103733333D01*
X110688095Y-103780952D01*
X110735714Y-103828571D01*
X110783333Y-103923809D01*
X110783333Y-104161904D01*
X110735714Y-104257142D01*
X110688095Y-104304761D01*
X110592857Y-104352380D01*
X110307142Y-104352380D01*
X110211904Y-104304761D01*
X110164285Y-104257142D01*
X111688095Y-103352380D02*
X111211904Y-103352380D01*
X111164285Y-103828571D01*
X111211904Y-103780952D01*
X111307142Y-103733333D01*
X111545238Y-103733333D01*
X111640476Y-103780952D01*
X111688095Y-103828571D01*
X111735714Y-103923809D01*
X111735714Y-104161904D01*
X111688095Y-104257142D01*
X111640476Y-104304761D01*
X111545238Y-104352380D01*
X111307142Y-104352380D01*
X111211904Y-104304761D01*
X111164285Y-104257142D01*
%TO.C,RV10*%
X108052380Y-66721428D02*
X107576190Y-67054761D01*
X108052380Y-67292857D02*
X107052380Y-67292857D01*
X107052380Y-66911904D01*
X107100000Y-66816666D01*
X107147619Y-66769047D01*
X107242857Y-66721428D01*
X107385714Y-66721428D01*
X107480952Y-66769047D01*
X107528571Y-66816666D01*
X107576190Y-66911904D01*
X107576190Y-67292857D01*
X107052380Y-66435714D02*
X108052380Y-66102380D01*
X107052380Y-65769047D01*
X108052380Y-64911904D02*
X108052380Y-65483333D01*
X108052380Y-65197619D02*
X107052380Y-65197619D01*
X107195238Y-65292857D01*
X107290476Y-65388095D01*
X107338095Y-65483333D01*
X107052380Y-64292857D02*
X107052380Y-64197619D01*
X107100000Y-64102380D01*
X107147619Y-64054761D01*
X107242857Y-64007142D01*
X107433333Y-63959523D01*
X107671428Y-63959523D01*
X107861904Y-64007142D01*
X107957142Y-64054761D01*
X108004761Y-64102380D01*
X108052380Y-64197619D01*
X108052380Y-64292857D01*
X108004761Y-64388095D01*
X107957142Y-64435714D01*
X107861904Y-64483333D01*
X107671428Y-64530952D01*
X107433333Y-64530952D01*
X107242857Y-64483333D01*
X107147619Y-64435714D01*
X107100000Y-64388095D01*
X107052380Y-64292857D01*
%TO.C,SW4*%
X72066666Y-63154761D02*
X72209523Y-63202380D01*
X72447619Y-63202380D01*
X72542857Y-63154761D01*
X72590476Y-63107142D01*
X72638095Y-63011904D01*
X72638095Y-62916666D01*
X72590476Y-62821428D01*
X72542857Y-62773809D01*
X72447619Y-62726190D01*
X72257142Y-62678571D01*
X72161904Y-62630952D01*
X72114285Y-62583333D01*
X72066666Y-62488095D01*
X72066666Y-62392857D01*
X72114285Y-62297619D01*
X72161904Y-62250000D01*
X72257142Y-62202380D01*
X72495238Y-62202380D01*
X72638095Y-62250000D01*
X72971428Y-62202380D02*
X73209523Y-63202380D01*
X73400000Y-62488095D01*
X73590476Y-63202380D01*
X73828571Y-62202380D01*
X74638095Y-62535714D02*
X74638095Y-63202380D01*
X74400000Y-62154761D02*
X74161904Y-62869047D01*
X74780952Y-62869047D01*
%TO.C,SW2*%
X62667111Y-80164565D02*
X62817317Y-80153891D01*
X63037288Y-80062775D01*
X63107053Y-79982335D01*
X63132825Y-79920118D01*
X63140373Y-79813906D01*
X63103927Y-79725918D01*
X63023487Y-79656152D01*
X62961269Y-79630381D01*
X62855058Y-79622833D01*
X62660858Y-79651731D01*
X62554646Y-79644182D01*
X62492429Y-79618411D01*
X62411989Y-79548646D01*
X62375542Y-79460657D01*
X62383091Y-79354446D01*
X62408862Y-79292228D01*
X62478627Y-79211788D01*
X62698599Y-79120673D01*
X62848805Y-79109998D01*
X63138541Y-78938443D02*
X63741196Y-79771207D01*
X63643828Y-79038401D01*
X64093150Y-79625423D01*
X63930438Y-78610428D01*
X64274844Y-78570856D02*
X64300615Y-78508638D01*
X64370381Y-78428198D01*
X64590352Y-78337083D01*
X64696564Y-78344631D01*
X64758781Y-78370402D01*
X64839221Y-78440168D01*
X64875667Y-78528156D01*
X64886342Y-78678362D01*
X64577087Y-79424970D01*
X65149013Y-79188070D01*
%TO.C,RV11*%
X108052380Y-110671428D02*
X107576190Y-111004761D01*
X108052380Y-111242857D02*
X107052380Y-111242857D01*
X107052380Y-110861904D01*
X107100000Y-110766666D01*
X107147619Y-110719047D01*
X107242857Y-110671428D01*
X107385714Y-110671428D01*
X107480952Y-110719047D01*
X107528571Y-110766666D01*
X107576190Y-110861904D01*
X107576190Y-111242857D01*
X107052380Y-110385714D02*
X108052380Y-110052380D01*
X107052380Y-109719047D01*
X108052380Y-108861904D02*
X108052380Y-109433333D01*
X108052380Y-109147619D02*
X107052380Y-109147619D01*
X107195238Y-109242857D01*
X107290476Y-109338095D01*
X107338095Y-109433333D01*
X108052380Y-107909523D02*
X108052380Y-108480952D01*
X108052380Y-108195238D02*
X107052380Y-108195238D01*
X107195238Y-108290476D01*
X107290476Y-108385714D01*
X107338095Y-108480952D01*
%TO.C,D16*%
X52085714Y-47202380D02*
X52085714Y-46202380D01*
X52323809Y-46202380D01*
X52466666Y-46250000D01*
X52561904Y-46345238D01*
X52609523Y-46440476D01*
X52657142Y-46630952D01*
X52657142Y-46773809D01*
X52609523Y-46964285D01*
X52561904Y-47059523D01*
X52466666Y-47154761D01*
X52323809Y-47202380D01*
X52085714Y-47202380D01*
X53609523Y-47202380D02*
X53038095Y-47202380D01*
X53323809Y-47202380D02*
X53323809Y-46202380D01*
X53228571Y-46345238D01*
X53133333Y-46440476D01*
X53038095Y-46488095D01*
X54466666Y-46202380D02*
X54276190Y-46202380D01*
X54180952Y-46250000D01*
X54133333Y-46297619D01*
X54038095Y-46440476D01*
X53990476Y-46630952D01*
X53990476Y-47011904D01*
X54038095Y-47107142D01*
X54085714Y-47154761D01*
X54180952Y-47202380D01*
X54371428Y-47202380D01*
X54466666Y-47154761D01*
X54514285Y-47107142D01*
X54561904Y-47011904D01*
X54561904Y-46773809D01*
X54514285Y-46678571D01*
X54466666Y-46630952D01*
X54371428Y-46583333D01*
X54180952Y-46583333D01*
X54085714Y-46630952D01*
X54038095Y-46678571D01*
X53990476Y-46773809D01*
%TO.C,J2*%
X42566666Y-62652380D02*
X42566666Y-63366666D01*
X42519047Y-63509523D01*
X42423809Y-63604761D01*
X42280952Y-63652380D01*
X42185714Y-63652380D01*
X42995238Y-62747619D02*
X43042857Y-62700000D01*
X43138095Y-62652380D01*
X43376190Y-62652380D01*
X43471428Y-62700000D01*
X43519047Y-62747619D01*
X43566666Y-62842857D01*
X43566666Y-62938095D01*
X43519047Y-63080952D01*
X42947619Y-63652380D01*
X43566666Y-63652380D01*
%TO.C,D26*%
X101942380Y-71214285D02*
X100942380Y-71214285D01*
X100942380Y-70976190D01*
X100990000Y-70833333D01*
X101085238Y-70738095D01*
X101180476Y-70690476D01*
X101370952Y-70642857D01*
X101513809Y-70642857D01*
X101704285Y-70690476D01*
X101799523Y-70738095D01*
X101894761Y-70833333D01*
X101942380Y-70976190D01*
X101942380Y-71214285D01*
X101037619Y-70261904D02*
X100990000Y-70214285D01*
X100942380Y-70119047D01*
X100942380Y-69880952D01*
X100990000Y-69785714D01*
X101037619Y-69738095D01*
X101132857Y-69690476D01*
X101228095Y-69690476D01*
X101370952Y-69738095D01*
X101942380Y-70309523D01*
X101942380Y-69690476D01*
X100942380Y-68833333D02*
X100942380Y-69023809D01*
X100990000Y-69119047D01*
X101037619Y-69166666D01*
X101180476Y-69261904D01*
X101370952Y-69309523D01*
X101751904Y-69309523D01*
X101847142Y-69261904D01*
X101894761Y-69214285D01*
X101942380Y-69119047D01*
X101942380Y-68928571D01*
X101894761Y-68833333D01*
X101847142Y-68785714D01*
X101751904Y-68738095D01*
X101513809Y-68738095D01*
X101418571Y-68785714D01*
X101370952Y-68833333D01*
X101323333Y-68928571D01*
X101323333Y-69119047D01*
X101370952Y-69214285D01*
X101418571Y-69261904D01*
X101513809Y-69309523D01*
%TO.C,RV14*%
X108002380Y-88521428D02*
X107526190Y-88854761D01*
X108002380Y-89092857D02*
X107002380Y-89092857D01*
X107002380Y-88711904D01*
X107050000Y-88616666D01*
X107097619Y-88569047D01*
X107192857Y-88521428D01*
X107335714Y-88521428D01*
X107430952Y-88569047D01*
X107478571Y-88616666D01*
X107526190Y-88711904D01*
X107526190Y-89092857D01*
X107002380Y-88235714D02*
X108002380Y-87902380D01*
X107002380Y-87569047D01*
X108002380Y-86711904D02*
X108002380Y-87283333D01*
X108002380Y-86997619D02*
X107002380Y-86997619D01*
X107145238Y-87092857D01*
X107240476Y-87188095D01*
X107288095Y-87283333D01*
X107335714Y-85854761D02*
X108002380Y-85854761D01*
X106954761Y-86092857D02*
X107669047Y-86330952D01*
X107669047Y-85711904D01*
%TO.C,D28*%
X101942380Y-93214285D02*
X100942380Y-93214285D01*
X100942380Y-92976190D01*
X100990000Y-92833333D01*
X101085238Y-92738095D01*
X101180476Y-92690476D01*
X101370952Y-92642857D01*
X101513809Y-92642857D01*
X101704285Y-92690476D01*
X101799523Y-92738095D01*
X101894761Y-92833333D01*
X101942380Y-92976190D01*
X101942380Y-93214285D01*
X101037619Y-92261904D02*
X100990000Y-92214285D01*
X100942380Y-92119047D01*
X100942380Y-91880952D01*
X100990000Y-91785714D01*
X101037619Y-91738095D01*
X101132857Y-91690476D01*
X101228095Y-91690476D01*
X101370952Y-91738095D01*
X101942380Y-92309523D01*
X101942380Y-91690476D01*
X101370952Y-91119047D02*
X101323333Y-91214285D01*
X101275714Y-91261904D01*
X101180476Y-91309523D01*
X101132857Y-91309523D01*
X101037619Y-91261904D01*
X100990000Y-91214285D01*
X100942380Y-91119047D01*
X100942380Y-90928571D01*
X100990000Y-90833333D01*
X101037619Y-90785714D01*
X101132857Y-90738095D01*
X101180476Y-90738095D01*
X101275714Y-90785714D01*
X101323333Y-90833333D01*
X101370952Y-90928571D01*
X101370952Y-91119047D01*
X101418571Y-91214285D01*
X101466190Y-91261904D01*
X101561428Y-91309523D01*
X101751904Y-91309523D01*
X101847142Y-91261904D01*
X101894761Y-91214285D01*
X101942380Y-91119047D01*
X101942380Y-90928571D01*
X101894761Y-90833333D01*
X101847142Y-90785714D01*
X101751904Y-90738095D01*
X101561428Y-90738095D01*
X101466190Y-90785714D01*
X101418571Y-90833333D01*
X101370952Y-90928571D01*
%TO.C,D27*%
X101942380Y-137214285D02*
X100942380Y-137214285D01*
X100942380Y-136976190D01*
X100990000Y-136833333D01*
X101085238Y-136738095D01*
X101180476Y-136690476D01*
X101370952Y-136642857D01*
X101513809Y-136642857D01*
X101704285Y-136690476D01*
X101799523Y-136738095D01*
X101894761Y-136833333D01*
X101942380Y-136976190D01*
X101942380Y-137214285D01*
X101037619Y-136261904D02*
X100990000Y-136214285D01*
X100942380Y-136119047D01*
X100942380Y-135880952D01*
X100990000Y-135785714D01*
X101037619Y-135738095D01*
X101132857Y-135690476D01*
X101228095Y-135690476D01*
X101370952Y-135738095D01*
X101942380Y-136309523D01*
X101942380Y-135690476D01*
X100942380Y-135357142D02*
X100942380Y-134690476D01*
X101942380Y-135119047D01*
%TO.C,J9*%
X133166666Y-62652380D02*
X133166666Y-63366666D01*
X133119047Y-63509523D01*
X133023809Y-63604761D01*
X132880952Y-63652380D01*
X132785714Y-63652380D01*
X133690476Y-63652380D02*
X133880952Y-63652380D01*
X133976190Y-63604761D01*
X134023809Y-63557142D01*
X134119047Y-63414285D01*
X134166666Y-63223809D01*
X134166666Y-62842857D01*
X134119047Y-62747619D01*
X134071428Y-62700000D01*
X133976190Y-62652380D01*
X133785714Y-62652380D01*
X133690476Y-62700000D01*
X133642857Y-62747619D01*
X133595238Y-62842857D01*
X133595238Y-63080952D01*
X133642857Y-63176190D01*
X133690476Y-63223809D01*
X133785714Y-63271428D01*
X133976190Y-63271428D01*
X134071428Y-63223809D01*
X134119047Y-63176190D01*
X134166666Y-63080952D01*
%TO.C,SW6*%
X72091666Y-85154761D02*
X72234523Y-85202380D01*
X72472619Y-85202380D01*
X72567857Y-85154761D01*
X72615476Y-85107142D01*
X72663095Y-85011904D01*
X72663095Y-84916666D01*
X72615476Y-84821428D01*
X72567857Y-84773809D01*
X72472619Y-84726190D01*
X72282142Y-84678571D01*
X72186904Y-84630952D01*
X72139285Y-84583333D01*
X72091666Y-84488095D01*
X72091666Y-84392857D01*
X72139285Y-84297619D01*
X72186904Y-84250000D01*
X72282142Y-84202380D01*
X72520238Y-84202380D01*
X72663095Y-84250000D01*
X72996428Y-84202380D02*
X73234523Y-85202380D01*
X73425000Y-84488095D01*
X73615476Y-85202380D01*
X73853571Y-84202380D01*
X74663095Y-84202380D02*
X74472619Y-84202380D01*
X74377380Y-84250000D01*
X74329761Y-84297619D01*
X74234523Y-84440476D01*
X74186904Y-84630952D01*
X74186904Y-85011904D01*
X74234523Y-85107142D01*
X74282142Y-85154761D01*
X74377380Y-85202380D01*
X74567857Y-85202380D01*
X74663095Y-85154761D01*
X74710714Y-85107142D01*
X74758333Y-85011904D01*
X74758333Y-84773809D01*
X74710714Y-84678571D01*
X74663095Y-84630952D01*
X74567857Y-84583333D01*
X74377380Y-84583333D01*
X74282142Y-84630952D01*
X74234523Y-84678571D01*
X74186904Y-84773809D01*
%TO.C,J3*%
X42566666Y-84652380D02*
X42566666Y-85366666D01*
X42519047Y-85509523D01*
X42423809Y-85604761D01*
X42280952Y-85652380D01*
X42185714Y-85652380D01*
X42947619Y-84652380D02*
X43566666Y-84652380D01*
X43233333Y-85033333D01*
X43376190Y-85033333D01*
X43471428Y-85080952D01*
X43519047Y-85128571D01*
X43566666Y-85223809D01*
X43566666Y-85461904D01*
X43519047Y-85557142D01*
X43471428Y-85604761D01*
X43376190Y-85652380D01*
X43090476Y-85652380D01*
X42995238Y-85604761D01*
X42947619Y-85557142D01*
%TO.C,D25*%
X101942380Y-115214285D02*
X100942380Y-115214285D01*
X100942380Y-114976190D01*
X100990000Y-114833333D01*
X101085238Y-114738095D01*
X101180476Y-114690476D01*
X101370952Y-114642857D01*
X101513809Y-114642857D01*
X101704285Y-114690476D01*
X101799523Y-114738095D01*
X101894761Y-114833333D01*
X101942380Y-114976190D01*
X101942380Y-115214285D01*
X101037619Y-114261904D02*
X100990000Y-114214285D01*
X100942380Y-114119047D01*
X100942380Y-113880952D01*
X100990000Y-113785714D01*
X101037619Y-113738095D01*
X101132857Y-113690476D01*
X101228095Y-113690476D01*
X101370952Y-113738095D01*
X101942380Y-114309523D01*
X101942380Y-113690476D01*
X100942380Y-112785714D02*
X100942380Y-113261904D01*
X101418571Y-113309523D01*
X101370952Y-113261904D01*
X101323333Y-113166666D01*
X101323333Y-112928571D01*
X101370952Y-112833333D01*
X101418571Y-112785714D01*
X101513809Y-112738095D01*
X101751904Y-112738095D01*
X101847142Y-112785714D01*
X101894761Y-112833333D01*
X101942380Y-112928571D01*
X101942380Y-113166666D01*
X101894761Y-113261904D01*
X101847142Y-113309523D01*
%TO.C,SW8*%
X62667111Y-146164565D02*
X62817317Y-146153891D01*
X63037288Y-146062775D01*
X63107053Y-145982335D01*
X63132825Y-145920118D01*
X63140373Y-145813906D01*
X63103927Y-145725918D01*
X63023487Y-145656152D01*
X62961269Y-145630381D01*
X62855058Y-145622833D01*
X62660858Y-145651731D01*
X62554646Y-145644182D01*
X62492429Y-145618411D01*
X62411989Y-145548646D01*
X62375542Y-145460657D01*
X62383091Y-145354446D01*
X62408862Y-145292228D01*
X62478627Y-145211788D01*
X62698599Y-145120673D01*
X62848805Y-145109998D01*
X63138541Y-144938443D02*
X63741196Y-145771207D01*
X63643828Y-145038401D01*
X64093150Y-145625423D01*
X63930438Y-144610428D01*
X64578382Y-144805923D02*
X64472171Y-144798375D01*
X64409953Y-144772604D01*
X64329513Y-144702838D01*
X64311290Y-144658844D01*
X64318838Y-144552633D01*
X64344610Y-144490415D01*
X64414375Y-144409975D01*
X64590352Y-144337083D01*
X64696564Y-144344631D01*
X64758781Y-144370402D01*
X64839221Y-144440168D01*
X64857444Y-144484162D01*
X64849896Y-144590374D01*
X64824125Y-144652591D01*
X64754359Y-144733031D01*
X64578382Y-144805923D01*
X64508617Y-144886364D01*
X64482845Y-144948581D01*
X64475297Y-145054793D01*
X64548189Y-145230770D01*
X64628630Y-145300535D01*
X64690847Y-145326306D01*
X64797058Y-145333855D01*
X64973036Y-145260963D01*
X65042801Y-145180522D01*
X65068572Y-145118305D01*
X65076120Y-145012093D01*
X65003228Y-144836116D01*
X64922788Y-144766351D01*
X64860571Y-144740580D01*
X64754359Y-144733031D01*
%TO.C,RV15*%
X108052380Y-132971428D02*
X107576190Y-133304761D01*
X108052380Y-133542857D02*
X107052380Y-133542857D01*
X107052380Y-133161904D01*
X107100000Y-133066666D01*
X107147619Y-133019047D01*
X107242857Y-132971428D01*
X107385714Y-132971428D01*
X107480952Y-133019047D01*
X107528571Y-133066666D01*
X107576190Y-133161904D01*
X107576190Y-133542857D01*
X107052380Y-132685714D02*
X108052380Y-132352380D01*
X107052380Y-132019047D01*
X108052380Y-131161904D02*
X108052380Y-131733333D01*
X108052380Y-131447619D02*
X107052380Y-131447619D01*
X107195238Y-131542857D01*
X107290476Y-131638095D01*
X107338095Y-131733333D01*
X107052380Y-130257142D02*
X107052380Y-130733333D01*
X107528571Y-130780952D01*
X107480952Y-130733333D01*
X107433333Y-130638095D01*
X107433333Y-130400000D01*
X107480952Y-130304761D01*
X107528571Y-130257142D01*
X107623809Y-130209523D01*
X107861904Y-130209523D01*
X107957142Y-130257142D01*
X108004761Y-130304761D01*
X108052380Y-130400000D01*
X108052380Y-130638095D01*
X108004761Y-130733333D01*
X107957142Y-130780952D01*
%TO.C,U30*%
X109061904Y-125102380D02*
X109061904Y-125911904D01*
X109109523Y-126007142D01*
X109157142Y-126054761D01*
X109252380Y-126102380D01*
X109442857Y-126102380D01*
X109538095Y-126054761D01*
X109585714Y-126007142D01*
X109633333Y-125911904D01*
X109633333Y-125102380D01*
X110014285Y-125102380D02*
X110633333Y-125102380D01*
X110300000Y-125483333D01*
X110442857Y-125483333D01*
X110538095Y-125530952D01*
X110585714Y-125578571D01*
X110633333Y-125673809D01*
X110633333Y-125911904D01*
X110585714Y-126007142D01*
X110538095Y-126054761D01*
X110442857Y-126102380D01*
X110157142Y-126102380D01*
X110061904Y-126054761D01*
X110014285Y-126007142D01*
X111252380Y-125102380D02*
X111347619Y-125102380D01*
X111442857Y-125150000D01*
X111490476Y-125197619D01*
X111538095Y-125292857D01*
X111585714Y-125483333D01*
X111585714Y-125721428D01*
X111538095Y-125911904D01*
X111490476Y-126007142D01*
X111442857Y-126054761D01*
X111347619Y-126102380D01*
X111252380Y-126102380D01*
X111157142Y-126054761D01*
X111109523Y-126007142D01*
X111061904Y-125911904D01*
X111014285Y-125721428D01*
X111014285Y-125483333D01*
X111061904Y-125292857D01*
X111109523Y-125197619D01*
X111157142Y-125150000D01*
X111252380Y-125102380D01*
%TO.C,SW5*%
X71991666Y-106754761D02*
X72134523Y-106802380D01*
X72372619Y-106802380D01*
X72467857Y-106754761D01*
X72515476Y-106707142D01*
X72563095Y-106611904D01*
X72563095Y-106516666D01*
X72515476Y-106421428D01*
X72467857Y-106373809D01*
X72372619Y-106326190D01*
X72182142Y-106278571D01*
X72086904Y-106230952D01*
X72039285Y-106183333D01*
X71991666Y-106088095D01*
X71991666Y-105992857D01*
X72039285Y-105897619D01*
X72086904Y-105850000D01*
X72182142Y-105802380D01*
X72420238Y-105802380D01*
X72563095Y-105850000D01*
X72896428Y-105802380D02*
X73134523Y-106802380D01*
X73325000Y-106088095D01*
X73515476Y-106802380D01*
X73753571Y-105802380D01*
X74610714Y-105802380D02*
X74134523Y-105802380D01*
X74086904Y-106278571D01*
X74134523Y-106230952D01*
X74229761Y-106183333D01*
X74467857Y-106183333D01*
X74563095Y-106230952D01*
X74610714Y-106278571D01*
X74658333Y-106373809D01*
X74658333Y-106611904D01*
X74610714Y-106707142D01*
X74563095Y-106754761D01*
X74467857Y-106802380D01*
X74229761Y-106802380D01*
X74134523Y-106754761D01*
X74086904Y-106707142D01*
%TO.C,J7*%
X133166666Y-42652380D02*
X133166666Y-43366666D01*
X133119047Y-43509523D01*
X133023809Y-43604761D01*
X132880952Y-43652380D01*
X132785714Y-43652380D01*
X133547619Y-42652380D02*
X134214285Y-42652380D01*
X133785714Y-43652380D01*
%TO.C,SW1*%
X62667111Y-102164565D02*
X62817317Y-102153891D01*
X63037288Y-102062775D01*
X63107053Y-101982335D01*
X63132825Y-101920118D01*
X63140373Y-101813906D01*
X63103927Y-101725918D01*
X63023487Y-101656152D01*
X62961269Y-101630381D01*
X62855058Y-101622833D01*
X62660858Y-101651731D01*
X62554646Y-101644182D01*
X62492429Y-101618411D01*
X62411989Y-101548646D01*
X62375542Y-101460657D01*
X62383091Y-101354446D01*
X62408862Y-101292228D01*
X62478627Y-101211788D01*
X62698599Y-101120673D01*
X62848805Y-101109998D01*
X63138541Y-100938443D02*
X63741196Y-101771207D01*
X63643828Y-101038401D01*
X64093150Y-101625423D01*
X63930438Y-100610428D01*
X65149013Y-101188070D02*
X64621081Y-101406747D01*
X64885047Y-101297409D02*
X64502364Y-100373529D01*
X64469044Y-100541958D01*
X64417502Y-100666392D01*
X64347736Y-100746833D01*
%TO.C,SW3*%
X62667111Y-124164565D02*
X62817317Y-124153891D01*
X63037288Y-124062775D01*
X63107053Y-123982335D01*
X63132825Y-123920118D01*
X63140373Y-123813906D01*
X63103927Y-123725918D01*
X63023487Y-123656152D01*
X62961269Y-123630381D01*
X62855058Y-123622833D01*
X62660858Y-123651731D01*
X62554646Y-123644182D01*
X62492429Y-123618411D01*
X62411989Y-123548646D01*
X62375542Y-123460657D01*
X62383091Y-123354446D01*
X62408862Y-123292228D01*
X62478627Y-123211788D01*
X62698599Y-123120673D01*
X62848805Y-123109998D01*
X63138541Y-122938443D02*
X63741196Y-123771207D01*
X63643828Y-123038401D01*
X64093150Y-123625423D01*
X63930438Y-122610428D01*
X64194404Y-122501090D02*
X64766329Y-122264191D01*
X64604153Y-122743706D01*
X64736136Y-122689037D01*
X64842348Y-122696585D01*
X64904565Y-122722357D01*
X64985005Y-122792122D01*
X65076120Y-123012093D01*
X65068572Y-123118305D01*
X65042801Y-123180522D01*
X64973036Y-123260963D01*
X64709070Y-123370301D01*
X64602858Y-123362752D01*
X64540641Y-123336981D01*
%TO.C,U34*%
X126552380Y-132438095D02*
X127361904Y-132438095D01*
X127457142Y-132390476D01*
X127504761Y-132342857D01*
X127552380Y-132247619D01*
X127552380Y-132057142D01*
X127504761Y-131961904D01*
X127457142Y-131914285D01*
X127361904Y-131866666D01*
X126552380Y-131866666D01*
X126552380Y-131485714D02*
X126552380Y-130866666D01*
X126933333Y-131200000D01*
X126933333Y-131057142D01*
X126980952Y-130961904D01*
X127028571Y-130914285D01*
X127123809Y-130866666D01*
X127361904Y-130866666D01*
X127457142Y-130914285D01*
X127504761Y-130961904D01*
X127552380Y-131057142D01*
X127552380Y-131342857D01*
X127504761Y-131438095D01*
X127457142Y-131485714D01*
X126885714Y-130009523D02*
X127552380Y-130009523D01*
X126504761Y-130247619D02*
X127219047Y-130485714D01*
X127219047Y-129866666D01*
%TO.C,J5*%
X42566666Y-128652380D02*
X42566666Y-129366666D01*
X42519047Y-129509523D01*
X42423809Y-129604761D01*
X42280952Y-129652380D01*
X42185714Y-129652380D01*
X43519047Y-128652380D02*
X43042857Y-128652380D01*
X42995238Y-129128571D01*
X43042857Y-129080952D01*
X43138095Y-129033333D01*
X43376190Y-129033333D01*
X43471428Y-129080952D01*
X43519047Y-129128571D01*
X43566666Y-129223809D01*
X43566666Y-129461904D01*
X43519047Y-129557142D01*
X43471428Y-129604761D01*
X43376190Y-129652380D01*
X43138095Y-129652380D01*
X43042857Y-129604761D01*
X42995238Y-129557142D01*
%TO.C,J10*%
X132690476Y-128652380D02*
X132690476Y-129366666D01*
X132642857Y-129509523D01*
X132547619Y-129604761D01*
X132404761Y-129652380D01*
X132309523Y-129652380D01*
X133690476Y-129652380D02*
X133119047Y-129652380D01*
X133404761Y-129652380D02*
X133404761Y-128652380D01*
X133309523Y-128795238D01*
X133214285Y-128890476D01*
X133119047Y-128938095D01*
X134309523Y-128652380D02*
X134404761Y-128652380D01*
X134500000Y-128700000D01*
X134547619Y-128747619D01*
X134595238Y-128842857D01*
X134642857Y-129033333D01*
X134642857Y-129271428D01*
X134595238Y-129461904D01*
X134547619Y-129557142D01*
X134500000Y-129604761D01*
X134404761Y-129652380D01*
X134309523Y-129652380D01*
X134214285Y-129604761D01*
X134166666Y-129557142D01*
X134119047Y-129461904D01*
X134071428Y-129271428D01*
X134071428Y-129033333D01*
X134119047Y-128842857D01*
X134166666Y-128747619D01*
X134214285Y-128700000D01*
X134309523Y-128652380D01*
%TO.C,J4*%
X42566666Y-106652380D02*
X42566666Y-107366666D01*
X42519047Y-107509523D01*
X42423809Y-107604761D01*
X42280952Y-107652380D01*
X42185714Y-107652380D01*
X43471428Y-106985714D02*
X43471428Y-107652380D01*
X43233333Y-106604761D02*
X42995238Y-107319047D01*
X43614285Y-107319047D01*
%TO.C,J11*%
X132690476Y-84652380D02*
X132690476Y-85366666D01*
X132642857Y-85509523D01*
X132547619Y-85604761D01*
X132404761Y-85652380D01*
X132309523Y-85652380D01*
X133690476Y-85652380D02*
X133119047Y-85652380D01*
X133404761Y-85652380D02*
X133404761Y-84652380D01*
X133309523Y-84795238D01*
X133214285Y-84890476D01*
X133119047Y-84938095D01*
X134642857Y-85652380D02*
X134071428Y-85652380D01*
X134357142Y-85652380D02*
X134357142Y-84652380D01*
X134261904Y-84795238D01*
X134166666Y-84890476D01*
X134071428Y-84938095D01*
%TO.C,J1*%
X42566666Y-42652380D02*
X42566666Y-43366666D01*
X42519047Y-43509523D01*
X42423809Y-43604761D01*
X42280952Y-43652380D01*
X42185714Y-43652380D01*
X43566666Y-43652380D02*
X42995238Y-43652380D01*
X43280952Y-43652380D02*
X43280952Y-42652380D01*
X43185714Y-42795238D01*
X43090476Y-42890476D01*
X42995238Y-42938095D01*
%TO.C,U31*%
X109161904Y-81402380D02*
X109161904Y-82211904D01*
X109209523Y-82307142D01*
X109257142Y-82354761D01*
X109352380Y-82402380D01*
X109542857Y-82402380D01*
X109638095Y-82354761D01*
X109685714Y-82307142D01*
X109733333Y-82211904D01*
X109733333Y-81402380D01*
X110114285Y-81402380D02*
X110733333Y-81402380D01*
X110400000Y-81783333D01*
X110542857Y-81783333D01*
X110638095Y-81830952D01*
X110685714Y-81878571D01*
X110733333Y-81973809D01*
X110733333Y-82211904D01*
X110685714Y-82307142D01*
X110638095Y-82354761D01*
X110542857Y-82402380D01*
X110257142Y-82402380D01*
X110161904Y-82354761D01*
X110114285Y-82307142D01*
X111685714Y-82402380D02*
X111114285Y-82402380D01*
X111400000Y-82402380D02*
X111400000Y-81402380D01*
X111304761Y-81545238D01*
X111209523Y-81640476D01*
X111114285Y-81688095D01*
%TO.C,J8*%
X133166666Y-106652380D02*
X133166666Y-107366666D01*
X133119047Y-107509523D01*
X133023809Y-107604761D01*
X132880952Y-107652380D01*
X132785714Y-107652380D01*
X133785714Y-107080952D02*
X133690476Y-107033333D01*
X133642857Y-106985714D01*
X133595238Y-106890476D01*
X133595238Y-106842857D01*
X133642857Y-106747619D01*
X133690476Y-106700000D01*
X133785714Y-106652380D01*
X133976190Y-106652380D01*
X134071428Y-106700000D01*
X134119047Y-106747619D01*
X134166666Y-106842857D01*
X134166666Y-106890476D01*
X134119047Y-106985714D01*
X134071428Y-107033333D01*
X133976190Y-107080952D01*
X133785714Y-107080952D01*
X133690476Y-107128571D01*
X133642857Y-107176190D01*
X133595238Y-107271428D01*
X133595238Y-107461904D01*
X133642857Y-107557142D01*
X133690476Y-107604761D01*
X133785714Y-107652380D01*
X133976190Y-107652380D01*
X134071428Y-107604761D01*
X134119047Y-107557142D01*
X134166666Y-107461904D01*
X134166666Y-107271428D01*
X134119047Y-107176190D01*
X134071428Y-107128571D01*
X133976190Y-107080952D01*
D12*
%TO.C,SW7*%
X76825000Y-142450000D02*
X76825000Y-142000000D01*
X76825000Y-142450000D02*
X76400000Y-142450000D01*
X69775000Y-142450000D02*
X70150000Y-142450000D01*
X76825000Y-129575000D02*
X76825000Y-130025000D01*
X76825000Y-129550000D02*
X76400000Y-129550000D01*
X69775000Y-129925000D02*
X69775000Y-129550000D01*
X69775000Y-142450000D02*
X69775000Y-142050000D01*
X69775000Y-129550000D02*
X70125000Y-129550000D01*
D13*
%TO.C,U35*%
X112090000Y-106550000D02*
X122110000Y-106550000D01*
X112090000Y-101050000D02*
X113100000Y-100350000D01*
X112090000Y-101050000D02*
X112090000Y-106550000D01*
X122100000Y-106550000D02*
X122100000Y-100350000D01*
X122100000Y-100350000D02*
X113100000Y-100350000D01*
%TO.C,RV10*%
X118370000Y-76120000D02*
X119970000Y-76120000D01*
X115871000Y-76120000D02*
X116630000Y-76120000D01*
X119970000Y-67745000D02*
X119970000Y-63880000D01*
X110030000Y-76120000D02*
X111629000Y-76120000D01*
X110030000Y-67745000D02*
X110030000Y-63880000D01*
X113371000Y-76120000D02*
X114130000Y-76120000D01*
X110030000Y-63880000D02*
X119970000Y-63880000D01*
X110030000Y-76120000D02*
X110030000Y-72255000D01*
X119970000Y-76120000D02*
X119970000Y-72255000D01*
D12*
%TO.C,SW4*%
X69775000Y-76450000D02*
X70150000Y-76450000D01*
X76825000Y-63550000D02*
X76400000Y-63550000D01*
X76825000Y-76450000D02*
X76400000Y-76450000D01*
X69775000Y-63550000D02*
X70125000Y-63550000D01*
X76825000Y-63575000D02*
X76825000Y-64025000D01*
X76825000Y-76450000D02*
X76825000Y-76000000D01*
X69775000Y-76450000D02*
X69775000Y-76050000D01*
X69775000Y-63925000D02*
X69775000Y-63550000D01*
D13*
%TO.C,SW2*%
X69020000Y-70000000D02*
G75*
G03*
X69020000Y-70000000I-9120000J0D01*
G01*
%TO.C,RV11*%
X115871000Y-120120000D02*
X116630000Y-120120000D01*
X110030000Y-111745000D02*
X110030000Y-107880000D01*
X119970000Y-120120000D02*
X119970000Y-116255000D01*
X113371000Y-120120000D02*
X114130000Y-120120000D01*
X110030000Y-107880000D02*
X119970000Y-107880000D01*
X118370000Y-120120000D02*
X119970000Y-120120000D01*
X119970000Y-111745000D02*
X119970000Y-107880000D01*
X110030000Y-120120000D02*
X110030000Y-116255000D01*
X110030000Y-120120000D02*
X111629000Y-120120000D01*
%TO.C,D16*%
X51564000Y-51390000D02*
X51720000Y-51390000D01*
X53880000Y-51390000D02*
X54036000Y-51390000D01*
X53880000Y-50870961D02*
G75*
G03*
X53879837Y-48788870I-1080000J1040961D01*
G01*
X51721392Y-48157665D02*
G75*
G03*
X51564484Y-51390000I1078609J-1672335D01*
G01*
X54035516Y-51390000D02*
G75*
G03*
X53878608Y-48157665I-1235517J1560000D01*
G01*
X51720163Y-48788870D02*
G75*
G03*
X51720000Y-50870961I1079837J-1041130D01*
G01*
D14*
%TO.C,J2*%
X49900000Y-74500000D02*
X49900000Y-64000000D01*
X40900000Y-74500000D02*
X40900000Y-64000000D01*
X40900000Y-74500000D02*
X43900000Y-74500000D01*
X47000000Y-64000000D02*
X49900000Y-64000000D01*
X46900000Y-74500000D02*
X49900000Y-74500000D01*
X40900000Y-64000000D02*
X43800000Y-64000000D01*
D13*
X46696263Y-72588576D02*
G75*
G03*
X45400000Y-67105000I-1296263J2588576D01*
G01*
X45400000Y-67104999D02*
G75*
G03*
X44103737Y-72588577I0J-2895001D01*
G01*
%TO.C,D26*%
X103214000Y-71560000D02*
X103370000Y-71560000D01*
X105530000Y-71560000D02*
X105686000Y-71560000D01*
X103371392Y-68327665D02*
G75*
G03*
X103214484Y-71560000I1078609J-1672335D01*
G01*
X105530000Y-71040961D02*
G75*
G03*
X105529837Y-68958870I-1080000J1040961D01*
G01*
X105685516Y-71560000D02*
G75*
G03*
X105528608Y-68327665I-1235517J1560000D01*
G01*
X103370163Y-68958870D02*
G75*
G03*
X103370000Y-71040961I1079837J-1041130D01*
G01*
%TO.C,RV14*%
X118370000Y-98120000D02*
X119970000Y-98120000D01*
X110030000Y-98120000D02*
X110030000Y-94255000D01*
X119970000Y-98120000D02*
X119970000Y-94255000D01*
X115871000Y-98120000D02*
X116630000Y-98120000D01*
X119970000Y-89745000D02*
X119970000Y-85880000D01*
X110030000Y-98120000D02*
X111629000Y-98120000D01*
X113371000Y-98120000D02*
X114130000Y-98120000D01*
X110030000Y-89745000D02*
X110030000Y-85880000D01*
X110030000Y-85880000D02*
X119970000Y-85880000D01*
%TO.C,D28*%
X105530000Y-93560000D02*
X105686000Y-93560000D01*
X103214000Y-93560000D02*
X103370000Y-93560000D01*
X103370163Y-90958870D02*
G75*
G03*
X103370000Y-93040961I1079837J-1041130D01*
G01*
X103371392Y-90327665D02*
G75*
G03*
X103214484Y-93560000I1078609J-1672335D01*
G01*
X105685516Y-93560000D02*
G75*
G03*
X105528608Y-90327665I-1235517J1560000D01*
G01*
X105530000Y-93040961D02*
G75*
G03*
X105529837Y-90958870I-1080000J1040961D01*
G01*
%TO.C,D27*%
X103214000Y-137560000D02*
X103370000Y-137560000D01*
X105530000Y-137560000D02*
X105686000Y-137560000D01*
X105530000Y-137040961D02*
G75*
G03*
X105529837Y-134958870I-1080000J1040961D01*
G01*
X103370163Y-134958870D02*
G75*
G03*
X103370000Y-137040961I1079837J-1041130D01*
G01*
X103371392Y-134327665D02*
G75*
G03*
X103214484Y-137560000I1078609J-1672335D01*
G01*
X105685516Y-137560000D02*
G75*
G03*
X105528608Y-134327665I-1235517J1560000D01*
G01*
D14*
%TO.C,J9*%
X131500000Y-64000000D02*
X134400000Y-64000000D01*
X131500000Y-74500000D02*
X134500000Y-74500000D01*
X131500000Y-74500000D02*
X131500000Y-64000000D01*
X137500000Y-74500000D02*
X140500000Y-74500000D01*
X137600000Y-64000000D02*
X140500000Y-64000000D01*
X140500000Y-74500000D02*
X140500000Y-64000000D01*
D13*
X137296263Y-72588576D02*
G75*
G03*
X136000000Y-67105000I-1296263J2588576D01*
G01*
X136000000Y-67104999D02*
G75*
G03*
X134703737Y-72588577I0J-2895001D01*
G01*
D12*
%TO.C,SW6*%
X76825000Y-98450000D02*
X76400000Y-98450000D01*
X76825000Y-85550000D02*
X76400000Y-85550000D01*
X69775000Y-85925000D02*
X69775000Y-85550000D01*
X76825000Y-98450000D02*
X76825000Y-98000000D01*
X76825000Y-85575000D02*
X76825000Y-86025000D01*
X69775000Y-98450000D02*
X70150000Y-98450000D01*
X69775000Y-85550000D02*
X70125000Y-85550000D01*
X69775000Y-98450000D02*
X69775000Y-98050000D01*
D14*
%TO.C,J3*%
X46900000Y-96500000D02*
X49900000Y-96500000D01*
X49900000Y-96500000D02*
X49900000Y-86000000D01*
X40900000Y-96500000D02*
X43900000Y-96500000D01*
X47000000Y-86000000D02*
X49900000Y-86000000D01*
X40900000Y-86000000D02*
X43800000Y-86000000D01*
X40900000Y-96500000D02*
X40900000Y-86000000D01*
D13*
X46696263Y-94588576D02*
G75*
G03*
X45400000Y-89105000I-1296263J2588576D01*
G01*
X45400000Y-89104999D02*
G75*
G03*
X44103737Y-94588577I0J-2895001D01*
G01*
%TO.C,D25*%
X103214000Y-115560000D02*
X103370000Y-115560000D01*
X105530000Y-115560000D02*
X105686000Y-115560000D01*
X103370163Y-112958870D02*
G75*
G03*
X103370000Y-115040961I1079837J-1041130D01*
G01*
X105530000Y-115040961D02*
G75*
G03*
X105529837Y-112958870I-1080000J1040961D01*
G01*
X105685516Y-115560000D02*
G75*
G03*
X105528608Y-112327665I-1235517J1560000D01*
G01*
X103371392Y-112327665D02*
G75*
G03*
X103214484Y-115560000I1078609J-1672335D01*
G01*
%TO.C,SW8*%
X69020000Y-136000000D02*
G75*
G03*
X69020000Y-136000000I-9120000J0D01*
G01*
%TO.C,RV15*%
X110030000Y-142120000D02*
X110030000Y-138255000D01*
X119970000Y-142120000D02*
X119970000Y-138255000D01*
X113371000Y-142120000D02*
X114130000Y-142120000D01*
X110030000Y-133745000D02*
X110030000Y-129880000D01*
X115871000Y-142120000D02*
X116630000Y-142120000D01*
X119970000Y-133745000D02*
X119970000Y-129880000D01*
X110030000Y-142120000D02*
X111629000Y-142120000D01*
X110030000Y-129880000D02*
X119970000Y-129880000D01*
X118370000Y-142120000D02*
X119970000Y-142120000D01*
%TO.C,U30*%
X112090000Y-123000000D02*
X113100000Y-122300000D01*
X112090000Y-128500000D02*
X122110000Y-128500000D01*
X122100000Y-128500000D02*
X122100000Y-122300000D01*
X112090000Y-123000000D02*
X112090000Y-128500000D01*
X122100000Y-122300000D02*
X113100000Y-122300000D01*
D12*
%TO.C,SW5*%
X76825000Y-107550000D02*
X76400000Y-107550000D01*
X69775000Y-120450000D02*
X70150000Y-120450000D01*
X69775000Y-107550000D02*
X70125000Y-107550000D01*
X69775000Y-107925000D02*
X69775000Y-107550000D01*
X69775000Y-120450000D02*
X69775000Y-120050000D01*
X76825000Y-120450000D02*
X76400000Y-120450000D01*
X76825000Y-107575000D02*
X76825000Y-108025000D01*
X76825000Y-120450000D02*
X76825000Y-120000000D01*
D14*
%TO.C,J7*%
X131500000Y-44000000D02*
X134400000Y-44000000D01*
X140500000Y-54500000D02*
X140500000Y-44000000D01*
X131500000Y-54500000D02*
X134500000Y-54500000D01*
X137500000Y-54500000D02*
X140500000Y-54500000D01*
X137600000Y-44000000D02*
X140500000Y-44000000D01*
X131500000Y-54500000D02*
X131500000Y-44000000D01*
D13*
X137296263Y-52588576D02*
G75*
G03*
X136000000Y-47105000I-1296263J2588576D01*
G01*
X136000000Y-47104999D02*
G75*
G03*
X134703737Y-52588577I0J-2895001D01*
G01*
%TO.C,SW1*%
X69020000Y-92000000D02*
G75*
G03*
X69020000Y-92000000I-9120000J0D01*
G01*
%TO.C,SW3*%
X69020000Y-114000000D02*
G75*
G03*
X69020000Y-114000000I-9120000J0D01*
G01*
%TO.C,U34*%
X129800000Y-132790000D02*
X124300000Y-132790000D01*
X124300000Y-142800000D02*
X130500000Y-142800000D01*
X130500000Y-142800000D02*
X130500000Y-133800000D01*
X129800000Y-132790000D02*
X130500000Y-133800000D01*
X124300000Y-132790000D02*
X124300000Y-142810000D01*
D14*
%TO.C,J5*%
X40900000Y-140500000D02*
X40900000Y-130000000D01*
X47000000Y-130000000D02*
X49900000Y-130000000D01*
X40900000Y-140500000D02*
X43900000Y-140500000D01*
X46900000Y-140500000D02*
X49900000Y-140500000D01*
X40900000Y-130000000D02*
X43800000Y-130000000D01*
X49900000Y-140500000D02*
X49900000Y-130000000D01*
D13*
X46696263Y-138588576D02*
G75*
G03*
X45400000Y-133105000I-1296263J2588576D01*
G01*
X45400000Y-133104999D02*
G75*
G03*
X44103737Y-138588577I0J-2895001D01*
G01*
D14*
%TO.C,J10*%
X131500000Y-140500000D02*
X134500000Y-140500000D01*
X131500000Y-140500000D02*
X131500000Y-130000000D01*
X131500000Y-130000000D02*
X134400000Y-130000000D01*
X137600000Y-130000000D02*
X140500000Y-130000000D01*
X137500000Y-140500000D02*
X140500000Y-140500000D01*
X140500000Y-140500000D02*
X140500000Y-130000000D01*
D13*
X137296263Y-138588576D02*
G75*
G03*
X136000000Y-133105000I-1296263J2588576D01*
G01*
X136000000Y-133104999D02*
G75*
G03*
X134703737Y-138588577I0J-2895001D01*
G01*
D14*
%TO.C,J4*%
X49900000Y-118500000D02*
X49900000Y-108000000D01*
X40900000Y-118500000D02*
X43900000Y-118500000D01*
X40900000Y-118500000D02*
X40900000Y-108000000D01*
X46900000Y-118500000D02*
X49900000Y-118500000D01*
X40900000Y-108000000D02*
X43800000Y-108000000D01*
X47000000Y-108000000D02*
X49900000Y-108000000D01*
D13*
X46696263Y-116588576D02*
G75*
G03*
X45400000Y-111105000I-1296263J2588576D01*
G01*
X45400000Y-111104999D02*
G75*
G03*
X44103737Y-116588577I0J-2895001D01*
G01*
D14*
%TO.C,J11*%
X137500000Y-96500000D02*
X140500000Y-96500000D01*
X131500000Y-96500000D02*
X131500000Y-86000000D01*
X131500000Y-96500000D02*
X134500000Y-96500000D01*
X137600000Y-86000000D02*
X140500000Y-86000000D01*
X140500000Y-96500000D02*
X140500000Y-86000000D01*
X131500000Y-86000000D02*
X134400000Y-86000000D01*
D13*
X137296263Y-94588576D02*
G75*
G03*
X136000000Y-89105000I-1296263J2588576D01*
G01*
X136000000Y-89104999D02*
G75*
G03*
X134703737Y-94588577I0J-2895001D01*
G01*
D14*
%TO.C,J1*%
X47000000Y-44000000D02*
X49900000Y-44000000D01*
X40900000Y-44000000D02*
X43800000Y-44000000D01*
X46900000Y-54500000D02*
X49900000Y-54500000D01*
X49900000Y-54500000D02*
X49900000Y-44000000D01*
X40900000Y-54500000D02*
X43900000Y-54500000D01*
X40900000Y-54500000D02*
X40900000Y-44000000D01*
D13*
X45400000Y-47104999D02*
G75*
G03*
X44103737Y-52588577I0J-2895001D01*
G01*
X46696263Y-52588576D02*
G75*
G03*
X45400000Y-47105000I-1296263J2588576D01*
G01*
%TO.C,U31*%
X122100000Y-84600000D02*
X122100000Y-78400000D01*
X122100000Y-78400000D02*
X113100000Y-78400000D01*
X112090000Y-79100000D02*
X112090000Y-84600000D01*
X112090000Y-79100000D02*
X113100000Y-78400000D01*
X112090000Y-84600000D02*
X122110000Y-84600000D01*
D14*
%TO.C,J8*%
X140500000Y-118500000D02*
X140500000Y-108000000D01*
X131500000Y-108000000D02*
X134400000Y-108000000D01*
X131500000Y-118500000D02*
X131500000Y-108000000D01*
X137600000Y-108000000D02*
X140500000Y-108000000D01*
X137500000Y-118500000D02*
X140500000Y-118500000D01*
X131500000Y-118500000D02*
X134500000Y-118500000D01*
D13*
X137296263Y-116588576D02*
G75*
G03*
X136000000Y-111105000I-1296263J2588576D01*
G01*
X136000000Y-111104999D02*
G75*
G03*
X134703737Y-116588577I0J-2895001D01*
G01*
%TD*%
M02*
