%TF.GenerationSoftware,KiCad,Pcbnew,(6.0.1)*%
%TF.CreationDate,2024-02-05T19:40:25-08:00*%
%TF.ProjectId,main,6d61696e-2e6b-4696-9361-645f70636258,1.0*%
%TF.SameCoordinates,Original*%
%TF.FileFunction,Paste,Bot*%
%TF.FilePolarity,Positive*%
%FSLAX46Y46*%
G04 Gerber Fmt 4.6, Leading zero omitted, Abs format (unit mm)*
G04 Created by KiCad (PCBNEW (6.0.1)) date 2024-02-05 19:40:25*
%MOMM*%
%LPD*%
G01*
G04 APERTURE LIST*
G04 Aperture macros list*
%AMRoundRect*
0 Rectangle with rounded corners*
0 $1 Rounding radius*
0 $2 $3 $4 $5 $6 $7 $8 $9 X,Y pos of 4 corners*
0 Add a 4 corners polygon primitive as box body*
4,1,4,$2,$3,$4,$5,$6,$7,$8,$9,$2,$3,0*
0 Add four circle primitives for the rounded corners*
1,1,$1+$1,$2,$3*
1,1,$1+$1,$4,$5*
1,1,$1+$1,$6,$7*
1,1,$1+$1,$8,$9*
0 Add four rect primitives between the rounded corners*
20,1,$1+$1,$2,$3,$4,$5,0*
20,1,$1+$1,$4,$5,$6,$7,0*
20,1,$1+$1,$6,$7,$8,$9,0*
20,1,$1+$1,$8,$9,$2,$3,0*%
G04 Aperture macros list end*
%ADD10R,1.200000X0.900000*%
%ADD11RoundRect,0.200000X-0.200000X-0.275000X0.200000X-0.275000X0.200000X0.275000X-0.200000X0.275000X0*%
%ADD12RoundRect,0.150000X0.825000X0.150000X-0.825000X0.150000X-0.825000X-0.150000X0.825000X-0.150000X0*%
%ADD13RoundRect,0.250000X0.450000X-0.350000X0.450000X0.350000X-0.450000X0.350000X-0.450000X-0.350000X0*%
%ADD14RoundRect,0.200000X0.200000X0.275000X-0.200000X0.275000X-0.200000X-0.275000X0.200000X-0.275000X0*%
%ADD15RoundRect,0.150000X-0.150000X0.587500X-0.150000X-0.587500X0.150000X-0.587500X0.150000X0.587500X0*%
%ADD16RoundRect,0.200000X-0.275000X0.200000X-0.275000X-0.200000X0.275000X-0.200000X0.275000X0.200000X0*%
%ADD17RoundRect,0.250000X-0.450000X0.350000X-0.450000X-0.350000X0.450000X-0.350000X0.450000X0.350000X0*%
%ADD18RoundRect,0.250000X-0.337500X-0.475000X0.337500X-0.475000X0.337500X0.475000X-0.337500X0.475000X0*%
%ADD19RoundRect,0.250000X-0.475000X0.337500X-0.475000X-0.337500X0.475000X-0.337500X0.475000X0.337500X0*%
%ADD20R,0.650000X0.400000*%
%ADD21R,1.000000X1.000000*%
%ADD22RoundRect,0.250000X0.475000X-0.337500X0.475000X0.337500X-0.475000X0.337500X-0.475000X-0.337500X0*%
%ADD23R,1.300000X1.600000*%
%ADD24R,2.000000X1.600000*%
%ADD25RoundRect,0.100000X0.637500X0.100000X-0.637500X0.100000X-0.637500X-0.100000X0.637500X-0.100000X0*%
%ADD26RoundRect,0.150000X-0.150000X0.825000X-0.150000X-0.825000X0.150000X-0.825000X0.150000X0.825000X0*%
%ADD27RoundRect,0.225000X0.250000X-0.225000X0.250000X0.225000X-0.250000X0.225000X-0.250000X-0.225000X0*%
%ADD28RoundRect,0.250000X-0.350000X-0.450000X0.350000X-0.450000X0.350000X0.450000X-0.350000X0.450000X0*%
%ADD29RoundRect,0.250000X0.337500X0.475000X-0.337500X0.475000X-0.337500X-0.475000X0.337500X-0.475000X0*%
%ADD30RoundRect,0.200000X0.275000X-0.200000X0.275000X0.200000X-0.275000X0.200000X-0.275000X-0.200000X0*%
%ADD31RoundRect,0.250000X0.550000X-1.500000X0.550000X1.500000X-0.550000X1.500000X-0.550000X-1.500000X0*%
%ADD32RoundRect,0.250000X0.350000X0.450000X-0.350000X0.450000X-0.350000X-0.450000X0.350000X-0.450000X0*%
%ADD33RoundRect,0.237500X0.300000X0.237500X-0.300000X0.237500X-0.300000X-0.237500X0.300000X-0.237500X0*%
%ADD34RoundRect,0.237500X-0.300000X-0.237500X0.300000X-0.237500X0.300000X0.237500X-0.300000X0.237500X0*%
%ADD35RoundRect,0.237500X-0.237500X0.300000X-0.237500X-0.300000X0.237500X-0.300000X0.237500X0.300000X0*%
%ADD36RoundRect,0.150000X0.587500X0.150000X-0.587500X0.150000X-0.587500X-0.150000X0.587500X-0.150000X0*%
%ADD37R,1.500000X2.000000*%
%ADD38R,3.800000X2.000000*%
%ADD39RoundRect,0.225000X-0.250000X0.225000X-0.250000X-0.225000X0.250000X-0.225000X0.250000X0.225000X0*%
%ADD40RoundRect,0.237500X0.237500X-0.300000X0.237500X0.300000X-0.237500X0.300000X-0.237500X-0.300000X0*%
%ADD41RoundRect,0.250000X-0.425000X0.450000X-0.425000X-0.450000X0.425000X-0.450000X0.425000X0.450000X0*%
%ADD42RoundRect,0.150000X0.150000X-0.825000X0.150000X0.825000X-0.150000X0.825000X-0.150000X-0.825000X0*%
%ADD43RoundRect,0.250000X-0.450000X-0.425000X0.450000X-0.425000X0.450000X0.425000X-0.450000X0.425000X0*%
%ADD44RoundRect,0.225000X-0.225000X-0.250000X0.225000X-0.250000X0.225000X0.250000X-0.225000X0.250000X0*%
%ADD45RoundRect,0.225000X0.225000X0.250000X-0.225000X0.250000X-0.225000X-0.250000X0.225000X-0.250000X0*%
%ADD46RoundRect,0.250000X-0.550000X1.500000X-0.550000X-1.500000X0.550000X-1.500000X0.550000X1.500000X0*%
%ADD47R,1.000000X3.150000*%
%ADD48R,2.000000X1.500000*%
%ADD49R,2.000000X3.800000*%
G04 APERTURE END LIST*
D10*
%TO.C,D15*%
X48150000Y-48550000D03*
X48150000Y-45250000D03*
%TD*%
D11*
%TO.C,R197*%
X76325000Y-109550000D03*
X77975000Y-109550000D03*
%TD*%
D12*
%TO.C,U3*%
X63400000Y-47270000D03*
X63400000Y-48540000D03*
X63400000Y-49810000D03*
X63400000Y-51080000D03*
X58450000Y-51080000D03*
X58450000Y-49810000D03*
X58450000Y-48540000D03*
X58450000Y-47270000D03*
%TD*%
D13*
%TO.C,R36*%
X47900000Y-66400000D03*
X47900000Y-64400000D03*
%TD*%
D14*
%TO.C,R142*%
X115125000Y-111200000D03*
X113475000Y-111200000D03*
%TD*%
D15*
%TO.C,Q2*%
X41175000Y-44162500D03*
X43075000Y-44162500D03*
X42125000Y-46037500D03*
%TD*%
D16*
%TO.C,R39*%
X41000000Y-123175000D03*
X41000000Y-124825000D03*
%TD*%
D17*
%TO.C,R82*%
X84900000Y-87150000D03*
X84900000Y-89150000D03*
%TD*%
%TO.C,R27*%
X55825000Y-53425000D03*
X55825000Y-55425000D03*
%TD*%
D12*
%TO.C,U27*%
X92475000Y-139555000D03*
X92475000Y-140825000D03*
X92475000Y-142095000D03*
X92475000Y-143365000D03*
X92475000Y-144635000D03*
X92475000Y-145905000D03*
X92475000Y-147175000D03*
X92475000Y-148445000D03*
X87525000Y-148445000D03*
X87525000Y-147175000D03*
X87525000Y-145905000D03*
X87525000Y-144635000D03*
X87525000Y-143365000D03*
X87525000Y-142095000D03*
X87525000Y-140825000D03*
X87525000Y-139555000D03*
%TD*%
D18*
%TO.C,C8*%
X57412500Y-41375000D03*
X59487500Y-41375000D03*
%TD*%
D19*
%TO.C,C28*%
X54550000Y-125162500D03*
X54550000Y-127237500D03*
%TD*%
D14*
%TO.C,R184*%
X78725000Y-103000000D03*
X77075000Y-103000000D03*
%TD*%
D11*
%TO.C,R103*%
X94525000Y-148900000D03*
X96175000Y-148900000D03*
%TD*%
D20*
%TO.C,U50*%
X78500000Y-78550000D03*
X78500000Y-79200000D03*
X78500000Y-79850000D03*
X76600000Y-79850000D03*
X76600000Y-78550000D03*
%TD*%
D21*
%TO.C,D14*%
X56125000Y-49250000D03*
X56125000Y-51750000D03*
%TD*%
D14*
%TO.C,R79*%
X96325000Y-125100000D03*
X94675000Y-125100000D03*
%TD*%
D16*
%TO.C,R30*%
X41050000Y-79375000D03*
X41050000Y-81025000D03*
%TD*%
D14*
%TO.C,R178*%
X79325000Y-94000000D03*
X77675000Y-94000000D03*
%TD*%
D11*
%TO.C,R78*%
X93225000Y-75100000D03*
X94875000Y-75100000D03*
%TD*%
D22*
%TO.C,C84*%
X100750000Y-98387500D03*
X100750000Y-96312500D03*
%TD*%
D11*
%TO.C,R73*%
X94675000Y-113700000D03*
X96325000Y-113700000D03*
%TD*%
D14*
%TO.C,R51*%
X83025000Y-109350000D03*
X81375000Y-109350000D03*
%TD*%
D23*
%TO.C,RV17*%
X100800000Y-108850000D03*
D24*
X99550000Y-105950000D03*
D23*
X98300000Y-108850000D03*
%TD*%
D11*
%TO.C,R189*%
X79075000Y-68950000D03*
X80725000Y-68950000D03*
%TD*%
D16*
%TO.C,R185*%
X96500000Y-131125000D03*
X96500000Y-132775000D03*
%TD*%
D23*
%TO.C,RV13*%
X98925000Y-85950000D03*
D24*
X97675000Y-83050000D03*
D23*
X96425000Y-85950000D03*
%TD*%
D25*
%TO.C,U25*%
X92862500Y-131725000D03*
X92862500Y-132375000D03*
X92862500Y-133025000D03*
X92862500Y-133675000D03*
X92862500Y-134325000D03*
X92862500Y-134975000D03*
X92862500Y-135625000D03*
X92862500Y-136275000D03*
X87137500Y-136275000D03*
X87137500Y-135625000D03*
X87137500Y-134975000D03*
X87137500Y-134325000D03*
X87137500Y-133675000D03*
X87137500Y-133025000D03*
X87137500Y-132375000D03*
X87137500Y-131725000D03*
%TD*%
D16*
%TO.C,R199*%
X81100000Y-115975000D03*
X81100000Y-117625000D03*
%TD*%
%TO.C,R32*%
X41100000Y-101400000D03*
X41100000Y-103050000D03*
%TD*%
D11*
%TO.C,R76*%
X94675000Y-119900000D03*
X96325000Y-119900000D03*
%TD*%
D26*
%TO.C,U41*%
X112605000Y-104225000D03*
X113875000Y-104225000D03*
X115145000Y-104225000D03*
X116415000Y-104225000D03*
X117685000Y-104225000D03*
X118955000Y-104225000D03*
X120225000Y-104225000D03*
X121495000Y-104225000D03*
X121495000Y-109175000D03*
X120225000Y-109175000D03*
X118955000Y-109175000D03*
X117685000Y-109175000D03*
X116415000Y-109175000D03*
X115145000Y-109175000D03*
X113875000Y-109175000D03*
X112605000Y-109175000D03*
%TD*%
D11*
%TO.C,R101*%
X82225000Y-102950000D03*
X83875000Y-102950000D03*
%TD*%
D18*
%TO.C,C105*%
X121012500Y-96900000D03*
X123087500Y-96900000D03*
%TD*%
D11*
%TO.C,R150*%
X109425000Y-109200000D03*
X111075000Y-109200000D03*
%TD*%
D21*
%TO.C,D30*%
X133950000Y-47250000D03*
X131450000Y-47250000D03*
%TD*%
D14*
%TO.C,R132*%
X115100000Y-90900000D03*
X113450000Y-90900000D03*
%TD*%
D27*
%TO.C,C131*%
X76200000Y-128725000D03*
X76200000Y-127175000D03*
%TD*%
D28*
%TO.C,R38*%
X46600000Y-106100000D03*
X48600000Y-106100000D03*
%TD*%
D12*
%TO.C,U28*%
X104475000Y-123095000D03*
X104475000Y-124365000D03*
X104475000Y-125635000D03*
X104475000Y-126905000D03*
X99525000Y-126905000D03*
X99525000Y-125635000D03*
X99525000Y-124365000D03*
X99525000Y-123095000D03*
%TD*%
D21*
%TO.C,D23*%
X127300000Y-88350000D03*
X129800000Y-88350000D03*
%TD*%
D29*
%TO.C,C107*%
X124887500Y-121100000D03*
X122812500Y-121100000D03*
%TD*%
D30*
%TO.C,R135*%
X123050000Y-83950000D03*
X123050000Y-82300000D03*
%TD*%
D21*
%TO.C,D9*%
X52050000Y-69050000D03*
X49550000Y-69050000D03*
%TD*%
D14*
%TO.C,R201*%
X81575000Y-81200000D03*
X79925000Y-81200000D03*
%TD*%
D23*
%TO.C,RV2*%
X41700000Y-82825000D03*
D24*
X42950000Y-85725000D03*
D23*
X44200000Y-82825000D03*
%TD*%
D29*
%TO.C,C36*%
X57375000Y-110050000D03*
X55300000Y-110050000D03*
%TD*%
D14*
%TO.C,R198*%
X74675000Y-116350000D03*
X73025000Y-116350000D03*
%TD*%
D29*
%TO.C,C12*%
X122337500Y-53500000D03*
X120262500Y-53500000D03*
%TD*%
D18*
%TO.C,C27*%
X50412500Y-106150000D03*
X52487500Y-106150000D03*
%TD*%
%TO.C,C57*%
X90762500Y-110800000D03*
X92837500Y-110800000D03*
%TD*%
D22*
%TO.C,C10*%
X72250000Y-55737500D03*
X72250000Y-53662500D03*
%TD*%
D31*
%TO.C,C1*%
X79850000Y-47900000D03*
X79850000Y-42500000D03*
%TD*%
D14*
%TO.C,R176*%
X78725000Y-101450000D03*
X77075000Y-101450000D03*
%TD*%
D12*
%TO.C,U10*%
X64475000Y-66055000D03*
X64475000Y-67325000D03*
X64475000Y-68595000D03*
X64475000Y-69865000D03*
X64475000Y-71135000D03*
X64475000Y-72405000D03*
X64475000Y-73675000D03*
X64475000Y-74945000D03*
X59525000Y-74945000D03*
X59525000Y-73675000D03*
X59525000Y-72405000D03*
X59525000Y-71135000D03*
X59525000Y-69865000D03*
X59525000Y-68595000D03*
X59525000Y-67325000D03*
X59525000Y-66055000D03*
%TD*%
D30*
%TO.C,R139*%
X116400000Y-80425000D03*
X116400000Y-78775000D03*
%TD*%
D16*
%TO.C,R10*%
X131650000Y-62075000D03*
X131650000Y-63725000D03*
%TD*%
D32*
%TO.C,R48*%
X135650000Y-128400000D03*
X133650000Y-128400000D03*
%TD*%
D33*
%TO.C,C124*%
X85162500Y-82750000D03*
X83437500Y-82750000D03*
%TD*%
D14*
%TO.C,R7*%
X120875000Y-62550000D03*
X119225000Y-62550000D03*
%TD*%
D30*
%TO.C,R156*%
X123050000Y-105675000D03*
X123050000Y-104025000D03*
%TD*%
D11*
%TO.C,R145*%
X116525000Y-145400000D03*
X118175000Y-145400000D03*
%TD*%
D34*
%TO.C,C75*%
X83437500Y-128150000D03*
X85162500Y-128150000D03*
%TD*%
D19*
%TO.C,C89*%
X116150000Y-137762500D03*
X116150000Y-139837500D03*
%TD*%
D11*
%TO.C,R102*%
X94525000Y-141100000D03*
X96175000Y-141100000D03*
%TD*%
D16*
%TO.C,R17*%
X118550000Y-52175000D03*
X118550000Y-53825000D03*
%TD*%
D14*
%TO.C,R160*%
X121025000Y-121300000D03*
X119375000Y-121300000D03*
%TD*%
D25*
%TO.C,U19*%
X92862500Y-104725000D03*
X92862500Y-105375000D03*
X92862500Y-106025000D03*
X92862500Y-106675000D03*
X92862500Y-107325000D03*
X92862500Y-107975000D03*
X92862500Y-108625000D03*
X92862500Y-109275000D03*
X87137500Y-109275000D03*
X87137500Y-108625000D03*
X87137500Y-107975000D03*
X87137500Y-107325000D03*
X87137500Y-106675000D03*
X87137500Y-106025000D03*
X87137500Y-105375000D03*
X87137500Y-104725000D03*
%TD*%
D21*
%TO.C,D8*%
X49550000Y-137050000D03*
X52050000Y-137050000D03*
%TD*%
D18*
%TO.C,C72*%
X90812500Y-90800000D03*
X92887500Y-90800000D03*
%TD*%
D30*
%TO.C,R29*%
X49900000Y-55075000D03*
X49900000Y-53425000D03*
%TD*%
D11*
%TO.C,R109*%
X83875000Y-126400000D03*
X85525000Y-126400000D03*
%TD*%
D35*
%TO.C,C52*%
X95550000Y-59537500D03*
X95550000Y-61262500D03*
%TD*%
D12*
%TO.C,U26*%
X92475000Y-92555000D03*
X92475000Y-93825000D03*
X92475000Y-95095000D03*
X92475000Y-96365000D03*
X92475000Y-97635000D03*
X92475000Y-98905000D03*
X92475000Y-100175000D03*
X92475000Y-101445000D03*
X87525000Y-101445000D03*
X87525000Y-100175000D03*
X87525000Y-98905000D03*
X87525000Y-97635000D03*
X87525000Y-96365000D03*
X87525000Y-95095000D03*
X87525000Y-93825000D03*
X87525000Y-92555000D03*
%TD*%
%TO.C,U17*%
X134475000Y-79495000D03*
X134475000Y-80765000D03*
X134475000Y-82035000D03*
X134475000Y-83305000D03*
X129525000Y-83305000D03*
X129525000Y-82035000D03*
X129525000Y-80765000D03*
X129525000Y-79495000D03*
%TD*%
D19*
%TO.C,C23*%
X54500000Y-61512500D03*
X54500000Y-63587500D03*
%TD*%
D14*
%TO.C,R70*%
X85425000Y-70350000D03*
X83775000Y-70350000D03*
%TD*%
D36*
%TO.C,Q3*%
X53762500Y-53375000D03*
X53762500Y-55275000D03*
X51887500Y-54325000D03*
%TD*%
D16*
%TO.C,R20*%
X120250000Y-50075000D03*
X120250000Y-51725000D03*
%TD*%
D29*
%TO.C,C106*%
X110937500Y-129600000D03*
X108862500Y-129600000D03*
%TD*%
D11*
%TO.C,R13*%
X57075000Y-57250000D03*
X58725000Y-57250000D03*
%TD*%
%TO.C,R65*%
X94675000Y-118350000D03*
X96325000Y-118350000D03*
%TD*%
D32*
%TO.C,R43*%
X132150000Y-74350000D03*
X130150000Y-74350000D03*
%TD*%
D16*
%TO.C,R188*%
X101450000Y-134475000D03*
X101450000Y-136125000D03*
%TD*%
D23*
%TO.C,RV4*%
X41700000Y-104850000D03*
D24*
X42950000Y-107750000D03*
D23*
X44200000Y-104850000D03*
%TD*%
D18*
%TO.C,C56*%
X90800000Y-62775000D03*
X92875000Y-62775000D03*
%TD*%
D14*
%TO.C,R64*%
X85375000Y-119900000D03*
X83725000Y-119900000D03*
%TD*%
D22*
%TO.C,C49*%
X126800000Y-123137500D03*
X126800000Y-121062500D03*
%TD*%
D30*
%TO.C,R173*%
X132800000Y-143475000D03*
X132800000Y-141825000D03*
%TD*%
D11*
%TO.C,R71*%
X82125000Y-75000000D03*
X83775000Y-75000000D03*
%TD*%
D29*
%TO.C,C67*%
X96737500Y-80950000D03*
X94662500Y-80950000D03*
%TD*%
D26*
%TO.C,U12*%
X65590000Y-78525000D03*
X66860000Y-78525000D03*
X68130000Y-78525000D03*
X69400000Y-78525000D03*
X70670000Y-78525000D03*
X71940000Y-78525000D03*
X73210000Y-78525000D03*
X73210000Y-83475000D03*
X71940000Y-83475000D03*
X70670000Y-83475000D03*
X69400000Y-83475000D03*
X68130000Y-83475000D03*
X66860000Y-83475000D03*
X65590000Y-83475000D03*
%TD*%
D14*
%TO.C,R138*%
X114925000Y-79450000D03*
X113275000Y-79450000D03*
%TD*%
D19*
%TO.C,C41*%
X116100000Y-92562500D03*
X116100000Y-94637500D03*
%TD*%
D20*
%TO.C,U44*%
X107400000Y-64000000D03*
X107400000Y-64650000D03*
X107400000Y-65300000D03*
X105500000Y-65300000D03*
X105500000Y-64000000D03*
%TD*%
D27*
%TO.C,C9*%
X105500000Y-62425000D03*
X105500000Y-60875000D03*
%TD*%
D11*
%TO.C,R134*%
X121075000Y-89350000D03*
X122725000Y-89350000D03*
%TD*%
D12*
%TO.C,U43*%
X130775000Y-134555000D03*
X130775000Y-135825000D03*
X130775000Y-137095000D03*
X130775000Y-138365000D03*
X130775000Y-139635000D03*
X130775000Y-140905000D03*
X130775000Y-142175000D03*
X130775000Y-143445000D03*
X125825000Y-143445000D03*
X125825000Y-142175000D03*
X125825000Y-140905000D03*
X125825000Y-139635000D03*
X125825000Y-138365000D03*
X125825000Y-137095000D03*
X125825000Y-135825000D03*
X125825000Y-134555000D03*
%TD*%
D22*
%TO.C,C15*%
X58500000Y-45512500D03*
X58500000Y-43437500D03*
%TD*%
D11*
%TO.C,R113*%
X106425000Y-124350000D03*
X108075000Y-124350000D03*
%TD*%
D28*
%TO.C,R41*%
X46650000Y-128000000D03*
X48650000Y-128000000D03*
%TD*%
D11*
%TO.C,R75*%
X94675000Y-112180000D03*
X96325000Y-112180000D03*
%TD*%
D29*
%TO.C,C20*%
X128512500Y-49075000D03*
X126437500Y-49075000D03*
%TD*%
D11*
%TO.C,R74*%
X94675000Y-121450000D03*
X96325000Y-121450000D03*
%TD*%
D30*
%TO.C,R19*%
X65850000Y-43925000D03*
X65850000Y-42275000D03*
%TD*%
D29*
%TO.C,C69*%
X96737500Y-128850000D03*
X94662500Y-128850000D03*
%TD*%
%TO.C,C87*%
X113437500Y-148900000D03*
X111362500Y-148900000D03*
%TD*%
D21*
%TO.C,D11*%
X52000000Y-113000000D03*
X49500000Y-113000000D03*
%TD*%
D34*
%TO.C,C115*%
X102237500Y-65300000D03*
X103962500Y-65300000D03*
%TD*%
D29*
%TO.C,C101*%
X101037500Y-138100000D03*
X98962500Y-138100000D03*
%TD*%
D11*
%TO.C,R110*%
X106425000Y-122800000D03*
X108075000Y-122800000D03*
%TD*%
D20*
%TO.C,U49*%
X77950000Y-124200000D03*
X77950000Y-124850000D03*
X77950000Y-125500000D03*
X76050000Y-125500000D03*
X76050000Y-124200000D03*
%TD*%
D21*
%TO.C,D19*%
X129900000Y-72300000D03*
X132400000Y-72300000D03*
%TD*%
D14*
%TO.C,R162*%
X120575000Y-101200000D03*
X118925000Y-101200000D03*
%TD*%
D30*
%TO.C,R177*%
X96550000Y-136025000D03*
X96550000Y-134375000D03*
%TD*%
D11*
%TO.C,R56*%
X94825000Y-67400000D03*
X96475000Y-67400000D03*
%TD*%
D37*
%TO.C,U4*%
X60825000Y-53875000D03*
X63125000Y-53875000D03*
D38*
X63125000Y-60175000D03*
D37*
X65425000Y-53875000D03*
%TD*%
D16*
%TO.C,R15*%
X131650000Y-58975000D03*
X131650000Y-60625000D03*
%TD*%
D12*
%TO.C,U33*%
X104475000Y-100095000D03*
X104475000Y-101365000D03*
X104475000Y-102635000D03*
X104475000Y-103905000D03*
X99525000Y-103905000D03*
X99525000Y-102635000D03*
X99525000Y-101365000D03*
X99525000Y-100095000D03*
%TD*%
D21*
%TO.C,D5*%
X52000000Y-91000000D03*
X49500000Y-91000000D03*
%TD*%
D14*
%TO.C,R106*%
X85525000Y-145350000D03*
X83875000Y-145350000D03*
%TD*%
D22*
%TO.C,C85*%
X104900000Y-108187500D03*
X104900000Y-106112500D03*
%TD*%
D32*
%TO.C,R21*%
X70250000Y-57625000D03*
X68250000Y-57625000D03*
%TD*%
D18*
%TO.C,C100*%
X98262500Y-132800000D03*
X100337500Y-132800000D03*
%TD*%
D11*
%TO.C,R124*%
X106425000Y-147600000D03*
X108075000Y-147600000D03*
%TD*%
D39*
%TO.C,C128*%
X75100000Y-81225000D03*
X75100000Y-82775000D03*
%TD*%
D29*
%TO.C,C3*%
X74862500Y-49925000D03*
X72787500Y-49925000D03*
%TD*%
D11*
%TO.C,R98*%
X94675000Y-92550000D03*
X96325000Y-92550000D03*
%TD*%
D29*
%TO.C,C31*%
X44762500Y-78625000D03*
X42687500Y-78625000D03*
%TD*%
D11*
%TO.C,R120*%
X101175000Y-142800000D03*
X102825000Y-142800000D03*
%TD*%
%TO.C,R91*%
X94525000Y-142650000D03*
X96175000Y-142650000D03*
%TD*%
D29*
%TO.C,C63*%
X84737500Y-96350000D03*
X82662500Y-96350000D03*
%TD*%
D30*
%TO.C,R1*%
X48000000Y-91025000D03*
X48000000Y-89375000D03*
%TD*%
D11*
%TO.C,R205*%
X79925000Y-78100000D03*
X81575000Y-78100000D03*
%TD*%
D30*
%TO.C,R169*%
X116800000Y-124475000D03*
X116800000Y-122825000D03*
%TD*%
D29*
%TO.C,C47*%
X127737500Y-118450000D03*
X125662500Y-118450000D03*
%TD*%
D14*
%TO.C,R131*%
X115125000Y-89350000D03*
X113475000Y-89350000D03*
%TD*%
D11*
%TO.C,R121*%
X102825000Y-98400000D03*
X104475000Y-98400000D03*
%TD*%
D40*
%TO.C,C123*%
X79500000Y-112512500D03*
X79500000Y-110787500D03*
%TD*%
D20*
%TO.C,U38*%
X77700000Y-89100000D03*
X77700000Y-89750000D03*
X77700000Y-90400000D03*
X75800000Y-90400000D03*
X75800000Y-89100000D03*
%TD*%
D11*
%TO.C,R87*%
X94675000Y-97200000D03*
X96325000Y-97200000D03*
%TD*%
D19*
%TO.C,C88*%
X116050000Y-114362500D03*
X116050000Y-116437500D03*
%TD*%
D21*
%TO.C,D18*%
X131800000Y-114300000D03*
X129300000Y-114300000D03*
%TD*%
D11*
%TO.C,R116*%
X106475000Y-78350000D03*
X108125000Y-78350000D03*
%TD*%
D16*
%TO.C,R194*%
X113700000Y-65225000D03*
X113700000Y-66875000D03*
%TD*%
D21*
%TO.C,D3*%
X108350000Y-50925000D03*
X110850000Y-50925000D03*
%TD*%
D30*
%TO.C,R171*%
X123050000Y-102675000D03*
X123050000Y-101025000D03*
%TD*%
D14*
%TO.C,R155*%
X132075000Y-147150000D03*
X130425000Y-147150000D03*
%TD*%
D28*
%TO.C,R85*%
X87100000Y-137800000D03*
X89100000Y-137800000D03*
%TD*%
D26*
%TO.C,U37*%
X112605000Y-82375000D03*
X113875000Y-82375000D03*
X115145000Y-82375000D03*
X116415000Y-82375000D03*
X117685000Y-82375000D03*
X118955000Y-82375000D03*
X120225000Y-82375000D03*
X121495000Y-82375000D03*
X121495000Y-87325000D03*
X120225000Y-87325000D03*
X118955000Y-87325000D03*
X117685000Y-87325000D03*
X116415000Y-87325000D03*
X115145000Y-87325000D03*
X113875000Y-87325000D03*
X112605000Y-87325000D03*
%TD*%
D11*
%TO.C,R126*%
X106425000Y-101400000D03*
X108075000Y-101400000D03*
%TD*%
D19*
%TO.C,C42*%
X123400000Y-85562500D03*
X123400000Y-87637500D03*
%TD*%
D30*
%TO.C,R2*%
X48050000Y-134925000D03*
X48050000Y-133275000D03*
%TD*%
D14*
%TO.C,R190*%
X58725000Y-58850000D03*
X57075000Y-58850000D03*
%TD*%
D11*
%TO.C,R203*%
X75475000Y-84300000D03*
X77125000Y-84300000D03*
%TD*%
D22*
%TO.C,C19*%
X131900000Y-57387500D03*
X131900000Y-55312500D03*
%TD*%
D33*
%TO.C,C51*%
X118262500Y-147000000D03*
X116537500Y-147000000D03*
%TD*%
D14*
%TO.C,R144*%
X115075000Y-133650000D03*
X113425000Y-133650000D03*
%TD*%
D29*
%TO.C,C102*%
X110887500Y-85900000D03*
X108812500Y-85900000D03*
%TD*%
D21*
%TO.C,D17*%
X129300000Y-116400000D03*
X131800000Y-116400000D03*
%TD*%
D29*
%TO.C,C59*%
X84837500Y-116350000D03*
X82762500Y-116350000D03*
%TD*%
D11*
%TO.C,R63*%
X94675000Y-116800000D03*
X96325000Y-116800000D03*
%TD*%
%TO.C,R117*%
X106475000Y-79900000D03*
X108125000Y-79900000D03*
%TD*%
D14*
%TO.C,R165*%
X115125000Y-101200000D03*
X113475000Y-101200000D03*
%TD*%
D11*
%TO.C,R26*%
X130200000Y-49325000D03*
X131850000Y-49325000D03*
%TD*%
D41*
%TO.C,C14*%
X68050000Y-59700000D03*
X68050000Y-62400000D03*
%TD*%
D32*
%TO.C,R47*%
X129550000Y-86300000D03*
X127550000Y-86300000D03*
%TD*%
D30*
%TO.C,R157*%
X123100000Y-128075000D03*
X123100000Y-126425000D03*
%TD*%
D42*
%TO.C,U13*%
X72810000Y-127475000D03*
X71540000Y-127475000D03*
X70270000Y-127475000D03*
X69000000Y-127475000D03*
X67730000Y-127475000D03*
X66460000Y-127475000D03*
X65190000Y-127475000D03*
X65190000Y-122525000D03*
X66460000Y-122525000D03*
X67730000Y-122525000D03*
X69000000Y-122525000D03*
X70270000Y-122525000D03*
X71540000Y-122525000D03*
X72810000Y-122525000D03*
%TD*%
D14*
%TO.C,R58*%
X85425000Y-71900000D03*
X83775000Y-71900000D03*
%TD*%
D20*
%TO.C,U51*%
X77950000Y-121300000D03*
X77950000Y-121950000D03*
X77950000Y-122600000D03*
X76050000Y-122600000D03*
X76050000Y-121300000D03*
%TD*%
%TO.C,U36*%
X77700000Y-67250000D03*
X77700000Y-67900000D03*
X77700000Y-68550000D03*
X75800000Y-68550000D03*
X75800000Y-67250000D03*
%TD*%
D30*
%TO.C,R202*%
X78950000Y-128725000D03*
X78950000Y-127075000D03*
%TD*%
D29*
%TO.C,C111*%
X78637500Y-96250000D03*
X76562500Y-96250000D03*
%TD*%
D11*
%TO.C,R206*%
X79925000Y-79650000D03*
X81575000Y-79650000D03*
%TD*%
D39*
%TO.C,C119*%
X79500000Y-107675000D03*
X79500000Y-109225000D03*
%TD*%
D33*
%TO.C,C65*%
X96762500Y-126850000D03*
X95037500Y-126850000D03*
%TD*%
D35*
%TO.C,C70*%
X95600000Y-88100000D03*
X95600000Y-89825000D03*
%TD*%
D30*
%TO.C,R209*%
X75100000Y-79775000D03*
X75100000Y-78125000D03*
%TD*%
%TO.C,R3*%
X48050000Y-70425000D03*
X48050000Y-68775000D03*
%TD*%
D19*
%TO.C,C92*%
X123300000Y-129712500D03*
X123300000Y-131787500D03*
%TD*%
D11*
%TO.C,R154*%
X126225000Y-128650000D03*
X127875000Y-128650000D03*
%TD*%
D20*
%TO.C,U46*%
X77950000Y-111150000D03*
X77950000Y-111800000D03*
X77950000Y-112450000D03*
X76050000Y-112450000D03*
X76050000Y-111150000D03*
%TD*%
D30*
%TO.C,R141*%
X113550000Y-115775000D03*
X113550000Y-114125000D03*
%TD*%
D21*
%TO.C,D20*%
X132350000Y-70200000D03*
X129850000Y-70200000D03*
%TD*%
D11*
%TO.C,R151*%
X109475000Y-131400000D03*
X111125000Y-131400000D03*
%TD*%
D19*
%TO.C,C44*%
X125500000Y-88362500D03*
X125500000Y-90437500D03*
%TD*%
D11*
%TO.C,R111*%
X103375000Y-75450000D03*
X105025000Y-75450000D03*
%TD*%
D29*
%TO.C,C113*%
X97237500Y-137750000D03*
X95162500Y-137750000D03*
%TD*%
%TO.C,C55*%
X85237500Y-67950000D03*
X83162500Y-67950000D03*
%TD*%
D11*
%TO.C,R179*%
X77075000Y-106150000D03*
X78725000Y-106150000D03*
%TD*%
D29*
%TO.C,C54*%
X85237500Y-56775000D03*
X83162500Y-56775000D03*
%TD*%
D32*
%TO.C,R40*%
X44700000Y-124400000D03*
X42700000Y-124400000D03*
%TD*%
D23*
%TO.C,RV9*%
X81850000Y-137700000D03*
D24*
X83100000Y-140600000D03*
D23*
X84350000Y-137700000D03*
%TD*%
D14*
%TO.C,R181*%
X81075000Y-70500000D03*
X79425000Y-70500000D03*
%TD*%
D28*
%TO.C,R34*%
X46650000Y-84250000D03*
X48650000Y-84250000D03*
%TD*%
D14*
%TO.C,R174*%
X80725000Y-67400000D03*
X79075000Y-67400000D03*
%TD*%
%TO.C,R8*%
X120875000Y-64100000D03*
X119225000Y-64100000D03*
%TD*%
D34*
%TO.C,C43*%
X111837500Y-117200000D03*
X113562500Y-117200000D03*
%TD*%
D25*
%TO.C,U18*%
X92862500Y-56725000D03*
X92862500Y-57375000D03*
X92862500Y-58025000D03*
X92862500Y-58675000D03*
X92862500Y-59325000D03*
X92862500Y-59975000D03*
X92862500Y-60625000D03*
X92862500Y-61275000D03*
X87137500Y-61275000D03*
X87137500Y-60625000D03*
X87137500Y-59975000D03*
X87137500Y-59325000D03*
X87137500Y-58675000D03*
X87137500Y-58025000D03*
X87137500Y-57375000D03*
X87137500Y-56725000D03*
%TD*%
D22*
%TO.C,C81*%
X104500000Y-84737500D03*
X104500000Y-82662500D03*
%TD*%
D39*
%TO.C,C130*%
X74600000Y-121475000D03*
X74600000Y-123025000D03*
%TD*%
D14*
%TO.C,R95*%
X85525000Y-148450000D03*
X83875000Y-148450000D03*
%TD*%
D18*
%TO.C,C98*%
X73862500Y-99650000D03*
X75937500Y-99650000D03*
%TD*%
D16*
%TO.C,R182*%
X79700000Y-64275000D03*
X79700000Y-65925000D03*
%TD*%
D39*
%TO.C,C118*%
X115200000Y-59975000D03*
X115200000Y-61525000D03*
%TD*%
D25*
%TO.C,U6*%
X52462500Y-78125000D03*
X52462500Y-78775000D03*
X52462500Y-79425000D03*
X52462500Y-80075000D03*
X52462500Y-80725000D03*
X52462500Y-81375000D03*
X52462500Y-82025000D03*
X52462500Y-82675000D03*
X46737500Y-82675000D03*
X46737500Y-82025000D03*
X46737500Y-81375000D03*
X46737500Y-80725000D03*
X46737500Y-80075000D03*
X46737500Y-79425000D03*
X46737500Y-78775000D03*
X46737500Y-78125000D03*
%TD*%
D14*
%TO.C,R175*%
X80725000Y-89100000D03*
X79075000Y-89100000D03*
%TD*%
D21*
%TO.C,D7*%
X52050000Y-134950000D03*
X49550000Y-134950000D03*
%TD*%
D19*
%TO.C,C7*%
X61350000Y-43387500D03*
X61350000Y-45462500D03*
%TD*%
D11*
%TO.C,R107*%
X83675000Y-124750000D03*
X85325000Y-124750000D03*
%TD*%
D14*
%TO.C,R100*%
X85525000Y-98300000D03*
X83875000Y-98300000D03*
%TD*%
D12*
%TO.C,U20*%
X92475000Y-64555000D03*
X92475000Y-65825000D03*
X92475000Y-67095000D03*
X92475000Y-68365000D03*
X92475000Y-69635000D03*
X92475000Y-70905000D03*
X92475000Y-72175000D03*
X92475000Y-73445000D03*
X87525000Y-73445000D03*
X87525000Y-72175000D03*
X87525000Y-70905000D03*
X87525000Y-69635000D03*
X87525000Y-68365000D03*
X87525000Y-67095000D03*
X87525000Y-65825000D03*
X87525000Y-64555000D03*
%TD*%
D14*
%TO.C,R93*%
X85525000Y-146900000D03*
X83875000Y-146900000D03*
%TD*%
D30*
%TO.C,R12*%
X66000000Y-51225000D03*
X66000000Y-49575000D03*
%TD*%
D16*
%TO.C,R191*%
X107400000Y-60825000D03*
X107400000Y-62475000D03*
%TD*%
D30*
%TO.C,R140*%
X123050000Y-80925000D03*
X123050000Y-79275000D03*
%TD*%
D29*
%TO.C,C82*%
X97387500Y-123200000D03*
X95312500Y-123200000D03*
%TD*%
D22*
%TO.C,C4*%
X122050000Y-57487500D03*
X122050000Y-55412500D03*
%TD*%
D29*
%TO.C,C66*%
X87437500Y-75250000D03*
X85362500Y-75250000D03*
%TD*%
D14*
%TO.C,R125*%
X108075000Y-146050000D03*
X106425000Y-146050000D03*
%TD*%
D22*
%TO.C,C11*%
X70125000Y-55762500D03*
X70125000Y-53687500D03*
%TD*%
D11*
%TO.C,R133*%
X109475000Y-87750000D03*
X111125000Y-87750000D03*
%TD*%
D17*
%TO.C,R44*%
X131550000Y-110300000D03*
X131550000Y-112300000D03*
%TD*%
D14*
%TO.C,R192*%
X104025000Y-63750000D03*
X102375000Y-63750000D03*
%TD*%
D43*
%TO.C,C6*%
X68125000Y-49975000D03*
X70825000Y-49975000D03*
%TD*%
D11*
%TO.C,R57*%
X94475000Y-68950000D03*
X96125000Y-68950000D03*
%TD*%
D26*
%TO.C,U42*%
X112605000Y-126425000D03*
X113875000Y-126425000D03*
X115145000Y-126425000D03*
X116415000Y-126425000D03*
X117685000Y-126425000D03*
X118955000Y-126425000D03*
X120225000Y-126425000D03*
X121495000Y-126425000D03*
X121495000Y-131375000D03*
X120225000Y-131375000D03*
X118955000Y-131375000D03*
X117685000Y-131375000D03*
X116415000Y-131375000D03*
X115145000Y-131375000D03*
X113875000Y-131375000D03*
X112605000Y-131375000D03*
%TD*%
D18*
%TO.C,C26*%
X50512500Y-64400000D03*
X52587500Y-64400000D03*
%TD*%
D11*
%TO.C,R97*%
X94675000Y-101850000D03*
X96325000Y-101850000D03*
%TD*%
%TO.C,R104*%
X94525000Y-139550000D03*
X96175000Y-139550000D03*
%TD*%
D23*
%TO.C,RV7*%
X81800000Y-111250000D03*
D24*
X83050000Y-114150000D03*
D23*
X84300000Y-111250000D03*
%TD*%
D13*
%TO.C,R18*%
X67925000Y-55725000D03*
X67925000Y-53725000D03*
%TD*%
D18*
%TO.C,C25*%
X50412500Y-84250000D03*
X52487500Y-84250000D03*
%TD*%
D21*
%TO.C,D22*%
X132050000Y-128400000D03*
X129550000Y-128400000D03*
%TD*%
D25*
%TO.C,U14*%
X52462500Y-121900000D03*
X52462500Y-122550000D03*
X52462500Y-123200000D03*
X52462500Y-123850000D03*
X52462500Y-124500000D03*
X52462500Y-125150000D03*
X52462500Y-125800000D03*
X52462500Y-126450000D03*
X46737500Y-126450000D03*
X46737500Y-125800000D03*
X46737500Y-125150000D03*
X46737500Y-124500000D03*
X46737500Y-123850000D03*
X46737500Y-123200000D03*
X46737500Y-122550000D03*
X46737500Y-121900000D03*
%TD*%
D11*
%TO.C,R208*%
X79375000Y-121050000D03*
X81025000Y-121050000D03*
%TD*%
D14*
%TO.C,R146*%
X123875000Y-137100000D03*
X122225000Y-137100000D03*
%TD*%
D11*
%TO.C,R96*%
X94675000Y-94100000D03*
X96325000Y-94100000D03*
%TD*%
%TO.C,R59*%
X94475000Y-70450000D03*
X96125000Y-70450000D03*
%TD*%
D22*
%TO.C,C18*%
X124500000Y-49237500D03*
X124500000Y-47162500D03*
%TD*%
D29*
%TO.C,C108*%
X121637500Y-139750000D03*
X119562500Y-139750000D03*
%TD*%
D21*
%TO.C,D4*%
X108350000Y-52925000D03*
X110850000Y-52925000D03*
%TD*%
D22*
%TO.C,C38*%
X63150000Y-82487500D03*
X63150000Y-80412500D03*
%TD*%
D12*
%TO.C,U1*%
X129575000Y-57895000D03*
X129575000Y-59165000D03*
X129575000Y-60435000D03*
X129575000Y-61705000D03*
X124625000Y-61705000D03*
X124625000Y-60435000D03*
X124625000Y-59165000D03*
X124625000Y-57895000D03*
%TD*%
D18*
%TO.C,C73*%
X90912500Y-137800000D03*
X92987500Y-137800000D03*
%TD*%
D29*
%TO.C,C33*%
X44762500Y-100550000D03*
X42687500Y-100550000D03*
%TD*%
D14*
%TO.C,R159*%
X120875000Y-99050000D03*
X119225000Y-99050000D03*
%TD*%
D16*
%TO.C,R136*%
X122750000Y-90825000D03*
X122750000Y-92475000D03*
%TD*%
D44*
%TO.C,C114*%
X105675000Y-66850000D03*
X107225000Y-66850000D03*
%TD*%
D23*
%TO.C,RV3*%
X41725000Y-61475000D03*
D24*
X42975000Y-64375000D03*
D23*
X44225000Y-61475000D03*
%TD*%
D11*
%TO.C,R67*%
X94475000Y-73450000D03*
X96125000Y-73450000D03*
%TD*%
%TO.C,R66*%
X94725000Y-65800000D03*
X96375000Y-65800000D03*
%TD*%
D14*
%TO.C,R147*%
X115125000Y-112700000D03*
X113475000Y-112700000D03*
%TD*%
D34*
%TO.C,C74*%
X83437500Y-80200000D03*
X85162500Y-80200000D03*
%TD*%
D14*
%TO.C,R60*%
X85425000Y-73450000D03*
X83775000Y-73450000D03*
%TD*%
D12*
%TO.C,U5*%
X129575000Y-50995000D03*
X129575000Y-52265000D03*
X129575000Y-53535000D03*
X129575000Y-54805000D03*
X124625000Y-54805000D03*
X124625000Y-53535000D03*
X124625000Y-52265000D03*
X124625000Y-50995000D03*
%TD*%
D29*
%TO.C,C45*%
X128287500Y-74350000D03*
X126212500Y-74350000D03*
%TD*%
D11*
%TO.C,R99*%
X94675000Y-100300000D03*
X96325000Y-100300000D03*
%TD*%
D30*
%TO.C,R143*%
X113500000Y-138475000D03*
X113500000Y-136825000D03*
%TD*%
D11*
%TO.C,R86*%
X94675000Y-95650000D03*
X96325000Y-95650000D03*
%TD*%
%TO.C,R127*%
X106425000Y-102900000D03*
X108075000Y-102900000D03*
%TD*%
D12*
%TO.C,U21*%
X92475000Y-112555000D03*
X92475000Y-113825000D03*
X92475000Y-115095000D03*
X92475000Y-116365000D03*
X92475000Y-117635000D03*
X92475000Y-118905000D03*
X92475000Y-120175000D03*
X92475000Y-121445000D03*
X87525000Y-121445000D03*
X87525000Y-120175000D03*
X87525000Y-118905000D03*
X87525000Y-117635000D03*
X87525000Y-116365000D03*
X87525000Y-115095000D03*
X87525000Y-113825000D03*
X87525000Y-112555000D03*
%TD*%
D14*
%TO.C,R50*%
X83300000Y-60825000D03*
X81650000Y-60825000D03*
%TD*%
D29*
%TO.C,C62*%
X85187500Y-131700000D03*
X83112500Y-131700000D03*
%TD*%
%TO.C,C34*%
X57337500Y-88050000D03*
X55262500Y-88050000D03*
%TD*%
D19*
%TO.C,C22*%
X54600000Y-80812500D03*
X54600000Y-82887500D03*
%TD*%
D33*
%TO.C,C126*%
X81762500Y-82750000D03*
X80037500Y-82750000D03*
%TD*%
D17*
%TO.C,R35*%
X43150000Y-57400000D03*
X43150000Y-59400000D03*
%TD*%
D19*
%TO.C,C24*%
X54550000Y-102712500D03*
X54550000Y-104787500D03*
%TD*%
D32*
%TO.C,R49*%
X133450000Y-86250000D03*
X131450000Y-86250000D03*
%TD*%
%TO.C,R42*%
X131550000Y-118450000D03*
X129550000Y-118450000D03*
%TD*%
D30*
%TO.C,R119*%
X101200000Y-84275000D03*
X101200000Y-82625000D03*
%TD*%
D19*
%TO.C,C112*%
X71500000Y-101262500D03*
X71500000Y-103337500D03*
%TD*%
D11*
%TO.C,R68*%
X94725000Y-64250000D03*
X96375000Y-64250000D03*
%TD*%
D16*
%TO.C,R118*%
X102350000Y-119675000D03*
X102350000Y-121325000D03*
%TD*%
D11*
%TO.C,R108*%
X83875000Y-78350000D03*
X85525000Y-78350000D03*
%TD*%
D17*
%TO.C,R84*%
X85100000Y-133650000D03*
X85100000Y-135650000D03*
%TD*%
D11*
%TO.C,R69*%
X94475000Y-71950000D03*
X96125000Y-71950000D03*
%TD*%
D14*
%TO.C,R72*%
X85375000Y-118350000D03*
X83725000Y-118350000D03*
%TD*%
D21*
%TO.C,D24*%
X129750000Y-90450000D03*
X127250000Y-90450000D03*
%TD*%
D28*
%TO.C,R55*%
X86900000Y-110800000D03*
X88900000Y-110800000D03*
%TD*%
D32*
%TO.C,R33*%
X44775000Y-80650000D03*
X42775000Y-80650000D03*
%TD*%
D30*
%TO.C,R4*%
X48000000Y-112975000D03*
X48000000Y-111325000D03*
%TD*%
D34*
%TO.C,C40*%
X110937500Y-95000000D03*
X112662500Y-95000000D03*
%TD*%
D18*
%TO.C,C30*%
X50412500Y-128000000D03*
X52487500Y-128000000D03*
%TD*%
D20*
%TO.C,U39*%
X75700000Y-101450000D03*
X75700000Y-102100000D03*
X75700000Y-102750000D03*
X73800000Y-102750000D03*
X73800000Y-101450000D03*
%TD*%
D35*
%TO.C,C53*%
X95050000Y-107687500D03*
X95050000Y-109412500D03*
%TD*%
D29*
%TO.C,C58*%
X85137500Y-84700000D03*
X83062500Y-84700000D03*
%TD*%
D14*
%TO.C,R81*%
X83050000Y-135750000D03*
X81400000Y-135750000D03*
%TD*%
%TO.C,R161*%
X136025000Y-144100000D03*
X134375000Y-144100000D03*
%TD*%
%TO.C,R187*%
X78725000Y-104600000D03*
X77075000Y-104600000D03*
%TD*%
D16*
%TO.C,R153*%
X125100000Y-107675000D03*
X125100000Y-109325000D03*
%TD*%
D35*
%TO.C,C71*%
X95000000Y-134187500D03*
X95000000Y-135912500D03*
%TD*%
D29*
%TO.C,C109*%
X121437500Y-118850000D03*
X119362500Y-118850000D03*
%TD*%
D16*
%TO.C,R128*%
X102750000Y-139175000D03*
X102750000Y-140825000D03*
%TD*%
D21*
%TO.C,D2*%
X80375000Y-50950000D03*
X82875000Y-50950000D03*
%TD*%
D16*
%TO.C,R167*%
X133050000Y-137050000D03*
X133050000Y-138700000D03*
%TD*%
D17*
%TO.C,R16*%
X65775000Y-45900000D03*
X65775000Y-47900000D03*
%TD*%
D29*
%TO.C,C61*%
X85337500Y-143150000D03*
X83262500Y-143150000D03*
%TD*%
D14*
%TO.C,R148*%
X115075000Y-135250000D03*
X113425000Y-135250000D03*
%TD*%
D20*
%TO.C,U45*%
X113700000Y-60850000D03*
X113700000Y-61500000D03*
X113700000Y-62150000D03*
X111800000Y-62150000D03*
X111800000Y-60850000D03*
%TD*%
D29*
%TO.C,C97*%
X79337500Y-92200000D03*
X77262500Y-92200000D03*
%TD*%
D14*
%TO.C,R163*%
X120475000Y-122900000D03*
X118825000Y-122900000D03*
%TD*%
D45*
%TO.C,C77*%
X74625000Y-111700000D03*
X73075000Y-111700000D03*
%TD*%
D18*
%TO.C,C94*%
X75912500Y-65100000D03*
X77987500Y-65100000D03*
%TD*%
D14*
%TO.C,R9*%
X54050000Y-46775000D03*
X52400000Y-46775000D03*
%TD*%
D12*
%TO.C,U11*%
X64475000Y-110055000D03*
X64475000Y-111325000D03*
X64475000Y-112595000D03*
X64475000Y-113865000D03*
X64475000Y-115135000D03*
X64475000Y-116405000D03*
X64475000Y-117675000D03*
X64475000Y-118945000D03*
X59525000Y-118945000D03*
X59525000Y-117675000D03*
X59525000Y-116405000D03*
X59525000Y-115135000D03*
X59525000Y-113865000D03*
X59525000Y-112595000D03*
X59525000Y-111325000D03*
X59525000Y-110055000D03*
%TD*%
D11*
%TO.C,R89*%
X94675000Y-98750000D03*
X96325000Y-98750000D03*
%TD*%
D22*
%TO.C,C48*%
X126950000Y-79487500D03*
X126950000Y-77412500D03*
%TD*%
D14*
%TO.C,R23*%
X127925000Y-47150000D03*
X126275000Y-47150000D03*
%TD*%
D46*
%TO.C,C2*%
X111375000Y-42450000D03*
X111375000Y-47850000D03*
%TD*%
D22*
%TO.C,C17*%
X131875000Y-53525000D03*
X131875000Y-51450000D03*
%TD*%
D14*
%TO.C,R114*%
X108075000Y-125900000D03*
X106425000Y-125900000D03*
%TD*%
D23*
%TO.C,RV8*%
X81700000Y-91150000D03*
D24*
X82950000Y-94050000D03*
D23*
X84200000Y-91150000D03*
%TD*%
D12*
%TO.C,U16*%
X134475000Y-122745000D03*
X134475000Y-124015000D03*
X134475000Y-125285000D03*
X134475000Y-126555000D03*
X129525000Y-126555000D03*
X129525000Y-125285000D03*
X129525000Y-124015000D03*
X129525000Y-122745000D03*
%TD*%
D18*
%TO.C,C95*%
X75812500Y-70750000D03*
X77887500Y-70750000D03*
%TD*%
D14*
%TO.C,R90*%
X85525000Y-101400000D03*
X83875000Y-101400000D03*
%TD*%
D30*
%TO.C,R168*%
X116600000Y-102325000D03*
X116600000Y-100675000D03*
%TD*%
D29*
%TO.C,C60*%
X84887500Y-104750000D03*
X82812500Y-104750000D03*
%TD*%
D21*
%TO.C,D12*%
X49500000Y-115050000D03*
X52000000Y-115050000D03*
%TD*%
%TO.C,D6*%
X49500000Y-93050000D03*
X52000000Y-93050000D03*
%TD*%
D19*
%TO.C,C39*%
X63350000Y-123962500D03*
X63350000Y-126037500D03*
%TD*%
D33*
%TO.C,C125*%
X82262500Y-126400000D03*
X80537500Y-126400000D03*
%TD*%
D11*
%TO.C,R170*%
X132675000Y-140150000D03*
X134325000Y-140150000D03*
%TD*%
D28*
%TO.C,R28*%
X133950000Y-43050000D03*
X135950000Y-43050000D03*
%TD*%
D32*
%TO.C,R37*%
X44750000Y-102550000D03*
X42750000Y-102550000D03*
%TD*%
D25*
%TO.C,U8*%
X52462500Y-100050000D03*
X52462500Y-100700000D03*
X52462500Y-101350000D03*
X52462500Y-102000000D03*
X52462500Y-102650000D03*
X52462500Y-103300000D03*
X52462500Y-103950000D03*
X52462500Y-104600000D03*
X46737500Y-104600000D03*
X46737500Y-103950000D03*
X46737500Y-103300000D03*
X46737500Y-102650000D03*
X46737500Y-102000000D03*
X46737500Y-101350000D03*
X46737500Y-100700000D03*
X46737500Y-100050000D03*
%TD*%
D14*
%TO.C,R193*%
X113700000Y-63750000D03*
X112050000Y-63750000D03*
%TD*%
D13*
%TO.C,R46*%
X136750000Y-126450000D03*
X136750000Y-124450000D03*
%TD*%
D28*
%TO.C,R53*%
X87000000Y-62775000D03*
X89000000Y-62775000D03*
%TD*%
D18*
%TO.C,C5*%
X127762500Y-63650000D03*
X129837500Y-63650000D03*
%TD*%
D16*
%TO.C,R204*%
X74600000Y-124475000D03*
X74600000Y-126125000D03*
%TD*%
D29*
%TO.C,C90*%
X123587500Y-143300000D03*
X121512500Y-143300000D03*
%TD*%
D40*
%TO.C,C122*%
X79500000Y-115900000D03*
X79500000Y-114175000D03*
%TD*%
D12*
%TO.C,U32*%
X104475000Y-144520000D03*
X104475000Y-145790000D03*
X104475000Y-147060000D03*
X104475000Y-148330000D03*
X99525000Y-148330000D03*
X99525000Y-147060000D03*
X99525000Y-145790000D03*
X99525000Y-144520000D03*
%TD*%
D22*
%TO.C,C80*%
X99500000Y-75337500D03*
X99500000Y-73262500D03*
%TD*%
D11*
%TO.C,R25*%
X47575000Y-76750000D03*
X49225000Y-76750000D03*
%TD*%
%TO.C,R158*%
X131300000Y-145000000D03*
X132950000Y-145000000D03*
%TD*%
D30*
%TO.C,R80*%
X83050000Y-88625000D03*
X83050000Y-86975000D03*
%TD*%
D17*
%TO.C,R54*%
X84750000Y-107250000D03*
X84750000Y-109250000D03*
%TD*%
D20*
%TO.C,U48*%
X78500000Y-81450000D03*
X78500000Y-82100000D03*
X78500000Y-82750000D03*
X76600000Y-82750000D03*
X76600000Y-81450000D03*
%TD*%
D19*
%TO.C,C103*%
X120400000Y-75062500D03*
X120400000Y-77137500D03*
%TD*%
D14*
%TO.C,R137*%
X121625000Y-80300000D03*
X119975000Y-80300000D03*
%TD*%
D20*
%TO.C,U47*%
X77950000Y-114100000D03*
X77950000Y-114750000D03*
X77950000Y-115400000D03*
X76050000Y-115400000D03*
X76050000Y-114100000D03*
%TD*%
D11*
%TO.C,R115*%
X106425000Y-127450000D03*
X108075000Y-127450000D03*
%TD*%
D12*
%TO.C,U29*%
X104475000Y-77095000D03*
X104475000Y-78365000D03*
X104475000Y-79635000D03*
X104475000Y-80905000D03*
X99525000Y-80905000D03*
X99525000Y-79635000D03*
X99525000Y-78365000D03*
X99525000Y-77095000D03*
%TD*%
D34*
%TO.C,C64*%
X94837500Y-78950000D03*
X96562500Y-78950000D03*
%TD*%
D28*
%TO.C,R22*%
X61300000Y-41350000D03*
X63300000Y-41350000D03*
%TD*%
D14*
%TO.C,R112*%
X108125000Y-81450000D03*
X106475000Y-81450000D03*
%TD*%
D18*
%TO.C,C68*%
X87712500Y-123200000D03*
X89787500Y-123200000D03*
%TD*%
D14*
%TO.C,R122*%
X108075000Y-104450000D03*
X106425000Y-104450000D03*
%TD*%
D29*
%TO.C,C37*%
X57337500Y-132050000D03*
X55262500Y-132050000D03*
%TD*%
D20*
%TO.C,U40*%
X99950000Y-134650000D03*
X99950000Y-135300000D03*
X99950000Y-135950000D03*
X98050000Y-135950000D03*
X98050000Y-134650000D03*
%TD*%
D18*
%TO.C,C99*%
X73412500Y-104600000D03*
X75487500Y-104600000D03*
%TD*%
D30*
%TO.C,R195*%
X110300000Y-62125000D03*
X110300000Y-60475000D03*
%TD*%
D14*
%TO.C,R5*%
X120875000Y-59200000D03*
X119225000Y-59200000D03*
%TD*%
D29*
%TO.C,C93*%
X128787500Y-147100000D03*
X126712500Y-147100000D03*
%TD*%
D45*
%TO.C,C129*%
X80075000Y-84300000D03*
X78525000Y-84300000D03*
%TD*%
D34*
%TO.C,C50*%
X111737500Y-139950000D03*
X113462500Y-139950000D03*
%TD*%
D22*
%TO.C,C86*%
X98800000Y-142787500D03*
X98800000Y-140712500D03*
%TD*%
D25*
%TO.C,U24*%
X92862500Y-84725000D03*
X92862500Y-85375000D03*
X92862500Y-86025000D03*
X92862500Y-86675000D03*
X92862500Y-87325000D03*
X92862500Y-87975000D03*
X92862500Y-88625000D03*
X92862500Y-89275000D03*
X87137500Y-89275000D03*
X87137500Y-88625000D03*
X87137500Y-87975000D03*
X87137500Y-87325000D03*
X87137500Y-86675000D03*
X87137500Y-86025000D03*
X87137500Y-85375000D03*
X87137500Y-84725000D03*
%TD*%
D23*
%TO.C,RV12*%
X104550000Y-118050000D03*
D24*
X105800000Y-120950000D03*
D23*
X107050000Y-118050000D03*
%TD*%
D12*
%TO.C,U9*%
X64475000Y-88055000D03*
X64475000Y-89325000D03*
X64475000Y-90595000D03*
X64475000Y-91865000D03*
X64475000Y-93135000D03*
X64475000Y-94405000D03*
X64475000Y-95675000D03*
X64475000Y-96945000D03*
X59525000Y-96945000D03*
X59525000Y-95675000D03*
X59525000Y-94405000D03*
X59525000Y-93135000D03*
X59525000Y-91865000D03*
X59525000Y-90595000D03*
X59525000Y-89325000D03*
X59525000Y-88055000D03*
%TD*%
D16*
%TO.C,R31*%
X41150000Y-57975000D03*
X41150000Y-59625000D03*
%TD*%
%TO.C,R196*%
X75600000Y-106375000D03*
X75600000Y-108025000D03*
%TD*%
D11*
%TO.C,R105*%
X94525000Y-147350000D03*
X96175000Y-147350000D03*
%TD*%
D14*
%TO.C,R200*%
X77725000Y-116950000D03*
X76075000Y-116950000D03*
%TD*%
D29*
%TO.C,C35*%
X44737500Y-122400000D03*
X42662500Y-122400000D03*
%TD*%
D33*
%TO.C,C127*%
X82200000Y-124750000D03*
X80475000Y-124750000D03*
%TD*%
D21*
%TO.C,D13*%
X56125000Y-45200000D03*
X56125000Y-47700000D03*
%TD*%
D40*
%TO.C,C116*%
X109000000Y-65662500D03*
X109000000Y-63937500D03*
%TD*%
D29*
%TO.C,C110*%
X77900000Y-72850000D03*
X75825000Y-72850000D03*
%TD*%
D22*
%TO.C,C83*%
X104450000Y-130787500D03*
X104450000Y-128712500D03*
%TD*%
D28*
%TO.C,R83*%
X87000000Y-90800000D03*
X89000000Y-90800000D03*
%TD*%
D19*
%TO.C,C91*%
X123300000Y-107262500D03*
X123300000Y-109337500D03*
%TD*%
D21*
%TO.C,D21*%
X139850000Y-128400000D03*
X137350000Y-128400000D03*
%TD*%
D29*
%TO.C,C29*%
X43212500Y-55425000D03*
X41137500Y-55425000D03*
%TD*%
D12*
%TO.C,U23*%
X92475000Y-125095000D03*
X92475000Y-126365000D03*
X92475000Y-127635000D03*
X92475000Y-128905000D03*
X87525000Y-128905000D03*
X87525000Y-127635000D03*
X87525000Y-126365000D03*
X87525000Y-125095000D03*
%TD*%
D17*
%TO.C,R52*%
X85100000Y-58725000D03*
X85100000Y-60725000D03*
%TD*%
D25*
%TO.C,U7*%
X52462500Y-58250000D03*
X52462500Y-58900000D03*
X52462500Y-59550000D03*
X52462500Y-60200000D03*
X52462500Y-60850000D03*
X52462500Y-61500000D03*
X52462500Y-62150000D03*
X52462500Y-62800000D03*
X46737500Y-62800000D03*
X46737500Y-62150000D03*
X46737500Y-61500000D03*
X46737500Y-60850000D03*
X46737500Y-60200000D03*
X46737500Y-59550000D03*
X46737500Y-58900000D03*
X46737500Y-58250000D03*
%TD*%
D11*
%TO.C,R62*%
X94675000Y-115250000D03*
X96325000Y-115250000D03*
%TD*%
%TO.C,R152*%
X129125000Y-132950000D03*
X130775000Y-132950000D03*
%TD*%
D14*
%TO.C,R88*%
X85525000Y-99850000D03*
X83875000Y-99850000D03*
%TD*%
D16*
%TO.C,R14*%
X122450000Y-59125000D03*
X122450000Y-60775000D03*
%TD*%
D23*
%TO.C,RV5*%
X41700000Y-126700000D03*
D24*
X42950000Y-129600000D03*
D23*
X44200000Y-126700000D03*
%TD*%
D18*
%TO.C,C96*%
X75812500Y-87300000D03*
X77887500Y-87300000D03*
%TD*%
D22*
%TO.C,C16*%
X58375000Y-54937500D03*
X58375000Y-52862500D03*
%TD*%
D23*
%TO.C,RV6*%
X82150000Y-62650000D03*
D24*
X83400000Y-65550000D03*
D23*
X84650000Y-62650000D03*
%TD*%
D12*
%TO.C,U22*%
X92475000Y-77095000D03*
X92475000Y-78365000D03*
X92475000Y-79635000D03*
X92475000Y-80905000D03*
X87525000Y-80905000D03*
X87525000Y-79635000D03*
X87525000Y-78365000D03*
X87525000Y-77095000D03*
%TD*%
D30*
%TO.C,R130*%
X114250000Y-94025000D03*
X114250000Y-92375000D03*
%TD*%
D11*
%TO.C,R207*%
X79350000Y-122600000D03*
X81000000Y-122600000D03*
%TD*%
D17*
%TO.C,R45*%
X132050000Y-66300000D03*
X132050000Y-68300000D03*
%TD*%
D13*
%TO.C,R11*%
X63400000Y-45425000D03*
X63400000Y-43425000D03*
%TD*%
D30*
%TO.C,R172*%
X123100000Y-125075000D03*
X123100000Y-123425000D03*
%TD*%
D14*
%TO.C,R61*%
X85375000Y-121450000D03*
X83725000Y-121450000D03*
%TD*%
D47*
%TO.C,J6*%
X101680000Y-48750000D03*
X101680000Y-43700000D03*
X99140000Y-48750000D03*
X99140000Y-43700000D03*
X96600000Y-48750000D03*
X96600000Y-43700000D03*
X94060000Y-48750000D03*
X94060000Y-43700000D03*
X91520000Y-48750000D03*
X91520000Y-43700000D03*
%TD*%
D11*
%TO.C,R77*%
X83675000Y-123000000D03*
X85325000Y-123000000D03*
%TD*%
%TO.C,R123*%
X106425000Y-144500000D03*
X108075000Y-144500000D03*
%TD*%
D21*
%TO.C,D10*%
X49550000Y-71075000D03*
X52050000Y-71075000D03*
%TD*%
%TO.C,D29*%
X131450000Y-45250000D03*
X133950000Y-45250000D03*
%TD*%
D30*
%TO.C,R149*%
X123300000Y-140375000D03*
X123300000Y-138725000D03*
%TD*%
D14*
%TO.C,R186*%
X74400000Y-89750000D03*
X72750000Y-89750000D03*
%TD*%
D40*
%TO.C,C13*%
X122200000Y-51362500D03*
X122200000Y-49637500D03*
%TD*%
D19*
%TO.C,C46*%
X138800000Y-124412500D03*
X138800000Y-126487500D03*
%TD*%
D48*
%TO.C,U2*%
X74450000Y-42900000D03*
D49*
X68150000Y-45200000D03*
D48*
X74450000Y-45200000D03*
X74450000Y-47500000D03*
%TD*%
D16*
%TO.C,R180*%
X102550000Y-131125000D03*
X102550000Y-132775000D03*
%TD*%
D13*
%TO.C,R24*%
X42800000Y-52600000D03*
X42800000Y-50600000D03*
%TD*%
D19*
%TO.C,C104*%
X122750000Y-111362500D03*
X122750000Y-113437500D03*
%TD*%
D11*
%TO.C,R210*%
X76275000Y-119700000D03*
X77925000Y-119700000D03*
%TD*%
%TO.C,R92*%
X94525000Y-144200000D03*
X96175000Y-144200000D03*
%TD*%
D30*
%TO.C,R129*%
X103100000Y-107225000D03*
X103100000Y-105575000D03*
%TD*%
D12*
%TO.C,U15*%
X64475000Y-132055000D03*
X64475000Y-133325000D03*
X64475000Y-134595000D03*
X64475000Y-135865000D03*
X64475000Y-137135000D03*
X64475000Y-138405000D03*
X64475000Y-139675000D03*
X64475000Y-140945000D03*
X59525000Y-140945000D03*
X59525000Y-139675000D03*
X59525000Y-138405000D03*
X59525000Y-137135000D03*
X59525000Y-135865000D03*
X59525000Y-134595000D03*
X59525000Y-133325000D03*
X59525000Y-132055000D03*
%TD*%
D14*
%TO.C,R166*%
X115275000Y-123550000D03*
X113625000Y-123550000D03*
%TD*%
D11*
%TO.C,R183*%
X79475000Y-87450000D03*
X81125000Y-87450000D03*
%TD*%
D16*
%TO.C,R164*%
X133050000Y-133975000D03*
X133050000Y-135625000D03*
%TD*%
D23*
%TO.C,RV16*%
X105000000Y-139550000D03*
D24*
X106250000Y-142450000D03*
D23*
X107500000Y-139550000D03*
%TD*%
D14*
%TO.C,R6*%
X120875000Y-60950000D03*
X119225000Y-60950000D03*
%TD*%
D21*
%TO.C,D1*%
X80375000Y-52950000D03*
X82875000Y-52950000D03*
%TD*%
D11*
%TO.C,R94*%
X94525000Y-145750000D03*
X96175000Y-145750000D03*
%TD*%
D27*
%TO.C,C117*%
X111800000Y-59225000D03*
X111800000Y-57675000D03*
%TD*%
D29*
%TO.C,C32*%
X57287500Y-66050000D03*
X55212500Y-66050000D03*
%TD*%
M02*
