%TF.GenerationSoftware,KiCad,Pcbnew,(6.0.1)*%
%TF.CreationDate,2024-01-19T18:32:36-08:00*%
%TF.ProjectId,main,6d61696e-2e6b-4696-9361-645f70636258,rev?*%
%TF.SameCoordinates,Original*%
%TF.FileFunction,Copper,L3,Inr*%
%TF.FilePolarity,Positive*%
%FSLAX46Y46*%
G04 Gerber Fmt 4.6, Leading zero omitted, Abs format (unit mm)*
G04 Created by KiCad (PCBNEW (6.0.1)) date 2024-01-19 18:32:36*
%MOMM*%
%LPD*%
G01*
G04 APERTURE LIST*
G04 Aperture macros list*
%AMRoundRect*
0 Rectangle with rounded corners*
0 $1 Rounding radius*
0 $2 $3 $4 $5 $6 $7 $8 $9 X,Y pos of 4 corners*
0 Add a 4 corners polygon primitive as box body*
4,1,4,$2,$3,$4,$5,$6,$7,$8,$9,$2,$3,0*
0 Add four circle primitives for the rounded corners*
1,1,$1+$1,$2,$3*
1,1,$1+$1,$4,$5*
1,1,$1+$1,$6,$7*
1,1,$1+$1,$8,$9*
0 Add four rect primitives between the rounded corners*
20,1,$1+$1,$2,$3,$4,$5,0*
20,1,$1+$1,$4,$5,$6,$7,0*
20,1,$1+$1,$6,$7,$8,$9,0*
20,1,$1+$1,$8,$9,$2,$3,0*%
%AMHorizOval*
0 Thick line with rounded ends*
0 $1 width*
0 $2 $3 position (X,Y) of the first rounded end (center of the circle)*
0 $4 $5 position (X,Y) of the second rounded end (center of the circle)*
0 Add line between two ends*
20,1,$1,$2,$3,$4,$5,0*
0 Add two circle primitives to create the rounded ends*
1,1,$1,$2,$3*
1,1,$1,$4,$5*%
G04 Aperture macros list end*
%TA.AperFunction,ComponentPad*%
%ADD10R,2.850000X2.850000*%
%TD*%
%TA.AperFunction,ComponentPad*%
%ADD11C,2.850000*%
%TD*%
%TA.AperFunction,ComponentPad*%
%ADD12RoundRect,0.287500X-0.287500X-0.287500X0.287500X-0.287500X0.287500X0.287500X-0.287500X0.287500X0*%
%TD*%
%TA.AperFunction,ComponentPad*%
%ADD13C,1.150000*%
%TD*%
%TA.AperFunction,WasherPad*%
%ADD14C,4.000000*%
%TD*%
%TA.AperFunction,ComponentPad*%
%ADD15C,1.800000*%
%TD*%
%TA.AperFunction,ComponentPad*%
%ADD16R,1.900000X1.900000*%
%TD*%
%TA.AperFunction,ComponentPad*%
%ADD17HorizOval,1.900000X0.000000X0.000000X0.000000X0.000000X0*%
%TD*%
%TA.AperFunction,ComponentPad*%
%ADD18R,1.800000X1.800000*%
%TD*%
%TA.AperFunction,ComponentPad*%
%ADD19O,2.200000X1.200000*%
%TD*%
%TA.AperFunction,ComponentPad*%
%ADD20RoundRect,0.300000X-0.700000X-0.300000X0.700000X-0.300000X0.700000X0.300000X-0.700000X0.300000X0*%
%TD*%
%TA.AperFunction,ComponentPad*%
%ADD21RoundRect,0.287500X-0.287500X0.287500X-0.287500X-0.287500X0.287500X-0.287500X0.287500X0.287500X0*%
%TD*%
%TA.AperFunction,ComponentPad*%
%ADD22C,2.800000*%
%TD*%
%TA.AperFunction,ViaPad*%
%ADD23C,0.450000*%
%TD*%
%TA.AperFunction,ViaPad*%
%ADD24C,0.600000*%
%TD*%
%TA.AperFunction,ViaPad*%
%ADD25C,0.400000*%
%TD*%
%TA.AperFunction,ViaPad*%
%ADD26C,0.800000*%
%TD*%
%TA.AperFunction,Conductor*%
%ADD27C,0.200000*%
%TD*%
%TA.AperFunction,Conductor*%
%ADD28C,0.400000*%
%TD*%
%TA.AperFunction,Conductor*%
%ADD29C,0.120000*%
%TD*%
%TA.AperFunction,Conductor*%
%ADD30C,0.600000*%
%TD*%
G04 APERTURE END LIST*
D10*
%TO.N,F4{slash}1*%
%TO.C,SW7*%
X73300000Y-140700000D03*
D11*
%TO.N,F4*%
X73300000Y-136000000D03*
%TO.N,Net-(SW7-Pad3)*%
X73300000Y-131300000D03*
%TD*%
D12*
%TO.N,Net-(R126-Pad1)*%
%TO.C,U35*%
X109600000Y-101750000D03*
D13*
%TO.N,Net-(D28-Pad1)*%
X109600000Y-105550000D03*
%TO.N,Net-(R129-Pad2)*%
X124600000Y-101750000D03*
%TO.N,Net-(C79-Pad2)*%
X124600000Y-105550000D03*
%TD*%
D14*
%TO.N,*%
%TO.C,RV10*%
X119400000Y-70000000D03*
D15*
%TO.N,+9V*%
X117500000Y-77000000D03*
%TO.N,Net-(R117-Pad2)*%
X115000000Y-77000000D03*
%TO.N,GND*%
X112500000Y-77000000D03*
%TD*%
D10*
%TO.N,F1{slash}1*%
%TO.C,SW4*%
X73300000Y-74700000D03*
D11*
%TO.N,F1*%
X73300000Y-70000000D03*
%TO.N,Net-(SW4-Pad3)*%
X73300000Y-65300000D03*
%TD*%
D16*
%TO.N,Net-(SW2-Pad1)*%
%TO.C,SW2*%
X56838533Y-77391036D03*
D17*
%TO.N,Net-(SW2-Pad2)*%
X52508964Y-73061467D03*
%TO.N,Net-(SW2-Pad3)*%
X52508964Y-66938533D03*
%TO.N,Net-(SW2-Pad4)*%
X56838533Y-62608964D03*
%TO.N,Net-(SW2-Pad5)*%
X62961467Y-62608964D03*
%TO.N,Net-(SW2-Pad6)*%
X67291036Y-66938533D03*
%TO.N,Net-(SW2-Pad7)*%
X67291036Y-73061467D03*
%TO.N,Net-(SW2-Pad8)*%
X62961467Y-77391036D03*
%TO.N,R1*%
X57250000Y-70000000D03*
%TD*%
D14*
%TO.N,*%
%TO.C,RV11*%
X110600000Y-114000000D03*
X119400000Y-114000000D03*
D15*
%TO.N,+9V*%
X117500000Y-121000000D03*
%TO.N,Net-(R114-Pad2)*%
X115000000Y-121000000D03*
%TO.N,GND*%
X112500000Y-121000000D03*
%TD*%
D18*
%TO.N,Net-(D16-Pad1)*%
%TO.C,D16*%
X52800000Y-51100000D03*
D15*
%TO.N,+9V*%
X52800000Y-48560000D03*
%TD*%
D19*
%TO.N,GND*%
%TO.C,J2*%
X45400000Y-76480000D03*
D20*
%TO.N,Net-(J2-PadT)*%
X45400000Y-65080000D03*
%TO.N,GND*%
X45400000Y-73380000D03*
%TD*%
D18*
%TO.N,Net-(D26-Pad1)*%
%TO.C,D26*%
X104450000Y-71270000D03*
D15*
%TO.N,Net-(D26-Pad2)*%
X104450000Y-68730000D03*
%TD*%
D14*
%TO.N,*%
%TO.C,RV14*%
X119400000Y-92000000D03*
X110600000Y-92000000D03*
D15*
%TO.N,+9V*%
X117500000Y-99000000D03*
%TO.N,Net-(R127-Pad2)*%
X115000000Y-99000000D03*
%TO.N,GND*%
X112500000Y-99000000D03*
%TD*%
D18*
%TO.N,Net-(D28-Pad1)*%
%TO.C,D28*%
X104450000Y-93270000D03*
D15*
%TO.N,Net-(D28-Pad2)*%
X104450000Y-90730000D03*
%TD*%
D18*
%TO.N,Net-(D27-Pad1)*%
%TO.C,D27*%
X104450000Y-137270000D03*
D15*
%TO.N,Net-(D27-Pad2)*%
X104450000Y-134730000D03*
%TD*%
D19*
%TO.N,GND*%
%TO.C,J9*%
X136000000Y-76480000D03*
D20*
%TO.N,Net-(J9-PadT)*%
X136000000Y-65080000D03*
%TO.N,unconnected-(J9-PadTN)*%
X136000000Y-73380000D03*
%TD*%
D10*
%TO.N,F2{slash}1*%
%TO.C,SW6*%
X73300000Y-96700000D03*
D11*
%TO.N,F2*%
X73300000Y-92000000D03*
%TO.N,Net-(SW6-Pad3)*%
X73300000Y-87300000D03*
%TD*%
D19*
%TO.N,GND*%
%TO.C,J3*%
X45400000Y-98480000D03*
D20*
%TO.N,Net-(J3-PadT)*%
X45400000Y-87080000D03*
%TO.N,GND*%
X45400000Y-95380000D03*
%TD*%
D18*
%TO.N,Net-(D25-Pad1)*%
%TO.C,D25*%
X104450000Y-115270000D03*
D15*
%TO.N,Net-(D25-Pad2)*%
X104450000Y-112730000D03*
%TD*%
D16*
%TO.N,Net-(SW8-Pad1)*%
%TO.C,SW8*%
X56838533Y-143391036D03*
D17*
%TO.N,Net-(SW8-Pad2)*%
X52508964Y-139061467D03*
%TO.N,Net-(SW8-Pad3)*%
X52508964Y-132938533D03*
%TO.N,Net-(SW8-Pad4)*%
X56838533Y-128608964D03*
%TO.N,Net-(SW8-Pad5)*%
X62961467Y-128608964D03*
%TO.N,Net-(SW8-Pad6)*%
X67291036Y-132938533D03*
%TO.N,Net-(SW8-Pad7)*%
X67291036Y-139061467D03*
%TO.N,Net-(SW8-Pad8)*%
X62961467Y-143391036D03*
%TO.N,R4*%
X57250000Y-136000000D03*
%TD*%
D14*
%TO.N,*%
%TO.C,RV15*%
X110600000Y-136000000D03*
X119400000Y-136000000D03*
D15*
%TO.N,+9V*%
X117500000Y-143000000D03*
%TO.N,Net-(R124-Pad2)*%
X115000000Y-143000000D03*
%TO.N,GND*%
X112500000Y-143000000D03*
%TD*%
D12*
%TO.N,Net-(R113-Pad1)*%
%TO.C,U30*%
X109600000Y-123700000D03*
D13*
%TO.N,Net-(D25-Pad1)*%
X109600000Y-127500000D03*
%TO.N,Net-(R118-Pad2)*%
X124600000Y-123700000D03*
%TO.N,Net-(C76-Pad2)*%
X124600000Y-127500000D03*
%TD*%
D10*
%TO.N,F3{slash}1*%
%TO.C,SW5*%
X73300000Y-118700000D03*
D11*
%TO.N,F3*%
X73300000Y-114000000D03*
%TO.N,Net-(SW5-Pad3)*%
X73300000Y-109300000D03*
%TD*%
D19*
%TO.N,GND*%
%TO.C,J7*%
X136000000Y-56480000D03*
D20*
%TO.N,Net-(C21-Pad1)*%
X136000000Y-45080000D03*
%TO.N,unconnected-(J7-PadTN)*%
X136000000Y-53380000D03*
%TD*%
D16*
%TO.N,Net-(SW1-Pad1)*%
%TO.C,SW1*%
X56838533Y-99391036D03*
D17*
%TO.N,Net-(SW1-Pad2)*%
X52508964Y-95061467D03*
%TO.N,Net-(SW1-Pad3)*%
X52508964Y-88938533D03*
%TO.N,Net-(SW1-Pad4)*%
X56838533Y-84608964D03*
%TO.N,Net-(SW1-Pad5)*%
X62961467Y-84608964D03*
%TO.N,Net-(SW1-Pad6)*%
X67291036Y-88938533D03*
%TO.N,Net-(SW1-Pad7)*%
X67291036Y-95061467D03*
%TO.N,Net-(SW1-Pad8)*%
X62961467Y-99391036D03*
%TO.N,R2*%
X57250000Y-92000000D03*
%TD*%
D16*
%TO.N,Net-(SW3-Pad1)*%
%TO.C,SW3*%
X56838533Y-121391036D03*
D17*
%TO.N,Net-(SW3-Pad2)*%
X52508964Y-117061467D03*
%TO.N,Net-(SW3-Pad3)*%
X52508964Y-110938533D03*
%TO.N,Net-(SW3-Pad4)*%
X56838533Y-106608964D03*
%TO.N,Net-(SW3-Pad5)*%
X62961467Y-106608964D03*
%TO.N,Net-(SW3-Pad6)*%
X67291036Y-110938533D03*
%TO.N,Net-(SW3-Pad7)*%
X67291036Y-117061467D03*
%TO.N,Net-(SW3-Pad8)*%
X62961467Y-121391036D03*
%TO.N,R3*%
X57250000Y-114000000D03*
%TD*%
D21*
%TO.N,Net-(R123-Pad1)*%
%TO.C,U34*%
X129100000Y-130300000D03*
D13*
%TO.N,Net-(D27-Pad1)*%
X125300000Y-130300000D03*
%TO.N,Net-(R128-Pad2)*%
X129100000Y-145300000D03*
%TO.N,Net-(C78-Pad2)*%
X125300000Y-145300000D03*
%TD*%
D19*
%TO.N,GND*%
%TO.C,J5*%
X45400000Y-142480000D03*
D20*
%TO.N,Net-(J5-PadT)*%
X45400000Y-131080000D03*
%TO.N,GND*%
X45400000Y-139380000D03*
%TD*%
D19*
%TO.N,GND*%
%TO.C,J10*%
X136000000Y-142480000D03*
D20*
%TO.N,Net-(J10-PadT)*%
X136000000Y-131080000D03*
%TO.N,unconnected-(J10-PadTN)*%
X136000000Y-139380000D03*
%TD*%
D19*
%TO.N,GND*%
%TO.C,J4*%
X45400000Y-120480000D03*
D20*
%TO.N,Net-(J4-PadT)*%
X45400000Y-109080000D03*
%TO.N,GND*%
X45400000Y-117380000D03*
%TD*%
D19*
%TO.N,GND*%
%TO.C,J11*%
X136000000Y-98480000D03*
D20*
%TO.N,Net-(J11-PadT)*%
X136000000Y-87080000D03*
%TO.N,unconnected-(J11-PadTN)*%
X136000000Y-95380000D03*
%TD*%
D19*
%TO.N,GND*%
%TO.C,J1*%
X45400000Y-56480000D03*
D20*
%TO.N,Net-(J1-PadT)*%
X45400000Y-45080000D03*
%TO.N,GND*%
X45400000Y-53380000D03*
%TD*%
D12*
%TO.N,Net-(R116-Pad1)*%
%TO.C,U31*%
X109600000Y-79800000D03*
D13*
%TO.N,Net-(D26-Pad1)*%
X109600000Y-83600000D03*
%TO.N,Net-(R119-Pad2)*%
X124600000Y-79800000D03*
%TO.N,Net-(C77-Pad2)*%
X124600000Y-83600000D03*
%TD*%
D19*
%TO.N,GND*%
%TO.C,J8*%
X136000000Y-120480000D03*
D20*
%TO.N,Net-(J8-PadT)*%
X136000000Y-109080000D03*
%TO.N,unconnected-(J8-PadTN)*%
X136000000Y-117380000D03*
%TD*%
D22*
%TO.N,GND*%
%TO.C,TP1*%
X135170000Y-146950000D03*
%TD*%
%TO.N,GND*%
%TO.C,TP2*%
X45280000Y-146950000D03*
%TD*%
D23*
%TO.N,Net-(U12-Pad12)*%
X71130000Y-82270000D03*
X74900000Y-82250000D03*
%TO.N,+12V*%
X86050000Y-77075000D03*
X75900000Y-46575000D03*
D24*
X79850000Y-50000000D03*
D23*
X54300000Y-45525000D03*
X79637500Y-57512500D03*
X79637500Y-77037500D03*
X50750000Y-134850000D03*
X124500000Y-50300000D03*
X86255000Y-125095000D03*
D25*
X100770000Y-100080000D03*
D23*
X100770000Y-77095000D03*
X50475489Y-45500000D03*
D24*
X75850000Y-49925000D03*
D23*
X79637500Y-54362500D03*
X50725000Y-69050000D03*
X50737493Y-91012507D03*
X58500000Y-46575000D03*
X123155000Y-57895000D03*
X50750000Y-113000000D03*
D25*
X100770000Y-144520000D03*
X100770000Y-123080000D03*
D23*
%TO.N,-12V*%
X128145000Y-61705000D03*
X103150000Y-103900000D03*
X128105000Y-54805000D03*
X103150000Y-148325000D03*
X103150000Y-54800000D03*
X103150000Y-126900000D03*
X93795000Y-80905000D03*
D24*
X100850000Y-51925000D03*
D23*
X93795000Y-128905000D03*
X103150000Y-80900000D03*
D24*
X63400000Y-51925000D03*
D23*
%TO.N,Net-(C13-Pad1)*%
X123375000Y-54275000D03*
X121406250Y-50743750D03*
%TO.N,Net-(C17-Pad1)*%
X130000000Y-46200000D03*
X128400000Y-50995000D03*
%TO.N,Net-(C20-Pad1)*%
X129475000Y-49075000D03*
X129575000Y-53025000D03*
%TO.N,Net-(C7-Pad1)*%
X54925000Y-44325000D03*
X61350000Y-44325000D03*
X54925000Y-46775000D03*
%TO.N,F3*%
X88125000Y-106025000D03*
X71575000Y-106025000D03*
X134475000Y-123375000D03*
X132850000Y-107000000D03*
X120000000Y-107000000D03*
%TO.N,F4*%
X120239989Y-125689989D03*
X120239989Y-133000000D03*
X127815000Y-125635000D03*
X88150000Y-133000000D03*
%TO.N,F2*%
X85425000Y-86025000D03*
X75550000Y-92000000D03*
X126650000Y-82150000D03*
X75550000Y-86000000D03*
%TO.N,VCA3*%
X49775000Y-116175000D03*
X107200000Y-122800000D03*
%TO.N,VCA1*%
X102250000Y-75450000D03*
X49725000Y-72375000D03*
%TO.N,VCA4*%
X100100000Y-142850000D03*
X49775000Y-138175000D03*
%TO.N,VCA2*%
X102100000Y-98400000D03*
X49725000Y-94175000D03*
%TO.N,Clk*%
X49200000Y-75900000D03*
X55825000Y-59550000D03*
X44500000Y-59550000D03*
X42125000Y-47175000D03*
X49200000Y-101375000D03*
X49179520Y-123195480D03*
X55825000Y-56250000D03*
X49179520Y-79445480D03*
X48275000Y-59550000D03*
%TO.N,Net-(C11-Pad1)*%
X61925000Y-53875000D03*
X67925000Y-54800000D03*
%TO.N,Net-(C12-Pad1)*%
X126275000Y-47925000D03*
X126250000Y-52250000D03*
%TO.N,Net-(C17-Pad2)*%
X128700000Y-47150000D03*
X131850000Y-48600000D03*
D25*
%TO.N,Net-(R30-Pad1)*%
X45800000Y-81400000D03*
X41050000Y-80200000D03*
D23*
%TO.N,Net-(R31-Pad1)*%
X45750000Y-61500000D03*
X42850000Y-61500000D03*
X41975000Y-57975000D03*
%TO.N,Net-(R39-Pad1)*%
X45700000Y-125150000D03*
X41000000Y-123900000D03*
%TO.N,1f*%
X133215000Y-82035000D03*
X132175000Y-73325000D03*
%TO.N,2f*%
X130845000Y-83305000D03*
X130450000Y-86250000D03*
%TO.N,3f*%
X131550000Y-119750000D03*
X133000000Y-125250000D03*
%TO.N,Net-(U10-Pad3)*%
X53950000Y-58300000D03*
X65834511Y-58300000D03*
X65834511Y-68584511D03*
%TO.N,Net-(U11-Pad3)*%
X53450000Y-101350000D03*
X64475000Y-112100000D03*
X64399453Y-101350000D03*
%TO.N,Net-(C10-Pad1)*%
X66550000Y-53875000D03*
X74700000Y-56425000D03*
X74700000Y-53875000D03*
%TO.N,+9V*%
X123199511Y-72900489D03*
X88300000Y-104725000D03*
X47800000Y-121900000D03*
X61030000Y-66055000D03*
X61000000Y-109900000D03*
X88250000Y-56750000D03*
X54350000Y-56450000D03*
X63125000Y-58925000D03*
X60975000Y-131950000D03*
X47850000Y-100050000D03*
X44225000Y-55425000D03*
X84737500Y-95262500D03*
X88925000Y-139550000D03*
X117500000Y-139550000D03*
X88300000Y-131750000D03*
X47750000Y-55800000D03*
X84837500Y-115312500D03*
X88925000Y-112550000D03*
X88900000Y-92550000D03*
X47725000Y-58250000D03*
X131650000Y-64700000D03*
X69950000Y-126525000D03*
X63125000Y-55875000D03*
X123199511Y-139549511D03*
X47800000Y-78125000D03*
X123199511Y-99000489D03*
X123199511Y-78600000D03*
X123199511Y-122500489D03*
X88875000Y-64550000D03*
X60950000Y-87875000D03*
X74950000Y-79425000D03*
X76230656Y-82479367D03*
X85337500Y-141912500D03*
X128062500Y-123137500D03*
X88250000Y-84750000D03*
X67850000Y-122300000D03*
%TO.N,+5V*%
X128650000Y-121750000D03*
X127550000Y-87350000D03*
D24*
X110000000Y-45200000D03*
D23*
X73075000Y-45200000D03*
D24*
X110000000Y-66000000D03*
X128250000Y-75900000D03*
X128100000Y-66000000D03*
D23*
X128650000Y-118450000D03*
X136750000Y-121750000D03*
X138550000Y-128400000D03*
X137800000Y-124450000D03*
X69575000Y-45200000D03*
%TO.N,Net-(C64-Pad1)*%
X91932926Y-76082926D03*
X83775000Y-76025000D03*
%TO.N,Net-(C65-Pad1)*%
X96325000Y-125875000D03*
X91115000Y-126365000D03*
X83725000Y-122225000D03*
X84950000Y-125500000D03*
%TO.N,OSC3*%
X95800000Y-126850000D03*
X121775000Y-127075000D03*
%TO.N,Net-(C74-Pad1)*%
X89384511Y-89265489D03*
X96350000Y-91500000D03*
X88785000Y-79635000D03*
X83875000Y-97575000D03*
X89384511Y-97165489D03*
X83875000Y-79225000D03*
%TO.N,OSC2*%
X120712500Y-78487500D03*
X88985000Y-78365000D03*
X120712500Y-104212500D03*
%TO.N,Net-(C75-Pad1)*%
X83300000Y-127000000D03*
X88785000Y-127635000D03*
X82050000Y-128150000D03*
X96175000Y-145025000D03*
X82050000Y-145350000D03*
%TO.N,OSC4*%
X88735000Y-126365000D03*
X89409511Y-149290489D03*
X119050000Y-148400000D03*
%TO.N,Net-(C77-Pad2)*%
X123800000Y-74900000D03*
X96937500Y-75612500D03*
%TO.N,Net-(C78-Pad2)*%
X125300000Y-148400000D03*
D26*
%TO.N,Net-(D1-Pad2)*%
X95800000Y-52950000D03*
X97077500Y-50147500D03*
D23*
%TO.N,Net-(D15-Pad1)*%
X42800000Y-49650000D03*
X47100000Y-48550000D03*
%TO.N,Net-(D15-Pad2)*%
X59710000Y-48540000D03*
X48150000Y-45950000D03*
X48159511Y-49759511D03*
X61350000Y-42325000D03*
%TO.N,Net-(D25-Pad1)*%
X111050000Y-118000000D03*
%TO.N,Net-(D25-Pad2)*%
X104475000Y-122475000D03*
%TO.N,Net-(D26-Pad1)*%
X107300000Y-71250000D03*
%TO.N,Net-(D26-Pad2)*%
X104200000Y-76200000D03*
%TO.N,Net-(D27-Pad1)*%
X125300000Y-128874999D03*
X107300000Y-137270000D03*
X107324999Y-128874999D03*
%TO.N,Net-(D27-Pad2)*%
X104475000Y-143775000D03*
%TO.N,Net-(D28-Pad1)*%
X107300000Y-93270000D03*
%TO.N,Net-(D28-Pad2)*%
X105795000Y-100095000D03*
%TO.N,Net-(Q2-Pad1)*%
X41550000Y-52600000D03*
X41175000Y-45125000D03*
%TO.N,Net-(R14-Pad1)*%
X117600000Y-53800000D03*
X117600000Y-58350000D03*
X123275000Y-59125000D03*
%TO.N,-9V*%
X129550000Y-57050000D03*
X82025489Y-56225489D03*
X82100000Y-122100000D03*
X82100000Y-74000000D03*
X82200000Y-102050000D03*
%TO.N,Net-(R19-Pad1)*%
X64146787Y-41753213D03*
X59705000Y-51080000D03*
X65671787Y-43278213D03*
X65050000Y-51075000D03*
%TO.N,Net-(R33-Pad2)*%
X46737500Y-83212500D03*
X42950000Y-83250000D03*
%TO.N,Net-(R35-Pad1)*%
X45750000Y-60200000D03*
X44200000Y-57400000D03*
%TO.N,Net-(R35-Pad2)*%
X43000000Y-60400000D03*
X44350000Y-63200000D03*
X46799520Y-63250480D03*
%TO.N,Net-(R37-Pad2)*%
X43100000Y-104600000D03*
X46737500Y-105062500D03*
X43600000Y-102550000D03*
%TO.N,Net-(R56-Pad1)*%
X93925000Y-67075000D03*
X93925000Y-58025000D03*
%TO.N,Net-(R62-Pad1)*%
X91150000Y-115100000D03*
X91850000Y-106050000D03*
%TO.N,Net-(R86-Pad1)*%
X91155000Y-86005000D03*
X91155000Y-95095000D03*
%TO.N,Net-(R91-Pad1)*%
X94200000Y-132500000D03*
X93975000Y-142075000D03*
%TO.N,Net-(R111-Pad2)*%
X105750000Y-79900000D03*
X105750000Y-75450000D03*
%TO.N,Net-(R113-Pad1)*%
X106900000Y-123800000D03*
%TO.N,Net-(R114-Pad2)*%
X107100000Y-125900000D03*
X115000000Y-125150000D03*
%TO.N,Net-(R117-Pad2)*%
X115000000Y-80700000D03*
X108700000Y-80550000D03*
%TO.N,Net-(R118-Pad2)*%
X101400000Y-125635000D03*
X102350000Y-121950000D03*
%TO.N,Net-(R119-Pad2)*%
X101900000Y-82000000D03*
%TO.N,Net-(R123-Pad1)*%
X128450000Y-144500000D03*
X107050000Y-144500000D03*
%TO.N,Net-(R124-Pad2)*%
X115000000Y-147150000D03*
X108750000Y-147600000D03*
%TO.N,Net-(R127-Pad2)*%
X108750000Y-102900000D03*
X115000000Y-102900000D03*
%TO.N,Net-(R128-Pad2)*%
X129750000Y-140800000D03*
X100840000Y-147060000D03*
X101950000Y-140800000D03*
%TO.N,Net-(R129-Pad2)*%
X102162074Y-104987926D03*
%TO.N,SIG3*%
X118400000Y-62550000D03*
X107250000Y-120950000D03*
X99525000Y-124875000D03*
X99550000Y-120950000D03*
%TO.N,SIG1*%
X118465000Y-59235000D03*
X98185000Y-59235000D03*
X98185000Y-78365000D03*
X98200000Y-82000000D03*
%TO.N,SIG4*%
X100810000Y-145790000D03*
X119150000Y-65350000D03*
X122300000Y-65350000D03*
X107850000Y-142450000D03*
X122300000Y-141400000D03*
%TO.N,SIG2*%
X118350000Y-60950000D03*
X98727926Y-101877926D03*
X99600000Y-60950000D03*
X98400000Y-104800000D03*
%TO.N,Net-(U6-Pad3)*%
X53525000Y-79425000D03*
X64450000Y-79450000D03*
X64450000Y-90050000D03*
%TO.N,F2{slash}1*%
X72400000Y-84900000D03*
X53475000Y-80075000D03*
X61450000Y-80150000D03*
X61750000Y-86000000D03*
X60995000Y-90595000D03*
%TO.N,F1{slash}1*%
X53425000Y-60200000D03*
X58170000Y-68595000D03*
X58150000Y-60150000D03*
X71330978Y-69069022D03*
%TO.N,F3{slash}1*%
X58295000Y-112595000D03*
X58300000Y-102050000D03*
X73770000Y-126620000D03*
X53450000Y-102050000D03*
X71245000Y-112595000D03*
%TO.N,Net-(SW1-Pad5)*%
X63125000Y-88075000D03*
%TO.N,Net-(SW1-Pad1)*%
X62800000Y-89325000D03*
X61050000Y-99350000D03*
%TO.N,Net-(SW1-Pad2)*%
X63115000Y-91865000D03*
%TO.N,Net-(SW1-Pad6)*%
X65800000Y-93135000D03*
%TO.N,Net-(SW1-Pad3)*%
X53800000Y-95700000D03*
X63250000Y-95700000D03*
%TO.N,Net-(SW1-Pad8)*%
X62750000Y-96900000D03*
X60800000Y-96900000D03*
%TO.N,Net-(SW1-Pad4)*%
X58250000Y-95150000D03*
%TO.N,R2*%
X57100000Y-89550000D03*
%TO.N,Net-(SW2-Pad5)*%
X63080000Y-66055000D03*
%TO.N,Net-(SW2-Pad1)*%
X59100000Y-77400000D03*
X62700000Y-67700000D03*
%TO.N,Net-(SW2-Pad2)*%
X62765000Y-69865000D03*
%TO.N,Net-(SW2-Pad6)*%
X66065000Y-71135000D03*
%TO.N,Net-(SW2-Pad3)*%
X62950000Y-66950000D03*
X63275000Y-73675000D03*
%TO.N,Net-(SW2-Pad8)*%
X60750000Y-74950000D03*
%TO.N,Net-(SW2-Pad4)*%
X58325000Y-73675000D03*
%TO.N,Net-(SW3-Pad5)*%
X63205000Y-110055000D03*
%TO.N,Net-(SW3-Pad1)*%
X63250000Y-111350000D03*
X55200000Y-111300000D03*
%TO.N,Net-(SW3-Pad2)*%
X63265000Y-113865000D03*
X63238533Y-117061467D03*
%TO.N,Net-(SW3-Pad6)*%
X65685000Y-115135000D03*
%TO.N,Net-(SW3-Pad3)*%
X62750000Y-110600000D03*
X62750000Y-117700000D03*
%TO.N,Net-(SW3-Pad8)*%
X59525000Y-121375000D03*
X59525000Y-119625000D03*
%TO.N,Net-(SW3-Pad4)*%
X58200000Y-117700000D03*
%TO.N,Net-(SW5-Pad3)*%
X76310000Y-126560000D03*
%TO.N,Net-(SW6-Pad3)*%
X69860000Y-84840000D03*
%TO.N,Net-(SW4-Pad3)*%
X68600000Y-77100000D03*
X68600000Y-65350000D03*
%TO.N,F4{slash}1*%
X70850000Y-135100000D03*
X59550000Y-134050000D03*
X72484511Y-123934511D03*
X59550000Y-123850000D03*
X53600000Y-123850000D03*
%TO.N,Net-(SW7-Pad3)*%
X75040000Y-124040000D03*
%TO.N,Net-(U14-Pad3)*%
X54050000Y-123200000D03*
X61465489Y-123200000D03*
X63055000Y-134595000D03*
%TO.N,Net-(SW8-Pad5)*%
X63155000Y-132055000D03*
%TO.N,Net-(SW8-Pad1)*%
X63200000Y-133350000D03*
X55334511Y-133784511D03*
%TO.N,Net-(SW8-Pad2)*%
X63215000Y-135865000D03*
X63025000Y-138625000D03*
%TO.N,Net-(SW8-Pad6)*%
X65885000Y-137135000D03*
%TO.N,Net-(SW8-Pad3)*%
X63200000Y-139700000D03*
X54200000Y-140350000D03*
%TO.N,Net-(SW8-Pad8)*%
X59500000Y-141850000D03*
%TO.N,Net-(SW8-Pad4)*%
X58200000Y-139700000D03*
%TO.N,R4*%
X58300000Y-133300000D03*
%TO.N,F1*%
X74050000Y-58300000D03*
X88175000Y-58025000D03*
X134450000Y-78800000D03*
X132930489Y-59719511D03*
%TO.N,Net-(U18-Pad4)*%
X90895000Y-67095000D03*
X90950000Y-58700000D03*
%TO.N,Net-(U19-Pad4)*%
X89409511Y-106659511D03*
X89300000Y-115095000D03*
X91250000Y-106675000D03*
%TO.N,Net-(U24-Pad4)*%
X91875000Y-86675000D03*
X88600000Y-86700000D03*
X88900000Y-95100000D03*
%TO.N,Net-(U25-Pad4)*%
X87550000Y-141550000D03*
X91200000Y-141550000D03*
X91875000Y-133675000D03*
%TO.N,Net-(D16-Pad1)*%
X51000000Y-53250000D03*
%TO.N,Net-(J1-PadT)*%
X51650000Y-46750000D03*
%TO.N,Net-(J2-PadT)*%
X47325000Y-68775000D03*
%TO.N,Net-(J3-PadT)*%
X48050000Y-88650000D03*
%TO.N,Net-(J4-PadT)*%
X48050000Y-110650000D03*
%TO.N,Net-(J5-PadT)*%
X48050000Y-132550000D03*
%TD*%
D27*
%TO.N,+12V*%
X50737493Y-91012507D02*
X50750000Y-113000000D01*
D28*
X100770000Y-100080000D02*
X100770000Y-123080000D01*
X79637500Y-54362500D02*
X79637500Y-57512500D01*
D27*
X75850000Y-46625000D02*
X75850000Y-49925000D01*
X86050000Y-124890000D02*
X86255000Y-125095000D01*
X75900000Y-46575000D02*
X75850000Y-46625000D01*
X50475489Y-45500000D02*
X50475489Y-54017261D01*
X50725000Y-54266772D02*
X50725000Y-69050000D01*
D28*
X100770000Y-123080000D02*
X100770000Y-144520000D01*
X86050000Y-77075000D02*
X86050000Y-124890000D01*
X79637500Y-57512500D02*
X79637500Y-77037500D01*
D27*
X124500000Y-56600000D02*
X123200000Y-57900000D01*
D28*
X100770000Y-77095000D02*
X100770000Y-100080000D01*
D27*
X124500000Y-50300000D02*
X124500000Y-56600000D01*
X50725000Y-69050000D02*
X50737493Y-91012507D01*
X50750000Y-113000000D02*
X50725000Y-134875000D01*
X50475489Y-54017261D02*
X50725000Y-54266772D01*
%TO.N,-12V*%
X93795000Y-80905000D02*
X93795000Y-128895000D01*
X128145000Y-54845000D02*
X128145000Y-61705000D01*
D28*
X103150000Y-54225000D02*
X103150000Y-54800000D01*
X103150000Y-126900000D02*
X103150000Y-148325000D01*
X100850000Y-51925000D02*
X103150000Y-54225000D01*
X103150000Y-54800000D02*
X103150000Y-80900000D01*
X103150000Y-80900000D02*
X103150000Y-103900000D01*
D27*
X128105000Y-54805000D02*
X128145000Y-54845000D01*
D28*
X103150000Y-103900000D02*
X103150000Y-126900000D01*
D29*
%TO.N,Net-(C13-Pad1)*%
X123375000Y-54275000D02*
X121406250Y-52306250D01*
X121406250Y-52306250D02*
X121406250Y-50743750D01*
%TO.N,Net-(C17-Pad1)*%
X130000000Y-47864797D02*
X130000000Y-46200000D01*
X128400000Y-50995000D02*
X128405000Y-49459797D01*
X128405000Y-49459797D02*
X130000000Y-47864797D01*
%TO.N,Net-(C20-Pad1)*%
X129575000Y-53025000D02*
X129575000Y-49175000D01*
X129575000Y-49175000D02*
X129475000Y-49075000D01*
D27*
%TO.N,Net-(C7-Pad1)*%
X54925000Y-44325000D02*
X54925000Y-46750000D01*
D29*
%TO.N,F3*%
X71575000Y-109957259D02*
X73300000Y-111682259D01*
X132850000Y-121750000D02*
X134475000Y-123375000D01*
X73300000Y-111682259D02*
X73300000Y-114000000D01*
X71575000Y-106025000D02*
X71575000Y-109957259D01*
X132850000Y-107000000D02*
X132850000Y-121750000D01*
%TO.N,F4*%
X120239989Y-133000000D02*
X120239989Y-125689989D01*
%TO.N,F2*%
X75550000Y-92000000D02*
X75550000Y-86000000D01*
%TO.N,Clk*%
X55825000Y-56250000D02*
X55825000Y-59550000D01*
X49179520Y-60450000D02*
X49179520Y-123195480D01*
X42125000Y-47175000D02*
X42125000Y-54825000D01*
X42125000Y-57175000D02*
X44500000Y-59550000D01*
X48275000Y-59550000D02*
X49179520Y-60454520D01*
X42125000Y-54825000D02*
X42125000Y-57175000D01*
%TO.N,Net-(C12-Pad1)*%
X126250000Y-47950000D02*
X126250000Y-52250000D01*
X126275000Y-47925000D02*
X126250000Y-47950000D01*
D27*
%TO.N,Net-(R31-Pad1)*%
X42850000Y-60991772D02*
X42850000Y-61500000D01*
X41975000Y-60116772D02*
X42850000Y-60991772D01*
X41975000Y-57975000D02*
X41975000Y-60116772D01*
%TO.N,1f*%
X132175000Y-80995000D02*
X133215000Y-82035000D01*
X132175000Y-73325000D02*
X132175000Y-80995000D01*
%TO.N,2f*%
X130845000Y-85855000D02*
X130845000Y-83305000D01*
X130450000Y-86250000D02*
X130845000Y-85855000D01*
D29*
%TO.N,3f*%
X133000000Y-125250000D02*
X131550000Y-124150000D01*
X131550000Y-124150000D02*
X131550000Y-119750000D01*
%TO.N,Net-(U10-Pad3)*%
X65834511Y-58300000D02*
X65834511Y-68584511D01*
%TO.N,Net-(U11-Pad3)*%
X64399453Y-101350000D02*
X64399453Y-111999453D01*
D27*
%TO.N,Net-(C10-Pad1)*%
X74700000Y-53875000D02*
X74700000Y-56425000D01*
%TO.N,+9V*%
X123199511Y-78600000D02*
X123199511Y-99000489D01*
D29*
X117500000Y-143000000D02*
X117500000Y-139550000D01*
D27*
X123199511Y-99000489D02*
X123199511Y-122500489D01*
X123199511Y-122500489D02*
X123199511Y-139549511D01*
X123199511Y-78600000D02*
X123199511Y-72900489D01*
X54350000Y-50110000D02*
X54350000Y-56450000D01*
X52800000Y-48560000D02*
X54350000Y-50110000D01*
%TO.N,+5V*%
X136750000Y-121750000D02*
X136750000Y-123400000D01*
X128650000Y-118450000D02*
X128650000Y-88450000D01*
X128650000Y-121750000D02*
X128650000Y-118450000D01*
X137800000Y-124450000D02*
X137800000Y-127650000D01*
X136750000Y-123400000D02*
X137800000Y-124450000D01*
D28*
X110000000Y-45200000D02*
X110000000Y-66000000D01*
D27*
X127550000Y-76600000D02*
X128250000Y-75900000D01*
X137800000Y-127650000D02*
X138550000Y-128400000D01*
D28*
X128100000Y-66000000D02*
X128100000Y-75750000D01*
D27*
X127550000Y-87350000D02*
X127550000Y-76600000D01*
X128650000Y-88450000D02*
X127550000Y-87350000D01*
D28*
X128100000Y-75750000D02*
X128250000Y-75900000D01*
D29*
%TO.N,Net-(C65-Pad1)*%
X84950000Y-123450000D02*
X84950000Y-125500000D01*
X83725000Y-122225000D02*
X84950000Y-123450000D01*
%TO.N,Net-(C74-Pad1)*%
X88785000Y-79635000D02*
X89384511Y-80234511D01*
X89384511Y-80234511D02*
X89384511Y-89265489D01*
X89384511Y-89265489D02*
X89384511Y-97165489D01*
%TO.N,OSC2*%
X121750000Y-79525000D02*
X121750000Y-103700000D01*
X121237500Y-104212500D02*
X120712500Y-104212500D01*
X121750000Y-103700000D02*
X121237500Y-104212500D01*
X120712500Y-78487500D02*
X121750000Y-79525000D01*
%TO.N,Net-(C75-Pad1)*%
X82050000Y-128150000D02*
X82050000Y-145350000D01*
%TO.N,OSC4*%
X88735000Y-126365000D02*
X89409511Y-127039511D01*
X89409511Y-127039511D02*
X89409511Y-149290489D01*
%TO.N,Net-(C77-Pad2)*%
X123765489Y-82765489D02*
X124600000Y-83600000D01*
X123800000Y-74900000D02*
X123765489Y-74934511D01*
X123765489Y-74934511D02*
X123765489Y-82765489D01*
D27*
%TO.N,Net-(C78-Pad2)*%
X125300000Y-148400000D02*
X125300000Y-145300000D01*
D30*
%TO.N,Net-(D1-Pad2)*%
X95800000Y-52950000D02*
X95800000Y-51425000D01*
X95800000Y-51425000D02*
X97077500Y-50147500D01*
D27*
%TO.N,Net-(D15-Pad2)*%
X48150000Y-49750000D02*
X48159511Y-49759511D01*
X48150000Y-47400000D02*
X48150000Y-49750000D01*
X48150000Y-45950000D02*
X48150000Y-47400000D01*
X61350000Y-42325000D02*
X59710000Y-43865000D01*
X59710000Y-43865000D02*
X59710000Y-48540000D01*
D29*
%TO.N,Net-(D25-Pad1)*%
X111050000Y-118000000D02*
X111050000Y-126050000D01*
X111050000Y-126050000D02*
X109600000Y-127500000D01*
%TO.N,Net-(D25-Pad2)*%
X105609511Y-121340489D02*
X105609511Y-113889511D01*
X105609511Y-113889511D02*
X104450000Y-112730000D01*
X104475000Y-122475000D02*
X105609511Y-121340489D01*
%TO.N,Net-(D26-Pad1)*%
X107300000Y-81100000D02*
X109600000Y-83400000D01*
X107300000Y-71250000D02*
X107300000Y-81100000D01*
%TO.N,Net-(D26-Pad2)*%
X105609511Y-74790489D02*
X105609511Y-69869511D01*
X104200000Y-76200000D02*
X105609511Y-74790489D01*
X105609511Y-69869511D02*
X104450000Y-68710000D01*
%TO.N,Net-(D27-Pad1)*%
X107300000Y-137270000D02*
X107300000Y-128899998D01*
X107300000Y-128899998D02*
X107324999Y-128874999D01*
X125300000Y-128874999D02*
X125300000Y-130300000D01*
%TO.N,Net-(D27-Pad2)*%
X105659511Y-135889511D02*
X104500000Y-134730000D01*
X104475000Y-143775000D02*
X105659511Y-142590489D01*
X105659511Y-142590489D02*
X105659511Y-135889511D01*
%TO.N,Net-(D28-Pad1)*%
X107300000Y-103250000D02*
X107300000Y-93270000D01*
X109600000Y-105550000D02*
X107300000Y-103250000D01*
%TO.N,Net-(D28-Pad2)*%
X105795000Y-92025000D02*
X104500000Y-90730000D01*
X105795000Y-100095000D02*
X105795000Y-92025000D01*
D27*
%TO.N,Net-(Q2-Pad1)*%
X41175000Y-52225000D02*
X41550000Y-52600000D01*
X41175000Y-45125000D02*
X41175000Y-52225000D01*
D29*
%TO.N,Net-(R14-Pad1)*%
X117600000Y-58350000D02*
X117600000Y-53800000D01*
D27*
%TO.N,-9V*%
X82025489Y-56225489D02*
X82025489Y-73925489D01*
X82200000Y-102050000D02*
X82200000Y-122000000D01*
X82200000Y-122000000D02*
X82100000Y-122100000D01*
X82025489Y-73925489D02*
X82100000Y-74000000D01*
X82100000Y-101950000D02*
X82200000Y-102050000D01*
X82100000Y-74000000D02*
X82100000Y-101950000D01*
D29*
%TO.N,Net-(R19-Pad1)*%
X65671787Y-43278213D02*
X65671787Y-50453213D01*
X65671787Y-50453213D02*
X65050000Y-51075000D01*
D27*
X64146787Y-41753213D02*
X65671787Y-43278213D01*
%TO.N,Net-(R35-Pad1)*%
X45750000Y-58950000D02*
X45750000Y-60200000D01*
X44200000Y-57400000D02*
X45750000Y-58950000D01*
%TO.N,Net-(R35-Pad2)*%
X44350000Y-61750000D02*
X44350000Y-63200000D01*
X43000000Y-60400000D02*
X44350000Y-61750000D01*
D29*
%TO.N,Net-(R37-Pad2)*%
X43100000Y-103050000D02*
X43600000Y-102550000D01*
X43100000Y-104600000D02*
X43100000Y-103050000D01*
%TO.N,Net-(R56-Pad1)*%
X93925000Y-58025000D02*
X93925000Y-67075000D01*
%TO.N,Net-(R62-Pad1)*%
X91850000Y-106050000D02*
X91850000Y-114400000D01*
X91850000Y-114400000D02*
X91150000Y-115100000D01*
%TO.N,Net-(R86-Pad1)*%
X91155000Y-95095000D02*
X91155000Y-86005000D01*
%TO.N,Net-(R91-Pad1)*%
X94200000Y-141850000D02*
X93975000Y-142075000D01*
X94200000Y-132500000D02*
X94200000Y-141850000D01*
%TO.N,Net-(R111-Pad2)*%
X105750000Y-79900000D02*
X105750000Y-75450000D01*
%TO.N,Net-(R114-Pad2)*%
X115000000Y-125150000D02*
X115000000Y-121000000D01*
D27*
%TO.N,Net-(R117-Pad2)*%
X115000000Y-80700000D02*
X115000000Y-77000000D01*
D29*
%TO.N,Net-(R118-Pad2)*%
X101400000Y-125635000D02*
X102350000Y-124685000D01*
X102350000Y-124685000D02*
X102350000Y-121950000D01*
%TO.N,Net-(R123-Pad1)*%
X129134511Y-143815489D02*
X129100000Y-130300000D01*
X128450000Y-144500000D02*
X129134511Y-143815489D01*
%TO.N,Net-(R124-Pad2)*%
X115000000Y-147150000D02*
X115000000Y-143000000D01*
%TO.N,Net-(R127-Pad2)*%
X115000000Y-102900000D02*
X115000000Y-99000000D01*
%TO.N,Net-(R128-Pad2)*%
X101950000Y-145950000D02*
X101950000Y-140800000D01*
X100840000Y-147060000D02*
X101950000Y-145950000D01*
X129750000Y-144650000D02*
X129100000Y-145300000D01*
X129750000Y-140800000D02*
X129750000Y-144650000D01*
D27*
%TO.N,SIG3*%
X107250000Y-112600000D02*
X107250000Y-120950000D01*
X110474511Y-109375489D02*
X107250000Y-112600000D01*
X112850000Y-96200000D02*
X110474511Y-99125489D01*
X116300489Y-92749511D02*
X112850000Y-96200000D01*
X99550000Y-120950000D02*
X99550000Y-124850000D01*
X118400000Y-62550000D02*
X116300489Y-64649511D01*
X116300489Y-64649511D02*
X116300489Y-92749511D01*
X99550000Y-124850000D02*
X99525000Y-124875000D01*
X110474511Y-99125489D02*
X110474511Y-109375489D01*
D29*
%TO.N,SIG1*%
X98185000Y-78365000D02*
X98185000Y-81985000D01*
X98185000Y-81985000D02*
X98200000Y-82000000D01*
X98185000Y-78365000D02*
X98185000Y-59235000D01*
D27*
%TO.N,SIG4*%
X122300000Y-141400000D02*
X122300000Y-65350000D01*
D29*
%TO.N,SIG2*%
X99600000Y-60950000D02*
X99600000Y-100700000D01*
X98400000Y-104800000D02*
X98290480Y-104690480D01*
X98727926Y-101572074D02*
X99600000Y-100700000D01*
X98290480Y-102315372D02*
X98727926Y-101877926D01*
X98290480Y-104690480D02*
X98290480Y-102315372D01*
X98727926Y-101877926D02*
X98727926Y-101572074D01*
%TO.N,Net-(U6-Pad3)*%
X64450000Y-79450000D02*
X64450000Y-90050000D01*
%TO.N,F2{slash}1*%
X74984511Y-95015489D02*
X73300000Y-96700000D01*
X61750000Y-86000000D02*
X61750000Y-89840000D01*
X74984511Y-86602252D02*
X74984511Y-95015489D01*
X61450000Y-85700000D02*
X61750000Y-86000000D01*
X72400000Y-84900000D02*
X73282259Y-84900000D01*
X73282259Y-84900000D02*
X74984511Y-86602252D01*
X61450000Y-80150000D02*
X61450000Y-85700000D01*
X61750000Y-89840000D02*
X60995000Y-90595000D01*
%TO.N,F1{slash}1*%
X58170000Y-68595000D02*
X58170000Y-60150000D01*
X71330978Y-69069022D02*
X71330978Y-72730978D01*
X71330978Y-72730978D02*
X73300000Y-74700000D01*
%TO.N,F3{slash}1*%
X58300000Y-112590000D02*
X58295000Y-112595000D01*
X58300000Y-102050000D02*
X58300000Y-112590000D01*
X73770000Y-126620000D02*
X73300000Y-126150000D01*
X71245000Y-116645000D02*
X73300000Y-118700000D01*
X71245000Y-112595000D02*
X71245000Y-116645000D01*
X73300000Y-126150000D02*
X73300000Y-118700000D01*
%TO.N,Net-(SW1-Pad5)*%
X62761467Y-84608964D02*
X62761467Y-87761467D01*
X62761467Y-87761467D02*
X63100000Y-88100000D01*
%TO.N,Net-(SW1-Pad1)*%
X61551956Y-90573044D02*
X61551956Y-98848044D01*
X61551956Y-98848044D02*
X61050000Y-99350000D01*
X62800000Y-89325000D02*
X61551956Y-90573044D01*
%TO.N,Net-(SW1-Pad6)*%
X67091036Y-91843964D02*
X67091036Y-88938533D01*
X65800000Y-93135000D02*
X67091036Y-91843964D01*
%TO.N,Net-(SW1-Pad3)*%
X53800000Y-95700000D02*
X53800000Y-90429569D01*
X53800000Y-90429569D02*
X52308964Y-88938533D01*
%TO.N,Net-(SW1-Pad8)*%
X62750000Y-96900000D02*
X62761467Y-96911467D01*
X62761467Y-96911467D02*
X62761467Y-99391036D01*
%TO.N,Net-(SW1-Pad4)*%
X58459511Y-86229942D02*
X56838533Y-84608964D01*
X58459511Y-94940489D02*
X58459511Y-86229942D01*
X58250000Y-95150000D02*
X58459511Y-94940489D01*
%TO.N,R2*%
X57050000Y-89600000D02*
X57050000Y-92000000D01*
X57100000Y-89550000D02*
X57050000Y-89600000D01*
%TO.N,Net-(SW2-Pad5)*%
X62761467Y-65736467D02*
X62761467Y-62608964D01*
X63080000Y-66055000D02*
X62761467Y-65736467D01*
%TO.N,Net-(SW2-Pad1)*%
X59100000Y-71300000D02*
X59100000Y-77400000D01*
X62700000Y-67700000D02*
X59100000Y-71300000D01*
%TO.N,Net-(SW2-Pad6)*%
X67091036Y-70108964D02*
X67091036Y-66938533D01*
X66065000Y-71135000D02*
X67091036Y-70108964D01*
%TO.N,Net-(SW2-Pad3)*%
X63275000Y-73675000D02*
X63275000Y-67275000D01*
X63275000Y-67275000D02*
X62950000Y-66950000D01*
%TO.N,Net-(SW2-Pad4)*%
X55840489Y-63407008D02*
X56638533Y-62608964D01*
X58325000Y-73675000D02*
X55840489Y-71190489D01*
X55840489Y-71190489D02*
X55840489Y-63407008D01*
%TO.N,Net-(SW3-Pad5)*%
X62761467Y-109611467D02*
X62761467Y-106608964D01*
X63205000Y-110055000D02*
X62761467Y-109611467D01*
%TO.N,Net-(SW3-Pad1)*%
X55200000Y-119952503D02*
X55200000Y-111300000D01*
X56638533Y-121391036D02*
X55200000Y-119952503D01*
%TO.N,Net-(SW3-Pad2)*%
X63238533Y-117061467D02*
X63265000Y-117035000D01*
X63265000Y-117035000D02*
X63265000Y-113865000D01*
%TO.N,Net-(SW3-Pad6)*%
X67091036Y-113728964D02*
X67091036Y-110938533D01*
X65685000Y-115135000D02*
X67091036Y-113728964D01*
%TO.N,Net-(SW3-Pad3)*%
X62750000Y-117700000D02*
X62750000Y-110600000D01*
%TO.N,Net-(SW3-Pad8)*%
X59525000Y-119625000D02*
X59525000Y-121375000D01*
%TO.N,Net-(SW3-Pad4)*%
X55840489Y-115340489D02*
X55840489Y-107407008D01*
X55840489Y-107407008D02*
X56638533Y-106608964D01*
X58200000Y-117700000D02*
X55840489Y-115340489D01*
%TO.N,Net-(SW5-Pad3)*%
X76310000Y-112310000D02*
X73300000Y-109300000D01*
X76310000Y-126560000D02*
X76310000Y-112310000D01*
%TO.N,Net-(SW6-Pad3)*%
X69860000Y-84840000D02*
X70840000Y-84840000D01*
X70840000Y-84840000D02*
X73300000Y-87300000D01*
%TO.N,Net-(SW4-Pad3)*%
X68600000Y-77100000D02*
X68600000Y-65350000D01*
%TO.N,F4{slash}1*%
X70850000Y-138250000D02*
X73300000Y-140700000D01*
X59550000Y-134050000D02*
X59550000Y-123850000D01*
X70850000Y-135100000D02*
X70850000Y-138250000D01*
%TO.N,Net-(SW7-Pad3)*%
X75040000Y-129560000D02*
X73300000Y-131300000D01*
X75040000Y-124040000D02*
X75040000Y-129560000D01*
%TO.N,Net-(U14-Pad3)*%
X61465489Y-123200000D02*
X61465489Y-133005489D01*
X61465489Y-133005489D02*
X63055000Y-134595000D01*
%TO.N,Net-(SW8-Pad5)*%
X62761467Y-131661467D02*
X62761467Y-128608964D01*
X63155000Y-132055000D02*
X62761467Y-131661467D01*
%TO.N,Net-(SW8-Pad1)*%
X55334511Y-142087014D02*
X56638533Y-143391036D01*
X55334511Y-133784511D02*
X55334511Y-142087014D01*
%TO.N,Net-(SW8-Pad2)*%
X63215000Y-138435000D02*
X63215000Y-135865000D01*
X63025000Y-138625000D02*
X63215000Y-138435000D01*
%TO.N,Net-(SW8-Pad6)*%
X67091036Y-135928964D02*
X67091036Y-132938533D01*
X65885000Y-137135000D02*
X67091036Y-135928964D01*
%TO.N,Net-(SW8-Pad3)*%
X52308964Y-132938533D02*
X54100000Y-134729569D01*
X54200000Y-134829569D02*
X54200000Y-140350000D01*
X54100000Y-134729569D02*
X54200000Y-134829569D01*
%TO.N,Net-(SW8-Pad8)*%
X59500000Y-142800000D02*
X59500000Y-141850000D01*
X60091036Y-143391036D02*
X59500000Y-142800000D01*
X62761467Y-143391036D02*
X60091036Y-143391036D01*
%TO.N,Net-(SW8-Pad4)*%
X58200000Y-139700000D02*
X55840489Y-137340489D01*
X55840489Y-137340489D02*
X55840489Y-129407008D01*
X55840489Y-129407008D02*
X56638533Y-128608964D01*
%TO.N,R4*%
X57050000Y-134550000D02*
X57050000Y-136000000D01*
X58300000Y-133300000D02*
X57050000Y-134550000D01*
%TO.N,F1*%
X71615489Y-68315489D02*
X73300000Y-70000000D01*
X71615489Y-60734511D02*
X71615489Y-68315489D01*
X74050000Y-58300000D02*
X71615489Y-60734511D01*
X132930489Y-77280489D02*
X134450000Y-78800000D01*
X132930489Y-59719511D02*
X132930489Y-77280489D01*
%TO.N,Net-(U18-Pad4)*%
X90950000Y-67040000D02*
X90895000Y-67095000D01*
X90950000Y-58700000D02*
X90950000Y-67040000D01*
%TO.N,Net-(U19-Pad4)*%
X89409511Y-114985489D02*
X89409511Y-106659511D01*
X89300000Y-115095000D02*
X89409511Y-114985489D01*
%TO.N,Net-(U24-Pad4)*%
X88415489Y-94615489D02*
X88415489Y-86884511D01*
X88415489Y-86884511D02*
X88600000Y-86700000D01*
X88900000Y-95100000D02*
X88415489Y-94615489D01*
%TO.N,Net-(U25-Pad4)*%
X91200000Y-134350000D02*
X91875000Y-133675000D01*
X91200000Y-141550000D02*
X91200000Y-134350000D01*
%TO.N,Net-(J2-PadT)*%
X47325000Y-68775000D02*
X47325000Y-66905000D01*
X47325000Y-66905000D02*
X45500000Y-65080000D01*
%TD*%
M02*
