M48
; DRILL file {KiCad (6.0.1)} date Mon Mar 11 01:48:26 2024
; FORMAT={-:-/ absolute / inch / decimal}
; #@! TF.CreationDate,2024-03-11T01:48:26-07:00
; #@! TF.GenerationSoftware,Kicad,Pcbnew,(6.0.1)
; #@! TF.FileFunction,Plated,1,4,PTH
FMAT,2
INCH
; #@! TA.AperFunction,Plated,PTH,ViaDrill
T1C0.0079
; #@! TA.AperFunction,Plated,PTH,ViaDrill
T2C0.0118
; #@! TA.AperFunction,Plated,PTH,ComponentDrill
T3C0.0236
; #@! TA.AperFunction,Plated,PTH,ComponentDrill
T4C0.0354
; #@! TA.AperFunction,Plated,PTH,ComponentDrill
T5C0.0394
; #@! TA.AperFunction,Plated,PTH,ComponentDrill
T6C0.0492
; #@! TA.AperFunction,Plated,PTH,ComponentDrill
T7C0.0591
; #@! TA.AperFunction,Plated,PTH,ComponentDrill
T8C0.0728
%
G90
G05
T1
X1.6142Y-4.878
X1.6161Y-3.1575
X1.6211Y-1.7766
X1.6358Y-2.0709
X1.6526Y-2.2825
X1.6585Y-1.6841
X1.6585Y-1.8573
X1.685Y-1.9547
X1.687Y-2.4213
X1.6909Y-3.2776
X1.6929Y-2.378
X1.6969Y-4.1181
X1.7165Y-4.0374
X1.7402Y-2.2598
X1.7411Y-2.1821
X1.7461Y-2.5039
X1.752Y-2.3445
X1.7992Y-4.9272
X1.8012Y-2.3701
X1.8012Y-2.4213
X1.8031Y-3.2047
X1.811Y-2.6791
X1.8401Y-3.2761
X1.8401Y-4.1363
X1.8425Y-2.502
X1.8543Y-1.9114
X1.8789Y-2.2933
X1.8799Y-2.1969
X1.8819Y-3.0758
X1.8819Y-4.7992
X1.8839Y-3.939
X1.8957Y-1.8091
X1.896Y-1.959
X1.9006Y-2.3445
X1.9362Y-3.1278
X1.9362Y-4.8502
X1.937Y-2.9882
X1.937Y-3.9911
X1.9508Y-5.2106
X1.9646Y-3.4744
X1.9646Y-4.3484
X1.9665Y-2.7559
X1.9665Y-2.9241
X1.9685Y-3.6201
X1.9685Y-3.8346
X1.9705Y-4.4862
X1.9705Y-4.6594
X1.9744Y-5.3484
X1.9744Y-5.5591
X1.9872Y-1.7913
X1.997Y-2.7185
X1.9975Y-3.5832
X1.998Y-4.4488
X1.998Y-5.3091
X1.998Y-5.7874
X2.0079Y-2.0965
X2.0335Y-1.8406
X2.1033Y-2.3701
X2.1043Y-3.9902
X2.1043Y-4.0177
X2.1053Y-3.1526
X2.1073Y-3.127
X2.1102Y-4.876
X2.1166Y-2.2062
X2.1181Y-3.7677
X2.124Y-2.2953
X2.128Y-4.8504
X2.1339Y-5.5256
X2.1378Y-1.7923
X2.1398Y-2.1378
X2.1457Y-1.937
X2.1624Y-1.7451
X2.1624Y-1.8415
X2.1732Y-4.3819
X2.1785Y-5.2671
X2.1978Y-2.2146
X2.1978Y-2.3445
X2.1998Y-5.503
X2.2057Y-4.6368
X2.247Y-2.2234
X2.248Y-3.5256
X2.2894Y-2.3681
X2.2902Y-2.7006
X2.2913Y-4.6339
X2.2913Y-5.5
X2.2933Y-3.7461
X2.2951Y-4.4329
X2.2953Y-4.0177
X2.2953Y-5.248
X2.2963Y-2.9006
X2.3031Y-1.8337
X2.3406Y-2.3169
X2.3425Y-5.5846
X2.3435Y-4.7096
X2.3435Y-4.7785
X2.3445Y-2.2539
X2.3445Y-4.876
X2.3445Y-5.2776
X2.35Y-1.961
X2.3506Y-2.011
X2.3508Y-1.911
X2.3917Y-2.9508
X2.3937Y-3.815
X2.3996Y-3.4596
X2.4006Y-5.1949
X2.4014Y-3.5667
X2.4016Y-4.3268
X2.4028Y-2.6006
X2.4134Y-3.0472
X2.4154Y-1.6663
X2.4154Y-1.7451
X2.4193Y-3.1555
X2.4199Y-4.8504
X2.4232Y-3.9114
X2.4311Y-3.3858
X2.438Y-2.1211
X2.4705Y-2.6634
X2.4705Y-3.815
X2.4705Y-4.3543
X2.4705Y-4.6339
X2.4711Y-2.7506
X2.4724Y-3.5167
X2.4783Y-2.6358
X2.4813Y-5.4577
X2.4825Y-5.299
X2.4835Y-2.6006
X2.4848Y-3.6167
X2.4852Y-3.4675
X2.4864Y-5.199
X2.4882Y-5.25
X2.4882Y-5.5
X2.4884Y-4.3329
X2.4888Y-5.349
X2.4897Y-4.6087
X2.4902Y-3.7677
X2.4902Y-4.3839
X2.4907Y-4.4829
X2.4911Y-2.9006
X2.5255Y-1.6438
X2.5335Y-4.9094
X2.5354Y-3.9902
X2.5374Y-3.128
X2.5374Y-3.5453
X2.5384Y-4.4134
X2.561Y-2.0108
X2.5823Y-3.0378
X2.5823Y-3.2346
X2.5855Y-1.7039
X2.586Y-4.5329
X2.5906Y-3.6667
X2.5919Y-2.2953
X2.5919Y-2.7002
X2.5939Y-5.399
X2.601Y-2.8006
X2.6201Y-2.1211
X2.6323Y-3.3996
X2.6742Y-2.1575
X2.6823Y-3.0402
X2.6823Y-3.239
X2.7008Y-2.5728
X2.7159Y-4.8793
X2.7323Y-3.3346
X2.7665Y-4.9705
X2.7894Y-5.3189
X2.8041Y-2.2687
X2.8049Y-4.4329
X2.8083Y-2.7193
X2.8165Y-4.8835
X2.8179Y-4.1742
X2.8248Y-4.0236
X2.8307Y-3.2382
X2.8661Y-4.8819
X2.8665Y-4.9705
X2.8917Y-3.5335
X2.9016Y-3.3583
X2.908Y-3.97
X2.9154Y-2.2953
X2.937Y-4.1181
X2.9409Y-2.1211
X2.9567Y-4.0197
X2.9744Y-3.3858
X2.9744Y-3.622
X2.9862Y-1.8346
X2.9882Y-2.5236
X3.0Y-3.6791
X3.0Y-5.0335
X3.002Y-3.5335
X3.0059Y-3.5591
X3.0079Y-3.3504
X3.0079Y-3.5079
X3.0118Y-4.1417
X3.0217Y-2.6988
X3.0217Y-2.8516
X3.0276Y-5.1713
X3.0344Y-4.0246
X3.0664Y-2.7466
X3.0752Y-3.5764
X3.0807Y-2.6732
X3.0846Y-3.5079
X3.0866Y-3.7618
X3.1093Y-2.5955
X3.122Y-3.4144
X3.128Y-3.9941
X3.128Y-4.0472
X3.1353Y-2.2643
X3.1353Y-2.4724
X3.1353Y-3.033
X3.1575Y-4.2697
X3.1949Y-2.6201
X3.2067Y-2.7146
X3.2067Y-3.5079
X3.2293Y-2.2136
X3.2293Y-2.3415
X3.2293Y-2.5965
X3.2303Y-5.0453
X3.2303Y-5.7224
X3.2323Y-2.9134
X3.2323Y-3.4154
X3.2362Y-4.0177
X3.2362Y-4.8425
X3.2795Y-5.0
X3.2963Y-4.75
X3.2982Y-2.9931
X3.3022Y-3.1191
X3.3022Y-3.8415
X3.3361Y-3.7505
X3.3401Y-4.5399
X3.3597Y-5.5871
X3.3622Y-2.5709
X3.3632Y-3.3868
X3.3878Y-3.0344
X3.3878Y-3.2854
X3.3878Y-4.0945
X3.3917Y-3.9606
X3.3959Y-4.925
X3.4213Y-4.0276
X3.4213Y-4.3248
X3.4306Y-3.5359
X3.4306Y-5.3863
X3.4469Y-5.5728
X3.4695Y-4.1742
X3.4705Y-5.2362
X3.4715Y-2.2844
X3.4744Y-2.2343
X3.4744Y-3.3366
X3.4764Y-4.123
X3.4764Y-5.187
X3.4882Y-3.4134
X3.4935Y-4.975
X3.4955Y-3.1352
X3.4955Y-5.025
X3.4959Y-4.2423
X3.497Y-4.0955
X3.498Y-5.4941
X3.499Y-2.5413
X3.5Y-3.6437
X3.5Y-3.7441
X3.501Y-4.4311
X3.5033Y-3.0852
X3.5157Y-4.5313
X3.5191Y-3.5144
X3.5191Y-3.8254
X3.5201Y-4.1992
X3.5201Y-5.8776
X3.5571Y-4.7539
X3.5785Y-2.6415
X3.5807Y-2.311
X3.5872Y-4.975
X3.5886Y-4.5315
X3.5888Y-3.386
X3.5888Y-3.7439
X3.5906Y-5.5728
X3.5925Y-4.1998
X3.6161Y-4.1752
X3.6171Y-3.4124
X3.6171Y-5.2628
X3.6194Y-2.9954
X3.6927Y-3.1852
X3.6927Y-4.075
X3.6927Y-5.075
X3.6978Y-2.2844
X3.6978Y-2.6407
X3.6998Y-5.5935
X3.7087Y-5.2165
X3.7657Y-3.5748
X3.7717Y-4.9941
X3.7717Y-5.315
X3.7758Y-3.0706
X3.7864Y-5.7096
X3.7923Y-4.9557
X3.7933Y-3.6024
X3.7992Y-5.1319
X3.8287Y-4.8012
X3.8346Y-2.5709
X3.8346Y-2.9272
X3.8656Y-2.3321
X3.8656Y-3.0852
X3.8661Y-3.2283
X3.8686Y-5.1855
X3.874Y-4.126
X3.8869Y-4.0109
X3.8878Y-5.3563
X3.9183Y-4.9163
X3.9193Y-4.7618
X3.9213Y-2.3996
X3.935Y-5.437
X3.935Y-5.5827
X3.9409Y-5.624
X3.9616Y-2.9065
X3.9673Y-3.0352
X3.9673Y-3.3858
X3.9673Y-3.9402
X3.9673Y-4.8425
X3.9673Y-5.1016
X3.9673Y-5.6898
X3.9685Y-5.1713
X3.9689Y-5.7398
X3.9701Y-5.7898
X3.9921Y-2.5709
X3.9921Y-4.9463
X4.0118Y-3.2283
X4.0138Y-5.5433
X4.0157Y-3.874
X4.0217Y-5.3593
X4.0221Y-4.1334
X4.0295Y-4.8012
X4.061Y-2.1575
X4.061Y-2.6555
X4.061Y-3.185
X4.061Y-3.4626
X4.061Y-3.7677
X4.061Y-4.0906
X4.061Y-4.6339
X4.061Y-4.9961
X4.061Y-5.5827
X4.061Y-5.8396
X4.1024Y-3.0
X4.1112Y-1.6624
X4.1132Y-4.8219
X4.1132Y-5.6604
X4.1142Y-3.2894
X4.1634Y-2.9705
X4.1634Y-3.1457
X4.1652Y-3.9407
X4.2087Y-4.876
X4.2146Y-5.689
X4.2165Y-4.9567
X4.2224Y-4.7618
X4.2244Y-2.8051
X4.2244Y-3.672
X4.2244Y-5.4043
X4.2254Y-5.0738
X4.2461Y-5.6083
X4.2646Y-2.8516
X4.2795Y-3.1713
X4.2795Y-5.1732
X4.2815Y-5.811
X4.3071Y-5.5669
X4.3071Y-5.7677
X4.3081Y-4.2667
X4.3091Y-3.4272
X4.311Y-4.815
X4.3248Y-3.7402
X4.372Y-4.6457
X4.376Y-3.9744
X4.3911Y-4.977
X4.3976Y-5.4724
X4.4033Y-3.386
X4.4094Y-4.6496
X4.4094Y-5.1024
X4.4333Y-3.2911
X4.4333Y-3.364
X4.4429Y-5.7933
X4.5276Y-4.9035
X4.5562Y-3.5582
X4.5807Y-4.6909
X4.5827Y-5.0433
X4.5833Y-4.1634
X4.626Y-5.4941
X4.6299Y-2.1181
X4.6299Y-2.2972
X4.6555Y-2.5256
X4.6594Y-2.3996
X4.6614Y-2.4626
X4.664Y-2.3321
X4.6791Y-2.9213
X4.6791Y-3.1752
X4.6831Y-3.9409
X4.6831Y-4.0492
X4.6831Y-5.4508
X4.6831Y-5.6673
X4.6833Y-3.2951
X4.6833Y-3.386
X4.6833Y-4.2423
X4.6833Y-4.9274
X4.6833Y-5.1222
X4.687Y-5.8425
X4.6998Y-4.7392
X4.7244Y-4.2126
X4.7339Y-5.2362
X4.7343Y-4.9154
X4.747Y-4.0187
X4.7525Y-3.0901
X4.7618Y-3.1614
X4.7618Y-3.3839
X4.7648Y-3.7589
X4.7657Y-3.4902
X4.7756Y-4.8898
X4.779Y-4.3844
X4.7798Y-1.9978
X4.7833Y-4.2482
X4.7833Y-5.1183
X4.7854Y-4.1634
X4.7874Y-4.8465
X4.7923Y-5.0423
X4.7933Y-4.0433
X4.815Y-5.5669
X4.8169Y-2.5256
X4.8486Y-2.2793
X4.8504Y-2.5472
X4.8504Y-3.0807
X4.8504Y-3.8977
X4.8504Y-4.8229
X4.8504Y-5.4941
X4.8533Y-2.3278
X4.8573Y-2.1368
X4.8661Y-5.5846
X4.8661Y-5.7264
X4.872Y-3.3268
X4.872Y-3.4902
X4.8878Y-3.7598
X4.8878Y-3.9429
X4.9016Y-1.6988
X4.9016Y-1.9803
X4.9055Y-4.1161
X4.9055Y-5.3976
X4.9252Y-3.25
X4.9331Y-5.0738
X4.939Y-2.5039
X4.9429Y-4.6181
X4.9439Y-4.0758
X4.9705Y-2.0571
X4.9715Y-1.8868
X5.0014Y-5.4474
X5.002Y-2.7264
X5.0077Y-5.6474
X5.0321Y-4.9463
X5.0335Y-5.1634
X5.0374Y-5.5433
X5.0435Y-2.1577
X5.0451Y-2.4293
X5.0463Y-3.1762
X5.0492Y-5.2343
X5.0551Y-2.0077
X5.0571Y-5.689
X5.065Y-3.5394
X5.065Y-4.6142
X5.065Y-4.7933
X5.0669Y-1.8563
X5.0974Y-1.9321
X5.1004Y-2.2461
X5.1004Y-4.6772
X5.1004Y-4.8268
X5.1004Y-5.0217
X5.1014Y-2.0876
X5.1063Y-1.8445
X5.1127Y-5.8155
X5.1165Y-5.5765
X5.126Y-5.7461
X5.1457Y-1.6988
X5.1457Y-1.7736
X5.1533Y-2.1577
X5.1535Y-3.3858
X5.1535Y-4.7933
X5.1639Y-3.5389
X5.1654Y-3.2382
X5.1693Y-5.75
X5.1831Y-2.5472
X5.189Y-4.5394
X5.1909Y-1.9134
X5.2028Y-2.7264
X5.2028Y-3.1378
X5.2067Y-5.4272
X5.2283Y-5.0551
X5.2303Y-4.2126
X5.2303Y-4.6654
X5.2323Y-1.8445
X5.2335Y-2.3512
X5.2343Y-3.0748
X5.2382Y-5.3012
X5.2584Y-5.6137
X5.2652Y-4.8766
X5.2697Y-4.7205
X5.2874Y-3.4626
X5.3287Y-5.6732
X5.3341Y-3.3156
X5.4065Y-4.7844
X5.4065Y-5.0108
X5.4081Y-4.5518
X5.4409Y-4.6654
X5.4409Y-4.7972
X5.4902Y-5.8327
X5.5295Y-3.0787
X5.5354Y-4.9744
T2
X2.4852Y-2.253
X2.4961Y-2.0443
X2.9862Y-1.9764
X3.1358Y-1.7776
X3.1358Y-1.9744
X3.3819Y-2.0433
X3.4567Y-1.7795
X4.0118Y-1.9193
X4.061Y-2.0413
X4.1102Y-1.9193
X4.1476Y-1.7795
X4.3307Y-1.7795
X4.3307Y-2.5984
X4.3839Y-2.0413
X5.0433Y-2.6004
T3
X4.315Y-3.1417
X4.315Y-3.2913
X4.315Y-4.0059
X4.315Y-4.1555
X4.315Y-4.8701
X4.315Y-5.0197
X4.9055Y-3.1417
X4.9055Y-3.2913
X4.9055Y-4.0059
X4.9055Y-4.1555
X4.9055Y-4.8701
X4.9055Y-5.0197
X4.9331Y-5.1299
X4.9331Y-5.7205
X5.0827Y-5.1299
X5.0827Y-5.7205
T4
X2.0787Y-1.9118
X2.0787Y-2.0118
X4.1122Y-2.7059
X4.1122Y-2.8059
X4.1122Y-3.572
X4.1122Y-3.672
X4.1122Y-4.4382
X4.1122Y-4.5382
X4.1122Y-5.3043
X4.1122Y-5.4043
T5
X3.1043Y-4.3449
X3.1043Y-4.4449
X4.4291Y-3.0315
X4.4291Y-3.8976
X4.4291Y-4.7638
X4.4291Y-5.6299
X4.5276Y-3.0315
X4.5276Y-3.8976
X4.5276Y-4.7638
X4.5276Y-5.6299
X4.626Y-3.0315
X4.626Y-3.8976
X4.626Y-4.7638
X4.626Y-5.6299
T6
X2.0673Y-2.6354
X2.0673Y-2.8764
X2.0673Y-3.5015
X2.0673Y-3.7426
X2.0673Y-4.3677
X2.0673Y-4.6087
X2.0673Y-5.2338
X2.0673Y-5.4749
X2.2377Y-2.4649
X2.2377Y-3.0469
X2.2377Y-3.3311
X2.2377Y-3.913
X2.2377Y-4.1972
X2.2377Y-4.7792
X2.2377Y-5.0633
X2.2377Y-5.6453
X2.2539Y-2.7559
X2.2539Y-3.622
X2.2539Y-4.4882
X2.2539Y-5.3543
X2.4788Y-2.4649
X2.4788Y-3.0469
X2.4788Y-3.3311
X2.4788Y-3.913
X2.4788Y-4.1972
X2.4788Y-4.7792
X2.4788Y-5.0633
X2.4788Y-5.6453
X2.6493Y-2.6354
X2.6493Y-2.8764
X2.6493Y-3.5015
X2.6493Y-3.7426
X2.6493Y-4.3677
X2.6493Y-4.6087
X2.6493Y-5.2338
X2.6493Y-5.4749
T7
X1.7827Y-5.7854
X2.0689Y-1.6949
X2.6437Y-4.0551
X2.6772Y-5.7854
X2.9114Y-5.7854
X3.1437Y-3.2618
X4.9764Y-3.689
X5.3217Y-5.7854
X5.4528Y-2.374
X5.4528Y-3.2146
X5.4528Y-4.0689
X5.4724Y-1.6614
T8
X2.8858Y-2.5709
X2.8858Y-2.7559
X2.8858Y-2.9409
X2.8858Y-3.437
X2.8858Y-3.622
X2.8858Y-3.8071
X2.8858Y-4.3031
X2.8858Y-4.4882
X2.8858Y-4.6732
X2.8858Y-5.1693
X2.8858Y-5.3543
X2.8858Y-5.5394
T3
G00X1.7677Y-1.7748
M15
G01X1.8071Y-1.7748
M16
G05
G00X1.7677Y-2.1016
M15
G01X1.8071Y-2.1016
M16
G05
G00X1.7677Y-2.2236
M15
G01X1.8071Y-2.2236
M16
G05
G00X1.7677Y-2.5622
M15
G01X1.8071Y-2.5622
M16
G05
G00X1.7677Y-2.889
M15
G01X1.8071Y-2.889
M16
G05
G00X1.7677Y-3.011
M15
G01X1.8071Y-3.011
M16
G05
G00X1.7677Y-3.4283
M15
G01X1.8071Y-3.4283
M16
G05
G00X1.7677Y-3.7551
M15
G01X1.8071Y-3.7551
M16
G05
G00X1.7677Y-3.8772
M15
G01X1.8071Y-3.8772
M16
G05
G00X1.7677Y-4.2945
M15
G01X1.8071Y-4.2945
M16
G05
G00X1.7677Y-4.6213
M15
G01X1.8071Y-4.6213
M16
G05
G00X1.7677Y-4.7433
M15
G01X1.8071Y-4.7433
M16
G05
G00X1.7677Y-5.1606
M15
G01X1.8071Y-5.1606
M16
G05
G00X1.7677Y-5.4874
M15
G01X1.8071Y-5.4874
M16
G05
G00X1.7677Y-5.6094
M15
G01X1.8071Y-5.6094
M16
G05
G00X5.3346Y-1.7748
M15
G01X5.374Y-1.7748
M16
G05
G00X5.3346Y-2.1016
M15
G01X5.374Y-2.1016
M16
G05
G00X5.3346Y-2.2236
M15
G01X5.374Y-2.2236
M16
G05
G00X5.3346Y-2.5622
M15
G01X5.374Y-2.5622
M16
G05
G00X5.3346Y-2.889
M15
G01X5.374Y-2.889
M16
G05
G00X5.3346Y-3.011
M15
G01X5.374Y-3.011
M16
G05
G00X5.3346Y-3.4283
M15
G01X5.374Y-3.4283
M16
G05
G00X5.3346Y-3.7551
M15
G01X5.374Y-3.7551
M16
G05
G00X5.3346Y-3.8772
M15
G01X5.374Y-3.8772
M16
G05
G00X5.3346Y-4.2945
M15
G01X5.374Y-4.2945
M16
G05
G00X5.3346Y-4.6213
M15
G01X5.374Y-4.6213
M16
G05
G00X5.3346Y-4.7433
M15
G01X5.374Y-4.7433
M16
G05
G00X5.3346Y-5.1606
M15
G01X5.374Y-5.1606
M16
G05
G00X5.3346Y-5.4874
M15
G01X5.374Y-5.4874
M16
G05
G00X5.3346Y-5.6094
M15
G01X5.374Y-5.6094
M16
G05
T0
M30
