%TF.GenerationSoftware,KiCad,Pcbnew,(6.0.1)*%
%TF.CreationDate,2024-01-20T17:46:19-08:00*%
%TF.ProjectId,main,6d61696e-2e6b-4696-9361-645f70636258,rev?*%
%TF.SameCoordinates,Original*%
%TF.FileFunction,Legend,Top*%
%TF.FilePolarity,Positive*%
%FSLAX46Y46*%
G04 Gerber Fmt 4.6, Leading zero omitted, Abs format (unit mm)*
G04 Created by KiCad (PCBNEW (6.0.1)) date 2024-01-20 17:46:19*
%MOMM*%
%LPD*%
G01*
G04 APERTURE LIST*
%ADD10C,0.150000*%
%ADD11C,0.300000*%
%ADD12C,0.100000*%
%ADD13C,0.120000*%
%ADD14C,0.200000*%
%ADD15C,0.010000*%
G04 APERTURE END LIST*
D10*
X97271428Y-44385714D02*
X97509523Y-45052380D01*
X97747619Y-44385714D01*
X98319047Y-44052380D02*
X98414285Y-44052380D01*
X98509523Y-44100000D01*
X98557142Y-44147619D01*
X98604761Y-44242857D01*
X98652380Y-44433333D01*
X98652380Y-44671428D01*
X98604761Y-44861904D01*
X98557142Y-44957142D01*
X98509523Y-45004761D01*
X98414285Y-45052380D01*
X98319047Y-45052380D01*
X98223809Y-45004761D01*
X98176190Y-44957142D01*
X98128571Y-44861904D01*
X98080952Y-44671428D01*
X98080952Y-44433333D01*
X98128571Y-44242857D01*
X98176190Y-44147619D01*
X98223809Y-44100000D01*
X98319047Y-44052380D01*
X99080952Y-44957142D02*
X99128571Y-45004761D01*
X99080952Y-45052380D01*
X99033333Y-45004761D01*
X99080952Y-44957142D01*
X99080952Y-45052380D01*
X99747619Y-44052380D02*
X99842857Y-44052380D01*
X99938095Y-44100000D01*
X99985714Y-44147619D01*
X100033333Y-44242857D01*
X100080952Y-44433333D01*
X100080952Y-44671428D01*
X100033333Y-44861904D01*
X99985714Y-44957142D01*
X99938095Y-45004761D01*
X99842857Y-45052380D01*
X99747619Y-45052380D01*
X99652380Y-45004761D01*
X99604761Y-44957142D01*
X99557142Y-44861904D01*
X99509523Y-44671428D01*
X99509523Y-44433333D01*
X99557142Y-44242857D01*
X99604761Y-44147619D01*
X99652380Y-44100000D01*
X99747619Y-44052380D01*
D11*
X83028571Y-40850000D02*
X82885714Y-40778571D01*
X82671428Y-40778571D01*
X82457142Y-40850000D01*
X82314285Y-40992857D01*
X82242857Y-41135714D01*
X82171428Y-41421428D01*
X82171428Y-41635714D01*
X82242857Y-41921428D01*
X82314285Y-42064285D01*
X82457142Y-42207142D01*
X82671428Y-42278571D01*
X82814285Y-42278571D01*
X83028571Y-42207142D01*
X83100000Y-42135714D01*
X83100000Y-41635714D01*
X82814285Y-41635714D01*
X83742857Y-42278571D02*
X83742857Y-41278571D01*
X83742857Y-41564285D02*
X83814285Y-41421428D01*
X83885714Y-41350000D01*
X84028571Y-41278571D01*
X84171428Y-41278571D01*
X85242857Y-42207142D02*
X85100000Y-42278571D01*
X84814285Y-42278571D01*
X84671428Y-42207142D01*
X84600000Y-42064285D01*
X84600000Y-41492857D01*
X84671428Y-41350000D01*
X84814285Y-41278571D01*
X85100000Y-41278571D01*
X85242857Y-41350000D01*
X85314285Y-41492857D01*
X85314285Y-41635714D01*
X84600000Y-41778571D01*
X86528571Y-42207142D02*
X86385714Y-42278571D01*
X86100000Y-42278571D01*
X85957142Y-42207142D01*
X85885714Y-42064285D01*
X85885714Y-41492857D01*
X85957142Y-41350000D01*
X86100000Y-41278571D01*
X86385714Y-41278571D01*
X86528571Y-41350000D01*
X86600000Y-41492857D01*
X86600000Y-41635714D01*
X85885714Y-41778571D01*
X87242857Y-41278571D02*
X87242857Y-42278571D01*
X87242857Y-41421428D02*
X87314285Y-41350000D01*
X87457142Y-41278571D01*
X87671428Y-41278571D01*
X87814285Y-41350000D01*
X87885714Y-41492857D01*
X87885714Y-42278571D01*
X88385714Y-41278571D02*
X88957142Y-41278571D01*
X88600000Y-42278571D02*
X88600000Y-40992857D01*
X88671428Y-40850000D01*
X88814285Y-40778571D01*
X88957142Y-40778571D01*
X90100000Y-42278571D02*
X90100000Y-41492857D01*
X90028571Y-41350000D01*
X89885714Y-41278571D01*
X89600000Y-41278571D01*
X89457142Y-41350000D01*
X90100000Y-42207142D02*
X89957142Y-42278571D01*
X89600000Y-42278571D01*
X89457142Y-42207142D01*
X89385714Y-42064285D01*
X89385714Y-41921428D01*
X89457142Y-41778571D01*
X89600000Y-41707142D01*
X89957142Y-41707142D01*
X90100000Y-41635714D01*
X91457142Y-42207142D02*
X91314285Y-42278571D01*
X91028571Y-42278571D01*
X90885714Y-42207142D01*
X90814285Y-42135714D01*
X90742857Y-41992857D01*
X90742857Y-41564285D01*
X90814285Y-41421428D01*
X90885714Y-41350000D01*
X91028571Y-41278571D01*
X91314285Y-41278571D01*
X91457142Y-41350000D01*
X92671428Y-42207142D02*
X92528571Y-42278571D01*
X92242857Y-42278571D01*
X92100000Y-42207142D01*
X92028571Y-42064285D01*
X92028571Y-41492857D01*
X92100000Y-41350000D01*
X92242857Y-41278571D01*
X92528571Y-41278571D01*
X92671428Y-41350000D01*
X92742857Y-41492857D01*
X92742857Y-41635714D01*
X92028571Y-41778571D01*
X95242857Y-42278571D02*
X94528571Y-42278571D01*
X94528571Y-40778571D01*
X96385714Y-42278571D02*
X96385714Y-41492857D01*
X96314285Y-41350000D01*
X96171428Y-41278571D01*
X95885714Y-41278571D01*
X95742857Y-41350000D01*
X96385714Y-42207142D02*
X96242857Y-42278571D01*
X95885714Y-42278571D01*
X95742857Y-42207142D01*
X95671428Y-42064285D01*
X95671428Y-41921428D01*
X95742857Y-41778571D01*
X95885714Y-41707142D01*
X96242857Y-41707142D01*
X96385714Y-41635714D01*
X97100000Y-42278571D02*
X97100000Y-40778571D01*
X97100000Y-41350000D02*
X97242857Y-41278571D01*
X97528571Y-41278571D01*
X97671428Y-41350000D01*
X97742857Y-41421428D01*
X97814285Y-41564285D01*
X97814285Y-41992857D01*
X97742857Y-42135714D01*
X97671428Y-42207142D01*
X97528571Y-42278571D01*
X97242857Y-42278571D01*
X97100000Y-42207142D01*
X98385714Y-42207142D02*
X98528571Y-42278571D01*
X98814285Y-42278571D01*
X98957142Y-42207142D01*
X99028571Y-42064285D01*
X99028571Y-41992857D01*
X98957142Y-41850000D01*
X98814285Y-41778571D01*
X98600000Y-41778571D01*
X98457142Y-41707142D01*
X98385714Y-41564285D01*
X98385714Y-41492857D01*
X98457142Y-41350000D01*
X98600000Y-41278571D01*
X98814285Y-41278571D01*
X98957142Y-41350000D01*
X83528571Y-43378571D02*
X83528571Y-43664285D01*
X84100000Y-43378571D02*
X84100000Y-43664285D01*
X84528571Y-43378571D02*
X85385714Y-43378571D01*
X84957142Y-44878571D02*
X84957142Y-43378571D01*
X85742857Y-43878571D02*
X86028571Y-44878571D01*
X86314285Y-44164285D01*
X86600000Y-44878571D01*
X86885714Y-43878571D01*
X88100000Y-44878571D02*
X88100000Y-44092857D01*
X88028571Y-43950000D01*
X87885714Y-43878571D01*
X87600000Y-43878571D01*
X87457142Y-43950000D01*
X88100000Y-44807142D02*
X87957142Y-44878571D01*
X87600000Y-44878571D01*
X87457142Y-44807142D01*
X87385714Y-44664285D01*
X87385714Y-44521428D01*
X87457142Y-44378571D01*
X87600000Y-44307142D01*
X87957142Y-44307142D01*
X88100000Y-44235714D01*
X88814285Y-43878571D02*
X88814285Y-44878571D01*
X88814285Y-44021428D02*
X88885714Y-43950000D01*
X89028571Y-43878571D01*
X89242857Y-43878571D01*
X89385714Y-43950000D01*
X89457142Y-44092857D01*
X89457142Y-44878571D01*
X90814285Y-43878571D02*
X90814285Y-45092857D01*
X90742857Y-45235714D01*
X90671428Y-45307142D01*
X90528571Y-45378571D01*
X90314285Y-45378571D01*
X90171428Y-45307142D01*
X90814285Y-44807142D02*
X90671428Y-44878571D01*
X90385714Y-44878571D01*
X90242857Y-44807142D01*
X90171428Y-44735714D01*
X90100000Y-44592857D01*
X90100000Y-44164285D01*
X90171428Y-44021428D01*
X90242857Y-43950000D01*
X90385714Y-43878571D01*
X90671428Y-43878571D01*
X90814285Y-43950000D01*
X91528571Y-44878571D02*
X91528571Y-43878571D01*
X91528571Y-43378571D02*
X91457142Y-43450000D01*
X91528571Y-43521428D01*
X91600000Y-43450000D01*
X91528571Y-43378571D01*
X91528571Y-43521428D01*
X92457142Y-44878571D02*
X92314285Y-44807142D01*
X92242857Y-44664285D01*
X92242857Y-43378571D01*
X93028571Y-44878571D02*
X93028571Y-43878571D01*
X93028571Y-43378571D02*
X92957142Y-43450000D01*
X93028571Y-43521428D01*
X93100000Y-43450000D01*
X93028571Y-43378571D01*
X93028571Y-43521428D01*
X93600000Y-43878571D02*
X94385714Y-43878571D01*
X93600000Y-44878571D01*
X94385714Y-44878571D01*
X95528571Y-44807142D02*
X95385714Y-44878571D01*
X95100000Y-44878571D01*
X94957142Y-44807142D01*
X94885714Y-44664285D01*
X94885714Y-44092857D01*
X94957142Y-43950000D01*
X95100000Y-43878571D01*
X95385714Y-43878571D01*
X95528571Y-43950000D01*
X95600000Y-44092857D01*
X95600000Y-44235714D01*
X94885714Y-44378571D01*
X96242857Y-44878571D02*
X96242857Y-43878571D01*
X96242857Y-44164285D02*
X96314285Y-44021428D01*
X96385714Y-43950000D01*
X96528571Y-43878571D01*
X96671428Y-43878571D01*
X97100000Y-43378571D02*
X97100000Y-43664285D01*
X97671428Y-43378571D02*
X97671428Y-43664285D01*
D10*
%TO.C,SW7*%
X72166666Y-128754761D02*
X72309523Y-128802380D01*
X72547619Y-128802380D01*
X72642857Y-128754761D01*
X72690476Y-128707142D01*
X72738095Y-128611904D01*
X72738095Y-128516666D01*
X72690476Y-128421428D01*
X72642857Y-128373809D01*
X72547619Y-128326190D01*
X72357142Y-128278571D01*
X72261904Y-128230952D01*
X72214285Y-128183333D01*
X72166666Y-128088095D01*
X72166666Y-127992857D01*
X72214285Y-127897619D01*
X72261904Y-127850000D01*
X72357142Y-127802380D01*
X72595238Y-127802380D01*
X72738095Y-127850000D01*
X73071428Y-127802380D02*
X73309523Y-128802380D01*
X73500000Y-128088095D01*
X73690476Y-128802380D01*
X73928571Y-127802380D01*
X74214285Y-127802380D02*
X74880952Y-127802380D01*
X74452380Y-128802380D01*
%TO.C,U35*%
X109211904Y-103352380D02*
X109211904Y-104161904D01*
X109259523Y-104257142D01*
X109307142Y-104304761D01*
X109402380Y-104352380D01*
X109592857Y-104352380D01*
X109688095Y-104304761D01*
X109735714Y-104257142D01*
X109783333Y-104161904D01*
X109783333Y-103352380D01*
X110164285Y-103352380D02*
X110783333Y-103352380D01*
X110450000Y-103733333D01*
X110592857Y-103733333D01*
X110688095Y-103780952D01*
X110735714Y-103828571D01*
X110783333Y-103923809D01*
X110783333Y-104161904D01*
X110735714Y-104257142D01*
X110688095Y-104304761D01*
X110592857Y-104352380D01*
X110307142Y-104352380D01*
X110211904Y-104304761D01*
X110164285Y-104257142D01*
X111688095Y-103352380D02*
X111211904Y-103352380D01*
X111164285Y-103828571D01*
X111211904Y-103780952D01*
X111307142Y-103733333D01*
X111545238Y-103733333D01*
X111640476Y-103780952D01*
X111688095Y-103828571D01*
X111735714Y-103923809D01*
X111735714Y-104161904D01*
X111688095Y-104257142D01*
X111640476Y-104304761D01*
X111545238Y-104352380D01*
X111307142Y-104352380D01*
X111211904Y-104304761D01*
X111164285Y-104257142D01*
%TO.C,RV10*%
X108052380Y-66721428D02*
X107576190Y-67054761D01*
X108052380Y-67292857D02*
X107052380Y-67292857D01*
X107052380Y-66911904D01*
X107100000Y-66816666D01*
X107147619Y-66769047D01*
X107242857Y-66721428D01*
X107385714Y-66721428D01*
X107480952Y-66769047D01*
X107528571Y-66816666D01*
X107576190Y-66911904D01*
X107576190Y-67292857D01*
X107052380Y-66435714D02*
X108052380Y-66102380D01*
X107052380Y-65769047D01*
X108052380Y-64911904D02*
X108052380Y-65483333D01*
X108052380Y-65197619D02*
X107052380Y-65197619D01*
X107195238Y-65292857D01*
X107290476Y-65388095D01*
X107338095Y-65483333D01*
X107052380Y-64292857D02*
X107052380Y-64197619D01*
X107100000Y-64102380D01*
X107147619Y-64054761D01*
X107242857Y-64007142D01*
X107433333Y-63959523D01*
X107671428Y-63959523D01*
X107861904Y-64007142D01*
X107957142Y-64054761D01*
X108004761Y-64102380D01*
X108052380Y-64197619D01*
X108052380Y-64292857D01*
X108004761Y-64388095D01*
X107957142Y-64435714D01*
X107861904Y-64483333D01*
X107671428Y-64530952D01*
X107433333Y-64530952D01*
X107242857Y-64483333D01*
X107147619Y-64435714D01*
X107100000Y-64388095D01*
X107052380Y-64292857D01*
%TO.C,SW4*%
X72066666Y-63154761D02*
X72209523Y-63202380D01*
X72447619Y-63202380D01*
X72542857Y-63154761D01*
X72590476Y-63107142D01*
X72638095Y-63011904D01*
X72638095Y-62916666D01*
X72590476Y-62821428D01*
X72542857Y-62773809D01*
X72447619Y-62726190D01*
X72257142Y-62678571D01*
X72161904Y-62630952D01*
X72114285Y-62583333D01*
X72066666Y-62488095D01*
X72066666Y-62392857D01*
X72114285Y-62297619D01*
X72161904Y-62250000D01*
X72257142Y-62202380D01*
X72495238Y-62202380D01*
X72638095Y-62250000D01*
X72971428Y-62202380D02*
X73209523Y-63202380D01*
X73400000Y-62488095D01*
X73590476Y-63202380D01*
X73828571Y-62202380D01*
X74638095Y-62535714D02*
X74638095Y-63202380D01*
X74400000Y-62154761D02*
X74161904Y-62869047D01*
X74780952Y-62869047D01*
%TO.C,SW2*%
X62667111Y-80164565D02*
X62817317Y-80153891D01*
X63037288Y-80062775D01*
X63107053Y-79982335D01*
X63132825Y-79920118D01*
X63140373Y-79813906D01*
X63103927Y-79725918D01*
X63023487Y-79656152D01*
X62961269Y-79630381D01*
X62855058Y-79622833D01*
X62660858Y-79651731D01*
X62554646Y-79644182D01*
X62492429Y-79618411D01*
X62411989Y-79548646D01*
X62375542Y-79460657D01*
X62383091Y-79354446D01*
X62408862Y-79292228D01*
X62478627Y-79211788D01*
X62698599Y-79120673D01*
X62848805Y-79109998D01*
X63138541Y-78938443D02*
X63741196Y-79771207D01*
X63643828Y-79038401D01*
X64093150Y-79625423D01*
X63930438Y-78610428D01*
X64274844Y-78570856D02*
X64300615Y-78508638D01*
X64370381Y-78428198D01*
X64590352Y-78337083D01*
X64696564Y-78344631D01*
X64758781Y-78370402D01*
X64839221Y-78440168D01*
X64875667Y-78528156D01*
X64886342Y-78678362D01*
X64577087Y-79424970D01*
X65149013Y-79188070D01*
%TO.C,RV11*%
X108052380Y-110671428D02*
X107576190Y-111004761D01*
X108052380Y-111242857D02*
X107052380Y-111242857D01*
X107052380Y-110861904D01*
X107100000Y-110766666D01*
X107147619Y-110719047D01*
X107242857Y-110671428D01*
X107385714Y-110671428D01*
X107480952Y-110719047D01*
X107528571Y-110766666D01*
X107576190Y-110861904D01*
X107576190Y-111242857D01*
X107052380Y-110385714D02*
X108052380Y-110052380D01*
X107052380Y-109719047D01*
X108052380Y-108861904D02*
X108052380Y-109433333D01*
X108052380Y-109147619D02*
X107052380Y-109147619D01*
X107195238Y-109242857D01*
X107290476Y-109338095D01*
X107338095Y-109433333D01*
X108052380Y-107909523D02*
X108052380Y-108480952D01*
X108052380Y-108195238D02*
X107052380Y-108195238D01*
X107195238Y-108290476D01*
X107290476Y-108385714D01*
X107338095Y-108480952D01*
%TO.C,D16*%
X52085714Y-47202380D02*
X52085714Y-46202380D01*
X52323809Y-46202380D01*
X52466666Y-46250000D01*
X52561904Y-46345238D01*
X52609523Y-46440476D01*
X52657142Y-46630952D01*
X52657142Y-46773809D01*
X52609523Y-46964285D01*
X52561904Y-47059523D01*
X52466666Y-47154761D01*
X52323809Y-47202380D01*
X52085714Y-47202380D01*
X53609523Y-47202380D02*
X53038095Y-47202380D01*
X53323809Y-47202380D02*
X53323809Y-46202380D01*
X53228571Y-46345238D01*
X53133333Y-46440476D01*
X53038095Y-46488095D01*
X54466666Y-46202380D02*
X54276190Y-46202380D01*
X54180952Y-46250000D01*
X54133333Y-46297619D01*
X54038095Y-46440476D01*
X53990476Y-46630952D01*
X53990476Y-47011904D01*
X54038095Y-47107142D01*
X54085714Y-47154761D01*
X54180952Y-47202380D01*
X54371428Y-47202380D01*
X54466666Y-47154761D01*
X54514285Y-47107142D01*
X54561904Y-47011904D01*
X54561904Y-46773809D01*
X54514285Y-46678571D01*
X54466666Y-46630952D01*
X54371428Y-46583333D01*
X54180952Y-46583333D01*
X54085714Y-46630952D01*
X54038095Y-46678571D01*
X53990476Y-46773809D01*
%TO.C,J2*%
X42566666Y-62652380D02*
X42566666Y-63366666D01*
X42519047Y-63509523D01*
X42423809Y-63604761D01*
X42280952Y-63652380D01*
X42185714Y-63652380D01*
X42995238Y-62747619D02*
X43042857Y-62700000D01*
X43138095Y-62652380D01*
X43376190Y-62652380D01*
X43471428Y-62700000D01*
X43519047Y-62747619D01*
X43566666Y-62842857D01*
X43566666Y-62938095D01*
X43519047Y-63080952D01*
X42947619Y-63652380D01*
X43566666Y-63652380D01*
%TO.C,D26*%
X101942380Y-71214285D02*
X100942380Y-71214285D01*
X100942380Y-70976190D01*
X100990000Y-70833333D01*
X101085238Y-70738095D01*
X101180476Y-70690476D01*
X101370952Y-70642857D01*
X101513809Y-70642857D01*
X101704285Y-70690476D01*
X101799523Y-70738095D01*
X101894761Y-70833333D01*
X101942380Y-70976190D01*
X101942380Y-71214285D01*
X101037619Y-70261904D02*
X100990000Y-70214285D01*
X100942380Y-70119047D01*
X100942380Y-69880952D01*
X100990000Y-69785714D01*
X101037619Y-69738095D01*
X101132857Y-69690476D01*
X101228095Y-69690476D01*
X101370952Y-69738095D01*
X101942380Y-70309523D01*
X101942380Y-69690476D01*
X100942380Y-68833333D02*
X100942380Y-69023809D01*
X100990000Y-69119047D01*
X101037619Y-69166666D01*
X101180476Y-69261904D01*
X101370952Y-69309523D01*
X101751904Y-69309523D01*
X101847142Y-69261904D01*
X101894761Y-69214285D01*
X101942380Y-69119047D01*
X101942380Y-68928571D01*
X101894761Y-68833333D01*
X101847142Y-68785714D01*
X101751904Y-68738095D01*
X101513809Y-68738095D01*
X101418571Y-68785714D01*
X101370952Y-68833333D01*
X101323333Y-68928571D01*
X101323333Y-69119047D01*
X101370952Y-69214285D01*
X101418571Y-69261904D01*
X101513809Y-69309523D01*
%TO.C,RV14*%
X108002380Y-88521428D02*
X107526190Y-88854761D01*
X108002380Y-89092857D02*
X107002380Y-89092857D01*
X107002380Y-88711904D01*
X107050000Y-88616666D01*
X107097619Y-88569047D01*
X107192857Y-88521428D01*
X107335714Y-88521428D01*
X107430952Y-88569047D01*
X107478571Y-88616666D01*
X107526190Y-88711904D01*
X107526190Y-89092857D01*
X107002380Y-88235714D02*
X108002380Y-87902380D01*
X107002380Y-87569047D01*
X108002380Y-86711904D02*
X108002380Y-87283333D01*
X108002380Y-86997619D02*
X107002380Y-86997619D01*
X107145238Y-87092857D01*
X107240476Y-87188095D01*
X107288095Y-87283333D01*
X107335714Y-85854761D02*
X108002380Y-85854761D01*
X106954761Y-86092857D02*
X107669047Y-86330952D01*
X107669047Y-85711904D01*
%TO.C,D28*%
X101942380Y-93214285D02*
X100942380Y-93214285D01*
X100942380Y-92976190D01*
X100990000Y-92833333D01*
X101085238Y-92738095D01*
X101180476Y-92690476D01*
X101370952Y-92642857D01*
X101513809Y-92642857D01*
X101704285Y-92690476D01*
X101799523Y-92738095D01*
X101894761Y-92833333D01*
X101942380Y-92976190D01*
X101942380Y-93214285D01*
X101037619Y-92261904D02*
X100990000Y-92214285D01*
X100942380Y-92119047D01*
X100942380Y-91880952D01*
X100990000Y-91785714D01*
X101037619Y-91738095D01*
X101132857Y-91690476D01*
X101228095Y-91690476D01*
X101370952Y-91738095D01*
X101942380Y-92309523D01*
X101942380Y-91690476D01*
X101370952Y-91119047D02*
X101323333Y-91214285D01*
X101275714Y-91261904D01*
X101180476Y-91309523D01*
X101132857Y-91309523D01*
X101037619Y-91261904D01*
X100990000Y-91214285D01*
X100942380Y-91119047D01*
X100942380Y-90928571D01*
X100990000Y-90833333D01*
X101037619Y-90785714D01*
X101132857Y-90738095D01*
X101180476Y-90738095D01*
X101275714Y-90785714D01*
X101323333Y-90833333D01*
X101370952Y-90928571D01*
X101370952Y-91119047D01*
X101418571Y-91214285D01*
X101466190Y-91261904D01*
X101561428Y-91309523D01*
X101751904Y-91309523D01*
X101847142Y-91261904D01*
X101894761Y-91214285D01*
X101942380Y-91119047D01*
X101942380Y-90928571D01*
X101894761Y-90833333D01*
X101847142Y-90785714D01*
X101751904Y-90738095D01*
X101561428Y-90738095D01*
X101466190Y-90785714D01*
X101418571Y-90833333D01*
X101370952Y-90928571D01*
%TO.C,D27*%
X101942380Y-137214285D02*
X100942380Y-137214285D01*
X100942380Y-136976190D01*
X100990000Y-136833333D01*
X101085238Y-136738095D01*
X101180476Y-136690476D01*
X101370952Y-136642857D01*
X101513809Y-136642857D01*
X101704285Y-136690476D01*
X101799523Y-136738095D01*
X101894761Y-136833333D01*
X101942380Y-136976190D01*
X101942380Y-137214285D01*
X101037619Y-136261904D02*
X100990000Y-136214285D01*
X100942380Y-136119047D01*
X100942380Y-135880952D01*
X100990000Y-135785714D01*
X101037619Y-135738095D01*
X101132857Y-135690476D01*
X101228095Y-135690476D01*
X101370952Y-135738095D01*
X101942380Y-136309523D01*
X101942380Y-135690476D01*
X100942380Y-135357142D02*
X100942380Y-134690476D01*
X101942380Y-135119047D01*
%TO.C,J9*%
X133166666Y-62652380D02*
X133166666Y-63366666D01*
X133119047Y-63509523D01*
X133023809Y-63604761D01*
X132880952Y-63652380D01*
X132785714Y-63652380D01*
X133690476Y-63652380D02*
X133880952Y-63652380D01*
X133976190Y-63604761D01*
X134023809Y-63557142D01*
X134119047Y-63414285D01*
X134166666Y-63223809D01*
X134166666Y-62842857D01*
X134119047Y-62747619D01*
X134071428Y-62700000D01*
X133976190Y-62652380D01*
X133785714Y-62652380D01*
X133690476Y-62700000D01*
X133642857Y-62747619D01*
X133595238Y-62842857D01*
X133595238Y-63080952D01*
X133642857Y-63176190D01*
X133690476Y-63223809D01*
X133785714Y-63271428D01*
X133976190Y-63271428D01*
X134071428Y-63223809D01*
X134119047Y-63176190D01*
X134166666Y-63080952D01*
%TO.C,SW6*%
X72091666Y-85154761D02*
X72234523Y-85202380D01*
X72472619Y-85202380D01*
X72567857Y-85154761D01*
X72615476Y-85107142D01*
X72663095Y-85011904D01*
X72663095Y-84916666D01*
X72615476Y-84821428D01*
X72567857Y-84773809D01*
X72472619Y-84726190D01*
X72282142Y-84678571D01*
X72186904Y-84630952D01*
X72139285Y-84583333D01*
X72091666Y-84488095D01*
X72091666Y-84392857D01*
X72139285Y-84297619D01*
X72186904Y-84250000D01*
X72282142Y-84202380D01*
X72520238Y-84202380D01*
X72663095Y-84250000D01*
X72996428Y-84202380D02*
X73234523Y-85202380D01*
X73425000Y-84488095D01*
X73615476Y-85202380D01*
X73853571Y-84202380D01*
X74663095Y-84202380D02*
X74472619Y-84202380D01*
X74377380Y-84250000D01*
X74329761Y-84297619D01*
X74234523Y-84440476D01*
X74186904Y-84630952D01*
X74186904Y-85011904D01*
X74234523Y-85107142D01*
X74282142Y-85154761D01*
X74377380Y-85202380D01*
X74567857Y-85202380D01*
X74663095Y-85154761D01*
X74710714Y-85107142D01*
X74758333Y-85011904D01*
X74758333Y-84773809D01*
X74710714Y-84678571D01*
X74663095Y-84630952D01*
X74567857Y-84583333D01*
X74377380Y-84583333D01*
X74282142Y-84630952D01*
X74234523Y-84678571D01*
X74186904Y-84773809D01*
%TO.C,J3*%
X42566666Y-84652380D02*
X42566666Y-85366666D01*
X42519047Y-85509523D01*
X42423809Y-85604761D01*
X42280952Y-85652380D01*
X42185714Y-85652380D01*
X42947619Y-84652380D02*
X43566666Y-84652380D01*
X43233333Y-85033333D01*
X43376190Y-85033333D01*
X43471428Y-85080952D01*
X43519047Y-85128571D01*
X43566666Y-85223809D01*
X43566666Y-85461904D01*
X43519047Y-85557142D01*
X43471428Y-85604761D01*
X43376190Y-85652380D01*
X43090476Y-85652380D01*
X42995238Y-85604761D01*
X42947619Y-85557142D01*
%TO.C,D25*%
X101942380Y-115214285D02*
X100942380Y-115214285D01*
X100942380Y-114976190D01*
X100990000Y-114833333D01*
X101085238Y-114738095D01*
X101180476Y-114690476D01*
X101370952Y-114642857D01*
X101513809Y-114642857D01*
X101704285Y-114690476D01*
X101799523Y-114738095D01*
X101894761Y-114833333D01*
X101942380Y-114976190D01*
X101942380Y-115214285D01*
X101037619Y-114261904D02*
X100990000Y-114214285D01*
X100942380Y-114119047D01*
X100942380Y-113880952D01*
X100990000Y-113785714D01*
X101037619Y-113738095D01*
X101132857Y-113690476D01*
X101228095Y-113690476D01*
X101370952Y-113738095D01*
X101942380Y-114309523D01*
X101942380Y-113690476D01*
X100942380Y-112785714D02*
X100942380Y-113261904D01*
X101418571Y-113309523D01*
X101370952Y-113261904D01*
X101323333Y-113166666D01*
X101323333Y-112928571D01*
X101370952Y-112833333D01*
X101418571Y-112785714D01*
X101513809Y-112738095D01*
X101751904Y-112738095D01*
X101847142Y-112785714D01*
X101894761Y-112833333D01*
X101942380Y-112928571D01*
X101942380Y-113166666D01*
X101894761Y-113261904D01*
X101847142Y-113309523D01*
%TO.C,SW8*%
X62667111Y-146164565D02*
X62817317Y-146153891D01*
X63037288Y-146062775D01*
X63107053Y-145982335D01*
X63132825Y-145920118D01*
X63140373Y-145813906D01*
X63103927Y-145725918D01*
X63023487Y-145656152D01*
X62961269Y-145630381D01*
X62855058Y-145622833D01*
X62660858Y-145651731D01*
X62554646Y-145644182D01*
X62492429Y-145618411D01*
X62411989Y-145548646D01*
X62375542Y-145460657D01*
X62383091Y-145354446D01*
X62408862Y-145292228D01*
X62478627Y-145211788D01*
X62698599Y-145120673D01*
X62848805Y-145109998D01*
X63138541Y-144938443D02*
X63741196Y-145771207D01*
X63643828Y-145038401D01*
X64093150Y-145625423D01*
X63930438Y-144610428D01*
X64578382Y-144805923D02*
X64472171Y-144798375D01*
X64409953Y-144772604D01*
X64329513Y-144702838D01*
X64311290Y-144658844D01*
X64318838Y-144552633D01*
X64344610Y-144490415D01*
X64414375Y-144409975D01*
X64590352Y-144337083D01*
X64696564Y-144344631D01*
X64758781Y-144370402D01*
X64839221Y-144440168D01*
X64857444Y-144484162D01*
X64849896Y-144590374D01*
X64824125Y-144652591D01*
X64754359Y-144733031D01*
X64578382Y-144805923D01*
X64508617Y-144886364D01*
X64482845Y-144948581D01*
X64475297Y-145054793D01*
X64548189Y-145230770D01*
X64628630Y-145300535D01*
X64690847Y-145326306D01*
X64797058Y-145333855D01*
X64973036Y-145260963D01*
X65042801Y-145180522D01*
X65068572Y-145118305D01*
X65076120Y-145012093D01*
X65003228Y-144836116D01*
X64922788Y-144766351D01*
X64860571Y-144740580D01*
X64754359Y-144733031D01*
%TO.C,RV15*%
X108052380Y-132971428D02*
X107576190Y-133304761D01*
X108052380Y-133542857D02*
X107052380Y-133542857D01*
X107052380Y-133161904D01*
X107100000Y-133066666D01*
X107147619Y-133019047D01*
X107242857Y-132971428D01*
X107385714Y-132971428D01*
X107480952Y-133019047D01*
X107528571Y-133066666D01*
X107576190Y-133161904D01*
X107576190Y-133542857D01*
X107052380Y-132685714D02*
X108052380Y-132352380D01*
X107052380Y-132019047D01*
X108052380Y-131161904D02*
X108052380Y-131733333D01*
X108052380Y-131447619D02*
X107052380Y-131447619D01*
X107195238Y-131542857D01*
X107290476Y-131638095D01*
X107338095Y-131733333D01*
X107052380Y-130257142D02*
X107052380Y-130733333D01*
X107528571Y-130780952D01*
X107480952Y-130733333D01*
X107433333Y-130638095D01*
X107433333Y-130400000D01*
X107480952Y-130304761D01*
X107528571Y-130257142D01*
X107623809Y-130209523D01*
X107861904Y-130209523D01*
X107957142Y-130257142D01*
X108004761Y-130304761D01*
X108052380Y-130400000D01*
X108052380Y-130638095D01*
X108004761Y-130733333D01*
X107957142Y-130780952D01*
%TO.C,U30*%
X109061904Y-125102380D02*
X109061904Y-125911904D01*
X109109523Y-126007142D01*
X109157142Y-126054761D01*
X109252380Y-126102380D01*
X109442857Y-126102380D01*
X109538095Y-126054761D01*
X109585714Y-126007142D01*
X109633333Y-125911904D01*
X109633333Y-125102380D01*
X110014285Y-125102380D02*
X110633333Y-125102380D01*
X110300000Y-125483333D01*
X110442857Y-125483333D01*
X110538095Y-125530952D01*
X110585714Y-125578571D01*
X110633333Y-125673809D01*
X110633333Y-125911904D01*
X110585714Y-126007142D01*
X110538095Y-126054761D01*
X110442857Y-126102380D01*
X110157142Y-126102380D01*
X110061904Y-126054761D01*
X110014285Y-126007142D01*
X111252380Y-125102380D02*
X111347619Y-125102380D01*
X111442857Y-125150000D01*
X111490476Y-125197619D01*
X111538095Y-125292857D01*
X111585714Y-125483333D01*
X111585714Y-125721428D01*
X111538095Y-125911904D01*
X111490476Y-126007142D01*
X111442857Y-126054761D01*
X111347619Y-126102380D01*
X111252380Y-126102380D01*
X111157142Y-126054761D01*
X111109523Y-126007142D01*
X111061904Y-125911904D01*
X111014285Y-125721428D01*
X111014285Y-125483333D01*
X111061904Y-125292857D01*
X111109523Y-125197619D01*
X111157142Y-125150000D01*
X111252380Y-125102380D01*
%TO.C,SW5*%
X71991666Y-106754761D02*
X72134523Y-106802380D01*
X72372619Y-106802380D01*
X72467857Y-106754761D01*
X72515476Y-106707142D01*
X72563095Y-106611904D01*
X72563095Y-106516666D01*
X72515476Y-106421428D01*
X72467857Y-106373809D01*
X72372619Y-106326190D01*
X72182142Y-106278571D01*
X72086904Y-106230952D01*
X72039285Y-106183333D01*
X71991666Y-106088095D01*
X71991666Y-105992857D01*
X72039285Y-105897619D01*
X72086904Y-105850000D01*
X72182142Y-105802380D01*
X72420238Y-105802380D01*
X72563095Y-105850000D01*
X72896428Y-105802380D02*
X73134523Y-106802380D01*
X73325000Y-106088095D01*
X73515476Y-106802380D01*
X73753571Y-105802380D01*
X74610714Y-105802380D02*
X74134523Y-105802380D01*
X74086904Y-106278571D01*
X74134523Y-106230952D01*
X74229761Y-106183333D01*
X74467857Y-106183333D01*
X74563095Y-106230952D01*
X74610714Y-106278571D01*
X74658333Y-106373809D01*
X74658333Y-106611904D01*
X74610714Y-106707142D01*
X74563095Y-106754761D01*
X74467857Y-106802380D01*
X74229761Y-106802380D01*
X74134523Y-106754761D01*
X74086904Y-106707142D01*
%TO.C,J7*%
X133166666Y-42652380D02*
X133166666Y-43366666D01*
X133119047Y-43509523D01*
X133023809Y-43604761D01*
X132880952Y-43652380D01*
X132785714Y-43652380D01*
X133547619Y-42652380D02*
X134214285Y-42652380D01*
X133785714Y-43652380D01*
%TO.C,SW1*%
X62667111Y-102164565D02*
X62817317Y-102153891D01*
X63037288Y-102062775D01*
X63107053Y-101982335D01*
X63132825Y-101920118D01*
X63140373Y-101813906D01*
X63103927Y-101725918D01*
X63023487Y-101656152D01*
X62961269Y-101630381D01*
X62855058Y-101622833D01*
X62660858Y-101651731D01*
X62554646Y-101644182D01*
X62492429Y-101618411D01*
X62411989Y-101548646D01*
X62375542Y-101460657D01*
X62383091Y-101354446D01*
X62408862Y-101292228D01*
X62478627Y-101211788D01*
X62698599Y-101120673D01*
X62848805Y-101109998D01*
X63138541Y-100938443D02*
X63741196Y-101771207D01*
X63643828Y-101038401D01*
X64093150Y-101625423D01*
X63930438Y-100610428D01*
X65149013Y-101188070D02*
X64621081Y-101406747D01*
X64885047Y-101297409D02*
X64502364Y-100373529D01*
X64469044Y-100541958D01*
X64417502Y-100666392D01*
X64347736Y-100746833D01*
%TO.C,SW3*%
X62667111Y-124164565D02*
X62817317Y-124153891D01*
X63037288Y-124062775D01*
X63107053Y-123982335D01*
X63132825Y-123920118D01*
X63140373Y-123813906D01*
X63103927Y-123725918D01*
X63023487Y-123656152D01*
X62961269Y-123630381D01*
X62855058Y-123622833D01*
X62660858Y-123651731D01*
X62554646Y-123644182D01*
X62492429Y-123618411D01*
X62411989Y-123548646D01*
X62375542Y-123460657D01*
X62383091Y-123354446D01*
X62408862Y-123292228D01*
X62478627Y-123211788D01*
X62698599Y-123120673D01*
X62848805Y-123109998D01*
X63138541Y-122938443D02*
X63741196Y-123771207D01*
X63643828Y-123038401D01*
X64093150Y-123625423D01*
X63930438Y-122610428D01*
X64194404Y-122501090D02*
X64766329Y-122264191D01*
X64604153Y-122743706D01*
X64736136Y-122689037D01*
X64842348Y-122696585D01*
X64904565Y-122722357D01*
X64985005Y-122792122D01*
X65076120Y-123012093D01*
X65068572Y-123118305D01*
X65042801Y-123180522D01*
X64973036Y-123260963D01*
X64709070Y-123370301D01*
X64602858Y-123362752D01*
X64540641Y-123336981D01*
%TO.C,U34*%
X126552380Y-132438095D02*
X127361904Y-132438095D01*
X127457142Y-132390476D01*
X127504761Y-132342857D01*
X127552380Y-132247619D01*
X127552380Y-132057142D01*
X127504761Y-131961904D01*
X127457142Y-131914285D01*
X127361904Y-131866666D01*
X126552380Y-131866666D01*
X126552380Y-131485714D02*
X126552380Y-130866666D01*
X126933333Y-131200000D01*
X126933333Y-131057142D01*
X126980952Y-130961904D01*
X127028571Y-130914285D01*
X127123809Y-130866666D01*
X127361904Y-130866666D01*
X127457142Y-130914285D01*
X127504761Y-130961904D01*
X127552380Y-131057142D01*
X127552380Y-131342857D01*
X127504761Y-131438095D01*
X127457142Y-131485714D01*
X126885714Y-130009523D02*
X127552380Y-130009523D01*
X126504761Y-130247619D02*
X127219047Y-130485714D01*
X127219047Y-129866666D01*
%TO.C,J5*%
X42566666Y-128652380D02*
X42566666Y-129366666D01*
X42519047Y-129509523D01*
X42423809Y-129604761D01*
X42280952Y-129652380D01*
X42185714Y-129652380D01*
X43519047Y-128652380D02*
X43042857Y-128652380D01*
X42995238Y-129128571D01*
X43042857Y-129080952D01*
X43138095Y-129033333D01*
X43376190Y-129033333D01*
X43471428Y-129080952D01*
X43519047Y-129128571D01*
X43566666Y-129223809D01*
X43566666Y-129461904D01*
X43519047Y-129557142D01*
X43471428Y-129604761D01*
X43376190Y-129652380D01*
X43138095Y-129652380D01*
X43042857Y-129604761D01*
X42995238Y-129557142D01*
%TO.C,J10*%
X132690476Y-128652380D02*
X132690476Y-129366666D01*
X132642857Y-129509523D01*
X132547619Y-129604761D01*
X132404761Y-129652380D01*
X132309523Y-129652380D01*
X133690476Y-129652380D02*
X133119047Y-129652380D01*
X133404761Y-129652380D02*
X133404761Y-128652380D01*
X133309523Y-128795238D01*
X133214285Y-128890476D01*
X133119047Y-128938095D01*
X134309523Y-128652380D02*
X134404761Y-128652380D01*
X134500000Y-128700000D01*
X134547619Y-128747619D01*
X134595238Y-128842857D01*
X134642857Y-129033333D01*
X134642857Y-129271428D01*
X134595238Y-129461904D01*
X134547619Y-129557142D01*
X134500000Y-129604761D01*
X134404761Y-129652380D01*
X134309523Y-129652380D01*
X134214285Y-129604761D01*
X134166666Y-129557142D01*
X134119047Y-129461904D01*
X134071428Y-129271428D01*
X134071428Y-129033333D01*
X134119047Y-128842857D01*
X134166666Y-128747619D01*
X134214285Y-128700000D01*
X134309523Y-128652380D01*
%TO.C,J4*%
X42566666Y-106652380D02*
X42566666Y-107366666D01*
X42519047Y-107509523D01*
X42423809Y-107604761D01*
X42280952Y-107652380D01*
X42185714Y-107652380D01*
X43471428Y-106985714D02*
X43471428Y-107652380D01*
X43233333Y-106604761D02*
X42995238Y-107319047D01*
X43614285Y-107319047D01*
%TO.C,J11*%
X132690476Y-84652380D02*
X132690476Y-85366666D01*
X132642857Y-85509523D01*
X132547619Y-85604761D01*
X132404761Y-85652380D01*
X132309523Y-85652380D01*
X133690476Y-85652380D02*
X133119047Y-85652380D01*
X133404761Y-85652380D02*
X133404761Y-84652380D01*
X133309523Y-84795238D01*
X133214285Y-84890476D01*
X133119047Y-84938095D01*
X134642857Y-85652380D02*
X134071428Y-85652380D01*
X134357142Y-85652380D02*
X134357142Y-84652380D01*
X134261904Y-84795238D01*
X134166666Y-84890476D01*
X134071428Y-84938095D01*
%TO.C,J1*%
X42566666Y-42652380D02*
X42566666Y-43366666D01*
X42519047Y-43509523D01*
X42423809Y-43604761D01*
X42280952Y-43652380D01*
X42185714Y-43652380D01*
X43566666Y-43652380D02*
X42995238Y-43652380D01*
X43280952Y-43652380D02*
X43280952Y-42652380D01*
X43185714Y-42795238D01*
X43090476Y-42890476D01*
X42995238Y-42938095D01*
%TO.C,U31*%
X109161904Y-81402380D02*
X109161904Y-82211904D01*
X109209523Y-82307142D01*
X109257142Y-82354761D01*
X109352380Y-82402380D01*
X109542857Y-82402380D01*
X109638095Y-82354761D01*
X109685714Y-82307142D01*
X109733333Y-82211904D01*
X109733333Y-81402380D01*
X110114285Y-81402380D02*
X110733333Y-81402380D01*
X110400000Y-81783333D01*
X110542857Y-81783333D01*
X110638095Y-81830952D01*
X110685714Y-81878571D01*
X110733333Y-81973809D01*
X110733333Y-82211904D01*
X110685714Y-82307142D01*
X110638095Y-82354761D01*
X110542857Y-82402380D01*
X110257142Y-82402380D01*
X110161904Y-82354761D01*
X110114285Y-82307142D01*
X111685714Y-82402380D02*
X111114285Y-82402380D01*
X111400000Y-82402380D02*
X111400000Y-81402380D01*
X111304761Y-81545238D01*
X111209523Y-81640476D01*
X111114285Y-81688095D01*
%TO.C,J8*%
X133166666Y-106652380D02*
X133166666Y-107366666D01*
X133119047Y-107509523D01*
X133023809Y-107604761D01*
X132880952Y-107652380D01*
X132785714Y-107652380D01*
X133785714Y-107080952D02*
X133690476Y-107033333D01*
X133642857Y-106985714D01*
X133595238Y-106890476D01*
X133595238Y-106842857D01*
X133642857Y-106747619D01*
X133690476Y-106700000D01*
X133785714Y-106652380D01*
X133976190Y-106652380D01*
X134071428Y-106700000D01*
X134119047Y-106747619D01*
X134166666Y-106842857D01*
X134166666Y-106890476D01*
X134119047Y-106985714D01*
X134071428Y-107033333D01*
X133976190Y-107080952D01*
X133785714Y-107080952D01*
X133690476Y-107128571D01*
X133642857Y-107176190D01*
X133595238Y-107271428D01*
X133595238Y-107461904D01*
X133642857Y-107557142D01*
X133690476Y-107604761D01*
X133785714Y-107652380D01*
X133976190Y-107652380D01*
X134071428Y-107604761D01*
X134119047Y-107557142D01*
X134166666Y-107461904D01*
X134166666Y-107271428D01*
X134119047Y-107176190D01*
X134071428Y-107128571D01*
X133976190Y-107080952D01*
D12*
%TO.C,SW7*%
X76825000Y-142450000D02*
X76825000Y-142000000D01*
X76825000Y-142450000D02*
X76400000Y-142450000D01*
X69775000Y-142450000D02*
X70150000Y-142450000D01*
X76825000Y-129575000D02*
X76825000Y-130025000D01*
X76825000Y-129550000D02*
X76400000Y-129550000D01*
X69775000Y-129925000D02*
X69775000Y-129550000D01*
X69775000Y-142450000D02*
X69775000Y-142050000D01*
X69775000Y-129550000D02*
X70125000Y-129550000D01*
D13*
%TO.C,U35*%
X112090000Y-106550000D02*
X122110000Y-106550000D01*
X112090000Y-101050000D02*
X113100000Y-100350000D01*
X112090000Y-101050000D02*
X112090000Y-106550000D01*
X122100000Y-106550000D02*
X122100000Y-100350000D01*
X122100000Y-100350000D02*
X113100000Y-100350000D01*
%TO.C,RV10*%
X118370000Y-76120000D02*
X119970000Y-76120000D01*
X115871000Y-76120000D02*
X116630000Y-76120000D01*
X119970000Y-67745000D02*
X119970000Y-63880000D01*
X110030000Y-76120000D02*
X111629000Y-76120000D01*
X110030000Y-67745000D02*
X110030000Y-63880000D01*
X113371000Y-76120000D02*
X114130000Y-76120000D01*
X110030000Y-63880000D02*
X119970000Y-63880000D01*
X110030000Y-76120000D02*
X110030000Y-72255000D01*
X119970000Y-76120000D02*
X119970000Y-72255000D01*
D12*
%TO.C,SW4*%
X69775000Y-76450000D02*
X70150000Y-76450000D01*
X76825000Y-63550000D02*
X76400000Y-63550000D01*
X76825000Y-76450000D02*
X76400000Y-76450000D01*
X69775000Y-63550000D02*
X70125000Y-63550000D01*
X76825000Y-63575000D02*
X76825000Y-64025000D01*
X76825000Y-76450000D02*
X76825000Y-76000000D01*
X69775000Y-76450000D02*
X69775000Y-76050000D01*
X69775000Y-63925000D02*
X69775000Y-63550000D01*
D13*
%TO.C,SW2*%
X69020000Y-70000000D02*
G75*
G03*
X69020000Y-70000000I-9120000J0D01*
G01*
%TO.C,RV11*%
X115871000Y-120120000D02*
X116630000Y-120120000D01*
X110030000Y-111745000D02*
X110030000Y-107880000D01*
X119970000Y-120120000D02*
X119970000Y-116255000D01*
X113371000Y-120120000D02*
X114130000Y-120120000D01*
X110030000Y-107880000D02*
X119970000Y-107880000D01*
X118370000Y-120120000D02*
X119970000Y-120120000D01*
X119970000Y-111745000D02*
X119970000Y-107880000D01*
X110030000Y-120120000D02*
X110030000Y-116255000D01*
X110030000Y-120120000D02*
X111629000Y-120120000D01*
%TO.C,D16*%
X51564000Y-51390000D02*
X51720000Y-51390000D01*
X53880000Y-51390000D02*
X54036000Y-51390000D01*
X53880000Y-50870961D02*
G75*
G03*
X53879837Y-48788870I-1080000J1040961D01*
G01*
X51721392Y-48157665D02*
G75*
G03*
X51564484Y-51390000I1078609J-1672335D01*
G01*
X54035516Y-51390000D02*
G75*
G03*
X53878608Y-48157665I-1235517J1560000D01*
G01*
X51720163Y-48788870D02*
G75*
G03*
X51720000Y-50870961I1079837J-1041130D01*
G01*
D14*
%TO.C,J2*%
X49900000Y-74500000D02*
X49900000Y-64000000D01*
X40900000Y-74500000D02*
X40900000Y-64000000D01*
X40900000Y-74500000D02*
X43900000Y-74500000D01*
X47000000Y-64000000D02*
X49900000Y-64000000D01*
X46900000Y-74500000D02*
X49900000Y-74500000D01*
X40900000Y-64000000D02*
X43800000Y-64000000D01*
D13*
X46696263Y-72588576D02*
G75*
G03*
X45400000Y-67105000I-1296263J2588576D01*
G01*
X45400000Y-67104999D02*
G75*
G03*
X44103737Y-72588577I0J-2895001D01*
G01*
%TO.C,D26*%
X103214000Y-71560000D02*
X103370000Y-71560000D01*
X105530000Y-71560000D02*
X105686000Y-71560000D01*
X103371392Y-68327665D02*
G75*
G03*
X103214484Y-71560000I1078609J-1672335D01*
G01*
X105530000Y-71040961D02*
G75*
G03*
X105529837Y-68958870I-1080000J1040961D01*
G01*
X105685516Y-71560000D02*
G75*
G03*
X105528608Y-68327665I-1235517J1560000D01*
G01*
X103370163Y-68958870D02*
G75*
G03*
X103370000Y-71040961I1079837J-1041130D01*
G01*
%TO.C,RV14*%
X118370000Y-98120000D02*
X119970000Y-98120000D01*
X110030000Y-98120000D02*
X110030000Y-94255000D01*
X119970000Y-98120000D02*
X119970000Y-94255000D01*
X115871000Y-98120000D02*
X116630000Y-98120000D01*
X119970000Y-89745000D02*
X119970000Y-85880000D01*
X110030000Y-98120000D02*
X111629000Y-98120000D01*
X113371000Y-98120000D02*
X114130000Y-98120000D01*
X110030000Y-89745000D02*
X110030000Y-85880000D01*
X110030000Y-85880000D02*
X119970000Y-85880000D01*
%TO.C,D28*%
X105530000Y-93560000D02*
X105686000Y-93560000D01*
X103214000Y-93560000D02*
X103370000Y-93560000D01*
X103370163Y-90958870D02*
G75*
G03*
X103370000Y-93040961I1079837J-1041130D01*
G01*
X103371392Y-90327665D02*
G75*
G03*
X103214484Y-93560000I1078609J-1672335D01*
G01*
X105685516Y-93560000D02*
G75*
G03*
X105528608Y-90327665I-1235517J1560000D01*
G01*
X105530000Y-93040961D02*
G75*
G03*
X105529837Y-90958870I-1080000J1040961D01*
G01*
D15*
%TO.C,GR1*%
X89547081Y-56720800D02*
X89637021Y-56749035D01*
X89637021Y-56749035D02*
X89726885Y-56786178D01*
X89726885Y-56786178D02*
X89913357Y-56857425D01*
X89913357Y-56857425D02*
X90140752Y-56915300D01*
X90140752Y-56915300D02*
X90411926Y-56960394D01*
X90411926Y-56960394D02*
X90725500Y-56992963D01*
X90725500Y-56992963D02*
X90978653Y-57007166D01*
X90978653Y-57007166D02*
X91196703Y-57005208D01*
X91196703Y-57005208D02*
X91393097Y-56985877D01*
X91393097Y-56985877D02*
X91581284Y-56947959D01*
X91581284Y-56947959D02*
X91741150Y-56901416D01*
X91741150Y-56901416D02*
X91848155Y-56868663D01*
X91848155Y-56868663D02*
X91921034Y-56853031D01*
X91921034Y-56853031D02*
X91972802Y-56852709D01*
X91972802Y-56852709D02*
X92011610Y-56863812D01*
X92011610Y-56863812D02*
X92081460Y-56917733D01*
X92081460Y-56917733D02*
X92120717Y-56999251D01*
X92120717Y-56999251D02*
X92121717Y-57090634D01*
X92121717Y-57090634D02*
X92116958Y-57107624D01*
X92116958Y-57107624D02*
X92069554Y-57174471D01*
X92069554Y-57174471D02*
X91977760Y-57235340D01*
X91977760Y-57235340D02*
X91847757Y-57289051D01*
X91847757Y-57289051D02*
X91685729Y-57334423D01*
X91685729Y-57334423D02*
X91497856Y-57370279D01*
X91497856Y-57370279D02*
X91290323Y-57395438D01*
X91290323Y-57395438D02*
X91069310Y-57408721D01*
X91069310Y-57408721D02*
X90841000Y-57408948D01*
X90841000Y-57408948D02*
X90611576Y-57394940D01*
X90611576Y-57394940D02*
X90611200Y-57394905D01*
X90611200Y-57394905D02*
X90378317Y-57366406D01*
X90378317Y-57366406D02*
X90149262Y-57326305D01*
X90149262Y-57326305D02*
X89932395Y-57276900D01*
X89932395Y-57276900D02*
X89736079Y-57220491D01*
X89736079Y-57220491D02*
X89568673Y-57159377D01*
X89568673Y-57159377D02*
X89438540Y-57095857D01*
X89438540Y-57095857D02*
X89380570Y-57056537D01*
X89380570Y-57056537D02*
X89322483Y-56984041D01*
X89322483Y-56984041D02*
X89302709Y-56901171D01*
X89302709Y-56901171D02*
X89317587Y-56820434D01*
X89317587Y-56820434D02*
X89363459Y-56754337D01*
X89363459Y-56754337D02*
X89436663Y-56715386D01*
X89436663Y-56715386D02*
X89481984Y-56710000D01*
X89481984Y-56710000D02*
X89547081Y-56720800D01*
X89547081Y-56720800D02*
X89547081Y-56720800D01*
G36*
X89547081Y-56720800D02*
G01*
X89637021Y-56749035D01*
X89726885Y-56786178D01*
X89913357Y-56857425D01*
X90140752Y-56915300D01*
X90411926Y-56960394D01*
X90725500Y-56992963D01*
X90978653Y-57007166D01*
X91196703Y-57005208D01*
X91393097Y-56985877D01*
X91581284Y-56947959D01*
X91741150Y-56901416D01*
X91848155Y-56868663D01*
X91921034Y-56853031D01*
X91972802Y-56852709D01*
X92011610Y-56863812D01*
X92081460Y-56917733D01*
X92120717Y-56999251D01*
X92121717Y-57090634D01*
X92116958Y-57107624D01*
X92069554Y-57174471D01*
X91977760Y-57235340D01*
X91847757Y-57289051D01*
X91685729Y-57334423D01*
X91497856Y-57370279D01*
X91290323Y-57395438D01*
X91069310Y-57408721D01*
X90841000Y-57408948D01*
X90611576Y-57394940D01*
X90611200Y-57394905D01*
X90378317Y-57366406D01*
X90149262Y-57326305D01*
X89932395Y-57276900D01*
X89736079Y-57220491D01*
X89568673Y-57159377D01*
X89438540Y-57095857D01*
X89380570Y-57056537D01*
X89322483Y-56984041D01*
X89302709Y-56901171D01*
X89317587Y-56820434D01*
X89363459Y-56754337D01*
X89436663Y-56715386D01*
X89481984Y-56710000D01*
X89547081Y-56720800D01*
G37*
X89547081Y-56720800D02*
X89637021Y-56749035D01*
X89726885Y-56786178D01*
X89913357Y-56857425D01*
X90140752Y-56915300D01*
X90411926Y-56960394D01*
X90725500Y-56992963D01*
X90978653Y-57007166D01*
X91196703Y-57005208D01*
X91393097Y-56985877D01*
X91581284Y-56947959D01*
X91741150Y-56901416D01*
X91848155Y-56868663D01*
X91921034Y-56853031D01*
X91972802Y-56852709D01*
X92011610Y-56863812D01*
X92081460Y-56917733D01*
X92120717Y-56999251D01*
X92121717Y-57090634D01*
X92116958Y-57107624D01*
X92069554Y-57174471D01*
X91977760Y-57235340D01*
X91847757Y-57289051D01*
X91685729Y-57334423D01*
X91497856Y-57370279D01*
X91290323Y-57395438D01*
X91069310Y-57408721D01*
X90841000Y-57408948D01*
X90611576Y-57394940D01*
X90611200Y-57394905D01*
X90378317Y-57366406D01*
X90149262Y-57326305D01*
X89932395Y-57276900D01*
X89736079Y-57220491D01*
X89568673Y-57159377D01*
X89438540Y-57095857D01*
X89380570Y-57056537D01*
X89322483Y-56984041D01*
X89302709Y-56901171D01*
X89317587Y-56820434D01*
X89363459Y-56754337D01*
X89436663Y-56715386D01*
X89481984Y-56710000D01*
X89547081Y-56720800D01*
X90042068Y-49615822D02*
X90105614Y-49623064D01*
X90105614Y-49623064D02*
X90150125Y-49636174D01*
X90150125Y-49636174D02*
X90186183Y-49656559D01*
X90186183Y-49656559D02*
X90196556Y-49664023D01*
X90196556Y-49664023D02*
X90254628Y-49732767D01*
X90254628Y-49732767D02*
X90278895Y-49817206D01*
X90278895Y-49817206D02*
X90266999Y-49900076D01*
X90266999Y-49900076D02*
X90235391Y-49948408D01*
X90235391Y-49948408D02*
X90208194Y-49968871D01*
X90208194Y-49968871D02*
X90168010Y-49983836D01*
X90168010Y-49983836D02*
X90105848Y-49994774D01*
X90105848Y-49994774D02*
X90012716Y-50003152D01*
X90012716Y-50003152D02*
X89879623Y-50010441D01*
X89879623Y-50010441D02*
X89846594Y-50011933D01*
X89846594Y-50011933D02*
X89638705Y-50025409D01*
X89638705Y-50025409D02*
X89466442Y-50047795D01*
X89466442Y-50047795D02*
X89314921Y-50082579D01*
X89314921Y-50082579D02*
X89169259Y-50133248D01*
X89169259Y-50133248D02*
X89014572Y-50203289D01*
X89014572Y-50203289D02*
X89000779Y-50210124D01*
X89000779Y-50210124D02*
X88772290Y-50341286D01*
X88772290Y-50341286D02*
X88552997Y-50500005D01*
X88552997Y-50500005D02*
X88349920Y-50679025D01*
X88349920Y-50679025D02*
X88170081Y-50871090D01*
X88170081Y-50871090D02*
X88020502Y-51068944D01*
X88020502Y-51068944D02*
X87908203Y-51265334D01*
X87908203Y-51265334D02*
X87857685Y-51391341D01*
X87857685Y-51391341D02*
X87806316Y-51500199D01*
X87806316Y-51500199D02*
X87738632Y-51561058D01*
X87738632Y-51561058D02*
X87654859Y-51573807D01*
X87654859Y-51573807D02*
X87558594Y-51540185D01*
X87558594Y-51540185D02*
X87490717Y-51479169D01*
X87490717Y-51479169D02*
X87462751Y-51391023D01*
X87462751Y-51391023D02*
X87474860Y-51275117D01*
X87474860Y-51275117D02*
X87527207Y-51130819D01*
X87527207Y-51130819D02*
X87619956Y-50957500D01*
X87619956Y-50957500D02*
X87753271Y-50754527D01*
X87753271Y-50754527D02*
X87767370Y-50734635D01*
X87767370Y-50734635D02*
X87963159Y-50496126D01*
X87963159Y-50496126D02*
X88197738Y-50270627D01*
X88197738Y-50270627D02*
X88459237Y-50067381D01*
X88459237Y-50067381D02*
X88735785Y-49895628D01*
X88735785Y-49895628D02*
X89011000Y-49766367D01*
X89011000Y-49766367D02*
X89205830Y-49697026D01*
X89205830Y-49697026D02*
X89382250Y-49651200D01*
X89382250Y-49651200D02*
X89561370Y-49624872D01*
X89561370Y-49624872D02*
X89764305Y-49614025D01*
X89764305Y-49614025D02*
X89815556Y-49613306D01*
X89815556Y-49613306D02*
X89948909Y-49613039D01*
X89948909Y-49613039D02*
X90042068Y-49615822D01*
X90042068Y-49615822D02*
X90042068Y-49615822D01*
G36*
X90042068Y-49615822D02*
G01*
X90105614Y-49623064D01*
X90150125Y-49636174D01*
X90186183Y-49656559D01*
X90196556Y-49664023D01*
X90254628Y-49732767D01*
X90278895Y-49817206D01*
X90266999Y-49900076D01*
X90235391Y-49948408D01*
X90208194Y-49968871D01*
X90168010Y-49983836D01*
X90105848Y-49994774D01*
X90012716Y-50003152D01*
X89879623Y-50010441D01*
X89846594Y-50011933D01*
X89638705Y-50025409D01*
X89466442Y-50047795D01*
X89314921Y-50082579D01*
X89169259Y-50133248D01*
X89014572Y-50203289D01*
X89000779Y-50210124D01*
X88772290Y-50341286D01*
X88552997Y-50500005D01*
X88349920Y-50679025D01*
X88170081Y-50871090D01*
X88020502Y-51068944D01*
X87908203Y-51265334D01*
X87857685Y-51391341D01*
X87806316Y-51500199D01*
X87738632Y-51561058D01*
X87654859Y-51573807D01*
X87558594Y-51540185D01*
X87490717Y-51479169D01*
X87462751Y-51391023D01*
X87474860Y-51275117D01*
X87527207Y-51130819D01*
X87619956Y-50957500D01*
X87753271Y-50754527D01*
X87767370Y-50734635D01*
X87963159Y-50496126D01*
X88197738Y-50270627D01*
X88459237Y-50067381D01*
X88735785Y-49895628D01*
X89011000Y-49766367D01*
X89205830Y-49697026D01*
X89382250Y-49651200D01*
X89561370Y-49624872D01*
X89764305Y-49614025D01*
X89815556Y-49613306D01*
X89948909Y-49613039D01*
X90042068Y-49615822D01*
G37*
X90042068Y-49615822D02*
X90105614Y-49623064D01*
X90150125Y-49636174D01*
X90186183Y-49656559D01*
X90196556Y-49664023D01*
X90254628Y-49732767D01*
X90278895Y-49817206D01*
X90266999Y-49900076D01*
X90235391Y-49948408D01*
X90208194Y-49968871D01*
X90168010Y-49983836D01*
X90105848Y-49994774D01*
X90012716Y-50003152D01*
X89879623Y-50010441D01*
X89846594Y-50011933D01*
X89638705Y-50025409D01*
X89466442Y-50047795D01*
X89314921Y-50082579D01*
X89169259Y-50133248D01*
X89014572Y-50203289D01*
X89000779Y-50210124D01*
X88772290Y-50341286D01*
X88552997Y-50500005D01*
X88349920Y-50679025D01*
X88170081Y-50871090D01*
X88020502Y-51068944D01*
X87908203Y-51265334D01*
X87857685Y-51391341D01*
X87806316Y-51500199D01*
X87738632Y-51561058D01*
X87654859Y-51573807D01*
X87558594Y-51540185D01*
X87490717Y-51479169D01*
X87462751Y-51391023D01*
X87474860Y-51275117D01*
X87527207Y-51130819D01*
X87619956Y-50957500D01*
X87753271Y-50754527D01*
X87767370Y-50734635D01*
X87963159Y-50496126D01*
X88197738Y-50270627D01*
X88459237Y-50067381D01*
X88735785Y-49895628D01*
X89011000Y-49766367D01*
X89205830Y-49697026D01*
X89382250Y-49651200D01*
X89561370Y-49624872D01*
X89764305Y-49614025D01*
X89815556Y-49613306D01*
X89948909Y-49613039D01*
X90042068Y-49615822D01*
X90445850Y-45973564D02*
X90485001Y-45993964D01*
X90485001Y-45993964D02*
X90506324Y-46013324D01*
X90506324Y-46013324D02*
X90549317Y-46088678D01*
X90549317Y-46088678D02*
X90558749Y-46181627D01*
X90558749Y-46181627D02*
X90533324Y-46270532D01*
X90533324Y-46270532D02*
X90522739Y-46287664D01*
X90522739Y-46287664D02*
X90480233Y-46323884D01*
X90480233Y-46323884D02*
X90404547Y-46351833D01*
X90404547Y-46351833D02*
X90313189Y-46370904D01*
X90313189Y-46370904D02*
X90040894Y-46432631D01*
X90040894Y-46432631D02*
X89812148Y-46517619D01*
X89812148Y-46517619D02*
X89624659Y-46627237D01*
X89624659Y-46627237D02*
X89476135Y-46762854D01*
X89476135Y-46762854D02*
X89364284Y-46925839D01*
X89364284Y-46925839D02*
X89355442Y-46942875D01*
X89355442Y-46942875D02*
X89296481Y-47103373D01*
X89296481Y-47103373D02*
X89263247Y-47294234D01*
X89263247Y-47294234D02*
X89258103Y-47500712D01*
X89258103Y-47500712D02*
X89260249Y-47537105D01*
X89260249Y-47537105D02*
X89267032Y-47605482D01*
X89267032Y-47605482D02*
X89281687Y-47635079D01*
X89281687Y-47635079D02*
X89315423Y-47637808D01*
X89315423Y-47637808D02*
X89349149Y-47631571D01*
X89349149Y-47631571D02*
X89622553Y-47586310D01*
X89622553Y-47586310D02*
X89923536Y-47553690D01*
X89923536Y-47553690D02*
X90237109Y-47534290D01*
X90237109Y-47534290D02*
X90548283Y-47528688D01*
X90548283Y-47528688D02*
X90842068Y-47537462D01*
X90842068Y-47537462D02*
X91103475Y-47561190D01*
X91103475Y-47561190D02*
X91119200Y-47563293D01*
X91119200Y-47563293D02*
X91533307Y-47636996D01*
X91533307Y-47636996D02*
X91946922Y-47743091D01*
X91946922Y-47743091D02*
X92343559Y-47876812D01*
X92343559Y-47876812D02*
X92648187Y-48005422D01*
X92648187Y-48005422D02*
X92761255Y-48056816D01*
X92761255Y-48056816D02*
X92837623Y-48087126D01*
X92837623Y-48087126D02*
X92885615Y-48098792D01*
X92885615Y-48098792D02*
X92913556Y-48094256D01*
X92913556Y-48094256D02*
X92923139Y-48086049D01*
X92923139Y-48086049D02*
X92960235Y-48058225D01*
X92960235Y-48058225D02*
X93032900Y-48015997D01*
X93032900Y-48015997D02*
X93129973Y-47964877D01*
X93129973Y-47964877D02*
X93240290Y-47910378D01*
X93240290Y-47910378D02*
X93352689Y-47858013D01*
X93352689Y-47858013D02*
X93456006Y-47813293D01*
X93456006Y-47813293D02*
X93539079Y-47781731D01*
X93539079Y-47781731D02*
X93540011Y-47781420D01*
X93540011Y-47781420D02*
X93681431Y-47741478D01*
X93681431Y-47741478D02*
X93843025Y-47706921D01*
X93843025Y-47706921D02*
X94004341Y-47681376D01*
X94004341Y-47681376D02*
X94144925Y-47668469D01*
X94144925Y-47668469D02*
X94182134Y-47667600D01*
X94182134Y-47667600D02*
X94278700Y-47673870D01*
X94278700Y-47673870D02*
X94341529Y-47695503D01*
X94341529Y-47695503D02*
X94369753Y-47717753D01*
X94369753Y-47717753D02*
X94427333Y-47802761D01*
X94427333Y-47802761D02*
X94437044Y-47890665D01*
X94437044Y-47890665D02*
X94402873Y-47968051D01*
X94402873Y-47968051D02*
X94371726Y-48003373D01*
X94371726Y-48003373D02*
X94332807Y-48029806D01*
X94332807Y-48029806D02*
X94276578Y-48050367D01*
X94276578Y-48050367D02*
X94193498Y-48068075D01*
X94193498Y-48068075D02*
X94074027Y-48085949D01*
X94074027Y-48085949D02*
X93999621Y-48095643D01*
X93999621Y-48095643D02*
X93848678Y-48122255D01*
X93848678Y-48122255D02*
X93689148Y-48162835D01*
X93689148Y-48162835D02*
X93537307Y-48212301D01*
X93537307Y-48212301D02*
X93409428Y-48265572D01*
X93409428Y-48265572D02*
X93347936Y-48299150D01*
X93347936Y-48299150D02*
X93271948Y-48347262D01*
X93271948Y-48347262D02*
X93433824Y-48456123D01*
X93433824Y-48456123D02*
X93534514Y-48526502D01*
X93534514Y-48526502D02*
X93638018Y-48603065D01*
X93638018Y-48603065D02*
X93715543Y-48664082D01*
X93715543Y-48664082D02*
X93835386Y-48763179D01*
X93835386Y-48763179D02*
X93983510Y-48676366D01*
X93983510Y-48676366D02*
X94288945Y-48524422D01*
X94288945Y-48524422D02*
X94603730Y-48421841D01*
X94603730Y-48421841D02*
X94931601Y-48367496D01*
X94931601Y-48367496D02*
X95031117Y-48360526D01*
X95031117Y-48360526D02*
X95238026Y-48359131D01*
X95238026Y-48359131D02*
X95416959Y-48380032D01*
X95416959Y-48380032D02*
X95587336Y-48427256D01*
X95587336Y-48427256D02*
X95768583Y-48504827D01*
X95768583Y-48504827D02*
X95798332Y-48519542D01*
X95798332Y-48519542D02*
X96052974Y-48675332D01*
X96052974Y-48675332D02*
X96281860Y-48872485D01*
X96281860Y-48872485D02*
X96481889Y-49106896D01*
X96481889Y-49106896D02*
X96649958Y-49374457D01*
X96649958Y-49374457D02*
X96782967Y-49671063D01*
X96782967Y-49671063D02*
X96862473Y-49928200D01*
X96862473Y-49928200D02*
X96885747Y-50065557D01*
X96885747Y-50065557D02*
X96897734Y-50236117D01*
X96897734Y-50236117D02*
X96898801Y-50423637D01*
X96898801Y-50423637D02*
X96889315Y-50611874D01*
X96889315Y-50611874D02*
X96869643Y-50784586D01*
X96869643Y-50784586D02*
X96840153Y-50925529D01*
X96840153Y-50925529D02*
X96839903Y-50926399D01*
X96839903Y-50926399D02*
X96728820Y-51229369D01*
X96728820Y-51229369D02*
X96576870Y-51504967D01*
X96576870Y-51504967D02*
X96381158Y-51757866D01*
X96381158Y-51757866D02*
X96229239Y-51912169D01*
X96229239Y-51912169D02*
X96138278Y-51999002D01*
X96138278Y-51999002D02*
X96080679Y-52060366D01*
X96080679Y-52060366D02*
X96050935Y-52103505D01*
X96050935Y-52103505D02*
X96043539Y-52135660D01*
X96043539Y-52135660D02*
X96047142Y-52151661D01*
X96047142Y-52151661D02*
X96059526Y-52195666D01*
X96059526Y-52195666D02*
X96079149Y-52277993D01*
X96079149Y-52277993D02*
X96103381Y-52387130D01*
X96103381Y-52387130D02*
X96129591Y-52511566D01*
X96129591Y-52511566D02*
X96131311Y-52519961D01*
X96131311Y-52519961D02*
X96213796Y-53037692D01*
X96213796Y-53037692D02*
X96246906Y-53544029D01*
X96246906Y-53544029D02*
X96230496Y-54040106D01*
X96230496Y-54040106D02*
X96164422Y-54527057D01*
X96164422Y-54527057D02*
X96048539Y-55006017D01*
X96048539Y-55006017D02*
X95882703Y-55478121D01*
X95882703Y-55478121D02*
X95704533Y-55870537D01*
X95704533Y-55870537D02*
X95467943Y-56286478D01*
X95467943Y-56286478D02*
X95186808Y-56681850D01*
X95186808Y-56681850D02*
X94864080Y-57054100D01*
X94864080Y-57054100D02*
X94502715Y-57400672D01*
X94502715Y-57400672D02*
X94105665Y-57719012D01*
X94105665Y-57719012D02*
X93675884Y-58006565D01*
X93675884Y-58006565D02*
X93216325Y-58260776D01*
X93216325Y-58260776D02*
X92729942Y-58479091D01*
X92729942Y-58479091D02*
X92654417Y-58508753D01*
X92654417Y-58508753D02*
X92371666Y-58613667D01*
X92371666Y-58613667D02*
X92116142Y-58698655D01*
X92116142Y-58698655D02*
X91870674Y-58768484D01*
X91870674Y-58768484D02*
X91618093Y-58827919D01*
X91618093Y-58827919D02*
X91341230Y-58881726D01*
X91341230Y-58881726D02*
X91258900Y-58896110D01*
X91258900Y-58896110D02*
X91073891Y-58921104D01*
X91073891Y-58921104D02*
X90851772Y-58940402D01*
X90851772Y-58940402D02*
X90605949Y-58953694D01*
X90605949Y-58953694D02*
X90349826Y-58960672D01*
X90349826Y-58960672D02*
X90096807Y-58961025D01*
X90096807Y-58961025D02*
X89860296Y-58954445D01*
X89860296Y-58954445D02*
X89653698Y-58940621D01*
X89653698Y-58940621D02*
X89595200Y-58934514D01*
X89595200Y-58934514D02*
X89079515Y-58850653D01*
X89079515Y-58850653D02*
X88575514Y-58721061D01*
X88575514Y-58721061D02*
X88090359Y-58547843D01*
X88090359Y-58547843D02*
X87742742Y-58390352D01*
X87742742Y-58390352D02*
X87334169Y-58165455D01*
X87334169Y-58165455D02*
X86955376Y-57910972D01*
X86955376Y-57910972D02*
X86598969Y-57621090D01*
X86598969Y-57621090D02*
X86257556Y-57289998D01*
X86257556Y-57289998D02*
X86044965Y-57055473D01*
X86044965Y-57055473D02*
X85985862Y-56989336D01*
X85985862Y-56989336D02*
X85948328Y-56956715D01*
X85948328Y-56956715D02*
X85921735Y-56951831D01*
X85921735Y-56951831D02*
X85895456Y-56968907D01*
X85895456Y-56968907D02*
X85891779Y-56972193D01*
X85891779Y-56972193D02*
X85832669Y-57012383D01*
X85832669Y-57012383D02*
X85737617Y-57062370D01*
X85737617Y-57062370D02*
X85619126Y-57116661D01*
X85619126Y-57116661D02*
X85489699Y-57169761D01*
X85489699Y-57169761D02*
X85361837Y-57216177D01*
X85361837Y-57216177D02*
X85275491Y-57243016D01*
X85275491Y-57243016D02*
X85111583Y-57278868D01*
X85111583Y-57278868D02*
X84924769Y-57303181D01*
X84924769Y-57303181D02*
X84732953Y-57314850D01*
X84732953Y-57314850D02*
X84554040Y-57312771D01*
X84554040Y-57312771D02*
X84409311Y-57296486D01*
X84409311Y-57296486D02*
X84130451Y-57222378D01*
X84130451Y-57222378D02*
X83879123Y-57109490D01*
X83879123Y-57109490D02*
X83648460Y-56953989D01*
X83648460Y-56953989D02*
X83431596Y-56752038D01*
X83431596Y-56752038D02*
X83428554Y-56748787D01*
X83428554Y-56748787D02*
X83256578Y-56537371D01*
X83256578Y-56537371D02*
X83131057Y-56318861D01*
X83131057Y-56318861D02*
X83047659Y-56085158D01*
X83047659Y-56085158D02*
X83028004Y-56000181D01*
X83028004Y-56000181D02*
X82997948Y-55729304D01*
X82997948Y-55729304D02*
X83005630Y-55627158D01*
X83005630Y-55627158D02*
X83406157Y-55627158D01*
X83406157Y-55627158D02*
X83407672Y-55836774D01*
X83407672Y-55836774D02*
X83452327Y-56046547D01*
X83452327Y-56046547D02*
X83543235Y-56251303D01*
X83543235Y-56251303D02*
X83554460Y-56270422D01*
X83554460Y-56270422D02*
X83670192Y-56426686D01*
X83670192Y-56426686D02*
X83820125Y-56574666D01*
X83820125Y-56574666D02*
X83991815Y-56705207D01*
X83991815Y-56705207D02*
X84172816Y-56809153D01*
X84172816Y-56809153D02*
X84350684Y-56877350D01*
X84350684Y-56877350D02*
X84393719Y-56887850D01*
X84393719Y-56887850D02*
X84524176Y-56903945D01*
X84524176Y-56903945D02*
X84685569Y-56906757D01*
X84685569Y-56906757D02*
X84860149Y-56897516D01*
X84860149Y-56897516D02*
X85030169Y-56877449D01*
X85030169Y-56877449D02*
X85177881Y-56847787D01*
X85177881Y-56847787D02*
X85239100Y-56829293D01*
X85239100Y-56829293D02*
X85418763Y-56762500D01*
X85418763Y-56762500D02*
X85553275Y-56705423D01*
X85553275Y-56705423D02*
X85641080Y-56658770D01*
X85641080Y-56658770D02*
X85675474Y-56630891D01*
X85675474Y-56630891D02*
X85685154Y-56602317D01*
X85685154Y-56602317D02*
X85673263Y-56556942D01*
X85673263Y-56556942D02*
X85636435Y-56485357D01*
X85636435Y-56485357D02*
X85603822Y-56430570D01*
X85603822Y-56430570D02*
X85544278Y-56328943D01*
X85544278Y-56328943D02*
X85474906Y-56204237D01*
X85474906Y-56204237D02*
X85408180Y-56079017D01*
X85408180Y-56079017D02*
X85390613Y-56044863D01*
X85390613Y-56044863D02*
X85338400Y-55943783D01*
X85338400Y-55943783D02*
X85301893Y-55880596D01*
X85301893Y-55880596D02*
X85274152Y-55847721D01*
X85274152Y-55847721D02*
X85248235Y-55837579D01*
X85248235Y-55837579D02*
X85217205Y-55842588D01*
X85217205Y-55842588D02*
X85207905Y-55845298D01*
X85207905Y-55845298D02*
X85087737Y-55887048D01*
X85087737Y-55887048D02*
X85003059Y-55931710D01*
X85003059Y-55931710D02*
X84955334Y-55970101D01*
X84955334Y-55970101D02*
X84896456Y-56044990D01*
X84896456Y-56044990D02*
X84882691Y-56122335D01*
X84882691Y-56122335D02*
X84912294Y-56214781D01*
X84912294Y-56214781D02*
X84919565Y-56229199D01*
X84919565Y-56229199D02*
X84965074Y-56346657D01*
X84965074Y-56346657D02*
X84967166Y-56440258D01*
X84967166Y-56440258D02*
X84925889Y-56508812D01*
X84925889Y-56508812D02*
X84907859Y-56522517D01*
X84907859Y-56522517D02*
X84835305Y-56548531D01*
X84835305Y-56548531D02*
X84766879Y-56527073D01*
X84766879Y-56527073D02*
X84700488Y-56456931D01*
X84700488Y-56456931D02*
X84652211Y-56374494D01*
X84652211Y-56374494D02*
X84594576Y-56212172D01*
X84594576Y-56212172D02*
X84586318Y-56055171D01*
X84586318Y-56055171D02*
X84626131Y-55908480D01*
X84626131Y-55908480D02*
X84712705Y-55777088D01*
X84712705Y-55777088D02*
X84836511Y-55671353D01*
X84836511Y-55671353D02*
X84905068Y-55628060D01*
X84905068Y-55628060D02*
X84956608Y-55599382D01*
X84956608Y-55599382D02*
X84975101Y-55592400D01*
X84975101Y-55592400D02*
X85010915Y-55584139D01*
X85010915Y-55584139D02*
X85063571Y-55566136D01*
X85063571Y-55566136D02*
X85132649Y-55539872D01*
X85132649Y-55539872D02*
X85058874Y-55461408D01*
X85058874Y-55461408D02*
X84958619Y-55378554D01*
X84958619Y-55378554D02*
X84841226Y-55330782D01*
X84841226Y-55330782D02*
X84694071Y-55313305D01*
X84694071Y-55313305D02*
X84667571Y-55313000D01*
X84667571Y-55313000D02*
X84489948Y-55336561D01*
X84489948Y-55336561D02*
X84333292Y-55404993D01*
X84333292Y-55404993D02*
X84202675Y-55514917D01*
X84202675Y-55514917D02*
X84103168Y-55662955D01*
X84103168Y-55662955D02*
X84085864Y-55700515D01*
X84085864Y-55700515D02*
X84027730Y-55802336D01*
X84027730Y-55802336D02*
X83961771Y-55855207D01*
X83961771Y-55855207D02*
X83889091Y-55858509D01*
X83889091Y-55858509D02*
X83843140Y-55836717D01*
X83843140Y-55836717D02*
X83792932Y-55776974D01*
X83792932Y-55776974D02*
X83779955Y-55694112D01*
X83779955Y-55694112D02*
X83800329Y-55594849D01*
X83800329Y-55594849D02*
X83850172Y-55485906D01*
X83850172Y-55485906D02*
X83925604Y-55374003D01*
X83925604Y-55374003D02*
X84022744Y-55265859D01*
X84022744Y-55265859D02*
X84137711Y-55168194D01*
X84137711Y-55168194D02*
X84266624Y-55087727D01*
X84266624Y-55087727D02*
X84279487Y-55081205D01*
X84279487Y-55081205D02*
X84339572Y-55054311D01*
X84339572Y-55054311D02*
X84398926Y-55036743D01*
X84398926Y-55036743D02*
X84470642Y-55026592D01*
X84470642Y-55026592D02*
X84567813Y-55021949D01*
X84567813Y-55021949D02*
X84693000Y-55020900D01*
X84693000Y-55020900D02*
X84985100Y-55020900D01*
X84985100Y-55020900D02*
X84934300Y-54812865D01*
X84934300Y-54812865D02*
X84909120Y-54713525D01*
X84909120Y-54713525D02*
X84884473Y-54646939D01*
X84884473Y-54646939D02*
X84850324Y-54606538D01*
X84850324Y-54606538D02*
X84796634Y-54585756D01*
X84796634Y-54585756D02*
X84713370Y-54578023D01*
X84713370Y-54578023D02*
X84590494Y-54576771D01*
X84590494Y-54576771D02*
X84573505Y-54576746D01*
X84573505Y-54576746D02*
X84341971Y-54598846D01*
X84341971Y-54598846D02*
X84128672Y-54662495D01*
X84128672Y-54662495D02*
X83936722Y-54762517D01*
X83936722Y-54762517D02*
X83769233Y-54893740D01*
X83769233Y-54893740D02*
X83629319Y-55050990D01*
X83629319Y-55050990D02*
X83520093Y-55229092D01*
X83520093Y-55229092D02*
X83444668Y-55422872D01*
X83444668Y-55422872D02*
X83406157Y-55627158D01*
X83406157Y-55627158D02*
X83005630Y-55627158D01*
X83005630Y-55627158D02*
X83017872Y-55464386D01*
X83017872Y-55464386D02*
X83087088Y-55207713D01*
X83087088Y-55207713D02*
X83204910Y-54961566D01*
X83204910Y-54961566D02*
X83370649Y-54728231D01*
X83370649Y-54728231D02*
X83431591Y-54658921D01*
X83431591Y-54658921D02*
X83597746Y-54508311D01*
X83597746Y-54508311D02*
X83794541Y-54378518D01*
X83794541Y-54378518D02*
X83898005Y-54328820D01*
X83898005Y-54328820D02*
X85241092Y-54328820D01*
X85241092Y-54328820D02*
X85250413Y-54401355D01*
X85250413Y-54401355D02*
X85270831Y-54506122D01*
X85270831Y-54506122D02*
X85300540Y-54634925D01*
X85300540Y-54634925D02*
X85337736Y-54779566D01*
X85337736Y-54779566D02*
X85380612Y-54931851D01*
X85380612Y-54931851D02*
X85395826Y-54982800D01*
X85395826Y-54982800D02*
X85568719Y-55469846D01*
X85568719Y-55469846D02*
X85782318Y-55927816D01*
X85782318Y-55927816D02*
X86034689Y-56355058D01*
X86034689Y-56355058D02*
X86323898Y-56749920D01*
X86323898Y-56749920D02*
X86648008Y-57110752D01*
X86648008Y-57110752D02*
X87005085Y-57435902D01*
X87005085Y-57435902D02*
X87393193Y-57723719D01*
X87393193Y-57723719D02*
X87810399Y-57972552D01*
X87810399Y-57972552D02*
X88254766Y-58180750D01*
X88254766Y-58180750D02*
X88724360Y-58346660D01*
X88724360Y-58346660D02*
X89217245Y-58468633D01*
X89217245Y-58468633D02*
X89544400Y-58522926D01*
X89544400Y-58522926D02*
X89726667Y-58541391D01*
X89726667Y-58541391D02*
X89944447Y-58553631D01*
X89944447Y-58553631D02*
X90182827Y-58559600D01*
X90182827Y-58559600D02*
X90426898Y-58559255D01*
X90426898Y-58559255D02*
X90661748Y-58552554D01*
X90661748Y-58552554D02*
X90872467Y-58539453D01*
X90872467Y-58539453D02*
X90992200Y-58527139D01*
X90992200Y-58527139D02*
X91526788Y-58436194D01*
X91526788Y-58436194D02*
X92048538Y-58300094D01*
X92048538Y-58300094D02*
X92553390Y-58120775D01*
X92553390Y-58120775D02*
X93037288Y-57900176D01*
X93037288Y-57900176D02*
X93496172Y-57640234D01*
X93496172Y-57640234D02*
X93925985Y-57342886D01*
X93925985Y-57342886D02*
X94322669Y-57010072D01*
X94322669Y-57010072D02*
X94474039Y-56864569D01*
X94474039Y-56864569D02*
X94792438Y-56517943D01*
X94792438Y-56517943D02*
X95064887Y-56159354D01*
X95064887Y-56159354D02*
X95296017Y-55781526D01*
X95296017Y-55781526D02*
X95490462Y-55377182D01*
X95490462Y-55377182D02*
X95599228Y-55097100D01*
X95599228Y-55097100D02*
X95714464Y-54705546D01*
X95714464Y-54705546D02*
X95792693Y-54287781D01*
X95792693Y-54287781D02*
X95833491Y-53852837D01*
X95833491Y-53852837D02*
X95836436Y-53409750D01*
X95836436Y-53409750D02*
X95801104Y-52967553D01*
X95801104Y-52967553D02*
X95727072Y-52535280D01*
X95727072Y-52535280D02*
X95720583Y-52506300D01*
X95720583Y-52506300D02*
X95699045Y-52412220D01*
X95699045Y-52412220D02*
X95678905Y-52351288D01*
X95678905Y-52351288D02*
X95650466Y-52319494D01*
X95650466Y-52319494D02*
X95604032Y-52312828D01*
X95604032Y-52312828D02*
X95529905Y-52327280D01*
X95529905Y-52327280D02*
X95418388Y-52358840D01*
X95418388Y-52358840D02*
X95386400Y-52368106D01*
X95386400Y-52368106D02*
X95275890Y-52395367D01*
X95275890Y-52395367D02*
X95160763Y-52412867D01*
X95160763Y-52412867D02*
X95024973Y-52422424D01*
X95024973Y-52422424D02*
X94878400Y-52425686D01*
X94878400Y-52425686D02*
X94745334Y-52425839D01*
X94745334Y-52425839D02*
X94640642Y-52422262D01*
X94640642Y-52422262D02*
X94548862Y-52412695D01*
X94548862Y-52412695D02*
X94454533Y-52394881D01*
X94454533Y-52394881D02*
X94342194Y-52366561D01*
X94342194Y-52366561D02*
X94200578Y-52326682D01*
X94200578Y-52326682D02*
X94189761Y-52331965D01*
X94189761Y-52331965D02*
X94198074Y-52361332D01*
X94198074Y-52361332D02*
X94227400Y-52418036D01*
X94227400Y-52418036D02*
X94279624Y-52505327D01*
X94279624Y-52505327D02*
X94356629Y-52626455D01*
X94356629Y-52626455D02*
X94460300Y-52784672D01*
X94460300Y-52784672D02*
X94505628Y-52853013D01*
X94505628Y-52853013D02*
X94679958Y-53120810D01*
X94679958Y-53120810D02*
X94829148Y-53361736D01*
X94829148Y-53361736D02*
X94952003Y-53573563D01*
X94952003Y-53573563D02*
X95047323Y-53754065D01*
X95047323Y-53754065D02*
X95113913Y-53901016D01*
X95113913Y-53901016D02*
X95150575Y-54012189D01*
X95150575Y-54012189D02*
X95157800Y-54065918D01*
X95157800Y-54065918D02*
X95133012Y-54166460D01*
X95133012Y-54166460D02*
X95059536Y-54257699D01*
X95059536Y-54257699D02*
X94938702Y-54339209D01*
X94938702Y-54339209D02*
X94771838Y-54410565D01*
X94771838Y-54410565D02*
X94560275Y-54471341D01*
X94560275Y-54471341D02*
X94305343Y-54521114D01*
X94305343Y-54521114D02*
X94008371Y-54559457D01*
X94008371Y-54559457D02*
X93670690Y-54585946D01*
X93670690Y-54585946D02*
X93506800Y-54593845D01*
X93506800Y-54593845D02*
X93361625Y-54599119D01*
X93361625Y-54599119D02*
X93258096Y-54601019D01*
X93258096Y-54601019D02*
X93187126Y-54598778D01*
X93187126Y-54598778D02*
X93139625Y-54591631D01*
X93139625Y-54591631D02*
X93106507Y-54578814D01*
X93106507Y-54578814D02*
X93078685Y-54559562D01*
X93078685Y-54559562D02*
X93076269Y-54557602D01*
X93076269Y-54557602D02*
X93026757Y-54487523D01*
X93026757Y-54487523D02*
X93012715Y-54399625D01*
X93012715Y-54399625D02*
X93034771Y-54313061D01*
X93034771Y-54313061D02*
X93066784Y-54268527D01*
X93066784Y-54268527D02*
X93092005Y-54248117D01*
X93092005Y-54248117D02*
X93126506Y-54232667D01*
X93126506Y-54232667D02*
X93178592Y-54220801D01*
X93178592Y-54220801D02*
X93256564Y-54211145D01*
X93256564Y-54211145D02*
X93368725Y-54202321D01*
X93368725Y-54202321D02*
X93522714Y-54192993D01*
X93522714Y-54192993D02*
X93750851Y-54177267D01*
X93750851Y-54177267D02*
X93969215Y-54156858D01*
X93969215Y-54156858D02*
X94171820Y-54132743D01*
X94171820Y-54132743D02*
X94352684Y-54105897D01*
X94352684Y-54105897D02*
X94505821Y-54077297D01*
X94505821Y-54077297D02*
X94625249Y-54047919D01*
X94625249Y-54047919D02*
X94704983Y-54018740D01*
X94704983Y-54018740D02*
X94737067Y-53994841D01*
X94737067Y-53994841D02*
X94731247Y-53959947D01*
X94731247Y-53959947D02*
X94696230Y-53886485D01*
X94696230Y-53886485D02*
X94633372Y-53776470D01*
X94633372Y-53776470D02*
X94544034Y-53631916D01*
X94544034Y-53631916D02*
X94429573Y-53454837D01*
X94429573Y-53454837D02*
X94291348Y-53247248D01*
X94291348Y-53247248D02*
X94130717Y-53011163D01*
X94130717Y-53011163D02*
X93949040Y-52748597D01*
X93949040Y-52748597D02*
X93747674Y-52461565D01*
X93747674Y-52461565D02*
X93527978Y-52152080D01*
X93527978Y-52152080D02*
X93291311Y-51822157D01*
X93291311Y-51822157D02*
X93039031Y-51473811D01*
X93039031Y-51473811D02*
X93009462Y-51433186D01*
X93009462Y-51433186D02*
X92922495Y-51314252D01*
X92922495Y-51314252D02*
X92858935Y-51230303D01*
X92858935Y-51230303D02*
X92812305Y-51175243D01*
X92812305Y-51175243D02*
X92776127Y-51142980D01*
X92776127Y-51142980D02*
X92743922Y-51127417D01*
X92743922Y-51127417D02*
X92709215Y-51122460D01*
X92709215Y-51122460D02*
X92678760Y-51122036D01*
X92678760Y-51122036D02*
X92561138Y-51146118D01*
X92561138Y-51146118D02*
X92445535Y-51213980D01*
X92445535Y-51213980D02*
X92339683Y-51318927D01*
X92339683Y-51318927D02*
X92251314Y-51454260D01*
X92251314Y-51454260D02*
X92221436Y-51518157D01*
X92221436Y-51518157D02*
X92204691Y-51561638D01*
X92204691Y-51561638D02*
X92198133Y-51599115D01*
X92198133Y-51599115D02*
X92204256Y-51641967D01*
X92204256Y-51641967D02*
X92225555Y-51701571D01*
X92225555Y-51701571D02*
X92264526Y-51789305D01*
X92264526Y-51789305D02*
X92295566Y-51856180D01*
X92295566Y-51856180D02*
X92421246Y-52182084D01*
X92421246Y-52182084D02*
X92498317Y-52512141D01*
X92498317Y-52512141D02*
X92527492Y-52842303D01*
X92527492Y-52842303D02*
X92509488Y-53168524D01*
X92509488Y-53168524D02*
X92445016Y-53486755D01*
X92445016Y-53486755D02*
X92334792Y-53792950D01*
X92334792Y-53792950D02*
X92179529Y-54083062D01*
X92179529Y-54083062D02*
X91979942Y-54353044D01*
X91979942Y-54353044D02*
X91826224Y-54516357D01*
X91826224Y-54516357D02*
X91564133Y-54737314D01*
X91564133Y-54737314D02*
X91282247Y-54911507D01*
X91282247Y-54911507D02*
X90980073Y-55039149D01*
X90980073Y-55039149D02*
X90657115Y-55120459D01*
X90657115Y-55120459D02*
X90369787Y-55153089D01*
X90369787Y-55153089D02*
X90021398Y-55150326D01*
X90021398Y-55150326D02*
X89694020Y-55101514D01*
X89694020Y-55101514D02*
X89385939Y-55006005D01*
X89385939Y-55006005D02*
X89095439Y-54863147D01*
X89095439Y-54863147D02*
X88820808Y-54672292D01*
X88820808Y-54672292D02*
X88614293Y-54487500D01*
X88614293Y-54487500D02*
X88385000Y-54230939D01*
X88385000Y-54230939D02*
X88204552Y-53961970D01*
X88204552Y-53961970D02*
X88072059Y-53678543D01*
X88072059Y-53678543D02*
X87986633Y-53378607D01*
X87986633Y-53378607D02*
X87947386Y-53060112D01*
X87947386Y-53060112D02*
X87944429Y-52943199D01*
X87944429Y-52943199D02*
X88350975Y-52943199D01*
X88350975Y-52943199D02*
X88355552Y-53118182D01*
X88355552Y-53118182D02*
X88372674Y-53266503D01*
X88372674Y-53266503D02*
X88406491Y-53405713D01*
X88406491Y-53405713D02*
X88461156Y-53553361D01*
X88461156Y-53553361D02*
X88532093Y-53708970D01*
X88532093Y-53708970D02*
X88600996Y-53844501D01*
X88600996Y-53844501D02*
X88665593Y-53950645D01*
X88665593Y-53950645D02*
X88738759Y-54045823D01*
X88738759Y-54045823D02*
X88833368Y-54148453D01*
X88833368Y-54148453D02*
X88853932Y-54169405D01*
X88853932Y-54169405D02*
X88952262Y-54263514D01*
X88952262Y-54263514D02*
X89054819Y-54352513D01*
X89054819Y-54352513D02*
X89152717Y-54429601D01*
X89152717Y-54429601D02*
X89237069Y-54487979D01*
X89237069Y-54487979D02*
X89298988Y-54520847D01*
X89298988Y-54520847D02*
X89319476Y-54525600D01*
X89319476Y-54525600D02*
X89323162Y-54505204D01*
X89323162Y-54505204D02*
X89308549Y-54454521D01*
X89308549Y-54454521D02*
X89301803Y-54437515D01*
X89301803Y-54437515D02*
X89267311Y-54293377D01*
X89267311Y-54293377D02*
X89277491Y-54146739D01*
X89277491Y-54146739D02*
X89327602Y-54006896D01*
X89327602Y-54006896D02*
X89412905Y-53883144D01*
X89412905Y-53883144D02*
X89528659Y-53784780D01*
X89528659Y-53784780D02*
X89666578Y-53722116D01*
X89666578Y-53722116D02*
X89832081Y-53695599D01*
X89832081Y-53695599D02*
X89983086Y-53717488D01*
X89983086Y-53717488D02*
X90122329Y-53788491D01*
X90122329Y-53788491D02*
X90208473Y-53861957D01*
X90208473Y-53861957D02*
X90312780Y-53995044D01*
X90312780Y-53995044D02*
X90367980Y-54138719D01*
X90367980Y-54138719D02*
X90375232Y-54296217D01*
X90375232Y-54296217D02*
X90372415Y-54320080D01*
X90372415Y-54320080D02*
X90339240Y-54442455D01*
X90339240Y-54442455D02*
X90279056Y-54561401D01*
X90279056Y-54561401D02*
X90202265Y-54659264D01*
X90202265Y-54659264D02*
X90145646Y-54704896D01*
X90145646Y-54704896D02*
X90065100Y-54754010D01*
X90065100Y-54754010D02*
X90268300Y-54753664D01*
X90268300Y-54753664D02*
X90397102Y-54748189D01*
X90397102Y-54748189D02*
X90535737Y-54734211D01*
X90535737Y-54734211D02*
X90648571Y-54715809D01*
X90648571Y-54715809D02*
X90877816Y-54646999D01*
X90877816Y-54646999D02*
X91111128Y-54540519D01*
X91111128Y-54540519D02*
X91333326Y-54405124D01*
X91333326Y-54405124D02*
X91529232Y-54249567D01*
X91529232Y-54249567D02*
X91626184Y-54152047D01*
X91626184Y-54152047D02*
X91792838Y-53934302D01*
X91792838Y-53934302D02*
X91932533Y-53687169D01*
X91932533Y-53687169D02*
X92039266Y-53424101D01*
X92039266Y-53424101D02*
X92107034Y-53158550D01*
X92107034Y-53158550D02*
X92123668Y-53037222D01*
X92123668Y-53037222D02*
X92128190Y-52862496D01*
X92128190Y-52862496D02*
X92113568Y-52663136D01*
X92113568Y-52663136D02*
X92082315Y-52460463D01*
X92082315Y-52460463D02*
X92036943Y-52275794D01*
X92036943Y-52275794D02*
X92032120Y-52260370D01*
X92032120Y-52260370D02*
X91943746Y-52039954D01*
X91943746Y-52039954D02*
X91822212Y-51817807D01*
X91822212Y-51817807D02*
X91677047Y-51608187D01*
X91677047Y-51608187D02*
X91517777Y-51425347D01*
X91517777Y-51425347D02*
X91405907Y-51323288D01*
X91405907Y-51323288D02*
X91172546Y-51164566D01*
X91172546Y-51164566D02*
X90922646Y-51053065D01*
X90922646Y-51053065D02*
X90658975Y-50989018D01*
X90658975Y-50989018D02*
X90384307Y-50972659D01*
X90384307Y-50972659D02*
X90101411Y-51004222D01*
X90101411Y-51004222D02*
X89813059Y-51083942D01*
X89813059Y-51083942D02*
X89603989Y-51171115D01*
X89603989Y-51171115D02*
X89395974Y-51277606D01*
X89395974Y-51277606D02*
X89221497Y-51385029D01*
X89221497Y-51385029D02*
X89064251Y-51504118D01*
X89064251Y-51504118D02*
X88964015Y-51592443D01*
X88964015Y-51592443D02*
X88747291Y-51824385D01*
X88747291Y-51824385D02*
X88576996Y-52075385D01*
X88576996Y-52075385D02*
X88453767Y-52344041D01*
X88453767Y-52344041D02*
X88378240Y-52628950D01*
X88378240Y-52628950D02*
X88351053Y-52928711D01*
X88351053Y-52928711D02*
X88350975Y-52943199D01*
X88350975Y-52943199D02*
X87944429Y-52943199D01*
X87944429Y-52943199D02*
X87944391Y-52941732D01*
X87944391Y-52941732D02*
X87942698Y-52849736D01*
X87942698Y-52849736D02*
X87936281Y-52799138D01*
X87936281Y-52799138D02*
X87922751Y-52780590D01*
X87922751Y-52780590D02*
X87903835Y-52783054D01*
X87903835Y-52783054D02*
X87875126Y-52798072D01*
X87875126Y-52798072D02*
X87807235Y-52835545D01*
X87807235Y-52835545D02*
X87704896Y-52892776D01*
X87704896Y-52892776D02*
X87572844Y-52967070D01*
X87572844Y-52967070D02*
X87415813Y-53055734D01*
X87415813Y-53055734D02*
X87238540Y-53156070D01*
X87238540Y-53156070D02*
X87045758Y-53265384D01*
X87045758Y-53265384D02*
X86842202Y-53380982D01*
X86842202Y-53380982D02*
X86632608Y-53500167D01*
X86632608Y-53500167D02*
X86421709Y-53620245D01*
X86421709Y-53620245D02*
X86214241Y-53738520D01*
X86214241Y-53738520D02*
X86014938Y-53852298D01*
X86014938Y-53852298D02*
X85828536Y-53958882D01*
X85828536Y-53958882D02*
X85659768Y-54055579D01*
X85659768Y-54055579D02*
X85513371Y-54139692D01*
X85513371Y-54139692D02*
X85394078Y-54208527D01*
X85394078Y-54208527D02*
X85306624Y-54259389D01*
X85306624Y-54259389D02*
X85255745Y-54289582D01*
X85255745Y-54289582D02*
X85244675Y-54296712D01*
X85244675Y-54296712D02*
X85241092Y-54328820D01*
X85241092Y-54328820D02*
X83898005Y-54328820D01*
X83898005Y-54328820D02*
X84009434Y-54275297D01*
X84009434Y-54275297D02*
X84229883Y-54204401D01*
X84229883Y-54204401D02*
X84443344Y-54171585D01*
X84443344Y-54171585D02*
X84497330Y-54170000D01*
X84497330Y-54170000D02*
X84598004Y-54162784D01*
X84598004Y-54162784D02*
X84686627Y-54144069D01*
X84686627Y-54144069D02*
X84720598Y-54130762D01*
X84720598Y-54130762D02*
X84769589Y-54100301D01*
X84769589Y-54100301D02*
X84785837Y-54065437D01*
X84785837Y-54065437D02*
X84778283Y-54004928D01*
X84778283Y-54004928D02*
X84776723Y-53997412D01*
X84776723Y-53997412D02*
X84767215Y-53920880D01*
X84767215Y-53920880D02*
X84760714Y-53802934D01*
X84760714Y-53802934D02*
X84757059Y-53652859D01*
X84757059Y-53652859D02*
X84756089Y-53479944D01*
X84756089Y-53479944D02*
X84756711Y-53405238D01*
X84756711Y-53405238D02*
X85149938Y-53405238D01*
X85149938Y-53405238D02*
X85152542Y-53550615D01*
X85152542Y-53550615D02*
X85158553Y-53675773D01*
X85158553Y-53675773D02*
X85167826Y-53773321D01*
X85167826Y-53773321D02*
X85180217Y-53835868D01*
X85180217Y-53835868D02*
X85195582Y-53856023D01*
X85195582Y-53856023D02*
X85197742Y-53855172D01*
X85197742Y-53855172D02*
X85222111Y-53841273D01*
X85222111Y-53841273D02*
X85286722Y-53804456D01*
X85286722Y-53804456D02*
X85387674Y-53746943D01*
X85387674Y-53746943D02*
X85521067Y-53670956D01*
X85521067Y-53670956D02*
X85682998Y-53578718D01*
X85682998Y-53578718D02*
X85869567Y-53472450D01*
X85869567Y-53472450D02*
X86076873Y-53354375D01*
X86076873Y-53354375D02*
X86301015Y-53226715D01*
X86301015Y-53226715D02*
X86521800Y-53100970D01*
X86521800Y-53100970D02*
X86761888Y-52964293D01*
X86761888Y-52964293D02*
X86991766Y-52833543D01*
X86991766Y-52833543D02*
X87207115Y-52711169D01*
X87207115Y-52711169D02*
X87403616Y-52599620D01*
X87403616Y-52599620D02*
X87576952Y-52501345D01*
X87576952Y-52501345D02*
X87722803Y-52418792D01*
X87722803Y-52418792D02*
X87836851Y-52354410D01*
X87836851Y-52354410D02*
X87914777Y-52310648D01*
X87914777Y-52310648D02*
X87949493Y-52291435D01*
X87949493Y-52291435D02*
X88031421Y-52238460D01*
X88031421Y-52238460D02*
X88082481Y-52177786D01*
X88082481Y-52177786D02*
X88112530Y-52112600D01*
X88112530Y-52112600D02*
X88199035Y-51930875D01*
X88199035Y-51930875D02*
X88322055Y-51736540D01*
X88322055Y-51736540D02*
X88472872Y-51540106D01*
X88472872Y-51540106D02*
X88642769Y-51352086D01*
X88642769Y-51352086D02*
X88823027Y-51182991D01*
X88823027Y-51182991D02*
X88991862Y-51052252D01*
X88991862Y-51052252D02*
X89301402Y-50864213D01*
X89301402Y-50864213D02*
X89615212Y-50722462D01*
X89615212Y-50722462D02*
X89930162Y-50626938D01*
X89930162Y-50626938D02*
X90243122Y-50577582D01*
X90243122Y-50577582D02*
X90550962Y-50574330D01*
X90550962Y-50574330D02*
X90850549Y-50617123D01*
X90850549Y-50617123D02*
X91138755Y-50705899D01*
X91138755Y-50705899D02*
X91412448Y-50840597D01*
X91412448Y-50840597D02*
X91668498Y-51021156D01*
X91668498Y-51021156D02*
X91765462Y-51106380D01*
X91765462Y-51106380D02*
X91830762Y-51165421D01*
X91830762Y-51165421D02*
X91881264Y-51207533D01*
X91881264Y-51207533D02*
X91906034Y-51223599D01*
X91906034Y-51223599D02*
X91906036Y-51223600D01*
X91906036Y-51223600D02*
X91927691Y-51204021D01*
X91927691Y-51204021D02*
X91960825Y-51156133D01*
X91960825Y-51156133D02*
X91965326Y-51148640D01*
X91965326Y-51148640D02*
X92080625Y-51000360D01*
X92080625Y-51000360D02*
X92231898Y-50876422D01*
X92231898Y-50876422D02*
X92407299Y-50784021D01*
X92407299Y-50784021D02*
X92594983Y-50730350D01*
X92594983Y-50730350D02*
X92668626Y-50721493D01*
X92668626Y-50721493D02*
X92844486Y-50708911D01*
X92844486Y-50708911D02*
X92844567Y-50533255D01*
X92844567Y-50533255D02*
X93243045Y-50533255D01*
X93243045Y-50533255D02*
X93252923Y-50698410D01*
X93252923Y-50698410D02*
X93277000Y-50838563D01*
X93277000Y-50838563D02*
X93289567Y-50880700D01*
X93289567Y-50880700D02*
X93373369Y-51086992D01*
X93373369Y-51086992D02*
X93472086Y-51272536D01*
X93472086Y-51272536D02*
X93578118Y-51423310D01*
X93578118Y-51423310D02*
X93593336Y-51441098D01*
X93593336Y-51441098D02*
X93702081Y-51564678D01*
X93702081Y-51564678D02*
X93700022Y-51413140D01*
X93700022Y-51413140D02*
X93713252Y-51271149D01*
X93713252Y-51271149D02*
X93761590Y-51154217D01*
X93761590Y-51154217D02*
X93851527Y-51048956D01*
X93851527Y-51048956D02*
X93894539Y-51011985D01*
X93894539Y-51011985D02*
X94016431Y-50943966D01*
X94016431Y-50943966D02*
X94152657Y-50918350D01*
X94152657Y-50918350D02*
X94292238Y-50933496D01*
X94292238Y-50933496D02*
X94424193Y-50987764D01*
X94424193Y-50987764D02*
X94537542Y-51079514D01*
X94537542Y-51079514D02*
X94564768Y-51112114D01*
X94564768Y-51112114D02*
X94608944Y-51182784D01*
X94608944Y-51182784D02*
X94633630Y-51261758D01*
X94633630Y-51261758D02*
X94645345Y-51365509D01*
X94645345Y-51365509D02*
X94648066Y-51464224D01*
X94648066Y-51464224D02*
X94637834Y-51535735D01*
X94637834Y-51535735D02*
X94609975Y-51602960D01*
X94609975Y-51602960D02*
X94589430Y-51639649D01*
X94589430Y-51639649D02*
X94490414Y-51761653D01*
X94490414Y-51761653D02*
X94361348Y-51843107D01*
X94361348Y-51843107D02*
X94268800Y-51871986D01*
X94268800Y-51871986D02*
X94211891Y-51885258D01*
X94211891Y-51885258D02*
X94200455Y-51895496D01*
X94200455Y-51895496D02*
X94230211Y-51909943D01*
X94230211Y-51909943D02*
X94243400Y-51914991D01*
X94243400Y-51914991D02*
X94504614Y-51991499D01*
X94504614Y-51991499D02*
X94773684Y-52027985D01*
X94773684Y-52027985D02*
X95039522Y-52024096D01*
X95039522Y-52024096D02*
X95291038Y-51979478D01*
X95291038Y-51979478D02*
X95382002Y-51951262D01*
X95382002Y-51951262D02*
X95652785Y-51830291D01*
X95652785Y-51830291D02*
X95892014Y-51670454D01*
X95892014Y-51670454D02*
X96097062Y-51474568D01*
X96097062Y-51474568D02*
X96265302Y-51245447D01*
X96265302Y-51245447D02*
X96394106Y-50985910D01*
X96394106Y-50985910D02*
X96456129Y-50799719D01*
X96456129Y-50799719D02*
X96492938Y-50596123D01*
X96492938Y-50596123D02*
X96501937Y-50369587D01*
X96501937Y-50369587D02*
X96483882Y-50139181D01*
X96483882Y-50139181D02*
X96439526Y-49923972D01*
X96439526Y-49923972D02*
X96418874Y-49858472D01*
X96418874Y-49858472D02*
X96301603Y-49584532D01*
X96301603Y-49584532D02*
X96153251Y-49342535D01*
X96153251Y-49342535D02*
X95977178Y-49136544D01*
X95977178Y-49136544D02*
X95776745Y-48970623D01*
X95776745Y-48970623D02*
X95601036Y-48869427D01*
X95601036Y-48869427D02*
X95498261Y-48822969D01*
X95498261Y-48822969D02*
X95414913Y-48793580D01*
X95414913Y-48793580D02*
X95331264Y-48776610D01*
X95331264Y-48776610D02*
X95227589Y-48767410D01*
X95227589Y-48767410D02*
X95153444Y-48763918D01*
X95153444Y-48763918D02*
X95018998Y-48761285D01*
X95018998Y-48761285D02*
X94911099Y-48767767D01*
X94911099Y-48767767D02*
X94805885Y-48786181D01*
X94805885Y-48786181D02*
X94679495Y-48819345D01*
X94679495Y-48819345D02*
X94676432Y-48820222D01*
X94676432Y-48820222D02*
X94380009Y-48928035D01*
X94380009Y-48928035D02*
X94107114Y-49072784D01*
X94107114Y-49072784D02*
X93862365Y-49250317D01*
X93862365Y-49250317D02*
X93650378Y-49456481D01*
X93650378Y-49456481D02*
X93475771Y-49687125D01*
X93475771Y-49687125D02*
X93343160Y-49938097D01*
X93343160Y-49938097D02*
X93297036Y-50060732D01*
X93297036Y-50060732D02*
X93265259Y-50197119D01*
X93265259Y-50197119D02*
X93247210Y-50360392D01*
X93247210Y-50360392D02*
X93243045Y-50533255D01*
X93243045Y-50533255D02*
X92844567Y-50533255D01*
X92844567Y-50533255D02*
X92844600Y-50464605D01*
X92844600Y-50464605D02*
X92866478Y-50179912D01*
X92866478Y-50179912D02*
X92929305Y-49900768D01*
X92929305Y-49900768D02*
X92987800Y-49737420D01*
X92987800Y-49737420D02*
X93049076Y-49615357D01*
X93049076Y-49615357D02*
X93136548Y-49473655D01*
X93136548Y-49473655D02*
X93239732Y-49327822D01*
X93239732Y-49327822D02*
X93348145Y-49193365D01*
X93348145Y-49193365D02*
X93378951Y-49158839D01*
X93378951Y-49158839D02*
X93434995Y-49099342D01*
X93434995Y-49099342D02*
X93471801Y-49056504D01*
X93471801Y-49056504D02*
X93486053Y-49022510D01*
X93486053Y-49022510D02*
X93474432Y-48989544D01*
X93474432Y-48989544D02*
X93433620Y-48949791D01*
X93433620Y-48949791D02*
X93360301Y-48895436D01*
X93360301Y-48895436D02*
X93251157Y-48818664D01*
X93251157Y-48818664D02*
X93227400Y-48801824D01*
X93227400Y-48801824D02*
X93110941Y-48719413D01*
X93110941Y-48719413D02*
X93027678Y-48663732D01*
X93027678Y-48663732D02*
X92969198Y-48632365D01*
X92969198Y-48632365D02*
X92927088Y-48622898D01*
X92927088Y-48622898D02*
X92892937Y-48632915D01*
X92892937Y-48632915D02*
X92858331Y-48660000D01*
X92858331Y-48660000D02*
X92829561Y-48687601D01*
X92829561Y-48687601D02*
X92715643Y-48820835D01*
X92715643Y-48820835D02*
X92614846Y-48981114D01*
X92614846Y-48981114D02*
X92552997Y-49115400D01*
X92552997Y-49115400D02*
X92495559Y-49228927D01*
X92495559Y-49228927D02*
X92425455Y-49295611D01*
X92425455Y-49295611D02*
X92339359Y-49318546D01*
X92339359Y-49318546D02*
X92334431Y-49318600D01*
X92334431Y-49318600D02*
X92257939Y-49298108D01*
X92257939Y-49298108D02*
X92189130Y-49246583D01*
X92189130Y-49246583D02*
X92144228Y-49178951D01*
X92144228Y-49178951D02*
X92135510Y-49135604D01*
X92135510Y-49135604D02*
X92148584Y-49068467D01*
X92148584Y-49068467D02*
X92183277Y-48971467D01*
X92183277Y-48971467D02*
X92233561Y-48857358D01*
X92233561Y-48857358D02*
X92293408Y-48738895D01*
X92293408Y-48738895D02*
X92356788Y-48628832D01*
X92356788Y-48628832D02*
X92416110Y-48541942D01*
X92416110Y-48541942D02*
X92468005Y-48471681D01*
X92468005Y-48471681D02*
X92502922Y-48418549D01*
X92502922Y-48418549D02*
X92513674Y-48393530D01*
X92513674Y-48393530D02*
X92513437Y-48393203D01*
X92513437Y-48393203D02*
X92477822Y-48372260D01*
X92477822Y-48372260D02*
X92405564Y-48338949D01*
X92405564Y-48338949D02*
X92307906Y-48297853D01*
X92307906Y-48297853D02*
X92196092Y-48253559D01*
X92196092Y-48253559D02*
X92081366Y-48210651D01*
X92081366Y-48210651D02*
X91976495Y-48174218D01*
X91976495Y-48174218D02*
X91493933Y-48041280D01*
X91493933Y-48041280D02*
X91005475Y-47958648D01*
X91005475Y-47958648D02*
X90511932Y-47926272D01*
X90511932Y-47926272D02*
X90014115Y-47944102D01*
X90014115Y-47944102D02*
X89512834Y-48012088D01*
X89512834Y-48012088D02*
X89008899Y-48130182D01*
X89008899Y-48130182D02*
X88503123Y-48298333D01*
X88503123Y-48298333D02*
X88246223Y-48402704D01*
X88246223Y-48402704D02*
X87829634Y-48609207D01*
X87829634Y-48609207D02*
X87428596Y-48861565D01*
X87428596Y-48861565D02*
X87047230Y-49156135D01*
X87047230Y-49156135D02*
X86689655Y-49489276D01*
X86689655Y-49489276D02*
X86359990Y-49857345D01*
X86359990Y-49857345D02*
X86062355Y-50256699D01*
X86062355Y-50256699D02*
X85945340Y-50436981D01*
X85945340Y-50436981D02*
X85730766Y-50824175D01*
X85730766Y-50824175D02*
X85545171Y-51245662D01*
X85545171Y-51245662D02*
X85391661Y-51692019D01*
X85391661Y-51692019D02*
X85273342Y-52153823D01*
X85273342Y-52153823D02*
X85193323Y-52621648D01*
X85193323Y-52621648D02*
X85176487Y-52769341D01*
X85176487Y-52769341D02*
X85164016Y-52921692D01*
X85164016Y-52921692D02*
X85155530Y-53083385D01*
X85155530Y-53083385D02*
X85150886Y-53247031D01*
X85150886Y-53247031D02*
X85149938Y-53405238D01*
X85149938Y-53405238D02*
X84756711Y-53405238D01*
X84756711Y-53405238D02*
X84757644Y-53293475D01*
X84757644Y-53293475D02*
X84761561Y-53102739D01*
X84761561Y-53102739D02*
X84767679Y-52917022D01*
X84767679Y-52917022D02*
X84775838Y-52745611D01*
X84775838Y-52745611D02*
X84785876Y-52597793D01*
X84785876Y-52597793D02*
X84797632Y-52482854D01*
X84797632Y-52482854D02*
X84803711Y-52442800D01*
X84803711Y-52442800D02*
X84850290Y-52197895D01*
X84850290Y-52197895D02*
X84899683Y-51968223D01*
X84899683Y-51968223D02*
X84949283Y-51765099D01*
X84949283Y-51765099D02*
X84996480Y-51599839D01*
X84996480Y-51599839D02*
X85001793Y-51583292D01*
X85001793Y-51583292D02*
X85025343Y-51499017D01*
X85025343Y-51499017D02*
X85036257Y-51434129D01*
X85036257Y-51434129D02*
X85032372Y-51403161D01*
X85032372Y-51403161D02*
X84997070Y-51387741D01*
X84997070Y-51387741D02*
X84928750Y-51367891D01*
X84928750Y-51367891D02*
X84866757Y-51353314D01*
X84866757Y-51353314D02*
X84649529Y-51285002D01*
X84649529Y-51285002D02*
X84433580Y-51177088D01*
X84433580Y-51177088D02*
X84231250Y-51038034D01*
X84231250Y-51038034D02*
X84054877Y-50876303D01*
X84054877Y-50876303D02*
X83918424Y-50702900D01*
X83918424Y-50702900D02*
X83828315Y-50545468D01*
X83828315Y-50545468D02*
X83768218Y-50394628D01*
X83768218Y-50394628D02*
X83733329Y-50233350D01*
X83733329Y-50233350D02*
X83718846Y-50044604D01*
X83718846Y-50044604D02*
X83717856Y-49991700D01*
X83717856Y-49991700D02*
X83718320Y-49855612D01*
X83718320Y-49855612D02*
X83724644Y-49751056D01*
X83724644Y-49751056D02*
X83739541Y-49658857D01*
X83739541Y-49658857D02*
X83765727Y-49559843D01*
X83765727Y-49559843D02*
X83789777Y-49483700D01*
X83789777Y-49483700D02*
X83850741Y-49323671D01*
X83850741Y-49323671D02*
X83914514Y-49211218D01*
X83914514Y-49211218D02*
X83983610Y-49143116D01*
X83983610Y-49143116D02*
X84060542Y-49116143D01*
X84060542Y-49116143D02*
X84077018Y-49115400D01*
X84077018Y-49115400D02*
X84158402Y-49138136D01*
X84158402Y-49138136D02*
X84208802Y-49177199D01*
X84208802Y-49177199D02*
X84241675Y-49225337D01*
X84241675Y-49225337D02*
X84255277Y-49285389D01*
X84255277Y-49285389D02*
X84248949Y-49365856D01*
X84248949Y-49365856D02*
X84222031Y-49475241D01*
X84222031Y-49475241D02*
X84174450Y-49620374D01*
X84174450Y-49620374D02*
X84118394Y-49846786D01*
X84118394Y-49846786D02*
X84110500Y-50064365D01*
X84110500Y-50064365D02*
X84149939Y-50269514D01*
X84149939Y-50269514D02*
X84235883Y-50458638D01*
X84235883Y-50458638D02*
X84367505Y-50628141D01*
X84367505Y-50628141D02*
X84417539Y-50676218D01*
X84417539Y-50676218D02*
X84569795Y-50792629D01*
X84569795Y-50792629D02*
X84739480Y-50887905D01*
X84739480Y-50887905D02*
X84912957Y-50956023D01*
X84912957Y-50956023D02*
X85076590Y-50990959D01*
X85076590Y-50990959D02*
X85137500Y-50994292D01*
X85137500Y-50994292D02*
X85172667Y-50991308D01*
X85172667Y-50991308D02*
X85201208Y-50977004D01*
X85201208Y-50977004D02*
X85229398Y-50943187D01*
X85229398Y-50943187D02*
X85263515Y-50881662D01*
X85263515Y-50881662D02*
X85309835Y-50784236D01*
X85309835Y-50784236D02*
X85326975Y-50746943D01*
X85326975Y-50746943D02*
X85540564Y-50334306D01*
X85540564Y-50334306D02*
X85799537Y-49930742D01*
X85799537Y-49930742D02*
X86106083Y-49532992D01*
X86106083Y-49532992D02*
X86267239Y-49347104D01*
X86267239Y-49347104D02*
X86360763Y-49241951D01*
X86360763Y-49241951D02*
X86423727Y-49167747D01*
X86423727Y-49167747D02*
X86460191Y-49118264D01*
X86460191Y-49118264D02*
X86474217Y-49087274D01*
X86474217Y-49087274D02*
X86469867Y-49068550D01*
X86469867Y-49068550D02*
X86455692Y-49058117D01*
X86455692Y-49058117D02*
X86395684Y-49014723D01*
X86395684Y-49014723D02*
X86315260Y-48940670D01*
X86315260Y-48940670D02*
X86223856Y-48846406D01*
X86223856Y-48846406D02*
X86130907Y-48742376D01*
X86130907Y-48742376D02*
X86045847Y-48639026D01*
X86045847Y-48639026D02*
X85978112Y-48546805D01*
X85978112Y-48546805D02*
X85945239Y-48492919D01*
X85945239Y-48492919D02*
X85835492Y-48234339D01*
X85835492Y-48234339D02*
X85774286Y-47972111D01*
X85774286Y-47972111D02*
X85760995Y-47710817D01*
X85760995Y-47710817D02*
X85794996Y-47455037D01*
X85794996Y-47455037D02*
X85875665Y-47209352D01*
X85875665Y-47209352D02*
X86002378Y-46978344D01*
X86002378Y-46978344D02*
X86174510Y-46766594D01*
X86174510Y-46766594D02*
X86181387Y-46759550D01*
X86181387Y-46759550D02*
X86289787Y-46657040D01*
X86289787Y-46657040D02*
X86377059Y-46594965D01*
X86377059Y-46594965D02*
X86449955Y-46571296D01*
X86449955Y-46571296D02*
X86515225Y-46584001D01*
X86515225Y-46584001D02*
X86579624Y-46631051D01*
X86579624Y-46631051D02*
X86586454Y-46637745D01*
X86586454Y-46637745D02*
X86632379Y-46696220D01*
X86632379Y-46696220D02*
X86646906Y-46755065D01*
X86646906Y-46755065D02*
X86627889Y-46822141D01*
X86627889Y-46822141D02*
X86573181Y-46905307D01*
X86573181Y-46905307D02*
X86485604Y-47007020D01*
X86485604Y-47007020D02*
X86328515Y-47205914D01*
X86328515Y-47205914D02*
X86221627Y-47406857D01*
X86221627Y-47406857D02*
X86164344Y-47612472D01*
X86164344Y-47612472D02*
X86156068Y-47825383D01*
X86156068Y-47825383D02*
X86196204Y-48048213D01*
X86196204Y-48048213D02*
X86227067Y-48144592D01*
X86227067Y-48144592D02*
X86307866Y-48312496D01*
X86307866Y-48312496D02*
X86424441Y-48479110D01*
X86424441Y-48479110D02*
X86563988Y-48629054D01*
X86563988Y-48629054D02*
X86713703Y-48746949D01*
X86713703Y-48746949D02*
X86743998Y-48765479D01*
X86743998Y-48765479D02*
X86819466Y-48809258D01*
X86819466Y-48809258D02*
X87007183Y-48668299D01*
X87007183Y-48668299D02*
X87439076Y-48375352D01*
X87439076Y-48375352D02*
X87899970Y-48122482D01*
X87899970Y-48122482D02*
X88384243Y-47912592D01*
X88384243Y-47912592D02*
X88653623Y-47818102D01*
X88653623Y-47818102D02*
X88867747Y-47749027D01*
X88867747Y-47749027D02*
X88862123Y-47473363D01*
X88862123Y-47473363D02*
X88876511Y-47186594D01*
X88876511Y-47186594D02*
X88932254Y-46929188D01*
X88932254Y-46929188D02*
X89029752Y-46700450D01*
X89029752Y-46700450D02*
X89169406Y-46499687D01*
X89169406Y-46499687D02*
X89351615Y-46326205D01*
X89351615Y-46326205D02*
X89576781Y-46179310D01*
X89576781Y-46179310D02*
X89622831Y-46155169D01*
X89622831Y-46155169D02*
X89732997Y-46109200D01*
X89732997Y-46109200D02*
X89876395Y-46063309D01*
X89876395Y-46063309D02*
X90035660Y-46022104D01*
X90035660Y-46022104D02*
X90193426Y-45990192D01*
X90193426Y-45990192D02*
X90302120Y-45974939D01*
X90302120Y-45974939D02*
X90390536Y-45968284D01*
X90390536Y-45968284D02*
X90445850Y-45973564D01*
X90445850Y-45973564D02*
X90445850Y-45973564D01*
G36*
X83087088Y-55207713D02*
G01*
X83204910Y-54961566D01*
X83370649Y-54728231D01*
X83431591Y-54658921D01*
X83597746Y-54508311D01*
X83794541Y-54378518D01*
X83898005Y-54328820D01*
X85241092Y-54328820D01*
X85250413Y-54401355D01*
X85270831Y-54506122D01*
X85300540Y-54634925D01*
X85337736Y-54779566D01*
X85380612Y-54931851D01*
X85395826Y-54982800D01*
X85568719Y-55469846D01*
X85782318Y-55927816D01*
X86034689Y-56355058D01*
X86323898Y-56749920D01*
X86648008Y-57110752D01*
X87005085Y-57435902D01*
X87393193Y-57723719D01*
X87810399Y-57972552D01*
X88254766Y-58180750D01*
X88724360Y-58346660D01*
X89217245Y-58468633D01*
X89544400Y-58522926D01*
X89726667Y-58541391D01*
X89944447Y-58553631D01*
X90182827Y-58559600D01*
X90426898Y-58559255D01*
X90661748Y-58552554D01*
X90872467Y-58539453D01*
X90992200Y-58527139D01*
X91526788Y-58436194D01*
X92048538Y-58300094D01*
X92553390Y-58120775D01*
X93037288Y-57900176D01*
X93496172Y-57640234D01*
X93925985Y-57342886D01*
X94322669Y-57010072D01*
X94474039Y-56864569D01*
X94792438Y-56517943D01*
X95064887Y-56159354D01*
X95296017Y-55781526D01*
X95490462Y-55377182D01*
X95599228Y-55097100D01*
X95714464Y-54705546D01*
X95792693Y-54287781D01*
X95833491Y-53852837D01*
X95836436Y-53409750D01*
X95801104Y-52967553D01*
X95727072Y-52535280D01*
X95720583Y-52506300D01*
X95699045Y-52412220D01*
X95678905Y-52351288D01*
X95650466Y-52319494D01*
X95604032Y-52312828D01*
X95529905Y-52327280D01*
X95418388Y-52358840D01*
X95386400Y-52368106D01*
X95275890Y-52395367D01*
X95160763Y-52412867D01*
X95024973Y-52422424D01*
X94878400Y-52425686D01*
X94745334Y-52425839D01*
X94640642Y-52422262D01*
X94548862Y-52412695D01*
X94454533Y-52394881D01*
X94342194Y-52366561D01*
X94200578Y-52326682D01*
X94189761Y-52331965D01*
X94198074Y-52361332D01*
X94227400Y-52418036D01*
X94279624Y-52505327D01*
X94356629Y-52626455D01*
X94460300Y-52784672D01*
X94505628Y-52853013D01*
X94679958Y-53120810D01*
X94829148Y-53361736D01*
X94952003Y-53573563D01*
X95047323Y-53754065D01*
X95113913Y-53901016D01*
X95150575Y-54012189D01*
X95157800Y-54065918D01*
X95133012Y-54166460D01*
X95059536Y-54257699D01*
X94938702Y-54339209D01*
X94771838Y-54410565D01*
X94560275Y-54471341D01*
X94305343Y-54521114D01*
X94008371Y-54559457D01*
X93670690Y-54585946D01*
X93506800Y-54593845D01*
X93361625Y-54599119D01*
X93258096Y-54601019D01*
X93187126Y-54598778D01*
X93139625Y-54591631D01*
X93106507Y-54578814D01*
X93078685Y-54559562D01*
X93076269Y-54557602D01*
X93026757Y-54487523D01*
X93012715Y-54399625D01*
X93034771Y-54313061D01*
X93066784Y-54268527D01*
X93092005Y-54248117D01*
X93126506Y-54232667D01*
X93178592Y-54220801D01*
X93256564Y-54211145D01*
X93368725Y-54202321D01*
X93522714Y-54192993D01*
X93750851Y-54177267D01*
X93969215Y-54156858D01*
X94171820Y-54132743D01*
X94352684Y-54105897D01*
X94505821Y-54077297D01*
X94625249Y-54047919D01*
X94704983Y-54018740D01*
X94737067Y-53994841D01*
X94731247Y-53959947D01*
X94696230Y-53886485D01*
X94633372Y-53776470D01*
X94544034Y-53631916D01*
X94429573Y-53454837D01*
X94291348Y-53247248D01*
X94130717Y-53011163D01*
X93949040Y-52748597D01*
X93747674Y-52461565D01*
X93527978Y-52152080D01*
X93291311Y-51822157D01*
X93039031Y-51473811D01*
X93009462Y-51433186D01*
X92922495Y-51314252D01*
X92858935Y-51230303D01*
X92812305Y-51175243D01*
X92776127Y-51142980D01*
X92743922Y-51127417D01*
X92709215Y-51122460D01*
X92678760Y-51122036D01*
X92561138Y-51146118D01*
X92445535Y-51213980D01*
X92339683Y-51318927D01*
X92251314Y-51454260D01*
X92221436Y-51518157D01*
X92204691Y-51561638D01*
X92198133Y-51599115D01*
X92204256Y-51641967D01*
X92225555Y-51701571D01*
X92264526Y-51789305D01*
X92295566Y-51856180D01*
X92421246Y-52182084D01*
X92498317Y-52512141D01*
X92527492Y-52842303D01*
X92509488Y-53168524D01*
X92445016Y-53486755D01*
X92334792Y-53792950D01*
X92179529Y-54083062D01*
X91979942Y-54353044D01*
X91826224Y-54516357D01*
X91564133Y-54737314D01*
X91282247Y-54911507D01*
X90980073Y-55039149D01*
X90657115Y-55120459D01*
X90369787Y-55153089D01*
X90021398Y-55150326D01*
X89694020Y-55101514D01*
X89385939Y-55006005D01*
X89095439Y-54863147D01*
X88820808Y-54672292D01*
X88614293Y-54487500D01*
X88385000Y-54230939D01*
X88204552Y-53961970D01*
X88072059Y-53678543D01*
X87986633Y-53378607D01*
X87947386Y-53060112D01*
X87944429Y-52943199D01*
X88350975Y-52943199D01*
X88355552Y-53118182D01*
X88372674Y-53266503D01*
X88406491Y-53405713D01*
X88461156Y-53553361D01*
X88532093Y-53708970D01*
X88600996Y-53844501D01*
X88665593Y-53950645D01*
X88738759Y-54045823D01*
X88833368Y-54148453D01*
X88853932Y-54169405D01*
X88952262Y-54263514D01*
X89054819Y-54352513D01*
X89152717Y-54429601D01*
X89237069Y-54487979D01*
X89298988Y-54520847D01*
X89319476Y-54525600D01*
X89323162Y-54505204D01*
X89308549Y-54454521D01*
X89301803Y-54437515D01*
X89267311Y-54293377D01*
X89277491Y-54146739D01*
X89327602Y-54006896D01*
X89412905Y-53883144D01*
X89528659Y-53784780D01*
X89666578Y-53722116D01*
X89832081Y-53695599D01*
X89983086Y-53717488D01*
X90122329Y-53788491D01*
X90208473Y-53861957D01*
X90312780Y-53995044D01*
X90367980Y-54138719D01*
X90375232Y-54296217D01*
X90372415Y-54320080D01*
X90339240Y-54442455D01*
X90279056Y-54561401D01*
X90202265Y-54659264D01*
X90145646Y-54704896D01*
X90065100Y-54754010D01*
X90268300Y-54753664D01*
X90397102Y-54748189D01*
X90535737Y-54734211D01*
X90648571Y-54715809D01*
X90877816Y-54646999D01*
X91111128Y-54540519D01*
X91333326Y-54405124D01*
X91529232Y-54249567D01*
X91626184Y-54152047D01*
X91792838Y-53934302D01*
X91932533Y-53687169D01*
X92039266Y-53424101D01*
X92107034Y-53158550D01*
X92123668Y-53037222D01*
X92128190Y-52862496D01*
X92113568Y-52663136D01*
X92082315Y-52460463D01*
X92036943Y-52275794D01*
X92032120Y-52260370D01*
X91943746Y-52039954D01*
X91822212Y-51817807D01*
X91677047Y-51608187D01*
X91517777Y-51425347D01*
X91405907Y-51323288D01*
X91172546Y-51164566D01*
X90922646Y-51053065D01*
X90658975Y-50989018D01*
X90384307Y-50972659D01*
X90101411Y-51004222D01*
X89813059Y-51083942D01*
X89603989Y-51171115D01*
X89395974Y-51277606D01*
X89221497Y-51385029D01*
X89064251Y-51504118D01*
X88964015Y-51592443D01*
X88747291Y-51824385D01*
X88576996Y-52075385D01*
X88453767Y-52344041D01*
X88378240Y-52628950D01*
X88351053Y-52928711D01*
X88350975Y-52943199D01*
X87944429Y-52943199D01*
X87944391Y-52941732D01*
X87942698Y-52849736D01*
X87936281Y-52799138D01*
X87922751Y-52780590D01*
X87903835Y-52783054D01*
X87875126Y-52798072D01*
X87807235Y-52835545D01*
X87704896Y-52892776D01*
X87572844Y-52967070D01*
X87415813Y-53055734D01*
X87238540Y-53156070D01*
X87045758Y-53265384D01*
X86842202Y-53380982D01*
X86632608Y-53500167D01*
X86421709Y-53620245D01*
X86214241Y-53738520D01*
X86014938Y-53852298D01*
X85828536Y-53958882D01*
X85659768Y-54055579D01*
X85513371Y-54139692D01*
X85394078Y-54208527D01*
X85306624Y-54259389D01*
X85255745Y-54289582D01*
X85244675Y-54296712D01*
X85241092Y-54328820D01*
X83898005Y-54328820D01*
X84009434Y-54275297D01*
X84229883Y-54204401D01*
X84443344Y-54171585D01*
X84497330Y-54170000D01*
X84598004Y-54162784D01*
X84686627Y-54144069D01*
X84720598Y-54130762D01*
X84769589Y-54100301D01*
X84785837Y-54065437D01*
X84778283Y-54004928D01*
X84776723Y-53997412D01*
X84767215Y-53920880D01*
X84760714Y-53802934D01*
X84757059Y-53652859D01*
X84756089Y-53479944D01*
X84756711Y-53405238D01*
X85149938Y-53405238D01*
X85152542Y-53550615D01*
X85158553Y-53675773D01*
X85167826Y-53773321D01*
X85180217Y-53835868D01*
X85195582Y-53856023D01*
X85197742Y-53855172D01*
X85222111Y-53841273D01*
X85286722Y-53804456D01*
X85387674Y-53746943D01*
X85521067Y-53670956D01*
X85682998Y-53578718D01*
X85869567Y-53472450D01*
X86076873Y-53354375D01*
X86301015Y-53226715D01*
X86521800Y-53100970D01*
X86761888Y-52964293D01*
X86991766Y-52833543D01*
X87207115Y-52711169D01*
X87403616Y-52599620D01*
X87576952Y-52501345D01*
X87722803Y-52418792D01*
X87836851Y-52354410D01*
X87914777Y-52310648D01*
X87949493Y-52291435D01*
X88031421Y-52238460D01*
X88082481Y-52177786D01*
X88112530Y-52112600D01*
X88199035Y-51930875D01*
X88322055Y-51736540D01*
X88472872Y-51540106D01*
X88642769Y-51352086D01*
X88823027Y-51182991D01*
X88991862Y-51052252D01*
X89301402Y-50864213D01*
X89615212Y-50722462D01*
X89930162Y-50626938D01*
X90243122Y-50577582D01*
X90550962Y-50574330D01*
X90850549Y-50617123D01*
X91138755Y-50705899D01*
X91412448Y-50840597D01*
X91668498Y-51021156D01*
X91765462Y-51106380D01*
X91830762Y-51165421D01*
X91881264Y-51207533D01*
X91906034Y-51223599D01*
X91906036Y-51223600D01*
X91927691Y-51204021D01*
X91960825Y-51156133D01*
X91965326Y-51148640D01*
X92080625Y-51000360D01*
X92231898Y-50876422D01*
X92407299Y-50784021D01*
X92594983Y-50730350D01*
X92668626Y-50721493D01*
X92844486Y-50708911D01*
X92844567Y-50533255D01*
X93243045Y-50533255D01*
X93252923Y-50698410D01*
X93277000Y-50838563D01*
X93289567Y-50880700D01*
X93373369Y-51086992D01*
X93472086Y-51272536D01*
X93578118Y-51423310D01*
X93593336Y-51441098D01*
X93702081Y-51564678D01*
X93700022Y-51413140D01*
X93713252Y-51271149D01*
X93761590Y-51154217D01*
X93851527Y-51048956D01*
X93894539Y-51011985D01*
X94016431Y-50943966D01*
X94152657Y-50918350D01*
X94292238Y-50933496D01*
X94424193Y-50987764D01*
X94537542Y-51079514D01*
X94564768Y-51112114D01*
X94608944Y-51182784D01*
X94633630Y-51261758D01*
X94645345Y-51365509D01*
X94648066Y-51464224D01*
X94637834Y-51535735D01*
X94609975Y-51602960D01*
X94589430Y-51639649D01*
X94490414Y-51761653D01*
X94361348Y-51843107D01*
X94268800Y-51871986D01*
X94211891Y-51885258D01*
X94200455Y-51895496D01*
X94230211Y-51909943D01*
X94243400Y-51914991D01*
X94504614Y-51991499D01*
X94773684Y-52027985D01*
X95039522Y-52024096D01*
X95291038Y-51979478D01*
X95382002Y-51951262D01*
X95652785Y-51830291D01*
X95892014Y-51670454D01*
X96097062Y-51474568D01*
X96265302Y-51245447D01*
X96394106Y-50985910D01*
X96456129Y-50799719D01*
X96492938Y-50596123D01*
X96501937Y-50369587D01*
X96483882Y-50139181D01*
X96439526Y-49923972D01*
X96418874Y-49858472D01*
X96301603Y-49584532D01*
X96153251Y-49342535D01*
X95977178Y-49136544D01*
X95776745Y-48970623D01*
X95601036Y-48869427D01*
X95498261Y-48822969D01*
X95414913Y-48793580D01*
X95331264Y-48776610D01*
X95227589Y-48767410D01*
X95153444Y-48763918D01*
X95018998Y-48761285D01*
X94911099Y-48767767D01*
X94805885Y-48786181D01*
X94679495Y-48819345D01*
X94676432Y-48820222D01*
X94380009Y-48928035D01*
X94107114Y-49072784D01*
X93862365Y-49250317D01*
X93650378Y-49456481D01*
X93475771Y-49687125D01*
X93343160Y-49938097D01*
X93297036Y-50060732D01*
X93265259Y-50197119D01*
X93247210Y-50360392D01*
X93243045Y-50533255D01*
X92844567Y-50533255D01*
X92844600Y-50464605D01*
X92866478Y-50179912D01*
X92929305Y-49900768D01*
X92987800Y-49737420D01*
X93049076Y-49615357D01*
X93136548Y-49473655D01*
X93239732Y-49327822D01*
X93348145Y-49193365D01*
X93378951Y-49158839D01*
X93434995Y-49099342D01*
X93471801Y-49056504D01*
X93486053Y-49022510D01*
X93474432Y-48989544D01*
X93433620Y-48949791D01*
X93360301Y-48895436D01*
X93251157Y-48818664D01*
X93227400Y-48801824D01*
X93110941Y-48719413D01*
X93027678Y-48663732D01*
X92969198Y-48632365D01*
X92927088Y-48622898D01*
X92892937Y-48632915D01*
X92858331Y-48660000D01*
X92829561Y-48687601D01*
X92715643Y-48820835D01*
X92614846Y-48981114D01*
X92552997Y-49115400D01*
X92495559Y-49228927D01*
X92425455Y-49295611D01*
X92339359Y-49318546D01*
X92334431Y-49318600D01*
X92257939Y-49298108D01*
X92189130Y-49246583D01*
X92144228Y-49178951D01*
X92135510Y-49135604D01*
X92148584Y-49068467D01*
X92183277Y-48971467D01*
X92233561Y-48857358D01*
X92293408Y-48738895D01*
X92356788Y-48628832D01*
X92416110Y-48541942D01*
X92468005Y-48471681D01*
X92502922Y-48418549D01*
X92513674Y-48393530D01*
X92513437Y-48393203D01*
X92477822Y-48372260D01*
X92405564Y-48338949D01*
X92307906Y-48297853D01*
X92196092Y-48253559D01*
X92081366Y-48210651D01*
X91976495Y-48174218D01*
X91493933Y-48041280D01*
X91005475Y-47958648D01*
X90511932Y-47926272D01*
X90014115Y-47944102D01*
X89512834Y-48012088D01*
X89008899Y-48130182D01*
X88503123Y-48298333D01*
X88246223Y-48402704D01*
X87829634Y-48609207D01*
X87428596Y-48861565D01*
X87047230Y-49156135D01*
X86689655Y-49489276D01*
X86359990Y-49857345D01*
X86062355Y-50256699D01*
X85945340Y-50436981D01*
X85730766Y-50824175D01*
X85545171Y-51245662D01*
X85391661Y-51692019D01*
X85273342Y-52153823D01*
X85193323Y-52621648D01*
X85176487Y-52769341D01*
X85164016Y-52921692D01*
X85155530Y-53083385D01*
X85150886Y-53247031D01*
X85149938Y-53405238D01*
X84756711Y-53405238D01*
X84757644Y-53293475D01*
X84761561Y-53102739D01*
X84767679Y-52917022D01*
X84775838Y-52745611D01*
X84785876Y-52597793D01*
X84797632Y-52482854D01*
X84803711Y-52442800D01*
X84850290Y-52197895D01*
X84899683Y-51968223D01*
X84949283Y-51765099D01*
X84996480Y-51599839D01*
X85001793Y-51583292D01*
X85025343Y-51499017D01*
X85036257Y-51434129D01*
X85032372Y-51403161D01*
X84997070Y-51387741D01*
X84928750Y-51367891D01*
X84866757Y-51353314D01*
X84649529Y-51285002D01*
X84433580Y-51177088D01*
X84231250Y-51038034D01*
X84054877Y-50876303D01*
X83918424Y-50702900D01*
X83828315Y-50545468D01*
X83768218Y-50394628D01*
X83733329Y-50233350D01*
X83718846Y-50044604D01*
X83717856Y-49991700D01*
X83718320Y-49855612D01*
X83724644Y-49751056D01*
X83739541Y-49658857D01*
X83765727Y-49559843D01*
X83789777Y-49483700D01*
X83850741Y-49323671D01*
X83914514Y-49211218D01*
X83983610Y-49143116D01*
X84060542Y-49116143D01*
X84077018Y-49115400D01*
X84158402Y-49138136D01*
X84208802Y-49177199D01*
X84241675Y-49225337D01*
X84255277Y-49285389D01*
X84248949Y-49365856D01*
X84222031Y-49475241D01*
X84174450Y-49620374D01*
X84118394Y-49846786D01*
X84110500Y-50064365D01*
X84149939Y-50269514D01*
X84235883Y-50458638D01*
X84367505Y-50628141D01*
X84417539Y-50676218D01*
X84569795Y-50792629D01*
X84739480Y-50887905D01*
X84912957Y-50956023D01*
X85076590Y-50990959D01*
X85137500Y-50994292D01*
X85172667Y-50991308D01*
X85201208Y-50977004D01*
X85229398Y-50943187D01*
X85263515Y-50881662D01*
X85309835Y-50784236D01*
X85326975Y-50746943D01*
X85540564Y-50334306D01*
X85799537Y-49930742D01*
X86106083Y-49532992D01*
X86267239Y-49347104D01*
X86360763Y-49241951D01*
X86423727Y-49167747D01*
X86460191Y-49118264D01*
X86474217Y-49087274D01*
X86469867Y-49068550D01*
X86455692Y-49058117D01*
X86395684Y-49014723D01*
X86315260Y-48940670D01*
X86223856Y-48846406D01*
X86130907Y-48742376D01*
X86045847Y-48639026D01*
X85978112Y-48546805D01*
X85945239Y-48492919D01*
X85835492Y-48234339D01*
X85774286Y-47972111D01*
X85760995Y-47710817D01*
X85794996Y-47455037D01*
X85875665Y-47209352D01*
X86002378Y-46978344D01*
X86174510Y-46766594D01*
X86181387Y-46759550D01*
X86289787Y-46657040D01*
X86377059Y-46594965D01*
X86449955Y-46571296D01*
X86515225Y-46584001D01*
X86579624Y-46631051D01*
X86586454Y-46637745D01*
X86632379Y-46696220D01*
X86646906Y-46755065D01*
X86627889Y-46822141D01*
X86573181Y-46905307D01*
X86485604Y-47007020D01*
X86328515Y-47205914D01*
X86221627Y-47406857D01*
X86164344Y-47612472D01*
X86156068Y-47825383D01*
X86196204Y-48048213D01*
X86227067Y-48144592D01*
X86307866Y-48312496D01*
X86424441Y-48479110D01*
X86563988Y-48629054D01*
X86713703Y-48746949D01*
X86743998Y-48765479D01*
X86819466Y-48809258D01*
X87007183Y-48668299D01*
X87439076Y-48375352D01*
X87899970Y-48122482D01*
X88384243Y-47912592D01*
X88653623Y-47818102D01*
X88867747Y-47749027D01*
X88862123Y-47473363D01*
X88876511Y-47186594D01*
X88932254Y-46929188D01*
X89029752Y-46700450D01*
X89169406Y-46499687D01*
X89351615Y-46326205D01*
X89576781Y-46179310D01*
X89622831Y-46155169D01*
X89732997Y-46109200D01*
X89876395Y-46063309D01*
X90035660Y-46022104D01*
X90193426Y-45990192D01*
X90302120Y-45974939D01*
X90390536Y-45968284D01*
X90445850Y-45973564D01*
X90485001Y-45993964D01*
X90506324Y-46013324D01*
X90549317Y-46088678D01*
X90558749Y-46181627D01*
X90533324Y-46270532D01*
X90522739Y-46287664D01*
X90480233Y-46323884D01*
X90404547Y-46351833D01*
X90313189Y-46370904D01*
X90040894Y-46432631D01*
X89812148Y-46517619D01*
X89624659Y-46627237D01*
X89476135Y-46762854D01*
X89364284Y-46925839D01*
X89355442Y-46942875D01*
X89296481Y-47103373D01*
X89263247Y-47294234D01*
X89258103Y-47500712D01*
X89260249Y-47537105D01*
X89267032Y-47605482D01*
X89281687Y-47635079D01*
X89315423Y-47637808D01*
X89349149Y-47631571D01*
X89622553Y-47586310D01*
X89923536Y-47553690D01*
X90237109Y-47534290D01*
X90548283Y-47528688D01*
X90842068Y-47537462D01*
X91103475Y-47561190D01*
X91119200Y-47563293D01*
X91533307Y-47636996D01*
X91946922Y-47743091D01*
X92343559Y-47876812D01*
X92648187Y-48005422D01*
X92761255Y-48056816D01*
X92837623Y-48087126D01*
X92885615Y-48098792D01*
X92913556Y-48094256D01*
X92923139Y-48086049D01*
X92960235Y-48058225D01*
X93032900Y-48015997D01*
X93129973Y-47964877D01*
X93240290Y-47910378D01*
X93352689Y-47858013D01*
X93456006Y-47813293D01*
X93539079Y-47781731D01*
X93540011Y-47781420D01*
X93681431Y-47741478D01*
X93843025Y-47706921D01*
X94004341Y-47681376D01*
X94144925Y-47668469D01*
X94182134Y-47667600D01*
X94278700Y-47673870D01*
X94341529Y-47695503D01*
X94369753Y-47717753D01*
X94427333Y-47802761D01*
X94437044Y-47890665D01*
X94402873Y-47968051D01*
X94371726Y-48003373D01*
X94332807Y-48029806D01*
X94276578Y-48050367D01*
X94193498Y-48068075D01*
X94074027Y-48085949D01*
X93999621Y-48095643D01*
X93848678Y-48122255D01*
X93689148Y-48162835D01*
X93537307Y-48212301D01*
X93409428Y-48265572D01*
X93347936Y-48299150D01*
X93271948Y-48347262D01*
X93433824Y-48456123D01*
X93534514Y-48526502D01*
X93638018Y-48603065D01*
X93715543Y-48664082D01*
X93835386Y-48763179D01*
X93983510Y-48676366D01*
X94288945Y-48524422D01*
X94603730Y-48421841D01*
X94931601Y-48367496D01*
X95031117Y-48360526D01*
X95238026Y-48359131D01*
X95416959Y-48380032D01*
X95587336Y-48427256D01*
X95768583Y-48504827D01*
X95798332Y-48519542D01*
X96052974Y-48675332D01*
X96281860Y-48872485D01*
X96481889Y-49106896D01*
X96649958Y-49374457D01*
X96782967Y-49671063D01*
X96862473Y-49928200D01*
X96885747Y-50065557D01*
X96897734Y-50236117D01*
X96898801Y-50423637D01*
X96889315Y-50611874D01*
X96869643Y-50784586D01*
X96840153Y-50925529D01*
X96839903Y-50926399D01*
X96728820Y-51229369D01*
X96576870Y-51504967D01*
X96381158Y-51757866D01*
X96229239Y-51912169D01*
X96138278Y-51999002D01*
X96080679Y-52060366D01*
X96050935Y-52103505D01*
X96043539Y-52135660D01*
X96047142Y-52151661D01*
X96059526Y-52195666D01*
X96079149Y-52277993D01*
X96103381Y-52387130D01*
X96129591Y-52511566D01*
X96131311Y-52519961D01*
X96213796Y-53037692D01*
X96246906Y-53544029D01*
X96230496Y-54040106D01*
X96164422Y-54527057D01*
X96048539Y-55006017D01*
X95882703Y-55478121D01*
X95704533Y-55870537D01*
X95467943Y-56286478D01*
X95186808Y-56681850D01*
X94864080Y-57054100D01*
X94502715Y-57400672D01*
X94105665Y-57719012D01*
X93675884Y-58006565D01*
X93216325Y-58260776D01*
X92729942Y-58479091D01*
X92654417Y-58508753D01*
X92371666Y-58613667D01*
X92116142Y-58698655D01*
X91870674Y-58768484D01*
X91618093Y-58827919D01*
X91341230Y-58881726D01*
X91258900Y-58896110D01*
X91073891Y-58921104D01*
X90851772Y-58940402D01*
X90605949Y-58953694D01*
X90349826Y-58960672D01*
X90096807Y-58961025D01*
X89860296Y-58954445D01*
X89653698Y-58940621D01*
X89595200Y-58934514D01*
X89079515Y-58850653D01*
X88575514Y-58721061D01*
X88090359Y-58547843D01*
X87742742Y-58390352D01*
X87334169Y-58165455D01*
X86955376Y-57910972D01*
X86598969Y-57621090D01*
X86257556Y-57289998D01*
X86044965Y-57055473D01*
X85985862Y-56989336D01*
X85948328Y-56956715D01*
X85921735Y-56951831D01*
X85895456Y-56968907D01*
X85891779Y-56972193D01*
X85832669Y-57012383D01*
X85737617Y-57062370D01*
X85619126Y-57116661D01*
X85489699Y-57169761D01*
X85361837Y-57216177D01*
X85275491Y-57243016D01*
X85111583Y-57278868D01*
X84924769Y-57303181D01*
X84732953Y-57314850D01*
X84554040Y-57312771D01*
X84409311Y-57296486D01*
X84130451Y-57222378D01*
X83879123Y-57109490D01*
X83648460Y-56953989D01*
X83431596Y-56752038D01*
X83428554Y-56748787D01*
X83256578Y-56537371D01*
X83131057Y-56318861D01*
X83047659Y-56085158D01*
X83028004Y-56000181D01*
X82997948Y-55729304D01*
X83005630Y-55627158D01*
X83406157Y-55627158D01*
X83407672Y-55836774D01*
X83452327Y-56046547D01*
X83543235Y-56251303D01*
X83554460Y-56270422D01*
X83670192Y-56426686D01*
X83820125Y-56574666D01*
X83991815Y-56705207D01*
X84172816Y-56809153D01*
X84350684Y-56877350D01*
X84393719Y-56887850D01*
X84524176Y-56903945D01*
X84685569Y-56906757D01*
X84860149Y-56897516D01*
X85030169Y-56877449D01*
X85177881Y-56847787D01*
X85239100Y-56829293D01*
X85418763Y-56762500D01*
X85553275Y-56705423D01*
X85641080Y-56658770D01*
X85675474Y-56630891D01*
X85685154Y-56602317D01*
X85673263Y-56556942D01*
X85636435Y-56485357D01*
X85603822Y-56430570D01*
X85544278Y-56328943D01*
X85474906Y-56204237D01*
X85408180Y-56079017D01*
X85390613Y-56044863D01*
X85338400Y-55943783D01*
X85301893Y-55880596D01*
X85274152Y-55847721D01*
X85248235Y-55837579D01*
X85217205Y-55842588D01*
X85207905Y-55845298D01*
X85087737Y-55887048D01*
X85003059Y-55931710D01*
X84955334Y-55970101D01*
X84896456Y-56044990D01*
X84882691Y-56122335D01*
X84912294Y-56214781D01*
X84919565Y-56229199D01*
X84965074Y-56346657D01*
X84967166Y-56440258D01*
X84925889Y-56508812D01*
X84907859Y-56522517D01*
X84835305Y-56548531D01*
X84766879Y-56527073D01*
X84700488Y-56456931D01*
X84652211Y-56374494D01*
X84594576Y-56212172D01*
X84586318Y-56055171D01*
X84626131Y-55908480D01*
X84712705Y-55777088D01*
X84836511Y-55671353D01*
X84905068Y-55628060D01*
X84956608Y-55599382D01*
X84975101Y-55592400D01*
X85010915Y-55584139D01*
X85063571Y-55566136D01*
X85132649Y-55539872D01*
X85058874Y-55461408D01*
X84958619Y-55378554D01*
X84841226Y-55330782D01*
X84694071Y-55313305D01*
X84667571Y-55313000D01*
X84489948Y-55336561D01*
X84333292Y-55404993D01*
X84202675Y-55514917D01*
X84103168Y-55662955D01*
X84085864Y-55700515D01*
X84027730Y-55802336D01*
X83961771Y-55855207D01*
X83889091Y-55858509D01*
X83843140Y-55836717D01*
X83792932Y-55776974D01*
X83779955Y-55694112D01*
X83800329Y-55594849D01*
X83850172Y-55485906D01*
X83925604Y-55374003D01*
X84022744Y-55265859D01*
X84137711Y-55168194D01*
X84266624Y-55087727D01*
X84279487Y-55081205D01*
X84339572Y-55054311D01*
X84398926Y-55036743D01*
X84470642Y-55026592D01*
X84567813Y-55021949D01*
X84693000Y-55020900D01*
X84985100Y-55020900D01*
X84934300Y-54812865D01*
X84909120Y-54713525D01*
X84884473Y-54646939D01*
X84850324Y-54606538D01*
X84796634Y-54585756D01*
X84713370Y-54578023D01*
X84590494Y-54576771D01*
X84573505Y-54576746D01*
X84341971Y-54598846D01*
X84128672Y-54662495D01*
X83936722Y-54762517D01*
X83769233Y-54893740D01*
X83629319Y-55050990D01*
X83520093Y-55229092D01*
X83444668Y-55422872D01*
X83406157Y-55627158D01*
X83005630Y-55627158D01*
X83017872Y-55464386D01*
X83087088Y-55207713D01*
G37*
X83087088Y-55207713D02*
X83204910Y-54961566D01*
X83370649Y-54728231D01*
X83431591Y-54658921D01*
X83597746Y-54508311D01*
X83794541Y-54378518D01*
X83898005Y-54328820D01*
X85241092Y-54328820D01*
X85250413Y-54401355D01*
X85270831Y-54506122D01*
X85300540Y-54634925D01*
X85337736Y-54779566D01*
X85380612Y-54931851D01*
X85395826Y-54982800D01*
X85568719Y-55469846D01*
X85782318Y-55927816D01*
X86034689Y-56355058D01*
X86323898Y-56749920D01*
X86648008Y-57110752D01*
X87005085Y-57435902D01*
X87393193Y-57723719D01*
X87810399Y-57972552D01*
X88254766Y-58180750D01*
X88724360Y-58346660D01*
X89217245Y-58468633D01*
X89544400Y-58522926D01*
X89726667Y-58541391D01*
X89944447Y-58553631D01*
X90182827Y-58559600D01*
X90426898Y-58559255D01*
X90661748Y-58552554D01*
X90872467Y-58539453D01*
X90992200Y-58527139D01*
X91526788Y-58436194D01*
X92048538Y-58300094D01*
X92553390Y-58120775D01*
X93037288Y-57900176D01*
X93496172Y-57640234D01*
X93925985Y-57342886D01*
X94322669Y-57010072D01*
X94474039Y-56864569D01*
X94792438Y-56517943D01*
X95064887Y-56159354D01*
X95296017Y-55781526D01*
X95490462Y-55377182D01*
X95599228Y-55097100D01*
X95714464Y-54705546D01*
X95792693Y-54287781D01*
X95833491Y-53852837D01*
X95836436Y-53409750D01*
X95801104Y-52967553D01*
X95727072Y-52535280D01*
X95720583Y-52506300D01*
X95699045Y-52412220D01*
X95678905Y-52351288D01*
X95650466Y-52319494D01*
X95604032Y-52312828D01*
X95529905Y-52327280D01*
X95418388Y-52358840D01*
X95386400Y-52368106D01*
X95275890Y-52395367D01*
X95160763Y-52412867D01*
X95024973Y-52422424D01*
X94878400Y-52425686D01*
X94745334Y-52425839D01*
X94640642Y-52422262D01*
X94548862Y-52412695D01*
X94454533Y-52394881D01*
X94342194Y-52366561D01*
X94200578Y-52326682D01*
X94189761Y-52331965D01*
X94198074Y-52361332D01*
X94227400Y-52418036D01*
X94279624Y-52505327D01*
X94356629Y-52626455D01*
X94460300Y-52784672D01*
X94505628Y-52853013D01*
X94679958Y-53120810D01*
X94829148Y-53361736D01*
X94952003Y-53573563D01*
X95047323Y-53754065D01*
X95113913Y-53901016D01*
X95150575Y-54012189D01*
X95157800Y-54065918D01*
X95133012Y-54166460D01*
X95059536Y-54257699D01*
X94938702Y-54339209D01*
X94771838Y-54410565D01*
X94560275Y-54471341D01*
X94305343Y-54521114D01*
X94008371Y-54559457D01*
X93670690Y-54585946D01*
X93506800Y-54593845D01*
X93361625Y-54599119D01*
X93258096Y-54601019D01*
X93187126Y-54598778D01*
X93139625Y-54591631D01*
X93106507Y-54578814D01*
X93078685Y-54559562D01*
X93076269Y-54557602D01*
X93026757Y-54487523D01*
X93012715Y-54399625D01*
X93034771Y-54313061D01*
X93066784Y-54268527D01*
X93092005Y-54248117D01*
X93126506Y-54232667D01*
X93178592Y-54220801D01*
X93256564Y-54211145D01*
X93368725Y-54202321D01*
X93522714Y-54192993D01*
X93750851Y-54177267D01*
X93969215Y-54156858D01*
X94171820Y-54132743D01*
X94352684Y-54105897D01*
X94505821Y-54077297D01*
X94625249Y-54047919D01*
X94704983Y-54018740D01*
X94737067Y-53994841D01*
X94731247Y-53959947D01*
X94696230Y-53886485D01*
X94633372Y-53776470D01*
X94544034Y-53631916D01*
X94429573Y-53454837D01*
X94291348Y-53247248D01*
X94130717Y-53011163D01*
X93949040Y-52748597D01*
X93747674Y-52461565D01*
X93527978Y-52152080D01*
X93291311Y-51822157D01*
X93039031Y-51473811D01*
X93009462Y-51433186D01*
X92922495Y-51314252D01*
X92858935Y-51230303D01*
X92812305Y-51175243D01*
X92776127Y-51142980D01*
X92743922Y-51127417D01*
X92709215Y-51122460D01*
X92678760Y-51122036D01*
X92561138Y-51146118D01*
X92445535Y-51213980D01*
X92339683Y-51318927D01*
X92251314Y-51454260D01*
X92221436Y-51518157D01*
X92204691Y-51561638D01*
X92198133Y-51599115D01*
X92204256Y-51641967D01*
X92225555Y-51701571D01*
X92264526Y-51789305D01*
X92295566Y-51856180D01*
X92421246Y-52182084D01*
X92498317Y-52512141D01*
X92527492Y-52842303D01*
X92509488Y-53168524D01*
X92445016Y-53486755D01*
X92334792Y-53792950D01*
X92179529Y-54083062D01*
X91979942Y-54353044D01*
X91826224Y-54516357D01*
X91564133Y-54737314D01*
X91282247Y-54911507D01*
X90980073Y-55039149D01*
X90657115Y-55120459D01*
X90369787Y-55153089D01*
X90021398Y-55150326D01*
X89694020Y-55101514D01*
X89385939Y-55006005D01*
X89095439Y-54863147D01*
X88820808Y-54672292D01*
X88614293Y-54487500D01*
X88385000Y-54230939D01*
X88204552Y-53961970D01*
X88072059Y-53678543D01*
X87986633Y-53378607D01*
X87947386Y-53060112D01*
X87944429Y-52943199D01*
X88350975Y-52943199D01*
X88355552Y-53118182D01*
X88372674Y-53266503D01*
X88406491Y-53405713D01*
X88461156Y-53553361D01*
X88532093Y-53708970D01*
X88600996Y-53844501D01*
X88665593Y-53950645D01*
X88738759Y-54045823D01*
X88833368Y-54148453D01*
X88853932Y-54169405D01*
X88952262Y-54263514D01*
X89054819Y-54352513D01*
X89152717Y-54429601D01*
X89237069Y-54487979D01*
X89298988Y-54520847D01*
X89319476Y-54525600D01*
X89323162Y-54505204D01*
X89308549Y-54454521D01*
X89301803Y-54437515D01*
X89267311Y-54293377D01*
X89277491Y-54146739D01*
X89327602Y-54006896D01*
X89412905Y-53883144D01*
X89528659Y-53784780D01*
X89666578Y-53722116D01*
X89832081Y-53695599D01*
X89983086Y-53717488D01*
X90122329Y-53788491D01*
X90208473Y-53861957D01*
X90312780Y-53995044D01*
X90367980Y-54138719D01*
X90375232Y-54296217D01*
X90372415Y-54320080D01*
X90339240Y-54442455D01*
X90279056Y-54561401D01*
X90202265Y-54659264D01*
X90145646Y-54704896D01*
X90065100Y-54754010D01*
X90268300Y-54753664D01*
X90397102Y-54748189D01*
X90535737Y-54734211D01*
X90648571Y-54715809D01*
X90877816Y-54646999D01*
X91111128Y-54540519D01*
X91333326Y-54405124D01*
X91529232Y-54249567D01*
X91626184Y-54152047D01*
X91792838Y-53934302D01*
X91932533Y-53687169D01*
X92039266Y-53424101D01*
X92107034Y-53158550D01*
X92123668Y-53037222D01*
X92128190Y-52862496D01*
X92113568Y-52663136D01*
X92082315Y-52460463D01*
X92036943Y-52275794D01*
X92032120Y-52260370D01*
X91943746Y-52039954D01*
X91822212Y-51817807D01*
X91677047Y-51608187D01*
X91517777Y-51425347D01*
X91405907Y-51323288D01*
X91172546Y-51164566D01*
X90922646Y-51053065D01*
X90658975Y-50989018D01*
X90384307Y-50972659D01*
X90101411Y-51004222D01*
X89813059Y-51083942D01*
X89603989Y-51171115D01*
X89395974Y-51277606D01*
X89221497Y-51385029D01*
X89064251Y-51504118D01*
X88964015Y-51592443D01*
X88747291Y-51824385D01*
X88576996Y-52075385D01*
X88453767Y-52344041D01*
X88378240Y-52628950D01*
X88351053Y-52928711D01*
X88350975Y-52943199D01*
X87944429Y-52943199D01*
X87944391Y-52941732D01*
X87942698Y-52849736D01*
X87936281Y-52799138D01*
X87922751Y-52780590D01*
X87903835Y-52783054D01*
X87875126Y-52798072D01*
X87807235Y-52835545D01*
X87704896Y-52892776D01*
X87572844Y-52967070D01*
X87415813Y-53055734D01*
X87238540Y-53156070D01*
X87045758Y-53265384D01*
X86842202Y-53380982D01*
X86632608Y-53500167D01*
X86421709Y-53620245D01*
X86214241Y-53738520D01*
X86014938Y-53852298D01*
X85828536Y-53958882D01*
X85659768Y-54055579D01*
X85513371Y-54139692D01*
X85394078Y-54208527D01*
X85306624Y-54259389D01*
X85255745Y-54289582D01*
X85244675Y-54296712D01*
X85241092Y-54328820D01*
X83898005Y-54328820D01*
X84009434Y-54275297D01*
X84229883Y-54204401D01*
X84443344Y-54171585D01*
X84497330Y-54170000D01*
X84598004Y-54162784D01*
X84686627Y-54144069D01*
X84720598Y-54130762D01*
X84769589Y-54100301D01*
X84785837Y-54065437D01*
X84778283Y-54004928D01*
X84776723Y-53997412D01*
X84767215Y-53920880D01*
X84760714Y-53802934D01*
X84757059Y-53652859D01*
X84756089Y-53479944D01*
X84756711Y-53405238D01*
X85149938Y-53405238D01*
X85152542Y-53550615D01*
X85158553Y-53675773D01*
X85167826Y-53773321D01*
X85180217Y-53835868D01*
X85195582Y-53856023D01*
X85197742Y-53855172D01*
X85222111Y-53841273D01*
X85286722Y-53804456D01*
X85387674Y-53746943D01*
X85521067Y-53670956D01*
X85682998Y-53578718D01*
X85869567Y-53472450D01*
X86076873Y-53354375D01*
X86301015Y-53226715D01*
X86521800Y-53100970D01*
X86761888Y-52964293D01*
X86991766Y-52833543D01*
X87207115Y-52711169D01*
X87403616Y-52599620D01*
X87576952Y-52501345D01*
X87722803Y-52418792D01*
X87836851Y-52354410D01*
X87914777Y-52310648D01*
X87949493Y-52291435D01*
X88031421Y-52238460D01*
X88082481Y-52177786D01*
X88112530Y-52112600D01*
X88199035Y-51930875D01*
X88322055Y-51736540D01*
X88472872Y-51540106D01*
X88642769Y-51352086D01*
X88823027Y-51182991D01*
X88991862Y-51052252D01*
X89301402Y-50864213D01*
X89615212Y-50722462D01*
X89930162Y-50626938D01*
X90243122Y-50577582D01*
X90550962Y-50574330D01*
X90850549Y-50617123D01*
X91138755Y-50705899D01*
X91412448Y-50840597D01*
X91668498Y-51021156D01*
X91765462Y-51106380D01*
X91830762Y-51165421D01*
X91881264Y-51207533D01*
X91906034Y-51223599D01*
X91906036Y-51223600D01*
X91927691Y-51204021D01*
X91960825Y-51156133D01*
X91965326Y-51148640D01*
X92080625Y-51000360D01*
X92231898Y-50876422D01*
X92407299Y-50784021D01*
X92594983Y-50730350D01*
X92668626Y-50721493D01*
X92844486Y-50708911D01*
X92844567Y-50533255D01*
X93243045Y-50533255D01*
X93252923Y-50698410D01*
X93277000Y-50838563D01*
X93289567Y-50880700D01*
X93373369Y-51086992D01*
X93472086Y-51272536D01*
X93578118Y-51423310D01*
X93593336Y-51441098D01*
X93702081Y-51564678D01*
X93700022Y-51413140D01*
X93713252Y-51271149D01*
X93761590Y-51154217D01*
X93851527Y-51048956D01*
X93894539Y-51011985D01*
X94016431Y-50943966D01*
X94152657Y-50918350D01*
X94292238Y-50933496D01*
X94424193Y-50987764D01*
X94537542Y-51079514D01*
X94564768Y-51112114D01*
X94608944Y-51182784D01*
X94633630Y-51261758D01*
X94645345Y-51365509D01*
X94648066Y-51464224D01*
X94637834Y-51535735D01*
X94609975Y-51602960D01*
X94589430Y-51639649D01*
X94490414Y-51761653D01*
X94361348Y-51843107D01*
X94268800Y-51871986D01*
X94211891Y-51885258D01*
X94200455Y-51895496D01*
X94230211Y-51909943D01*
X94243400Y-51914991D01*
X94504614Y-51991499D01*
X94773684Y-52027985D01*
X95039522Y-52024096D01*
X95291038Y-51979478D01*
X95382002Y-51951262D01*
X95652785Y-51830291D01*
X95892014Y-51670454D01*
X96097062Y-51474568D01*
X96265302Y-51245447D01*
X96394106Y-50985910D01*
X96456129Y-50799719D01*
X96492938Y-50596123D01*
X96501937Y-50369587D01*
X96483882Y-50139181D01*
X96439526Y-49923972D01*
X96418874Y-49858472D01*
X96301603Y-49584532D01*
X96153251Y-49342535D01*
X95977178Y-49136544D01*
X95776745Y-48970623D01*
X95601036Y-48869427D01*
X95498261Y-48822969D01*
X95414913Y-48793580D01*
X95331264Y-48776610D01*
X95227589Y-48767410D01*
X95153444Y-48763918D01*
X95018998Y-48761285D01*
X94911099Y-48767767D01*
X94805885Y-48786181D01*
X94679495Y-48819345D01*
X94676432Y-48820222D01*
X94380009Y-48928035D01*
X94107114Y-49072784D01*
X93862365Y-49250317D01*
X93650378Y-49456481D01*
X93475771Y-49687125D01*
X93343160Y-49938097D01*
X93297036Y-50060732D01*
X93265259Y-50197119D01*
X93247210Y-50360392D01*
X93243045Y-50533255D01*
X92844567Y-50533255D01*
X92844600Y-50464605D01*
X92866478Y-50179912D01*
X92929305Y-49900768D01*
X92987800Y-49737420D01*
X93049076Y-49615357D01*
X93136548Y-49473655D01*
X93239732Y-49327822D01*
X93348145Y-49193365D01*
X93378951Y-49158839D01*
X93434995Y-49099342D01*
X93471801Y-49056504D01*
X93486053Y-49022510D01*
X93474432Y-48989544D01*
X93433620Y-48949791D01*
X93360301Y-48895436D01*
X93251157Y-48818664D01*
X93227400Y-48801824D01*
X93110941Y-48719413D01*
X93027678Y-48663732D01*
X92969198Y-48632365D01*
X92927088Y-48622898D01*
X92892937Y-48632915D01*
X92858331Y-48660000D01*
X92829561Y-48687601D01*
X92715643Y-48820835D01*
X92614846Y-48981114D01*
X92552997Y-49115400D01*
X92495559Y-49228927D01*
X92425455Y-49295611D01*
X92339359Y-49318546D01*
X92334431Y-49318600D01*
X92257939Y-49298108D01*
X92189130Y-49246583D01*
X92144228Y-49178951D01*
X92135510Y-49135604D01*
X92148584Y-49068467D01*
X92183277Y-48971467D01*
X92233561Y-48857358D01*
X92293408Y-48738895D01*
X92356788Y-48628832D01*
X92416110Y-48541942D01*
X92468005Y-48471681D01*
X92502922Y-48418549D01*
X92513674Y-48393530D01*
X92513437Y-48393203D01*
X92477822Y-48372260D01*
X92405564Y-48338949D01*
X92307906Y-48297853D01*
X92196092Y-48253559D01*
X92081366Y-48210651D01*
X91976495Y-48174218D01*
X91493933Y-48041280D01*
X91005475Y-47958648D01*
X90511932Y-47926272D01*
X90014115Y-47944102D01*
X89512834Y-48012088D01*
X89008899Y-48130182D01*
X88503123Y-48298333D01*
X88246223Y-48402704D01*
X87829634Y-48609207D01*
X87428596Y-48861565D01*
X87047230Y-49156135D01*
X86689655Y-49489276D01*
X86359990Y-49857345D01*
X86062355Y-50256699D01*
X85945340Y-50436981D01*
X85730766Y-50824175D01*
X85545171Y-51245662D01*
X85391661Y-51692019D01*
X85273342Y-52153823D01*
X85193323Y-52621648D01*
X85176487Y-52769341D01*
X85164016Y-52921692D01*
X85155530Y-53083385D01*
X85150886Y-53247031D01*
X85149938Y-53405238D01*
X84756711Y-53405238D01*
X84757644Y-53293475D01*
X84761561Y-53102739D01*
X84767679Y-52917022D01*
X84775838Y-52745611D01*
X84785876Y-52597793D01*
X84797632Y-52482854D01*
X84803711Y-52442800D01*
X84850290Y-52197895D01*
X84899683Y-51968223D01*
X84949283Y-51765099D01*
X84996480Y-51599839D01*
X85001793Y-51583292D01*
X85025343Y-51499017D01*
X85036257Y-51434129D01*
X85032372Y-51403161D01*
X84997070Y-51387741D01*
X84928750Y-51367891D01*
X84866757Y-51353314D01*
X84649529Y-51285002D01*
X84433580Y-51177088D01*
X84231250Y-51038034D01*
X84054877Y-50876303D01*
X83918424Y-50702900D01*
X83828315Y-50545468D01*
X83768218Y-50394628D01*
X83733329Y-50233350D01*
X83718846Y-50044604D01*
X83717856Y-49991700D01*
X83718320Y-49855612D01*
X83724644Y-49751056D01*
X83739541Y-49658857D01*
X83765727Y-49559843D01*
X83789777Y-49483700D01*
X83850741Y-49323671D01*
X83914514Y-49211218D01*
X83983610Y-49143116D01*
X84060542Y-49116143D01*
X84077018Y-49115400D01*
X84158402Y-49138136D01*
X84208802Y-49177199D01*
X84241675Y-49225337D01*
X84255277Y-49285389D01*
X84248949Y-49365856D01*
X84222031Y-49475241D01*
X84174450Y-49620374D01*
X84118394Y-49846786D01*
X84110500Y-50064365D01*
X84149939Y-50269514D01*
X84235883Y-50458638D01*
X84367505Y-50628141D01*
X84417539Y-50676218D01*
X84569795Y-50792629D01*
X84739480Y-50887905D01*
X84912957Y-50956023D01*
X85076590Y-50990959D01*
X85137500Y-50994292D01*
X85172667Y-50991308D01*
X85201208Y-50977004D01*
X85229398Y-50943187D01*
X85263515Y-50881662D01*
X85309835Y-50784236D01*
X85326975Y-50746943D01*
X85540564Y-50334306D01*
X85799537Y-49930742D01*
X86106083Y-49532992D01*
X86267239Y-49347104D01*
X86360763Y-49241951D01*
X86423727Y-49167747D01*
X86460191Y-49118264D01*
X86474217Y-49087274D01*
X86469867Y-49068550D01*
X86455692Y-49058117D01*
X86395684Y-49014723D01*
X86315260Y-48940670D01*
X86223856Y-48846406D01*
X86130907Y-48742376D01*
X86045847Y-48639026D01*
X85978112Y-48546805D01*
X85945239Y-48492919D01*
X85835492Y-48234339D01*
X85774286Y-47972111D01*
X85760995Y-47710817D01*
X85794996Y-47455037D01*
X85875665Y-47209352D01*
X86002378Y-46978344D01*
X86174510Y-46766594D01*
X86181387Y-46759550D01*
X86289787Y-46657040D01*
X86377059Y-46594965D01*
X86449955Y-46571296D01*
X86515225Y-46584001D01*
X86579624Y-46631051D01*
X86586454Y-46637745D01*
X86632379Y-46696220D01*
X86646906Y-46755065D01*
X86627889Y-46822141D01*
X86573181Y-46905307D01*
X86485604Y-47007020D01*
X86328515Y-47205914D01*
X86221627Y-47406857D01*
X86164344Y-47612472D01*
X86156068Y-47825383D01*
X86196204Y-48048213D01*
X86227067Y-48144592D01*
X86307866Y-48312496D01*
X86424441Y-48479110D01*
X86563988Y-48629054D01*
X86713703Y-48746949D01*
X86743998Y-48765479D01*
X86819466Y-48809258D01*
X87007183Y-48668299D01*
X87439076Y-48375352D01*
X87899970Y-48122482D01*
X88384243Y-47912592D01*
X88653623Y-47818102D01*
X88867747Y-47749027D01*
X88862123Y-47473363D01*
X88876511Y-47186594D01*
X88932254Y-46929188D01*
X89029752Y-46700450D01*
X89169406Y-46499687D01*
X89351615Y-46326205D01*
X89576781Y-46179310D01*
X89622831Y-46155169D01*
X89732997Y-46109200D01*
X89876395Y-46063309D01*
X90035660Y-46022104D01*
X90193426Y-45990192D01*
X90302120Y-45974939D01*
X90390536Y-45968284D01*
X90445850Y-45973564D01*
X90485001Y-45993964D01*
X90506324Y-46013324D01*
X90549317Y-46088678D01*
X90558749Y-46181627D01*
X90533324Y-46270532D01*
X90522739Y-46287664D01*
X90480233Y-46323884D01*
X90404547Y-46351833D01*
X90313189Y-46370904D01*
X90040894Y-46432631D01*
X89812148Y-46517619D01*
X89624659Y-46627237D01*
X89476135Y-46762854D01*
X89364284Y-46925839D01*
X89355442Y-46942875D01*
X89296481Y-47103373D01*
X89263247Y-47294234D01*
X89258103Y-47500712D01*
X89260249Y-47537105D01*
X89267032Y-47605482D01*
X89281687Y-47635079D01*
X89315423Y-47637808D01*
X89349149Y-47631571D01*
X89622553Y-47586310D01*
X89923536Y-47553690D01*
X90237109Y-47534290D01*
X90548283Y-47528688D01*
X90842068Y-47537462D01*
X91103475Y-47561190D01*
X91119200Y-47563293D01*
X91533307Y-47636996D01*
X91946922Y-47743091D01*
X92343559Y-47876812D01*
X92648187Y-48005422D01*
X92761255Y-48056816D01*
X92837623Y-48087126D01*
X92885615Y-48098792D01*
X92913556Y-48094256D01*
X92923139Y-48086049D01*
X92960235Y-48058225D01*
X93032900Y-48015997D01*
X93129973Y-47964877D01*
X93240290Y-47910378D01*
X93352689Y-47858013D01*
X93456006Y-47813293D01*
X93539079Y-47781731D01*
X93540011Y-47781420D01*
X93681431Y-47741478D01*
X93843025Y-47706921D01*
X94004341Y-47681376D01*
X94144925Y-47668469D01*
X94182134Y-47667600D01*
X94278700Y-47673870D01*
X94341529Y-47695503D01*
X94369753Y-47717753D01*
X94427333Y-47802761D01*
X94437044Y-47890665D01*
X94402873Y-47968051D01*
X94371726Y-48003373D01*
X94332807Y-48029806D01*
X94276578Y-48050367D01*
X94193498Y-48068075D01*
X94074027Y-48085949D01*
X93999621Y-48095643D01*
X93848678Y-48122255D01*
X93689148Y-48162835D01*
X93537307Y-48212301D01*
X93409428Y-48265572D01*
X93347936Y-48299150D01*
X93271948Y-48347262D01*
X93433824Y-48456123D01*
X93534514Y-48526502D01*
X93638018Y-48603065D01*
X93715543Y-48664082D01*
X93835386Y-48763179D01*
X93983510Y-48676366D01*
X94288945Y-48524422D01*
X94603730Y-48421841D01*
X94931601Y-48367496D01*
X95031117Y-48360526D01*
X95238026Y-48359131D01*
X95416959Y-48380032D01*
X95587336Y-48427256D01*
X95768583Y-48504827D01*
X95798332Y-48519542D01*
X96052974Y-48675332D01*
X96281860Y-48872485D01*
X96481889Y-49106896D01*
X96649958Y-49374457D01*
X96782967Y-49671063D01*
X96862473Y-49928200D01*
X96885747Y-50065557D01*
X96897734Y-50236117D01*
X96898801Y-50423637D01*
X96889315Y-50611874D01*
X96869643Y-50784586D01*
X96840153Y-50925529D01*
X96839903Y-50926399D01*
X96728820Y-51229369D01*
X96576870Y-51504967D01*
X96381158Y-51757866D01*
X96229239Y-51912169D01*
X96138278Y-51999002D01*
X96080679Y-52060366D01*
X96050935Y-52103505D01*
X96043539Y-52135660D01*
X96047142Y-52151661D01*
X96059526Y-52195666D01*
X96079149Y-52277993D01*
X96103381Y-52387130D01*
X96129591Y-52511566D01*
X96131311Y-52519961D01*
X96213796Y-53037692D01*
X96246906Y-53544029D01*
X96230496Y-54040106D01*
X96164422Y-54527057D01*
X96048539Y-55006017D01*
X95882703Y-55478121D01*
X95704533Y-55870537D01*
X95467943Y-56286478D01*
X95186808Y-56681850D01*
X94864080Y-57054100D01*
X94502715Y-57400672D01*
X94105665Y-57719012D01*
X93675884Y-58006565D01*
X93216325Y-58260776D01*
X92729942Y-58479091D01*
X92654417Y-58508753D01*
X92371666Y-58613667D01*
X92116142Y-58698655D01*
X91870674Y-58768484D01*
X91618093Y-58827919D01*
X91341230Y-58881726D01*
X91258900Y-58896110D01*
X91073891Y-58921104D01*
X90851772Y-58940402D01*
X90605949Y-58953694D01*
X90349826Y-58960672D01*
X90096807Y-58961025D01*
X89860296Y-58954445D01*
X89653698Y-58940621D01*
X89595200Y-58934514D01*
X89079515Y-58850653D01*
X88575514Y-58721061D01*
X88090359Y-58547843D01*
X87742742Y-58390352D01*
X87334169Y-58165455D01*
X86955376Y-57910972D01*
X86598969Y-57621090D01*
X86257556Y-57289998D01*
X86044965Y-57055473D01*
X85985862Y-56989336D01*
X85948328Y-56956715D01*
X85921735Y-56951831D01*
X85895456Y-56968907D01*
X85891779Y-56972193D01*
X85832669Y-57012383D01*
X85737617Y-57062370D01*
X85619126Y-57116661D01*
X85489699Y-57169761D01*
X85361837Y-57216177D01*
X85275491Y-57243016D01*
X85111583Y-57278868D01*
X84924769Y-57303181D01*
X84732953Y-57314850D01*
X84554040Y-57312771D01*
X84409311Y-57296486D01*
X84130451Y-57222378D01*
X83879123Y-57109490D01*
X83648460Y-56953989D01*
X83431596Y-56752038D01*
X83428554Y-56748787D01*
X83256578Y-56537371D01*
X83131057Y-56318861D01*
X83047659Y-56085158D01*
X83028004Y-56000181D01*
X82997948Y-55729304D01*
X83005630Y-55627158D01*
X83406157Y-55627158D01*
X83407672Y-55836774D01*
X83452327Y-56046547D01*
X83543235Y-56251303D01*
X83554460Y-56270422D01*
X83670192Y-56426686D01*
X83820125Y-56574666D01*
X83991815Y-56705207D01*
X84172816Y-56809153D01*
X84350684Y-56877350D01*
X84393719Y-56887850D01*
X84524176Y-56903945D01*
X84685569Y-56906757D01*
X84860149Y-56897516D01*
X85030169Y-56877449D01*
X85177881Y-56847787D01*
X85239100Y-56829293D01*
X85418763Y-56762500D01*
X85553275Y-56705423D01*
X85641080Y-56658770D01*
X85675474Y-56630891D01*
X85685154Y-56602317D01*
X85673263Y-56556942D01*
X85636435Y-56485357D01*
X85603822Y-56430570D01*
X85544278Y-56328943D01*
X85474906Y-56204237D01*
X85408180Y-56079017D01*
X85390613Y-56044863D01*
X85338400Y-55943783D01*
X85301893Y-55880596D01*
X85274152Y-55847721D01*
X85248235Y-55837579D01*
X85217205Y-55842588D01*
X85207905Y-55845298D01*
X85087737Y-55887048D01*
X85003059Y-55931710D01*
X84955334Y-55970101D01*
X84896456Y-56044990D01*
X84882691Y-56122335D01*
X84912294Y-56214781D01*
X84919565Y-56229199D01*
X84965074Y-56346657D01*
X84967166Y-56440258D01*
X84925889Y-56508812D01*
X84907859Y-56522517D01*
X84835305Y-56548531D01*
X84766879Y-56527073D01*
X84700488Y-56456931D01*
X84652211Y-56374494D01*
X84594576Y-56212172D01*
X84586318Y-56055171D01*
X84626131Y-55908480D01*
X84712705Y-55777088D01*
X84836511Y-55671353D01*
X84905068Y-55628060D01*
X84956608Y-55599382D01*
X84975101Y-55592400D01*
X85010915Y-55584139D01*
X85063571Y-55566136D01*
X85132649Y-55539872D01*
X85058874Y-55461408D01*
X84958619Y-55378554D01*
X84841226Y-55330782D01*
X84694071Y-55313305D01*
X84667571Y-55313000D01*
X84489948Y-55336561D01*
X84333292Y-55404993D01*
X84202675Y-55514917D01*
X84103168Y-55662955D01*
X84085864Y-55700515D01*
X84027730Y-55802336D01*
X83961771Y-55855207D01*
X83889091Y-55858509D01*
X83843140Y-55836717D01*
X83792932Y-55776974D01*
X83779955Y-55694112D01*
X83800329Y-55594849D01*
X83850172Y-55485906D01*
X83925604Y-55374003D01*
X84022744Y-55265859D01*
X84137711Y-55168194D01*
X84266624Y-55087727D01*
X84279487Y-55081205D01*
X84339572Y-55054311D01*
X84398926Y-55036743D01*
X84470642Y-55026592D01*
X84567813Y-55021949D01*
X84693000Y-55020900D01*
X84985100Y-55020900D01*
X84934300Y-54812865D01*
X84909120Y-54713525D01*
X84884473Y-54646939D01*
X84850324Y-54606538D01*
X84796634Y-54585756D01*
X84713370Y-54578023D01*
X84590494Y-54576771D01*
X84573505Y-54576746D01*
X84341971Y-54598846D01*
X84128672Y-54662495D01*
X83936722Y-54762517D01*
X83769233Y-54893740D01*
X83629319Y-55050990D01*
X83520093Y-55229092D01*
X83444668Y-55422872D01*
X83406157Y-55627158D01*
X83005630Y-55627158D01*
X83017872Y-55464386D01*
X83087088Y-55207713D01*
D13*
%TO.C,D27*%
X103214000Y-137560000D02*
X103370000Y-137560000D01*
X105530000Y-137560000D02*
X105686000Y-137560000D01*
X105530000Y-137040961D02*
G75*
G03*
X105529837Y-134958870I-1080000J1040961D01*
G01*
X103370163Y-134958870D02*
G75*
G03*
X103370000Y-137040961I1079837J-1041130D01*
G01*
X103371392Y-134327665D02*
G75*
G03*
X103214484Y-137560000I1078609J-1672335D01*
G01*
X105685516Y-137560000D02*
G75*
G03*
X105528608Y-134327665I-1235517J1560000D01*
G01*
D14*
%TO.C,J9*%
X131500000Y-64000000D02*
X134400000Y-64000000D01*
X131500000Y-74500000D02*
X134500000Y-74500000D01*
X131500000Y-74500000D02*
X131500000Y-64000000D01*
X137500000Y-74500000D02*
X140500000Y-74500000D01*
X137600000Y-64000000D02*
X140500000Y-64000000D01*
X140500000Y-74500000D02*
X140500000Y-64000000D01*
D13*
X137296263Y-72588576D02*
G75*
G03*
X136000000Y-67105000I-1296263J2588576D01*
G01*
X136000000Y-67104999D02*
G75*
G03*
X134703737Y-72588577I0J-2895001D01*
G01*
D12*
%TO.C,SW6*%
X76825000Y-98450000D02*
X76400000Y-98450000D01*
X76825000Y-85550000D02*
X76400000Y-85550000D01*
X69775000Y-85925000D02*
X69775000Y-85550000D01*
X76825000Y-98450000D02*
X76825000Y-98000000D01*
X76825000Y-85575000D02*
X76825000Y-86025000D01*
X69775000Y-98450000D02*
X70150000Y-98450000D01*
X69775000Y-85550000D02*
X70125000Y-85550000D01*
X69775000Y-98450000D02*
X69775000Y-98050000D01*
D14*
%TO.C,J3*%
X46900000Y-96500000D02*
X49900000Y-96500000D01*
X49900000Y-96500000D02*
X49900000Y-86000000D01*
X40900000Y-96500000D02*
X43900000Y-96500000D01*
X47000000Y-86000000D02*
X49900000Y-86000000D01*
X40900000Y-86000000D02*
X43800000Y-86000000D01*
X40900000Y-96500000D02*
X40900000Y-86000000D01*
D13*
X46696263Y-94588576D02*
G75*
G03*
X45400000Y-89105000I-1296263J2588576D01*
G01*
X45400000Y-89104999D02*
G75*
G03*
X44103737Y-94588577I0J-2895001D01*
G01*
%TO.C,D25*%
X103214000Y-115560000D02*
X103370000Y-115560000D01*
X105530000Y-115560000D02*
X105686000Y-115560000D01*
X103370163Y-112958870D02*
G75*
G03*
X103370000Y-115040961I1079837J-1041130D01*
G01*
X105530000Y-115040961D02*
G75*
G03*
X105529837Y-112958870I-1080000J1040961D01*
G01*
X105685516Y-115560000D02*
G75*
G03*
X105528608Y-112327665I-1235517J1560000D01*
G01*
X103371392Y-112327665D02*
G75*
G03*
X103214484Y-115560000I1078609J-1672335D01*
G01*
%TO.C,SW8*%
X69020000Y-136000000D02*
G75*
G03*
X69020000Y-136000000I-9120000J0D01*
G01*
%TO.C,RV15*%
X110030000Y-142120000D02*
X110030000Y-138255000D01*
X119970000Y-142120000D02*
X119970000Y-138255000D01*
X113371000Y-142120000D02*
X114130000Y-142120000D01*
X110030000Y-133745000D02*
X110030000Y-129880000D01*
X115871000Y-142120000D02*
X116630000Y-142120000D01*
X119970000Y-133745000D02*
X119970000Y-129880000D01*
X110030000Y-142120000D02*
X111629000Y-142120000D01*
X110030000Y-129880000D02*
X119970000Y-129880000D01*
X118370000Y-142120000D02*
X119970000Y-142120000D01*
%TO.C,U30*%
X112090000Y-123000000D02*
X113100000Y-122300000D01*
X112090000Y-128500000D02*
X122110000Y-128500000D01*
X122100000Y-128500000D02*
X122100000Y-122300000D01*
X112090000Y-123000000D02*
X112090000Y-128500000D01*
X122100000Y-122300000D02*
X113100000Y-122300000D01*
D12*
%TO.C,SW5*%
X76825000Y-107550000D02*
X76400000Y-107550000D01*
X69775000Y-120450000D02*
X70150000Y-120450000D01*
X69775000Y-107550000D02*
X70125000Y-107550000D01*
X69775000Y-107925000D02*
X69775000Y-107550000D01*
X69775000Y-120450000D02*
X69775000Y-120050000D01*
X76825000Y-120450000D02*
X76400000Y-120450000D01*
X76825000Y-107575000D02*
X76825000Y-108025000D01*
X76825000Y-120450000D02*
X76825000Y-120000000D01*
D14*
%TO.C,J7*%
X131500000Y-44000000D02*
X134400000Y-44000000D01*
X140500000Y-54500000D02*
X140500000Y-44000000D01*
X131500000Y-54500000D02*
X134500000Y-54500000D01*
X137500000Y-54500000D02*
X140500000Y-54500000D01*
X137600000Y-44000000D02*
X140500000Y-44000000D01*
X131500000Y-54500000D02*
X131500000Y-44000000D01*
D13*
X137296263Y-52588576D02*
G75*
G03*
X136000000Y-47105000I-1296263J2588576D01*
G01*
X136000000Y-47104999D02*
G75*
G03*
X134703737Y-52588577I0J-2895001D01*
G01*
%TO.C,SW1*%
X69020000Y-92000000D02*
G75*
G03*
X69020000Y-92000000I-9120000J0D01*
G01*
%TO.C,SW3*%
X69020000Y-114000000D02*
G75*
G03*
X69020000Y-114000000I-9120000J0D01*
G01*
%TO.C,U34*%
X129800000Y-132790000D02*
X124300000Y-132790000D01*
X124300000Y-142800000D02*
X130500000Y-142800000D01*
X130500000Y-142800000D02*
X130500000Y-133800000D01*
X129800000Y-132790000D02*
X130500000Y-133800000D01*
X124300000Y-132790000D02*
X124300000Y-142810000D01*
D14*
%TO.C,J5*%
X40900000Y-140500000D02*
X40900000Y-130000000D01*
X47000000Y-130000000D02*
X49900000Y-130000000D01*
X40900000Y-140500000D02*
X43900000Y-140500000D01*
X46900000Y-140500000D02*
X49900000Y-140500000D01*
X40900000Y-130000000D02*
X43800000Y-130000000D01*
X49900000Y-140500000D02*
X49900000Y-130000000D01*
D13*
X46696263Y-138588576D02*
G75*
G03*
X45400000Y-133105000I-1296263J2588576D01*
G01*
X45400000Y-133104999D02*
G75*
G03*
X44103737Y-138588577I0J-2895001D01*
G01*
D14*
%TO.C,J10*%
X131500000Y-140500000D02*
X134500000Y-140500000D01*
X131500000Y-140500000D02*
X131500000Y-130000000D01*
X131500000Y-130000000D02*
X134400000Y-130000000D01*
X137600000Y-130000000D02*
X140500000Y-130000000D01*
X137500000Y-140500000D02*
X140500000Y-140500000D01*
X140500000Y-140500000D02*
X140500000Y-130000000D01*
D13*
X137296263Y-138588576D02*
G75*
G03*
X136000000Y-133105000I-1296263J2588576D01*
G01*
X136000000Y-133104999D02*
G75*
G03*
X134703737Y-138588577I0J-2895001D01*
G01*
D14*
%TO.C,J4*%
X49900000Y-118500000D02*
X49900000Y-108000000D01*
X40900000Y-118500000D02*
X43900000Y-118500000D01*
X40900000Y-118500000D02*
X40900000Y-108000000D01*
X46900000Y-118500000D02*
X49900000Y-118500000D01*
X40900000Y-108000000D02*
X43800000Y-108000000D01*
X47000000Y-108000000D02*
X49900000Y-108000000D01*
D13*
X46696263Y-116588576D02*
G75*
G03*
X45400000Y-111105000I-1296263J2588576D01*
G01*
X45400000Y-111104999D02*
G75*
G03*
X44103737Y-116588577I0J-2895001D01*
G01*
D14*
%TO.C,J11*%
X137500000Y-96500000D02*
X140500000Y-96500000D01*
X131500000Y-96500000D02*
X131500000Y-86000000D01*
X131500000Y-96500000D02*
X134500000Y-96500000D01*
X137600000Y-86000000D02*
X140500000Y-86000000D01*
X140500000Y-96500000D02*
X140500000Y-86000000D01*
X131500000Y-86000000D02*
X134400000Y-86000000D01*
D13*
X137296263Y-94588576D02*
G75*
G03*
X136000000Y-89105000I-1296263J2588576D01*
G01*
X136000000Y-89104999D02*
G75*
G03*
X134703737Y-94588577I0J-2895001D01*
G01*
D14*
%TO.C,J1*%
X47000000Y-44000000D02*
X49900000Y-44000000D01*
X40900000Y-44000000D02*
X43800000Y-44000000D01*
X46900000Y-54500000D02*
X49900000Y-54500000D01*
X49900000Y-54500000D02*
X49900000Y-44000000D01*
X40900000Y-54500000D02*
X43900000Y-54500000D01*
X40900000Y-54500000D02*
X40900000Y-44000000D01*
D13*
X45400000Y-47104999D02*
G75*
G03*
X44103737Y-52588577I0J-2895001D01*
G01*
X46696263Y-52588576D02*
G75*
G03*
X45400000Y-47105000I-1296263J2588576D01*
G01*
%TO.C,U31*%
X112090000Y-84600000D02*
X122110000Y-84600000D01*
X112090000Y-79100000D02*
X113100000Y-78400000D01*
X112090000Y-79100000D02*
X112090000Y-84600000D01*
X122100000Y-78400000D02*
X113100000Y-78400000D01*
X122100000Y-84600000D02*
X122100000Y-78400000D01*
D14*
%TO.C,J8*%
X140500000Y-118500000D02*
X140500000Y-108000000D01*
X131500000Y-108000000D02*
X134400000Y-108000000D01*
X131500000Y-118500000D02*
X131500000Y-108000000D01*
X137600000Y-108000000D02*
X140500000Y-108000000D01*
X137500000Y-118500000D02*
X140500000Y-118500000D01*
X131500000Y-118500000D02*
X134500000Y-118500000D01*
D13*
X137296263Y-116588576D02*
G75*
G03*
X136000000Y-111105000I-1296263J2588576D01*
G01*
X136000000Y-111104999D02*
G75*
G03*
X134703737Y-116588577I0J-2895001D01*
G01*
%TD*%
M02*
