%TF.GenerationSoftware,KiCad,Pcbnew,(6.0.1)*%
%TF.CreationDate,2024-01-17T07:50:46-08:00*%
%TF.ProjectId,main,6d61696e-2e6b-4696-9361-645f70636258,rev?*%
%TF.SameCoordinates,Original*%
%TF.FileFunction,Paste,Bot*%
%TF.FilePolarity,Positive*%
%FSLAX46Y46*%
G04 Gerber Fmt 4.6, Leading zero omitted, Abs format (unit mm)*
G04 Created by KiCad (PCBNEW (6.0.1)) date 2024-01-17 07:50:46*
%MOMM*%
%LPD*%
G01*
G04 APERTURE LIST*
G04 Aperture macros list*
%AMRoundRect*
0 Rectangle with rounded corners*
0 $1 Rounding radius*
0 $2 $3 $4 $5 $6 $7 $8 $9 X,Y pos of 4 corners*
0 Add a 4 corners polygon primitive as box body*
4,1,4,$2,$3,$4,$5,$6,$7,$8,$9,$2,$3,0*
0 Add four circle primitives for the rounded corners*
1,1,$1+$1,$2,$3*
1,1,$1+$1,$4,$5*
1,1,$1+$1,$6,$7*
1,1,$1+$1,$8,$9*
0 Add four rect primitives between the rounded corners*
20,1,$1+$1,$2,$3,$4,$5,0*
20,1,$1+$1,$4,$5,$6,$7,0*
20,1,$1+$1,$6,$7,$8,$9,0*
20,1,$1+$1,$8,$9,$2,$3,0*%
G04 Aperture macros list end*
%ADD10R,0.900000X1.200000*%
%ADD11RoundRect,0.150000X0.825000X0.150000X-0.825000X0.150000X-0.825000X-0.150000X0.825000X-0.150000X0*%
%ADD12RoundRect,0.250000X-0.350000X-0.450000X0.350000X-0.450000X0.350000X0.450000X-0.350000X0.450000X0*%
%ADD13RoundRect,0.150000X-0.150000X0.587500X-0.150000X-0.587500X0.150000X-0.587500X0.150000X0.587500X0*%
%ADD14RoundRect,0.200000X-0.275000X0.200000X-0.275000X-0.200000X0.275000X-0.200000X0.275000X0.200000X0*%
%ADD15RoundRect,0.250000X-0.450000X0.350000X-0.450000X-0.350000X0.450000X-0.350000X0.450000X0.350000X0*%
%ADD16RoundRect,0.250000X-0.337500X-0.475000X0.337500X-0.475000X0.337500X0.475000X-0.337500X0.475000X0*%
%ADD17RoundRect,0.250000X-0.475000X0.337500X-0.475000X-0.337500X0.475000X-0.337500X0.475000X0.337500X0*%
%ADD18RoundRect,0.200000X-0.200000X-0.275000X0.200000X-0.275000X0.200000X0.275000X-0.200000X0.275000X0*%
%ADD19RoundRect,0.250000X-0.450000X0.325000X-0.450000X-0.325000X0.450000X-0.325000X0.450000X0.325000X0*%
%ADD20RoundRect,0.200000X0.200000X0.275000X-0.200000X0.275000X-0.200000X-0.275000X0.200000X-0.275000X0*%
%ADD21RoundRect,0.250000X0.475000X-0.337500X0.475000X0.337500X-0.475000X0.337500X-0.475000X-0.337500X0*%
%ADD22RoundRect,0.250000X0.337500X0.475000X-0.337500X0.475000X-0.337500X-0.475000X0.337500X-0.475000X0*%
%ADD23R,1.300000X1.600000*%
%ADD24R,2.000000X1.600000*%
%ADD25RoundRect,0.100000X0.637500X0.100000X-0.637500X0.100000X-0.637500X-0.100000X0.637500X-0.100000X0*%
%ADD26RoundRect,0.250000X-0.325000X-0.450000X0.325000X-0.450000X0.325000X0.450000X-0.325000X0.450000X0*%
%ADD27RoundRect,0.250000X0.325000X0.450000X-0.325000X0.450000X-0.325000X-0.450000X0.325000X-0.450000X0*%
%ADD28RoundRect,0.250000X0.550000X-1.500000X0.550000X1.500000X-0.550000X1.500000X-0.550000X-1.500000X0*%
%ADD29RoundRect,0.250000X0.450000X-0.350000X0.450000X0.350000X-0.450000X0.350000X-0.450000X-0.350000X0*%
%ADD30RoundRect,0.150000X0.587500X0.150000X-0.587500X0.150000X-0.587500X-0.150000X0.587500X-0.150000X0*%
%ADD31RoundRect,0.250000X0.350000X0.450000X-0.350000X0.450000X-0.350000X-0.450000X0.350000X-0.450000X0*%
%ADD32R,0.550000X1.500000*%
%ADD33RoundRect,0.150000X0.150000X-0.587500X0.150000X0.587500X-0.150000X0.587500X-0.150000X-0.587500X0*%
%ADD34RoundRect,0.200000X0.275000X-0.200000X0.275000X0.200000X-0.275000X0.200000X-0.275000X-0.200000X0*%
%ADD35R,1.500000X2.000000*%
%ADD36R,3.800000X2.000000*%
%ADD37R,1.000000X1.000000*%
%ADD38RoundRect,0.250000X-0.425000X0.450000X-0.425000X-0.450000X0.425000X-0.450000X0.425000X0.450000X0*%
%ADD39RoundRect,0.250000X-0.450000X-0.425000X0.450000X-0.425000X0.450000X0.425000X-0.450000X0.425000X0*%
%ADD40RoundRect,0.250000X0.325000X0.650000X-0.325000X0.650000X-0.325000X-0.650000X0.325000X-0.650000X0*%
%ADD41RoundRect,0.250000X-0.550000X1.500000X-0.550000X-1.500000X0.550000X-1.500000X0.550000X1.500000X0*%
%ADD42RoundRect,0.250000X0.450000X-0.325000X0.450000X0.325000X-0.450000X0.325000X-0.450000X-0.325000X0*%
%ADD43R,1.000000X3.150000*%
%ADD44R,2.000000X1.500000*%
%ADD45R,2.000000X3.800000*%
G04 APERTURE END LIST*
D10*
%TO.C,D15*%
X45750000Y-50575000D03*
X49050000Y-50575000D03*
%TD*%
D11*
%TO.C,U3*%
X63400000Y-47270000D03*
X63400000Y-48540000D03*
X63400000Y-49810000D03*
X63400000Y-51080000D03*
X58450000Y-51080000D03*
X58450000Y-49810000D03*
X58450000Y-48540000D03*
X58450000Y-47270000D03*
%TD*%
D12*
%TO.C,R36*%
X46700000Y-63250000D03*
X48700000Y-63250000D03*
%TD*%
D13*
%TO.C,Q2*%
X41175000Y-44162500D03*
X43075000Y-44162500D03*
X42125000Y-46037500D03*
%TD*%
D14*
%TO.C,R39*%
X41000000Y-123175000D03*
X41000000Y-124825000D03*
%TD*%
D15*
%TO.C,R82*%
X84900000Y-87150000D03*
X84900000Y-89150000D03*
%TD*%
%TO.C,R27*%
X55825000Y-53425000D03*
X55825000Y-55425000D03*
%TD*%
D11*
%TO.C,U27*%
X92475000Y-139555000D03*
X92475000Y-140825000D03*
X92475000Y-142095000D03*
X92475000Y-143365000D03*
X92475000Y-144635000D03*
X92475000Y-145905000D03*
X92475000Y-147175000D03*
X92475000Y-148445000D03*
X87525000Y-148445000D03*
X87525000Y-147175000D03*
X87525000Y-145905000D03*
X87525000Y-144635000D03*
X87525000Y-143365000D03*
X87525000Y-142095000D03*
X87525000Y-140825000D03*
X87525000Y-139555000D03*
%TD*%
D16*
%TO.C,C8*%
X57412500Y-41375000D03*
X59487500Y-41375000D03*
%TD*%
D17*
%TO.C,C28*%
X54550000Y-124162500D03*
X54550000Y-126237500D03*
%TD*%
D18*
%TO.C,R103*%
X94525000Y-148900000D03*
X96175000Y-148900000D03*
%TD*%
D17*
%TO.C,C9*%
X77425000Y-59512500D03*
X77425000Y-61587500D03*
%TD*%
D19*
%TO.C,D14*%
X56125000Y-49350000D03*
X56125000Y-51400000D03*
%TD*%
D20*
%TO.C,R79*%
X96325000Y-125100000D03*
X94675000Y-125100000D03*
%TD*%
D14*
%TO.C,R30*%
X41050000Y-79375000D03*
X41050000Y-81025000D03*
%TD*%
D18*
%TO.C,R78*%
X93225000Y-75100000D03*
X94875000Y-75100000D03*
%TD*%
D21*
%TO.C,C84*%
X100750000Y-98387500D03*
X100750000Y-96312500D03*
%TD*%
D18*
%TO.C,R73*%
X94675000Y-113700000D03*
X96325000Y-113700000D03*
%TD*%
D20*
%TO.C,R51*%
X83025000Y-109350000D03*
X81375000Y-109350000D03*
%TD*%
D22*
%TO.C,C76*%
X122837500Y-127050000D03*
X120762500Y-127050000D03*
%TD*%
D23*
%TO.C,RV17*%
X100800000Y-108850000D03*
D24*
X99550000Y-105950000D03*
D23*
X98300000Y-108850000D03*
%TD*%
%TO.C,RV13*%
X98925000Y-85950000D03*
D24*
X97675000Y-83050000D03*
D23*
X96425000Y-85950000D03*
%TD*%
D25*
%TO.C,U25*%
X92862500Y-131725000D03*
X92862500Y-132375000D03*
X92862500Y-133025000D03*
X92862500Y-133675000D03*
X92862500Y-134325000D03*
X92862500Y-134975000D03*
X92862500Y-135625000D03*
X92862500Y-136275000D03*
X87137500Y-136275000D03*
X87137500Y-135625000D03*
X87137500Y-134975000D03*
X87137500Y-134325000D03*
X87137500Y-133675000D03*
X87137500Y-133025000D03*
X87137500Y-132375000D03*
X87137500Y-131725000D03*
%TD*%
D14*
%TO.C,R32*%
X41100000Y-101400000D03*
X41100000Y-103050000D03*
%TD*%
D18*
%TO.C,R76*%
X94675000Y-119900000D03*
X96325000Y-119900000D03*
%TD*%
%TO.C,R101*%
X82225000Y-102950000D03*
X83875000Y-102950000D03*
%TD*%
D12*
%TO.C,R38*%
X46600000Y-105100000D03*
X48600000Y-105100000D03*
%TD*%
D11*
%TO.C,U28*%
X104475000Y-123095000D03*
X104475000Y-124365000D03*
X104475000Y-125635000D03*
X104475000Y-126905000D03*
X99525000Y-126905000D03*
X99525000Y-125635000D03*
X99525000Y-124365000D03*
X99525000Y-123095000D03*
%TD*%
D26*
%TO.C,D23*%
X127525000Y-88350000D03*
X129575000Y-88350000D03*
%TD*%
D27*
%TO.C,D9*%
X51750000Y-69050000D03*
X49700000Y-69050000D03*
%TD*%
D23*
%TO.C,RV2*%
X41700000Y-82825000D03*
D24*
X42950000Y-85725000D03*
D23*
X44200000Y-82825000D03*
%TD*%
D22*
%TO.C,C36*%
X57375000Y-110050000D03*
X55300000Y-110050000D03*
%TD*%
%TO.C,C12*%
X122337500Y-53500000D03*
X120262500Y-53500000D03*
%TD*%
D16*
%TO.C,C27*%
X50412500Y-105150000D03*
X52487500Y-105150000D03*
%TD*%
%TO.C,C57*%
X90762500Y-110800000D03*
X92837500Y-110800000D03*
%TD*%
D17*
%TO.C,C10*%
X75375000Y-59512500D03*
X75375000Y-61587500D03*
%TD*%
D28*
%TO.C,C1*%
X79850000Y-47900000D03*
X79850000Y-42500000D03*
%TD*%
D11*
%TO.C,U10*%
X64475000Y-66055000D03*
X64475000Y-67325000D03*
X64475000Y-68595000D03*
X64475000Y-69865000D03*
X64475000Y-71135000D03*
X64475000Y-72405000D03*
X64475000Y-73675000D03*
X64475000Y-74945000D03*
X59525000Y-74945000D03*
X59525000Y-73675000D03*
X59525000Y-72405000D03*
X59525000Y-71135000D03*
X59525000Y-69865000D03*
X59525000Y-68595000D03*
X59525000Y-67325000D03*
X59525000Y-66055000D03*
%TD*%
D14*
%TO.C,R10*%
X131650000Y-62075000D03*
X131650000Y-63725000D03*
%TD*%
D29*
%TO.C,R48*%
X136350000Y-130300000D03*
X136350000Y-128300000D03*
%TD*%
D20*
%TO.C,R7*%
X120875000Y-62550000D03*
X119225000Y-62550000D03*
%TD*%
D16*
%TO.C,C75*%
X83262500Y-128150000D03*
X85337500Y-128150000D03*
%TD*%
D18*
%TO.C,R102*%
X94525000Y-141100000D03*
X96175000Y-141100000D03*
%TD*%
D14*
%TO.C,R17*%
X118550000Y-52175000D03*
X118550000Y-53825000D03*
%TD*%
D25*
%TO.C,U19*%
X92862500Y-104725000D03*
X92862500Y-105375000D03*
X92862500Y-106025000D03*
X92862500Y-106675000D03*
X92862500Y-107325000D03*
X92862500Y-107975000D03*
X92862500Y-108625000D03*
X92862500Y-109275000D03*
X87137500Y-109275000D03*
X87137500Y-108625000D03*
X87137500Y-107975000D03*
X87137500Y-107325000D03*
X87137500Y-106675000D03*
X87137500Y-106025000D03*
X87137500Y-105375000D03*
X87137500Y-104725000D03*
%TD*%
D26*
%TO.C,D8*%
X49775000Y-137050000D03*
X51825000Y-137050000D03*
%TD*%
D16*
%TO.C,C72*%
X90812500Y-90800000D03*
X92887500Y-90800000D03*
%TD*%
D29*
%TO.C,R29*%
X49900000Y-55250000D03*
X49900000Y-53250000D03*
%TD*%
D18*
%TO.C,R109*%
X83875000Y-126350000D03*
X85525000Y-126350000D03*
%TD*%
D17*
%TO.C,C52*%
X95550000Y-59362500D03*
X95550000Y-61437500D03*
%TD*%
D11*
%TO.C,U26*%
X92475000Y-92555000D03*
X92475000Y-93825000D03*
X92475000Y-95095000D03*
X92475000Y-96365000D03*
X92475000Y-97635000D03*
X92475000Y-98905000D03*
X92475000Y-100175000D03*
X92475000Y-101445000D03*
X87525000Y-101445000D03*
X87525000Y-100175000D03*
X87525000Y-98905000D03*
X87525000Y-97635000D03*
X87525000Y-96365000D03*
X87525000Y-95095000D03*
X87525000Y-93825000D03*
X87525000Y-92555000D03*
%TD*%
%TO.C,U17*%
X134475000Y-79495000D03*
X134475000Y-80765000D03*
X134475000Y-82035000D03*
X134475000Y-83305000D03*
X129525000Y-83305000D03*
X129525000Y-82035000D03*
X129525000Y-80765000D03*
X129525000Y-79495000D03*
%TD*%
D17*
%TO.C,C23*%
X54575000Y-58962500D03*
X54575000Y-61037500D03*
%TD*%
D20*
%TO.C,R70*%
X85425000Y-70350000D03*
X83775000Y-70350000D03*
%TD*%
D30*
%TO.C,Q3*%
X53762500Y-53375000D03*
X53762500Y-55275000D03*
X51887500Y-54325000D03*
%TD*%
D14*
%TO.C,R20*%
X120250000Y-50075000D03*
X120250000Y-51725000D03*
%TD*%
D29*
%TO.C,R13*%
X78475000Y-57525000D03*
X78475000Y-55525000D03*
%TD*%
D18*
%TO.C,R65*%
X94675000Y-118350000D03*
X96325000Y-118350000D03*
%TD*%
D31*
%TO.C,R43*%
X132150000Y-74350000D03*
X130150000Y-74350000D03*
%TD*%
D23*
%TO.C,RV4*%
X41700000Y-104850000D03*
D24*
X42950000Y-107750000D03*
D23*
X44200000Y-104850000D03*
%TD*%
D16*
%TO.C,C56*%
X90800000Y-62775000D03*
X92875000Y-62775000D03*
%TD*%
D20*
%TO.C,R64*%
X85375000Y-119900000D03*
X83725000Y-119900000D03*
%TD*%
D21*
%TO.C,C49*%
X126800000Y-123137500D03*
X126800000Y-121062500D03*
%TD*%
D18*
%TO.C,R71*%
X82125000Y-75000000D03*
X83775000Y-75000000D03*
%TD*%
D22*
%TO.C,C67*%
X96737500Y-80950000D03*
X94662500Y-80950000D03*
%TD*%
D32*
%TO.C,U12*%
X68590000Y-78300000D03*
X69860000Y-78300000D03*
X71130000Y-78300000D03*
X72400000Y-78300000D03*
X73670000Y-78300000D03*
X74940000Y-78300000D03*
X76210000Y-78300000D03*
X76210000Y-83700000D03*
X74940000Y-83700000D03*
X73670000Y-83700000D03*
X72400000Y-83700000D03*
X71130000Y-83700000D03*
X69860000Y-83700000D03*
X68590000Y-83700000D03*
%TD*%
D21*
%TO.C,C15*%
X58500000Y-45512500D03*
X58500000Y-43437500D03*
%TD*%
D18*
%TO.C,R113*%
X106425000Y-124350000D03*
X108075000Y-124350000D03*
%TD*%
D12*
%TO.C,R41*%
X46650000Y-127000000D03*
X48650000Y-127000000D03*
%TD*%
D18*
%TO.C,R75*%
X94675000Y-112180000D03*
X96325000Y-112180000D03*
%TD*%
D22*
%TO.C,C20*%
X128512500Y-49075000D03*
X126437500Y-49075000D03*
%TD*%
D33*
%TO.C,Q1*%
X76600000Y-57387500D03*
X74700000Y-57387500D03*
X75650000Y-55512500D03*
%TD*%
D18*
%TO.C,R74*%
X94675000Y-121450000D03*
X96325000Y-121450000D03*
%TD*%
D34*
%TO.C,R19*%
X65850000Y-43925000D03*
X65850000Y-42275000D03*
%TD*%
D22*
%TO.C,C69*%
X96737500Y-128900000D03*
X94662500Y-128900000D03*
%TD*%
%TO.C,C87*%
X113437500Y-148900000D03*
X111362500Y-148900000D03*
%TD*%
D27*
%TO.C,D11*%
X51775000Y-113000000D03*
X49725000Y-113000000D03*
%TD*%
D18*
%TO.C,R110*%
X106425000Y-122800000D03*
X108075000Y-122800000D03*
%TD*%
D26*
%TO.C,D19*%
X130125000Y-72300000D03*
X132175000Y-72300000D03*
%TD*%
D18*
%TO.C,R56*%
X94825000Y-67400000D03*
X96475000Y-67400000D03*
%TD*%
D35*
%TO.C,U4*%
X60825000Y-53875000D03*
X63125000Y-53875000D03*
D36*
X63125000Y-60175000D03*
D35*
X65425000Y-53875000D03*
%TD*%
D14*
%TO.C,R15*%
X131650000Y-58975000D03*
X131650000Y-60625000D03*
%TD*%
D11*
%TO.C,U33*%
X104475000Y-100095000D03*
X104475000Y-101365000D03*
X104475000Y-102635000D03*
X104475000Y-103905000D03*
X99525000Y-103905000D03*
X99525000Y-102635000D03*
X99525000Y-101365000D03*
X99525000Y-100095000D03*
%TD*%
D27*
%TO.C,D5*%
X51775000Y-91000000D03*
X49725000Y-91000000D03*
%TD*%
D20*
%TO.C,R106*%
X85525000Y-145350000D03*
X83875000Y-145350000D03*
%TD*%
D21*
%TO.C,C85*%
X104900000Y-108187500D03*
X104900000Y-106112500D03*
%TD*%
D31*
%TO.C,R21*%
X70250000Y-57625000D03*
X68250000Y-57625000D03*
%TD*%
D18*
%TO.C,R124*%
X106425000Y-147600000D03*
X108075000Y-147600000D03*
%TD*%
D22*
%TO.C,C3*%
X74862500Y-49925000D03*
X72787500Y-49925000D03*
%TD*%
D18*
%TO.C,R98*%
X94675000Y-92550000D03*
X96325000Y-92550000D03*
%TD*%
D22*
%TO.C,C31*%
X44762500Y-77625000D03*
X42687500Y-77625000D03*
%TD*%
D18*
%TO.C,R120*%
X101175000Y-142800000D03*
X102825000Y-142800000D03*
%TD*%
%TO.C,R91*%
X94525000Y-142650000D03*
X96175000Y-142650000D03*
%TD*%
D22*
%TO.C,C63*%
X84737500Y-96350000D03*
X82662500Y-96350000D03*
%TD*%
D20*
%TO.C,R1*%
X47975000Y-93050000D03*
X46325000Y-93050000D03*
%TD*%
D22*
%TO.C,C47*%
X127737500Y-118450000D03*
X125662500Y-118450000D03*
%TD*%
D18*
%TO.C,R121*%
X102825000Y-98400000D03*
X104475000Y-98400000D03*
%TD*%
%TO.C,R87*%
X94675000Y-97200000D03*
X96325000Y-97200000D03*
%TD*%
D27*
%TO.C,D18*%
X131575000Y-114300000D03*
X129525000Y-114300000D03*
%TD*%
D18*
%TO.C,R116*%
X106475000Y-78350000D03*
X108125000Y-78350000D03*
%TD*%
D37*
%TO.C,D3*%
X98350000Y-50925000D03*
X100850000Y-50925000D03*
%TD*%
D12*
%TO.C,R85*%
X87100000Y-137800000D03*
X89100000Y-137800000D03*
%TD*%
D18*
%TO.C,R126*%
X106425000Y-101400000D03*
X108075000Y-101400000D03*
%TD*%
D20*
%TO.C,R2*%
X48025000Y-137050000D03*
X46375000Y-137050000D03*
%TD*%
D21*
%TO.C,C19*%
X131900000Y-57387500D03*
X131900000Y-55312500D03*
%TD*%
D26*
%TO.C,D17*%
X129525000Y-116400000D03*
X131575000Y-116400000D03*
%TD*%
D22*
%TO.C,C59*%
X84837500Y-116350000D03*
X82762500Y-116350000D03*
%TD*%
D18*
%TO.C,R63*%
X94675000Y-116800000D03*
X96325000Y-116800000D03*
%TD*%
%TO.C,R117*%
X106475000Y-79900000D03*
X108125000Y-79900000D03*
%TD*%
%TO.C,R26*%
X130200000Y-49325000D03*
X131850000Y-49325000D03*
%TD*%
D38*
%TO.C,C14*%
X68050000Y-59700000D03*
X68050000Y-62400000D03*
%TD*%
D31*
%TO.C,R47*%
X129550000Y-86300000D03*
X127550000Y-86300000D03*
%TD*%
D32*
%TO.C,U13*%
X76310000Y-127700000D03*
X75040000Y-127700000D03*
X73770000Y-127700000D03*
X72500000Y-127700000D03*
X71230000Y-127700000D03*
X69960000Y-127700000D03*
X68690000Y-127700000D03*
X68690000Y-122300000D03*
X69960000Y-122300000D03*
X71230000Y-122300000D03*
X72500000Y-122300000D03*
X73770000Y-122300000D03*
X75040000Y-122300000D03*
X76310000Y-122300000D03*
%TD*%
D20*
%TO.C,R58*%
X85425000Y-71900000D03*
X83775000Y-71900000D03*
%TD*%
D22*
%TO.C,C65*%
X96937500Y-126850000D03*
X94862500Y-126850000D03*
%TD*%
D17*
%TO.C,C70*%
X95600000Y-87925000D03*
X95600000Y-90000000D03*
%TD*%
D20*
%TO.C,R3*%
X47850000Y-70600000D03*
X46200000Y-70600000D03*
%TD*%
D27*
%TO.C,D20*%
X132125000Y-70200000D03*
X130075000Y-70200000D03*
%TD*%
D17*
%TO.C,C44*%
X125500000Y-88362500D03*
X125500000Y-90437500D03*
%TD*%
D18*
%TO.C,R111*%
X103375000Y-75450000D03*
X105025000Y-75450000D03*
%TD*%
D22*
%TO.C,C55*%
X85237500Y-67950000D03*
X83162500Y-67950000D03*
%TD*%
%TO.C,C54*%
X85237500Y-56775000D03*
X83162500Y-56775000D03*
%TD*%
D31*
%TO.C,R40*%
X44700000Y-123400000D03*
X42700000Y-123400000D03*
%TD*%
D23*
%TO.C,RV9*%
X81850000Y-137700000D03*
D24*
X83100000Y-140600000D03*
D23*
X84350000Y-137700000D03*
%TD*%
D12*
%TO.C,R34*%
X46650000Y-83250000D03*
X48650000Y-83250000D03*
%TD*%
D20*
%TO.C,R8*%
X120875000Y-64100000D03*
X119225000Y-64100000D03*
%TD*%
D25*
%TO.C,U18*%
X92862500Y-56725000D03*
X92862500Y-57375000D03*
X92862500Y-58025000D03*
X92862500Y-58675000D03*
X92862500Y-59325000D03*
X92862500Y-59975000D03*
X92862500Y-60625000D03*
X92862500Y-61275000D03*
X87137500Y-61275000D03*
X87137500Y-60625000D03*
X87137500Y-59975000D03*
X87137500Y-59325000D03*
X87137500Y-58675000D03*
X87137500Y-58025000D03*
X87137500Y-57375000D03*
X87137500Y-56725000D03*
%TD*%
D21*
%TO.C,C81*%
X104500000Y-84737500D03*
X104500000Y-82662500D03*
%TD*%
D20*
%TO.C,R95*%
X85525000Y-148450000D03*
X83875000Y-148450000D03*
%TD*%
D25*
%TO.C,U6*%
X52462500Y-77125000D03*
X52462500Y-77775000D03*
X52462500Y-78425000D03*
X52462500Y-79075000D03*
X52462500Y-79725000D03*
X52462500Y-80375000D03*
X52462500Y-81025000D03*
X52462500Y-81675000D03*
X46737500Y-81675000D03*
X46737500Y-81025000D03*
X46737500Y-80375000D03*
X46737500Y-79725000D03*
X46737500Y-79075000D03*
X46737500Y-78425000D03*
X46737500Y-77775000D03*
X46737500Y-77125000D03*
%TD*%
D27*
%TO.C,D7*%
X51775000Y-134950000D03*
X49725000Y-134950000D03*
%TD*%
D17*
%TO.C,C7*%
X61350000Y-43387500D03*
X61350000Y-45462500D03*
%TD*%
D18*
%TO.C,R107*%
X82075000Y-124800000D03*
X83725000Y-124800000D03*
%TD*%
D20*
%TO.C,R100*%
X85525000Y-98300000D03*
X83875000Y-98300000D03*
%TD*%
D11*
%TO.C,U20*%
X92475000Y-64555000D03*
X92475000Y-65825000D03*
X92475000Y-67095000D03*
X92475000Y-68365000D03*
X92475000Y-69635000D03*
X92475000Y-70905000D03*
X92475000Y-72175000D03*
X92475000Y-73445000D03*
X87525000Y-73445000D03*
X87525000Y-72175000D03*
X87525000Y-70905000D03*
X87525000Y-69635000D03*
X87525000Y-68365000D03*
X87525000Y-67095000D03*
X87525000Y-65825000D03*
X87525000Y-64555000D03*
%TD*%
D20*
%TO.C,R93*%
X85525000Y-146900000D03*
X83875000Y-146900000D03*
%TD*%
D34*
%TO.C,R12*%
X66000000Y-51225000D03*
X66000000Y-49575000D03*
%TD*%
D22*
%TO.C,C82*%
X97387500Y-123200000D03*
X95312500Y-123200000D03*
%TD*%
D21*
%TO.C,C4*%
X122050000Y-57487500D03*
X122050000Y-55412500D03*
%TD*%
D22*
%TO.C,C66*%
X87437500Y-75250000D03*
X85362500Y-75250000D03*
%TD*%
D20*
%TO.C,R125*%
X108075000Y-146050000D03*
X106425000Y-146050000D03*
%TD*%
D21*
%TO.C,C11*%
X70125000Y-55762500D03*
X70125000Y-53687500D03*
%TD*%
D16*
%TO.C,C79*%
X120712500Y-105550000D03*
X122787500Y-105550000D03*
%TD*%
D15*
%TO.C,R44*%
X131550000Y-110300000D03*
X131550000Y-112300000D03*
%TD*%
D39*
%TO.C,C6*%
X68125000Y-49975000D03*
X70825000Y-49975000D03*
%TD*%
D18*
%TO.C,R57*%
X94475000Y-68950000D03*
X96125000Y-68950000D03*
%TD*%
D16*
%TO.C,C26*%
X50512500Y-63275000D03*
X52587500Y-63275000D03*
%TD*%
D18*
%TO.C,R97*%
X94675000Y-101850000D03*
X96325000Y-101850000D03*
%TD*%
%TO.C,R104*%
X94525000Y-139550000D03*
X96175000Y-139550000D03*
%TD*%
D23*
%TO.C,RV7*%
X81800000Y-111250000D03*
D24*
X83050000Y-114150000D03*
D23*
X84300000Y-111250000D03*
%TD*%
D29*
%TO.C,R18*%
X67925000Y-55725000D03*
X67925000Y-53725000D03*
%TD*%
D16*
%TO.C,C25*%
X50412500Y-83250000D03*
X52487500Y-83250000D03*
%TD*%
D19*
%TO.C,D22*%
X132300000Y-128325000D03*
X132300000Y-130375000D03*
%TD*%
D25*
%TO.C,U14*%
X52462500Y-120900000D03*
X52462500Y-121550000D03*
X52462500Y-122200000D03*
X52462500Y-122850000D03*
X52462500Y-123500000D03*
X52462500Y-124150000D03*
X52462500Y-124800000D03*
X52462500Y-125450000D03*
X46737500Y-125450000D03*
X46737500Y-124800000D03*
X46737500Y-124150000D03*
X46737500Y-123500000D03*
X46737500Y-122850000D03*
X46737500Y-122200000D03*
X46737500Y-121550000D03*
X46737500Y-120900000D03*
%TD*%
D18*
%TO.C,R96*%
X94675000Y-94100000D03*
X96325000Y-94100000D03*
%TD*%
%TO.C,R59*%
X94475000Y-70450000D03*
X96125000Y-70450000D03*
%TD*%
D21*
%TO.C,C18*%
X124500000Y-49237500D03*
X124500000Y-47162500D03*
%TD*%
D37*
%TO.C,D4*%
X98350000Y-52925000D03*
X100850000Y-52925000D03*
%TD*%
D21*
%TO.C,C38*%
X78200000Y-83587500D03*
X78200000Y-81512500D03*
%TD*%
D11*
%TO.C,U1*%
X129575000Y-57895000D03*
X129575000Y-59165000D03*
X129575000Y-60435000D03*
X129575000Y-61705000D03*
X124625000Y-61705000D03*
X124625000Y-60435000D03*
X124625000Y-59165000D03*
X124625000Y-57895000D03*
%TD*%
D16*
%TO.C,C73*%
X90912500Y-137800000D03*
X92987500Y-137800000D03*
%TD*%
D22*
%TO.C,C33*%
X44762500Y-99550000D03*
X42687500Y-99550000D03*
%TD*%
D23*
%TO.C,RV3*%
X41725000Y-61475000D03*
D24*
X42975000Y-64375000D03*
D23*
X44225000Y-61475000D03*
%TD*%
D18*
%TO.C,R67*%
X94475000Y-73450000D03*
X96125000Y-73450000D03*
%TD*%
%TO.C,R66*%
X94725000Y-65800000D03*
X96375000Y-65800000D03*
%TD*%
D16*
%TO.C,C74*%
X83262500Y-80200000D03*
X85337500Y-80200000D03*
%TD*%
D20*
%TO.C,R60*%
X85425000Y-73450000D03*
X83775000Y-73450000D03*
%TD*%
D11*
%TO.C,U5*%
X129575000Y-50995000D03*
X129575000Y-52265000D03*
X129575000Y-53535000D03*
X129575000Y-54805000D03*
X124625000Y-54805000D03*
X124625000Y-53535000D03*
X124625000Y-52265000D03*
X124625000Y-50995000D03*
%TD*%
D22*
%TO.C,C45*%
X128287500Y-74350000D03*
X126212500Y-74350000D03*
%TD*%
D40*
%TO.C,C21*%
X136025000Y-43700000D03*
X133075000Y-43700000D03*
%TD*%
D18*
%TO.C,R99*%
X94675000Y-100300000D03*
X96325000Y-100300000D03*
%TD*%
%TO.C,R86*%
X94675000Y-95650000D03*
X96325000Y-95650000D03*
%TD*%
%TO.C,R127*%
X106425000Y-102900000D03*
X108075000Y-102900000D03*
%TD*%
D11*
%TO.C,U21*%
X92475000Y-112555000D03*
X92475000Y-113825000D03*
X92475000Y-115095000D03*
X92475000Y-116365000D03*
X92475000Y-117635000D03*
X92475000Y-118905000D03*
X92475000Y-120175000D03*
X92475000Y-121445000D03*
X87525000Y-121445000D03*
X87525000Y-120175000D03*
X87525000Y-118905000D03*
X87525000Y-117635000D03*
X87525000Y-116365000D03*
X87525000Y-115095000D03*
X87525000Y-113825000D03*
X87525000Y-112555000D03*
%TD*%
D20*
%TO.C,R50*%
X83300000Y-60825000D03*
X81650000Y-60825000D03*
%TD*%
D22*
%TO.C,C62*%
X85187500Y-131700000D03*
X83112500Y-131700000D03*
%TD*%
%TO.C,C34*%
X57337500Y-88050000D03*
X55262500Y-88050000D03*
%TD*%
D17*
%TO.C,C22*%
X54600000Y-79812500D03*
X54600000Y-81887500D03*
%TD*%
D15*
%TO.C,R35*%
X44175000Y-57400000D03*
X44175000Y-59400000D03*
%TD*%
D17*
%TO.C,C24*%
X54550000Y-101712500D03*
X54550000Y-103787500D03*
%TD*%
D31*
%TO.C,R49*%
X133450000Y-86250000D03*
X131450000Y-86250000D03*
%TD*%
%TO.C,R42*%
X131550000Y-118450000D03*
X129550000Y-118450000D03*
%TD*%
D34*
%TO.C,R119*%
X101200000Y-84275000D03*
X101200000Y-82625000D03*
%TD*%
D18*
%TO.C,R68*%
X94725000Y-64250000D03*
X96375000Y-64250000D03*
%TD*%
D14*
%TO.C,R118*%
X102350000Y-119675000D03*
X102350000Y-121325000D03*
%TD*%
D18*
%TO.C,R108*%
X83875000Y-78350000D03*
X85525000Y-78350000D03*
%TD*%
D15*
%TO.C,R84*%
X85100000Y-133650000D03*
X85100000Y-135650000D03*
%TD*%
D18*
%TO.C,R69*%
X94475000Y-71950000D03*
X96125000Y-71950000D03*
%TD*%
D20*
%TO.C,R72*%
X85375000Y-118350000D03*
X83725000Y-118350000D03*
%TD*%
D27*
%TO.C,D24*%
X129525000Y-90450000D03*
X127475000Y-90450000D03*
%TD*%
D12*
%TO.C,R55*%
X86900000Y-110800000D03*
X88900000Y-110800000D03*
%TD*%
D31*
%TO.C,R33*%
X44775000Y-79650000D03*
X42775000Y-79650000D03*
%TD*%
D20*
%TO.C,R4*%
X47975000Y-115050000D03*
X46325000Y-115050000D03*
%TD*%
D16*
%TO.C,C30*%
X50412500Y-127000000D03*
X52487500Y-127000000D03*
%TD*%
%TO.C,C77*%
X94862500Y-76950000D03*
X96937500Y-76950000D03*
%TD*%
D17*
%TO.C,C53*%
X95050000Y-107512500D03*
X95050000Y-109587500D03*
%TD*%
D22*
%TO.C,C58*%
X85137500Y-84700000D03*
X83062500Y-84700000D03*
%TD*%
D20*
%TO.C,R81*%
X83050000Y-135750000D03*
X81400000Y-135750000D03*
%TD*%
D17*
%TO.C,C71*%
X95000000Y-134262500D03*
X95000000Y-136337500D03*
%TD*%
D14*
%TO.C,R128*%
X102750000Y-139175000D03*
X102750000Y-140825000D03*
%TD*%
D37*
%TO.C,D2*%
X80375000Y-50950000D03*
X82875000Y-50950000D03*
%TD*%
D15*
%TO.C,R16*%
X65775000Y-45900000D03*
X65775000Y-47900000D03*
%TD*%
D22*
%TO.C,C61*%
X85337500Y-143150000D03*
X83262500Y-143150000D03*
%TD*%
D20*
%TO.C,R9*%
X54050000Y-46775000D03*
X52400000Y-46775000D03*
%TD*%
D11*
%TO.C,U11*%
X64475000Y-110055000D03*
X64475000Y-111325000D03*
X64475000Y-112595000D03*
X64475000Y-113865000D03*
X64475000Y-115135000D03*
X64475000Y-116405000D03*
X64475000Y-117675000D03*
X64475000Y-118945000D03*
X59525000Y-118945000D03*
X59525000Y-117675000D03*
X59525000Y-116405000D03*
X59525000Y-115135000D03*
X59525000Y-113865000D03*
X59525000Y-112595000D03*
X59525000Y-111325000D03*
X59525000Y-110055000D03*
%TD*%
D18*
%TO.C,R89*%
X94675000Y-98750000D03*
X96325000Y-98750000D03*
%TD*%
D21*
%TO.C,C48*%
X126950000Y-79487500D03*
X126950000Y-77412500D03*
%TD*%
D20*
%TO.C,R23*%
X127925000Y-47150000D03*
X126275000Y-47150000D03*
%TD*%
D41*
%TO.C,C2*%
X101375000Y-42450000D03*
X101375000Y-47850000D03*
%TD*%
D21*
%TO.C,C17*%
X131875000Y-53525000D03*
X131875000Y-51450000D03*
%TD*%
D20*
%TO.C,R114*%
X108075000Y-125900000D03*
X106425000Y-125900000D03*
%TD*%
D23*
%TO.C,RV8*%
X81700000Y-91150000D03*
D24*
X82950000Y-94050000D03*
D23*
X84200000Y-91150000D03*
%TD*%
D11*
%TO.C,U16*%
X134475000Y-122745000D03*
X134475000Y-124015000D03*
X134475000Y-125285000D03*
X134475000Y-126555000D03*
X129525000Y-126555000D03*
X129525000Y-125285000D03*
X129525000Y-124015000D03*
X129525000Y-122745000D03*
%TD*%
D20*
%TO.C,R90*%
X85525000Y-101400000D03*
X83875000Y-101400000D03*
%TD*%
D22*
%TO.C,C60*%
X84887500Y-104750000D03*
X82812500Y-104750000D03*
%TD*%
D26*
%TO.C,D12*%
X49725000Y-115050000D03*
X51775000Y-115050000D03*
%TD*%
%TO.C,D6*%
X49725000Y-93050000D03*
X51775000Y-93050000D03*
%TD*%
D17*
%TO.C,C39*%
X66700000Y-122312500D03*
X66700000Y-124387500D03*
%TD*%
D12*
%TO.C,R28*%
X131050000Y-46200000D03*
X133050000Y-46200000D03*
%TD*%
D31*
%TO.C,R37*%
X44750000Y-101550000D03*
X42750000Y-101550000D03*
%TD*%
D25*
%TO.C,U8*%
X52462500Y-99050000D03*
X52462500Y-99700000D03*
X52462500Y-100350000D03*
X52462500Y-101000000D03*
X52462500Y-101650000D03*
X52462500Y-102300000D03*
X52462500Y-102950000D03*
X52462500Y-103600000D03*
X46737500Y-103600000D03*
X46737500Y-102950000D03*
X46737500Y-102300000D03*
X46737500Y-101650000D03*
X46737500Y-101000000D03*
X46737500Y-100350000D03*
X46737500Y-99700000D03*
X46737500Y-99050000D03*
%TD*%
D29*
%TO.C,R46*%
X136750000Y-126450000D03*
X136750000Y-124450000D03*
%TD*%
D12*
%TO.C,R53*%
X87000000Y-62775000D03*
X89000000Y-62775000D03*
%TD*%
D16*
%TO.C,C5*%
X127762500Y-63650000D03*
X129837500Y-63650000D03*
%TD*%
D11*
%TO.C,U32*%
X104475000Y-144520000D03*
X104475000Y-145790000D03*
X104475000Y-147060000D03*
X104475000Y-148330000D03*
X99525000Y-148330000D03*
X99525000Y-147060000D03*
X99525000Y-145790000D03*
X99525000Y-144520000D03*
%TD*%
D21*
%TO.C,C80*%
X99500000Y-75337500D03*
X99500000Y-73262500D03*
%TD*%
D18*
%TO.C,R25*%
X47550000Y-75800000D03*
X49200000Y-75800000D03*
%TD*%
D20*
%TO.C,R80*%
X83075000Y-89200000D03*
X81425000Y-89200000D03*
%TD*%
D15*
%TO.C,R54*%
X84750000Y-107250000D03*
X84750000Y-109250000D03*
%TD*%
D18*
%TO.C,R115*%
X106425000Y-127450000D03*
X108075000Y-127450000D03*
%TD*%
D11*
%TO.C,U29*%
X104475000Y-77095000D03*
X104475000Y-78365000D03*
X104475000Y-79635000D03*
X104475000Y-80905000D03*
X99525000Y-80905000D03*
X99525000Y-79635000D03*
X99525000Y-78365000D03*
X99525000Y-77095000D03*
%TD*%
D16*
%TO.C,C64*%
X94662500Y-78950000D03*
X96737500Y-78950000D03*
%TD*%
D12*
%TO.C,R22*%
X61300000Y-41350000D03*
X63300000Y-41350000D03*
%TD*%
D20*
%TO.C,R112*%
X108125000Y-81450000D03*
X106475000Y-81450000D03*
%TD*%
D16*
%TO.C,C68*%
X87712500Y-123200000D03*
X89787500Y-123200000D03*
%TD*%
D20*
%TO.C,R122*%
X108075000Y-104450000D03*
X106425000Y-104450000D03*
%TD*%
D22*
%TO.C,C37*%
X57337500Y-132050000D03*
X55262500Y-132050000D03*
%TD*%
D20*
%TO.C,R5*%
X120875000Y-59200000D03*
X119225000Y-59200000D03*
%TD*%
D21*
%TO.C,C86*%
X98800000Y-142787500D03*
X98800000Y-140712500D03*
%TD*%
D25*
%TO.C,U24*%
X92862500Y-84725000D03*
X92862500Y-85375000D03*
X92862500Y-86025000D03*
X92862500Y-86675000D03*
X92862500Y-87325000D03*
X92862500Y-87975000D03*
X92862500Y-88625000D03*
X92862500Y-89275000D03*
X87137500Y-89275000D03*
X87137500Y-88625000D03*
X87137500Y-87975000D03*
X87137500Y-87325000D03*
X87137500Y-86675000D03*
X87137500Y-86025000D03*
X87137500Y-85375000D03*
X87137500Y-84725000D03*
%TD*%
D23*
%TO.C,RV12*%
X104550000Y-118050000D03*
D24*
X105800000Y-120950000D03*
D23*
X107050000Y-118050000D03*
%TD*%
D11*
%TO.C,U9*%
X64475000Y-88055000D03*
X64475000Y-89325000D03*
X64475000Y-90595000D03*
X64475000Y-91865000D03*
X64475000Y-93135000D03*
X64475000Y-94405000D03*
X64475000Y-95675000D03*
X64475000Y-96945000D03*
X59525000Y-96945000D03*
X59525000Y-95675000D03*
X59525000Y-94405000D03*
X59525000Y-93135000D03*
X59525000Y-91865000D03*
X59525000Y-90595000D03*
X59525000Y-89325000D03*
X59525000Y-88055000D03*
%TD*%
D14*
%TO.C,R31*%
X41725000Y-57975000D03*
X41725000Y-59625000D03*
%TD*%
D18*
%TO.C,R105*%
X94525000Y-147350000D03*
X96175000Y-147350000D03*
%TD*%
D22*
%TO.C,C35*%
X44737500Y-121400000D03*
X42662500Y-121400000D03*
%TD*%
D19*
%TO.C,D13*%
X56125000Y-45525000D03*
X56125000Y-47575000D03*
%TD*%
D21*
%TO.C,C83*%
X104450000Y-130787500D03*
X104450000Y-128712500D03*
%TD*%
D12*
%TO.C,R83*%
X87000000Y-90800000D03*
X89000000Y-90800000D03*
%TD*%
D42*
%TO.C,D21*%
X134350000Y-130325000D03*
X134350000Y-128275000D03*
%TD*%
D22*
%TO.C,C29*%
X43212500Y-55425000D03*
X41137500Y-55425000D03*
%TD*%
D11*
%TO.C,U23*%
X92475000Y-125095000D03*
X92475000Y-126365000D03*
X92475000Y-127635000D03*
X92475000Y-128905000D03*
X87525000Y-128905000D03*
X87525000Y-127635000D03*
X87525000Y-126365000D03*
X87525000Y-125095000D03*
%TD*%
D15*
%TO.C,R52*%
X85100000Y-58725000D03*
X85100000Y-60725000D03*
%TD*%
D25*
%TO.C,U7*%
X52462500Y-57125000D03*
X52462500Y-57775000D03*
X52462500Y-58425000D03*
X52462500Y-59075000D03*
X52462500Y-59725000D03*
X52462500Y-60375000D03*
X52462500Y-61025000D03*
X52462500Y-61675000D03*
X46737500Y-61675000D03*
X46737500Y-61025000D03*
X46737500Y-60375000D03*
X46737500Y-59725000D03*
X46737500Y-59075000D03*
X46737500Y-58425000D03*
X46737500Y-57775000D03*
X46737500Y-57125000D03*
%TD*%
D18*
%TO.C,R62*%
X94675000Y-115250000D03*
X96325000Y-115250000D03*
%TD*%
D20*
%TO.C,R88*%
X85525000Y-99850000D03*
X83875000Y-99850000D03*
%TD*%
D14*
%TO.C,R14*%
X122450000Y-59125000D03*
X122450000Y-60775000D03*
%TD*%
D23*
%TO.C,RV5*%
X41700000Y-126700000D03*
D24*
X42950000Y-129600000D03*
D23*
X44200000Y-126700000D03*
%TD*%
D21*
%TO.C,C16*%
X58375000Y-54937500D03*
X58375000Y-52862500D03*
%TD*%
D23*
%TO.C,RV6*%
X82150000Y-62900000D03*
D24*
X83400000Y-65800000D03*
D23*
X84650000Y-62900000D03*
%TD*%
D11*
%TO.C,U22*%
X92475000Y-77095000D03*
X92475000Y-78365000D03*
X92475000Y-79635000D03*
X92475000Y-80905000D03*
X87525000Y-80905000D03*
X87525000Y-79635000D03*
X87525000Y-78365000D03*
X87525000Y-77095000D03*
%TD*%
D15*
%TO.C,R45*%
X132050000Y-66300000D03*
X132050000Y-68300000D03*
%TD*%
D29*
%TO.C,R11*%
X63400000Y-45425000D03*
X63400000Y-43425000D03*
%TD*%
D20*
%TO.C,R61*%
X85375000Y-121450000D03*
X83725000Y-121450000D03*
%TD*%
D43*
%TO.C,J6*%
X95680000Y-48750000D03*
X95680000Y-43700000D03*
X93140000Y-48750000D03*
X93140000Y-43700000D03*
X90600000Y-48750000D03*
X90600000Y-43700000D03*
X88060000Y-48750000D03*
X88060000Y-43700000D03*
X85520000Y-48750000D03*
X85520000Y-43700000D03*
%TD*%
D18*
%TO.C,R77*%
X82075000Y-123050000D03*
X83725000Y-123050000D03*
%TD*%
D16*
%TO.C,C78*%
X120262500Y-148400000D03*
X122337500Y-148400000D03*
%TD*%
D18*
%TO.C,R123*%
X106425000Y-144500000D03*
X108075000Y-144500000D03*
%TD*%
D26*
%TO.C,D10*%
X49725000Y-71075000D03*
X51775000Y-71075000D03*
%TD*%
D21*
%TO.C,C13*%
X122200000Y-51537500D03*
X122200000Y-49462500D03*
%TD*%
D17*
%TO.C,C46*%
X138400000Y-128262500D03*
X138400000Y-130337500D03*
%TD*%
D44*
%TO.C,U2*%
X74450000Y-42900000D03*
D45*
X68150000Y-45200000D03*
D44*
X74450000Y-45200000D03*
X74450000Y-47500000D03*
%TD*%
D12*
%TO.C,R24*%
X42025000Y-50775000D03*
X44025000Y-50775000D03*
%TD*%
D18*
%TO.C,R92*%
X94525000Y-144200000D03*
X96175000Y-144200000D03*
%TD*%
D34*
%TO.C,R129*%
X103100000Y-107225000D03*
X103100000Y-105575000D03*
%TD*%
D11*
%TO.C,U15*%
X64475000Y-132055000D03*
X64475000Y-133325000D03*
X64475000Y-134595000D03*
X64475000Y-135865000D03*
X64475000Y-137135000D03*
X64475000Y-138405000D03*
X64475000Y-139675000D03*
X64475000Y-140945000D03*
X59525000Y-140945000D03*
X59525000Y-139675000D03*
X59525000Y-138405000D03*
X59525000Y-137135000D03*
X59525000Y-135865000D03*
X59525000Y-134595000D03*
X59525000Y-133325000D03*
X59525000Y-132055000D03*
%TD*%
D23*
%TO.C,RV16*%
X105000000Y-139550000D03*
D24*
X106250000Y-142450000D03*
D23*
X107500000Y-139550000D03*
%TD*%
D20*
%TO.C,R6*%
X120875000Y-60950000D03*
X119225000Y-60950000D03*
%TD*%
D37*
%TO.C,D1*%
X80375000Y-52950000D03*
X82875000Y-52950000D03*
%TD*%
D18*
%TO.C,R94*%
X94525000Y-145750000D03*
X96175000Y-145750000D03*
%TD*%
D22*
%TO.C,C32*%
X57287500Y-66050000D03*
X55212500Y-66050000D03*
%TD*%
M02*
