M48
; DRILL file {KiCad (6.0.1)} date Wed Jan 17 09:18:32 2024
; FORMAT={-:-/ absolute / inch / decimal}
; #@! TF.CreationDate,2024-01-17T09:18:32-08:00
; #@! TF.GenerationSoftware,Kicad,Pcbnew,(6.0.1)
; #@! TF.FileFunction,NonPlated,1,2,NPTH
FMAT,2
INCH
; #@! TA.AperFunction,NonPlated,NPTH,ComponentDrill
T1C0.0984
; #@! TA.AperFunction,NonPlated,NPTH,ComponentDrill
T2C0.1260
; #@! TA.AperFunction,NonPlated,NPTH,ComponentDrill
T3C0.2441
; #@! TA.AperFunction,NonPlated,NPTH,ComponentDrill
T4C0.2520
; #@! TA.AperFunction,NonPlated,NPTH,ComponentDrill
T5C0.3661
%
G90
G05
T1
X2.0709Y-1.6929
X2.0709Y-5.7874
X2.3504Y-3.0512
X2.3504Y-3.9173
X2.3504Y-4.7835
X2.3504Y-5.6496
X5.0583Y-1.6929
X5.0583Y-5.7874
T2
X2.0579Y-1.9685
X4.1122Y-2.7559
X4.1122Y-3.622
X4.1122Y-4.4882
X4.1122Y-5.3543
T3
X1.7579Y-1.9685
X1.7579Y-2.7559
X1.7579Y-3.622
X1.7579Y-4.4882
X1.7579Y-5.3543
X5.3209Y-1.9685
X5.3209Y-2.7559
X5.3209Y-3.622
X5.3209Y-4.4882
X5.3209Y-5.3543
T4
X4.5276Y-2.7559
X4.5276Y-3.622
X4.5276Y-4.4882
X4.5276Y-5.3543
T5
X2.3504Y-2.7559
X2.3504Y-3.622
X2.3504Y-4.4882
X2.3504Y-5.3543
T0
M30
