G04 #@! TF.GenerationSoftware,KiCad,Pcbnew,(6.0.1)*
G04 #@! TF.CreationDate,2024-01-19T06:55:15-08:00*
G04 #@! TF.ProjectId,panel,70616e65-6c2e-46b6-9963-61645f706362,1.1*
G04 #@! TF.SameCoordinates,Original*
G04 #@! TF.FileFunction,Copper,L1,Top*
G04 #@! TF.FilePolarity,Positive*
%FSLAX46Y46*%
G04 Gerber Fmt 4.6, Leading zero omitted, Abs format (unit mm)*
G04 Created by KiCad (PCBNEW (6.0.1)) date 2024-01-19 06:55:15*
%MOMM*%
%LPD*%
G01*
G04 APERTURE LIST*
G04 #@! TA.AperFunction,ComponentPad*
%ADD10C,5.000000*%
G04 #@! TD*
G04 #@! TA.AperFunction,ComponentPad*
%ADD11C,3.700000*%
G04 #@! TD*
G04 #@! TA.AperFunction,ComponentPad*
%ADD12C,6.350000*%
G04 #@! TD*
G04 APERTURE END LIST*
D10*
X47500000Y-33750000D03*
X133860000Y-33750000D03*
X133860000Y-156150000D03*
X47500000Y-156150000D03*
D11*
X45400000Y-70000000D03*
X45400000Y-92000000D03*
X45400000Y-114000000D03*
X45400000Y-50000000D03*
X136000000Y-92000000D03*
D12*
X73300000Y-92000000D03*
D11*
X136000000Y-136000000D03*
X45400000Y-136000000D03*
D12*
X73300000Y-70000000D03*
D11*
X136000000Y-70000000D03*
X136000000Y-114000000D03*
X136000000Y-50000000D03*
D12*
X73300000Y-114000000D03*
X73300000Y-136000000D03*
G04 #@! TA.AperFunction,Conductor*
G36*
X45526390Y-31278002D02*
G01*
X45572883Y-31331658D01*
X45582987Y-31401932D01*
X45564642Y-31448362D01*
X45564576Y-31450069D01*
X45571527Y-31462316D01*
X47487190Y-33377980D01*
X47501131Y-33385592D01*
X47502966Y-33385461D01*
X47509580Y-33381210D01*
X49427074Y-31463716D01*
X49434688Y-31449772D01*
X49434194Y-31442853D01*
X49416038Y-31388944D01*
X49433352Y-31320091D01*
X49485141Y-31271529D01*
X49541941Y-31258000D01*
X131818269Y-31258000D01*
X131886390Y-31278002D01*
X131932883Y-31331658D01*
X131942987Y-31401932D01*
X131924642Y-31448362D01*
X131924576Y-31450069D01*
X131931527Y-31462316D01*
X133847190Y-33377980D01*
X133861131Y-33385592D01*
X133862966Y-33385461D01*
X133869580Y-33381210D01*
X135787074Y-31463716D01*
X135794688Y-31449772D01*
X135794194Y-31442853D01*
X135776038Y-31388944D01*
X135793352Y-31320091D01*
X135845141Y-31271529D01*
X135901941Y-31258000D01*
X140666000Y-31258000D01*
X140734121Y-31278002D01*
X140780614Y-31331658D01*
X140792000Y-31384000D01*
X140792000Y-158516000D01*
X140771998Y-158584121D01*
X140718342Y-158630614D01*
X140666000Y-158642000D01*
X135906799Y-158642000D01*
X135838678Y-158621998D01*
X135792185Y-158568342D01*
X135782081Y-158498068D01*
X135797646Y-158460415D01*
X135798123Y-158453616D01*
X135790537Y-158439748D01*
X133872810Y-156522020D01*
X133858869Y-156514408D01*
X133857034Y-156514539D01*
X133850420Y-156518790D01*
X131931474Y-158437737D01*
X131923860Y-158451681D01*
X131924551Y-158461344D01*
X131941060Y-158513030D01*
X131922669Y-158581603D01*
X131870124Y-158629348D01*
X131815095Y-158642000D01*
X49546799Y-158642000D01*
X49478678Y-158621998D01*
X49432185Y-158568342D01*
X49422081Y-158498068D01*
X49437646Y-158460415D01*
X49438123Y-158453616D01*
X49430537Y-158439748D01*
X47512810Y-156522020D01*
X47498869Y-156514408D01*
X47497034Y-156514539D01*
X47490420Y-156518790D01*
X45571474Y-158437737D01*
X45563860Y-158451681D01*
X45564551Y-158461344D01*
X45581060Y-158513030D01*
X45562669Y-158581603D01*
X45510124Y-158629348D01*
X45455095Y-158642000D01*
X40634000Y-158642000D01*
X40565879Y-158621998D01*
X40519386Y-158568342D01*
X40508000Y-158516000D01*
X40508000Y-156058987D01*
X44488484Y-156058987D01*
X44497374Y-156398505D01*
X44497980Y-156405721D01*
X44545835Y-156741963D01*
X44547269Y-156749074D01*
X44633455Y-157077595D01*
X44635692Y-157084478D01*
X44759064Y-157400914D01*
X44762081Y-157407503D01*
X44921002Y-157707652D01*
X44924761Y-157713860D01*
X45117129Y-157993757D01*
X45121574Y-157999486D01*
X45188743Y-158076484D01*
X45201917Y-158084888D01*
X45211769Y-158079020D01*
X47127980Y-156162810D01*
X47134357Y-156151131D01*
X47864408Y-156151131D01*
X47864539Y-156152966D01*
X47868790Y-156159580D01*
X49786268Y-158077057D01*
X49799622Y-158084349D01*
X49809594Y-158077295D01*
X49916641Y-157949267D01*
X49920957Y-157943456D01*
X50107432Y-157659575D01*
X50111046Y-157653313D01*
X50263658Y-157349882D01*
X50266530Y-157343244D01*
X50383249Y-157024293D01*
X50385345Y-157017351D01*
X50464631Y-156687103D01*
X50465915Y-156679964D01*
X50506816Y-156341973D01*
X50507240Y-156336403D01*
X50513010Y-156152797D01*
X50512937Y-156147204D01*
X50507850Y-156058987D01*
X130848484Y-156058987D01*
X130857374Y-156398505D01*
X130857980Y-156405721D01*
X130905835Y-156741963D01*
X130907269Y-156749074D01*
X130993455Y-157077595D01*
X130995692Y-157084478D01*
X131119064Y-157400914D01*
X131122081Y-157407503D01*
X131281002Y-157707652D01*
X131284761Y-157713860D01*
X131477129Y-157993757D01*
X131481574Y-157999486D01*
X131548743Y-158076484D01*
X131561917Y-158084888D01*
X131571769Y-158079020D01*
X133487980Y-156162810D01*
X133494357Y-156151131D01*
X134224408Y-156151131D01*
X134224539Y-156152966D01*
X134228790Y-156159580D01*
X136146268Y-158077057D01*
X136159622Y-158084349D01*
X136169594Y-158077295D01*
X136276641Y-157949267D01*
X136280957Y-157943456D01*
X136467432Y-157659575D01*
X136471046Y-157653313D01*
X136623658Y-157349882D01*
X136626530Y-157343244D01*
X136743249Y-157024293D01*
X136745345Y-157017351D01*
X136824631Y-156687103D01*
X136825915Y-156679964D01*
X136866816Y-156341973D01*
X136867240Y-156336403D01*
X136873010Y-156152797D01*
X136872937Y-156147204D01*
X136853338Y-155807303D01*
X136852506Y-155800113D01*
X136794113Y-155465529D01*
X136792458Y-155458474D01*
X136695998Y-155132834D01*
X136693540Y-155126006D01*
X136560290Y-154813608D01*
X136557073Y-154807125D01*
X136388788Y-154512089D01*
X136384856Y-154506034D01*
X136183774Y-154232295D01*
X136179166Y-154226726D01*
X136173830Y-154220984D01*
X136160178Y-154212866D01*
X136159570Y-154212887D01*
X136151092Y-154218119D01*
X134232020Y-156137190D01*
X134224408Y-156151131D01*
X133494357Y-156151131D01*
X133495592Y-156148869D01*
X133495461Y-156147034D01*
X133491210Y-156140420D01*
X131572374Y-154221585D01*
X131559581Y-154214599D01*
X131548827Y-154222464D01*
X131388037Y-154427527D01*
X131383902Y-154433476D01*
X131206440Y-154723068D01*
X131203019Y-154729447D01*
X131060016Y-155037522D01*
X131057356Y-155044241D01*
X130950711Y-155366707D01*
X130948834Y-155373711D01*
X130879961Y-155706288D01*
X130878904Y-155713449D01*
X130848712Y-156051735D01*
X130848484Y-156058987D01*
X50507850Y-156058987D01*
X50493338Y-155807303D01*
X50492506Y-155800113D01*
X50434113Y-155465529D01*
X50432458Y-155458474D01*
X50335998Y-155132834D01*
X50333540Y-155126006D01*
X50200290Y-154813608D01*
X50197073Y-154807125D01*
X50028788Y-154512089D01*
X50024856Y-154506034D01*
X49823774Y-154232295D01*
X49819166Y-154226726D01*
X49813830Y-154220984D01*
X49800178Y-154212866D01*
X49799570Y-154212887D01*
X49791092Y-154218119D01*
X47872020Y-156137190D01*
X47864408Y-156151131D01*
X47134357Y-156151131D01*
X47135592Y-156148869D01*
X47135461Y-156147034D01*
X47131210Y-156140420D01*
X45212374Y-154221585D01*
X45199581Y-154214599D01*
X45188827Y-154222464D01*
X45028037Y-154427527D01*
X45023902Y-154433476D01*
X44846440Y-154723068D01*
X44843019Y-154729447D01*
X44700016Y-155037522D01*
X44697356Y-155044241D01*
X44590711Y-155366707D01*
X44588834Y-155373711D01*
X44519961Y-155706288D01*
X44518904Y-155713449D01*
X44488712Y-156051735D01*
X44488484Y-156058987D01*
X40508000Y-156058987D01*
X40508000Y-153851048D01*
X45565132Y-153851048D01*
X45571527Y-153862316D01*
X47487190Y-155777980D01*
X47501131Y-155785592D01*
X47502966Y-155785461D01*
X47509580Y-155781210D01*
X49427074Y-153863716D01*
X49433991Y-153851048D01*
X131925132Y-153851048D01*
X131931527Y-153862316D01*
X133847190Y-155777980D01*
X133861131Y-155785592D01*
X133862966Y-155785461D01*
X133869580Y-155781210D01*
X135787074Y-153863716D01*
X135794466Y-153850179D01*
X135787679Y-153840479D01*
X135684476Y-153752335D01*
X135678704Y-153747953D01*
X135396796Y-153558519D01*
X135390575Y-153554839D01*
X135088757Y-153399060D01*
X135082146Y-153396116D01*
X134764439Y-153276065D01*
X134757513Y-153273894D01*
X134428112Y-153191155D01*
X134421005Y-153189799D01*
X134084278Y-153145468D01*
X134077036Y-153144937D01*
X133737467Y-153139602D01*
X133730205Y-153139906D01*
X133392256Y-153173638D01*
X133385108Y-153174770D01*
X133053263Y-153247124D01*
X133046285Y-153249072D01*
X132724960Y-153359086D01*
X132718253Y-153361823D01*
X132411707Y-153508039D01*
X132405349Y-153511534D01*
X132117654Y-153692005D01*
X132111731Y-153696214D01*
X131933601Y-153838923D01*
X131925132Y-153851048D01*
X49433991Y-153851048D01*
X49434466Y-153850179D01*
X49427679Y-153840479D01*
X49324476Y-153752335D01*
X49318704Y-153747953D01*
X49036796Y-153558519D01*
X49030575Y-153554839D01*
X48728757Y-153399060D01*
X48722146Y-153396116D01*
X48404439Y-153276065D01*
X48397513Y-153273894D01*
X48068112Y-153191155D01*
X48061005Y-153189799D01*
X47724278Y-153145468D01*
X47717036Y-153144937D01*
X47377467Y-153139602D01*
X47370205Y-153139906D01*
X47032256Y-153173638D01*
X47025108Y-153174770D01*
X46693263Y-153247124D01*
X46686285Y-153249072D01*
X46364960Y-153359086D01*
X46358253Y-153361823D01*
X46051707Y-153508039D01*
X46045349Y-153511534D01*
X45757654Y-153692005D01*
X45751731Y-153696214D01*
X45573601Y-153838923D01*
X45565132Y-153851048D01*
X40508000Y-153851048D01*
X40508000Y-143607655D01*
X58139858Y-143607655D01*
X58175104Y-143866638D01*
X58176412Y-143871124D01*
X58176412Y-143871126D01*
X58196098Y-143938664D01*
X58248243Y-144117567D01*
X58357668Y-144354928D01*
X58360231Y-144358837D01*
X58498410Y-144569596D01*
X58498414Y-144569601D01*
X58500976Y-144573509D01*
X58675018Y-144768506D01*
X58875970Y-144935637D01*
X58879973Y-144938066D01*
X59095422Y-145068804D01*
X59095426Y-145068806D01*
X59099419Y-145071229D01*
X59340455Y-145172303D01*
X59593783Y-145236641D01*
X59598434Y-145237109D01*
X59598438Y-145237110D01*
X59791308Y-145256531D01*
X59810867Y-145258500D01*
X59966354Y-145258500D01*
X59968679Y-145258327D01*
X59968685Y-145258327D01*
X60156000Y-145244407D01*
X60156004Y-145244406D01*
X60160652Y-145244061D01*
X60165200Y-145243032D01*
X60165206Y-145243031D01*
X60351601Y-145200853D01*
X60415577Y-145186377D01*
X60451769Y-145172303D01*
X60654824Y-145093340D01*
X60654827Y-145093339D01*
X60659177Y-145091647D01*
X60886098Y-144961951D01*
X61091357Y-144800138D01*
X61270443Y-144609763D01*
X61419424Y-144395009D01*
X61535025Y-144160593D01*
X61614707Y-143911665D01*
X61656721Y-143653693D01*
X61660142Y-143392345D01*
X61624896Y-143133362D01*
X61610473Y-143083877D01*
X61553068Y-142886932D01*
X61551757Y-142882433D01*
X61442332Y-142645072D01*
X61409519Y-142595024D01*
X61301590Y-142430404D01*
X61301586Y-142430399D01*
X61299024Y-142426491D01*
X61124982Y-142231494D01*
X60924030Y-142064363D01*
X60876844Y-142035730D01*
X60704578Y-141931196D01*
X60704574Y-141931194D01*
X60700581Y-141928771D01*
X60459545Y-141827697D01*
X60206217Y-141763359D01*
X60201566Y-141762891D01*
X60201562Y-141762890D01*
X59992271Y-141741816D01*
X59989133Y-141741500D01*
X59833646Y-141741500D01*
X59831321Y-141741673D01*
X59831315Y-141741673D01*
X59644000Y-141755593D01*
X59643996Y-141755594D01*
X59639348Y-141755939D01*
X59634800Y-141756968D01*
X59634794Y-141756969D01*
X59448399Y-141799147D01*
X59384423Y-141813623D01*
X59380071Y-141815315D01*
X59380069Y-141815316D01*
X59145176Y-141906660D01*
X59145173Y-141906661D01*
X59140823Y-141908353D01*
X58913902Y-142038049D01*
X58708643Y-142199862D01*
X58529557Y-142390237D01*
X58380576Y-142604991D01*
X58264975Y-142839407D01*
X58185293Y-143088335D01*
X58143279Y-143346307D01*
X58139858Y-143607655D01*
X40508000Y-143607655D01*
X40508000Y-136000000D01*
X43036439Y-136000000D01*
X43056660Y-136308507D01*
X43116975Y-136611735D01*
X43118300Y-136615639D01*
X43118301Y-136615642D01*
X43153668Y-136719830D01*
X43216354Y-136904496D01*
X43218177Y-136908192D01*
X43218180Y-136908200D01*
X43254969Y-136982799D01*
X43353096Y-137181780D01*
X43355390Y-137185213D01*
X43355391Y-137185215D01*
X43521273Y-137433475D01*
X43524861Y-137438845D01*
X43527575Y-137441939D01*
X43527579Y-137441945D01*
X43693312Y-137630926D01*
X43728710Y-137671290D01*
X43731799Y-137673999D01*
X43958055Y-137872421D01*
X43958061Y-137872425D01*
X43961155Y-137875139D01*
X43964581Y-137877428D01*
X43964586Y-137877432D01*
X44158318Y-138006879D01*
X44218219Y-138046904D01*
X44221918Y-138048728D01*
X44221923Y-138048731D01*
X44342732Y-138108307D01*
X44495504Y-138183646D01*
X44499409Y-138184971D01*
X44499410Y-138184972D01*
X44784358Y-138281699D01*
X44784361Y-138281700D01*
X44788265Y-138283025D01*
X45014961Y-138328117D01*
X45087450Y-138342536D01*
X45087453Y-138342536D01*
X45091493Y-138343340D01*
X45095604Y-138343609D01*
X45095608Y-138343610D01*
X45395881Y-138363291D01*
X45400000Y-138363561D01*
X45404119Y-138363291D01*
X45704392Y-138343610D01*
X45704396Y-138343609D01*
X45708507Y-138343340D01*
X45712547Y-138342536D01*
X45712550Y-138342536D01*
X45785039Y-138328117D01*
X46011735Y-138283025D01*
X46015639Y-138281700D01*
X46015642Y-138281699D01*
X46300590Y-138184972D01*
X46300591Y-138184971D01*
X46304496Y-138183646D01*
X46457268Y-138108307D01*
X46578077Y-138048731D01*
X46578082Y-138048728D01*
X46581781Y-138046904D01*
X46641682Y-138006879D01*
X46835414Y-137877432D01*
X46835419Y-137877428D01*
X46838845Y-137875139D01*
X46841939Y-137872425D01*
X46841945Y-137872421D01*
X47068201Y-137673999D01*
X47071290Y-137671290D01*
X47106688Y-137630926D01*
X47272421Y-137441945D01*
X47272425Y-137441939D01*
X47275139Y-137438845D01*
X47278728Y-137433475D01*
X47444609Y-137185215D01*
X47444610Y-137185213D01*
X47446904Y-137181780D01*
X47545031Y-136982799D01*
X47581820Y-136908200D01*
X47581823Y-136908192D01*
X47583646Y-136904496D01*
X47646332Y-136719830D01*
X47681699Y-136615642D01*
X47681700Y-136615639D01*
X47683025Y-136611735D01*
X47743340Y-136308507D01*
X47763561Y-136000000D01*
X54736446Y-136000000D01*
X54736566Y-136002748D01*
X54755446Y-136435159D01*
X54756095Y-136450033D01*
X54814892Y-136896642D01*
X54912390Y-137336426D01*
X54913218Y-137339051D01*
X54913219Y-137339056D01*
X55017972Y-137671290D01*
X55047846Y-137766039D01*
X55164941Y-138048731D01*
X55215444Y-138170654D01*
X55220231Y-138182212D01*
X55428231Y-138581777D01*
X55670264Y-138961693D01*
X55944488Y-139319069D01*
X56248816Y-139651184D01*
X56580931Y-139955512D01*
X56583093Y-139957171D01*
X56583099Y-139957176D01*
X56704538Y-140050359D01*
X56938307Y-140229736D01*
X57318223Y-140471769D01*
X57717788Y-140679769D01*
X58133961Y-140852154D01*
X58136581Y-140852980D01*
X58136589Y-140852983D01*
X58560944Y-140986781D01*
X58560949Y-140986782D01*
X58563574Y-140987610D01*
X59003358Y-141085108D01*
X59006077Y-141085466D01*
X59006083Y-141085467D01*
X59173674Y-141107530D01*
X59449967Y-141143905D01*
X59452716Y-141144025D01*
X59452727Y-141144026D01*
X59782869Y-141158440D01*
X59782873Y-141158440D01*
X59784245Y-141158500D01*
X60015755Y-141158500D01*
X60017127Y-141158440D01*
X60017131Y-141158440D01*
X60347273Y-141144026D01*
X60347284Y-141144025D01*
X60350033Y-141143905D01*
X60626326Y-141107530D01*
X60793917Y-141085467D01*
X60793923Y-141085466D01*
X60796642Y-141085108D01*
X61236426Y-140987610D01*
X61239051Y-140986782D01*
X61239056Y-140986781D01*
X61663411Y-140852983D01*
X61663419Y-140852980D01*
X61666039Y-140852154D01*
X62082212Y-140679769D01*
X62481777Y-140471769D01*
X62861693Y-140229736D01*
X63095462Y-140050359D01*
X63216901Y-139957176D01*
X63216907Y-139957171D01*
X63219069Y-139955512D01*
X63551184Y-139651184D01*
X63855512Y-139319069D01*
X64129736Y-138961693D01*
X64371769Y-138581777D01*
X64579769Y-138182212D01*
X64584557Y-138170654D01*
X64635059Y-138048731D01*
X64752154Y-137766039D01*
X64782029Y-137671290D01*
X64886781Y-137339056D01*
X64886782Y-137339051D01*
X64887610Y-137336426D01*
X64985108Y-136896642D01*
X65043905Y-136450033D01*
X65044555Y-136435159D01*
X65063434Y-136002748D01*
X65063554Y-136000000D01*
X69611445Y-136000000D01*
X69631651Y-136385559D01*
X69632164Y-136388799D01*
X69632165Y-136388807D01*
X69659970Y-136564357D01*
X69692049Y-136766894D01*
X69791976Y-137139826D01*
X69793161Y-137142914D01*
X69793162Y-137142916D01*
X69818724Y-137209508D01*
X69930337Y-137500270D01*
X69931835Y-137503210D01*
X70088008Y-137809715D01*
X70105618Y-137844277D01*
X70107414Y-137847043D01*
X70107416Y-137847046D01*
X70113747Y-137856795D01*
X70315896Y-138168078D01*
X70558869Y-138468125D01*
X70831875Y-138741131D01*
X71131922Y-138984104D01*
X71455722Y-139194382D01*
X71458656Y-139195877D01*
X71458663Y-139195881D01*
X71696179Y-139316901D01*
X71799730Y-139369663D01*
X72160174Y-139508024D01*
X72533106Y-139607951D01*
X72687710Y-139632438D01*
X72911193Y-139667835D01*
X72911201Y-139667836D01*
X72914441Y-139668349D01*
X73300000Y-139688555D01*
X73685559Y-139668349D01*
X73688799Y-139667836D01*
X73688807Y-139667835D01*
X73912290Y-139632438D01*
X74066894Y-139607951D01*
X74439826Y-139508024D01*
X74800270Y-139369663D01*
X74903821Y-139316901D01*
X75141337Y-139195881D01*
X75141344Y-139195877D01*
X75144278Y-139194382D01*
X75468078Y-138984104D01*
X75768125Y-138741131D01*
X76041131Y-138468125D01*
X76284104Y-138168078D01*
X76486253Y-137856795D01*
X76492584Y-137847046D01*
X76492586Y-137847043D01*
X76494382Y-137844277D01*
X76511993Y-137809715D01*
X76668165Y-137503210D01*
X76669663Y-137500270D01*
X76781276Y-137209508D01*
X76806838Y-137142916D01*
X76806839Y-137142914D01*
X76808024Y-137139826D01*
X76907951Y-136766894D01*
X76940030Y-136564357D01*
X76967835Y-136388807D01*
X76967836Y-136388799D01*
X76968349Y-136385559D01*
X76981600Y-136132703D01*
X102340743Y-136132703D01*
X102378268Y-136417734D01*
X102454129Y-136695036D01*
X102455813Y-136698984D01*
X102538960Y-136893917D01*
X102566923Y-136959476D01*
X102578693Y-136979142D01*
X102681340Y-137150652D01*
X102714561Y-137206161D01*
X102894313Y-137430528D01*
X103102851Y-137628423D01*
X103336317Y-137796186D01*
X103340112Y-137798195D01*
X103340113Y-137798196D01*
X103361869Y-137809715D01*
X103590392Y-137930712D01*
X103860373Y-138029511D01*
X104141264Y-138090755D01*
X104169841Y-138093004D01*
X104364282Y-138108307D01*
X104364291Y-138108307D01*
X104366739Y-138108500D01*
X104522271Y-138108500D01*
X104524407Y-138108354D01*
X104524418Y-138108354D01*
X104732548Y-138094165D01*
X104732554Y-138094164D01*
X104736825Y-138093873D01*
X104741020Y-138093004D01*
X104741022Y-138093004D01*
X104877584Y-138064723D01*
X105018342Y-138035574D01*
X105289343Y-137939607D01*
X105544812Y-137807750D01*
X105548313Y-137805289D01*
X105548317Y-137805287D01*
X105743370Y-137668201D01*
X105780023Y-137642441D01*
X105990622Y-137446740D01*
X106172713Y-137224268D01*
X106322927Y-136979142D01*
X106357963Y-136899329D01*
X106436757Y-136719830D01*
X106438483Y-136715898D01*
X106517244Y-136439406D01*
X106557751Y-136154784D01*
X106557845Y-136136951D01*
X106558562Y-136000000D01*
X111286411Y-136000000D01*
X111306754Y-136388176D01*
X111307267Y-136391416D01*
X111307268Y-136391424D01*
X111314195Y-136435159D01*
X111367562Y-136772099D01*
X111468167Y-137147562D01*
X111607468Y-137510453D01*
X111608966Y-137513393D01*
X111776062Y-137841336D01*
X111783938Y-137856794D01*
X111785734Y-137859560D01*
X111785736Y-137859563D01*
X111947302Y-138108354D01*
X111995643Y-138182793D01*
X112240266Y-138484876D01*
X112515124Y-138759734D01*
X112817207Y-139004357D01*
X112819970Y-139006152D01*
X112819971Y-139006152D01*
X113109822Y-139194382D01*
X113143206Y-139216062D01*
X113146140Y-139217557D01*
X113146147Y-139217561D01*
X113441724Y-139368165D01*
X113489547Y-139392532D01*
X113710548Y-139477366D01*
X113790414Y-139508024D01*
X113852438Y-139531833D01*
X114227901Y-139632438D01*
X114431793Y-139664732D01*
X114608576Y-139692732D01*
X114608584Y-139692733D01*
X114611824Y-139693246D01*
X114902894Y-139708500D01*
X115097106Y-139708500D01*
X115388176Y-139693246D01*
X115391416Y-139692733D01*
X115391424Y-139692732D01*
X115568207Y-139664732D01*
X115772099Y-139632438D01*
X116147562Y-139531833D01*
X116209587Y-139508024D01*
X116289452Y-139477366D01*
X116510453Y-139392532D01*
X116558276Y-139368165D01*
X116853853Y-139217561D01*
X116853860Y-139217557D01*
X116856794Y-139216062D01*
X116890179Y-139194382D01*
X117180029Y-139006152D01*
X117180030Y-139006152D01*
X117182793Y-139004357D01*
X117484876Y-138759734D01*
X117759734Y-138484876D01*
X118004357Y-138182793D01*
X118062102Y-138093873D01*
X118214264Y-137859564D01*
X118214266Y-137859561D01*
X118216062Y-137856795D01*
X118217562Y-137853853D01*
X118391034Y-137513393D01*
X118392532Y-137510453D01*
X118531833Y-137147562D01*
X118632438Y-136772099D01*
X118685805Y-136435159D01*
X118692732Y-136391424D01*
X118692733Y-136391416D01*
X118693246Y-136388176D01*
X118713589Y-136000000D01*
X133636439Y-136000000D01*
X133656660Y-136308507D01*
X133716975Y-136611735D01*
X133718300Y-136615639D01*
X133718301Y-136615642D01*
X133753668Y-136719830D01*
X133816354Y-136904496D01*
X133818177Y-136908192D01*
X133818180Y-136908200D01*
X133854969Y-136982799D01*
X133953096Y-137181780D01*
X133955390Y-137185213D01*
X133955391Y-137185215D01*
X134121273Y-137433475D01*
X134124861Y-137438845D01*
X134127575Y-137441939D01*
X134127579Y-137441945D01*
X134293312Y-137630926D01*
X134328710Y-137671290D01*
X134331799Y-137673999D01*
X134558055Y-137872421D01*
X134558061Y-137872425D01*
X134561155Y-137875139D01*
X134564581Y-137877428D01*
X134564586Y-137877432D01*
X134758318Y-138006879D01*
X134818219Y-138046904D01*
X134821918Y-138048728D01*
X134821923Y-138048731D01*
X134942732Y-138108307D01*
X135095504Y-138183646D01*
X135099409Y-138184971D01*
X135099410Y-138184972D01*
X135384358Y-138281699D01*
X135384361Y-138281700D01*
X135388265Y-138283025D01*
X135614961Y-138328117D01*
X135687450Y-138342536D01*
X135687453Y-138342536D01*
X135691493Y-138343340D01*
X135695604Y-138343609D01*
X135695608Y-138343610D01*
X135995881Y-138363291D01*
X136000000Y-138363561D01*
X136004119Y-138363291D01*
X136304392Y-138343610D01*
X136304396Y-138343609D01*
X136308507Y-138343340D01*
X136312547Y-138342536D01*
X136312550Y-138342536D01*
X136385039Y-138328117D01*
X136611735Y-138283025D01*
X136615639Y-138281700D01*
X136615642Y-138281699D01*
X136900590Y-138184972D01*
X136900591Y-138184971D01*
X136904496Y-138183646D01*
X137057268Y-138108307D01*
X137178077Y-138048731D01*
X137178082Y-138048728D01*
X137181781Y-138046904D01*
X137241682Y-138006879D01*
X137435414Y-137877432D01*
X137435419Y-137877428D01*
X137438845Y-137875139D01*
X137441939Y-137872425D01*
X137441945Y-137872421D01*
X137668201Y-137673999D01*
X137671290Y-137671290D01*
X137706688Y-137630926D01*
X137872421Y-137441945D01*
X137872425Y-137441939D01*
X137875139Y-137438845D01*
X137878728Y-137433475D01*
X138044609Y-137185215D01*
X138044610Y-137185213D01*
X138046904Y-137181780D01*
X138145031Y-136982799D01*
X138181820Y-136908200D01*
X138181823Y-136908192D01*
X138183646Y-136904496D01*
X138246332Y-136719830D01*
X138281699Y-136615642D01*
X138281700Y-136615639D01*
X138283025Y-136611735D01*
X138343340Y-136308507D01*
X138363561Y-136000000D01*
X138343340Y-135691493D01*
X138283025Y-135388265D01*
X138247667Y-135284102D01*
X138184975Y-135099419D01*
X138183646Y-135095504D01*
X138181823Y-135091808D01*
X138181820Y-135091800D01*
X138065353Y-134855630D01*
X138046904Y-134818220D01*
X138044609Y-134814785D01*
X137877432Y-134564586D01*
X137877428Y-134564581D01*
X137875139Y-134561155D01*
X137872425Y-134558061D01*
X137872421Y-134558055D01*
X137673999Y-134331799D01*
X137671290Y-134328710D01*
X137668201Y-134326001D01*
X137441945Y-134127579D01*
X137441939Y-134127575D01*
X137438845Y-134124861D01*
X137435419Y-134122572D01*
X137435414Y-134122568D01*
X137207811Y-133970489D01*
X137181781Y-133953096D01*
X137178082Y-133951272D01*
X137178077Y-133951269D01*
X137035565Y-133880990D01*
X136904496Y-133816354D01*
X136900581Y-133815025D01*
X136615642Y-133718301D01*
X136615639Y-133718300D01*
X136611735Y-133716975D01*
X136385039Y-133671883D01*
X136312550Y-133657464D01*
X136312547Y-133657464D01*
X136308507Y-133656660D01*
X136304396Y-133656391D01*
X136304392Y-133656390D01*
X136004119Y-133636709D01*
X136000000Y-133636439D01*
X135995881Y-133636709D01*
X135695608Y-133656390D01*
X135695604Y-133656391D01*
X135691493Y-133656660D01*
X135687453Y-133657464D01*
X135687450Y-133657464D01*
X135614961Y-133671883D01*
X135388265Y-133716975D01*
X135384361Y-133718300D01*
X135384358Y-133718301D01*
X135099419Y-133815025D01*
X135095504Y-133816354D01*
X135091808Y-133818177D01*
X135091800Y-133818180D01*
X134905289Y-133910158D01*
X134818220Y-133953096D01*
X134814787Y-133955390D01*
X134814785Y-133955391D01*
X134564586Y-134122568D01*
X134564581Y-134122572D01*
X134561155Y-134124861D01*
X134558061Y-134127575D01*
X134558055Y-134127579D01*
X134331799Y-134326001D01*
X134328710Y-134328710D01*
X134326001Y-134331799D01*
X134127579Y-134558055D01*
X134127575Y-134558061D01*
X134124861Y-134561155D01*
X134122572Y-134564581D01*
X134122568Y-134564586D01*
X133955391Y-134814785D01*
X133953096Y-134818220D01*
X133934647Y-134855630D01*
X133818180Y-135091800D01*
X133818177Y-135091808D01*
X133816354Y-135095504D01*
X133815025Y-135099419D01*
X133752334Y-135284102D01*
X133716975Y-135388265D01*
X133656660Y-135691493D01*
X133636439Y-136000000D01*
X118713589Y-136000000D01*
X118693246Y-135611824D01*
X118688565Y-135582266D01*
X118657837Y-135388265D01*
X118632438Y-135227901D01*
X118531833Y-134852438D01*
X118392532Y-134489547D01*
X118262304Y-134233961D01*
X118217561Y-134146147D01*
X118217557Y-134146140D01*
X118216062Y-134143206D01*
X118168060Y-134069288D01*
X118006152Y-133819971D01*
X118006152Y-133819970D01*
X118004357Y-133817207D01*
X117759734Y-133515124D01*
X117484876Y-133240266D01*
X117182793Y-132995643D01*
X116892947Y-132807416D01*
X116859563Y-132785736D01*
X116859560Y-132785734D01*
X116856794Y-132783938D01*
X116853860Y-132782443D01*
X116853853Y-132782439D01*
X116513393Y-132608966D01*
X116510453Y-132607468D01*
X116212676Y-132493162D01*
X116150652Y-132469353D01*
X116150650Y-132469352D01*
X116147562Y-132468167D01*
X115772099Y-132367562D01*
X115568207Y-132335268D01*
X115391424Y-132307268D01*
X115391416Y-132307267D01*
X115388176Y-132306754D01*
X115097106Y-132291500D01*
X114902894Y-132291500D01*
X114611824Y-132306754D01*
X114608584Y-132307267D01*
X114608576Y-132307268D01*
X114431793Y-132335268D01*
X114227901Y-132367562D01*
X113852438Y-132468167D01*
X113849350Y-132469352D01*
X113849348Y-132469353D01*
X113787324Y-132493162D01*
X113489547Y-132607468D01*
X113486607Y-132608966D01*
X113146147Y-132782439D01*
X113146140Y-132782443D01*
X113143206Y-132783938D01*
X113140440Y-132785734D01*
X113140437Y-132785736D01*
X113107053Y-132807416D01*
X112817207Y-132995643D01*
X112515124Y-133240266D01*
X112240266Y-133515124D01*
X111995643Y-133817207D01*
X111993848Y-133819970D01*
X111993848Y-133819971D01*
X111785736Y-134140436D01*
X111785734Y-134140439D01*
X111783938Y-134143205D01*
X111782443Y-134146139D01*
X111782439Y-134146146D01*
X111608966Y-134486607D01*
X111607468Y-134489547D01*
X111468167Y-134852438D01*
X111367562Y-135227901D01*
X111342163Y-135388265D01*
X111311436Y-135582266D01*
X111306754Y-135611824D01*
X111286411Y-136000000D01*
X106558562Y-136000000D01*
X106559235Y-135871583D01*
X106559235Y-135871576D01*
X106559257Y-135867297D01*
X106521732Y-135582266D01*
X106445871Y-135304964D01*
X106411640Y-135224712D01*
X106334763Y-135044476D01*
X106334761Y-135044472D01*
X106333077Y-135040524D01*
X106225140Y-134860174D01*
X106187643Y-134797521D01*
X106187640Y-134797517D01*
X106185439Y-134793839D01*
X106005687Y-134569472D01*
X105797149Y-134371577D01*
X105563683Y-134203814D01*
X105541843Y-134192250D01*
X105518654Y-134179972D01*
X105309608Y-134069288D01*
X105039627Y-133970489D01*
X104758736Y-133909245D01*
X104727685Y-133906801D01*
X104535718Y-133891693D01*
X104535709Y-133891693D01*
X104533261Y-133891500D01*
X104377729Y-133891500D01*
X104375593Y-133891646D01*
X104375582Y-133891646D01*
X104167452Y-133905835D01*
X104167446Y-133905836D01*
X104163175Y-133906127D01*
X104158980Y-133906996D01*
X104158978Y-133906996D01*
X104022416Y-133935277D01*
X103881658Y-133964426D01*
X103610657Y-134060393D01*
X103355188Y-134192250D01*
X103351687Y-134194711D01*
X103351683Y-134194713D01*
X103295839Y-134233961D01*
X103119977Y-134357559D01*
X102909378Y-134553260D01*
X102727287Y-134775732D01*
X102577073Y-135020858D01*
X102575347Y-135024791D01*
X102575346Y-135024792D01*
X102485303Y-135229917D01*
X102461517Y-135284102D01*
X102382756Y-135560594D01*
X102342249Y-135845216D01*
X102342227Y-135849505D01*
X102342226Y-135849512D01*
X102340765Y-136128417D01*
X102340743Y-136132703D01*
X76981600Y-136132703D01*
X76988555Y-136000000D01*
X76968349Y-135614441D01*
X76959821Y-135560594D01*
X76918707Y-135301016D01*
X76907951Y-135233106D01*
X76808024Y-134860174D01*
X76805055Y-134852438D01*
X76670847Y-134502815D01*
X76669663Y-134499730D01*
X76666046Y-134492632D01*
X76495881Y-134158664D01*
X76495877Y-134158657D01*
X76494382Y-134155723D01*
X76486254Y-134143206D01*
X76285906Y-133834697D01*
X76284104Y-133831922D01*
X76041131Y-133531875D01*
X75768125Y-133258869D01*
X75468078Y-133015896D01*
X75144278Y-132805618D01*
X75141344Y-132804123D01*
X75141337Y-132804119D01*
X74803210Y-132631835D01*
X74800270Y-132630337D01*
X74439826Y-132491976D01*
X74066894Y-132392049D01*
X73864357Y-132359970D01*
X73688807Y-132332165D01*
X73688799Y-132332164D01*
X73685559Y-132331651D01*
X73300000Y-132311445D01*
X72914441Y-132331651D01*
X72911201Y-132332164D01*
X72911193Y-132332165D01*
X72735643Y-132359970D01*
X72533106Y-132392049D01*
X72160174Y-132491976D01*
X71799730Y-132630337D01*
X71796790Y-132631835D01*
X71458664Y-132804119D01*
X71458657Y-132804123D01*
X71455723Y-132805618D01*
X71131922Y-133015896D01*
X70831875Y-133258869D01*
X70558869Y-133531875D01*
X70315896Y-133831922D01*
X70314094Y-133834697D01*
X70113747Y-134143206D01*
X70105618Y-134155723D01*
X70104123Y-134158657D01*
X70104119Y-134158664D01*
X69933954Y-134492632D01*
X69930337Y-134499730D01*
X69929153Y-134502815D01*
X69794946Y-134852438D01*
X69791976Y-134860174D01*
X69692049Y-135233106D01*
X69681293Y-135301016D01*
X69640180Y-135560594D01*
X69631651Y-135614441D01*
X69611445Y-136000000D01*
X65063554Y-136000000D01*
X65050264Y-135695608D01*
X65044026Y-135552727D01*
X65044025Y-135552716D01*
X65043905Y-135549967D01*
X64985108Y-135103358D01*
X64887610Y-134663574D01*
X64857011Y-134566525D01*
X64752983Y-134236589D01*
X64752980Y-134236581D01*
X64752154Y-134233961D01*
X64585624Y-133831922D01*
X64580822Y-133820330D01*
X64580821Y-133820329D01*
X64579769Y-133817788D01*
X64371769Y-133418223D01*
X64129736Y-133038307D01*
X63855512Y-132680931D01*
X63551184Y-132348816D01*
X63219069Y-132044488D01*
X63216907Y-132042829D01*
X63216901Y-132042824D01*
X63095462Y-131949641D01*
X62861693Y-131770264D01*
X62481777Y-131528231D01*
X62082212Y-131320231D01*
X61666039Y-131147846D01*
X61663419Y-131147020D01*
X61663411Y-131147017D01*
X61239056Y-131013219D01*
X61239051Y-131013218D01*
X61236426Y-131012390D01*
X60796642Y-130914892D01*
X60793923Y-130914534D01*
X60793917Y-130914533D01*
X60626326Y-130892470D01*
X60350033Y-130856095D01*
X60347284Y-130855975D01*
X60347273Y-130855974D01*
X60017131Y-130841560D01*
X60017127Y-130841560D01*
X60015755Y-130841500D01*
X59784245Y-130841500D01*
X59782873Y-130841560D01*
X59782869Y-130841560D01*
X59452727Y-130855974D01*
X59452716Y-130855975D01*
X59449967Y-130856095D01*
X59173674Y-130892470D01*
X59006083Y-130914533D01*
X59006077Y-130914534D01*
X59003358Y-130914892D01*
X58563574Y-131012390D01*
X58560949Y-131013218D01*
X58560944Y-131013219D01*
X58136589Y-131147017D01*
X58136581Y-131147020D01*
X58133961Y-131147846D01*
X57717788Y-131320231D01*
X57318223Y-131528231D01*
X56938307Y-131770264D01*
X56704538Y-131949641D01*
X56583099Y-132042824D01*
X56583093Y-132042829D01*
X56580931Y-132044488D01*
X56248816Y-132348816D01*
X55944488Y-132680931D01*
X55670264Y-133038307D01*
X55428231Y-133418223D01*
X55220231Y-133817788D01*
X55219179Y-133820329D01*
X55219178Y-133820330D01*
X55214376Y-133831922D01*
X55047846Y-134233961D01*
X55047020Y-134236581D01*
X55047017Y-134236589D01*
X54942989Y-134566525D01*
X54912390Y-134663574D01*
X54814892Y-135103358D01*
X54756095Y-135549967D01*
X54755975Y-135552716D01*
X54755974Y-135552727D01*
X54749736Y-135695608D01*
X54736446Y-136000000D01*
X47763561Y-136000000D01*
X47743340Y-135691493D01*
X47683025Y-135388265D01*
X47647667Y-135284102D01*
X47584975Y-135099419D01*
X47583646Y-135095504D01*
X47581823Y-135091808D01*
X47581820Y-135091800D01*
X47465353Y-134855630D01*
X47446904Y-134818220D01*
X47444609Y-134814785D01*
X47277432Y-134564586D01*
X47277428Y-134564581D01*
X47275139Y-134561155D01*
X47272425Y-134558061D01*
X47272421Y-134558055D01*
X47073999Y-134331799D01*
X47071290Y-134328710D01*
X47068201Y-134326001D01*
X46841945Y-134127579D01*
X46841939Y-134127575D01*
X46838845Y-134124861D01*
X46835419Y-134122572D01*
X46835414Y-134122568D01*
X46607811Y-133970489D01*
X46581781Y-133953096D01*
X46578082Y-133951272D01*
X46578077Y-133951269D01*
X46435565Y-133880990D01*
X46304496Y-133816354D01*
X46300581Y-133815025D01*
X46015642Y-133718301D01*
X46015639Y-133718300D01*
X46011735Y-133716975D01*
X45785039Y-133671883D01*
X45712550Y-133657464D01*
X45712547Y-133657464D01*
X45708507Y-133656660D01*
X45704396Y-133656391D01*
X45704392Y-133656390D01*
X45404119Y-133636709D01*
X45400000Y-133636439D01*
X45395881Y-133636709D01*
X45095608Y-133656390D01*
X45095604Y-133656391D01*
X45091493Y-133656660D01*
X45087453Y-133657464D01*
X45087450Y-133657464D01*
X45014961Y-133671883D01*
X44788265Y-133716975D01*
X44784361Y-133718300D01*
X44784358Y-133718301D01*
X44499419Y-133815025D01*
X44495504Y-133816354D01*
X44491808Y-133818177D01*
X44491800Y-133818180D01*
X44305289Y-133910158D01*
X44218220Y-133953096D01*
X44214787Y-133955390D01*
X44214785Y-133955391D01*
X43964586Y-134122568D01*
X43964581Y-134122572D01*
X43961155Y-134124861D01*
X43958061Y-134127575D01*
X43958055Y-134127579D01*
X43731799Y-134326001D01*
X43728710Y-134328710D01*
X43726001Y-134331799D01*
X43527579Y-134558055D01*
X43527575Y-134558061D01*
X43524861Y-134561155D01*
X43522572Y-134564581D01*
X43522568Y-134564586D01*
X43355391Y-134814785D01*
X43353096Y-134818220D01*
X43334647Y-134855630D01*
X43218180Y-135091800D01*
X43218177Y-135091808D01*
X43216354Y-135095504D01*
X43215025Y-135099419D01*
X43152334Y-135284102D01*
X43116975Y-135388265D01*
X43056660Y-135691493D01*
X43036439Y-136000000D01*
X40508000Y-136000000D01*
X40508000Y-121607655D01*
X58139858Y-121607655D01*
X58175104Y-121866638D01*
X58176412Y-121871124D01*
X58176412Y-121871126D01*
X58196098Y-121938664D01*
X58248243Y-122117567D01*
X58357668Y-122354928D01*
X58360231Y-122358837D01*
X58498410Y-122569596D01*
X58498414Y-122569601D01*
X58500976Y-122573509D01*
X58675018Y-122768506D01*
X58875970Y-122935637D01*
X58879973Y-122938066D01*
X59095422Y-123068804D01*
X59095426Y-123068806D01*
X59099419Y-123071229D01*
X59340455Y-123172303D01*
X59593783Y-123236641D01*
X59598434Y-123237109D01*
X59598438Y-123237110D01*
X59791308Y-123256531D01*
X59810867Y-123258500D01*
X59966354Y-123258500D01*
X59968679Y-123258327D01*
X59968685Y-123258327D01*
X60156000Y-123244407D01*
X60156004Y-123244406D01*
X60160652Y-123244061D01*
X60165200Y-123243032D01*
X60165206Y-123243031D01*
X60351601Y-123200853D01*
X60415577Y-123186377D01*
X60451769Y-123172303D01*
X60654824Y-123093340D01*
X60654827Y-123093339D01*
X60659177Y-123091647D01*
X60886098Y-122961951D01*
X61091357Y-122800138D01*
X61270443Y-122609763D01*
X61419424Y-122395009D01*
X61535025Y-122160593D01*
X61614707Y-121911665D01*
X61656721Y-121653693D01*
X61660142Y-121392345D01*
X61624896Y-121133362D01*
X61610473Y-121083877D01*
X61553068Y-120886932D01*
X61551757Y-120882433D01*
X61442332Y-120645072D01*
X61409519Y-120595024D01*
X61301590Y-120430404D01*
X61301586Y-120430399D01*
X61299024Y-120426491D01*
X61124982Y-120231494D01*
X60924030Y-120064363D01*
X60876844Y-120035730D01*
X60704578Y-119931196D01*
X60704574Y-119931194D01*
X60700581Y-119928771D01*
X60459545Y-119827697D01*
X60206217Y-119763359D01*
X60201566Y-119762891D01*
X60201562Y-119762890D01*
X59992271Y-119741816D01*
X59989133Y-119741500D01*
X59833646Y-119741500D01*
X59831321Y-119741673D01*
X59831315Y-119741673D01*
X59644000Y-119755593D01*
X59643996Y-119755594D01*
X59639348Y-119755939D01*
X59634800Y-119756968D01*
X59634794Y-119756969D01*
X59448399Y-119799147D01*
X59384423Y-119813623D01*
X59380071Y-119815315D01*
X59380069Y-119815316D01*
X59145176Y-119906660D01*
X59145173Y-119906661D01*
X59140823Y-119908353D01*
X58913902Y-120038049D01*
X58708643Y-120199862D01*
X58529557Y-120390237D01*
X58380576Y-120604991D01*
X58264975Y-120839407D01*
X58185293Y-121088335D01*
X58143279Y-121346307D01*
X58139858Y-121607655D01*
X40508000Y-121607655D01*
X40508000Y-114000000D01*
X43036439Y-114000000D01*
X43056660Y-114308507D01*
X43116975Y-114611735D01*
X43118300Y-114615639D01*
X43118301Y-114615642D01*
X43153668Y-114719830D01*
X43216354Y-114904496D01*
X43218177Y-114908192D01*
X43218180Y-114908200D01*
X43254969Y-114982799D01*
X43353096Y-115181780D01*
X43355390Y-115185213D01*
X43355391Y-115185215D01*
X43521273Y-115433475D01*
X43524861Y-115438845D01*
X43527575Y-115441939D01*
X43527579Y-115441945D01*
X43693312Y-115630926D01*
X43728710Y-115671290D01*
X43731799Y-115673999D01*
X43958055Y-115872421D01*
X43958061Y-115872425D01*
X43961155Y-115875139D01*
X43964581Y-115877428D01*
X43964586Y-115877432D01*
X44158318Y-116006879D01*
X44218219Y-116046904D01*
X44221918Y-116048728D01*
X44221923Y-116048731D01*
X44342732Y-116108307D01*
X44495504Y-116183646D01*
X44499409Y-116184971D01*
X44499410Y-116184972D01*
X44784358Y-116281699D01*
X44784361Y-116281700D01*
X44788265Y-116283025D01*
X45014961Y-116328117D01*
X45087450Y-116342536D01*
X45087453Y-116342536D01*
X45091493Y-116343340D01*
X45095604Y-116343609D01*
X45095608Y-116343610D01*
X45395881Y-116363291D01*
X45400000Y-116363561D01*
X45404119Y-116363291D01*
X45704392Y-116343610D01*
X45704396Y-116343609D01*
X45708507Y-116343340D01*
X45712547Y-116342536D01*
X45712550Y-116342536D01*
X45785039Y-116328117D01*
X46011735Y-116283025D01*
X46015639Y-116281700D01*
X46015642Y-116281699D01*
X46300590Y-116184972D01*
X46300591Y-116184971D01*
X46304496Y-116183646D01*
X46457268Y-116108307D01*
X46578077Y-116048731D01*
X46578082Y-116048728D01*
X46581781Y-116046904D01*
X46641682Y-116006879D01*
X46835414Y-115877432D01*
X46835419Y-115877428D01*
X46838845Y-115875139D01*
X46841939Y-115872425D01*
X46841945Y-115872421D01*
X47068201Y-115673999D01*
X47071290Y-115671290D01*
X47106688Y-115630926D01*
X47272421Y-115441945D01*
X47272425Y-115441939D01*
X47275139Y-115438845D01*
X47278728Y-115433475D01*
X47444609Y-115185215D01*
X47444610Y-115185213D01*
X47446904Y-115181780D01*
X47545031Y-114982799D01*
X47581820Y-114908200D01*
X47581823Y-114908192D01*
X47583646Y-114904496D01*
X47646332Y-114719830D01*
X47681699Y-114615642D01*
X47681700Y-114615639D01*
X47683025Y-114611735D01*
X47743340Y-114308507D01*
X47763561Y-114000000D01*
X54736446Y-114000000D01*
X54736566Y-114002748D01*
X54755446Y-114435159D01*
X54756095Y-114450033D01*
X54814892Y-114896642D01*
X54912390Y-115336426D01*
X54913218Y-115339051D01*
X54913219Y-115339056D01*
X55017972Y-115671290D01*
X55047846Y-115766039D01*
X55164941Y-116048731D01*
X55215444Y-116170654D01*
X55220231Y-116182212D01*
X55428231Y-116581777D01*
X55670264Y-116961693D01*
X55944488Y-117319069D01*
X56248816Y-117651184D01*
X56580931Y-117955512D01*
X56583093Y-117957171D01*
X56583099Y-117957176D01*
X56704538Y-118050359D01*
X56938307Y-118229736D01*
X57318223Y-118471769D01*
X57717788Y-118679769D01*
X58133961Y-118852154D01*
X58136581Y-118852980D01*
X58136589Y-118852983D01*
X58560944Y-118986781D01*
X58560949Y-118986782D01*
X58563574Y-118987610D01*
X59003358Y-119085108D01*
X59006077Y-119085466D01*
X59006083Y-119085467D01*
X59173674Y-119107530D01*
X59449967Y-119143905D01*
X59452716Y-119144025D01*
X59452727Y-119144026D01*
X59782869Y-119158440D01*
X59782873Y-119158440D01*
X59784245Y-119158500D01*
X60015755Y-119158500D01*
X60017127Y-119158440D01*
X60017131Y-119158440D01*
X60347273Y-119144026D01*
X60347284Y-119144025D01*
X60350033Y-119143905D01*
X60626326Y-119107530D01*
X60793917Y-119085467D01*
X60793923Y-119085466D01*
X60796642Y-119085108D01*
X61236426Y-118987610D01*
X61239051Y-118986782D01*
X61239056Y-118986781D01*
X61663411Y-118852983D01*
X61663419Y-118852980D01*
X61666039Y-118852154D01*
X62082212Y-118679769D01*
X62481777Y-118471769D01*
X62861693Y-118229736D01*
X63095462Y-118050359D01*
X63216901Y-117957176D01*
X63216907Y-117957171D01*
X63219069Y-117955512D01*
X63551184Y-117651184D01*
X63855512Y-117319069D01*
X64129736Y-116961693D01*
X64371769Y-116581777D01*
X64579769Y-116182212D01*
X64584557Y-116170654D01*
X64635059Y-116048731D01*
X64752154Y-115766039D01*
X64782029Y-115671290D01*
X64886781Y-115339056D01*
X64886782Y-115339051D01*
X64887610Y-115336426D01*
X64985108Y-114896642D01*
X65043905Y-114450033D01*
X65044555Y-114435159D01*
X65063434Y-114002748D01*
X65063554Y-114000000D01*
X69611445Y-114000000D01*
X69631651Y-114385559D01*
X69632164Y-114388799D01*
X69632165Y-114388807D01*
X69659970Y-114564357D01*
X69692049Y-114766894D01*
X69791976Y-115139826D01*
X69793161Y-115142914D01*
X69793162Y-115142916D01*
X69818724Y-115209508D01*
X69930337Y-115500270D01*
X69931835Y-115503210D01*
X70088008Y-115809715D01*
X70105618Y-115844277D01*
X70107414Y-115847043D01*
X70107416Y-115847046D01*
X70113747Y-115856795D01*
X70315896Y-116168078D01*
X70558869Y-116468125D01*
X70831875Y-116741131D01*
X71131922Y-116984104D01*
X71455722Y-117194382D01*
X71458656Y-117195877D01*
X71458663Y-117195881D01*
X71696179Y-117316901D01*
X71799730Y-117369663D01*
X72160174Y-117508024D01*
X72533106Y-117607951D01*
X72687710Y-117632438D01*
X72911193Y-117667835D01*
X72911201Y-117667836D01*
X72914441Y-117668349D01*
X73300000Y-117688555D01*
X73685559Y-117668349D01*
X73688799Y-117667836D01*
X73688807Y-117667835D01*
X73912290Y-117632438D01*
X74066894Y-117607951D01*
X74439826Y-117508024D01*
X74800270Y-117369663D01*
X74903821Y-117316901D01*
X75141337Y-117195881D01*
X75141344Y-117195877D01*
X75144278Y-117194382D01*
X75468078Y-116984104D01*
X75768125Y-116741131D01*
X76041131Y-116468125D01*
X76284104Y-116168078D01*
X76486253Y-115856795D01*
X76492584Y-115847046D01*
X76492586Y-115847043D01*
X76494382Y-115844277D01*
X76511993Y-115809715D01*
X76668165Y-115503210D01*
X76669663Y-115500270D01*
X76781276Y-115209508D01*
X76806838Y-115142916D01*
X76806839Y-115142914D01*
X76808024Y-115139826D01*
X76907951Y-114766894D01*
X76940030Y-114564357D01*
X76967835Y-114388807D01*
X76967836Y-114388799D01*
X76968349Y-114385559D01*
X76981600Y-114132703D01*
X102340743Y-114132703D01*
X102378268Y-114417734D01*
X102454129Y-114695036D01*
X102455813Y-114698984D01*
X102538960Y-114893917D01*
X102566923Y-114959476D01*
X102578693Y-114979142D01*
X102681340Y-115150652D01*
X102714561Y-115206161D01*
X102894313Y-115430528D01*
X103102851Y-115628423D01*
X103336317Y-115796186D01*
X103340112Y-115798195D01*
X103340113Y-115798196D01*
X103361869Y-115809715D01*
X103590392Y-115930712D01*
X103860373Y-116029511D01*
X104141264Y-116090755D01*
X104169841Y-116093004D01*
X104364282Y-116108307D01*
X104364291Y-116108307D01*
X104366739Y-116108500D01*
X104522271Y-116108500D01*
X104524407Y-116108354D01*
X104524418Y-116108354D01*
X104732548Y-116094165D01*
X104732554Y-116094164D01*
X104736825Y-116093873D01*
X104741020Y-116093004D01*
X104741022Y-116093004D01*
X104877584Y-116064723D01*
X105018342Y-116035574D01*
X105289343Y-115939607D01*
X105544812Y-115807750D01*
X105548313Y-115805289D01*
X105548317Y-115805287D01*
X105743370Y-115668201D01*
X105780023Y-115642441D01*
X105990622Y-115446740D01*
X106172713Y-115224268D01*
X106322927Y-114979142D01*
X106357963Y-114899329D01*
X106436757Y-114719830D01*
X106438483Y-114715898D01*
X106517244Y-114439406D01*
X106557751Y-114154784D01*
X106557845Y-114136951D01*
X106558562Y-114000000D01*
X111286411Y-114000000D01*
X111306754Y-114388176D01*
X111307267Y-114391416D01*
X111307268Y-114391424D01*
X111314195Y-114435159D01*
X111367562Y-114772099D01*
X111468167Y-115147562D01*
X111607468Y-115510453D01*
X111608966Y-115513393D01*
X111776062Y-115841336D01*
X111783938Y-115856794D01*
X111785734Y-115859560D01*
X111785736Y-115859563D01*
X111947302Y-116108354D01*
X111995643Y-116182793D01*
X112240266Y-116484876D01*
X112515124Y-116759734D01*
X112817207Y-117004357D01*
X112819970Y-117006152D01*
X112819971Y-117006152D01*
X113109822Y-117194382D01*
X113143206Y-117216062D01*
X113146140Y-117217557D01*
X113146147Y-117217561D01*
X113441724Y-117368165D01*
X113489547Y-117392532D01*
X113710548Y-117477366D01*
X113790414Y-117508024D01*
X113852438Y-117531833D01*
X114227901Y-117632438D01*
X114431793Y-117664732D01*
X114608576Y-117692732D01*
X114608584Y-117692733D01*
X114611824Y-117693246D01*
X114902894Y-117708500D01*
X115097106Y-117708500D01*
X115388176Y-117693246D01*
X115391416Y-117692733D01*
X115391424Y-117692732D01*
X115568207Y-117664732D01*
X115772099Y-117632438D01*
X116147562Y-117531833D01*
X116209587Y-117508024D01*
X116289452Y-117477366D01*
X116510453Y-117392532D01*
X116558276Y-117368165D01*
X116853853Y-117217561D01*
X116853860Y-117217557D01*
X116856794Y-117216062D01*
X116890179Y-117194382D01*
X117180029Y-117006152D01*
X117180030Y-117006152D01*
X117182793Y-117004357D01*
X117484876Y-116759734D01*
X117759734Y-116484876D01*
X118004357Y-116182793D01*
X118062102Y-116093873D01*
X118214264Y-115859564D01*
X118214266Y-115859561D01*
X118216062Y-115856795D01*
X118217562Y-115853853D01*
X118391034Y-115513393D01*
X118392532Y-115510453D01*
X118531833Y-115147562D01*
X118632438Y-114772099D01*
X118685805Y-114435159D01*
X118692732Y-114391424D01*
X118692733Y-114391416D01*
X118693246Y-114388176D01*
X118713589Y-114000000D01*
X133636439Y-114000000D01*
X133656660Y-114308507D01*
X133716975Y-114611735D01*
X133718300Y-114615639D01*
X133718301Y-114615642D01*
X133753668Y-114719830D01*
X133816354Y-114904496D01*
X133818177Y-114908192D01*
X133818180Y-114908200D01*
X133854969Y-114982799D01*
X133953096Y-115181780D01*
X133955390Y-115185213D01*
X133955391Y-115185215D01*
X134121273Y-115433475D01*
X134124861Y-115438845D01*
X134127575Y-115441939D01*
X134127579Y-115441945D01*
X134293312Y-115630926D01*
X134328710Y-115671290D01*
X134331799Y-115673999D01*
X134558055Y-115872421D01*
X134558061Y-115872425D01*
X134561155Y-115875139D01*
X134564581Y-115877428D01*
X134564586Y-115877432D01*
X134758318Y-116006879D01*
X134818219Y-116046904D01*
X134821918Y-116048728D01*
X134821923Y-116048731D01*
X134942732Y-116108307D01*
X135095504Y-116183646D01*
X135099409Y-116184971D01*
X135099410Y-116184972D01*
X135384358Y-116281699D01*
X135384361Y-116281700D01*
X135388265Y-116283025D01*
X135614961Y-116328117D01*
X135687450Y-116342536D01*
X135687453Y-116342536D01*
X135691493Y-116343340D01*
X135695604Y-116343609D01*
X135695608Y-116343610D01*
X135995881Y-116363291D01*
X136000000Y-116363561D01*
X136004119Y-116363291D01*
X136304392Y-116343610D01*
X136304396Y-116343609D01*
X136308507Y-116343340D01*
X136312547Y-116342536D01*
X136312550Y-116342536D01*
X136385039Y-116328117D01*
X136611735Y-116283025D01*
X136615639Y-116281700D01*
X136615642Y-116281699D01*
X136900590Y-116184972D01*
X136900591Y-116184971D01*
X136904496Y-116183646D01*
X137057268Y-116108307D01*
X137178077Y-116048731D01*
X137178082Y-116048728D01*
X137181781Y-116046904D01*
X137241682Y-116006879D01*
X137435414Y-115877432D01*
X137435419Y-115877428D01*
X137438845Y-115875139D01*
X137441939Y-115872425D01*
X137441945Y-115872421D01*
X137668201Y-115673999D01*
X137671290Y-115671290D01*
X137706688Y-115630926D01*
X137872421Y-115441945D01*
X137872425Y-115441939D01*
X137875139Y-115438845D01*
X137878728Y-115433475D01*
X138044609Y-115185215D01*
X138044610Y-115185213D01*
X138046904Y-115181780D01*
X138145031Y-114982799D01*
X138181820Y-114908200D01*
X138181823Y-114908192D01*
X138183646Y-114904496D01*
X138246332Y-114719830D01*
X138281699Y-114615642D01*
X138281700Y-114615639D01*
X138283025Y-114611735D01*
X138343340Y-114308507D01*
X138363561Y-114000000D01*
X138343340Y-113691493D01*
X138283025Y-113388265D01*
X138247667Y-113284102D01*
X138184975Y-113099419D01*
X138183646Y-113095504D01*
X138181823Y-113091808D01*
X138181820Y-113091800D01*
X138065353Y-112855630D01*
X138046904Y-112818220D01*
X138044609Y-112814785D01*
X137877432Y-112564586D01*
X137877428Y-112564581D01*
X137875139Y-112561155D01*
X137872425Y-112558061D01*
X137872421Y-112558055D01*
X137673999Y-112331799D01*
X137671290Y-112328710D01*
X137668201Y-112326001D01*
X137441945Y-112127579D01*
X137441939Y-112127575D01*
X137438845Y-112124861D01*
X137435419Y-112122572D01*
X137435414Y-112122568D01*
X137207811Y-111970489D01*
X137181781Y-111953096D01*
X137178082Y-111951272D01*
X137178077Y-111951269D01*
X137035565Y-111880990D01*
X136904496Y-111816354D01*
X136900581Y-111815025D01*
X136615642Y-111718301D01*
X136615639Y-111718300D01*
X136611735Y-111716975D01*
X136385039Y-111671883D01*
X136312550Y-111657464D01*
X136312547Y-111657464D01*
X136308507Y-111656660D01*
X136304396Y-111656391D01*
X136304392Y-111656390D01*
X136004119Y-111636709D01*
X136000000Y-111636439D01*
X135995881Y-111636709D01*
X135695608Y-111656390D01*
X135695604Y-111656391D01*
X135691493Y-111656660D01*
X135687453Y-111657464D01*
X135687450Y-111657464D01*
X135614961Y-111671883D01*
X135388265Y-111716975D01*
X135384361Y-111718300D01*
X135384358Y-111718301D01*
X135099419Y-111815025D01*
X135095504Y-111816354D01*
X135091808Y-111818177D01*
X135091800Y-111818180D01*
X134905289Y-111910158D01*
X134818220Y-111953096D01*
X134814787Y-111955390D01*
X134814785Y-111955391D01*
X134564586Y-112122568D01*
X134564581Y-112122572D01*
X134561155Y-112124861D01*
X134558061Y-112127575D01*
X134558055Y-112127579D01*
X134331799Y-112326001D01*
X134328710Y-112328710D01*
X134326001Y-112331799D01*
X134127579Y-112558055D01*
X134127575Y-112558061D01*
X134124861Y-112561155D01*
X134122572Y-112564581D01*
X134122568Y-112564586D01*
X133955391Y-112814785D01*
X133953096Y-112818220D01*
X133934647Y-112855630D01*
X133818180Y-113091800D01*
X133818177Y-113091808D01*
X133816354Y-113095504D01*
X133815025Y-113099419D01*
X133752334Y-113284102D01*
X133716975Y-113388265D01*
X133656660Y-113691493D01*
X133636439Y-114000000D01*
X118713589Y-114000000D01*
X118693246Y-113611824D01*
X118688565Y-113582266D01*
X118657837Y-113388265D01*
X118632438Y-113227901D01*
X118531833Y-112852438D01*
X118392532Y-112489547D01*
X118262304Y-112233961D01*
X118217561Y-112146147D01*
X118217557Y-112146140D01*
X118216062Y-112143206D01*
X118168060Y-112069288D01*
X118006152Y-111819971D01*
X118006152Y-111819970D01*
X118004357Y-111817207D01*
X117759734Y-111515124D01*
X117484876Y-111240266D01*
X117182793Y-110995643D01*
X116892947Y-110807416D01*
X116859563Y-110785736D01*
X116859560Y-110785734D01*
X116856794Y-110783938D01*
X116853860Y-110782443D01*
X116853853Y-110782439D01*
X116513393Y-110608966D01*
X116510453Y-110607468D01*
X116212676Y-110493162D01*
X116150652Y-110469353D01*
X116150650Y-110469352D01*
X116147562Y-110468167D01*
X115772099Y-110367562D01*
X115568207Y-110335268D01*
X115391424Y-110307268D01*
X115391416Y-110307267D01*
X115388176Y-110306754D01*
X115097106Y-110291500D01*
X114902894Y-110291500D01*
X114611824Y-110306754D01*
X114608584Y-110307267D01*
X114608576Y-110307268D01*
X114431793Y-110335268D01*
X114227901Y-110367562D01*
X113852438Y-110468167D01*
X113849350Y-110469352D01*
X113849348Y-110469353D01*
X113787324Y-110493162D01*
X113489547Y-110607468D01*
X113486607Y-110608966D01*
X113146147Y-110782439D01*
X113146140Y-110782443D01*
X113143206Y-110783938D01*
X113140440Y-110785734D01*
X113140437Y-110785736D01*
X113107053Y-110807416D01*
X112817207Y-110995643D01*
X112515124Y-111240266D01*
X112240266Y-111515124D01*
X111995643Y-111817207D01*
X111993848Y-111819970D01*
X111993848Y-111819971D01*
X111785736Y-112140436D01*
X111785734Y-112140439D01*
X111783938Y-112143205D01*
X111782443Y-112146139D01*
X111782439Y-112146146D01*
X111608966Y-112486607D01*
X111607468Y-112489547D01*
X111468167Y-112852438D01*
X111367562Y-113227901D01*
X111342163Y-113388265D01*
X111311436Y-113582266D01*
X111306754Y-113611824D01*
X111286411Y-114000000D01*
X106558562Y-114000000D01*
X106559235Y-113871583D01*
X106559235Y-113871576D01*
X106559257Y-113867297D01*
X106521732Y-113582266D01*
X106445871Y-113304964D01*
X106411640Y-113224712D01*
X106334763Y-113044476D01*
X106334761Y-113044472D01*
X106333077Y-113040524D01*
X106225140Y-112860174D01*
X106187643Y-112797521D01*
X106187640Y-112797517D01*
X106185439Y-112793839D01*
X106005687Y-112569472D01*
X105797149Y-112371577D01*
X105563683Y-112203814D01*
X105541843Y-112192250D01*
X105518654Y-112179972D01*
X105309608Y-112069288D01*
X105039627Y-111970489D01*
X104758736Y-111909245D01*
X104727685Y-111906801D01*
X104535718Y-111891693D01*
X104535709Y-111891693D01*
X104533261Y-111891500D01*
X104377729Y-111891500D01*
X104375593Y-111891646D01*
X104375582Y-111891646D01*
X104167452Y-111905835D01*
X104167446Y-111905836D01*
X104163175Y-111906127D01*
X104158980Y-111906996D01*
X104158978Y-111906996D01*
X104022417Y-111935276D01*
X103881658Y-111964426D01*
X103610657Y-112060393D01*
X103355188Y-112192250D01*
X103351687Y-112194711D01*
X103351683Y-112194713D01*
X103295839Y-112233961D01*
X103119977Y-112357559D01*
X102909378Y-112553260D01*
X102727287Y-112775732D01*
X102577073Y-113020858D01*
X102575347Y-113024791D01*
X102575346Y-113024792D01*
X102485303Y-113229917D01*
X102461517Y-113284102D01*
X102382756Y-113560594D01*
X102342249Y-113845216D01*
X102342227Y-113849505D01*
X102342226Y-113849512D01*
X102340765Y-114128417D01*
X102340743Y-114132703D01*
X76981600Y-114132703D01*
X76988555Y-114000000D01*
X76968349Y-113614441D01*
X76959821Y-113560594D01*
X76918707Y-113301016D01*
X76907951Y-113233106D01*
X76808024Y-112860174D01*
X76805055Y-112852438D01*
X76670847Y-112502815D01*
X76669663Y-112499730D01*
X76666046Y-112492632D01*
X76495881Y-112158664D01*
X76495877Y-112158657D01*
X76494382Y-112155723D01*
X76486254Y-112143206D01*
X76285906Y-111834697D01*
X76284104Y-111831922D01*
X76041131Y-111531875D01*
X75768125Y-111258869D01*
X75468078Y-111015896D01*
X75144278Y-110805618D01*
X75141344Y-110804123D01*
X75141337Y-110804119D01*
X74803210Y-110631835D01*
X74800270Y-110630337D01*
X74439826Y-110491976D01*
X74066894Y-110392049D01*
X73864357Y-110359970D01*
X73688807Y-110332165D01*
X73688799Y-110332164D01*
X73685559Y-110331651D01*
X73300000Y-110311445D01*
X72914441Y-110331651D01*
X72911201Y-110332164D01*
X72911193Y-110332165D01*
X72735643Y-110359970D01*
X72533106Y-110392049D01*
X72160174Y-110491976D01*
X71799730Y-110630337D01*
X71796790Y-110631835D01*
X71458664Y-110804119D01*
X71458657Y-110804123D01*
X71455723Y-110805618D01*
X71131922Y-111015896D01*
X70831875Y-111258869D01*
X70558869Y-111531875D01*
X70315896Y-111831922D01*
X70314094Y-111834697D01*
X70113747Y-112143206D01*
X70105618Y-112155723D01*
X70104123Y-112158657D01*
X70104119Y-112158664D01*
X69933954Y-112492632D01*
X69930337Y-112499730D01*
X69929153Y-112502815D01*
X69794946Y-112852438D01*
X69791976Y-112860174D01*
X69692049Y-113233106D01*
X69681293Y-113301016D01*
X69640180Y-113560594D01*
X69631651Y-113614441D01*
X69611445Y-114000000D01*
X65063554Y-114000000D01*
X65050264Y-113695608D01*
X65044026Y-113552727D01*
X65044025Y-113552716D01*
X65043905Y-113549967D01*
X64985108Y-113103358D01*
X64887610Y-112663574D01*
X64857011Y-112566525D01*
X64752983Y-112236589D01*
X64752980Y-112236581D01*
X64752154Y-112233961D01*
X64585624Y-111831922D01*
X64580822Y-111820330D01*
X64580821Y-111820329D01*
X64579769Y-111817788D01*
X64371769Y-111418223D01*
X64129736Y-111038307D01*
X63855512Y-110680931D01*
X63551184Y-110348816D01*
X63219069Y-110044488D01*
X63216907Y-110042829D01*
X63216901Y-110042824D01*
X63095462Y-109949641D01*
X62861693Y-109770264D01*
X62481777Y-109528231D01*
X62082212Y-109320231D01*
X61666039Y-109147846D01*
X61663419Y-109147020D01*
X61663411Y-109147017D01*
X61239056Y-109013219D01*
X61239051Y-109013218D01*
X61236426Y-109012390D01*
X60796642Y-108914892D01*
X60793923Y-108914534D01*
X60793917Y-108914533D01*
X60626326Y-108892470D01*
X60350033Y-108856095D01*
X60347284Y-108855975D01*
X60347273Y-108855974D01*
X60017131Y-108841560D01*
X60017127Y-108841560D01*
X60015755Y-108841500D01*
X59784245Y-108841500D01*
X59782873Y-108841560D01*
X59782869Y-108841560D01*
X59452727Y-108855974D01*
X59452716Y-108855975D01*
X59449967Y-108856095D01*
X59173674Y-108892470D01*
X59006083Y-108914533D01*
X59006077Y-108914534D01*
X59003358Y-108914892D01*
X58563574Y-109012390D01*
X58560949Y-109013218D01*
X58560944Y-109013219D01*
X58136589Y-109147017D01*
X58136581Y-109147020D01*
X58133961Y-109147846D01*
X57717788Y-109320231D01*
X57318223Y-109528231D01*
X56938307Y-109770264D01*
X56704538Y-109949641D01*
X56583099Y-110042824D01*
X56583093Y-110042829D01*
X56580931Y-110044488D01*
X56248816Y-110348816D01*
X55944488Y-110680931D01*
X55670264Y-111038307D01*
X55428231Y-111418223D01*
X55220231Y-111817788D01*
X55219179Y-111820329D01*
X55219178Y-111820330D01*
X55214376Y-111831922D01*
X55047846Y-112233961D01*
X55047020Y-112236581D01*
X55047017Y-112236589D01*
X54942989Y-112566525D01*
X54912390Y-112663574D01*
X54814892Y-113103358D01*
X54756095Y-113549967D01*
X54755975Y-113552716D01*
X54755974Y-113552727D01*
X54749736Y-113695608D01*
X54736446Y-114000000D01*
X47763561Y-114000000D01*
X47743340Y-113691493D01*
X47683025Y-113388265D01*
X47647667Y-113284102D01*
X47584975Y-113099419D01*
X47583646Y-113095504D01*
X47581823Y-113091808D01*
X47581820Y-113091800D01*
X47465353Y-112855630D01*
X47446904Y-112818220D01*
X47444609Y-112814785D01*
X47277432Y-112564586D01*
X47277428Y-112564581D01*
X47275139Y-112561155D01*
X47272425Y-112558061D01*
X47272421Y-112558055D01*
X47073999Y-112331799D01*
X47071290Y-112328710D01*
X47068201Y-112326001D01*
X46841945Y-112127579D01*
X46841939Y-112127575D01*
X46838845Y-112124861D01*
X46835419Y-112122572D01*
X46835414Y-112122568D01*
X46607811Y-111970489D01*
X46581781Y-111953096D01*
X46578082Y-111951272D01*
X46578077Y-111951269D01*
X46435565Y-111880990D01*
X46304496Y-111816354D01*
X46300581Y-111815025D01*
X46015642Y-111718301D01*
X46015639Y-111718300D01*
X46011735Y-111716975D01*
X45785039Y-111671883D01*
X45712550Y-111657464D01*
X45712547Y-111657464D01*
X45708507Y-111656660D01*
X45704396Y-111656391D01*
X45704392Y-111656390D01*
X45404119Y-111636709D01*
X45400000Y-111636439D01*
X45395881Y-111636709D01*
X45095608Y-111656390D01*
X45095604Y-111656391D01*
X45091493Y-111656660D01*
X45087453Y-111657464D01*
X45087450Y-111657464D01*
X45014961Y-111671883D01*
X44788265Y-111716975D01*
X44784361Y-111718300D01*
X44784358Y-111718301D01*
X44499419Y-111815025D01*
X44495504Y-111816354D01*
X44491808Y-111818177D01*
X44491800Y-111818180D01*
X44305289Y-111910158D01*
X44218220Y-111953096D01*
X44214787Y-111955390D01*
X44214785Y-111955391D01*
X43964586Y-112122568D01*
X43964581Y-112122572D01*
X43961155Y-112124861D01*
X43958061Y-112127575D01*
X43958055Y-112127579D01*
X43731799Y-112326001D01*
X43728710Y-112328710D01*
X43726001Y-112331799D01*
X43527579Y-112558055D01*
X43527575Y-112558061D01*
X43524861Y-112561155D01*
X43522572Y-112564581D01*
X43522568Y-112564586D01*
X43355391Y-112814785D01*
X43353096Y-112818220D01*
X43334647Y-112855630D01*
X43218180Y-113091800D01*
X43218177Y-113091808D01*
X43216354Y-113095504D01*
X43215025Y-113099419D01*
X43152334Y-113284102D01*
X43116975Y-113388265D01*
X43056660Y-113691493D01*
X43036439Y-114000000D01*
X40508000Y-114000000D01*
X40508000Y-99607655D01*
X58139858Y-99607655D01*
X58175104Y-99866638D01*
X58176412Y-99871124D01*
X58176412Y-99871126D01*
X58196098Y-99938664D01*
X58248243Y-100117567D01*
X58357668Y-100354928D01*
X58360231Y-100358837D01*
X58498410Y-100569596D01*
X58498414Y-100569601D01*
X58500976Y-100573509D01*
X58675018Y-100768506D01*
X58875970Y-100935637D01*
X58879973Y-100938066D01*
X59095422Y-101068804D01*
X59095426Y-101068806D01*
X59099419Y-101071229D01*
X59340455Y-101172303D01*
X59593783Y-101236641D01*
X59598434Y-101237109D01*
X59598438Y-101237110D01*
X59791308Y-101256531D01*
X59810867Y-101258500D01*
X59966354Y-101258500D01*
X59968679Y-101258327D01*
X59968685Y-101258327D01*
X60156000Y-101244407D01*
X60156004Y-101244406D01*
X60160652Y-101244061D01*
X60165200Y-101243032D01*
X60165206Y-101243031D01*
X60351601Y-101200853D01*
X60415577Y-101186377D01*
X60451769Y-101172303D01*
X60654824Y-101093340D01*
X60654827Y-101093339D01*
X60659177Y-101091647D01*
X60886098Y-100961951D01*
X61091357Y-100800138D01*
X61270443Y-100609763D01*
X61419424Y-100395009D01*
X61535025Y-100160593D01*
X61614707Y-99911665D01*
X61656721Y-99653693D01*
X61660142Y-99392345D01*
X61624896Y-99133362D01*
X61610473Y-99083877D01*
X61553068Y-98886932D01*
X61551757Y-98882433D01*
X61442332Y-98645072D01*
X61409519Y-98595024D01*
X61301590Y-98430404D01*
X61301586Y-98430399D01*
X61299024Y-98426491D01*
X61124982Y-98231494D01*
X60924030Y-98064363D01*
X60876844Y-98035730D01*
X60704578Y-97931196D01*
X60704574Y-97931194D01*
X60700581Y-97928771D01*
X60459545Y-97827697D01*
X60206217Y-97763359D01*
X60201566Y-97762891D01*
X60201562Y-97762890D01*
X59992271Y-97741816D01*
X59989133Y-97741500D01*
X59833646Y-97741500D01*
X59831321Y-97741673D01*
X59831315Y-97741673D01*
X59644000Y-97755593D01*
X59643996Y-97755594D01*
X59639348Y-97755939D01*
X59634800Y-97756968D01*
X59634794Y-97756969D01*
X59448399Y-97799147D01*
X59384423Y-97813623D01*
X59380071Y-97815315D01*
X59380069Y-97815316D01*
X59145176Y-97906660D01*
X59145173Y-97906661D01*
X59140823Y-97908353D01*
X58913902Y-98038049D01*
X58708643Y-98199862D01*
X58529557Y-98390237D01*
X58380576Y-98604991D01*
X58264975Y-98839407D01*
X58185293Y-99088335D01*
X58143279Y-99346307D01*
X58139858Y-99607655D01*
X40508000Y-99607655D01*
X40508000Y-92000000D01*
X43036439Y-92000000D01*
X43056660Y-92308507D01*
X43116975Y-92611735D01*
X43118300Y-92615639D01*
X43118301Y-92615642D01*
X43153668Y-92719830D01*
X43216354Y-92904496D01*
X43218177Y-92908192D01*
X43218180Y-92908200D01*
X43254969Y-92982799D01*
X43353096Y-93181780D01*
X43355390Y-93185213D01*
X43355391Y-93185215D01*
X43521273Y-93433475D01*
X43524861Y-93438845D01*
X43527575Y-93441939D01*
X43527579Y-93441945D01*
X43693312Y-93630926D01*
X43728710Y-93671290D01*
X43731799Y-93673999D01*
X43958055Y-93872421D01*
X43958061Y-93872425D01*
X43961155Y-93875139D01*
X43964581Y-93877428D01*
X43964586Y-93877432D01*
X44158318Y-94006879D01*
X44218219Y-94046904D01*
X44221918Y-94048728D01*
X44221923Y-94048731D01*
X44342732Y-94108307D01*
X44495504Y-94183646D01*
X44499409Y-94184971D01*
X44499410Y-94184972D01*
X44784358Y-94281699D01*
X44784361Y-94281700D01*
X44788265Y-94283025D01*
X45014961Y-94328117D01*
X45087450Y-94342536D01*
X45087453Y-94342536D01*
X45091493Y-94343340D01*
X45095604Y-94343609D01*
X45095608Y-94343610D01*
X45395881Y-94363291D01*
X45400000Y-94363561D01*
X45404119Y-94363291D01*
X45704392Y-94343610D01*
X45704396Y-94343609D01*
X45708507Y-94343340D01*
X45712547Y-94342536D01*
X45712550Y-94342536D01*
X45785039Y-94328117D01*
X46011735Y-94283025D01*
X46015639Y-94281700D01*
X46015642Y-94281699D01*
X46300590Y-94184972D01*
X46300591Y-94184971D01*
X46304496Y-94183646D01*
X46457268Y-94108307D01*
X46578077Y-94048731D01*
X46578082Y-94048728D01*
X46581781Y-94046904D01*
X46641682Y-94006879D01*
X46835414Y-93877432D01*
X46835419Y-93877428D01*
X46838845Y-93875139D01*
X46841939Y-93872425D01*
X46841945Y-93872421D01*
X47068201Y-93673999D01*
X47071290Y-93671290D01*
X47106688Y-93630926D01*
X47272421Y-93441945D01*
X47272425Y-93441939D01*
X47275139Y-93438845D01*
X47278728Y-93433475D01*
X47444609Y-93185215D01*
X47444610Y-93185213D01*
X47446904Y-93181780D01*
X47545031Y-92982799D01*
X47581820Y-92908200D01*
X47581823Y-92908192D01*
X47583646Y-92904496D01*
X47646332Y-92719830D01*
X47681699Y-92615642D01*
X47681700Y-92615639D01*
X47683025Y-92611735D01*
X47743340Y-92308507D01*
X47763561Y-92000000D01*
X54736446Y-92000000D01*
X54736566Y-92002748D01*
X54755446Y-92435159D01*
X54756095Y-92450033D01*
X54814892Y-92896642D01*
X54912390Y-93336426D01*
X54913218Y-93339051D01*
X54913219Y-93339056D01*
X55017972Y-93671290D01*
X55047846Y-93766039D01*
X55164941Y-94048731D01*
X55215444Y-94170654D01*
X55220231Y-94182212D01*
X55428231Y-94581777D01*
X55670264Y-94961693D01*
X55944488Y-95319069D01*
X56248816Y-95651184D01*
X56580931Y-95955512D01*
X56583093Y-95957171D01*
X56583099Y-95957176D01*
X56704538Y-96050359D01*
X56938307Y-96229736D01*
X57318223Y-96471769D01*
X57717788Y-96679769D01*
X58133961Y-96852154D01*
X58136581Y-96852980D01*
X58136589Y-96852983D01*
X58560944Y-96986781D01*
X58560949Y-96986782D01*
X58563574Y-96987610D01*
X59003358Y-97085108D01*
X59006077Y-97085466D01*
X59006083Y-97085467D01*
X59173674Y-97107530D01*
X59449967Y-97143905D01*
X59452716Y-97144025D01*
X59452727Y-97144026D01*
X59782869Y-97158440D01*
X59782873Y-97158440D01*
X59784245Y-97158500D01*
X60015755Y-97158500D01*
X60017127Y-97158440D01*
X60017131Y-97158440D01*
X60347273Y-97144026D01*
X60347284Y-97144025D01*
X60350033Y-97143905D01*
X60626326Y-97107530D01*
X60793917Y-97085467D01*
X60793923Y-97085466D01*
X60796642Y-97085108D01*
X61236426Y-96987610D01*
X61239051Y-96986782D01*
X61239056Y-96986781D01*
X61663411Y-96852983D01*
X61663419Y-96852980D01*
X61666039Y-96852154D01*
X62082212Y-96679769D01*
X62481777Y-96471769D01*
X62861693Y-96229736D01*
X63095462Y-96050359D01*
X63216901Y-95957176D01*
X63216907Y-95957171D01*
X63219069Y-95955512D01*
X63551184Y-95651184D01*
X63855512Y-95319069D01*
X64129736Y-94961693D01*
X64371769Y-94581777D01*
X64579769Y-94182212D01*
X64584557Y-94170654D01*
X64635059Y-94048731D01*
X64752154Y-93766039D01*
X64782029Y-93671290D01*
X64886781Y-93339056D01*
X64886782Y-93339051D01*
X64887610Y-93336426D01*
X64985108Y-92896642D01*
X65043905Y-92450033D01*
X65044555Y-92435159D01*
X65063434Y-92002748D01*
X65063554Y-92000000D01*
X69611445Y-92000000D01*
X69631651Y-92385559D01*
X69632164Y-92388799D01*
X69632165Y-92388807D01*
X69659970Y-92564357D01*
X69692049Y-92766894D01*
X69791976Y-93139826D01*
X69793161Y-93142914D01*
X69793162Y-93142916D01*
X69818724Y-93209508D01*
X69930337Y-93500270D01*
X69931835Y-93503210D01*
X70088008Y-93809715D01*
X70105618Y-93844277D01*
X70107414Y-93847043D01*
X70107416Y-93847046D01*
X70113747Y-93856795D01*
X70315896Y-94168078D01*
X70558869Y-94468125D01*
X70831875Y-94741131D01*
X71131922Y-94984104D01*
X71455722Y-95194382D01*
X71458656Y-95195877D01*
X71458663Y-95195881D01*
X71696179Y-95316901D01*
X71799730Y-95369663D01*
X72160174Y-95508024D01*
X72533106Y-95607951D01*
X72687710Y-95632438D01*
X72911193Y-95667835D01*
X72911201Y-95667836D01*
X72914441Y-95668349D01*
X73300000Y-95688555D01*
X73685559Y-95668349D01*
X73688799Y-95667836D01*
X73688807Y-95667835D01*
X73912290Y-95632438D01*
X74066894Y-95607951D01*
X74439826Y-95508024D01*
X74800270Y-95369663D01*
X74903821Y-95316901D01*
X75141337Y-95195881D01*
X75141344Y-95195877D01*
X75144278Y-95194382D01*
X75468078Y-94984104D01*
X75768125Y-94741131D01*
X76041131Y-94468125D01*
X76284104Y-94168078D01*
X76486253Y-93856795D01*
X76492584Y-93847046D01*
X76492586Y-93847043D01*
X76494382Y-93844277D01*
X76511993Y-93809715D01*
X76668165Y-93503210D01*
X76669663Y-93500270D01*
X76781276Y-93209508D01*
X76806838Y-93142916D01*
X76806839Y-93142914D01*
X76808024Y-93139826D01*
X76907951Y-92766894D01*
X76940030Y-92564357D01*
X76967835Y-92388807D01*
X76967836Y-92388799D01*
X76968349Y-92385559D01*
X76981600Y-92132703D01*
X102340743Y-92132703D01*
X102378268Y-92417734D01*
X102454129Y-92695036D01*
X102455813Y-92698984D01*
X102538960Y-92893917D01*
X102566923Y-92959476D01*
X102578693Y-92979142D01*
X102681340Y-93150652D01*
X102714561Y-93206161D01*
X102894313Y-93430528D01*
X103102851Y-93628423D01*
X103336317Y-93796186D01*
X103340112Y-93798195D01*
X103340113Y-93798196D01*
X103361869Y-93809715D01*
X103590392Y-93930712D01*
X103860373Y-94029511D01*
X104141264Y-94090755D01*
X104169841Y-94093004D01*
X104364282Y-94108307D01*
X104364291Y-94108307D01*
X104366739Y-94108500D01*
X104522271Y-94108500D01*
X104524407Y-94108354D01*
X104524418Y-94108354D01*
X104732548Y-94094165D01*
X104732554Y-94094164D01*
X104736825Y-94093873D01*
X104741020Y-94093004D01*
X104741022Y-94093004D01*
X104877584Y-94064723D01*
X105018342Y-94035574D01*
X105289343Y-93939607D01*
X105544812Y-93807750D01*
X105548313Y-93805289D01*
X105548317Y-93805287D01*
X105743370Y-93668201D01*
X105780023Y-93642441D01*
X105990622Y-93446740D01*
X106172713Y-93224268D01*
X106322927Y-92979142D01*
X106357963Y-92899329D01*
X106436757Y-92719830D01*
X106438483Y-92715898D01*
X106517244Y-92439406D01*
X106557751Y-92154784D01*
X106557845Y-92136951D01*
X106558562Y-92000000D01*
X111286411Y-92000000D01*
X111306754Y-92388176D01*
X111307267Y-92391416D01*
X111307268Y-92391424D01*
X111314195Y-92435159D01*
X111367562Y-92772099D01*
X111468167Y-93147562D01*
X111607468Y-93510453D01*
X111608966Y-93513393D01*
X111776062Y-93841336D01*
X111783938Y-93856794D01*
X111785734Y-93859560D01*
X111785736Y-93859563D01*
X111947302Y-94108354D01*
X111995643Y-94182793D01*
X112240266Y-94484876D01*
X112515124Y-94759734D01*
X112817207Y-95004357D01*
X112819970Y-95006152D01*
X112819971Y-95006152D01*
X113109822Y-95194382D01*
X113143206Y-95216062D01*
X113146140Y-95217557D01*
X113146147Y-95217561D01*
X113441724Y-95368165D01*
X113489547Y-95392532D01*
X113710547Y-95477366D01*
X113790414Y-95508024D01*
X113852438Y-95531833D01*
X114227901Y-95632438D01*
X114431793Y-95664732D01*
X114608576Y-95692732D01*
X114608584Y-95692733D01*
X114611824Y-95693246D01*
X114902894Y-95708500D01*
X115097106Y-95708500D01*
X115388176Y-95693246D01*
X115391416Y-95692733D01*
X115391424Y-95692732D01*
X115568207Y-95664732D01*
X115772099Y-95632438D01*
X116147562Y-95531833D01*
X116209587Y-95508024D01*
X116289452Y-95477366D01*
X116510453Y-95392532D01*
X116558276Y-95368165D01*
X116853853Y-95217561D01*
X116853860Y-95217557D01*
X116856794Y-95216062D01*
X116890179Y-95194382D01*
X117180029Y-95006152D01*
X117180030Y-95006152D01*
X117182793Y-95004357D01*
X117484876Y-94759734D01*
X117759734Y-94484876D01*
X118004357Y-94182793D01*
X118062102Y-94093873D01*
X118214264Y-93859564D01*
X118214266Y-93859561D01*
X118216062Y-93856795D01*
X118217562Y-93853853D01*
X118391034Y-93513393D01*
X118392532Y-93510453D01*
X118531833Y-93147562D01*
X118632438Y-92772099D01*
X118685805Y-92435159D01*
X118692732Y-92391424D01*
X118692733Y-92391416D01*
X118693246Y-92388176D01*
X118713589Y-92000000D01*
X133636439Y-92000000D01*
X133656660Y-92308507D01*
X133716975Y-92611735D01*
X133718300Y-92615639D01*
X133718301Y-92615642D01*
X133753668Y-92719830D01*
X133816354Y-92904496D01*
X133818177Y-92908192D01*
X133818180Y-92908200D01*
X133854969Y-92982799D01*
X133953096Y-93181780D01*
X133955390Y-93185213D01*
X133955391Y-93185215D01*
X134121273Y-93433475D01*
X134124861Y-93438845D01*
X134127575Y-93441939D01*
X134127579Y-93441945D01*
X134293312Y-93630926D01*
X134328710Y-93671290D01*
X134331799Y-93673999D01*
X134558055Y-93872421D01*
X134558061Y-93872425D01*
X134561155Y-93875139D01*
X134564581Y-93877428D01*
X134564586Y-93877432D01*
X134758318Y-94006879D01*
X134818219Y-94046904D01*
X134821918Y-94048728D01*
X134821923Y-94048731D01*
X134942732Y-94108307D01*
X135095504Y-94183646D01*
X135099409Y-94184971D01*
X135099410Y-94184972D01*
X135384358Y-94281699D01*
X135384361Y-94281700D01*
X135388265Y-94283025D01*
X135614961Y-94328117D01*
X135687450Y-94342536D01*
X135687453Y-94342536D01*
X135691493Y-94343340D01*
X135695604Y-94343609D01*
X135695608Y-94343610D01*
X135995881Y-94363291D01*
X136000000Y-94363561D01*
X136004119Y-94363291D01*
X136304392Y-94343610D01*
X136304396Y-94343609D01*
X136308507Y-94343340D01*
X136312547Y-94342536D01*
X136312550Y-94342536D01*
X136385039Y-94328117D01*
X136611735Y-94283025D01*
X136615639Y-94281700D01*
X136615642Y-94281699D01*
X136900590Y-94184972D01*
X136900591Y-94184971D01*
X136904496Y-94183646D01*
X137057268Y-94108307D01*
X137178077Y-94048731D01*
X137178082Y-94048728D01*
X137181781Y-94046904D01*
X137241682Y-94006879D01*
X137435414Y-93877432D01*
X137435419Y-93877428D01*
X137438845Y-93875139D01*
X137441939Y-93872425D01*
X137441945Y-93872421D01*
X137668201Y-93673999D01*
X137671290Y-93671290D01*
X137706688Y-93630926D01*
X137872421Y-93441945D01*
X137872425Y-93441939D01*
X137875139Y-93438845D01*
X137878728Y-93433475D01*
X138044609Y-93185215D01*
X138044610Y-93185213D01*
X138046904Y-93181780D01*
X138145031Y-92982799D01*
X138181820Y-92908200D01*
X138181823Y-92908192D01*
X138183646Y-92904496D01*
X138246332Y-92719830D01*
X138281699Y-92615642D01*
X138281700Y-92615639D01*
X138283025Y-92611735D01*
X138343340Y-92308507D01*
X138363561Y-92000000D01*
X138343340Y-91691493D01*
X138283025Y-91388265D01*
X138247667Y-91284102D01*
X138184975Y-91099419D01*
X138183646Y-91095504D01*
X138181823Y-91091808D01*
X138181820Y-91091800D01*
X138065353Y-90855630D01*
X138046904Y-90818220D01*
X138044609Y-90814785D01*
X137877432Y-90564586D01*
X137877428Y-90564581D01*
X137875139Y-90561155D01*
X137872425Y-90558061D01*
X137872421Y-90558055D01*
X137673999Y-90331799D01*
X137671290Y-90328710D01*
X137668201Y-90326001D01*
X137441945Y-90127579D01*
X137441939Y-90127575D01*
X137438845Y-90124861D01*
X137435419Y-90122572D01*
X137435414Y-90122568D01*
X137207811Y-89970489D01*
X137181781Y-89953096D01*
X137178082Y-89951272D01*
X137178077Y-89951269D01*
X137035565Y-89880990D01*
X136904496Y-89816354D01*
X136900581Y-89815025D01*
X136615642Y-89718301D01*
X136615639Y-89718300D01*
X136611735Y-89716975D01*
X136385039Y-89671883D01*
X136312550Y-89657464D01*
X136312547Y-89657464D01*
X136308507Y-89656660D01*
X136304396Y-89656391D01*
X136304392Y-89656390D01*
X136004119Y-89636709D01*
X136000000Y-89636439D01*
X135995881Y-89636709D01*
X135695608Y-89656390D01*
X135695604Y-89656391D01*
X135691493Y-89656660D01*
X135687453Y-89657464D01*
X135687450Y-89657464D01*
X135614961Y-89671883D01*
X135388265Y-89716975D01*
X135384361Y-89718300D01*
X135384358Y-89718301D01*
X135099419Y-89815025D01*
X135095504Y-89816354D01*
X135091808Y-89818177D01*
X135091800Y-89818180D01*
X134905289Y-89910158D01*
X134818220Y-89953096D01*
X134814787Y-89955390D01*
X134814785Y-89955391D01*
X134564586Y-90122568D01*
X134564581Y-90122572D01*
X134561155Y-90124861D01*
X134558061Y-90127575D01*
X134558055Y-90127579D01*
X134331799Y-90326001D01*
X134328710Y-90328710D01*
X134326001Y-90331799D01*
X134127579Y-90558055D01*
X134127575Y-90558061D01*
X134124861Y-90561155D01*
X134122572Y-90564581D01*
X134122568Y-90564586D01*
X133955391Y-90814785D01*
X133953096Y-90818220D01*
X133934647Y-90855630D01*
X133818180Y-91091800D01*
X133818177Y-91091808D01*
X133816354Y-91095504D01*
X133815025Y-91099419D01*
X133752334Y-91284102D01*
X133716975Y-91388265D01*
X133656660Y-91691493D01*
X133636439Y-92000000D01*
X118713589Y-92000000D01*
X118693246Y-91611824D01*
X118688565Y-91582266D01*
X118657837Y-91388265D01*
X118632438Y-91227901D01*
X118531833Y-90852438D01*
X118392532Y-90489547D01*
X118262304Y-90233961D01*
X118217561Y-90146147D01*
X118217557Y-90146140D01*
X118216062Y-90143206D01*
X118168060Y-90069288D01*
X118006152Y-89819971D01*
X118006152Y-89819970D01*
X118004357Y-89817207D01*
X117759734Y-89515124D01*
X117484876Y-89240266D01*
X117182793Y-88995643D01*
X116892947Y-88807416D01*
X116859563Y-88785736D01*
X116859560Y-88785734D01*
X116856794Y-88783938D01*
X116853860Y-88782443D01*
X116853853Y-88782439D01*
X116513393Y-88608966D01*
X116510453Y-88607468D01*
X116212676Y-88493162D01*
X116150652Y-88469353D01*
X116150650Y-88469352D01*
X116147562Y-88468167D01*
X115772099Y-88367562D01*
X115568207Y-88335268D01*
X115391424Y-88307268D01*
X115391416Y-88307267D01*
X115388176Y-88306754D01*
X115097106Y-88291500D01*
X114902894Y-88291500D01*
X114611824Y-88306754D01*
X114608584Y-88307267D01*
X114608576Y-88307268D01*
X114431793Y-88335268D01*
X114227901Y-88367562D01*
X113852438Y-88468167D01*
X113849350Y-88469352D01*
X113849348Y-88469353D01*
X113787324Y-88493162D01*
X113489547Y-88607468D01*
X113486607Y-88608966D01*
X113146147Y-88782439D01*
X113146140Y-88782443D01*
X113143206Y-88783938D01*
X113140440Y-88785734D01*
X113140437Y-88785736D01*
X113107053Y-88807416D01*
X112817207Y-88995643D01*
X112515124Y-89240266D01*
X112240266Y-89515124D01*
X111995643Y-89817207D01*
X111993848Y-89819970D01*
X111993848Y-89819971D01*
X111785736Y-90140436D01*
X111785734Y-90140439D01*
X111783938Y-90143205D01*
X111782443Y-90146139D01*
X111782439Y-90146146D01*
X111608966Y-90486607D01*
X111607468Y-90489547D01*
X111468167Y-90852438D01*
X111367562Y-91227901D01*
X111342163Y-91388265D01*
X111311436Y-91582266D01*
X111306754Y-91611824D01*
X111286411Y-92000000D01*
X106558562Y-92000000D01*
X106559235Y-91871583D01*
X106559235Y-91871576D01*
X106559257Y-91867297D01*
X106521732Y-91582266D01*
X106445871Y-91304964D01*
X106411640Y-91224712D01*
X106334763Y-91044476D01*
X106334761Y-91044472D01*
X106333077Y-91040524D01*
X106225140Y-90860174D01*
X106187643Y-90797521D01*
X106187640Y-90797517D01*
X106185439Y-90793839D01*
X106005687Y-90569472D01*
X105797149Y-90371577D01*
X105563683Y-90203814D01*
X105541843Y-90192250D01*
X105518654Y-90179972D01*
X105309608Y-90069288D01*
X105039627Y-89970489D01*
X104758736Y-89909245D01*
X104727685Y-89906801D01*
X104535718Y-89891693D01*
X104535709Y-89891693D01*
X104533261Y-89891500D01*
X104377729Y-89891500D01*
X104375593Y-89891646D01*
X104375582Y-89891646D01*
X104167452Y-89905835D01*
X104167446Y-89905836D01*
X104163175Y-89906127D01*
X104158980Y-89906996D01*
X104158978Y-89906996D01*
X104022416Y-89935277D01*
X103881658Y-89964426D01*
X103610657Y-90060393D01*
X103355188Y-90192250D01*
X103351687Y-90194711D01*
X103351683Y-90194713D01*
X103295839Y-90233961D01*
X103119977Y-90357559D01*
X102909378Y-90553260D01*
X102727287Y-90775732D01*
X102577073Y-91020858D01*
X102575347Y-91024791D01*
X102575346Y-91024792D01*
X102485303Y-91229917D01*
X102461517Y-91284102D01*
X102382756Y-91560594D01*
X102342249Y-91845216D01*
X102342227Y-91849505D01*
X102342226Y-91849512D01*
X102340765Y-92128417D01*
X102340743Y-92132703D01*
X76981600Y-92132703D01*
X76988555Y-92000000D01*
X76968349Y-91614441D01*
X76959821Y-91560594D01*
X76918707Y-91301016D01*
X76907951Y-91233106D01*
X76808024Y-90860174D01*
X76805055Y-90852438D01*
X76670847Y-90502815D01*
X76669663Y-90499730D01*
X76666046Y-90492632D01*
X76495881Y-90158664D01*
X76495877Y-90158657D01*
X76494382Y-90155723D01*
X76486254Y-90143206D01*
X76285906Y-89834697D01*
X76284104Y-89831922D01*
X76041131Y-89531875D01*
X75768125Y-89258869D01*
X75468078Y-89015896D01*
X75144278Y-88805618D01*
X75141344Y-88804123D01*
X75141337Y-88804119D01*
X74803210Y-88631835D01*
X74800270Y-88630337D01*
X74439826Y-88491976D01*
X74066894Y-88392049D01*
X73864357Y-88359970D01*
X73688807Y-88332165D01*
X73688799Y-88332164D01*
X73685559Y-88331651D01*
X73300000Y-88311445D01*
X72914441Y-88331651D01*
X72911201Y-88332164D01*
X72911193Y-88332165D01*
X72735643Y-88359970D01*
X72533106Y-88392049D01*
X72160174Y-88491976D01*
X71799730Y-88630337D01*
X71796790Y-88631835D01*
X71458664Y-88804119D01*
X71458657Y-88804123D01*
X71455723Y-88805618D01*
X71131922Y-89015896D01*
X70831875Y-89258869D01*
X70558869Y-89531875D01*
X70315896Y-89831922D01*
X70314094Y-89834697D01*
X70113747Y-90143206D01*
X70105618Y-90155723D01*
X70104123Y-90158657D01*
X70104119Y-90158664D01*
X69933954Y-90492632D01*
X69930337Y-90499730D01*
X69929153Y-90502815D01*
X69794946Y-90852438D01*
X69791976Y-90860174D01*
X69692049Y-91233106D01*
X69681293Y-91301016D01*
X69640180Y-91560594D01*
X69631651Y-91614441D01*
X69611445Y-92000000D01*
X65063554Y-92000000D01*
X65050264Y-91695608D01*
X65044026Y-91552727D01*
X65044025Y-91552716D01*
X65043905Y-91549967D01*
X64985108Y-91103358D01*
X64887610Y-90663574D01*
X64857011Y-90566525D01*
X64752983Y-90236589D01*
X64752980Y-90236581D01*
X64752154Y-90233961D01*
X64585624Y-89831922D01*
X64580822Y-89820330D01*
X64580821Y-89820329D01*
X64579769Y-89817788D01*
X64371769Y-89418223D01*
X64129736Y-89038307D01*
X63855512Y-88680931D01*
X63551184Y-88348816D01*
X63219069Y-88044488D01*
X63216907Y-88042829D01*
X63216901Y-88042824D01*
X63095462Y-87949641D01*
X62861693Y-87770264D01*
X62481777Y-87528231D01*
X62082212Y-87320231D01*
X61666039Y-87147846D01*
X61663419Y-87147020D01*
X61663411Y-87147017D01*
X61239056Y-87013219D01*
X61239051Y-87013218D01*
X61236426Y-87012390D01*
X60796642Y-86914892D01*
X60793923Y-86914534D01*
X60793917Y-86914533D01*
X60626326Y-86892470D01*
X60350033Y-86856095D01*
X60347284Y-86855975D01*
X60347273Y-86855974D01*
X60017131Y-86841560D01*
X60017127Y-86841560D01*
X60015755Y-86841500D01*
X59784245Y-86841500D01*
X59782873Y-86841560D01*
X59782869Y-86841560D01*
X59452727Y-86855974D01*
X59452716Y-86855975D01*
X59449967Y-86856095D01*
X59173674Y-86892470D01*
X59006083Y-86914533D01*
X59006077Y-86914534D01*
X59003358Y-86914892D01*
X58563574Y-87012390D01*
X58560949Y-87013218D01*
X58560944Y-87013219D01*
X58136589Y-87147017D01*
X58136581Y-87147020D01*
X58133961Y-87147846D01*
X57717788Y-87320231D01*
X57318223Y-87528231D01*
X56938307Y-87770264D01*
X56704538Y-87949641D01*
X56583099Y-88042824D01*
X56583093Y-88042829D01*
X56580931Y-88044488D01*
X56248816Y-88348816D01*
X55944488Y-88680931D01*
X55670264Y-89038307D01*
X55428231Y-89418223D01*
X55220231Y-89817788D01*
X55219179Y-89820329D01*
X55219178Y-89820330D01*
X55214376Y-89831922D01*
X55047846Y-90233961D01*
X55047020Y-90236581D01*
X55047017Y-90236589D01*
X54942989Y-90566525D01*
X54912390Y-90663574D01*
X54814892Y-91103358D01*
X54756095Y-91549967D01*
X54755975Y-91552716D01*
X54755974Y-91552727D01*
X54749736Y-91695608D01*
X54736446Y-92000000D01*
X47763561Y-92000000D01*
X47743340Y-91691493D01*
X47683025Y-91388265D01*
X47647667Y-91284102D01*
X47584975Y-91099419D01*
X47583646Y-91095504D01*
X47581823Y-91091808D01*
X47581820Y-91091800D01*
X47465353Y-90855630D01*
X47446904Y-90818220D01*
X47444609Y-90814785D01*
X47277432Y-90564586D01*
X47277428Y-90564581D01*
X47275139Y-90561155D01*
X47272425Y-90558061D01*
X47272421Y-90558055D01*
X47073999Y-90331799D01*
X47071290Y-90328710D01*
X47068201Y-90326001D01*
X46841945Y-90127579D01*
X46841939Y-90127575D01*
X46838845Y-90124861D01*
X46835419Y-90122572D01*
X46835414Y-90122568D01*
X46607811Y-89970489D01*
X46581781Y-89953096D01*
X46578082Y-89951272D01*
X46578077Y-89951269D01*
X46435565Y-89880990D01*
X46304496Y-89816354D01*
X46300581Y-89815025D01*
X46015642Y-89718301D01*
X46015639Y-89718300D01*
X46011735Y-89716975D01*
X45785039Y-89671883D01*
X45712550Y-89657464D01*
X45712547Y-89657464D01*
X45708507Y-89656660D01*
X45704396Y-89656391D01*
X45704392Y-89656390D01*
X45404119Y-89636709D01*
X45400000Y-89636439D01*
X45395881Y-89636709D01*
X45095608Y-89656390D01*
X45095604Y-89656391D01*
X45091493Y-89656660D01*
X45087453Y-89657464D01*
X45087450Y-89657464D01*
X45014961Y-89671883D01*
X44788265Y-89716975D01*
X44784361Y-89718300D01*
X44784358Y-89718301D01*
X44499419Y-89815025D01*
X44495504Y-89816354D01*
X44491808Y-89818177D01*
X44491800Y-89818180D01*
X44305289Y-89910158D01*
X44218220Y-89953096D01*
X44214787Y-89955390D01*
X44214785Y-89955391D01*
X43964586Y-90122568D01*
X43964581Y-90122572D01*
X43961155Y-90124861D01*
X43958061Y-90127575D01*
X43958055Y-90127579D01*
X43731799Y-90326001D01*
X43728710Y-90328710D01*
X43726001Y-90331799D01*
X43527579Y-90558055D01*
X43527575Y-90558061D01*
X43524861Y-90561155D01*
X43522572Y-90564581D01*
X43522568Y-90564586D01*
X43355391Y-90814785D01*
X43353096Y-90818220D01*
X43334647Y-90855630D01*
X43218180Y-91091800D01*
X43218177Y-91091808D01*
X43216354Y-91095504D01*
X43215025Y-91099419D01*
X43152334Y-91284102D01*
X43116975Y-91388265D01*
X43056660Y-91691493D01*
X43036439Y-92000000D01*
X40508000Y-92000000D01*
X40508000Y-77607655D01*
X58139858Y-77607655D01*
X58175104Y-77866638D01*
X58176412Y-77871124D01*
X58176412Y-77871126D01*
X58196098Y-77938664D01*
X58248243Y-78117567D01*
X58357668Y-78354928D01*
X58360231Y-78358837D01*
X58498410Y-78569596D01*
X58498414Y-78569601D01*
X58500976Y-78573509D01*
X58675018Y-78768506D01*
X58875970Y-78935637D01*
X58879973Y-78938066D01*
X59095422Y-79068804D01*
X59095426Y-79068806D01*
X59099419Y-79071229D01*
X59340455Y-79172303D01*
X59593783Y-79236641D01*
X59598434Y-79237109D01*
X59598438Y-79237110D01*
X59791308Y-79256531D01*
X59810867Y-79258500D01*
X59966354Y-79258500D01*
X59968679Y-79258327D01*
X59968685Y-79258327D01*
X60156000Y-79244407D01*
X60156004Y-79244406D01*
X60160652Y-79244061D01*
X60165200Y-79243032D01*
X60165206Y-79243031D01*
X60351601Y-79200853D01*
X60415577Y-79186377D01*
X60451769Y-79172303D01*
X60654824Y-79093340D01*
X60654827Y-79093339D01*
X60659177Y-79091647D01*
X60886098Y-78961951D01*
X61091357Y-78800138D01*
X61270443Y-78609763D01*
X61419424Y-78395009D01*
X61535025Y-78160593D01*
X61614707Y-77911665D01*
X61656721Y-77653693D01*
X61660142Y-77392345D01*
X61624896Y-77133362D01*
X61610473Y-77083877D01*
X61553068Y-76886932D01*
X61551757Y-76882433D01*
X61442332Y-76645072D01*
X61409519Y-76595024D01*
X61301590Y-76430404D01*
X61301586Y-76430399D01*
X61299024Y-76426491D01*
X61124982Y-76231494D01*
X60924030Y-76064363D01*
X60876844Y-76035730D01*
X60704578Y-75931196D01*
X60704574Y-75931194D01*
X60700581Y-75928771D01*
X60459545Y-75827697D01*
X60206217Y-75763359D01*
X60201566Y-75762891D01*
X60201562Y-75762890D01*
X59992271Y-75741816D01*
X59989133Y-75741500D01*
X59833646Y-75741500D01*
X59831321Y-75741673D01*
X59831315Y-75741673D01*
X59644000Y-75755593D01*
X59643996Y-75755594D01*
X59639348Y-75755939D01*
X59634800Y-75756968D01*
X59634794Y-75756969D01*
X59448399Y-75799147D01*
X59384423Y-75813623D01*
X59380071Y-75815315D01*
X59380069Y-75815316D01*
X59145176Y-75906660D01*
X59145173Y-75906661D01*
X59140823Y-75908353D01*
X58913902Y-76038049D01*
X58708643Y-76199862D01*
X58529557Y-76390237D01*
X58380576Y-76604991D01*
X58264975Y-76839407D01*
X58185293Y-77088335D01*
X58143279Y-77346307D01*
X58139858Y-77607655D01*
X40508000Y-77607655D01*
X40508000Y-70000000D01*
X43036439Y-70000000D01*
X43056660Y-70308507D01*
X43116975Y-70611735D01*
X43118300Y-70615639D01*
X43118301Y-70615642D01*
X43153668Y-70719830D01*
X43216354Y-70904496D01*
X43218177Y-70908192D01*
X43218180Y-70908200D01*
X43254969Y-70982799D01*
X43353096Y-71181780D01*
X43355390Y-71185213D01*
X43355391Y-71185215D01*
X43521273Y-71433475D01*
X43524861Y-71438845D01*
X43527575Y-71441939D01*
X43527579Y-71441945D01*
X43693312Y-71630926D01*
X43728710Y-71671290D01*
X43731799Y-71673999D01*
X43958055Y-71872421D01*
X43958061Y-71872425D01*
X43961155Y-71875139D01*
X43964581Y-71877428D01*
X43964586Y-71877432D01*
X44158318Y-72006879D01*
X44218219Y-72046904D01*
X44221918Y-72048728D01*
X44221923Y-72048731D01*
X44342732Y-72108307D01*
X44495504Y-72183646D01*
X44499409Y-72184971D01*
X44499410Y-72184972D01*
X44784358Y-72281699D01*
X44784361Y-72281700D01*
X44788265Y-72283025D01*
X45014961Y-72328117D01*
X45087450Y-72342536D01*
X45087453Y-72342536D01*
X45091493Y-72343340D01*
X45095604Y-72343609D01*
X45095608Y-72343610D01*
X45395881Y-72363291D01*
X45400000Y-72363561D01*
X45404119Y-72363291D01*
X45704392Y-72343610D01*
X45704396Y-72343609D01*
X45708507Y-72343340D01*
X45712547Y-72342536D01*
X45712550Y-72342536D01*
X45785039Y-72328117D01*
X46011735Y-72283025D01*
X46015639Y-72281700D01*
X46015642Y-72281699D01*
X46300590Y-72184972D01*
X46300591Y-72184971D01*
X46304496Y-72183646D01*
X46457268Y-72108307D01*
X46578077Y-72048731D01*
X46578082Y-72048728D01*
X46581781Y-72046904D01*
X46641682Y-72006879D01*
X46835414Y-71877432D01*
X46835419Y-71877428D01*
X46838845Y-71875139D01*
X46841939Y-71872425D01*
X46841945Y-71872421D01*
X47068201Y-71673999D01*
X47071290Y-71671290D01*
X47106688Y-71630926D01*
X47272421Y-71441945D01*
X47272425Y-71441939D01*
X47275139Y-71438845D01*
X47278728Y-71433475D01*
X47444609Y-71185215D01*
X47444610Y-71185213D01*
X47446904Y-71181780D01*
X47545031Y-70982799D01*
X47581820Y-70908200D01*
X47581823Y-70908192D01*
X47583646Y-70904496D01*
X47646332Y-70719830D01*
X47681699Y-70615642D01*
X47681700Y-70615639D01*
X47683025Y-70611735D01*
X47743340Y-70308507D01*
X47763561Y-70000000D01*
X54736446Y-70000000D01*
X54736566Y-70002748D01*
X54755446Y-70435159D01*
X54756095Y-70450033D01*
X54814892Y-70896642D01*
X54912390Y-71336426D01*
X54913218Y-71339051D01*
X54913219Y-71339056D01*
X55017972Y-71671290D01*
X55047846Y-71766039D01*
X55164941Y-72048731D01*
X55215444Y-72170654D01*
X55220231Y-72182212D01*
X55428231Y-72581777D01*
X55670264Y-72961693D01*
X55944488Y-73319069D01*
X56248816Y-73651184D01*
X56580931Y-73955512D01*
X56583093Y-73957171D01*
X56583099Y-73957176D01*
X56704538Y-74050359D01*
X56938307Y-74229736D01*
X57318223Y-74471769D01*
X57717788Y-74679769D01*
X58133961Y-74852154D01*
X58136581Y-74852980D01*
X58136589Y-74852983D01*
X58560944Y-74986781D01*
X58560949Y-74986782D01*
X58563574Y-74987610D01*
X59003358Y-75085108D01*
X59006077Y-75085466D01*
X59006083Y-75085467D01*
X59173674Y-75107530D01*
X59449967Y-75143905D01*
X59452716Y-75144025D01*
X59452727Y-75144026D01*
X59782869Y-75158440D01*
X59782873Y-75158440D01*
X59784245Y-75158500D01*
X60015755Y-75158500D01*
X60017127Y-75158440D01*
X60017131Y-75158440D01*
X60347273Y-75144026D01*
X60347284Y-75144025D01*
X60350033Y-75143905D01*
X60626326Y-75107530D01*
X60793917Y-75085467D01*
X60793923Y-75085466D01*
X60796642Y-75085108D01*
X61236426Y-74987610D01*
X61239051Y-74986782D01*
X61239056Y-74986781D01*
X61663411Y-74852983D01*
X61663419Y-74852980D01*
X61666039Y-74852154D01*
X62082212Y-74679769D01*
X62481777Y-74471769D01*
X62861693Y-74229736D01*
X63095462Y-74050359D01*
X63216901Y-73957176D01*
X63216907Y-73957171D01*
X63219069Y-73955512D01*
X63551184Y-73651184D01*
X63855512Y-73319069D01*
X64129736Y-72961693D01*
X64371769Y-72581777D01*
X64579769Y-72182212D01*
X64584557Y-72170654D01*
X64635059Y-72048731D01*
X64752154Y-71766039D01*
X64782029Y-71671290D01*
X64886781Y-71339056D01*
X64886782Y-71339051D01*
X64887610Y-71336426D01*
X64985108Y-70896642D01*
X65043905Y-70450033D01*
X65044555Y-70435159D01*
X65063434Y-70002748D01*
X65063554Y-70000000D01*
X69611445Y-70000000D01*
X69631651Y-70385559D01*
X69632164Y-70388799D01*
X69632165Y-70388807D01*
X69659970Y-70564357D01*
X69692049Y-70766894D01*
X69791976Y-71139826D01*
X69793161Y-71142914D01*
X69793162Y-71142916D01*
X69818724Y-71209508D01*
X69930337Y-71500270D01*
X69931835Y-71503210D01*
X70088008Y-71809715D01*
X70105618Y-71844277D01*
X70107414Y-71847043D01*
X70107416Y-71847046D01*
X70113747Y-71856795D01*
X70315896Y-72168078D01*
X70558869Y-72468125D01*
X70831875Y-72741131D01*
X71131922Y-72984104D01*
X71455722Y-73194382D01*
X71458656Y-73195877D01*
X71458663Y-73195881D01*
X71696179Y-73316901D01*
X71799730Y-73369663D01*
X72160174Y-73508024D01*
X72533106Y-73607951D01*
X72687710Y-73632438D01*
X72911193Y-73667835D01*
X72911201Y-73667836D01*
X72914441Y-73668349D01*
X73300000Y-73688555D01*
X73685559Y-73668349D01*
X73688799Y-73667836D01*
X73688807Y-73667835D01*
X73912290Y-73632438D01*
X74066894Y-73607951D01*
X74439826Y-73508024D01*
X74800270Y-73369663D01*
X74903821Y-73316901D01*
X75141337Y-73195881D01*
X75141344Y-73195877D01*
X75144278Y-73194382D01*
X75468078Y-72984104D01*
X75768125Y-72741131D01*
X76041131Y-72468125D01*
X76284104Y-72168078D01*
X76486253Y-71856795D01*
X76492584Y-71847046D01*
X76492586Y-71847043D01*
X76494382Y-71844277D01*
X76511993Y-71809715D01*
X76668165Y-71503210D01*
X76669663Y-71500270D01*
X76781276Y-71209508D01*
X76806838Y-71142916D01*
X76806839Y-71142914D01*
X76808024Y-71139826D01*
X76907951Y-70766894D01*
X76940030Y-70564357D01*
X76967835Y-70388807D01*
X76967836Y-70388799D01*
X76968349Y-70385559D01*
X76981600Y-70132703D01*
X102340743Y-70132703D01*
X102378268Y-70417734D01*
X102454129Y-70695036D01*
X102455813Y-70698984D01*
X102538960Y-70893917D01*
X102566923Y-70959476D01*
X102578693Y-70979142D01*
X102681340Y-71150652D01*
X102714561Y-71206161D01*
X102894313Y-71430528D01*
X103102851Y-71628423D01*
X103336317Y-71796186D01*
X103340112Y-71798195D01*
X103340113Y-71798196D01*
X103361869Y-71809715D01*
X103590392Y-71930712D01*
X103860373Y-72029511D01*
X104141264Y-72090755D01*
X104169841Y-72093004D01*
X104364282Y-72108307D01*
X104364291Y-72108307D01*
X104366739Y-72108500D01*
X104522271Y-72108500D01*
X104524407Y-72108354D01*
X104524418Y-72108354D01*
X104732548Y-72094165D01*
X104732554Y-72094164D01*
X104736825Y-72093873D01*
X104741020Y-72093004D01*
X104741022Y-72093004D01*
X104877583Y-72064724D01*
X105018342Y-72035574D01*
X105289343Y-71939607D01*
X105544812Y-71807750D01*
X105548313Y-71805289D01*
X105548317Y-71805287D01*
X105743370Y-71668201D01*
X105780023Y-71642441D01*
X105990622Y-71446740D01*
X106172713Y-71224268D01*
X106322927Y-70979142D01*
X106357963Y-70899329D01*
X106436757Y-70719830D01*
X106438483Y-70715898D01*
X106517244Y-70439406D01*
X106557751Y-70154784D01*
X106557845Y-70136951D01*
X106558562Y-70000000D01*
X111286411Y-70000000D01*
X111306754Y-70388176D01*
X111307267Y-70391416D01*
X111307268Y-70391424D01*
X111314195Y-70435159D01*
X111367562Y-70772099D01*
X111468167Y-71147562D01*
X111607468Y-71510453D01*
X111608966Y-71513393D01*
X111776062Y-71841336D01*
X111783938Y-71856794D01*
X111785734Y-71859560D01*
X111785736Y-71859563D01*
X111947302Y-72108354D01*
X111995643Y-72182793D01*
X112240266Y-72484876D01*
X112515124Y-72759734D01*
X112817207Y-73004357D01*
X112819970Y-73006152D01*
X112819971Y-73006152D01*
X113109822Y-73194382D01*
X113143206Y-73216062D01*
X113146140Y-73217557D01*
X113146147Y-73217561D01*
X113441724Y-73368165D01*
X113489547Y-73392532D01*
X113710547Y-73477366D01*
X113790414Y-73508024D01*
X113852438Y-73531833D01*
X114227901Y-73632438D01*
X114431793Y-73664732D01*
X114608576Y-73692732D01*
X114608584Y-73692733D01*
X114611824Y-73693246D01*
X114902894Y-73708500D01*
X115097106Y-73708500D01*
X115388176Y-73693246D01*
X115391416Y-73692733D01*
X115391424Y-73692732D01*
X115568207Y-73664732D01*
X115772099Y-73632438D01*
X116147562Y-73531833D01*
X116209587Y-73508024D01*
X116289453Y-73477366D01*
X116510453Y-73392532D01*
X116558276Y-73368165D01*
X116853853Y-73217561D01*
X116853860Y-73217557D01*
X116856794Y-73216062D01*
X116890179Y-73194382D01*
X117180029Y-73006152D01*
X117180030Y-73006152D01*
X117182793Y-73004357D01*
X117484876Y-72759734D01*
X117759734Y-72484876D01*
X118004357Y-72182793D01*
X118062102Y-72093873D01*
X118214264Y-71859564D01*
X118214266Y-71859561D01*
X118216062Y-71856795D01*
X118217562Y-71853853D01*
X118391034Y-71513393D01*
X118392532Y-71510453D01*
X118531833Y-71147562D01*
X118632438Y-70772099D01*
X118685805Y-70435159D01*
X118692732Y-70391424D01*
X118692733Y-70391416D01*
X118693246Y-70388176D01*
X118713589Y-70000000D01*
X133636439Y-70000000D01*
X133656660Y-70308507D01*
X133716975Y-70611735D01*
X133718300Y-70615639D01*
X133718301Y-70615642D01*
X133753668Y-70719830D01*
X133816354Y-70904496D01*
X133818177Y-70908192D01*
X133818180Y-70908200D01*
X133854969Y-70982799D01*
X133953096Y-71181780D01*
X133955390Y-71185213D01*
X133955391Y-71185215D01*
X134121273Y-71433475D01*
X134124861Y-71438845D01*
X134127575Y-71441939D01*
X134127579Y-71441945D01*
X134293312Y-71630926D01*
X134328710Y-71671290D01*
X134331799Y-71673999D01*
X134558055Y-71872421D01*
X134558061Y-71872425D01*
X134561155Y-71875139D01*
X134564581Y-71877428D01*
X134564586Y-71877432D01*
X134758318Y-72006879D01*
X134818219Y-72046904D01*
X134821918Y-72048728D01*
X134821923Y-72048731D01*
X134942732Y-72108307D01*
X135095504Y-72183646D01*
X135099409Y-72184971D01*
X135099410Y-72184972D01*
X135384358Y-72281699D01*
X135384361Y-72281700D01*
X135388265Y-72283025D01*
X135614961Y-72328117D01*
X135687450Y-72342536D01*
X135687453Y-72342536D01*
X135691493Y-72343340D01*
X135695604Y-72343609D01*
X135695608Y-72343610D01*
X135995881Y-72363291D01*
X136000000Y-72363561D01*
X136004119Y-72363291D01*
X136304392Y-72343610D01*
X136304396Y-72343609D01*
X136308507Y-72343340D01*
X136312547Y-72342536D01*
X136312550Y-72342536D01*
X136385039Y-72328117D01*
X136611735Y-72283025D01*
X136615639Y-72281700D01*
X136615642Y-72281699D01*
X136900590Y-72184972D01*
X136900591Y-72184971D01*
X136904496Y-72183646D01*
X137057268Y-72108307D01*
X137178077Y-72048731D01*
X137178082Y-72048728D01*
X137181781Y-72046904D01*
X137241682Y-72006879D01*
X137435414Y-71877432D01*
X137435419Y-71877428D01*
X137438845Y-71875139D01*
X137441939Y-71872425D01*
X137441945Y-71872421D01*
X137668201Y-71673999D01*
X137671290Y-71671290D01*
X137706688Y-71630926D01*
X137872421Y-71441945D01*
X137872425Y-71441939D01*
X137875139Y-71438845D01*
X137878728Y-71433475D01*
X138044609Y-71185215D01*
X138044610Y-71185213D01*
X138046904Y-71181780D01*
X138145031Y-70982799D01*
X138181820Y-70908200D01*
X138181823Y-70908192D01*
X138183646Y-70904496D01*
X138246332Y-70719830D01*
X138281699Y-70615642D01*
X138281700Y-70615639D01*
X138283025Y-70611735D01*
X138343340Y-70308507D01*
X138363561Y-70000000D01*
X138343340Y-69691493D01*
X138283025Y-69388265D01*
X138247667Y-69284102D01*
X138184975Y-69099419D01*
X138183646Y-69095504D01*
X138181823Y-69091808D01*
X138181820Y-69091800D01*
X138065353Y-68855630D01*
X138046904Y-68818220D01*
X138044609Y-68814785D01*
X137877432Y-68564586D01*
X137877428Y-68564581D01*
X137875139Y-68561155D01*
X137872425Y-68558061D01*
X137872421Y-68558055D01*
X137673999Y-68331799D01*
X137671290Y-68328710D01*
X137668201Y-68326001D01*
X137441945Y-68127579D01*
X137441939Y-68127575D01*
X137438845Y-68124861D01*
X137435419Y-68122572D01*
X137435414Y-68122568D01*
X137207811Y-67970489D01*
X137181781Y-67953096D01*
X137178082Y-67951272D01*
X137178077Y-67951269D01*
X137035565Y-67880990D01*
X136904496Y-67816354D01*
X136900581Y-67815025D01*
X136615642Y-67718301D01*
X136615639Y-67718300D01*
X136611735Y-67716975D01*
X136385039Y-67671883D01*
X136312550Y-67657464D01*
X136312547Y-67657464D01*
X136308507Y-67656660D01*
X136304396Y-67656391D01*
X136304392Y-67656390D01*
X136004119Y-67636709D01*
X136000000Y-67636439D01*
X135995881Y-67636709D01*
X135695608Y-67656390D01*
X135695604Y-67656391D01*
X135691493Y-67656660D01*
X135687453Y-67657464D01*
X135687450Y-67657464D01*
X135614961Y-67671883D01*
X135388265Y-67716975D01*
X135384361Y-67718300D01*
X135384358Y-67718301D01*
X135099419Y-67815025D01*
X135095504Y-67816354D01*
X135091808Y-67818177D01*
X135091800Y-67818180D01*
X134905289Y-67910158D01*
X134818220Y-67953096D01*
X134814787Y-67955390D01*
X134814785Y-67955391D01*
X134564586Y-68122568D01*
X134564581Y-68122572D01*
X134561155Y-68124861D01*
X134558061Y-68127575D01*
X134558055Y-68127579D01*
X134331799Y-68326001D01*
X134328710Y-68328710D01*
X134326001Y-68331799D01*
X134127579Y-68558055D01*
X134127575Y-68558061D01*
X134124861Y-68561155D01*
X134122572Y-68564581D01*
X134122568Y-68564586D01*
X133955391Y-68814785D01*
X133953096Y-68818220D01*
X133934647Y-68855630D01*
X133818180Y-69091800D01*
X133818177Y-69091808D01*
X133816354Y-69095504D01*
X133815025Y-69099419D01*
X133752334Y-69284102D01*
X133716975Y-69388265D01*
X133656660Y-69691493D01*
X133636439Y-70000000D01*
X118713589Y-70000000D01*
X118693246Y-69611824D01*
X118688565Y-69582266D01*
X118657837Y-69388265D01*
X118632438Y-69227901D01*
X118531833Y-68852438D01*
X118392532Y-68489547D01*
X118262304Y-68233961D01*
X118217561Y-68146147D01*
X118217557Y-68146140D01*
X118216062Y-68143206D01*
X118168060Y-68069288D01*
X118006152Y-67819971D01*
X118006152Y-67819970D01*
X118004357Y-67817207D01*
X117759734Y-67515124D01*
X117484876Y-67240266D01*
X117182793Y-66995643D01*
X116892947Y-66807416D01*
X116859563Y-66785736D01*
X116859560Y-66785734D01*
X116856794Y-66783938D01*
X116853860Y-66782443D01*
X116853853Y-66782439D01*
X116513393Y-66608966D01*
X116510453Y-66607468D01*
X116212676Y-66493162D01*
X116150652Y-66469353D01*
X116150650Y-66469352D01*
X116147562Y-66468167D01*
X115772099Y-66367562D01*
X115568207Y-66335268D01*
X115391424Y-66307268D01*
X115391416Y-66307267D01*
X115388176Y-66306754D01*
X115097106Y-66291500D01*
X114902894Y-66291500D01*
X114611824Y-66306754D01*
X114608584Y-66307267D01*
X114608576Y-66307268D01*
X114431793Y-66335268D01*
X114227901Y-66367562D01*
X113852438Y-66468167D01*
X113849350Y-66469352D01*
X113849348Y-66469353D01*
X113787324Y-66493162D01*
X113489547Y-66607468D01*
X113486607Y-66608966D01*
X113146147Y-66782439D01*
X113146140Y-66782443D01*
X113143206Y-66783938D01*
X113140440Y-66785734D01*
X113140437Y-66785736D01*
X113107053Y-66807416D01*
X112817207Y-66995643D01*
X112515124Y-67240266D01*
X112240266Y-67515124D01*
X111995643Y-67817207D01*
X111993848Y-67819970D01*
X111993848Y-67819971D01*
X111785736Y-68140436D01*
X111785734Y-68140439D01*
X111783938Y-68143205D01*
X111782443Y-68146139D01*
X111782439Y-68146146D01*
X111608966Y-68486607D01*
X111607468Y-68489547D01*
X111468167Y-68852438D01*
X111367562Y-69227901D01*
X111342163Y-69388265D01*
X111311436Y-69582266D01*
X111306754Y-69611824D01*
X111286411Y-70000000D01*
X106558562Y-70000000D01*
X106559235Y-69871583D01*
X106559235Y-69871576D01*
X106559257Y-69867297D01*
X106521732Y-69582266D01*
X106445871Y-69304964D01*
X106411640Y-69224712D01*
X106334763Y-69044476D01*
X106334761Y-69044472D01*
X106333077Y-69040524D01*
X106225140Y-68860174D01*
X106187643Y-68797521D01*
X106187640Y-68797517D01*
X106185439Y-68793839D01*
X106005687Y-68569472D01*
X105797149Y-68371577D01*
X105563683Y-68203814D01*
X105541843Y-68192250D01*
X105518654Y-68179972D01*
X105309608Y-68069288D01*
X105039627Y-67970489D01*
X104758736Y-67909245D01*
X104727685Y-67906801D01*
X104535718Y-67891693D01*
X104535709Y-67891693D01*
X104533261Y-67891500D01*
X104377729Y-67891500D01*
X104375593Y-67891646D01*
X104375582Y-67891646D01*
X104167452Y-67905835D01*
X104167446Y-67905836D01*
X104163175Y-67906127D01*
X104158980Y-67906996D01*
X104158978Y-67906996D01*
X104022417Y-67935276D01*
X103881658Y-67964426D01*
X103610657Y-68060393D01*
X103355188Y-68192250D01*
X103351687Y-68194711D01*
X103351683Y-68194713D01*
X103295839Y-68233961D01*
X103119977Y-68357559D01*
X102909378Y-68553260D01*
X102727287Y-68775732D01*
X102577073Y-69020858D01*
X102575347Y-69024791D01*
X102575346Y-69024792D01*
X102485303Y-69229917D01*
X102461517Y-69284102D01*
X102382756Y-69560594D01*
X102342249Y-69845216D01*
X102342227Y-69849505D01*
X102342226Y-69849512D01*
X102340765Y-70128417D01*
X102340743Y-70132703D01*
X76981600Y-70132703D01*
X76988555Y-70000000D01*
X76968349Y-69614441D01*
X76959821Y-69560594D01*
X76918707Y-69301016D01*
X76907951Y-69233106D01*
X76808024Y-68860174D01*
X76805055Y-68852438D01*
X76670847Y-68502815D01*
X76669663Y-68499730D01*
X76666046Y-68492632D01*
X76495881Y-68158664D01*
X76495877Y-68158657D01*
X76494382Y-68155723D01*
X76486254Y-68143206D01*
X76285906Y-67834697D01*
X76284104Y-67831922D01*
X76041131Y-67531875D01*
X75768125Y-67258869D01*
X75468078Y-67015896D01*
X75144278Y-66805618D01*
X75141344Y-66804123D01*
X75141337Y-66804119D01*
X74803210Y-66631835D01*
X74800270Y-66630337D01*
X74439826Y-66491976D01*
X74066894Y-66392049D01*
X73864357Y-66359970D01*
X73688807Y-66332165D01*
X73688799Y-66332164D01*
X73685559Y-66331651D01*
X73300000Y-66311445D01*
X72914441Y-66331651D01*
X72911201Y-66332164D01*
X72911193Y-66332165D01*
X72735643Y-66359970D01*
X72533106Y-66392049D01*
X72160174Y-66491976D01*
X71799730Y-66630337D01*
X71796790Y-66631835D01*
X71458664Y-66804119D01*
X71458657Y-66804123D01*
X71455723Y-66805618D01*
X71131922Y-67015896D01*
X70831875Y-67258869D01*
X70558869Y-67531875D01*
X70315896Y-67831922D01*
X70314094Y-67834697D01*
X70113747Y-68143206D01*
X70105618Y-68155723D01*
X70104123Y-68158657D01*
X70104119Y-68158664D01*
X69933954Y-68492632D01*
X69930337Y-68499730D01*
X69929153Y-68502815D01*
X69794946Y-68852438D01*
X69791976Y-68860174D01*
X69692049Y-69233106D01*
X69681293Y-69301016D01*
X69640180Y-69560594D01*
X69631651Y-69614441D01*
X69611445Y-70000000D01*
X65063554Y-70000000D01*
X65050264Y-69695608D01*
X65044026Y-69552727D01*
X65044025Y-69552716D01*
X65043905Y-69549967D01*
X64985108Y-69103358D01*
X64887610Y-68663574D01*
X64857011Y-68566525D01*
X64752983Y-68236589D01*
X64752980Y-68236581D01*
X64752154Y-68233961D01*
X64585624Y-67831922D01*
X64580822Y-67820330D01*
X64580821Y-67820329D01*
X64579769Y-67817788D01*
X64371769Y-67418223D01*
X64129736Y-67038307D01*
X63855512Y-66680931D01*
X63551184Y-66348816D01*
X63219069Y-66044488D01*
X63216907Y-66042829D01*
X63216901Y-66042824D01*
X63095462Y-65949641D01*
X62861693Y-65770264D01*
X62481777Y-65528231D01*
X62082212Y-65320231D01*
X61666039Y-65147846D01*
X61663419Y-65147020D01*
X61663411Y-65147017D01*
X61239056Y-65013219D01*
X61239051Y-65013218D01*
X61236426Y-65012390D01*
X60796642Y-64914892D01*
X60793923Y-64914534D01*
X60793917Y-64914533D01*
X60626326Y-64892470D01*
X60350033Y-64856095D01*
X60347284Y-64855975D01*
X60347273Y-64855974D01*
X60017131Y-64841560D01*
X60017127Y-64841560D01*
X60015755Y-64841500D01*
X59784245Y-64841500D01*
X59782873Y-64841560D01*
X59782869Y-64841560D01*
X59452727Y-64855974D01*
X59452716Y-64855975D01*
X59449967Y-64856095D01*
X59173674Y-64892470D01*
X59006083Y-64914533D01*
X59006077Y-64914534D01*
X59003358Y-64914892D01*
X58563574Y-65012390D01*
X58560949Y-65013218D01*
X58560944Y-65013219D01*
X58136589Y-65147017D01*
X58136581Y-65147020D01*
X58133961Y-65147846D01*
X57717788Y-65320231D01*
X57318223Y-65528231D01*
X56938307Y-65770264D01*
X56704538Y-65949641D01*
X56583099Y-66042824D01*
X56583093Y-66042829D01*
X56580931Y-66044488D01*
X56248816Y-66348816D01*
X55944488Y-66680931D01*
X55670264Y-67038307D01*
X55428231Y-67418223D01*
X55220231Y-67817788D01*
X55219179Y-67820329D01*
X55219178Y-67820330D01*
X55214376Y-67831922D01*
X55047846Y-68233961D01*
X55047020Y-68236581D01*
X55047017Y-68236589D01*
X54942989Y-68566525D01*
X54912390Y-68663574D01*
X54814892Y-69103358D01*
X54756095Y-69549967D01*
X54755975Y-69552716D01*
X54755974Y-69552727D01*
X54749736Y-69695608D01*
X54736446Y-70000000D01*
X47763561Y-70000000D01*
X47743340Y-69691493D01*
X47683025Y-69388265D01*
X47647667Y-69284102D01*
X47584975Y-69099419D01*
X47583646Y-69095504D01*
X47581823Y-69091808D01*
X47581820Y-69091800D01*
X47465353Y-68855630D01*
X47446904Y-68818220D01*
X47444609Y-68814785D01*
X47277432Y-68564586D01*
X47277428Y-68564581D01*
X47275139Y-68561155D01*
X47272425Y-68558061D01*
X47272421Y-68558055D01*
X47073999Y-68331799D01*
X47071290Y-68328710D01*
X47068201Y-68326001D01*
X46841945Y-68127579D01*
X46841939Y-68127575D01*
X46838845Y-68124861D01*
X46835419Y-68122572D01*
X46835414Y-68122568D01*
X46607811Y-67970489D01*
X46581781Y-67953096D01*
X46578082Y-67951272D01*
X46578077Y-67951269D01*
X46435565Y-67880990D01*
X46304496Y-67816354D01*
X46300581Y-67815025D01*
X46015642Y-67718301D01*
X46015639Y-67718300D01*
X46011735Y-67716975D01*
X45785039Y-67671883D01*
X45712550Y-67657464D01*
X45712547Y-67657464D01*
X45708507Y-67656660D01*
X45704396Y-67656391D01*
X45704392Y-67656390D01*
X45404119Y-67636709D01*
X45400000Y-67636439D01*
X45395881Y-67636709D01*
X45095608Y-67656390D01*
X45095604Y-67656391D01*
X45091493Y-67656660D01*
X45087453Y-67657464D01*
X45087450Y-67657464D01*
X45014961Y-67671883D01*
X44788265Y-67716975D01*
X44784361Y-67718300D01*
X44784358Y-67718301D01*
X44499419Y-67815025D01*
X44495504Y-67816354D01*
X44491808Y-67818177D01*
X44491800Y-67818180D01*
X44305289Y-67910158D01*
X44218220Y-67953096D01*
X44214787Y-67955390D01*
X44214785Y-67955391D01*
X43964586Y-68122568D01*
X43964581Y-68122572D01*
X43961155Y-68124861D01*
X43958061Y-68127575D01*
X43958055Y-68127579D01*
X43731799Y-68326001D01*
X43728710Y-68328710D01*
X43726001Y-68331799D01*
X43527579Y-68558055D01*
X43527575Y-68558061D01*
X43524861Y-68561155D01*
X43522572Y-68564581D01*
X43522568Y-68564586D01*
X43355391Y-68814785D01*
X43353096Y-68818220D01*
X43334647Y-68855630D01*
X43218180Y-69091800D01*
X43218177Y-69091808D01*
X43216354Y-69095504D01*
X43215025Y-69099419D01*
X43152334Y-69284102D01*
X43116975Y-69388265D01*
X43056660Y-69691493D01*
X43036439Y-70000000D01*
X40508000Y-70000000D01*
X40508000Y-50000000D01*
X43036439Y-50000000D01*
X43056660Y-50308507D01*
X43116975Y-50611735D01*
X43118300Y-50615639D01*
X43118301Y-50615642D01*
X43153668Y-50719830D01*
X43216354Y-50904496D01*
X43218177Y-50908192D01*
X43218180Y-50908200D01*
X43254969Y-50982799D01*
X43353096Y-51181780D01*
X43355390Y-51185213D01*
X43355391Y-51185215D01*
X43521273Y-51433475D01*
X43524861Y-51438845D01*
X43527575Y-51441939D01*
X43527579Y-51441945D01*
X43693312Y-51630926D01*
X43728710Y-51671290D01*
X43731799Y-51673999D01*
X43958055Y-51872421D01*
X43958061Y-51872425D01*
X43961155Y-51875139D01*
X43964581Y-51877428D01*
X43964586Y-51877432D01*
X44158318Y-52006879D01*
X44218219Y-52046904D01*
X44221918Y-52048728D01*
X44221923Y-52048731D01*
X44342732Y-52108307D01*
X44495504Y-52183646D01*
X44499409Y-52184971D01*
X44499410Y-52184972D01*
X44784358Y-52281699D01*
X44784361Y-52281700D01*
X44788265Y-52283025D01*
X45014961Y-52328117D01*
X45087450Y-52342536D01*
X45087453Y-52342536D01*
X45091493Y-52343340D01*
X45095604Y-52343609D01*
X45095608Y-52343610D01*
X45395881Y-52363291D01*
X45400000Y-52363561D01*
X45404119Y-52363291D01*
X45704392Y-52343610D01*
X45704396Y-52343609D01*
X45708507Y-52343340D01*
X45712547Y-52342536D01*
X45712550Y-52342536D01*
X45785039Y-52328117D01*
X46011735Y-52283025D01*
X46015639Y-52281700D01*
X46015642Y-52281699D01*
X46300590Y-52184972D01*
X46300591Y-52184971D01*
X46304496Y-52183646D01*
X46457268Y-52108307D01*
X46578077Y-52048731D01*
X46578082Y-52048728D01*
X46581781Y-52046904D01*
X46641682Y-52006879D01*
X46835414Y-51877432D01*
X46835419Y-51877428D01*
X46838845Y-51875139D01*
X46841939Y-51872425D01*
X46841945Y-51872421D01*
X47068201Y-51673999D01*
X47071290Y-51671290D01*
X47106688Y-51630926D01*
X47272421Y-51441945D01*
X47272425Y-51441939D01*
X47275139Y-51438845D01*
X47278728Y-51433475D01*
X47444609Y-51185215D01*
X47444610Y-51185213D01*
X47446904Y-51181780D01*
X47545031Y-50982799D01*
X47581820Y-50908200D01*
X47581823Y-50908192D01*
X47583646Y-50904496D01*
X47646332Y-50719830D01*
X47681699Y-50615642D01*
X47681700Y-50615639D01*
X47683025Y-50611735D01*
X47743340Y-50308507D01*
X47754863Y-50132703D01*
X50160743Y-50132703D01*
X50198268Y-50417734D01*
X50274129Y-50695036D01*
X50386923Y-50959476D01*
X50534561Y-51206161D01*
X50714313Y-51430528D01*
X50922851Y-51628423D01*
X51156317Y-51796186D01*
X51160112Y-51798195D01*
X51160113Y-51798196D01*
X51181869Y-51809715D01*
X51410392Y-51930712D01*
X51680373Y-52029511D01*
X51961264Y-52090755D01*
X51989841Y-52093004D01*
X52184282Y-52108307D01*
X52184291Y-52108307D01*
X52186739Y-52108500D01*
X52342271Y-52108500D01*
X52344407Y-52108354D01*
X52344418Y-52108354D01*
X52552548Y-52094165D01*
X52552554Y-52094164D01*
X52556825Y-52093873D01*
X52561020Y-52093004D01*
X52561022Y-52093004D01*
X52697584Y-52064723D01*
X52838342Y-52035574D01*
X53109343Y-51939607D01*
X53364812Y-51807750D01*
X53368313Y-51805289D01*
X53368317Y-51805287D01*
X53563370Y-51668201D01*
X53600023Y-51642441D01*
X53810622Y-51446740D01*
X53992713Y-51224268D01*
X54142927Y-50979142D01*
X54258483Y-50715898D01*
X54337244Y-50439406D01*
X54377751Y-50154784D01*
X54377845Y-50136951D01*
X54378562Y-50000000D01*
X133636439Y-50000000D01*
X133656660Y-50308507D01*
X133716975Y-50611735D01*
X133718300Y-50615639D01*
X133718301Y-50615642D01*
X133753668Y-50719830D01*
X133816354Y-50904496D01*
X133818177Y-50908192D01*
X133818180Y-50908200D01*
X133854969Y-50982799D01*
X133953096Y-51181780D01*
X133955390Y-51185213D01*
X133955391Y-51185215D01*
X134121273Y-51433475D01*
X134124861Y-51438845D01*
X134127575Y-51441939D01*
X134127579Y-51441945D01*
X134293312Y-51630926D01*
X134328710Y-51671290D01*
X134331799Y-51673999D01*
X134558055Y-51872421D01*
X134558061Y-51872425D01*
X134561155Y-51875139D01*
X134564581Y-51877428D01*
X134564586Y-51877432D01*
X134758318Y-52006879D01*
X134818219Y-52046904D01*
X134821918Y-52048728D01*
X134821923Y-52048731D01*
X134942732Y-52108307D01*
X135095504Y-52183646D01*
X135099409Y-52184971D01*
X135099410Y-52184972D01*
X135384358Y-52281699D01*
X135384361Y-52281700D01*
X135388265Y-52283025D01*
X135614961Y-52328117D01*
X135687450Y-52342536D01*
X135687453Y-52342536D01*
X135691493Y-52343340D01*
X135695604Y-52343609D01*
X135695608Y-52343610D01*
X135995881Y-52363291D01*
X136000000Y-52363561D01*
X136004119Y-52363291D01*
X136304392Y-52343610D01*
X136304396Y-52343609D01*
X136308507Y-52343340D01*
X136312547Y-52342536D01*
X136312550Y-52342536D01*
X136385039Y-52328117D01*
X136611735Y-52283025D01*
X136615639Y-52281700D01*
X136615642Y-52281699D01*
X136900590Y-52184972D01*
X136900591Y-52184971D01*
X136904496Y-52183646D01*
X137057268Y-52108307D01*
X137178077Y-52048731D01*
X137178082Y-52048728D01*
X137181781Y-52046904D01*
X137241682Y-52006879D01*
X137435414Y-51877432D01*
X137435419Y-51877428D01*
X137438845Y-51875139D01*
X137441939Y-51872425D01*
X137441945Y-51872421D01*
X137668201Y-51673999D01*
X137671290Y-51671290D01*
X137706688Y-51630926D01*
X137872421Y-51441945D01*
X137872425Y-51441939D01*
X137875139Y-51438845D01*
X137878728Y-51433475D01*
X138044609Y-51185215D01*
X138044610Y-51185213D01*
X138046904Y-51181780D01*
X138145031Y-50982799D01*
X138181820Y-50908200D01*
X138181823Y-50908192D01*
X138183646Y-50904496D01*
X138246332Y-50719830D01*
X138281699Y-50615642D01*
X138281700Y-50615639D01*
X138283025Y-50611735D01*
X138343340Y-50308507D01*
X138363561Y-50000000D01*
X138343340Y-49691493D01*
X138283025Y-49388265D01*
X138247667Y-49284102D01*
X138184975Y-49099419D01*
X138183646Y-49095504D01*
X138181823Y-49091808D01*
X138181820Y-49091800D01*
X138048730Y-48821923D01*
X138046904Y-48818220D01*
X138044609Y-48814785D01*
X137877432Y-48564586D01*
X137877428Y-48564581D01*
X137875139Y-48561155D01*
X137872425Y-48558061D01*
X137872421Y-48558055D01*
X137673999Y-48331799D01*
X137671290Y-48328710D01*
X137668201Y-48326001D01*
X137441945Y-48127579D01*
X137441939Y-48127575D01*
X137438845Y-48124861D01*
X137435419Y-48122572D01*
X137435414Y-48122568D01*
X137207811Y-47970489D01*
X137181781Y-47953096D01*
X137178082Y-47951272D01*
X137178077Y-47951269D01*
X137035565Y-47880990D01*
X136904496Y-47816354D01*
X136900581Y-47815025D01*
X136615642Y-47718301D01*
X136615639Y-47718300D01*
X136611735Y-47716975D01*
X136385039Y-47671883D01*
X136312550Y-47657464D01*
X136312547Y-47657464D01*
X136308507Y-47656660D01*
X136304396Y-47656391D01*
X136304392Y-47656390D01*
X136004119Y-47636709D01*
X136000000Y-47636439D01*
X135995881Y-47636709D01*
X135695608Y-47656390D01*
X135695604Y-47656391D01*
X135691493Y-47656660D01*
X135687453Y-47657464D01*
X135687450Y-47657464D01*
X135614961Y-47671883D01*
X135388265Y-47716975D01*
X135384361Y-47718300D01*
X135384358Y-47718301D01*
X135099419Y-47815025D01*
X135095504Y-47816354D01*
X135091808Y-47818177D01*
X135091800Y-47818180D01*
X134905289Y-47910158D01*
X134818220Y-47953096D01*
X134814787Y-47955390D01*
X134814785Y-47955391D01*
X134564586Y-48122568D01*
X134564581Y-48122572D01*
X134561155Y-48124861D01*
X134558061Y-48127575D01*
X134558055Y-48127579D01*
X134331799Y-48326001D01*
X134328710Y-48328710D01*
X134326001Y-48331799D01*
X134127579Y-48558055D01*
X134127575Y-48558061D01*
X134124861Y-48561155D01*
X134122572Y-48564581D01*
X134122568Y-48564586D01*
X133955391Y-48814785D01*
X133953096Y-48818220D01*
X133951270Y-48821923D01*
X133818180Y-49091800D01*
X133818177Y-49091808D01*
X133816354Y-49095504D01*
X133815025Y-49099419D01*
X133752334Y-49284102D01*
X133716975Y-49388265D01*
X133656660Y-49691493D01*
X133636439Y-50000000D01*
X54378562Y-50000000D01*
X54379235Y-49871583D01*
X54379235Y-49871576D01*
X54379257Y-49867297D01*
X54341732Y-49582266D01*
X54265871Y-49304964D01*
X54153077Y-49040524D01*
X54005439Y-48793839D01*
X53825687Y-48569472D01*
X53617149Y-48371577D01*
X53383683Y-48203814D01*
X53361843Y-48192250D01*
X53239700Y-48127579D01*
X53129608Y-48069288D01*
X52859627Y-47970489D01*
X52578736Y-47909245D01*
X52547685Y-47906801D01*
X52355718Y-47891693D01*
X52355709Y-47891693D01*
X52353261Y-47891500D01*
X52197729Y-47891500D01*
X52195593Y-47891646D01*
X52195582Y-47891646D01*
X51987452Y-47905835D01*
X51987446Y-47905836D01*
X51983175Y-47906127D01*
X51978980Y-47906996D01*
X51978978Y-47906996D01*
X51842417Y-47935276D01*
X51701658Y-47964426D01*
X51430657Y-48060393D01*
X51175188Y-48192250D01*
X51171687Y-48194711D01*
X51171683Y-48194713D01*
X51161594Y-48201804D01*
X50939977Y-48357559D01*
X50729378Y-48553260D01*
X50547287Y-48775732D01*
X50397073Y-49020858D01*
X50281517Y-49284102D01*
X50202756Y-49560594D01*
X50162249Y-49845216D01*
X50162227Y-49849505D01*
X50162226Y-49849512D01*
X50160765Y-50128417D01*
X50160743Y-50132703D01*
X47754863Y-50132703D01*
X47763561Y-50000000D01*
X47743340Y-49691493D01*
X47683025Y-49388265D01*
X47647667Y-49284102D01*
X47584975Y-49099419D01*
X47583646Y-49095504D01*
X47581823Y-49091808D01*
X47581820Y-49091800D01*
X47448730Y-48821923D01*
X47446904Y-48818220D01*
X47444609Y-48814785D01*
X47277432Y-48564586D01*
X47277428Y-48564581D01*
X47275139Y-48561155D01*
X47272425Y-48558061D01*
X47272421Y-48558055D01*
X47073999Y-48331799D01*
X47071290Y-48328710D01*
X47068201Y-48326001D01*
X46841945Y-48127579D01*
X46841939Y-48127575D01*
X46838845Y-48124861D01*
X46835419Y-48122572D01*
X46835414Y-48122568D01*
X46607811Y-47970489D01*
X46581781Y-47953096D01*
X46578082Y-47951272D01*
X46578077Y-47951269D01*
X46435565Y-47880990D01*
X46304496Y-47816354D01*
X46300581Y-47815025D01*
X46015642Y-47718301D01*
X46015639Y-47718300D01*
X46011735Y-47716975D01*
X45785039Y-47671883D01*
X45712550Y-47657464D01*
X45712547Y-47657464D01*
X45708507Y-47656660D01*
X45704396Y-47656391D01*
X45704392Y-47656390D01*
X45404119Y-47636709D01*
X45400000Y-47636439D01*
X45395881Y-47636709D01*
X45095608Y-47656390D01*
X45095604Y-47656391D01*
X45091493Y-47656660D01*
X45087453Y-47657464D01*
X45087450Y-47657464D01*
X45014961Y-47671883D01*
X44788265Y-47716975D01*
X44784361Y-47718300D01*
X44784358Y-47718301D01*
X44499419Y-47815025D01*
X44495504Y-47816354D01*
X44491808Y-47818177D01*
X44491800Y-47818180D01*
X44305289Y-47910158D01*
X44218220Y-47953096D01*
X44214787Y-47955390D01*
X44214785Y-47955391D01*
X43964586Y-48122568D01*
X43964581Y-48122572D01*
X43961155Y-48124861D01*
X43958061Y-48127575D01*
X43958055Y-48127579D01*
X43731799Y-48326001D01*
X43728710Y-48328710D01*
X43726001Y-48331799D01*
X43527579Y-48558055D01*
X43527575Y-48558061D01*
X43524861Y-48561155D01*
X43522572Y-48564581D01*
X43522568Y-48564586D01*
X43355391Y-48814785D01*
X43353096Y-48818220D01*
X43351270Y-48821923D01*
X43218180Y-49091800D01*
X43218177Y-49091808D01*
X43216354Y-49095504D01*
X43215025Y-49099419D01*
X43152334Y-49284102D01*
X43116975Y-49388265D01*
X43056660Y-49691493D01*
X43036439Y-50000000D01*
X40508000Y-50000000D01*
X40508000Y-36051681D01*
X45563860Y-36051681D01*
X45563878Y-36051933D01*
X45569793Y-36060677D01*
X45601111Y-36089174D01*
X45606748Y-36093738D01*
X45882544Y-36291918D01*
X45888682Y-36295813D01*
X46185435Y-36460984D01*
X46191955Y-36464136D01*
X46505738Y-36594109D01*
X46512589Y-36596495D01*
X46839212Y-36689536D01*
X46846301Y-36691120D01*
X47181465Y-36746006D01*
X47188671Y-36746763D01*
X47527926Y-36762762D01*
X47535176Y-36762686D01*
X47874010Y-36739587D01*
X47881219Y-36738676D01*
X48215160Y-36676784D01*
X48222190Y-36675057D01*
X48546819Y-36575187D01*
X48553597Y-36572667D01*
X48864603Y-36436145D01*
X48871043Y-36432864D01*
X49164293Y-36261502D01*
X49170326Y-36257493D01*
X49428828Y-36063405D01*
X49437282Y-36052078D01*
X49437065Y-36051681D01*
X131923860Y-36051681D01*
X131923878Y-36051933D01*
X131929793Y-36060677D01*
X131961111Y-36089174D01*
X131966748Y-36093738D01*
X132242544Y-36291918D01*
X132248682Y-36295813D01*
X132545435Y-36460984D01*
X132551955Y-36464136D01*
X132865738Y-36594109D01*
X132872589Y-36596495D01*
X133199212Y-36689536D01*
X133206301Y-36691120D01*
X133541465Y-36746006D01*
X133548671Y-36746763D01*
X133887926Y-36762762D01*
X133895176Y-36762686D01*
X134234010Y-36739587D01*
X134241219Y-36738676D01*
X134575160Y-36676784D01*
X134582190Y-36675057D01*
X134906819Y-36575187D01*
X134913597Y-36572667D01*
X135224603Y-36436145D01*
X135231043Y-36432864D01*
X135524293Y-36261502D01*
X135530326Y-36257493D01*
X135788828Y-36063405D01*
X135797282Y-36052078D01*
X135790537Y-36039748D01*
X133872810Y-34122020D01*
X133858869Y-34114408D01*
X133857034Y-34114539D01*
X133850420Y-34118790D01*
X131931474Y-36037737D01*
X131923860Y-36051681D01*
X49437065Y-36051681D01*
X49430537Y-36039748D01*
X47512810Y-34122020D01*
X47498869Y-34114408D01*
X47497034Y-34114539D01*
X47490420Y-34118790D01*
X45571474Y-36037737D01*
X45563860Y-36051681D01*
X40508000Y-36051681D01*
X40508000Y-33658987D01*
X44488484Y-33658987D01*
X44497374Y-33998505D01*
X44497980Y-34005721D01*
X44545835Y-34341963D01*
X44547269Y-34349074D01*
X44633455Y-34677595D01*
X44635692Y-34684478D01*
X44759064Y-35000914D01*
X44762081Y-35007503D01*
X44921002Y-35307652D01*
X44924761Y-35313860D01*
X45117129Y-35593757D01*
X45121574Y-35599486D01*
X45188743Y-35676484D01*
X45201917Y-35684888D01*
X45211769Y-35679020D01*
X47127980Y-33762810D01*
X47134357Y-33751131D01*
X47864408Y-33751131D01*
X47864539Y-33752966D01*
X47868790Y-33759580D01*
X49786268Y-35677057D01*
X49799622Y-35684349D01*
X49809594Y-35677295D01*
X49916641Y-35549267D01*
X49920957Y-35543456D01*
X50107432Y-35259575D01*
X50111046Y-35253313D01*
X50263658Y-34949882D01*
X50266530Y-34943244D01*
X50383249Y-34624293D01*
X50385345Y-34617351D01*
X50464631Y-34287103D01*
X50465915Y-34279964D01*
X50506816Y-33941973D01*
X50507240Y-33936403D01*
X50513010Y-33752797D01*
X50512937Y-33747204D01*
X50507850Y-33658987D01*
X130848484Y-33658987D01*
X130857374Y-33998505D01*
X130857980Y-34005721D01*
X130905835Y-34341963D01*
X130907269Y-34349074D01*
X130993455Y-34677595D01*
X130995692Y-34684478D01*
X131119064Y-35000914D01*
X131122081Y-35007503D01*
X131281002Y-35307652D01*
X131284761Y-35313860D01*
X131477129Y-35593757D01*
X131481574Y-35599486D01*
X131548743Y-35676484D01*
X131561917Y-35684888D01*
X131571769Y-35679020D01*
X133487980Y-33762810D01*
X133494357Y-33751131D01*
X134224408Y-33751131D01*
X134224539Y-33752966D01*
X134228790Y-33759580D01*
X136146268Y-35677057D01*
X136159622Y-35684349D01*
X136169594Y-35677295D01*
X136276641Y-35549267D01*
X136280957Y-35543456D01*
X136467432Y-35259575D01*
X136471046Y-35253313D01*
X136623658Y-34949882D01*
X136626530Y-34943244D01*
X136743249Y-34624293D01*
X136745345Y-34617351D01*
X136824631Y-34287103D01*
X136825915Y-34279964D01*
X136866816Y-33941973D01*
X136867240Y-33936403D01*
X136873010Y-33752797D01*
X136872937Y-33747204D01*
X136853338Y-33407303D01*
X136852506Y-33400113D01*
X136794113Y-33065529D01*
X136792458Y-33058474D01*
X136695998Y-32732834D01*
X136693540Y-32726006D01*
X136560290Y-32413608D01*
X136557073Y-32407125D01*
X136388788Y-32112089D01*
X136384856Y-32106034D01*
X136183774Y-31832295D01*
X136179166Y-31826726D01*
X136173830Y-31820984D01*
X136160178Y-31812866D01*
X136159570Y-31812887D01*
X136151092Y-31818119D01*
X134232020Y-33737190D01*
X134224408Y-33751131D01*
X133494357Y-33751131D01*
X133495592Y-33748869D01*
X133495461Y-33747034D01*
X133491210Y-33740420D01*
X131572374Y-31821585D01*
X131559581Y-31814599D01*
X131548827Y-31822464D01*
X131388037Y-32027527D01*
X131383902Y-32033476D01*
X131206440Y-32323068D01*
X131203019Y-32329447D01*
X131060016Y-32637522D01*
X131057356Y-32644241D01*
X130950711Y-32966707D01*
X130948834Y-32973711D01*
X130879961Y-33306288D01*
X130878904Y-33313449D01*
X130848712Y-33651735D01*
X130848484Y-33658987D01*
X50507850Y-33658987D01*
X50493338Y-33407303D01*
X50492506Y-33400113D01*
X50434113Y-33065529D01*
X50432458Y-33058474D01*
X50335998Y-32732834D01*
X50333540Y-32726006D01*
X50200290Y-32413608D01*
X50197073Y-32407125D01*
X50028788Y-32112089D01*
X50024856Y-32106034D01*
X49823774Y-31832295D01*
X49819166Y-31826726D01*
X49813830Y-31820984D01*
X49800178Y-31812866D01*
X49799570Y-31812887D01*
X49791092Y-31818119D01*
X47872020Y-33737190D01*
X47864408Y-33751131D01*
X47134357Y-33751131D01*
X47135592Y-33748869D01*
X47135461Y-33747034D01*
X47131210Y-33740420D01*
X45212374Y-31821585D01*
X45199581Y-31814599D01*
X45188827Y-31822464D01*
X45028037Y-32027527D01*
X45023902Y-32033476D01*
X44846440Y-32323068D01*
X44843019Y-32329447D01*
X44700016Y-32637522D01*
X44697356Y-32644241D01*
X44590711Y-32966707D01*
X44588834Y-32973711D01*
X44519961Y-33306288D01*
X44518904Y-33313449D01*
X44488712Y-33651735D01*
X44488484Y-33658987D01*
X40508000Y-33658987D01*
X40508000Y-31384000D01*
X40528002Y-31315879D01*
X40581658Y-31269386D01*
X40634000Y-31258000D01*
X45458269Y-31258000D01*
X45526390Y-31278002D01*
G37*
G04 #@! TD.AperFunction*
M02*
