G04 #@! TF.GenerationSoftware,KiCad,Pcbnew,(6.0.1)*
G04 #@! TF.CreationDate,2024-02-21T11:22:39-08:00*
G04 #@! TF.ProjectId,panel,70616e65-6c2e-46b6-9963-61645f706362,1.1*
G04 #@! TF.SameCoordinates,Original*
G04 #@! TF.FileFunction,Copper,L1,Top*
G04 #@! TF.FilePolarity,Positive*
%FSLAX46Y46*%
G04 Gerber Fmt 4.6, Leading zero omitted, Abs format (unit mm)*
G04 Created by KiCad (PCBNEW (6.0.1)) date 2024-02-21 11:22:39*
%MOMM*%
%LPD*%
G01*
G04 APERTURE LIST*
G04 #@! TA.AperFunction,ComponentPad*
%ADD10C,6.700000*%
G04 #@! TD*
G04 #@! TA.AperFunction,ComponentPad*
%ADD11O,8.000000X5.000000*%
G04 #@! TD*
G04 #@! TA.AperFunction,ComponentPad*
%ADD12C,6.350000*%
G04 #@! TD*
G04 APERTURE END LIST*
D10*
X45400000Y-70000000D03*
X45400000Y-92000000D03*
X45400000Y-114000000D03*
X45400000Y-50000000D03*
X136000000Y-92000000D03*
X136000000Y-136000000D03*
X45400000Y-136000000D03*
X136000000Y-70000000D03*
X136000000Y-114000000D03*
X136000000Y-50000000D03*
D11*
X47500000Y-33750000D03*
X133860000Y-33750000D03*
X133860000Y-156150000D03*
X47500000Y-156150000D03*
D12*
X73300000Y-92000000D03*
X73300000Y-70000000D03*
X73300000Y-114000000D03*
X73300000Y-136000000D03*
G04 #@! TA.AperFunction,Conductor*
G36*
X44010148Y-31278002D02*
G01*
X44056641Y-31331658D01*
X44066745Y-31401932D01*
X44037251Y-31466512D01*
X44027798Y-31476300D01*
X43827926Y-31662033D01*
X43822910Y-31667263D01*
X43602335Y-31925524D01*
X43597953Y-31931296D01*
X43408519Y-32213204D01*
X43404839Y-32219425D01*
X43249060Y-32521243D01*
X43246116Y-32527854D01*
X43126065Y-32845561D01*
X43123894Y-32852487D01*
X43041155Y-33181888D01*
X43039799Y-33188995D01*
X43001745Y-33478040D01*
X43003957Y-33492222D01*
X43017114Y-33496000D01*
X51979581Y-33496000D01*
X51993974Y-33491774D01*
X51996035Y-33479357D01*
X51976362Y-33282256D01*
X51975230Y-33275108D01*
X51902876Y-32943263D01*
X51900928Y-32936285D01*
X51790914Y-32614960D01*
X51788177Y-32608253D01*
X51641961Y-32301707D01*
X51638466Y-32295349D01*
X51457995Y-32007654D01*
X51453786Y-32001730D01*
X51241439Y-31736679D01*
X51236588Y-31731291D01*
X50995178Y-31492396D01*
X50989738Y-31487600D01*
X50984070Y-31483156D01*
X50942804Y-31425384D01*
X50939323Y-31354473D01*
X50974731Y-31292936D01*
X51037788Y-31260312D01*
X51061814Y-31258000D01*
X130302027Y-31258000D01*
X130370148Y-31278002D01*
X130416641Y-31331658D01*
X130426745Y-31401932D01*
X130397251Y-31466512D01*
X130387798Y-31476300D01*
X130187926Y-31662033D01*
X130182910Y-31667263D01*
X129962335Y-31925524D01*
X129957953Y-31931296D01*
X129768519Y-32213204D01*
X129764839Y-32219425D01*
X129609060Y-32521243D01*
X129606116Y-32527854D01*
X129486065Y-32845561D01*
X129483894Y-32852487D01*
X129401155Y-33181888D01*
X129399799Y-33188995D01*
X129361745Y-33478040D01*
X129363957Y-33492222D01*
X129377114Y-33496000D01*
X138339581Y-33496000D01*
X138353974Y-33491774D01*
X138356035Y-33479357D01*
X138336362Y-33282256D01*
X138335230Y-33275108D01*
X138262876Y-32943263D01*
X138260928Y-32936285D01*
X138150914Y-32614960D01*
X138148177Y-32608253D01*
X138001961Y-32301707D01*
X137998466Y-32295349D01*
X137817995Y-32007654D01*
X137813786Y-32001730D01*
X137601439Y-31736679D01*
X137596588Y-31731291D01*
X137355178Y-31492396D01*
X137349738Y-31487600D01*
X137344070Y-31483156D01*
X137302804Y-31425384D01*
X137299323Y-31354473D01*
X137334731Y-31292936D01*
X137397788Y-31260312D01*
X137421814Y-31258000D01*
X140666000Y-31258000D01*
X140734121Y-31278002D01*
X140780614Y-31331658D01*
X140792000Y-31384000D01*
X140792000Y-158516000D01*
X140771998Y-158584121D01*
X140718342Y-158630614D01*
X140666000Y-158642000D01*
X137417973Y-158642000D01*
X137349852Y-158621998D01*
X137303359Y-158568342D01*
X137293255Y-158498068D01*
X137322749Y-158433488D01*
X137332202Y-158423700D01*
X137532074Y-158237967D01*
X137537090Y-158232737D01*
X137757665Y-157974476D01*
X137762047Y-157968704D01*
X137951481Y-157686796D01*
X137955161Y-157680575D01*
X138110940Y-157378757D01*
X138113884Y-157372146D01*
X138233935Y-157054439D01*
X138236106Y-157047513D01*
X138318845Y-156718112D01*
X138320201Y-156711005D01*
X138358255Y-156421960D01*
X138356043Y-156407778D01*
X138342886Y-156404000D01*
X129380419Y-156404000D01*
X129366026Y-156408226D01*
X129363965Y-156420643D01*
X129383638Y-156617744D01*
X129384770Y-156624892D01*
X129457124Y-156956737D01*
X129459072Y-156963715D01*
X129569086Y-157285040D01*
X129571823Y-157291747D01*
X129718039Y-157598293D01*
X129721534Y-157604651D01*
X129902005Y-157892346D01*
X129906214Y-157898270D01*
X130118561Y-158163321D01*
X130123412Y-158168709D01*
X130364822Y-158407604D01*
X130370262Y-158412400D01*
X130375930Y-158416844D01*
X130417196Y-158474616D01*
X130420677Y-158545527D01*
X130385269Y-158607064D01*
X130322212Y-158639688D01*
X130298186Y-158642000D01*
X51057973Y-158642000D01*
X50989852Y-158621998D01*
X50943359Y-158568342D01*
X50933255Y-158498068D01*
X50962749Y-158433488D01*
X50972202Y-158423700D01*
X51172074Y-158237967D01*
X51177090Y-158232737D01*
X51397665Y-157974476D01*
X51402047Y-157968704D01*
X51591481Y-157686796D01*
X51595161Y-157680575D01*
X51750940Y-157378757D01*
X51753884Y-157372146D01*
X51873935Y-157054439D01*
X51876106Y-157047513D01*
X51958845Y-156718112D01*
X51960201Y-156711005D01*
X51998255Y-156421960D01*
X51996043Y-156407778D01*
X51982886Y-156404000D01*
X43020419Y-156404000D01*
X43006026Y-156408226D01*
X43003965Y-156420643D01*
X43023638Y-156617744D01*
X43024770Y-156624892D01*
X43097124Y-156956737D01*
X43099072Y-156963715D01*
X43209086Y-157285040D01*
X43211823Y-157291747D01*
X43358039Y-157598293D01*
X43361534Y-157604651D01*
X43542005Y-157892346D01*
X43546214Y-157898270D01*
X43758561Y-158163321D01*
X43763412Y-158168709D01*
X44004822Y-158407604D01*
X44010262Y-158412400D01*
X44015930Y-158416844D01*
X44057196Y-158474616D01*
X44060677Y-158545527D01*
X44025269Y-158607064D01*
X43962212Y-158639688D01*
X43938186Y-158642000D01*
X40634000Y-158642000D01*
X40565879Y-158621998D01*
X40519386Y-158568342D01*
X40508000Y-158516000D01*
X40508000Y-155878040D01*
X43001745Y-155878040D01*
X43003957Y-155892222D01*
X43017114Y-155896000D01*
X47227885Y-155896000D01*
X47243124Y-155891525D01*
X47244329Y-155890135D01*
X47246000Y-155882452D01*
X47246000Y-155877885D01*
X47754000Y-155877885D01*
X47758475Y-155893124D01*
X47759865Y-155894329D01*
X47767548Y-155896000D01*
X51979581Y-155896000D01*
X51993974Y-155891774D01*
X51996035Y-155879357D01*
X51995904Y-155878040D01*
X129361745Y-155878040D01*
X129363957Y-155892222D01*
X129377114Y-155896000D01*
X133587885Y-155896000D01*
X133603124Y-155891525D01*
X133604329Y-155890135D01*
X133606000Y-155882452D01*
X133606000Y-155877885D01*
X134114000Y-155877885D01*
X134118475Y-155893124D01*
X134119865Y-155894329D01*
X134127548Y-155896000D01*
X138339581Y-155896000D01*
X138353974Y-155891774D01*
X138356035Y-155879357D01*
X138336362Y-155682256D01*
X138335230Y-155675108D01*
X138262876Y-155343263D01*
X138260928Y-155336285D01*
X138150914Y-155014960D01*
X138148177Y-155008253D01*
X138001961Y-154701707D01*
X137998466Y-154695349D01*
X137817995Y-154407654D01*
X137813786Y-154401730D01*
X137601439Y-154136679D01*
X137596588Y-154131291D01*
X137355178Y-153892396D01*
X137349740Y-153887602D01*
X137082469Y-153678034D01*
X137076524Y-153673902D01*
X136786932Y-153496440D01*
X136780553Y-153493019D01*
X136472478Y-153350016D01*
X136465759Y-153347356D01*
X136143293Y-153240711D01*
X136136289Y-153238834D01*
X135803712Y-153169961D01*
X135796551Y-153168904D01*
X135497897Y-153142249D01*
X135492302Y-153142000D01*
X134132115Y-153142000D01*
X134116876Y-153146475D01*
X134115671Y-153147865D01*
X134114000Y-153155548D01*
X134114000Y-155877885D01*
X133606000Y-155877885D01*
X133606000Y-153160115D01*
X133601525Y-153144876D01*
X133600135Y-153143671D01*
X133592452Y-153142000D01*
X132273411Y-153142000D01*
X132269764Y-153142105D01*
X132017303Y-153156662D01*
X132010113Y-153157494D01*
X131675529Y-153215887D01*
X131668474Y-153217542D01*
X131342834Y-153314002D01*
X131336006Y-153316460D01*
X131023608Y-153449710D01*
X131017125Y-153452927D01*
X130722089Y-153621212D01*
X130716034Y-153625144D01*
X130442297Y-153826225D01*
X130436724Y-153830835D01*
X130187926Y-154062033D01*
X130182910Y-154067263D01*
X129962335Y-154325524D01*
X129957953Y-154331296D01*
X129768519Y-154613204D01*
X129764839Y-154619425D01*
X129609060Y-154921243D01*
X129606116Y-154927854D01*
X129486065Y-155245561D01*
X129483894Y-155252487D01*
X129401155Y-155581888D01*
X129399799Y-155588995D01*
X129361745Y-155878040D01*
X51995904Y-155878040D01*
X51976362Y-155682256D01*
X51975230Y-155675108D01*
X51902876Y-155343263D01*
X51900928Y-155336285D01*
X51790914Y-155014960D01*
X51788177Y-155008253D01*
X51641961Y-154701707D01*
X51638466Y-154695349D01*
X51457995Y-154407654D01*
X51453786Y-154401730D01*
X51241439Y-154136679D01*
X51236588Y-154131291D01*
X50995178Y-153892396D01*
X50989740Y-153887602D01*
X50722469Y-153678034D01*
X50716524Y-153673902D01*
X50426932Y-153496440D01*
X50420553Y-153493019D01*
X50112478Y-153350016D01*
X50105759Y-153347356D01*
X49783293Y-153240711D01*
X49776289Y-153238834D01*
X49443712Y-153169961D01*
X49436551Y-153168904D01*
X49137897Y-153142249D01*
X49132302Y-153142000D01*
X47772115Y-153142000D01*
X47756876Y-153146475D01*
X47755671Y-153147865D01*
X47754000Y-153155548D01*
X47754000Y-155877885D01*
X47246000Y-155877885D01*
X47246000Y-153160115D01*
X47241525Y-153144876D01*
X47240135Y-153143671D01*
X47232452Y-153142000D01*
X45913411Y-153142000D01*
X45909764Y-153142105D01*
X45657303Y-153156662D01*
X45650113Y-153157494D01*
X45315529Y-153215887D01*
X45308474Y-153217542D01*
X44982834Y-153314002D01*
X44976006Y-153316460D01*
X44663608Y-153449710D01*
X44657125Y-153452927D01*
X44362089Y-153621212D01*
X44356034Y-153625144D01*
X44082297Y-153826225D01*
X44076724Y-153830835D01*
X43827926Y-154062033D01*
X43822910Y-154067263D01*
X43602335Y-154325524D01*
X43597953Y-154331296D01*
X43408519Y-154613204D01*
X43404839Y-154619425D01*
X43249060Y-154921243D01*
X43246116Y-154927854D01*
X43126065Y-155245561D01*
X43123894Y-155252487D01*
X43041155Y-155581888D01*
X43039799Y-155588995D01*
X43001745Y-155878040D01*
X40508000Y-155878040D01*
X40508000Y-143607655D01*
X58139858Y-143607655D01*
X58175104Y-143866638D01*
X58176412Y-143871124D01*
X58176412Y-143871126D01*
X58196098Y-143938664D01*
X58248243Y-144117567D01*
X58357668Y-144354928D01*
X58360231Y-144358837D01*
X58498410Y-144569596D01*
X58498414Y-144569601D01*
X58500976Y-144573509D01*
X58675018Y-144768506D01*
X58875970Y-144935637D01*
X58879973Y-144938066D01*
X59095422Y-145068804D01*
X59095426Y-145068806D01*
X59099419Y-145071229D01*
X59340455Y-145172303D01*
X59593783Y-145236641D01*
X59598434Y-145237109D01*
X59598438Y-145237110D01*
X59791308Y-145256531D01*
X59810867Y-145258500D01*
X59966354Y-145258500D01*
X59968679Y-145258327D01*
X59968685Y-145258327D01*
X60156000Y-145244407D01*
X60156004Y-145244406D01*
X60160652Y-145244061D01*
X60165200Y-145243032D01*
X60165206Y-145243031D01*
X60351601Y-145200853D01*
X60415577Y-145186377D01*
X60451769Y-145172303D01*
X60654824Y-145093340D01*
X60654827Y-145093339D01*
X60659177Y-145091647D01*
X60886098Y-144961951D01*
X61091357Y-144800138D01*
X61270443Y-144609763D01*
X61419424Y-144395009D01*
X61535025Y-144160593D01*
X61614707Y-143911665D01*
X61656721Y-143653693D01*
X61660142Y-143392345D01*
X61624896Y-143133362D01*
X61610473Y-143083877D01*
X61553068Y-142886932D01*
X61551757Y-142882433D01*
X61442332Y-142645072D01*
X61409519Y-142595024D01*
X61301590Y-142430404D01*
X61301586Y-142430399D01*
X61299024Y-142426491D01*
X61124982Y-142231494D01*
X60924030Y-142064363D01*
X60876844Y-142035730D01*
X60704578Y-141931196D01*
X60704574Y-141931194D01*
X60700581Y-141928771D01*
X60459545Y-141827697D01*
X60206217Y-141763359D01*
X60201566Y-141762891D01*
X60201562Y-141762890D01*
X59992271Y-141741816D01*
X59989133Y-141741500D01*
X59833646Y-141741500D01*
X59831321Y-141741673D01*
X59831315Y-141741673D01*
X59644000Y-141755593D01*
X59643996Y-141755594D01*
X59639348Y-141755939D01*
X59634800Y-141756968D01*
X59634794Y-141756969D01*
X59448399Y-141799147D01*
X59384423Y-141813623D01*
X59380071Y-141815315D01*
X59380069Y-141815316D01*
X59145176Y-141906660D01*
X59145173Y-141906661D01*
X59140823Y-141908353D01*
X58913902Y-142038049D01*
X58708643Y-142199862D01*
X58529557Y-142390237D01*
X58380576Y-142604991D01*
X58264975Y-142839407D01*
X58185293Y-143088335D01*
X58143279Y-143346307D01*
X58139858Y-143607655D01*
X40508000Y-143607655D01*
X40508000Y-135986514D01*
X41536565Y-135986514D01*
X41554980Y-136377008D01*
X41555452Y-136380165D01*
X41555452Y-136380167D01*
X41560518Y-136414065D01*
X41612763Y-136763641D01*
X41613549Y-136766723D01*
X41613549Y-136766725D01*
X41623648Y-136806343D01*
X41709321Y-137142456D01*
X41843667Y-137509574D01*
X42014425Y-137861236D01*
X42016104Y-137863954D01*
X42213023Y-138182793D01*
X42219846Y-138193841D01*
X42221787Y-138196371D01*
X42221788Y-138196372D01*
X42430312Y-138468125D01*
X42457828Y-138503985D01*
X42725933Y-138788491D01*
X42728338Y-138790575D01*
X42728344Y-138790580D01*
X42760462Y-138818401D01*
X43021417Y-139044447D01*
X43341254Y-139269233D01*
X43682170Y-139460546D01*
X44040674Y-139616428D01*
X44413096Y-139735283D01*
X44416229Y-139735943D01*
X44416232Y-139735944D01*
X44792494Y-139815234D01*
X44792497Y-139815235D01*
X44795622Y-139815893D01*
X45184336Y-139857435D01*
X45187523Y-139857452D01*
X45187529Y-139857452D01*
X45364895Y-139858380D01*
X45575258Y-139859482D01*
X45722592Y-139845295D01*
X45961221Y-139822318D01*
X45961226Y-139822317D01*
X45964386Y-139822013D01*
X45967505Y-139821390D01*
X45967510Y-139821389D01*
X46156412Y-139783642D01*
X46347735Y-139745412D01*
X46634089Y-139657318D01*
X46718339Y-139631400D01*
X46718342Y-139631399D01*
X46721381Y-139630464D01*
X46724309Y-139629227D01*
X46724315Y-139629225D01*
X46886219Y-139560834D01*
X47081498Y-139478345D01*
X47084301Y-139476811D01*
X47084306Y-139476808D01*
X47282745Y-139368165D01*
X47424398Y-139290612D01*
X47746572Y-139069188D01*
X47778204Y-139042362D01*
X48042290Y-138818401D01*
X48042292Y-138818399D01*
X48044720Y-138816340D01*
X48046925Y-138814048D01*
X48046931Y-138814043D01*
X48157327Y-138699324D01*
X48315790Y-138534657D01*
X48557006Y-138227023D01*
X48583348Y-138185355D01*
X48739946Y-137937641D01*
X48765899Y-137896587D01*
X48767319Y-137893739D01*
X48767324Y-137893730D01*
X48938910Y-137549580D01*
X48940330Y-137546732D01*
X49078513Y-137181041D01*
X49088271Y-137144370D01*
X49153471Y-136899329D01*
X49179033Y-136803258D01*
X49184547Y-136768838D01*
X49237312Y-136439406D01*
X49240861Y-136417251D01*
X49242689Y-136385559D01*
X49257268Y-136132703D01*
X49263365Y-136026972D01*
X49263459Y-136000000D01*
X54736446Y-136000000D01*
X54736566Y-136002748D01*
X54755446Y-136435159D01*
X54756095Y-136450033D01*
X54814892Y-136896642D01*
X54912390Y-137336426D01*
X54913218Y-137339051D01*
X54913219Y-137339056D01*
X55008876Y-137642441D01*
X55047846Y-137766039D01*
X55159851Y-138036443D01*
X55215444Y-138170654D01*
X55220231Y-138182212D01*
X55428231Y-138581777D01*
X55670264Y-138961693D01*
X55735168Y-139046277D01*
X55921262Y-139288800D01*
X55944488Y-139319069D01*
X56248816Y-139651184D01*
X56580931Y-139955512D01*
X56583093Y-139957171D01*
X56583099Y-139957176D01*
X56704538Y-140050359D01*
X56938307Y-140229736D01*
X57318223Y-140471769D01*
X57717788Y-140679769D01*
X58133961Y-140852154D01*
X58136581Y-140852980D01*
X58136589Y-140852983D01*
X58560944Y-140986781D01*
X58560949Y-140986782D01*
X58563574Y-140987610D01*
X59003358Y-141085108D01*
X59006077Y-141085466D01*
X59006083Y-141085467D01*
X59173674Y-141107530D01*
X59449967Y-141143905D01*
X59452716Y-141144025D01*
X59452727Y-141144026D01*
X59782869Y-141158440D01*
X59782873Y-141158440D01*
X59784245Y-141158500D01*
X60015755Y-141158500D01*
X60017127Y-141158440D01*
X60017131Y-141158440D01*
X60347273Y-141144026D01*
X60347284Y-141144025D01*
X60350033Y-141143905D01*
X60626326Y-141107530D01*
X60793917Y-141085467D01*
X60793923Y-141085466D01*
X60796642Y-141085108D01*
X61236426Y-140987610D01*
X61239051Y-140986782D01*
X61239056Y-140986781D01*
X61663411Y-140852983D01*
X61663419Y-140852980D01*
X61666039Y-140852154D01*
X62082212Y-140679769D01*
X62481777Y-140471769D01*
X62861693Y-140229736D01*
X63095462Y-140050359D01*
X63216901Y-139957176D01*
X63216907Y-139957171D01*
X63219069Y-139955512D01*
X63551184Y-139651184D01*
X63855512Y-139319069D01*
X63878739Y-139288800D01*
X64064832Y-139046277D01*
X64129736Y-138961693D01*
X64371769Y-138581777D01*
X64579769Y-138182212D01*
X64584557Y-138170654D01*
X64640149Y-138036443D01*
X64752154Y-137766039D01*
X64791125Y-137642441D01*
X64886781Y-137339056D01*
X64886782Y-137339051D01*
X64887610Y-137336426D01*
X64985108Y-136896642D01*
X65043905Y-136450033D01*
X65044555Y-136435159D01*
X65063434Y-136002748D01*
X65063554Y-136000000D01*
X69611445Y-136000000D01*
X69631651Y-136385559D01*
X69632164Y-136388799D01*
X69632165Y-136388807D01*
X69659970Y-136564357D01*
X69692049Y-136766894D01*
X69791976Y-137139826D01*
X69793161Y-137142914D01*
X69793162Y-137142916D01*
X69818724Y-137209508D01*
X69930337Y-137500270D01*
X69931835Y-137503210D01*
X70088008Y-137809715D01*
X70105618Y-137844277D01*
X70107414Y-137847043D01*
X70107416Y-137847046D01*
X70115545Y-137859563D01*
X70315896Y-138168078D01*
X70558869Y-138468125D01*
X70831875Y-138741131D01*
X71131922Y-138984104D01*
X71455722Y-139194382D01*
X71458656Y-139195877D01*
X71458663Y-139195881D01*
X71647602Y-139292150D01*
X71799730Y-139369663D01*
X72160174Y-139508024D01*
X72533106Y-139607951D01*
X72687710Y-139632438D01*
X72911193Y-139667835D01*
X72911201Y-139667836D01*
X72914441Y-139668349D01*
X73300000Y-139688555D01*
X73685559Y-139668349D01*
X73688799Y-139667836D01*
X73688807Y-139667835D01*
X73912290Y-139632438D01*
X74066894Y-139607951D01*
X74439826Y-139508024D01*
X74800270Y-139369663D01*
X74952398Y-139292150D01*
X75141337Y-139195881D01*
X75141344Y-139195877D01*
X75144278Y-139194382D01*
X75468078Y-138984104D01*
X75768125Y-138741131D01*
X76041131Y-138468125D01*
X76284104Y-138168078D01*
X76484455Y-137859563D01*
X76492584Y-137847046D01*
X76492586Y-137847043D01*
X76494382Y-137844277D01*
X76511993Y-137809715D01*
X76668165Y-137503210D01*
X76669663Y-137500270D01*
X76781276Y-137209508D01*
X76806838Y-137142916D01*
X76806839Y-137142914D01*
X76808024Y-137139826D01*
X76907951Y-136766894D01*
X76940030Y-136564357D01*
X76967835Y-136388807D01*
X76967836Y-136388799D01*
X76968349Y-136385559D01*
X76981600Y-136132703D01*
X102340743Y-136132703D01*
X102378268Y-136417734D01*
X102454129Y-136695036D01*
X102455813Y-136698984D01*
X102538960Y-136893917D01*
X102566923Y-136959476D01*
X102578693Y-136979142D01*
X102681340Y-137150652D01*
X102714561Y-137206161D01*
X102894313Y-137430528D01*
X103102851Y-137628423D01*
X103336317Y-137796186D01*
X103340112Y-137798195D01*
X103340113Y-137798196D01*
X103361869Y-137809715D01*
X103590392Y-137930712D01*
X103860373Y-138029511D01*
X104141264Y-138090755D01*
X104169841Y-138093004D01*
X104364282Y-138108307D01*
X104364291Y-138108307D01*
X104366739Y-138108500D01*
X104522271Y-138108500D01*
X104524407Y-138108354D01*
X104524418Y-138108354D01*
X104732548Y-138094165D01*
X104732554Y-138094164D01*
X104736825Y-138093873D01*
X104741020Y-138093004D01*
X104741022Y-138093004D01*
X104877584Y-138064723D01*
X105018342Y-138035574D01*
X105289343Y-137939607D01*
X105435918Y-137863954D01*
X105541005Y-137809715D01*
X105541006Y-137809715D01*
X105544812Y-137807750D01*
X105548313Y-137805289D01*
X105548317Y-137805287D01*
X105662418Y-137725095D01*
X105780023Y-137642441D01*
X105918895Y-137513393D01*
X105987479Y-137449661D01*
X105987481Y-137449658D01*
X105990622Y-137446740D01*
X106172713Y-137224268D01*
X106322927Y-136979142D01*
X106357963Y-136899329D01*
X106436757Y-136719830D01*
X106438483Y-136715898D01*
X106517244Y-136439406D01*
X106557751Y-136154784D01*
X106557845Y-136136951D01*
X106558562Y-136000000D01*
X111286411Y-136000000D01*
X111306754Y-136388176D01*
X111307267Y-136391416D01*
X111307268Y-136391424D01*
X111314195Y-136435159D01*
X111367562Y-136772099D01*
X111468167Y-137147562D01*
X111607468Y-137510453D01*
X111608966Y-137513393D01*
X111776062Y-137841336D01*
X111783938Y-137856794D01*
X111785734Y-137859560D01*
X111785736Y-137859563D01*
X111947302Y-138108354D01*
X111995643Y-138182793D01*
X112240266Y-138484876D01*
X112515124Y-138759734D01*
X112517682Y-138761806D01*
X112517686Y-138761809D01*
X112553215Y-138790580D01*
X112817207Y-139004357D01*
X112819970Y-139006152D01*
X112819971Y-139006152D01*
X113109822Y-139194382D01*
X113143206Y-139216062D01*
X113146140Y-139217557D01*
X113146147Y-139217561D01*
X113441724Y-139368165D01*
X113489547Y-139392532D01*
X113662673Y-139458989D01*
X113790414Y-139508024D01*
X113852438Y-139531833D01*
X114227901Y-139632438D01*
X114431793Y-139664732D01*
X114608576Y-139692732D01*
X114608584Y-139692733D01*
X114611824Y-139693246D01*
X114902894Y-139708500D01*
X115097106Y-139708500D01*
X115388176Y-139693246D01*
X115391416Y-139692733D01*
X115391424Y-139692732D01*
X115568207Y-139664732D01*
X115772099Y-139632438D01*
X116147562Y-139531833D01*
X116209587Y-139508024D01*
X116337327Y-139458989D01*
X116510453Y-139392532D01*
X116558276Y-139368165D01*
X116853853Y-139217561D01*
X116853860Y-139217557D01*
X116856794Y-139216062D01*
X116890179Y-139194382D01*
X117180029Y-139006152D01*
X117180030Y-139006152D01*
X117182793Y-139004357D01*
X117446785Y-138790580D01*
X117482314Y-138761809D01*
X117482318Y-138761806D01*
X117484876Y-138759734D01*
X117759734Y-138484876D01*
X118004357Y-138182793D01*
X118062102Y-138093873D01*
X118214264Y-137859564D01*
X118214266Y-137859561D01*
X118216062Y-137856795D01*
X118217562Y-137853853D01*
X118391034Y-137513393D01*
X118392532Y-137510453D01*
X118531833Y-137147562D01*
X118632438Y-136772099D01*
X118685805Y-136435159D01*
X118692732Y-136391424D01*
X118692733Y-136391416D01*
X118693246Y-136388176D01*
X118713589Y-136000000D01*
X118712882Y-135986514D01*
X132136565Y-135986514D01*
X132154980Y-136377008D01*
X132155452Y-136380165D01*
X132155452Y-136380167D01*
X132160518Y-136414065D01*
X132212763Y-136763641D01*
X132213549Y-136766723D01*
X132213549Y-136766725D01*
X132223648Y-136806343D01*
X132309321Y-137142456D01*
X132443667Y-137509574D01*
X132614425Y-137861236D01*
X132616104Y-137863954D01*
X132813023Y-138182793D01*
X132819846Y-138193841D01*
X132821787Y-138196371D01*
X132821788Y-138196372D01*
X133030312Y-138468125D01*
X133057828Y-138503985D01*
X133325933Y-138788491D01*
X133328338Y-138790575D01*
X133328344Y-138790580D01*
X133360462Y-138818401D01*
X133621417Y-139044447D01*
X133941254Y-139269233D01*
X134282170Y-139460546D01*
X134640674Y-139616428D01*
X135013096Y-139735283D01*
X135016229Y-139735943D01*
X135016232Y-139735944D01*
X135392494Y-139815234D01*
X135392497Y-139815235D01*
X135395622Y-139815893D01*
X135784336Y-139857435D01*
X135787523Y-139857452D01*
X135787529Y-139857452D01*
X135964895Y-139858380D01*
X136175258Y-139859482D01*
X136322592Y-139845295D01*
X136561221Y-139822318D01*
X136561226Y-139822317D01*
X136564386Y-139822013D01*
X136567505Y-139821390D01*
X136567510Y-139821389D01*
X136756412Y-139783642D01*
X136947735Y-139745412D01*
X137234089Y-139657318D01*
X137318339Y-139631400D01*
X137318342Y-139631399D01*
X137321381Y-139630464D01*
X137324309Y-139629227D01*
X137324315Y-139629225D01*
X137486219Y-139560834D01*
X137681498Y-139478345D01*
X137684301Y-139476811D01*
X137684306Y-139476808D01*
X137882745Y-139368165D01*
X138024398Y-139290612D01*
X138346572Y-139069188D01*
X138378204Y-139042362D01*
X138642290Y-138818401D01*
X138642292Y-138818399D01*
X138644720Y-138816340D01*
X138646925Y-138814048D01*
X138646931Y-138814043D01*
X138757327Y-138699324D01*
X138915790Y-138534657D01*
X139157006Y-138227023D01*
X139183348Y-138185355D01*
X139339946Y-137937641D01*
X139365899Y-137896587D01*
X139367319Y-137893739D01*
X139367324Y-137893730D01*
X139538910Y-137549580D01*
X139540330Y-137546732D01*
X139678513Y-137181041D01*
X139688271Y-137144370D01*
X139753471Y-136899329D01*
X139779033Y-136803258D01*
X139784547Y-136768838D01*
X139837312Y-136439406D01*
X139840861Y-136417251D01*
X139842689Y-136385559D01*
X139857268Y-136132703D01*
X139863365Y-136026972D01*
X139863459Y-136000000D01*
X139856522Y-135863049D01*
X139843842Y-135612746D01*
X139843841Y-135612741D01*
X139843681Y-135609573D01*
X139793877Y-135284102D01*
X139785033Y-135226304D01*
X139785031Y-135226295D01*
X139784549Y-135223144D01*
X139736367Y-135036837D01*
X139687465Y-134847748D01*
X139687462Y-134847740D01*
X139686668Y-134844668D01*
X139683047Y-134834879D01*
X139552151Y-134481019D01*
X139552148Y-134481013D01*
X139551042Y-134478022D01*
X139379057Y-134126958D01*
X139373503Y-134118034D01*
X139174162Y-133797781D01*
X139172476Y-133795072D01*
X138933414Y-133485760D01*
X138664317Y-133202192D01*
X138661893Y-133200107D01*
X138370356Y-132949346D01*
X138370353Y-132949344D01*
X138367941Y-132947269D01*
X138365333Y-132945449D01*
X138365327Y-132945445D01*
X138049934Y-132725424D01*
X138047321Y-132723601D01*
X137838672Y-132607468D01*
X137708525Y-132535029D01*
X137708523Y-132535028D01*
X137705740Y-132533479D01*
X137702820Y-132532221D01*
X137702815Y-132532219D01*
X137349628Y-132380112D01*
X137349618Y-132380108D01*
X137346694Y-132378849D01*
X136973860Y-132261295D01*
X136699971Y-132204575D01*
X136594180Y-132182667D01*
X136594177Y-132182667D01*
X136591055Y-132182020D01*
X136307344Y-132152702D01*
X136205354Y-132142162D01*
X136205351Y-132142162D01*
X136202198Y-132141836D01*
X136199031Y-132141830D01*
X136199022Y-132141830D01*
X136006362Y-132141494D01*
X135811271Y-132141153D01*
X135422276Y-132179980D01*
X135039197Y-132257919D01*
X134665955Y-132374171D01*
X134622036Y-132392904D01*
X134309301Y-132526296D01*
X134309297Y-132526298D01*
X134306371Y-132527546D01*
X134303592Y-132529080D01*
X134303586Y-132529083D01*
X134032173Y-132678911D01*
X133964128Y-132716474D01*
X133961507Y-132718289D01*
X133961502Y-132718292D01*
X133832791Y-132807416D01*
X133642729Y-132939021D01*
X133345466Y-133192909D01*
X133075381Y-133475536D01*
X133073424Y-133478049D01*
X133073423Y-133478051D01*
X133044563Y-133515124D01*
X132835240Y-133784011D01*
X132833544Y-133786715D01*
X132833541Y-133786719D01*
X132756108Y-133910158D01*
X132627501Y-134115174D01*
X132626091Y-134118026D01*
X132626087Y-134118034D01*
X132502016Y-134369074D01*
X132454293Y-134465635D01*
X132317387Y-134831806D01*
X132218186Y-135209938D01*
X132203305Y-135304964D01*
X132159881Y-135582266D01*
X132157705Y-135596159D01*
X132157534Y-135599318D01*
X132157533Y-135599327D01*
X132144447Y-135840964D01*
X132136565Y-135986514D01*
X118712882Y-135986514D01*
X118693246Y-135611824D01*
X118688565Y-135582266D01*
X118645299Y-135309103D01*
X118632438Y-135227901D01*
X118531833Y-134852438D01*
X118528851Y-134844668D01*
X118393716Y-134492632D01*
X118392532Y-134489547D01*
X118380348Y-134465635D01*
X118217561Y-134146147D01*
X118217557Y-134146140D01*
X118216062Y-134143206D01*
X118205511Y-134126958D01*
X118006152Y-133819971D01*
X118006152Y-133819970D01*
X118004357Y-133817207D01*
X117759734Y-133515124D01*
X117484876Y-133240266D01*
X117429236Y-133195209D01*
X117333834Y-133117954D01*
X117182793Y-132995643D01*
X117180029Y-132993848D01*
X116859563Y-132785736D01*
X116859560Y-132785734D01*
X116856794Y-132783938D01*
X116853860Y-132782443D01*
X116853853Y-132782439D01*
X116513393Y-132608966D01*
X116510453Y-132607468D01*
X116212676Y-132493162D01*
X116150652Y-132469353D01*
X116150650Y-132469352D01*
X116147562Y-132468167D01*
X115772099Y-132367562D01*
X115568207Y-132335268D01*
X115391424Y-132307268D01*
X115391416Y-132307267D01*
X115388176Y-132306754D01*
X115097106Y-132291500D01*
X114902894Y-132291500D01*
X114611824Y-132306754D01*
X114608584Y-132307267D01*
X114608576Y-132307268D01*
X114431793Y-132335268D01*
X114227901Y-132367562D01*
X113852438Y-132468167D01*
X113849350Y-132469352D01*
X113849348Y-132469353D01*
X113787324Y-132493162D01*
X113489547Y-132607468D01*
X113486607Y-132608966D01*
X113146147Y-132782439D01*
X113146140Y-132782443D01*
X113143206Y-132783938D01*
X113140440Y-132785734D01*
X113140437Y-132785736D01*
X112819971Y-132993848D01*
X112817207Y-132995643D01*
X112666166Y-133117954D01*
X112570765Y-133195209D01*
X112515124Y-133240266D01*
X112240266Y-133515124D01*
X111995643Y-133817207D01*
X111993848Y-133819970D01*
X111993848Y-133819971D01*
X111785736Y-134140436D01*
X111785734Y-134140439D01*
X111783938Y-134143205D01*
X111782443Y-134146139D01*
X111782439Y-134146146D01*
X111619652Y-134465635D01*
X111607468Y-134489547D01*
X111606284Y-134492632D01*
X111471150Y-134844668D01*
X111468167Y-134852438D01*
X111367562Y-135227901D01*
X111354701Y-135309103D01*
X111311436Y-135582266D01*
X111306754Y-135611824D01*
X111286411Y-136000000D01*
X106558562Y-136000000D01*
X106559235Y-135871583D01*
X106559235Y-135871576D01*
X106559257Y-135867297D01*
X106521732Y-135582266D01*
X106445871Y-135304964D01*
X106413001Y-135227901D01*
X106334763Y-135044476D01*
X106334761Y-135044472D01*
X106333077Y-135040524D01*
X106225140Y-134860174D01*
X106187643Y-134797521D01*
X106187640Y-134797517D01*
X106185439Y-134793839D01*
X106005687Y-134569472D01*
X105797149Y-134371577D01*
X105563683Y-134203814D01*
X105541843Y-134192250D01*
X105518654Y-134179972D01*
X105309608Y-134069288D01*
X105039627Y-133970489D01*
X104758736Y-133909245D01*
X104727685Y-133906801D01*
X104535718Y-133891693D01*
X104535709Y-133891693D01*
X104533261Y-133891500D01*
X104377729Y-133891500D01*
X104375593Y-133891646D01*
X104375582Y-133891646D01*
X104167452Y-133905835D01*
X104167446Y-133905836D01*
X104163175Y-133906127D01*
X104158980Y-133906996D01*
X104158978Y-133906996D01*
X104022416Y-133935277D01*
X103881658Y-133964426D01*
X103610657Y-134060393D01*
X103355188Y-134192250D01*
X103351687Y-134194711D01*
X103351683Y-134194713D01*
X103295839Y-134233961D01*
X103119977Y-134357559D01*
X103104892Y-134371577D01*
X102990344Y-134478022D01*
X102909378Y-134553260D01*
X102727287Y-134775732D01*
X102577073Y-135020858D01*
X102575347Y-135024791D01*
X102575346Y-135024792D01*
X102485303Y-135229917D01*
X102461517Y-135284102D01*
X102382756Y-135560594D01*
X102342249Y-135845216D01*
X102342227Y-135849505D01*
X102342226Y-135849512D01*
X102341288Y-136028665D01*
X102340743Y-136132703D01*
X76981600Y-136132703D01*
X76988555Y-136000000D01*
X76968349Y-135614441D01*
X76965956Y-135599327D01*
X76918707Y-135301016D01*
X76907951Y-135233106D01*
X76808024Y-134860174D01*
X76805055Y-134852438D01*
X76670847Y-134502815D01*
X76669663Y-134499730D01*
X76666046Y-134492632D01*
X76495881Y-134158664D01*
X76495877Y-134158657D01*
X76494382Y-134155723D01*
X76486254Y-134143206D01*
X76285906Y-133834697D01*
X76284104Y-133831922D01*
X76041131Y-133531875D01*
X75768125Y-133258869D01*
X75468078Y-133015896D01*
X75144278Y-132805618D01*
X75141344Y-132804123D01*
X75141337Y-132804119D01*
X74803210Y-132631835D01*
X74800270Y-132630337D01*
X74439826Y-132491976D01*
X74066894Y-132392049D01*
X73864357Y-132359970D01*
X73688807Y-132332165D01*
X73688799Y-132332164D01*
X73685559Y-132331651D01*
X73300000Y-132311445D01*
X72914441Y-132331651D01*
X72911201Y-132332164D01*
X72911193Y-132332165D01*
X72735643Y-132359970D01*
X72533106Y-132392049D01*
X72160174Y-132491976D01*
X71799730Y-132630337D01*
X71796790Y-132631835D01*
X71458664Y-132804119D01*
X71458657Y-132804123D01*
X71455723Y-132805618D01*
X71131922Y-133015896D01*
X70831875Y-133258869D01*
X70558869Y-133531875D01*
X70315896Y-133831922D01*
X70314094Y-133834697D01*
X70113747Y-134143206D01*
X70105618Y-134155723D01*
X70104123Y-134158657D01*
X70104119Y-134158664D01*
X69933954Y-134492632D01*
X69930337Y-134499730D01*
X69929153Y-134502815D01*
X69794946Y-134852438D01*
X69791976Y-134860174D01*
X69692049Y-135233106D01*
X69681293Y-135301016D01*
X69634045Y-135599327D01*
X69631651Y-135614441D01*
X69611445Y-136000000D01*
X65063554Y-136000000D01*
X65046864Y-135617731D01*
X65044026Y-135552727D01*
X65044025Y-135552716D01*
X65043905Y-135549967D01*
X64999553Y-135213082D01*
X64985467Y-135106083D01*
X64985466Y-135106077D01*
X64985108Y-135103358D01*
X64887610Y-134663574D01*
X64853875Y-134556579D01*
X64752983Y-134236589D01*
X64752980Y-134236581D01*
X64752154Y-134233961D01*
X64585624Y-133831922D01*
X64580822Y-133820330D01*
X64580821Y-133820329D01*
X64579769Y-133817788D01*
X64371769Y-133418223D01*
X64129736Y-133038307D01*
X63888254Y-132723601D01*
X63857176Y-132683099D01*
X63857171Y-132683093D01*
X63855512Y-132680931D01*
X63551184Y-132348816D01*
X63219069Y-132044488D01*
X63216907Y-132042829D01*
X63216901Y-132042824D01*
X63095462Y-131949641D01*
X62861693Y-131770264D01*
X62481777Y-131528231D01*
X62082212Y-131320231D01*
X61666039Y-131147846D01*
X61663419Y-131147020D01*
X61663411Y-131147017D01*
X61239056Y-131013219D01*
X61239051Y-131013218D01*
X61236426Y-131012390D01*
X60796642Y-130914892D01*
X60793923Y-130914534D01*
X60793917Y-130914533D01*
X60626326Y-130892470D01*
X60350033Y-130856095D01*
X60347284Y-130855975D01*
X60347273Y-130855974D01*
X60017131Y-130841560D01*
X60017127Y-130841560D01*
X60015755Y-130841500D01*
X59784245Y-130841500D01*
X59782873Y-130841560D01*
X59782869Y-130841560D01*
X59452727Y-130855974D01*
X59452716Y-130855975D01*
X59449967Y-130856095D01*
X59173674Y-130892470D01*
X59006083Y-130914533D01*
X59006077Y-130914534D01*
X59003358Y-130914892D01*
X58563574Y-131012390D01*
X58560949Y-131013218D01*
X58560944Y-131013219D01*
X58136589Y-131147017D01*
X58136581Y-131147020D01*
X58133961Y-131147846D01*
X57717788Y-131320231D01*
X57318223Y-131528231D01*
X56938307Y-131770264D01*
X56704538Y-131949641D01*
X56583099Y-132042824D01*
X56583093Y-132042829D01*
X56580931Y-132044488D01*
X56248816Y-132348816D01*
X55944488Y-132680931D01*
X55942829Y-132683093D01*
X55942824Y-132683099D01*
X55911746Y-132723601D01*
X55670264Y-133038307D01*
X55428231Y-133418223D01*
X55220231Y-133817788D01*
X55219179Y-133820329D01*
X55219178Y-133820330D01*
X55214376Y-133831922D01*
X55047846Y-134233961D01*
X55047020Y-134236581D01*
X55047017Y-134236589D01*
X54946125Y-134556579D01*
X54912390Y-134663574D01*
X54814892Y-135103358D01*
X54814534Y-135106077D01*
X54814533Y-135106083D01*
X54800447Y-135213082D01*
X54756095Y-135549967D01*
X54755975Y-135552716D01*
X54755974Y-135552727D01*
X54753136Y-135617731D01*
X54736446Y-136000000D01*
X49263459Y-136000000D01*
X49256522Y-135863049D01*
X49243842Y-135612746D01*
X49243841Y-135612741D01*
X49243681Y-135609573D01*
X49193877Y-135284102D01*
X49185033Y-135226304D01*
X49185031Y-135226295D01*
X49184549Y-135223144D01*
X49136367Y-135036837D01*
X49087465Y-134847748D01*
X49087462Y-134847740D01*
X49086668Y-134844668D01*
X49083047Y-134834879D01*
X48952151Y-134481019D01*
X48952148Y-134481013D01*
X48951042Y-134478022D01*
X48779057Y-134126958D01*
X48773503Y-134118034D01*
X48574162Y-133797781D01*
X48572476Y-133795072D01*
X48333414Y-133485760D01*
X48064317Y-133202192D01*
X48061893Y-133200107D01*
X47770356Y-132949346D01*
X47770353Y-132949344D01*
X47767941Y-132947269D01*
X47765333Y-132945449D01*
X47765327Y-132945445D01*
X47449934Y-132725424D01*
X47447321Y-132723601D01*
X47238672Y-132607468D01*
X47108525Y-132535029D01*
X47108523Y-132535028D01*
X47105740Y-132533479D01*
X47102820Y-132532221D01*
X47102815Y-132532219D01*
X46749628Y-132380112D01*
X46749618Y-132380108D01*
X46746694Y-132378849D01*
X46373860Y-132261295D01*
X46099971Y-132204575D01*
X45994180Y-132182667D01*
X45994177Y-132182667D01*
X45991055Y-132182020D01*
X45707344Y-132152702D01*
X45605354Y-132142162D01*
X45605351Y-132142162D01*
X45602198Y-132141836D01*
X45599031Y-132141830D01*
X45599022Y-132141830D01*
X45406362Y-132141494D01*
X45211271Y-132141153D01*
X44822276Y-132179980D01*
X44439197Y-132257919D01*
X44065955Y-132374171D01*
X44022036Y-132392904D01*
X43709301Y-132526296D01*
X43709297Y-132526298D01*
X43706371Y-132527546D01*
X43703592Y-132529080D01*
X43703586Y-132529083D01*
X43432173Y-132678911D01*
X43364128Y-132716474D01*
X43361507Y-132718289D01*
X43361502Y-132718292D01*
X43232791Y-132807416D01*
X43042729Y-132939021D01*
X42745466Y-133192909D01*
X42475381Y-133475536D01*
X42473424Y-133478049D01*
X42473423Y-133478051D01*
X42444563Y-133515124D01*
X42235240Y-133784011D01*
X42233544Y-133786715D01*
X42233541Y-133786719D01*
X42156108Y-133910158D01*
X42027501Y-134115174D01*
X42026091Y-134118026D01*
X42026087Y-134118034D01*
X41902016Y-134369074D01*
X41854293Y-134465635D01*
X41717387Y-134831806D01*
X41618186Y-135209938D01*
X41603305Y-135304964D01*
X41559881Y-135582266D01*
X41557705Y-135596159D01*
X41557534Y-135599318D01*
X41557533Y-135599327D01*
X41544447Y-135840964D01*
X41536565Y-135986514D01*
X40508000Y-135986514D01*
X40508000Y-121607655D01*
X58139858Y-121607655D01*
X58175104Y-121866638D01*
X58176412Y-121871124D01*
X58176412Y-121871126D01*
X58196098Y-121938664D01*
X58248243Y-122117567D01*
X58357668Y-122354928D01*
X58360231Y-122358837D01*
X58498410Y-122569596D01*
X58498414Y-122569601D01*
X58500976Y-122573509D01*
X58675018Y-122768506D01*
X58875970Y-122935637D01*
X58879973Y-122938066D01*
X59095422Y-123068804D01*
X59095426Y-123068806D01*
X59099419Y-123071229D01*
X59340455Y-123172303D01*
X59593783Y-123236641D01*
X59598434Y-123237109D01*
X59598438Y-123237110D01*
X59791308Y-123256531D01*
X59810867Y-123258500D01*
X59966354Y-123258500D01*
X59968679Y-123258327D01*
X59968685Y-123258327D01*
X60156000Y-123244407D01*
X60156004Y-123244406D01*
X60160652Y-123244061D01*
X60165200Y-123243032D01*
X60165206Y-123243031D01*
X60351601Y-123200853D01*
X60415577Y-123186377D01*
X60451769Y-123172303D01*
X60654824Y-123093340D01*
X60654827Y-123093339D01*
X60659177Y-123091647D01*
X60886098Y-122961951D01*
X61091357Y-122800138D01*
X61270443Y-122609763D01*
X61419424Y-122395009D01*
X61535025Y-122160593D01*
X61614707Y-121911665D01*
X61656721Y-121653693D01*
X61660142Y-121392345D01*
X61624896Y-121133362D01*
X61610473Y-121083877D01*
X61553068Y-120886932D01*
X61551757Y-120882433D01*
X61442332Y-120645072D01*
X61409519Y-120595024D01*
X61301590Y-120430404D01*
X61301586Y-120430399D01*
X61299024Y-120426491D01*
X61124982Y-120231494D01*
X60924030Y-120064363D01*
X60876844Y-120035730D01*
X60704578Y-119931196D01*
X60704574Y-119931194D01*
X60700581Y-119928771D01*
X60459545Y-119827697D01*
X60206217Y-119763359D01*
X60201566Y-119762891D01*
X60201562Y-119762890D01*
X59992271Y-119741816D01*
X59989133Y-119741500D01*
X59833646Y-119741500D01*
X59831321Y-119741673D01*
X59831315Y-119741673D01*
X59644000Y-119755593D01*
X59643996Y-119755594D01*
X59639348Y-119755939D01*
X59634800Y-119756968D01*
X59634794Y-119756969D01*
X59448399Y-119799147D01*
X59384423Y-119813623D01*
X59380071Y-119815315D01*
X59380069Y-119815316D01*
X59145176Y-119906660D01*
X59145173Y-119906661D01*
X59140823Y-119908353D01*
X58913902Y-120038049D01*
X58708643Y-120199862D01*
X58529557Y-120390237D01*
X58380576Y-120604991D01*
X58264975Y-120839407D01*
X58185293Y-121088335D01*
X58143279Y-121346307D01*
X58139858Y-121607655D01*
X40508000Y-121607655D01*
X40508000Y-113986514D01*
X41536565Y-113986514D01*
X41554980Y-114377008D01*
X41555452Y-114380165D01*
X41555452Y-114380167D01*
X41560518Y-114414065D01*
X41612763Y-114763641D01*
X41613549Y-114766723D01*
X41613549Y-114766725D01*
X41623648Y-114806343D01*
X41709321Y-115142456D01*
X41843667Y-115509574D01*
X42014425Y-115861236D01*
X42016104Y-115863954D01*
X42213023Y-116182793D01*
X42219846Y-116193841D01*
X42221787Y-116196371D01*
X42221788Y-116196372D01*
X42430312Y-116468125D01*
X42457828Y-116503985D01*
X42725933Y-116788491D01*
X42728338Y-116790575D01*
X42728344Y-116790580D01*
X42760462Y-116818401D01*
X43021417Y-117044447D01*
X43341254Y-117269233D01*
X43682170Y-117460546D01*
X44040674Y-117616428D01*
X44413096Y-117735283D01*
X44416229Y-117735943D01*
X44416232Y-117735944D01*
X44792494Y-117815234D01*
X44792497Y-117815235D01*
X44795622Y-117815893D01*
X45184336Y-117857435D01*
X45187523Y-117857452D01*
X45187529Y-117857452D01*
X45364895Y-117858380D01*
X45575258Y-117859482D01*
X45722592Y-117845295D01*
X45961221Y-117822318D01*
X45961226Y-117822317D01*
X45964386Y-117822013D01*
X45967505Y-117821390D01*
X45967510Y-117821389D01*
X46156412Y-117783642D01*
X46347735Y-117745412D01*
X46634089Y-117657318D01*
X46718339Y-117631400D01*
X46718342Y-117631399D01*
X46721381Y-117630464D01*
X46724309Y-117629227D01*
X46724315Y-117629225D01*
X46886219Y-117560834D01*
X47081498Y-117478345D01*
X47084301Y-117476811D01*
X47084306Y-117476808D01*
X47282745Y-117368165D01*
X47424398Y-117290612D01*
X47746572Y-117069188D01*
X47778204Y-117042362D01*
X48042290Y-116818401D01*
X48042292Y-116818399D01*
X48044720Y-116816340D01*
X48046925Y-116814048D01*
X48046931Y-116814043D01*
X48157327Y-116699324D01*
X48315790Y-116534657D01*
X48557006Y-116227023D01*
X48583348Y-116185355D01*
X48739946Y-115937641D01*
X48765899Y-115896587D01*
X48767319Y-115893739D01*
X48767324Y-115893730D01*
X48938910Y-115549580D01*
X48940330Y-115546732D01*
X49078513Y-115181041D01*
X49088271Y-115144370D01*
X49153471Y-114899329D01*
X49179033Y-114803258D01*
X49184547Y-114768838D01*
X49237312Y-114439406D01*
X49240861Y-114417251D01*
X49242689Y-114385559D01*
X49257268Y-114132703D01*
X49263365Y-114026972D01*
X49263459Y-114000000D01*
X54736446Y-114000000D01*
X54736566Y-114002748D01*
X54755446Y-114435159D01*
X54756095Y-114450033D01*
X54814892Y-114896642D01*
X54912390Y-115336426D01*
X54913218Y-115339051D01*
X54913219Y-115339056D01*
X55008876Y-115642441D01*
X55047846Y-115766039D01*
X55159851Y-116036443D01*
X55215444Y-116170654D01*
X55220231Y-116182212D01*
X55428231Y-116581777D01*
X55670264Y-116961693D01*
X55735168Y-117046277D01*
X55921262Y-117288800D01*
X55944488Y-117319069D01*
X56248816Y-117651184D01*
X56580931Y-117955512D01*
X56583093Y-117957171D01*
X56583099Y-117957176D01*
X56704538Y-118050359D01*
X56938307Y-118229736D01*
X57318223Y-118471769D01*
X57717788Y-118679769D01*
X58133961Y-118852154D01*
X58136581Y-118852980D01*
X58136589Y-118852983D01*
X58560944Y-118986781D01*
X58560949Y-118986782D01*
X58563574Y-118987610D01*
X59003358Y-119085108D01*
X59006077Y-119085466D01*
X59006083Y-119085467D01*
X59173674Y-119107530D01*
X59449967Y-119143905D01*
X59452716Y-119144025D01*
X59452727Y-119144026D01*
X59782869Y-119158440D01*
X59782873Y-119158440D01*
X59784245Y-119158500D01*
X60015755Y-119158500D01*
X60017127Y-119158440D01*
X60017131Y-119158440D01*
X60347273Y-119144026D01*
X60347284Y-119144025D01*
X60350033Y-119143905D01*
X60626326Y-119107530D01*
X60793917Y-119085467D01*
X60793923Y-119085466D01*
X60796642Y-119085108D01*
X61236426Y-118987610D01*
X61239051Y-118986782D01*
X61239056Y-118986781D01*
X61663411Y-118852983D01*
X61663419Y-118852980D01*
X61666039Y-118852154D01*
X62082212Y-118679769D01*
X62481777Y-118471769D01*
X62861693Y-118229736D01*
X63095462Y-118050359D01*
X63216901Y-117957176D01*
X63216907Y-117957171D01*
X63219069Y-117955512D01*
X63551184Y-117651184D01*
X63855512Y-117319069D01*
X63878739Y-117288800D01*
X64064832Y-117046277D01*
X64129736Y-116961693D01*
X64371769Y-116581777D01*
X64579769Y-116182212D01*
X64584557Y-116170654D01*
X64640149Y-116036443D01*
X64752154Y-115766039D01*
X64791125Y-115642441D01*
X64886781Y-115339056D01*
X64886782Y-115339051D01*
X64887610Y-115336426D01*
X64985108Y-114896642D01*
X65043905Y-114450033D01*
X65044555Y-114435159D01*
X65063434Y-114002748D01*
X65063554Y-114000000D01*
X69611445Y-114000000D01*
X69631651Y-114385559D01*
X69632164Y-114388799D01*
X69632165Y-114388807D01*
X69659970Y-114564357D01*
X69692049Y-114766894D01*
X69791976Y-115139826D01*
X69793161Y-115142914D01*
X69793162Y-115142916D01*
X69818724Y-115209508D01*
X69930337Y-115500270D01*
X69931835Y-115503210D01*
X70088008Y-115809715D01*
X70105618Y-115844277D01*
X70107414Y-115847043D01*
X70107416Y-115847046D01*
X70115545Y-115859563D01*
X70315896Y-116168078D01*
X70558869Y-116468125D01*
X70831875Y-116741131D01*
X71131922Y-116984104D01*
X71455722Y-117194382D01*
X71458656Y-117195877D01*
X71458663Y-117195881D01*
X71647602Y-117292150D01*
X71799730Y-117369663D01*
X72160174Y-117508024D01*
X72533106Y-117607951D01*
X72687710Y-117632438D01*
X72911193Y-117667835D01*
X72911201Y-117667836D01*
X72914441Y-117668349D01*
X73300000Y-117688555D01*
X73685559Y-117668349D01*
X73688799Y-117667836D01*
X73688807Y-117667835D01*
X73912290Y-117632438D01*
X74066894Y-117607951D01*
X74439826Y-117508024D01*
X74800270Y-117369663D01*
X74952398Y-117292150D01*
X75141337Y-117195881D01*
X75141344Y-117195877D01*
X75144278Y-117194382D01*
X75468078Y-116984104D01*
X75768125Y-116741131D01*
X76041131Y-116468125D01*
X76284104Y-116168078D01*
X76484455Y-115859563D01*
X76492584Y-115847046D01*
X76492586Y-115847043D01*
X76494382Y-115844277D01*
X76511993Y-115809715D01*
X76668165Y-115503210D01*
X76669663Y-115500270D01*
X76781276Y-115209508D01*
X76806838Y-115142916D01*
X76806839Y-115142914D01*
X76808024Y-115139826D01*
X76907951Y-114766894D01*
X76940030Y-114564357D01*
X76967835Y-114388807D01*
X76967836Y-114388799D01*
X76968349Y-114385559D01*
X76981600Y-114132703D01*
X102340743Y-114132703D01*
X102378268Y-114417734D01*
X102454129Y-114695036D01*
X102455813Y-114698984D01*
X102538960Y-114893917D01*
X102566923Y-114959476D01*
X102578693Y-114979142D01*
X102681340Y-115150652D01*
X102714561Y-115206161D01*
X102894313Y-115430528D01*
X103102851Y-115628423D01*
X103336317Y-115796186D01*
X103340112Y-115798195D01*
X103340113Y-115798196D01*
X103361869Y-115809715D01*
X103590392Y-115930712D01*
X103860373Y-116029511D01*
X104141264Y-116090755D01*
X104169841Y-116093004D01*
X104364282Y-116108307D01*
X104364291Y-116108307D01*
X104366739Y-116108500D01*
X104522271Y-116108500D01*
X104524407Y-116108354D01*
X104524418Y-116108354D01*
X104732548Y-116094165D01*
X104732554Y-116094164D01*
X104736825Y-116093873D01*
X104741020Y-116093004D01*
X104741022Y-116093004D01*
X104877584Y-116064723D01*
X105018342Y-116035574D01*
X105289343Y-115939607D01*
X105435918Y-115863954D01*
X105541005Y-115809715D01*
X105541006Y-115809715D01*
X105544812Y-115807750D01*
X105548313Y-115805289D01*
X105548317Y-115805287D01*
X105662417Y-115725096D01*
X105780023Y-115642441D01*
X105918895Y-115513393D01*
X105987479Y-115449661D01*
X105987481Y-115449658D01*
X105990622Y-115446740D01*
X106172713Y-115224268D01*
X106322927Y-114979142D01*
X106357963Y-114899329D01*
X106436757Y-114719830D01*
X106438483Y-114715898D01*
X106517244Y-114439406D01*
X106557751Y-114154784D01*
X106557845Y-114136951D01*
X106558562Y-114000000D01*
X111286411Y-114000000D01*
X111306754Y-114388176D01*
X111307267Y-114391416D01*
X111307268Y-114391424D01*
X111314195Y-114435159D01*
X111367562Y-114772099D01*
X111468167Y-115147562D01*
X111607468Y-115510453D01*
X111608966Y-115513393D01*
X111776062Y-115841336D01*
X111783938Y-115856794D01*
X111785734Y-115859560D01*
X111785736Y-115859563D01*
X111947302Y-116108354D01*
X111995643Y-116182793D01*
X112240266Y-116484876D01*
X112515124Y-116759734D01*
X112517682Y-116761806D01*
X112517686Y-116761809D01*
X112553215Y-116790580D01*
X112817207Y-117004357D01*
X112819970Y-117006152D01*
X112819971Y-117006152D01*
X113109822Y-117194382D01*
X113143206Y-117216062D01*
X113146140Y-117217557D01*
X113146147Y-117217561D01*
X113441724Y-117368165D01*
X113489547Y-117392532D01*
X113662673Y-117458989D01*
X113790414Y-117508024D01*
X113852438Y-117531833D01*
X114227901Y-117632438D01*
X114431793Y-117664732D01*
X114608576Y-117692732D01*
X114608584Y-117692733D01*
X114611824Y-117693246D01*
X114902894Y-117708500D01*
X115097106Y-117708500D01*
X115388176Y-117693246D01*
X115391416Y-117692733D01*
X115391424Y-117692732D01*
X115568207Y-117664732D01*
X115772099Y-117632438D01*
X116147562Y-117531833D01*
X116209587Y-117508024D01*
X116337327Y-117458989D01*
X116510453Y-117392532D01*
X116558276Y-117368165D01*
X116853853Y-117217561D01*
X116853860Y-117217557D01*
X116856794Y-117216062D01*
X116890179Y-117194382D01*
X117180029Y-117006152D01*
X117180030Y-117006152D01*
X117182793Y-117004357D01*
X117446785Y-116790580D01*
X117482314Y-116761809D01*
X117482318Y-116761806D01*
X117484876Y-116759734D01*
X117759734Y-116484876D01*
X118004357Y-116182793D01*
X118062102Y-116093873D01*
X118214264Y-115859564D01*
X118214266Y-115859561D01*
X118216062Y-115856795D01*
X118217562Y-115853853D01*
X118391034Y-115513393D01*
X118392532Y-115510453D01*
X118531833Y-115147562D01*
X118632438Y-114772099D01*
X118685805Y-114435159D01*
X118692732Y-114391424D01*
X118692733Y-114391416D01*
X118693246Y-114388176D01*
X118713589Y-114000000D01*
X118712882Y-113986514D01*
X132136565Y-113986514D01*
X132154980Y-114377008D01*
X132155452Y-114380165D01*
X132155452Y-114380167D01*
X132160518Y-114414065D01*
X132212763Y-114763641D01*
X132213549Y-114766723D01*
X132213549Y-114766725D01*
X132223648Y-114806343D01*
X132309321Y-115142456D01*
X132443667Y-115509574D01*
X132614425Y-115861236D01*
X132616104Y-115863954D01*
X132813023Y-116182793D01*
X132819846Y-116193841D01*
X132821787Y-116196371D01*
X132821788Y-116196372D01*
X133030312Y-116468125D01*
X133057828Y-116503985D01*
X133325933Y-116788491D01*
X133328338Y-116790575D01*
X133328344Y-116790580D01*
X133360462Y-116818401D01*
X133621417Y-117044447D01*
X133941254Y-117269233D01*
X134282170Y-117460546D01*
X134640674Y-117616428D01*
X135013096Y-117735283D01*
X135016229Y-117735943D01*
X135016232Y-117735944D01*
X135392494Y-117815234D01*
X135392497Y-117815235D01*
X135395622Y-117815893D01*
X135784336Y-117857435D01*
X135787523Y-117857452D01*
X135787529Y-117857452D01*
X135964895Y-117858380D01*
X136175258Y-117859482D01*
X136322592Y-117845295D01*
X136561221Y-117822318D01*
X136561226Y-117822317D01*
X136564386Y-117822013D01*
X136567505Y-117821390D01*
X136567510Y-117821389D01*
X136756412Y-117783642D01*
X136947735Y-117745412D01*
X137234089Y-117657318D01*
X137318339Y-117631400D01*
X137318342Y-117631399D01*
X137321381Y-117630464D01*
X137324309Y-117629227D01*
X137324315Y-117629225D01*
X137486219Y-117560834D01*
X137681498Y-117478345D01*
X137684301Y-117476811D01*
X137684306Y-117476808D01*
X137882745Y-117368165D01*
X138024398Y-117290612D01*
X138346572Y-117069188D01*
X138378204Y-117042362D01*
X138642290Y-116818401D01*
X138642292Y-116818399D01*
X138644720Y-116816340D01*
X138646925Y-116814048D01*
X138646931Y-116814043D01*
X138757327Y-116699324D01*
X138915790Y-116534657D01*
X139157006Y-116227023D01*
X139183348Y-116185355D01*
X139339946Y-115937641D01*
X139365899Y-115896587D01*
X139367319Y-115893739D01*
X139367324Y-115893730D01*
X139538910Y-115549580D01*
X139540330Y-115546732D01*
X139678513Y-115181041D01*
X139688271Y-115144370D01*
X139753471Y-114899329D01*
X139779033Y-114803258D01*
X139784547Y-114768838D01*
X139837312Y-114439406D01*
X139840861Y-114417251D01*
X139842689Y-114385559D01*
X139857268Y-114132703D01*
X139863365Y-114026972D01*
X139863459Y-114000000D01*
X139856522Y-113863049D01*
X139843842Y-113612746D01*
X139843841Y-113612741D01*
X139843681Y-113609573D01*
X139793877Y-113284102D01*
X139785033Y-113226304D01*
X139785031Y-113226295D01*
X139784549Y-113223144D01*
X139736367Y-113036837D01*
X139687465Y-112847748D01*
X139687462Y-112847740D01*
X139686668Y-112844668D01*
X139683047Y-112834879D01*
X139552151Y-112481019D01*
X139552148Y-112481013D01*
X139551042Y-112478022D01*
X139379057Y-112126958D01*
X139373503Y-112118034D01*
X139174162Y-111797781D01*
X139172476Y-111795072D01*
X138933414Y-111485760D01*
X138664317Y-111202192D01*
X138661893Y-111200107D01*
X138370356Y-110949346D01*
X138370353Y-110949344D01*
X138367941Y-110947269D01*
X138365333Y-110945449D01*
X138365327Y-110945445D01*
X138049934Y-110725424D01*
X138047321Y-110723601D01*
X137838672Y-110607468D01*
X137708525Y-110535029D01*
X137708523Y-110535028D01*
X137705740Y-110533479D01*
X137702820Y-110532221D01*
X137702815Y-110532219D01*
X137349628Y-110380112D01*
X137349618Y-110380108D01*
X137346694Y-110378849D01*
X136973860Y-110261295D01*
X136699971Y-110204575D01*
X136594180Y-110182667D01*
X136594177Y-110182667D01*
X136591055Y-110182020D01*
X136307344Y-110152702D01*
X136205354Y-110142162D01*
X136205351Y-110142162D01*
X136202198Y-110141836D01*
X136199031Y-110141830D01*
X136199022Y-110141830D01*
X136006362Y-110141494D01*
X135811271Y-110141153D01*
X135422276Y-110179980D01*
X135039197Y-110257919D01*
X134665955Y-110374171D01*
X134622036Y-110392904D01*
X134309301Y-110526296D01*
X134309297Y-110526298D01*
X134306371Y-110527546D01*
X134303592Y-110529080D01*
X134303586Y-110529083D01*
X134032173Y-110678911D01*
X133964128Y-110716474D01*
X133961507Y-110718289D01*
X133961502Y-110718292D01*
X133832791Y-110807416D01*
X133642729Y-110939021D01*
X133345466Y-111192909D01*
X133075381Y-111475536D01*
X133073424Y-111478049D01*
X133073423Y-111478051D01*
X133044563Y-111515124D01*
X132835240Y-111784011D01*
X132833544Y-111786715D01*
X132833541Y-111786719D01*
X132756108Y-111910158D01*
X132627501Y-112115174D01*
X132626091Y-112118026D01*
X132626087Y-112118034D01*
X132502016Y-112369074D01*
X132454293Y-112465635D01*
X132317387Y-112831806D01*
X132218186Y-113209938D01*
X132203305Y-113304964D01*
X132159881Y-113582266D01*
X132157705Y-113596159D01*
X132157534Y-113599318D01*
X132157533Y-113599327D01*
X132144447Y-113840964D01*
X132136565Y-113986514D01*
X118712882Y-113986514D01*
X118693246Y-113611824D01*
X118688565Y-113582266D01*
X118645299Y-113309103D01*
X118632438Y-113227901D01*
X118531833Y-112852438D01*
X118528851Y-112844668D01*
X118393716Y-112492632D01*
X118392532Y-112489547D01*
X118380348Y-112465635D01*
X118217561Y-112146147D01*
X118217557Y-112146140D01*
X118216062Y-112143206D01*
X118205511Y-112126958D01*
X118006152Y-111819971D01*
X118006152Y-111819970D01*
X118004357Y-111817207D01*
X117759734Y-111515124D01*
X117484876Y-111240266D01*
X117429236Y-111195209D01*
X117333834Y-111117954D01*
X117182793Y-110995643D01*
X117180029Y-110993848D01*
X116859563Y-110785736D01*
X116859560Y-110785734D01*
X116856794Y-110783938D01*
X116853860Y-110782443D01*
X116853853Y-110782439D01*
X116513393Y-110608966D01*
X116510453Y-110607468D01*
X116212676Y-110493162D01*
X116150652Y-110469353D01*
X116150650Y-110469352D01*
X116147562Y-110468167D01*
X115772099Y-110367562D01*
X115568207Y-110335268D01*
X115391424Y-110307268D01*
X115391416Y-110307267D01*
X115388176Y-110306754D01*
X115097106Y-110291500D01*
X114902894Y-110291500D01*
X114611824Y-110306754D01*
X114608584Y-110307267D01*
X114608576Y-110307268D01*
X114431793Y-110335268D01*
X114227901Y-110367562D01*
X113852438Y-110468167D01*
X113849350Y-110469352D01*
X113849348Y-110469353D01*
X113787324Y-110493162D01*
X113489547Y-110607468D01*
X113486607Y-110608966D01*
X113146147Y-110782439D01*
X113146140Y-110782443D01*
X113143206Y-110783938D01*
X113140440Y-110785734D01*
X113140437Y-110785736D01*
X112819971Y-110993848D01*
X112817207Y-110995643D01*
X112666166Y-111117954D01*
X112570765Y-111195209D01*
X112515124Y-111240266D01*
X112240266Y-111515124D01*
X111995643Y-111817207D01*
X111993848Y-111819970D01*
X111993848Y-111819971D01*
X111785736Y-112140436D01*
X111785734Y-112140439D01*
X111783938Y-112143205D01*
X111782443Y-112146139D01*
X111782439Y-112146146D01*
X111619652Y-112465635D01*
X111607468Y-112489547D01*
X111606284Y-112492632D01*
X111471150Y-112844668D01*
X111468167Y-112852438D01*
X111367562Y-113227901D01*
X111354701Y-113309103D01*
X111311436Y-113582266D01*
X111306754Y-113611824D01*
X111286411Y-114000000D01*
X106558562Y-114000000D01*
X106559235Y-113871583D01*
X106559235Y-113871576D01*
X106559257Y-113867297D01*
X106521732Y-113582266D01*
X106445871Y-113304964D01*
X106413001Y-113227901D01*
X106334763Y-113044476D01*
X106334761Y-113044472D01*
X106333077Y-113040524D01*
X106225140Y-112860174D01*
X106187643Y-112797521D01*
X106187640Y-112797517D01*
X106185439Y-112793839D01*
X106005687Y-112569472D01*
X105797149Y-112371577D01*
X105563683Y-112203814D01*
X105541843Y-112192250D01*
X105518654Y-112179972D01*
X105309608Y-112069288D01*
X105039627Y-111970489D01*
X104758736Y-111909245D01*
X104727685Y-111906801D01*
X104535718Y-111891693D01*
X104535709Y-111891693D01*
X104533261Y-111891500D01*
X104377729Y-111891500D01*
X104375593Y-111891646D01*
X104375582Y-111891646D01*
X104167452Y-111905835D01*
X104167446Y-111905836D01*
X104163175Y-111906127D01*
X104158980Y-111906996D01*
X104158978Y-111906996D01*
X104022417Y-111935276D01*
X103881658Y-111964426D01*
X103610657Y-112060393D01*
X103355188Y-112192250D01*
X103351687Y-112194711D01*
X103351683Y-112194713D01*
X103295839Y-112233961D01*
X103119977Y-112357559D01*
X103104892Y-112371577D01*
X102990344Y-112478022D01*
X102909378Y-112553260D01*
X102727287Y-112775732D01*
X102577073Y-113020858D01*
X102575347Y-113024791D01*
X102575346Y-113024792D01*
X102485303Y-113229917D01*
X102461517Y-113284102D01*
X102382756Y-113560594D01*
X102342249Y-113845216D01*
X102342227Y-113849505D01*
X102342226Y-113849512D01*
X102341288Y-114028665D01*
X102340743Y-114132703D01*
X76981600Y-114132703D01*
X76988555Y-114000000D01*
X76968349Y-113614441D01*
X76965956Y-113599327D01*
X76918707Y-113301016D01*
X76907951Y-113233106D01*
X76808024Y-112860174D01*
X76805055Y-112852438D01*
X76670847Y-112502815D01*
X76669663Y-112499730D01*
X76666046Y-112492632D01*
X76495881Y-112158664D01*
X76495877Y-112158657D01*
X76494382Y-112155723D01*
X76486254Y-112143206D01*
X76285906Y-111834697D01*
X76284104Y-111831922D01*
X76041131Y-111531875D01*
X75768125Y-111258869D01*
X75468078Y-111015896D01*
X75144278Y-110805618D01*
X75141344Y-110804123D01*
X75141337Y-110804119D01*
X74803210Y-110631835D01*
X74800270Y-110630337D01*
X74439826Y-110491976D01*
X74066894Y-110392049D01*
X73864357Y-110359970D01*
X73688807Y-110332165D01*
X73688799Y-110332164D01*
X73685559Y-110331651D01*
X73300000Y-110311445D01*
X72914441Y-110331651D01*
X72911201Y-110332164D01*
X72911193Y-110332165D01*
X72735643Y-110359970D01*
X72533106Y-110392049D01*
X72160174Y-110491976D01*
X71799730Y-110630337D01*
X71796790Y-110631835D01*
X71458664Y-110804119D01*
X71458657Y-110804123D01*
X71455723Y-110805618D01*
X71131922Y-111015896D01*
X70831875Y-111258869D01*
X70558869Y-111531875D01*
X70315896Y-111831922D01*
X70314094Y-111834697D01*
X70113747Y-112143206D01*
X70105618Y-112155723D01*
X70104123Y-112158657D01*
X70104119Y-112158664D01*
X69933954Y-112492632D01*
X69930337Y-112499730D01*
X69929153Y-112502815D01*
X69794946Y-112852438D01*
X69791976Y-112860174D01*
X69692049Y-113233106D01*
X69681293Y-113301016D01*
X69634045Y-113599327D01*
X69631651Y-113614441D01*
X69611445Y-114000000D01*
X65063554Y-114000000D01*
X65046864Y-113617731D01*
X65044026Y-113552727D01*
X65044025Y-113552716D01*
X65043905Y-113549967D01*
X64999553Y-113213082D01*
X64985467Y-113106083D01*
X64985466Y-113106077D01*
X64985108Y-113103358D01*
X64887610Y-112663574D01*
X64853875Y-112556579D01*
X64752983Y-112236589D01*
X64752980Y-112236581D01*
X64752154Y-112233961D01*
X64585624Y-111831922D01*
X64580822Y-111820330D01*
X64580821Y-111820329D01*
X64579769Y-111817788D01*
X64371769Y-111418223D01*
X64129736Y-111038307D01*
X63888254Y-110723601D01*
X63857176Y-110683099D01*
X63857171Y-110683093D01*
X63855512Y-110680931D01*
X63551184Y-110348816D01*
X63219069Y-110044488D01*
X63216907Y-110042829D01*
X63216901Y-110042824D01*
X63095462Y-109949641D01*
X62861693Y-109770264D01*
X62481777Y-109528231D01*
X62082212Y-109320231D01*
X61666039Y-109147846D01*
X61663419Y-109147020D01*
X61663411Y-109147017D01*
X61239056Y-109013219D01*
X61239051Y-109013218D01*
X61236426Y-109012390D01*
X60796642Y-108914892D01*
X60793923Y-108914534D01*
X60793917Y-108914533D01*
X60626326Y-108892470D01*
X60350033Y-108856095D01*
X60347284Y-108855975D01*
X60347273Y-108855974D01*
X60017131Y-108841560D01*
X60017127Y-108841560D01*
X60015755Y-108841500D01*
X59784245Y-108841500D01*
X59782873Y-108841560D01*
X59782869Y-108841560D01*
X59452727Y-108855974D01*
X59452716Y-108855975D01*
X59449967Y-108856095D01*
X59173674Y-108892470D01*
X59006083Y-108914533D01*
X59006077Y-108914534D01*
X59003358Y-108914892D01*
X58563574Y-109012390D01*
X58560949Y-109013218D01*
X58560944Y-109013219D01*
X58136589Y-109147017D01*
X58136581Y-109147020D01*
X58133961Y-109147846D01*
X57717788Y-109320231D01*
X57318223Y-109528231D01*
X56938307Y-109770264D01*
X56704538Y-109949641D01*
X56583099Y-110042824D01*
X56583093Y-110042829D01*
X56580931Y-110044488D01*
X56248816Y-110348816D01*
X55944488Y-110680931D01*
X55942829Y-110683093D01*
X55942824Y-110683099D01*
X55911746Y-110723601D01*
X55670264Y-111038307D01*
X55428231Y-111418223D01*
X55220231Y-111817788D01*
X55219179Y-111820329D01*
X55219178Y-111820330D01*
X55214376Y-111831922D01*
X55047846Y-112233961D01*
X55047020Y-112236581D01*
X55047017Y-112236589D01*
X54946125Y-112556579D01*
X54912390Y-112663574D01*
X54814892Y-113103358D01*
X54814534Y-113106077D01*
X54814533Y-113106083D01*
X54800447Y-113213082D01*
X54756095Y-113549967D01*
X54755975Y-113552716D01*
X54755974Y-113552727D01*
X54753136Y-113617731D01*
X54736446Y-114000000D01*
X49263459Y-114000000D01*
X49256522Y-113863049D01*
X49243842Y-113612746D01*
X49243841Y-113612741D01*
X49243681Y-113609573D01*
X49193877Y-113284102D01*
X49185033Y-113226304D01*
X49185031Y-113226295D01*
X49184549Y-113223144D01*
X49136367Y-113036837D01*
X49087465Y-112847748D01*
X49087462Y-112847740D01*
X49086668Y-112844668D01*
X49083047Y-112834879D01*
X48952151Y-112481019D01*
X48952148Y-112481013D01*
X48951042Y-112478022D01*
X48779057Y-112126958D01*
X48773503Y-112118034D01*
X48574162Y-111797781D01*
X48572476Y-111795072D01*
X48333414Y-111485760D01*
X48064317Y-111202192D01*
X48061893Y-111200107D01*
X47770356Y-110949346D01*
X47770353Y-110949344D01*
X47767941Y-110947269D01*
X47765333Y-110945449D01*
X47765327Y-110945445D01*
X47449934Y-110725424D01*
X47447321Y-110723601D01*
X47238672Y-110607468D01*
X47108525Y-110535029D01*
X47108523Y-110535028D01*
X47105740Y-110533479D01*
X47102820Y-110532221D01*
X47102815Y-110532219D01*
X46749628Y-110380112D01*
X46749618Y-110380108D01*
X46746694Y-110378849D01*
X46373860Y-110261295D01*
X46099971Y-110204575D01*
X45994180Y-110182667D01*
X45994177Y-110182667D01*
X45991055Y-110182020D01*
X45707344Y-110152702D01*
X45605354Y-110142162D01*
X45605351Y-110142162D01*
X45602198Y-110141836D01*
X45599031Y-110141830D01*
X45599022Y-110141830D01*
X45406362Y-110141494D01*
X45211271Y-110141153D01*
X44822276Y-110179980D01*
X44439197Y-110257919D01*
X44065955Y-110374171D01*
X44022036Y-110392904D01*
X43709301Y-110526296D01*
X43709297Y-110526298D01*
X43706371Y-110527546D01*
X43703592Y-110529080D01*
X43703586Y-110529083D01*
X43432173Y-110678911D01*
X43364128Y-110716474D01*
X43361507Y-110718289D01*
X43361502Y-110718292D01*
X43232791Y-110807416D01*
X43042729Y-110939021D01*
X42745466Y-111192909D01*
X42475381Y-111475536D01*
X42473424Y-111478049D01*
X42473423Y-111478051D01*
X42444563Y-111515124D01*
X42235240Y-111784011D01*
X42233544Y-111786715D01*
X42233541Y-111786719D01*
X42156108Y-111910158D01*
X42027501Y-112115174D01*
X42026091Y-112118026D01*
X42026087Y-112118034D01*
X41902016Y-112369074D01*
X41854293Y-112465635D01*
X41717387Y-112831806D01*
X41618186Y-113209938D01*
X41603305Y-113304964D01*
X41559881Y-113582266D01*
X41557705Y-113596159D01*
X41557534Y-113599318D01*
X41557533Y-113599327D01*
X41544447Y-113840964D01*
X41536565Y-113986514D01*
X40508000Y-113986514D01*
X40508000Y-99607655D01*
X58139858Y-99607655D01*
X58175104Y-99866638D01*
X58176412Y-99871124D01*
X58176412Y-99871126D01*
X58196098Y-99938664D01*
X58248243Y-100117567D01*
X58357668Y-100354928D01*
X58360231Y-100358837D01*
X58498410Y-100569596D01*
X58498414Y-100569601D01*
X58500976Y-100573509D01*
X58675018Y-100768506D01*
X58875970Y-100935637D01*
X58879973Y-100938066D01*
X59095422Y-101068804D01*
X59095426Y-101068806D01*
X59099419Y-101071229D01*
X59340455Y-101172303D01*
X59593783Y-101236641D01*
X59598434Y-101237109D01*
X59598438Y-101237110D01*
X59791308Y-101256531D01*
X59810867Y-101258500D01*
X59966354Y-101258500D01*
X59968679Y-101258327D01*
X59968685Y-101258327D01*
X60156000Y-101244407D01*
X60156004Y-101244406D01*
X60160652Y-101244061D01*
X60165200Y-101243032D01*
X60165206Y-101243031D01*
X60351601Y-101200853D01*
X60415577Y-101186377D01*
X60451769Y-101172303D01*
X60654824Y-101093340D01*
X60654827Y-101093339D01*
X60659177Y-101091647D01*
X60886098Y-100961951D01*
X61091357Y-100800138D01*
X61270443Y-100609763D01*
X61419424Y-100395009D01*
X61535025Y-100160593D01*
X61614707Y-99911665D01*
X61656721Y-99653693D01*
X61660142Y-99392345D01*
X61624896Y-99133362D01*
X61610473Y-99083877D01*
X61553068Y-98886932D01*
X61551757Y-98882433D01*
X61442332Y-98645072D01*
X61409519Y-98595024D01*
X61301590Y-98430404D01*
X61301586Y-98430399D01*
X61299024Y-98426491D01*
X61124982Y-98231494D01*
X60924030Y-98064363D01*
X60876844Y-98035730D01*
X60704578Y-97931196D01*
X60704574Y-97931194D01*
X60700581Y-97928771D01*
X60459545Y-97827697D01*
X60206217Y-97763359D01*
X60201566Y-97762891D01*
X60201562Y-97762890D01*
X59992271Y-97741816D01*
X59989133Y-97741500D01*
X59833646Y-97741500D01*
X59831321Y-97741673D01*
X59831315Y-97741673D01*
X59644000Y-97755593D01*
X59643996Y-97755594D01*
X59639348Y-97755939D01*
X59634800Y-97756968D01*
X59634794Y-97756969D01*
X59448399Y-97799147D01*
X59384423Y-97813623D01*
X59380071Y-97815315D01*
X59380069Y-97815316D01*
X59145176Y-97906660D01*
X59145173Y-97906661D01*
X59140823Y-97908353D01*
X58913902Y-98038049D01*
X58708643Y-98199862D01*
X58529557Y-98390237D01*
X58380576Y-98604991D01*
X58264975Y-98839407D01*
X58185293Y-99088335D01*
X58143279Y-99346307D01*
X58139858Y-99607655D01*
X40508000Y-99607655D01*
X40508000Y-91986514D01*
X41536565Y-91986514D01*
X41554980Y-92377008D01*
X41555452Y-92380165D01*
X41555452Y-92380167D01*
X41560518Y-92414065D01*
X41612763Y-92763641D01*
X41613549Y-92766723D01*
X41613549Y-92766725D01*
X41623648Y-92806343D01*
X41709321Y-93142456D01*
X41843667Y-93509574D01*
X42014425Y-93861236D01*
X42016104Y-93863954D01*
X42213023Y-94182793D01*
X42219846Y-94193841D01*
X42221787Y-94196371D01*
X42221788Y-94196372D01*
X42430312Y-94468125D01*
X42457828Y-94503985D01*
X42725933Y-94788491D01*
X42728338Y-94790575D01*
X42728344Y-94790580D01*
X42760462Y-94818401D01*
X43021417Y-95044447D01*
X43341254Y-95269233D01*
X43682170Y-95460546D01*
X44040674Y-95616428D01*
X44413096Y-95735283D01*
X44416229Y-95735943D01*
X44416232Y-95735944D01*
X44792494Y-95815234D01*
X44792497Y-95815235D01*
X44795622Y-95815893D01*
X45184336Y-95857435D01*
X45187523Y-95857452D01*
X45187529Y-95857452D01*
X45364895Y-95858380D01*
X45575258Y-95859482D01*
X45722592Y-95845295D01*
X45961221Y-95822318D01*
X45961226Y-95822317D01*
X45964386Y-95822013D01*
X45967505Y-95821390D01*
X45967510Y-95821389D01*
X46156412Y-95783642D01*
X46347735Y-95745412D01*
X46634089Y-95657318D01*
X46718339Y-95631400D01*
X46718342Y-95631399D01*
X46721381Y-95630464D01*
X46724309Y-95629227D01*
X46724315Y-95629225D01*
X46886219Y-95560834D01*
X47081498Y-95478345D01*
X47084301Y-95476811D01*
X47084306Y-95476808D01*
X47282745Y-95368165D01*
X47424398Y-95290612D01*
X47746572Y-95069188D01*
X47778204Y-95042362D01*
X48042290Y-94818401D01*
X48042292Y-94818399D01*
X48044720Y-94816340D01*
X48046925Y-94814048D01*
X48046931Y-94814043D01*
X48157327Y-94699324D01*
X48315790Y-94534657D01*
X48557006Y-94227023D01*
X48583348Y-94185355D01*
X48739946Y-93937641D01*
X48765899Y-93896587D01*
X48767319Y-93893739D01*
X48767324Y-93893730D01*
X48938910Y-93549580D01*
X48940330Y-93546732D01*
X49078513Y-93181041D01*
X49088271Y-93144370D01*
X49153471Y-92899329D01*
X49179033Y-92803258D01*
X49184547Y-92768838D01*
X49237312Y-92439406D01*
X49240861Y-92417251D01*
X49242689Y-92385559D01*
X49257268Y-92132703D01*
X49263365Y-92026972D01*
X49263459Y-92000000D01*
X54736446Y-92000000D01*
X54736566Y-92002748D01*
X54755446Y-92435159D01*
X54756095Y-92450033D01*
X54814892Y-92896642D01*
X54912390Y-93336426D01*
X54913218Y-93339051D01*
X54913219Y-93339056D01*
X55008876Y-93642441D01*
X55047846Y-93766039D01*
X55159851Y-94036443D01*
X55215444Y-94170654D01*
X55220231Y-94182212D01*
X55428231Y-94581777D01*
X55670264Y-94961693D01*
X55735168Y-95046277D01*
X55921262Y-95288800D01*
X55944488Y-95319069D01*
X56248816Y-95651184D01*
X56580931Y-95955512D01*
X56583093Y-95957171D01*
X56583099Y-95957176D01*
X56704538Y-96050359D01*
X56938307Y-96229736D01*
X57318223Y-96471769D01*
X57717788Y-96679769D01*
X58133961Y-96852154D01*
X58136581Y-96852980D01*
X58136589Y-96852983D01*
X58560944Y-96986781D01*
X58560949Y-96986782D01*
X58563574Y-96987610D01*
X59003358Y-97085108D01*
X59006077Y-97085466D01*
X59006083Y-97085467D01*
X59173674Y-97107530D01*
X59449967Y-97143905D01*
X59452716Y-97144025D01*
X59452727Y-97144026D01*
X59782869Y-97158440D01*
X59782873Y-97158440D01*
X59784245Y-97158500D01*
X60015755Y-97158500D01*
X60017127Y-97158440D01*
X60017131Y-97158440D01*
X60347273Y-97144026D01*
X60347284Y-97144025D01*
X60350033Y-97143905D01*
X60626326Y-97107530D01*
X60793917Y-97085467D01*
X60793923Y-97085466D01*
X60796642Y-97085108D01*
X61236426Y-96987610D01*
X61239051Y-96986782D01*
X61239056Y-96986781D01*
X61663411Y-96852983D01*
X61663419Y-96852980D01*
X61666039Y-96852154D01*
X62082212Y-96679769D01*
X62481777Y-96471769D01*
X62861693Y-96229736D01*
X63095462Y-96050359D01*
X63216901Y-95957176D01*
X63216907Y-95957171D01*
X63219069Y-95955512D01*
X63551184Y-95651184D01*
X63855512Y-95319069D01*
X63878739Y-95288800D01*
X64064832Y-95046277D01*
X64129736Y-94961693D01*
X64371769Y-94581777D01*
X64579769Y-94182212D01*
X64584557Y-94170654D01*
X64640149Y-94036443D01*
X64752154Y-93766039D01*
X64791125Y-93642441D01*
X64886781Y-93339056D01*
X64886782Y-93339051D01*
X64887610Y-93336426D01*
X64985108Y-92896642D01*
X65043905Y-92450033D01*
X65044555Y-92435159D01*
X65063434Y-92002748D01*
X65063554Y-92000000D01*
X69611445Y-92000000D01*
X69631651Y-92385559D01*
X69632164Y-92388799D01*
X69632165Y-92388807D01*
X69659970Y-92564357D01*
X69692049Y-92766894D01*
X69791976Y-93139826D01*
X69793161Y-93142914D01*
X69793162Y-93142916D01*
X69818724Y-93209508D01*
X69930337Y-93500270D01*
X69931835Y-93503210D01*
X70088008Y-93809715D01*
X70105618Y-93844277D01*
X70107414Y-93847043D01*
X70107416Y-93847046D01*
X70115545Y-93859563D01*
X70315896Y-94168078D01*
X70558869Y-94468125D01*
X70831875Y-94741131D01*
X71131922Y-94984104D01*
X71455722Y-95194382D01*
X71458656Y-95195877D01*
X71458663Y-95195881D01*
X71647602Y-95292150D01*
X71799730Y-95369663D01*
X72160174Y-95508024D01*
X72533106Y-95607951D01*
X72687710Y-95632438D01*
X72911193Y-95667835D01*
X72911201Y-95667836D01*
X72914441Y-95668349D01*
X73300000Y-95688555D01*
X73685559Y-95668349D01*
X73688799Y-95667836D01*
X73688807Y-95667835D01*
X73912290Y-95632438D01*
X74066894Y-95607951D01*
X74439826Y-95508024D01*
X74800270Y-95369663D01*
X74952398Y-95292150D01*
X75141337Y-95195881D01*
X75141344Y-95195877D01*
X75144278Y-95194382D01*
X75468078Y-94984104D01*
X75768125Y-94741131D01*
X76041131Y-94468125D01*
X76284104Y-94168078D01*
X76484455Y-93859563D01*
X76492584Y-93847046D01*
X76492586Y-93847043D01*
X76494382Y-93844277D01*
X76511993Y-93809715D01*
X76668165Y-93503210D01*
X76669663Y-93500270D01*
X76781276Y-93209508D01*
X76806838Y-93142916D01*
X76806839Y-93142914D01*
X76808024Y-93139826D01*
X76907951Y-92766894D01*
X76940030Y-92564357D01*
X76967835Y-92388807D01*
X76967836Y-92388799D01*
X76968349Y-92385559D01*
X76981600Y-92132703D01*
X102340743Y-92132703D01*
X102378268Y-92417734D01*
X102454129Y-92695036D01*
X102455813Y-92698984D01*
X102538960Y-92893917D01*
X102566923Y-92959476D01*
X102578693Y-92979142D01*
X102681340Y-93150652D01*
X102714561Y-93206161D01*
X102894313Y-93430528D01*
X103102851Y-93628423D01*
X103336317Y-93796186D01*
X103340112Y-93798195D01*
X103340113Y-93798196D01*
X103361869Y-93809715D01*
X103590392Y-93930712D01*
X103860373Y-94029511D01*
X104141264Y-94090755D01*
X104169841Y-94093004D01*
X104364282Y-94108307D01*
X104364291Y-94108307D01*
X104366739Y-94108500D01*
X104522271Y-94108500D01*
X104524407Y-94108354D01*
X104524418Y-94108354D01*
X104732548Y-94094165D01*
X104732554Y-94094164D01*
X104736825Y-94093873D01*
X104741020Y-94093004D01*
X104741022Y-94093004D01*
X104877584Y-94064723D01*
X105018342Y-94035574D01*
X105289343Y-93939607D01*
X105435918Y-93863954D01*
X105541005Y-93809715D01*
X105541006Y-93809715D01*
X105544812Y-93807750D01*
X105548313Y-93805289D01*
X105548317Y-93805287D01*
X105662418Y-93725095D01*
X105780023Y-93642441D01*
X105918895Y-93513393D01*
X105987479Y-93449661D01*
X105987481Y-93449658D01*
X105990622Y-93446740D01*
X106172713Y-93224268D01*
X106322927Y-92979142D01*
X106357963Y-92899329D01*
X106436757Y-92719830D01*
X106438483Y-92715898D01*
X106517244Y-92439406D01*
X106557751Y-92154784D01*
X106557845Y-92136951D01*
X106558562Y-92000000D01*
X111286411Y-92000000D01*
X111306754Y-92388176D01*
X111307267Y-92391416D01*
X111307268Y-92391424D01*
X111314195Y-92435159D01*
X111367562Y-92772099D01*
X111468167Y-93147562D01*
X111607468Y-93510453D01*
X111608966Y-93513393D01*
X111776062Y-93841336D01*
X111783938Y-93856794D01*
X111785734Y-93859560D01*
X111785736Y-93859563D01*
X111947302Y-94108354D01*
X111995643Y-94182793D01*
X112240266Y-94484876D01*
X112515124Y-94759734D01*
X112517682Y-94761806D01*
X112517686Y-94761809D01*
X112553215Y-94790580D01*
X112817207Y-95004357D01*
X112819970Y-95006152D01*
X112819971Y-95006152D01*
X113109822Y-95194382D01*
X113143206Y-95216062D01*
X113146140Y-95217557D01*
X113146147Y-95217561D01*
X113441724Y-95368165D01*
X113489547Y-95392532D01*
X113662673Y-95458989D01*
X113790414Y-95508024D01*
X113852438Y-95531833D01*
X114227901Y-95632438D01*
X114431793Y-95664732D01*
X114608576Y-95692732D01*
X114608584Y-95692733D01*
X114611824Y-95693246D01*
X114902894Y-95708500D01*
X115097106Y-95708500D01*
X115388176Y-95693246D01*
X115391416Y-95692733D01*
X115391424Y-95692732D01*
X115568207Y-95664732D01*
X115772099Y-95632438D01*
X116147562Y-95531833D01*
X116209587Y-95508024D01*
X116337327Y-95458989D01*
X116510453Y-95392532D01*
X116558276Y-95368165D01*
X116853853Y-95217561D01*
X116853860Y-95217557D01*
X116856794Y-95216062D01*
X116890179Y-95194382D01*
X117180029Y-95006152D01*
X117180030Y-95006152D01*
X117182793Y-95004357D01*
X117446785Y-94790580D01*
X117482314Y-94761809D01*
X117482318Y-94761806D01*
X117484876Y-94759734D01*
X117759734Y-94484876D01*
X118004357Y-94182793D01*
X118062102Y-94093873D01*
X118214264Y-93859564D01*
X118214266Y-93859561D01*
X118216062Y-93856795D01*
X118217562Y-93853853D01*
X118391034Y-93513393D01*
X118392532Y-93510453D01*
X118531833Y-93147562D01*
X118632438Y-92772099D01*
X118685805Y-92435159D01*
X118692732Y-92391424D01*
X118692733Y-92391416D01*
X118693246Y-92388176D01*
X118713589Y-92000000D01*
X118712882Y-91986514D01*
X132136565Y-91986514D01*
X132154980Y-92377008D01*
X132155452Y-92380165D01*
X132155452Y-92380167D01*
X132160518Y-92414065D01*
X132212763Y-92763641D01*
X132213549Y-92766723D01*
X132213549Y-92766725D01*
X132223648Y-92806343D01*
X132309321Y-93142456D01*
X132443667Y-93509574D01*
X132614425Y-93861236D01*
X132616104Y-93863954D01*
X132813023Y-94182793D01*
X132819846Y-94193841D01*
X132821787Y-94196371D01*
X132821788Y-94196372D01*
X133030312Y-94468125D01*
X133057828Y-94503985D01*
X133325933Y-94788491D01*
X133328338Y-94790575D01*
X133328344Y-94790580D01*
X133360462Y-94818401D01*
X133621417Y-95044447D01*
X133941254Y-95269233D01*
X134282170Y-95460546D01*
X134640674Y-95616428D01*
X135013096Y-95735283D01*
X135016229Y-95735943D01*
X135016232Y-95735944D01*
X135392494Y-95815234D01*
X135392497Y-95815235D01*
X135395622Y-95815893D01*
X135784336Y-95857435D01*
X135787523Y-95857452D01*
X135787529Y-95857452D01*
X135964895Y-95858380D01*
X136175258Y-95859482D01*
X136322592Y-95845295D01*
X136561221Y-95822318D01*
X136561226Y-95822317D01*
X136564386Y-95822013D01*
X136567505Y-95821390D01*
X136567510Y-95821389D01*
X136756412Y-95783642D01*
X136947735Y-95745412D01*
X137234089Y-95657318D01*
X137318339Y-95631400D01*
X137318342Y-95631399D01*
X137321381Y-95630464D01*
X137324309Y-95629227D01*
X137324315Y-95629225D01*
X137486219Y-95560834D01*
X137681498Y-95478345D01*
X137684301Y-95476811D01*
X137684306Y-95476808D01*
X137882745Y-95368165D01*
X138024398Y-95290612D01*
X138346572Y-95069188D01*
X138378204Y-95042362D01*
X138642290Y-94818401D01*
X138642292Y-94818399D01*
X138644720Y-94816340D01*
X138646925Y-94814048D01*
X138646931Y-94814043D01*
X138757327Y-94699324D01*
X138915790Y-94534657D01*
X139157006Y-94227023D01*
X139183348Y-94185355D01*
X139339946Y-93937641D01*
X139365899Y-93896587D01*
X139367319Y-93893739D01*
X139367324Y-93893730D01*
X139538910Y-93549580D01*
X139540330Y-93546732D01*
X139678513Y-93181041D01*
X139688271Y-93144370D01*
X139753471Y-92899329D01*
X139779033Y-92803258D01*
X139784547Y-92768838D01*
X139837312Y-92439406D01*
X139840861Y-92417251D01*
X139842689Y-92385559D01*
X139857268Y-92132703D01*
X139863365Y-92026972D01*
X139863459Y-92000000D01*
X139856522Y-91863049D01*
X139843842Y-91612746D01*
X139843841Y-91612741D01*
X139843681Y-91609573D01*
X139793877Y-91284102D01*
X139785033Y-91226304D01*
X139785031Y-91226295D01*
X139784549Y-91223144D01*
X139736367Y-91036837D01*
X139687465Y-90847748D01*
X139687462Y-90847740D01*
X139686668Y-90844668D01*
X139683047Y-90834879D01*
X139552151Y-90481019D01*
X139552148Y-90481013D01*
X139551042Y-90478022D01*
X139379057Y-90126958D01*
X139373503Y-90118034D01*
X139174162Y-89797781D01*
X139172476Y-89795072D01*
X138933414Y-89485760D01*
X138664317Y-89202192D01*
X138661893Y-89200107D01*
X138370356Y-88949346D01*
X138370353Y-88949344D01*
X138367941Y-88947269D01*
X138365333Y-88945449D01*
X138365327Y-88945445D01*
X138049934Y-88725424D01*
X138047321Y-88723601D01*
X137838672Y-88607468D01*
X137708525Y-88535029D01*
X137708523Y-88535028D01*
X137705740Y-88533479D01*
X137702820Y-88532221D01*
X137702815Y-88532219D01*
X137349628Y-88380112D01*
X137349618Y-88380108D01*
X137346694Y-88378849D01*
X136973860Y-88261295D01*
X136699971Y-88204575D01*
X136594180Y-88182667D01*
X136594177Y-88182667D01*
X136591055Y-88182020D01*
X136307344Y-88152702D01*
X136205354Y-88142162D01*
X136205351Y-88142162D01*
X136202198Y-88141836D01*
X136199031Y-88141830D01*
X136199022Y-88141830D01*
X136006362Y-88141494D01*
X135811271Y-88141153D01*
X135422276Y-88179980D01*
X135039197Y-88257919D01*
X134665955Y-88374171D01*
X134622036Y-88392904D01*
X134309301Y-88526296D01*
X134309297Y-88526298D01*
X134306371Y-88527546D01*
X134303592Y-88529080D01*
X134303586Y-88529083D01*
X134032173Y-88678911D01*
X133964128Y-88716474D01*
X133961507Y-88718289D01*
X133961502Y-88718292D01*
X133832791Y-88807416D01*
X133642729Y-88939021D01*
X133345466Y-89192909D01*
X133075381Y-89475536D01*
X133073424Y-89478049D01*
X133073423Y-89478051D01*
X133044563Y-89515124D01*
X132835240Y-89784011D01*
X132833544Y-89786715D01*
X132833541Y-89786719D01*
X132756108Y-89910158D01*
X132627501Y-90115174D01*
X132626091Y-90118026D01*
X132626087Y-90118034D01*
X132502016Y-90369074D01*
X132454293Y-90465635D01*
X132317387Y-90831806D01*
X132218186Y-91209938D01*
X132203305Y-91304964D01*
X132159881Y-91582266D01*
X132157705Y-91596159D01*
X132157534Y-91599318D01*
X132157533Y-91599327D01*
X132144447Y-91840964D01*
X132136565Y-91986514D01*
X118712882Y-91986514D01*
X118693246Y-91611824D01*
X118688565Y-91582266D01*
X118645299Y-91309103D01*
X118632438Y-91227901D01*
X118531833Y-90852438D01*
X118528851Y-90844668D01*
X118393716Y-90492632D01*
X118392532Y-90489547D01*
X118380348Y-90465635D01*
X118217561Y-90146147D01*
X118217557Y-90146140D01*
X118216062Y-90143206D01*
X118205511Y-90126958D01*
X118006152Y-89819971D01*
X118006152Y-89819970D01*
X118004357Y-89817207D01*
X117759734Y-89515124D01*
X117484876Y-89240266D01*
X117429236Y-89195209D01*
X117333835Y-89117955D01*
X117182793Y-88995643D01*
X117180029Y-88993848D01*
X116859563Y-88785736D01*
X116859560Y-88785734D01*
X116856794Y-88783938D01*
X116853860Y-88782443D01*
X116853853Y-88782439D01*
X116513393Y-88608966D01*
X116510453Y-88607468D01*
X116212676Y-88493162D01*
X116150652Y-88469353D01*
X116150650Y-88469352D01*
X116147562Y-88468167D01*
X115772099Y-88367562D01*
X115568207Y-88335268D01*
X115391424Y-88307268D01*
X115391416Y-88307267D01*
X115388176Y-88306754D01*
X115097106Y-88291500D01*
X114902894Y-88291500D01*
X114611824Y-88306754D01*
X114608584Y-88307267D01*
X114608576Y-88307268D01*
X114431793Y-88335268D01*
X114227901Y-88367562D01*
X113852438Y-88468167D01*
X113849350Y-88469352D01*
X113849348Y-88469353D01*
X113787324Y-88493162D01*
X113489547Y-88607468D01*
X113486607Y-88608966D01*
X113146147Y-88782439D01*
X113146140Y-88782443D01*
X113143206Y-88783938D01*
X113140440Y-88785734D01*
X113140437Y-88785736D01*
X112819971Y-88993848D01*
X112817207Y-88995643D01*
X112666165Y-89117955D01*
X112570765Y-89195209D01*
X112515124Y-89240266D01*
X112240266Y-89515124D01*
X111995643Y-89817207D01*
X111993848Y-89819970D01*
X111993848Y-89819971D01*
X111785736Y-90140436D01*
X111785734Y-90140439D01*
X111783938Y-90143205D01*
X111782443Y-90146139D01*
X111782439Y-90146146D01*
X111619652Y-90465635D01*
X111607468Y-90489547D01*
X111606284Y-90492632D01*
X111471150Y-90844668D01*
X111468167Y-90852438D01*
X111367562Y-91227901D01*
X111354701Y-91309103D01*
X111311436Y-91582266D01*
X111306754Y-91611824D01*
X111286411Y-92000000D01*
X106558562Y-92000000D01*
X106559235Y-91871583D01*
X106559235Y-91871576D01*
X106559257Y-91867297D01*
X106521732Y-91582266D01*
X106445871Y-91304964D01*
X106413001Y-91227901D01*
X106334763Y-91044476D01*
X106334761Y-91044472D01*
X106333077Y-91040524D01*
X106225140Y-90860174D01*
X106187643Y-90797521D01*
X106187640Y-90797517D01*
X106185439Y-90793839D01*
X106005687Y-90569472D01*
X105797149Y-90371577D01*
X105563683Y-90203814D01*
X105541843Y-90192250D01*
X105518654Y-90179972D01*
X105309608Y-90069288D01*
X105039627Y-89970489D01*
X104758736Y-89909245D01*
X104727685Y-89906801D01*
X104535718Y-89891693D01*
X104535709Y-89891693D01*
X104533261Y-89891500D01*
X104377729Y-89891500D01*
X104375593Y-89891646D01*
X104375582Y-89891646D01*
X104167452Y-89905835D01*
X104167446Y-89905836D01*
X104163175Y-89906127D01*
X104158980Y-89906996D01*
X104158978Y-89906996D01*
X104022416Y-89935277D01*
X103881658Y-89964426D01*
X103610657Y-90060393D01*
X103355188Y-90192250D01*
X103351687Y-90194711D01*
X103351683Y-90194713D01*
X103295839Y-90233961D01*
X103119977Y-90357559D01*
X103104892Y-90371577D01*
X102990344Y-90478022D01*
X102909378Y-90553260D01*
X102727287Y-90775732D01*
X102577073Y-91020858D01*
X102575347Y-91024791D01*
X102575346Y-91024792D01*
X102485303Y-91229917D01*
X102461517Y-91284102D01*
X102382756Y-91560594D01*
X102342249Y-91845216D01*
X102342227Y-91849505D01*
X102342226Y-91849512D01*
X102341288Y-92028665D01*
X102340743Y-92132703D01*
X76981600Y-92132703D01*
X76988555Y-92000000D01*
X76968349Y-91614441D01*
X76965956Y-91599327D01*
X76918707Y-91301016D01*
X76907951Y-91233106D01*
X76808024Y-90860174D01*
X76805055Y-90852438D01*
X76670847Y-90502815D01*
X76669663Y-90499730D01*
X76666046Y-90492632D01*
X76495881Y-90158664D01*
X76495877Y-90158657D01*
X76494382Y-90155723D01*
X76486254Y-90143206D01*
X76285906Y-89834697D01*
X76284104Y-89831922D01*
X76041131Y-89531875D01*
X75768125Y-89258869D01*
X75468078Y-89015896D01*
X75144278Y-88805618D01*
X75141344Y-88804123D01*
X75141337Y-88804119D01*
X74803210Y-88631835D01*
X74800270Y-88630337D01*
X74439826Y-88491976D01*
X74066894Y-88392049D01*
X73864357Y-88359970D01*
X73688807Y-88332165D01*
X73688799Y-88332164D01*
X73685559Y-88331651D01*
X73300000Y-88311445D01*
X72914441Y-88331651D01*
X72911201Y-88332164D01*
X72911193Y-88332165D01*
X72735643Y-88359970D01*
X72533106Y-88392049D01*
X72160174Y-88491976D01*
X71799730Y-88630337D01*
X71796790Y-88631835D01*
X71458664Y-88804119D01*
X71458657Y-88804123D01*
X71455723Y-88805618D01*
X71131922Y-89015896D01*
X70831875Y-89258869D01*
X70558869Y-89531875D01*
X70315896Y-89831922D01*
X70314094Y-89834697D01*
X70113747Y-90143206D01*
X70105618Y-90155723D01*
X70104123Y-90158657D01*
X70104119Y-90158664D01*
X69933954Y-90492632D01*
X69930337Y-90499730D01*
X69929153Y-90502815D01*
X69794946Y-90852438D01*
X69791976Y-90860174D01*
X69692049Y-91233106D01*
X69681293Y-91301016D01*
X69634045Y-91599327D01*
X69631651Y-91614441D01*
X69611445Y-92000000D01*
X65063554Y-92000000D01*
X65046864Y-91617731D01*
X65044026Y-91552727D01*
X65044025Y-91552716D01*
X65043905Y-91549967D01*
X64999553Y-91213082D01*
X64985467Y-91106083D01*
X64985466Y-91106077D01*
X64985108Y-91103358D01*
X64887610Y-90663574D01*
X64853875Y-90556579D01*
X64752983Y-90236589D01*
X64752980Y-90236581D01*
X64752154Y-90233961D01*
X64585624Y-89831922D01*
X64580822Y-89820330D01*
X64580821Y-89820329D01*
X64579769Y-89817788D01*
X64371769Y-89418223D01*
X64129736Y-89038307D01*
X63888254Y-88723601D01*
X63857176Y-88683099D01*
X63857171Y-88683093D01*
X63855512Y-88680931D01*
X63551184Y-88348816D01*
X63219069Y-88044488D01*
X63216907Y-88042829D01*
X63216901Y-88042824D01*
X63095462Y-87949641D01*
X62861693Y-87770264D01*
X62481777Y-87528231D01*
X62082212Y-87320231D01*
X61666039Y-87147846D01*
X61663419Y-87147020D01*
X61663411Y-87147017D01*
X61239056Y-87013219D01*
X61239051Y-87013218D01*
X61236426Y-87012390D01*
X60796642Y-86914892D01*
X60793923Y-86914534D01*
X60793917Y-86914533D01*
X60626326Y-86892470D01*
X60350033Y-86856095D01*
X60347284Y-86855975D01*
X60347273Y-86855974D01*
X60017131Y-86841560D01*
X60017127Y-86841560D01*
X60015755Y-86841500D01*
X59784245Y-86841500D01*
X59782873Y-86841560D01*
X59782869Y-86841560D01*
X59452727Y-86855974D01*
X59452716Y-86855975D01*
X59449967Y-86856095D01*
X59173674Y-86892470D01*
X59006083Y-86914533D01*
X59006077Y-86914534D01*
X59003358Y-86914892D01*
X58563574Y-87012390D01*
X58560949Y-87013218D01*
X58560944Y-87013219D01*
X58136589Y-87147017D01*
X58136581Y-87147020D01*
X58133961Y-87147846D01*
X57717788Y-87320231D01*
X57318223Y-87528231D01*
X56938307Y-87770264D01*
X56704538Y-87949641D01*
X56583099Y-88042824D01*
X56583093Y-88042829D01*
X56580931Y-88044488D01*
X56248816Y-88348816D01*
X55944488Y-88680931D01*
X55942829Y-88683093D01*
X55942824Y-88683099D01*
X55911746Y-88723601D01*
X55670264Y-89038307D01*
X55428231Y-89418223D01*
X55220231Y-89817788D01*
X55219179Y-89820329D01*
X55219178Y-89820330D01*
X55214376Y-89831922D01*
X55047846Y-90233961D01*
X55047020Y-90236581D01*
X55047017Y-90236589D01*
X54946125Y-90556579D01*
X54912390Y-90663574D01*
X54814892Y-91103358D01*
X54814534Y-91106077D01*
X54814533Y-91106083D01*
X54800447Y-91213082D01*
X54756095Y-91549967D01*
X54755975Y-91552716D01*
X54755974Y-91552727D01*
X54753136Y-91617731D01*
X54736446Y-92000000D01*
X49263459Y-92000000D01*
X49256522Y-91863049D01*
X49243842Y-91612746D01*
X49243841Y-91612741D01*
X49243681Y-91609573D01*
X49193877Y-91284102D01*
X49185033Y-91226304D01*
X49185031Y-91226295D01*
X49184549Y-91223144D01*
X49136367Y-91036837D01*
X49087465Y-90847748D01*
X49087462Y-90847740D01*
X49086668Y-90844668D01*
X49083047Y-90834879D01*
X48952151Y-90481019D01*
X48952148Y-90481013D01*
X48951042Y-90478022D01*
X48779057Y-90126958D01*
X48773503Y-90118034D01*
X48574162Y-89797781D01*
X48572476Y-89795072D01*
X48333414Y-89485760D01*
X48064317Y-89202192D01*
X48061893Y-89200107D01*
X47770356Y-88949346D01*
X47770353Y-88949344D01*
X47767941Y-88947269D01*
X47765333Y-88945449D01*
X47765327Y-88945445D01*
X47449934Y-88725424D01*
X47447321Y-88723601D01*
X47238672Y-88607468D01*
X47108525Y-88535029D01*
X47108523Y-88535028D01*
X47105740Y-88533479D01*
X47102820Y-88532221D01*
X47102815Y-88532219D01*
X46749628Y-88380112D01*
X46749618Y-88380108D01*
X46746694Y-88378849D01*
X46373860Y-88261295D01*
X46099971Y-88204575D01*
X45994180Y-88182667D01*
X45994177Y-88182667D01*
X45991055Y-88182020D01*
X45707344Y-88152702D01*
X45605354Y-88142162D01*
X45605351Y-88142162D01*
X45602198Y-88141836D01*
X45599031Y-88141830D01*
X45599022Y-88141830D01*
X45406362Y-88141494D01*
X45211271Y-88141153D01*
X44822276Y-88179980D01*
X44439197Y-88257919D01*
X44065955Y-88374171D01*
X44022036Y-88392904D01*
X43709301Y-88526296D01*
X43709297Y-88526298D01*
X43706371Y-88527546D01*
X43703592Y-88529080D01*
X43703586Y-88529083D01*
X43432173Y-88678911D01*
X43364128Y-88716474D01*
X43361507Y-88718289D01*
X43361502Y-88718292D01*
X43232791Y-88807416D01*
X43042729Y-88939021D01*
X42745466Y-89192909D01*
X42475381Y-89475536D01*
X42473424Y-89478049D01*
X42473423Y-89478051D01*
X42444563Y-89515124D01*
X42235240Y-89784011D01*
X42233544Y-89786715D01*
X42233541Y-89786719D01*
X42156108Y-89910158D01*
X42027501Y-90115174D01*
X42026091Y-90118026D01*
X42026087Y-90118034D01*
X41902016Y-90369074D01*
X41854293Y-90465635D01*
X41717387Y-90831806D01*
X41618186Y-91209938D01*
X41603305Y-91304964D01*
X41559881Y-91582266D01*
X41557705Y-91596159D01*
X41557534Y-91599318D01*
X41557533Y-91599327D01*
X41544447Y-91840964D01*
X41536565Y-91986514D01*
X40508000Y-91986514D01*
X40508000Y-77607655D01*
X58139858Y-77607655D01*
X58175104Y-77866638D01*
X58176412Y-77871124D01*
X58176412Y-77871126D01*
X58196098Y-77938664D01*
X58248243Y-78117567D01*
X58357668Y-78354928D01*
X58360231Y-78358837D01*
X58498410Y-78569596D01*
X58498414Y-78569601D01*
X58500976Y-78573509D01*
X58675018Y-78768506D01*
X58875970Y-78935637D01*
X58879973Y-78938066D01*
X59095422Y-79068804D01*
X59095426Y-79068806D01*
X59099419Y-79071229D01*
X59340455Y-79172303D01*
X59593783Y-79236641D01*
X59598434Y-79237109D01*
X59598438Y-79237110D01*
X59791308Y-79256531D01*
X59810867Y-79258500D01*
X59966354Y-79258500D01*
X59968679Y-79258327D01*
X59968685Y-79258327D01*
X60156000Y-79244407D01*
X60156004Y-79244406D01*
X60160652Y-79244061D01*
X60165200Y-79243032D01*
X60165206Y-79243031D01*
X60351601Y-79200853D01*
X60415577Y-79186377D01*
X60451769Y-79172303D01*
X60654824Y-79093340D01*
X60654827Y-79093339D01*
X60659177Y-79091647D01*
X60886098Y-78961951D01*
X61091357Y-78800138D01*
X61270443Y-78609763D01*
X61419424Y-78395009D01*
X61535025Y-78160593D01*
X61614707Y-77911665D01*
X61656721Y-77653693D01*
X61660142Y-77392345D01*
X61624896Y-77133362D01*
X61610473Y-77083877D01*
X61553068Y-76886932D01*
X61551757Y-76882433D01*
X61442332Y-76645072D01*
X61409519Y-76595024D01*
X61301590Y-76430404D01*
X61301586Y-76430399D01*
X61299024Y-76426491D01*
X61124982Y-76231494D01*
X60924030Y-76064363D01*
X60876844Y-76035730D01*
X60704578Y-75931196D01*
X60704574Y-75931194D01*
X60700581Y-75928771D01*
X60459545Y-75827697D01*
X60206217Y-75763359D01*
X60201566Y-75762891D01*
X60201562Y-75762890D01*
X59992271Y-75741816D01*
X59989133Y-75741500D01*
X59833646Y-75741500D01*
X59831321Y-75741673D01*
X59831315Y-75741673D01*
X59644000Y-75755593D01*
X59643996Y-75755594D01*
X59639348Y-75755939D01*
X59634800Y-75756968D01*
X59634794Y-75756969D01*
X59448399Y-75799147D01*
X59384423Y-75813623D01*
X59380071Y-75815315D01*
X59380069Y-75815316D01*
X59145176Y-75906660D01*
X59145173Y-75906661D01*
X59140823Y-75908353D01*
X58913902Y-76038049D01*
X58708643Y-76199862D01*
X58529557Y-76390237D01*
X58380576Y-76604991D01*
X58264975Y-76839407D01*
X58185293Y-77088335D01*
X58143279Y-77346307D01*
X58139858Y-77607655D01*
X40508000Y-77607655D01*
X40508000Y-69986514D01*
X41536565Y-69986514D01*
X41554980Y-70377008D01*
X41555452Y-70380165D01*
X41555452Y-70380167D01*
X41560518Y-70414065D01*
X41612763Y-70763641D01*
X41613549Y-70766723D01*
X41613549Y-70766725D01*
X41623648Y-70806343D01*
X41709321Y-71142456D01*
X41843667Y-71509574D01*
X42014425Y-71861236D01*
X42016104Y-71863954D01*
X42213023Y-72182793D01*
X42219846Y-72193841D01*
X42221787Y-72196371D01*
X42221788Y-72196372D01*
X42430312Y-72468125D01*
X42457828Y-72503985D01*
X42725933Y-72788491D01*
X42728338Y-72790575D01*
X42728344Y-72790580D01*
X42760462Y-72818401D01*
X43021417Y-73044447D01*
X43341254Y-73269233D01*
X43682170Y-73460546D01*
X44040674Y-73616428D01*
X44413096Y-73735283D01*
X44416229Y-73735943D01*
X44416232Y-73735944D01*
X44792494Y-73815234D01*
X44792497Y-73815235D01*
X44795622Y-73815893D01*
X45184336Y-73857435D01*
X45187523Y-73857452D01*
X45187529Y-73857452D01*
X45364895Y-73858380D01*
X45575258Y-73859482D01*
X45722592Y-73845295D01*
X45961221Y-73822318D01*
X45961226Y-73822317D01*
X45964386Y-73822013D01*
X45967505Y-73821390D01*
X45967510Y-73821389D01*
X46156412Y-73783642D01*
X46347735Y-73745412D01*
X46634089Y-73657318D01*
X46718339Y-73631400D01*
X46718342Y-73631399D01*
X46721381Y-73630464D01*
X46724309Y-73629227D01*
X46724315Y-73629225D01*
X46886219Y-73560834D01*
X47081498Y-73478345D01*
X47084301Y-73476811D01*
X47084306Y-73476808D01*
X47282745Y-73368165D01*
X47424398Y-73290612D01*
X47746572Y-73069188D01*
X47778204Y-73042362D01*
X48042290Y-72818401D01*
X48042292Y-72818399D01*
X48044720Y-72816340D01*
X48046925Y-72814048D01*
X48046931Y-72814043D01*
X48157327Y-72699324D01*
X48315790Y-72534657D01*
X48557006Y-72227023D01*
X48583348Y-72185355D01*
X48739946Y-71937641D01*
X48765899Y-71896587D01*
X48767319Y-71893739D01*
X48767324Y-71893730D01*
X48938910Y-71549580D01*
X48940330Y-71546732D01*
X49078513Y-71181041D01*
X49088271Y-71144370D01*
X49153471Y-70899329D01*
X49179033Y-70803258D01*
X49184547Y-70768838D01*
X49237312Y-70439406D01*
X49240861Y-70417251D01*
X49242689Y-70385559D01*
X49257268Y-70132703D01*
X49263365Y-70026972D01*
X49263459Y-70000000D01*
X54736446Y-70000000D01*
X54736566Y-70002748D01*
X54755446Y-70435159D01*
X54756095Y-70450033D01*
X54814892Y-70896642D01*
X54912390Y-71336426D01*
X54913218Y-71339051D01*
X54913219Y-71339056D01*
X55008876Y-71642441D01*
X55047846Y-71766039D01*
X55159851Y-72036443D01*
X55215444Y-72170654D01*
X55220231Y-72182212D01*
X55428231Y-72581777D01*
X55670264Y-72961693D01*
X55735168Y-73046277D01*
X55921262Y-73288800D01*
X55944488Y-73319069D01*
X56248816Y-73651184D01*
X56580931Y-73955512D01*
X56583093Y-73957171D01*
X56583099Y-73957176D01*
X56704538Y-74050359D01*
X56938307Y-74229736D01*
X57318223Y-74471769D01*
X57717788Y-74679769D01*
X58133961Y-74852154D01*
X58136581Y-74852980D01*
X58136589Y-74852983D01*
X58560944Y-74986781D01*
X58560949Y-74986782D01*
X58563574Y-74987610D01*
X59003358Y-75085108D01*
X59006077Y-75085466D01*
X59006083Y-75085467D01*
X59173674Y-75107530D01*
X59449967Y-75143905D01*
X59452716Y-75144025D01*
X59452727Y-75144026D01*
X59782869Y-75158440D01*
X59782873Y-75158440D01*
X59784245Y-75158500D01*
X60015755Y-75158500D01*
X60017127Y-75158440D01*
X60017131Y-75158440D01*
X60347273Y-75144026D01*
X60347284Y-75144025D01*
X60350033Y-75143905D01*
X60626326Y-75107530D01*
X60793917Y-75085467D01*
X60793923Y-75085466D01*
X60796642Y-75085108D01*
X61236426Y-74987610D01*
X61239051Y-74986782D01*
X61239056Y-74986781D01*
X61663411Y-74852983D01*
X61663419Y-74852980D01*
X61666039Y-74852154D01*
X62082212Y-74679769D01*
X62481777Y-74471769D01*
X62861693Y-74229736D01*
X63095462Y-74050359D01*
X63216901Y-73957176D01*
X63216907Y-73957171D01*
X63219069Y-73955512D01*
X63551184Y-73651184D01*
X63855512Y-73319069D01*
X63878739Y-73288800D01*
X64064832Y-73046277D01*
X64129736Y-72961693D01*
X64371769Y-72581777D01*
X64579769Y-72182212D01*
X64584557Y-72170654D01*
X64640149Y-72036443D01*
X64752154Y-71766039D01*
X64791125Y-71642441D01*
X64886781Y-71339056D01*
X64886782Y-71339051D01*
X64887610Y-71336426D01*
X64985108Y-70896642D01*
X65043905Y-70450033D01*
X65044555Y-70435159D01*
X65063434Y-70002748D01*
X65063554Y-70000000D01*
X69611445Y-70000000D01*
X69631651Y-70385559D01*
X69632164Y-70388799D01*
X69632165Y-70388807D01*
X69659970Y-70564357D01*
X69692049Y-70766894D01*
X69791976Y-71139826D01*
X69793161Y-71142914D01*
X69793162Y-71142916D01*
X69818724Y-71209508D01*
X69930337Y-71500270D01*
X69931835Y-71503210D01*
X70088008Y-71809715D01*
X70105618Y-71844277D01*
X70107414Y-71847043D01*
X70107416Y-71847046D01*
X70115545Y-71859563D01*
X70315896Y-72168078D01*
X70558869Y-72468125D01*
X70831875Y-72741131D01*
X71131922Y-72984104D01*
X71455722Y-73194382D01*
X71458656Y-73195877D01*
X71458663Y-73195881D01*
X71647602Y-73292150D01*
X71799730Y-73369663D01*
X72160174Y-73508024D01*
X72533106Y-73607951D01*
X72687710Y-73632438D01*
X72911193Y-73667835D01*
X72911201Y-73667836D01*
X72914441Y-73668349D01*
X73300000Y-73688555D01*
X73685559Y-73668349D01*
X73688799Y-73667836D01*
X73688807Y-73667835D01*
X73912290Y-73632438D01*
X74066894Y-73607951D01*
X74439826Y-73508024D01*
X74800270Y-73369663D01*
X74952398Y-73292150D01*
X75141337Y-73195881D01*
X75141344Y-73195877D01*
X75144278Y-73194382D01*
X75468078Y-72984104D01*
X75768125Y-72741131D01*
X76041131Y-72468125D01*
X76284104Y-72168078D01*
X76484455Y-71859563D01*
X76492584Y-71847046D01*
X76492586Y-71847043D01*
X76494382Y-71844277D01*
X76511993Y-71809715D01*
X76668165Y-71503210D01*
X76669663Y-71500270D01*
X76781276Y-71209508D01*
X76806838Y-71142916D01*
X76806839Y-71142914D01*
X76808024Y-71139826D01*
X76907951Y-70766894D01*
X76940030Y-70564357D01*
X76967835Y-70388807D01*
X76967836Y-70388799D01*
X76968349Y-70385559D01*
X76981600Y-70132703D01*
X102340743Y-70132703D01*
X102378268Y-70417734D01*
X102454129Y-70695036D01*
X102455813Y-70698984D01*
X102538960Y-70893917D01*
X102566923Y-70959476D01*
X102578693Y-70979142D01*
X102681340Y-71150652D01*
X102714561Y-71206161D01*
X102894313Y-71430528D01*
X103102851Y-71628423D01*
X103336317Y-71796186D01*
X103340112Y-71798195D01*
X103340113Y-71798196D01*
X103361869Y-71809715D01*
X103590392Y-71930712D01*
X103860373Y-72029511D01*
X104141264Y-72090755D01*
X104169841Y-72093004D01*
X104364282Y-72108307D01*
X104364291Y-72108307D01*
X104366739Y-72108500D01*
X104522271Y-72108500D01*
X104524407Y-72108354D01*
X104524418Y-72108354D01*
X104732548Y-72094165D01*
X104732554Y-72094164D01*
X104736825Y-72093873D01*
X104741020Y-72093004D01*
X104741022Y-72093004D01*
X104877583Y-72064724D01*
X105018342Y-72035574D01*
X105289343Y-71939607D01*
X105435918Y-71863954D01*
X105541005Y-71809715D01*
X105541006Y-71809715D01*
X105544812Y-71807750D01*
X105548313Y-71805289D01*
X105548317Y-71805287D01*
X105662418Y-71725095D01*
X105780023Y-71642441D01*
X105918895Y-71513393D01*
X105987479Y-71449661D01*
X105987481Y-71449658D01*
X105990622Y-71446740D01*
X106172713Y-71224268D01*
X106322927Y-70979142D01*
X106357963Y-70899329D01*
X106436757Y-70719830D01*
X106438483Y-70715898D01*
X106517244Y-70439406D01*
X106557751Y-70154784D01*
X106557845Y-70136951D01*
X106558562Y-70000000D01*
X111286411Y-70000000D01*
X111306754Y-70388176D01*
X111307267Y-70391416D01*
X111307268Y-70391424D01*
X111314195Y-70435159D01*
X111367562Y-70772099D01*
X111468167Y-71147562D01*
X111607468Y-71510453D01*
X111608966Y-71513393D01*
X111776062Y-71841336D01*
X111783938Y-71856794D01*
X111785734Y-71859560D01*
X111785736Y-71859563D01*
X111947302Y-72108354D01*
X111995643Y-72182793D01*
X112240266Y-72484876D01*
X112515124Y-72759734D01*
X112517682Y-72761806D01*
X112517686Y-72761809D01*
X112553215Y-72790580D01*
X112817207Y-73004357D01*
X112819970Y-73006152D01*
X112819971Y-73006152D01*
X113109822Y-73194382D01*
X113143206Y-73216062D01*
X113146140Y-73217557D01*
X113146147Y-73217561D01*
X113441724Y-73368165D01*
X113489547Y-73392532D01*
X113662673Y-73458989D01*
X113790414Y-73508024D01*
X113852438Y-73531833D01*
X114227901Y-73632438D01*
X114431793Y-73664732D01*
X114608576Y-73692732D01*
X114608584Y-73692733D01*
X114611824Y-73693246D01*
X114902894Y-73708500D01*
X115097106Y-73708500D01*
X115388176Y-73693246D01*
X115391416Y-73692733D01*
X115391424Y-73692732D01*
X115568207Y-73664732D01*
X115772099Y-73632438D01*
X116147562Y-73531833D01*
X116209587Y-73508024D01*
X116337327Y-73458989D01*
X116510453Y-73392532D01*
X116558276Y-73368165D01*
X116853853Y-73217561D01*
X116853860Y-73217557D01*
X116856794Y-73216062D01*
X116890179Y-73194382D01*
X117180029Y-73006152D01*
X117180030Y-73006152D01*
X117182793Y-73004357D01*
X117446785Y-72790580D01*
X117482314Y-72761809D01*
X117482318Y-72761806D01*
X117484876Y-72759734D01*
X117759734Y-72484876D01*
X118004357Y-72182793D01*
X118062102Y-72093873D01*
X118214264Y-71859564D01*
X118214266Y-71859561D01*
X118216062Y-71856795D01*
X118217562Y-71853853D01*
X118391034Y-71513393D01*
X118392532Y-71510453D01*
X118531833Y-71147562D01*
X118632438Y-70772099D01*
X118685805Y-70435159D01*
X118692732Y-70391424D01*
X118692733Y-70391416D01*
X118693246Y-70388176D01*
X118713589Y-70000000D01*
X118712882Y-69986514D01*
X132136565Y-69986514D01*
X132154980Y-70377008D01*
X132155452Y-70380165D01*
X132155452Y-70380167D01*
X132160518Y-70414065D01*
X132212763Y-70763641D01*
X132213549Y-70766723D01*
X132213549Y-70766725D01*
X132223648Y-70806343D01*
X132309321Y-71142456D01*
X132443667Y-71509574D01*
X132614425Y-71861236D01*
X132616104Y-71863954D01*
X132813023Y-72182793D01*
X132819846Y-72193841D01*
X132821787Y-72196371D01*
X132821788Y-72196372D01*
X133030312Y-72468125D01*
X133057828Y-72503985D01*
X133325933Y-72788491D01*
X133328338Y-72790575D01*
X133328344Y-72790580D01*
X133360462Y-72818401D01*
X133621417Y-73044447D01*
X133941254Y-73269233D01*
X134282170Y-73460546D01*
X134640674Y-73616428D01*
X135013096Y-73735283D01*
X135016229Y-73735943D01*
X135016232Y-73735944D01*
X135392494Y-73815234D01*
X135392497Y-73815235D01*
X135395622Y-73815893D01*
X135784336Y-73857435D01*
X135787523Y-73857452D01*
X135787529Y-73857452D01*
X135964895Y-73858380D01*
X136175258Y-73859482D01*
X136322592Y-73845295D01*
X136561221Y-73822318D01*
X136561226Y-73822317D01*
X136564386Y-73822013D01*
X136567505Y-73821390D01*
X136567510Y-73821389D01*
X136756412Y-73783642D01*
X136947735Y-73745412D01*
X137234089Y-73657318D01*
X137318339Y-73631400D01*
X137318342Y-73631399D01*
X137321381Y-73630464D01*
X137324309Y-73629227D01*
X137324315Y-73629225D01*
X137486219Y-73560834D01*
X137681498Y-73478345D01*
X137684301Y-73476811D01*
X137684306Y-73476808D01*
X137882745Y-73368165D01*
X138024398Y-73290612D01*
X138346572Y-73069188D01*
X138378204Y-73042362D01*
X138642290Y-72818401D01*
X138642292Y-72818399D01*
X138644720Y-72816340D01*
X138646925Y-72814048D01*
X138646931Y-72814043D01*
X138757327Y-72699324D01*
X138915790Y-72534657D01*
X139157006Y-72227023D01*
X139183348Y-72185355D01*
X139339946Y-71937641D01*
X139365899Y-71896587D01*
X139367319Y-71893739D01*
X139367324Y-71893730D01*
X139538910Y-71549580D01*
X139540330Y-71546732D01*
X139678513Y-71181041D01*
X139688271Y-71144370D01*
X139753471Y-70899329D01*
X139779033Y-70803258D01*
X139784547Y-70768838D01*
X139837312Y-70439406D01*
X139840861Y-70417251D01*
X139842689Y-70385559D01*
X139857268Y-70132703D01*
X139863365Y-70026972D01*
X139863459Y-70000000D01*
X139856522Y-69863049D01*
X139843842Y-69612746D01*
X139843841Y-69612741D01*
X139843681Y-69609573D01*
X139793877Y-69284102D01*
X139785033Y-69226304D01*
X139785031Y-69226295D01*
X139784549Y-69223144D01*
X139736367Y-69036837D01*
X139687465Y-68847748D01*
X139687462Y-68847740D01*
X139686668Y-68844668D01*
X139683047Y-68834879D01*
X139552151Y-68481019D01*
X139552148Y-68481013D01*
X139551042Y-68478022D01*
X139379057Y-68126958D01*
X139373503Y-68118034D01*
X139174162Y-67797781D01*
X139172476Y-67795072D01*
X138933414Y-67485760D01*
X138664317Y-67202192D01*
X138661893Y-67200107D01*
X138370356Y-66949346D01*
X138370353Y-66949344D01*
X138367941Y-66947269D01*
X138365333Y-66945449D01*
X138365327Y-66945445D01*
X138049934Y-66725424D01*
X138047321Y-66723601D01*
X137838672Y-66607468D01*
X137708525Y-66535029D01*
X137708523Y-66535028D01*
X137705740Y-66533479D01*
X137702820Y-66532221D01*
X137702815Y-66532219D01*
X137349628Y-66380112D01*
X137349618Y-66380108D01*
X137346694Y-66378849D01*
X136973860Y-66261295D01*
X136699971Y-66204575D01*
X136594180Y-66182667D01*
X136594177Y-66182667D01*
X136591055Y-66182020D01*
X136307344Y-66152702D01*
X136205354Y-66142162D01*
X136205351Y-66142162D01*
X136202198Y-66141836D01*
X136199031Y-66141830D01*
X136199022Y-66141830D01*
X136006362Y-66141494D01*
X135811271Y-66141153D01*
X135422276Y-66179980D01*
X135039197Y-66257919D01*
X134665955Y-66374171D01*
X134622036Y-66392904D01*
X134309301Y-66526296D01*
X134309297Y-66526298D01*
X134306371Y-66527546D01*
X134303592Y-66529080D01*
X134303586Y-66529083D01*
X134032173Y-66678911D01*
X133964128Y-66716474D01*
X133961507Y-66718289D01*
X133961502Y-66718292D01*
X133832791Y-66807416D01*
X133642729Y-66939021D01*
X133345466Y-67192909D01*
X133075381Y-67475536D01*
X133073424Y-67478049D01*
X133073423Y-67478051D01*
X133044563Y-67515124D01*
X132835240Y-67784011D01*
X132833544Y-67786715D01*
X132833541Y-67786719D01*
X132756108Y-67910158D01*
X132627501Y-68115174D01*
X132626091Y-68118026D01*
X132626087Y-68118034D01*
X132502016Y-68369074D01*
X132454293Y-68465635D01*
X132317387Y-68831806D01*
X132218186Y-69209938D01*
X132203305Y-69304964D01*
X132159881Y-69582266D01*
X132157705Y-69596159D01*
X132157534Y-69599318D01*
X132157533Y-69599327D01*
X132144447Y-69840964D01*
X132136565Y-69986514D01*
X118712882Y-69986514D01*
X118693246Y-69611824D01*
X118688565Y-69582266D01*
X118645299Y-69309103D01*
X118632438Y-69227901D01*
X118531833Y-68852438D01*
X118528851Y-68844668D01*
X118393716Y-68492632D01*
X118392532Y-68489547D01*
X118380348Y-68465635D01*
X118217561Y-68146147D01*
X118217557Y-68146140D01*
X118216062Y-68143206D01*
X118205511Y-68126958D01*
X118006152Y-67819971D01*
X118006152Y-67819970D01*
X118004357Y-67817207D01*
X117759734Y-67515124D01*
X117484876Y-67240266D01*
X117429236Y-67195209D01*
X117333835Y-67117955D01*
X117182793Y-66995643D01*
X117180029Y-66993848D01*
X116859563Y-66785736D01*
X116859560Y-66785734D01*
X116856794Y-66783938D01*
X116853860Y-66782443D01*
X116853853Y-66782439D01*
X116513393Y-66608966D01*
X116510453Y-66607468D01*
X116212676Y-66493162D01*
X116150652Y-66469353D01*
X116150650Y-66469352D01*
X116147562Y-66468167D01*
X115772099Y-66367562D01*
X115568207Y-66335268D01*
X115391424Y-66307268D01*
X115391416Y-66307267D01*
X115388176Y-66306754D01*
X115097106Y-66291500D01*
X114902894Y-66291500D01*
X114611824Y-66306754D01*
X114608584Y-66307267D01*
X114608576Y-66307268D01*
X114431793Y-66335268D01*
X114227901Y-66367562D01*
X113852438Y-66468167D01*
X113849350Y-66469352D01*
X113849348Y-66469353D01*
X113787324Y-66493162D01*
X113489547Y-66607468D01*
X113486607Y-66608966D01*
X113146147Y-66782439D01*
X113146140Y-66782443D01*
X113143206Y-66783938D01*
X113140440Y-66785734D01*
X113140437Y-66785736D01*
X112819971Y-66993848D01*
X112817207Y-66995643D01*
X112666165Y-67117955D01*
X112570765Y-67195209D01*
X112515124Y-67240266D01*
X112240266Y-67515124D01*
X111995643Y-67817207D01*
X111993848Y-67819970D01*
X111993848Y-67819971D01*
X111785736Y-68140436D01*
X111785734Y-68140439D01*
X111783938Y-68143205D01*
X111782443Y-68146139D01*
X111782439Y-68146146D01*
X111619652Y-68465635D01*
X111607468Y-68489547D01*
X111606284Y-68492632D01*
X111471150Y-68844668D01*
X111468167Y-68852438D01*
X111367562Y-69227901D01*
X111354701Y-69309103D01*
X111311436Y-69582266D01*
X111306754Y-69611824D01*
X111286411Y-70000000D01*
X106558562Y-70000000D01*
X106559235Y-69871583D01*
X106559235Y-69871576D01*
X106559257Y-69867297D01*
X106521732Y-69582266D01*
X106445871Y-69304964D01*
X106413001Y-69227901D01*
X106334763Y-69044476D01*
X106334761Y-69044472D01*
X106333077Y-69040524D01*
X106225140Y-68860174D01*
X106187643Y-68797521D01*
X106187640Y-68797517D01*
X106185439Y-68793839D01*
X106005687Y-68569472D01*
X105797149Y-68371577D01*
X105563683Y-68203814D01*
X105541843Y-68192250D01*
X105518654Y-68179972D01*
X105309608Y-68069288D01*
X105039627Y-67970489D01*
X104758736Y-67909245D01*
X104727685Y-67906801D01*
X104535718Y-67891693D01*
X104535709Y-67891693D01*
X104533261Y-67891500D01*
X104377729Y-67891500D01*
X104375593Y-67891646D01*
X104375582Y-67891646D01*
X104167452Y-67905835D01*
X104167446Y-67905836D01*
X104163175Y-67906127D01*
X104158980Y-67906996D01*
X104158978Y-67906996D01*
X104022417Y-67935276D01*
X103881658Y-67964426D01*
X103610657Y-68060393D01*
X103355188Y-68192250D01*
X103351687Y-68194711D01*
X103351683Y-68194713D01*
X103295839Y-68233961D01*
X103119977Y-68357559D01*
X103104892Y-68371577D01*
X102990344Y-68478022D01*
X102909378Y-68553260D01*
X102727287Y-68775732D01*
X102577073Y-69020858D01*
X102575347Y-69024791D01*
X102575346Y-69024792D01*
X102485303Y-69229917D01*
X102461517Y-69284102D01*
X102382756Y-69560594D01*
X102342249Y-69845216D01*
X102342227Y-69849505D01*
X102342226Y-69849512D01*
X102341288Y-70028665D01*
X102340743Y-70132703D01*
X76981600Y-70132703D01*
X76988555Y-70000000D01*
X76968349Y-69614441D01*
X76965956Y-69599327D01*
X76918707Y-69301016D01*
X76907951Y-69233106D01*
X76808024Y-68860174D01*
X76805055Y-68852438D01*
X76670847Y-68502815D01*
X76669663Y-68499730D01*
X76666046Y-68492632D01*
X76495881Y-68158664D01*
X76495877Y-68158657D01*
X76494382Y-68155723D01*
X76486254Y-68143206D01*
X76285906Y-67834697D01*
X76284104Y-67831922D01*
X76041131Y-67531875D01*
X75768125Y-67258869D01*
X75468078Y-67015896D01*
X75144278Y-66805618D01*
X75141344Y-66804123D01*
X75141337Y-66804119D01*
X74803210Y-66631835D01*
X74800270Y-66630337D01*
X74439826Y-66491976D01*
X74066894Y-66392049D01*
X73864357Y-66359970D01*
X73688807Y-66332165D01*
X73688799Y-66332164D01*
X73685559Y-66331651D01*
X73300000Y-66311445D01*
X72914441Y-66331651D01*
X72911201Y-66332164D01*
X72911193Y-66332165D01*
X72735643Y-66359970D01*
X72533106Y-66392049D01*
X72160174Y-66491976D01*
X71799730Y-66630337D01*
X71796790Y-66631835D01*
X71458664Y-66804119D01*
X71458657Y-66804123D01*
X71455723Y-66805618D01*
X71131922Y-67015896D01*
X70831875Y-67258869D01*
X70558869Y-67531875D01*
X70315896Y-67831922D01*
X70314094Y-67834697D01*
X70113747Y-68143206D01*
X70105618Y-68155723D01*
X70104123Y-68158657D01*
X70104119Y-68158664D01*
X69933954Y-68492632D01*
X69930337Y-68499730D01*
X69929153Y-68502815D01*
X69794946Y-68852438D01*
X69791976Y-68860174D01*
X69692049Y-69233106D01*
X69681293Y-69301016D01*
X69634045Y-69599327D01*
X69631651Y-69614441D01*
X69611445Y-70000000D01*
X65063554Y-70000000D01*
X65046864Y-69617731D01*
X65044026Y-69552727D01*
X65044025Y-69552716D01*
X65043905Y-69549967D01*
X64999553Y-69213082D01*
X64985467Y-69106083D01*
X64985466Y-69106077D01*
X64985108Y-69103358D01*
X64887610Y-68663574D01*
X64853875Y-68556579D01*
X64752983Y-68236589D01*
X64752980Y-68236581D01*
X64752154Y-68233961D01*
X64585624Y-67831922D01*
X64580822Y-67820330D01*
X64580821Y-67820329D01*
X64579769Y-67817788D01*
X64371769Y-67418223D01*
X64129736Y-67038307D01*
X63888254Y-66723601D01*
X63857176Y-66683099D01*
X63857171Y-66683093D01*
X63855512Y-66680931D01*
X63551184Y-66348816D01*
X63219069Y-66044488D01*
X63216907Y-66042829D01*
X63216901Y-66042824D01*
X63095462Y-65949641D01*
X62861693Y-65770264D01*
X62481777Y-65528231D01*
X62082212Y-65320231D01*
X61666039Y-65147846D01*
X61663419Y-65147020D01*
X61663411Y-65147017D01*
X61239056Y-65013219D01*
X61239051Y-65013218D01*
X61236426Y-65012390D01*
X60796642Y-64914892D01*
X60793923Y-64914534D01*
X60793917Y-64914533D01*
X60626326Y-64892470D01*
X60350033Y-64856095D01*
X60347284Y-64855975D01*
X60347273Y-64855974D01*
X60017131Y-64841560D01*
X60017127Y-64841560D01*
X60015755Y-64841500D01*
X59784245Y-64841500D01*
X59782873Y-64841560D01*
X59782869Y-64841560D01*
X59452727Y-64855974D01*
X59452716Y-64855975D01*
X59449967Y-64856095D01*
X59173674Y-64892470D01*
X59006083Y-64914533D01*
X59006077Y-64914534D01*
X59003358Y-64914892D01*
X58563574Y-65012390D01*
X58560949Y-65013218D01*
X58560944Y-65013219D01*
X58136589Y-65147017D01*
X58136581Y-65147020D01*
X58133961Y-65147846D01*
X57717788Y-65320231D01*
X57318223Y-65528231D01*
X56938307Y-65770264D01*
X56704538Y-65949641D01*
X56583099Y-66042824D01*
X56583093Y-66042829D01*
X56580931Y-66044488D01*
X56248816Y-66348816D01*
X55944488Y-66680931D01*
X55942829Y-66683093D01*
X55942824Y-66683099D01*
X55911746Y-66723601D01*
X55670264Y-67038307D01*
X55428231Y-67418223D01*
X55220231Y-67817788D01*
X55219179Y-67820329D01*
X55219178Y-67820330D01*
X55214376Y-67831922D01*
X55047846Y-68233961D01*
X55047020Y-68236581D01*
X55047017Y-68236589D01*
X54946125Y-68556579D01*
X54912390Y-68663574D01*
X54814892Y-69103358D01*
X54814534Y-69106077D01*
X54814533Y-69106083D01*
X54800447Y-69213082D01*
X54756095Y-69549967D01*
X54755975Y-69552716D01*
X54755974Y-69552727D01*
X54753136Y-69617731D01*
X54736446Y-70000000D01*
X49263459Y-70000000D01*
X49256522Y-69863049D01*
X49243842Y-69612746D01*
X49243841Y-69612741D01*
X49243681Y-69609573D01*
X49193877Y-69284102D01*
X49185033Y-69226304D01*
X49185031Y-69226295D01*
X49184549Y-69223144D01*
X49136367Y-69036837D01*
X49087465Y-68847748D01*
X49087462Y-68847740D01*
X49086668Y-68844668D01*
X49083047Y-68834879D01*
X48952151Y-68481019D01*
X48952148Y-68481013D01*
X48951042Y-68478022D01*
X48779057Y-68126958D01*
X48773503Y-68118034D01*
X48574162Y-67797781D01*
X48572476Y-67795072D01*
X48333414Y-67485760D01*
X48064317Y-67202192D01*
X48061893Y-67200107D01*
X47770356Y-66949346D01*
X47770353Y-66949344D01*
X47767941Y-66947269D01*
X47765333Y-66945449D01*
X47765327Y-66945445D01*
X47449934Y-66725424D01*
X47447321Y-66723601D01*
X47238672Y-66607468D01*
X47108525Y-66535029D01*
X47108523Y-66535028D01*
X47105740Y-66533479D01*
X47102820Y-66532221D01*
X47102815Y-66532219D01*
X46749628Y-66380112D01*
X46749618Y-66380108D01*
X46746694Y-66378849D01*
X46373860Y-66261295D01*
X46099971Y-66204575D01*
X45994180Y-66182667D01*
X45994177Y-66182667D01*
X45991055Y-66182020D01*
X45707344Y-66152702D01*
X45605354Y-66142162D01*
X45605351Y-66142162D01*
X45602198Y-66141836D01*
X45599031Y-66141830D01*
X45599022Y-66141830D01*
X45406362Y-66141494D01*
X45211271Y-66141153D01*
X44822276Y-66179980D01*
X44439197Y-66257919D01*
X44065955Y-66374171D01*
X44022036Y-66392904D01*
X43709301Y-66526296D01*
X43709297Y-66526298D01*
X43706371Y-66527546D01*
X43703592Y-66529080D01*
X43703586Y-66529083D01*
X43432173Y-66678911D01*
X43364128Y-66716474D01*
X43361507Y-66718289D01*
X43361502Y-66718292D01*
X43232791Y-66807416D01*
X43042729Y-66939021D01*
X42745466Y-67192909D01*
X42475381Y-67475536D01*
X42473424Y-67478049D01*
X42473423Y-67478051D01*
X42444563Y-67515124D01*
X42235240Y-67784011D01*
X42233544Y-67786715D01*
X42233541Y-67786719D01*
X42156108Y-67910158D01*
X42027501Y-68115174D01*
X42026091Y-68118026D01*
X42026087Y-68118034D01*
X41902016Y-68369074D01*
X41854293Y-68465635D01*
X41717387Y-68831806D01*
X41618186Y-69209938D01*
X41603305Y-69304964D01*
X41559881Y-69582266D01*
X41557705Y-69596159D01*
X41557534Y-69599318D01*
X41557533Y-69599327D01*
X41544447Y-69840964D01*
X41536565Y-69986514D01*
X40508000Y-69986514D01*
X40508000Y-49986514D01*
X41536565Y-49986514D01*
X41554980Y-50377008D01*
X41555452Y-50380165D01*
X41555452Y-50380167D01*
X41560518Y-50414065D01*
X41612763Y-50763641D01*
X41613549Y-50766723D01*
X41613549Y-50766725D01*
X41623648Y-50806343D01*
X41709321Y-51142456D01*
X41843667Y-51509574D01*
X42014425Y-51861236D01*
X42016104Y-51863954D01*
X42158105Y-52093873D01*
X42219846Y-52193841D01*
X42221787Y-52196371D01*
X42221788Y-52196372D01*
X42243240Y-52224328D01*
X42457828Y-52503985D01*
X42725933Y-52788491D01*
X42728338Y-52790575D01*
X42728344Y-52790580D01*
X42760462Y-52818401D01*
X43021417Y-53044447D01*
X43341254Y-53269233D01*
X43682170Y-53460546D01*
X44040674Y-53616428D01*
X44413096Y-53735283D01*
X44416229Y-53735943D01*
X44416232Y-53735944D01*
X44792494Y-53815234D01*
X44792497Y-53815235D01*
X44795622Y-53815893D01*
X45184336Y-53857435D01*
X45187523Y-53857452D01*
X45187529Y-53857452D01*
X45364895Y-53858380D01*
X45575258Y-53859482D01*
X45722592Y-53845295D01*
X45961221Y-53822318D01*
X45961226Y-53822317D01*
X45964386Y-53822013D01*
X45967505Y-53821390D01*
X45967510Y-53821389D01*
X46156412Y-53783642D01*
X46347735Y-53745412D01*
X46634089Y-53657318D01*
X46718339Y-53631400D01*
X46718342Y-53631399D01*
X46721381Y-53630464D01*
X46724309Y-53629227D01*
X46724315Y-53629225D01*
X46886219Y-53560834D01*
X47081498Y-53478345D01*
X47084301Y-53476811D01*
X47084306Y-53476808D01*
X47232339Y-53395762D01*
X47424398Y-53290612D01*
X47746572Y-53069188D01*
X48044720Y-52816340D01*
X48046925Y-52814048D01*
X48046931Y-52814043D01*
X48157327Y-52699324D01*
X48315790Y-52534657D01*
X48557006Y-52227023D01*
X48632026Y-52108354D01*
X48739946Y-51937641D01*
X48765899Y-51896587D01*
X48767319Y-51893739D01*
X48767324Y-51893730D01*
X48938910Y-51549580D01*
X48940330Y-51546732D01*
X49078513Y-51181041D01*
X49179033Y-50803258D01*
X49196368Y-50695036D01*
X49237312Y-50439406D01*
X49240861Y-50417251D01*
X49243000Y-50380167D01*
X49257268Y-50132703D01*
X50160743Y-50132703D01*
X50198268Y-50417734D01*
X50274129Y-50695036D01*
X50386923Y-50959476D01*
X50534561Y-51206161D01*
X50714313Y-51430528D01*
X50922851Y-51628423D01*
X51156317Y-51796186D01*
X51160112Y-51798195D01*
X51160113Y-51798196D01*
X51181869Y-51809715D01*
X51410392Y-51930712D01*
X51680373Y-52029511D01*
X51961264Y-52090755D01*
X51989841Y-52093004D01*
X52184282Y-52108307D01*
X52184291Y-52108307D01*
X52186739Y-52108500D01*
X52342271Y-52108500D01*
X52344407Y-52108354D01*
X52344418Y-52108354D01*
X52552548Y-52094165D01*
X52552554Y-52094164D01*
X52556825Y-52093873D01*
X52561020Y-52093004D01*
X52561022Y-52093004D01*
X52697584Y-52064723D01*
X52838342Y-52035574D01*
X53109343Y-51939607D01*
X53255918Y-51863954D01*
X53361005Y-51809715D01*
X53361006Y-51809715D01*
X53364812Y-51807750D01*
X53368313Y-51805289D01*
X53368317Y-51805287D01*
X53482418Y-51725095D01*
X53600023Y-51642441D01*
X53706223Y-51543754D01*
X53807479Y-51449661D01*
X53807481Y-51449658D01*
X53810622Y-51446740D01*
X53992713Y-51224268D01*
X54142927Y-50979142D01*
X54258483Y-50715898D01*
X54337244Y-50439406D01*
X54377751Y-50154784D01*
X54377845Y-50136951D01*
X54378633Y-49986514D01*
X132136565Y-49986514D01*
X132154980Y-50377008D01*
X132155452Y-50380165D01*
X132155452Y-50380167D01*
X132160518Y-50414065D01*
X132212763Y-50763641D01*
X132213549Y-50766723D01*
X132213549Y-50766725D01*
X132223648Y-50806343D01*
X132309321Y-51142456D01*
X132443667Y-51509574D01*
X132614425Y-51861236D01*
X132616104Y-51863954D01*
X132758105Y-52093873D01*
X132819846Y-52193841D01*
X132821787Y-52196371D01*
X132821788Y-52196372D01*
X132843240Y-52224328D01*
X133057828Y-52503985D01*
X133325933Y-52788491D01*
X133328338Y-52790575D01*
X133328344Y-52790580D01*
X133360462Y-52818401D01*
X133621417Y-53044447D01*
X133941254Y-53269233D01*
X134282170Y-53460546D01*
X134640674Y-53616428D01*
X135013096Y-53735283D01*
X135016229Y-53735943D01*
X135016232Y-53735944D01*
X135392494Y-53815234D01*
X135392497Y-53815235D01*
X135395622Y-53815893D01*
X135784336Y-53857435D01*
X135787523Y-53857452D01*
X135787529Y-53857452D01*
X135964895Y-53858380D01*
X136175258Y-53859482D01*
X136322592Y-53845295D01*
X136561221Y-53822318D01*
X136561226Y-53822317D01*
X136564386Y-53822013D01*
X136567505Y-53821390D01*
X136567510Y-53821389D01*
X136756412Y-53783642D01*
X136947735Y-53745412D01*
X137234089Y-53657318D01*
X137318339Y-53631400D01*
X137318342Y-53631399D01*
X137321381Y-53630464D01*
X137324309Y-53629227D01*
X137324315Y-53629225D01*
X137486219Y-53560834D01*
X137681498Y-53478345D01*
X137684301Y-53476811D01*
X137684306Y-53476808D01*
X137832339Y-53395762D01*
X138024398Y-53290612D01*
X138346572Y-53069188D01*
X138644720Y-52816340D01*
X138646925Y-52814048D01*
X138646931Y-52814043D01*
X138757327Y-52699324D01*
X138915790Y-52534657D01*
X139157006Y-52227023D01*
X139232026Y-52108354D01*
X139339946Y-51937641D01*
X139365899Y-51896587D01*
X139367319Y-51893739D01*
X139367324Y-51893730D01*
X139538910Y-51549580D01*
X139540330Y-51546732D01*
X139678513Y-51181041D01*
X139779033Y-50803258D01*
X139796368Y-50695036D01*
X139837312Y-50439406D01*
X139840861Y-50417251D01*
X139843000Y-50380167D01*
X139857268Y-50132703D01*
X139863365Y-50026972D01*
X139863459Y-50000000D01*
X139856522Y-49863049D01*
X139843842Y-49612746D01*
X139843841Y-49612741D01*
X139843681Y-49609573D01*
X139793877Y-49284102D01*
X139785033Y-49226304D01*
X139785031Y-49226295D01*
X139784549Y-49223144D01*
X139736367Y-49036837D01*
X139687465Y-48847748D01*
X139687462Y-48847740D01*
X139686668Y-48844668D01*
X139683047Y-48834879D01*
X139552151Y-48481019D01*
X139552148Y-48481013D01*
X139551042Y-48478022D01*
X139379057Y-48126958D01*
X139373503Y-48118034D01*
X139174162Y-47797781D01*
X139172476Y-47795072D01*
X138933414Y-47485760D01*
X138664317Y-47202192D01*
X138661893Y-47200107D01*
X138370356Y-46949346D01*
X138370353Y-46949344D01*
X138367941Y-46947269D01*
X138365333Y-46945449D01*
X138365327Y-46945445D01*
X138049934Y-46725424D01*
X138047321Y-46723601D01*
X137705740Y-46533479D01*
X137702820Y-46532221D01*
X137702815Y-46532219D01*
X137349628Y-46380112D01*
X137349618Y-46380108D01*
X137346694Y-46378849D01*
X136973860Y-46261295D01*
X136699971Y-46204575D01*
X136594180Y-46182667D01*
X136594177Y-46182667D01*
X136591055Y-46182020D01*
X136307344Y-46152702D01*
X136205354Y-46142162D01*
X136205351Y-46142162D01*
X136202198Y-46141836D01*
X136199031Y-46141830D01*
X136199022Y-46141830D01*
X136006362Y-46141494D01*
X135811271Y-46141153D01*
X135422276Y-46179980D01*
X135039197Y-46257919D01*
X134665955Y-46374171D01*
X134558229Y-46420120D01*
X134309301Y-46526296D01*
X134309297Y-46526298D01*
X134306371Y-46527546D01*
X134303592Y-46529080D01*
X134303586Y-46529083D01*
X134008467Y-46691998D01*
X133964128Y-46716474D01*
X133961507Y-46718289D01*
X133961502Y-46718292D01*
X133645353Y-46937204D01*
X133642729Y-46939021D01*
X133345466Y-47192909D01*
X133075381Y-47475536D01*
X132835240Y-47784011D01*
X132833544Y-47786715D01*
X132833541Y-47786719D01*
X132756108Y-47910158D01*
X132627501Y-48115174D01*
X132626091Y-48118026D01*
X132626087Y-48118034D01*
X132502016Y-48369074D01*
X132454293Y-48465635D01*
X132317387Y-48831806D01*
X132218186Y-49209938D01*
X132203305Y-49304964D01*
X132159881Y-49582266D01*
X132157705Y-49596159D01*
X132157534Y-49599318D01*
X132157533Y-49599327D01*
X132144447Y-49840964D01*
X132136565Y-49986514D01*
X54378633Y-49986514D01*
X54379235Y-49871583D01*
X54379235Y-49871576D01*
X54379257Y-49867297D01*
X54341732Y-49582266D01*
X54265871Y-49304964D01*
X54255295Y-49280170D01*
X54154763Y-49044476D01*
X54154761Y-49044472D01*
X54153077Y-49040524D01*
X54005439Y-48793839D01*
X53825687Y-48569472D01*
X53617149Y-48371577D01*
X53383683Y-48203814D01*
X53361843Y-48192250D01*
X53338654Y-48179972D01*
X53129608Y-48069288D01*
X52859627Y-47970489D01*
X52578736Y-47909245D01*
X52547685Y-47906801D01*
X52355718Y-47891693D01*
X52355709Y-47891693D01*
X52353261Y-47891500D01*
X52197729Y-47891500D01*
X52195593Y-47891646D01*
X52195582Y-47891646D01*
X51987452Y-47905835D01*
X51987446Y-47905836D01*
X51983175Y-47906127D01*
X51978980Y-47906996D01*
X51978978Y-47906996D01*
X51842417Y-47935276D01*
X51701658Y-47964426D01*
X51430657Y-48060393D01*
X51175188Y-48192250D01*
X51171687Y-48194711D01*
X51171683Y-48194713D01*
X51161594Y-48201804D01*
X50939977Y-48357559D01*
X50924892Y-48371577D01*
X50810344Y-48478022D01*
X50729378Y-48553260D01*
X50547287Y-48775732D01*
X50397073Y-49020858D01*
X50395347Y-49024791D01*
X50395346Y-49024792D01*
X50283243Y-49280170D01*
X50281517Y-49284102D01*
X50202756Y-49560594D01*
X50162249Y-49845216D01*
X50162227Y-49849505D01*
X50162226Y-49849512D01*
X50161288Y-50028665D01*
X50160743Y-50132703D01*
X49257268Y-50132703D01*
X49263365Y-50026972D01*
X49263459Y-50000000D01*
X49256522Y-49863049D01*
X49243842Y-49612746D01*
X49243841Y-49612741D01*
X49243681Y-49609573D01*
X49193877Y-49284102D01*
X49185033Y-49226304D01*
X49185031Y-49226295D01*
X49184549Y-49223144D01*
X49136367Y-49036837D01*
X49087465Y-48847748D01*
X49087462Y-48847740D01*
X49086668Y-48844668D01*
X49083047Y-48834879D01*
X48952151Y-48481019D01*
X48952148Y-48481013D01*
X48951042Y-48478022D01*
X48779057Y-48126958D01*
X48773503Y-48118034D01*
X48574162Y-47797781D01*
X48572476Y-47795072D01*
X48333414Y-47485760D01*
X48064317Y-47202192D01*
X48061893Y-47200107D01*
X47770356Y-46949346D01*
X47770353Y-46949344D01*
X47767941Y-46947269D01*
X47765333Y-46945449D01*
X47765327Y-46945445D01*
X47449934Y-46725424D01*
X47447321Y-46723601D01*
X47105740Y-46533479D01*
X47102820Y-46532221D01*
X47102815Y-46532219D01*
X46749628Y-46380112D01*
X46749618Y-46380108D01*
X46746694Y-46378849D01*
X46373860Y-46261295D01*
X46099971Y-46204575D01*
X45994180Y-46182667D01*
X45994177Y-46182667D01*
X45991055Y-46182020D01*
X45707344Y-46152702D01*
X45605354Y-46142162D01*
X45605351Y-46142162D01*
X45602198Y-46141836D01*
X45599031Y-46141830D01*
X45599022Y-46141830D01*
X45406362Y-46141494D01*
X45211271Y-46141153D01*
X44822276Y-46179980D01*
X44439197Y-46257919D01*
X44065955Y-46374171D01*
X43958229Y-46420120D01*
X43709301Y-46526296D01*
X43709297Y-46526298D01*
X43706371Y-46527546D01*
X43703592Y-46529080D01*
X43703586Y-46529083D01*
X43408467Y-46691998D01*
X43364128Y-46716474D01*
X43361507Y-46718289D01*
X43361502Y-46718292D01*
X43045353Y-46937204D01*
X43042729Y-46939021D01*
X42745466Y-47192909D01*
X42475381Y-47475536D01*
X42235240Y-47784011D01*
X42233544Y-47786715D01*
X42233541Y-47786719D01*
X42156108Y-47910158D01*
X42027501Y-48115174D01*
X42026091Y-48118026D01*
X42026087Y-48118034D01*
X41902016Y-48369074D01*
X41854293Y-48465635D01*
X41717387Y-48831806D01*
X41618186Y-49209938D01*
X41603305Y-49304964D01*
X41559881Y-49582266D01*
X41557705Y-49596159D01*
X41557534Y-49599318D01*
X41557533Y-49599327D01*
X41544447Y-49840964D01*
X41536565Y-49986514D01*
X40508000Y-49986514D01*
X40508000Y-34020643D01*
X43003965Y-34020643D01*
X43023638Y-34217744D01*
X43024770Y-34224892D01*
X43097124Y-34556737D01*
X43099072Y-34563715D01*
X43209086Y-34885040D01*
X43211823Y-34891747D01*
X43358039Y-35198293D01*
X43361534Y-35204651D01*
X43542005Y-35492346D01*
X43546214Y-35498270D01*
X43758561Y-35763321D01*
X43763412Y-35768709D01*
X44004822Y-36007604D01*
X44010260Y-36012398D01*
X44277531Y-36221966D01*
X44283476Y-36226098D01*
X44573068Y-36403560D01*
X44579447Y-36406981D01*
X44887522Y-36549984D01*
X44894241Y-36552644D01*
X45216707Y-36659289D01*
X45223711Y-36661166D01*
X45556288Y-36730039D01*
X45563449Y-36731096D01*
X45862103Y-36757751D01*
X45867698Y-36758000D01*
X47227885Y-36758000D01*
X47243124Y-36753525D01*
X47244329Y-36752135D01*
X47246000Y-36744452D01*
X47246000Y-36739885D01*
X47754000Y-36739885D01*
X47758475Y-36755124D01*
X47759865Y-36756329D01*
X47767548Y-36758000D01*
X49086589Y-36758000D01*
X49090236Y-36757895D01*
X49342697Y-36743338D01*
X49349887Y-36742506D01*
X49684471Y-36684113D01*
X49691526Y-36682458D01*
X50017166Y-36585998D01*
X50023994Y-36583540D01*
X50336392Y-36450290D01*
X50342875Y-36447073D01*
X50637911Y-36278788D01*
X50643966Y-36274856D01*
X50917703Y-36073775D01*
X50923276Y-36069165D01*
X51172074Y-35837967D01*
X51177090Y-35832737D01*
X51397665Y-35574476D01*
X51402047Y-35568704D01*
X51591481Y-35286796D01*
X51595161Y-35280575D01*
X51750940Y-34978757D01*
X51753884Y-34972146D01*
X51873935Y-34654439D01*
X51876106Y-34647513D01*
X51958845Y-34318112D01*
X51960201Y-34311005D01*
X51998255Y-34021960D01*
X51998050Y-34020643D01*
X129363965Y-34020643D01*
X129383638Y-34217744D01*
X129384770Y-34224892D01*
X129457124Y-34556737D01*
X129459072Y-34563715D01*
X129569086Y-34885040D01*
X129571823Y-34891747D01*
X129718039Y-35198293D01*
X129721534Y-35204651D01*
X129902005Y-35492346D01*
X129906214Y-35498270D01*
X130118561Y-35763321D01*
X130123412Y-35768709D01*
X130364822Y-36007604D01*
X130370260Y-36012398D01*
X130637531Y-36221966D01*
X130643476Y-36226098D01*
X130933068Y-36403560D01*
X130939447Y-36406981D01*
X131247522Y-36549984D01*
X131254241Y-36552644D01*
X131576707Y-36659289D01*
X131583711Y-36661166D01*
X131916288Y-36730039D01*
X131923449Y-36731096D01*
X132222103Y-36757751D01*
X132227698Y-36758000D01*
X133587885Y-36758000D01*
X133603124Y-36753525D01*
X133604329Y-36752135D01*
X133606000Y-36744452D01*
X133606000Y-36739885D01*
X134114000Y-36739885D01*
X134118475Y-36755124D01*
X134119865Y-36756329D01*
X134127548Y-36758000D01*
X135446589Y-36758000D01*
X135450236Y-36757895D01*
X135702697Y-36743338D01*
X135709887Y-36742506D01*
X136044471Y-36684113D01*
X136051526Y-36682458D01*
X136377166Y-36585998D01*
X136383994Y-36583540D01*
X136696392Y-36450290D01*
X136702875Y-36447073D01*
X136997911Y-36278788D01*
X137003966Y-36274856D01*
X137277703Y-36073775D01*
X137283276Y-36069165D01*
X137532074Y-35837967D01*
X137537090Y-35832737D01*
X137757665Y-35574476D01*
X137762047Y-35568704D01*
X137951481Y-35286796D01*
X137955161Y-35280575D01*
X138110940Y-34978757D01*
X138113884Y-34972146D01*
X138233935Y-34654439D01*
X138236106Y-34647513D01*
X138318845Y-34318112D01*
X138320201Y-34311005D01*
X138358255Y-34021960D01*
X138356043Y-34007778D01*
X138342886Y-34004000D01*
X134132115Y-34004000D01*
X134116876Y-34008475D01*
X134115671Y-34009865D01*
X134114000Y-34017548D01*
X134114000Y-36739885D01*
X133606000Y-36739885D01*
X133606000Y-34022115D01*
X133601525Y-34006876D01*
X133600135Y-34005671D01*
X133592452Y-34004000D01*
X129380419Y-34004000D01*
X129366026Y-34008226D01*
X129363965Y-34020643D01*
X51998050Y-34020643D01*
X51996043Y-34007778D01*
X51982886Y-34004000D01*
X47772115Y-34004000D01*
X47756876Y-34008475D01*
X47755671Y-34009865D01*
X47754000Y-34017548D01*
X47754000Y-36739885D01*
X47246000Y-36739885D01*
X47246000Y-34022115D01*
X47241525Y-34006876D01*
X47240135Y-34005671D01*
X47232452Y-34004000D01*
X43020419Y-34004000D01*
X43006026Y-34008226D01*
X43003965Y-34020643D01*
X40508000Y-34020643D01*
X40508000Y-31384000D01*
X40528002Y-31315879D01*
X40581658Y-31269386D01*
X40634000Y-31258000D01*
X43942027Y-31258000D01*
X44010148Y-31278002D01*
G37*
G04 #@! TD.AperFunction*
M02*
